<svg width="210" height="67" viewBox="0 0 210 67" fill="none" xmlns="http://www.w3.org/2000/svg">
<path d="M1.89996 5.89999C1.79996 5.59999 1.59997 5.29999 1.49997 4.79999C1.79997 4.89999 2.89997 5.00001 4.69997 5.10001V2.10001C4.69997 1.50001 4.59997 0.900012 4.49997 0.200012C5.19997 0.300012 5.79998 0.4 6.59998 0.5C7.09998 0.6 7.39996 0.699994 7.39996 0.899994C7.39996 0.999994 7.29997 1.10001 6.99997 1.20001C6.59997 1.30001 6.49997 1.4 6.49997 1.5V5.10001H6.79997C7.29997 4.30001 7.59997 3.79999 7.79997 3.79999C7.89997 3.79999 8.09997 4 8.49997 4.5C8.79997 4.9 8.99998 5.19999 9.09998 5.39999C9.09998 5.59999 8.99997 5.70001 8.79997 5.70001H6.49997V6.89999C8.19997 7.69999 9.09998 8.49999 9.09998 9.29999C9.09998 9.69999 8.99997 10 8.69997 10.1C8.49997 10.2 8.29998 10.3 8.09998 10.3C7.69998 10.3 7.39997 9.90001 7.29997 9.10001C7.09997 8.40001 6.79996 7.79999 6.39996 7.39999V14.3C6.39996 16.5 6.39997 18 6.49997 19C6.49997 19.3 6.09997 19.5 5.19997 19.5C4.69997 19.5 4.49997 19.4 4.49997 19.1C4.49997 18.3 4.59998 16.7 4.59998 14.2V9.70001C3.69998 11.7 2.79997 13.2 1.69997 14.3C1.59997 14.3 1.49996 14.2 1.39996 14.1C2.89996 11.6 3.89997 8.90001 4.29997 5.70001C2.79997 5.80001 1.89996 5.79999 1.89996 5.89999ZM14.4 1.20001C14.4 1.30001 14.3 1.4 14.1 1.5C13.7 1.7 13.4 1.79999 13.4 1.89999V8.79999C13.4 14.4 11.6 17.9 7.89996 19.3C7.79996 19.2 7.79997 19.1 7.69997 19C9.09997 17.8 10.1 16.4 10.6 14.9C11 14 11.3 12.6 11.5 10.6C11 11.2 10.4 11.8 9.79997 12.4C9.79997 12.5 9.69997 12.8 9.69997 13.3C9.69997 13.4 9.59997 13.5 9.49997 13.5C9.29997 13.5 8.69996 12.7 7.89996 11.2C8.39996 11.2 9.59998 10.7 11.6 9.70001C11.6 9.00001 11.7 8.19999 11.7 7.29999V2.5C11.7 1.6 11.6 0.899988 11.5 0.299988C13.4 0.699988 14.4 1.00001 14.4 1.20001ZM11.2 6.79999C11.2 7.49999 10.9 7.79999 10.4 7.79999C9.89996 7.79999 9.69997 7.5 9.69997 7C9.69997 6.7 9.59998 6.29999 9.59998 5.79999C9.49998 5.29999 9.39997 4.80001 9.19997 4.20001C8.99997 3.70001 8.89997 3.40001 8.79997 3.20001C8.89997 3.10001 8.99998 3 9.09998 3C10.5 4.4 11.2 5.59999 11.2 6.79999ZM17.6 1.29999C17.6 1.39999 17.5 1.50001 17.3 1.60001C16.9 1.70001 16.7 1.9 16.6 2V6.89999C17.4 5.79999 18 4.50001 18.3 3.20001C18.6 3.40001 19.2 3.70001 20 4.20001C20.4 4.50001 20.6 4.69999 20.6 4.79999C20.6 4.89999 20.5 5 20.3 5C19.9 5 19.6 5.10001 19.5 5.10001C19.1 5.60001 18.7 6.1 18.2 6.5C17.7 6.9 17.2 7.3 16.7 7.5V9.39999C17.6 9.59999 18.4 9.90001 19 10.2C19.9 10.7 20.4 11.2 20.4 11.7C20.4 12.2 20.3 12.5 20.2 12.6C20.1 12.9 19.8 13 19.5 13C19.3 13 19 12.6 18.6 11.9C18 11 17.4 10.3 16.8 9.89999V16.5C16.8 17 17 17.2 17.4 17.2H18C18.6 17.2 19 16.8 19.2 15.9C19.5 14.9 19.7 14.3 19.7 14C19.8 14 19.9 14 20 14C20 14 20 14.8 20 16.3C20 16.6 20.1 16.8 20.3 16.9C20.6 17.1 20.8 17.3 20.8 17.5C20.8 18 20.4 18.3 19.7 18.5C19.3 18.6 18.8 18.7 18.1 18.7C17.3 18.7 16.9 18.7 16.7 18.6C15.5 18.5 14.9 17.8 14.9 16.6V2.10001C14.9 1.50001 14.9 0.899988 14.8 0.299988C16.6 0.799988 17.6 1.09999 17.6 1.29999Z" fill="#00404B"/>
<path d="M26.1 7.70001C26.2 8.40001 26.3 8.99999 26.4 9.79999C26.4 13.1 25.5 14.8 23.6 14.9C22.8 14.9 22.4 14.6 22.4 14.1C22.4 13.8 22.4 13.5 22.5 13.4C22.6 13.2 23 12.7 23.9 12C24.9 11.1 25.5 9.69999 25.7 7.79999C25.9 7.69999 26.1 7.70001 26.1 7.70001ZM31.6 5.5C31.6 5.8 31.2 5.99999 30.4 6.29999V15.7C30.4 16.4 30.8 16.7 31.5 16.8H34.4C35.2 16.8 35.8 16.4 36.1 15.7C36.3 15.2 36.6 14.1 36.9 12.4C37.2 12.4 37.3 12.4 37.3 12.4V15.6C37.3 15.9 37.5 16.1 37.9 16.2C38.3 16.5 38.6 16.7 38.6 17C38.6 17.7 37.9 18.2 36.6 18.4C35.7 18.5 34.8 18.6 33.9 18.6C32 18.6 30.8 18.6 30.3 18.5C29.1 18.4 28.5 17.4 28.5 15.4V7.10001C28.5 6.00001 28.4 5.19999 28.3 4.79999C30.5 4.99999 31.6 5.3 31.6 5.5ZM35.3 3.39999C35.3 3.99999 35.2 4.40001 35 4.70001C34.8 4.90001 34.6 5 34.3 5C33.8 5 33.3 4.5 32.8 3.5C32 2.4 31 1.29999 29.5 0.399994C29.5 0.299994 29.6 0.200006 29.6 0.100006C33.3 1.10001 35.2 2.19999 35.3 3.39999ZM41.6 12.4C41.6 13 41.5 13.4 41.3 13.7C41.1 14 40.8 14.1 40.4 14.1C39.8 14.1 39.5 13.5 39.3 12.3C38.8 10.1 38.1 8.49999 37.1 7.29999L37.4 7.10001C40.2 9.00001 41.6 10.8 41.6 12.4Z" fill="#00404B"/>
<path d="M45.6 17.6C45.5 18.2 45.3 18.5 45.2 18.5C45.1 18.5 44.9 18.2 44.7 17.7C44.5 17.2 44.3 16.5 44.1 15.7C44.5 15.8 45.0999 15.8 45.8999 15.8V8.79999C45.0999 8.79999 44.5 8.9 44.2 9C44.1 8.6 43.9 8.29999 43.7 7.89999C44.7 7.99999 46.6 8.10001 49.1 8.10001H59.5C60 7.50001 60.4 7.09999 60.7 6.89999H60.8C60.9 6.99999 61.1 7.10001 61.2 7.20001C61.9 7.80001 62.3 8.19999 62.3 8.39999C62.3 8.59999 62.2 8.70001 62.1 8.70001H52.5V15.9C52.5 16.7 52.6 17.7 52.6 18.9C52.6 19.2 52.2 19.3 51.5 19.4C50.9 19.4 50.6 19.3 50.6 19.1C50.6 18.5 50.7 17.5 50.7 16C49.5 16.6 47.8 17.1 45.6 17.6ZM48.3999 1.20001H57C57.5 0.600012 57.9 0.299988 58.1 0.299988C58.3 0.299988 58.7 0.499994 59.2 0.899994C59.7 1.29999 60 1.60001 60 1.70001C60 1.80001 59.9 2.00001 59.7 2.10001C59.3 2.30001 59.1 2.50001 59.1 2.60001V4.89999C59.2 5.79999 59.2 6.30001 59.2 6.60001C59.2 7.10001 58.8 7.29999 58.1 7.29999C57.6 7.29999 57.3 7.19999 57.2 6.89999V6.5H48.7V6.79999C48.6 7.19999 48.2 7.39999 47.5 7.39999C47.1 7.39999 46.8 7.30001 46.7 7.20001C46.7 6.20001 46.7 5.10001 46.8 4.10001V2.10001C46.8 1.30001 46.7 0.700006 46.6 0.600006L48.3999 1.20001ZM47.8 8.70001V10.4H50.7V8.70001H47.8ZM47.8 11V12.9H50.7V11H47.8ZM47.8 13.4V15.6C49 15.5 49.9 15.4 50.7 15.3V13.4H47.8ZM57.3 3.39999V1.70001H48.8V3.39999H57.3ZM57.3 6V4H48.8V6H57.3ZM60.8999 9.89999C61.4999 10.4 61.8 10.7 61.8 10.9C61.8 11 61.7 11.1 61.5 11.2C61 11.3 60.8 11.4 60.8 11.6C60.1 13 59.3 14.3 58.3 15.4C58.9 15.9 59.6 16.2 60.3 16.6C61.1 17 61.8999 17.3 62.3999 17.3C62.3999 17.4 62.4 17.6 62.3 17.7C62 17.7 61.8 17.8 61.7 17.9C61.5 18.1 61.3 18.4 61.1 18.8C60.9 19.1 60.7 19.3 60.6 19.3C60.5 19.3 60.1 19.2 59.7 18.9C58.7 18.3 57.7 17.6 57 16.7C55.9 17.6 54.7 18.4 53.3 19.1C53.2 19 53.2 18.9 53.1 18.8C54.2 18 55.3 17 56.2 15.7C55.3 14.4 54.7999 12.7 54.3999 10.8C53.7999 10.8 53.4 10.9 53.1 10.9C52.9 10.4 52.8 10.1 52.7 9.89999C53.5 10.1 54.4 10.2 55.6 10.2H58.6C59.3 9.50001 59.6 9.20001 59.8 9.20001C60 9.20001 60.3999 9.39999 60.8999 9.89999ZM57.1 14.4C57.9 13.2 58.5 11.9 58.8 10.7H55.5C55.3 10.7 55.0999 10.7 54.8999 10.7C55.3999 12.2 56.1 13.4 57.1 14.4Z" fill="#00404B"/>
<path d="M66.7 16.8C66.6 18.2 66.1 18.9 65.1 18.9C64.5 18.9 64.2 18.6 64.2 18.2C64.2 17.8 64.3999 17.4 64.8999 17C65.4999 16.4 65.9 15.6 66.1 14.6C66.1 14.2 66.2 13.8 66.2 13.4C66.3 13.4 66.4 13.4 66.5 13.3C66.6 14.6 66.7 15.7 66.7 16.8ZM72.3 11.2C72.3 11.9 72 12.2 71.5 12.2C71 12.2 70.7 11.9 70.7 11.4C70.7 11.3 70.7 11.1 70.6 10.8C69.5 11.2 67.9 11.6 65.8 12C65.7 12.5 65.5999 12.8 65.3999 12.8C65.2999 12.8 65.1 12.6 65 12.1C64.8 11.6 64.6 11.1 64.5 10.3C64.9 10.4 65.4 10.4 66.2 10.4C67.4 9.09999 68.4 7.60001 69.2 6.20001C68.3 6.50001 67.1999 6.90001 65.8999 7.20001C65.7999 7.70001 65.7 8 65.6 8C65.5 8 65.3 7.79999 65.2 7.29999C65 6.79999 64.8 6.30001 64.7 5.60001C65 5.60001 65.3999 5.70001 65.8999 5.70001C66.9999 4.10001 67.7 2.30001 68 0.200012C69.7 0.600012 70.5 0.900006 70.5 1.10001C70.5 1.30001 70.2999 1.39999 69.8999 1.39999C69.5999 1.49999 69.5 1.5 69.5 1.5C68.8 3 67.8 4.40001 66.5 5.70001C67.8 5.70001 68.9 5.60001 69.6 5.60001C70 4.90001 70.3 4.09999 70.5 3.29999C72.1 3.89999 72.8999 4.3 72.8999 4.5C72.8999 4.7 72.6 4.79999 72 4.89999C71 6.69999 69.3 8.6 67 10.5C68.5 10.5 69.7 10.5 70.5 10.4C70.4 10.1 70.3 9.8 70.2 9.5C70 9.1 69.9 8.90001 69.8 8.70001C69.9 8.60001 70 8.5 70.1 8.5C71.5 9.4 72.3 10.3 72.3 11.2ZM69.1 17C69.1 18 68.7 18.4 68 18.4C67.6 18.4 67.3999 18.1 67.3999 17.6C67.3999 17.3 67.5 16.9 67.7 16.1C67.8 15.7 67.8 15 67.8 14.1C67.8 13.8 67.8 13.4 67.7 13.2C67.8 13.2 67.9 13.2 68 13.1C68.7 14.7 69.1 15.9 69.1 17ZM71.8999 16.7C71.8999 17.5 71.6 17.9 71 17.9C70.6 17.9 70.3 17.6 70.3 17.2V16.8C70.3 16.5 70.3 16.3 70.3 16C70.3 15 70 14 69.5 13.2C69.7 13.2 69.8 13.1 69.8 13.1C71.2 14.1 71.8999 15.4 71.8999 16.7ZM77.8 1C77.8 1.1 77.7 1.19999 77.5 1.29999C77.1 1.39999 76.9 1.50001 76.8 1.60001C76.7 1.90001 76.6 2.19999 76.5 2.39999H79C79.6 1.69999 80 1.39999 80.1 1.39999C80.2 1.39999 80.5 1.6 81 2C81.5 2.4 81.8 2.79999 81.8 2.89999C81.8 3.09999 81.4999 3.3 80.8999 3.5L79.8 7.79999H80.8C81.3 7.19999 81.7 6.80001 82 6.60001C82 6.60001 82.1 6.60001 82.2 6.60001C82.3 6.70001 82.5 6.79999 82.6 6.89999C83.3 7.49999 83.7 7.90001 83.7 8.10001C83.7 8.30001 83.6 8.39999 83.5 8.39999H78.5C78.8 9.59999 79.1999 10.8 79.8999 12C80.5999 11.2 81.1 10.3 81.3 9.29999C81.6 9.49999 82.1999 9.80001 82.8999 10.2C83.2999 10.5 83.5 10.6 83.5 10.7C83.5 10.8 83.4 10.9 83.2 10.9C82.8 10.9 82.5999 11 82.3999 11C81.9999 11.3 81.6 11.6 81.2 11.9C80.9 12.1 80.5 12.3 80.2 12.4C80.4 12.7 80.6 13 80.7 13.3C81.6 14.5 82.7 15.3 84 15.8C84 15.8 83.8999 15.9 83.8999 16.1C83.5999 16.1 83.4 16.4 83.2 16.8C83.1 17 83.1 17.2 83 17.4C82.9 17.5 82.9 17.6 82.7 17.6C81.6 17.6 80.4 16 79.1 12.8C78.8 12 78.5999 11.2 78.3999 10.4V16.8C78.3999 18.3 77.6 19.2 76 19.4C75.9 19.4 75.7 19.2 75.7 18.7C75.6 18.2 75.3 17.8 74.8 17.6C74.4 17.3 74 17.2 73.6 17.1C73.6 17 73.6 16.9 73.6 16.8C74.2 16.8 75 16.9 76.2 17C76.6 17 76.8 16.8 76.8 16.5V13.4C75.8 14.2 74.8 14.9 73.6 15.5C73.5 15.6 73.4999 15.9 73.3999 16.2C73.3999 16.4 73.3 16.5 73.2 16.5C73 16.5 72.7999 16.1 72.3999 15.2C72.1999 14.7 72.0999 14.4 71.8999 14.1C73.4999 13.8 75.1 13.4 76.8 12.6V8.29999H75C73.4 8.29999 72.5 8.40001 72.1 8.60001C72 8.20001 71.8 7.9 71.6 7.5C72.2 7.6 73.3 7.70001 74.7 7.70001H78L78.5 5.79999H75.2C75.1 5.99999 75.1 6.10001 75 6.20001C74.9 6.50001 74.6 6.60001 74 6.70001C73.4 6.70001 73.1 6.59999 73.1 6.29999C74.3 3.89999 74.9 1.90001 75.1 0.200012C76.9 0.600012 77.8 0.9 77.8 1ZM75.5 11.1C75.5 11.7 75.4 12.1 75.2 12.3C75 12.5 74.8 12.6 74.5 12.6C74.3 12.6 74.0999 12.3 73.8999 11.6C73.5999 10.9 73.2 10.2 72.6 9.60001C72.6 9.50001 72.7 9.39999 72.7 9.29999C74.5 9.79999 75.4 10.4 75.5 11.1ZM78.7 5.29999L79.3 2.89999H76.3999C76.0999 3.89999 75.8 4.69999 75.5 5.29999H78.7Z" fill="#00404B"/>
<path d="M94.4 1.79999C94.4 1.89999 94.3 2 94.1 2C93.7 2 93.4 1.89999 93.1 1.89999C92.6 2.19999 91.9 2.4 91.1 2.5V4.79999H92C92.3 4.39999 92.5 4.09999 92.8 3.79999C92.9 3.69999 93 3.70001 93 3.70001C93.1 3.70001 93.2 3.79999 93.4 3.89999C93.9 4.39999 94.2 4.69999 94.4 4.89999C95.2 3.59999 95.7 2.09999 96.1 0.299988C97.8 0.699988 98.7 1.00001 98.7 1.20001C98.7 1.40001 98.4 1.50001 97.8 1.60001C97.6 1.90001 97.5 2.2 97.3 2.5H101.5C102 1.7 102.4 1.30001 102.6 1.20001H102.7C102.9 1.30001 103.1 1.49999 103.5 1.79999C104 2.29999 104.3 2.59999 104.4 2.79999C104.4 2.99999 104.3 3.10001 104.3 3.10001H97C96.7 3.60001 96.4 3.99999 96 4.39999L96.8 4.70001H101.2C101.7 4.00001 102 3.70001 102.2 3.70001C102.4 3.70001 102.7 3.89999 103.2 4.29999C103.7 4.69999 103.9 4.90001 103.9 5.10001C103.9 5.20001 103.8 5.4 103.6 5.5C103.3 5.7 103.1 5.89999 103 5.89999V8.29999C103.1 9.19999 103.1 9.80001 103.1 10.1C103.1 10.5 102.8 10.8 102.1 10.8C101.6 10.8 101.3 10.7 101.3 10.4V10.3H99.2C99.1 10.6 99 10.9 98.8 11.2C98.7 11.5 98.5 11.8 98.4 12.1H100.5C101 11.6 101.4 11.3 101.6 11.3C101.7 11.3 102.1 11.5 102.5 12C103 12.4 103.2 12.7 103.2 12.9C103.2 13 103.1 13.1 102.9 13.2C102.5 13.4 102.2 13.5 102.1 13.7C101.6 14.9 100.9 15.9 100.1 16.7C101.4 17.3 103 17.7 104.7 17.9C104.7 18 104.7 18.2 104.7 18.3C104.5 18.3 104.3 18.4 104.1 18.5C103.9 18.6 103.7 18.9 103.6 19.3C103.5 19.6 103.4 19.7 103.2 19.7C102.3 19.5 101.1 19 99.8 18.1C99.5 17.9 99.3 17.7 99.1 17.6C97.6 18.7 95.6 19.4 93.2 19.8C93.2 19.7 93.2 19.6 93.1 19.5C95.5 18.7 97.1 17.7 98.1 16.7C97.6 16 97.1 15.3 96.7 14.3C95.9 15 95 15.6 94 16C93.9 16 93.8 15.9 93.8 15.7C95.4 14.3 96.5 12.7 97 11.1C97.1 10.9 97.2 10.7 97.2 10.5H96.7V10.7C96.6 11.1 96.3 11.3 95.6 11.3C95.2 11.3 95 11.2 94.9 11.1C94.9 10 94.9 9 95 8V5.89999C95 5.79999 95 5.70001 95 5.60001C94.4 6.20001 93.8 6.7 93.1 7C93 6.9 93 6.79999 93 6.79999C93.3 6.39999 93.6 6.00001 93.9 5.60001H90.9V6.89999C90.9 6.89999 91 6.80001 91 6.70001C93 6.90001 94.1 7.5 94.2 8.5C94.2 8.7 94.2 8.9 94.1 9C94 9.3 93.8 9.39999 93.5 9.39999C93.2 9.39999 92.9 9.09999 92.5 8.39999C92.1 7.69999 91.6 7.19999 91 6.79999V7.60001C91 8.40001 91.1 9.29999 91.1 10.3C91.1 10.6 90.8 10.7 90.1 10.7C89.6 10.7 89.3 10.6 89.3 10.4C89.3 9.89999 89.4 8.89999 89.4 7.39999C88.4 8.59999 87.2 9.49999 85.8 10.3C85.7 10.2 85.7 10.1 85.7 10.1C87.3 8.70001 88.4 7.20001 89 5.60001C89.1 5.50001 89.1 5.39999 89.1 5.29999H87.9C87 5.29999 86.3 5.39999 85.9 5.39999C85.8 5.19999 85.7 4.90001 85.6 4.60001C86 4.70001 86.8 4.70001 87.9 4.70001H89.3V2.60001C88.4 2.70001 87.3 2.70001 86.1 2.70001C86.1 2.60001 86.1 2.49999 86.1 2.39999C88.9 1.79999 91.1 1.10001 92.5 0.200012C93.7 1.20001 94.4 1.69999 94.4 1.79999ZM88.3 11.2H91.5C92 10.7 92.3 10.4 92.5 10.3C92.7 10.3 93 10.5 93.5 10.9C94 11.3 94.2 11.5 94.2 11.7C94.2 11.8 94.1 11.9 93.9 12C93.6 12.2 93.5 12.4 93.4 12.5V15.7C93.5 17 93.5 17.8 93.5 18.1C93.5 18.5 93.2 18.7 92.5 18.8C92 18.8 91.7 18.7 91.7 18.4V17.7H88.6V18.5C88.5 18.9 88.2 19.1 87.6 19.1C87.2 19.1 87 19 86.9 18.9C86.9 17.6 86.9 16.3 87 15V12.5C87 11.4 86.9 10.8 86.9 10.6L88.3 11.2ZM91.8 14.1V11.7H88.7V14.1H91.8ZM91.8 17.3V14.7H88.7V17.3H91.8ZM101.3 7.20001V5.20001H96.8V7.20001H101.3ZM101.3 9.60001V7.79999H96.8V9.60001H101.3ZM98.9 15.5C99.8 14.5 100.4 13.5 100.6 12.4H98C97.7 12.8 97.4 13.2 97.1 13.5C97.8 14.4 98.4 15.1 98.9 15.5Z" fill="#00404B"/>
<path d="M115.5 13.5L115.1 13.1C115.9 12.4 116.3 11.8 116.3 11.1C116.3 11 116.2 10.9 116 10.9C115 10.7 114.5 10.2 114.5 9.39999C114.5 8.99999 114.6 8.69999 114.9 8.39999C115.2 8.09999 115.6 7.89999 116.1 7.89999C116.6 7.89999 117 8.1 117.3 8.5C117.5 8.8 117.7 9.20001 117.7 9.60001C117.6 11.2 116.9 12.5 115.5 13.5Z" fill="#00404B"/>
<path d="M145.2 1.60001C145.8 2.20001 146.1 2.59999 146.1 2.89999C146.1 3.09999 145.8 3.20001 145.2 3.20001C145.2 3.20001 145 3.20001 144.7 3.20001C143.9 3.90001 142.9 4.70001 141.6 5.60001C141.8 5.60001 142 5.70001 142.1 5.70001C142.2 5.80001 142.2 5.8 142.2 6C142.2 6.1 142.1 6.19999 141.9 6.29999C141.7 6.39999 141.6 6.4 141.6 6.5V9.20001H143.2C143.8 8.30001 144.2 7.80001 144.5 7.60001H144.6C144.8 7.70001 145.1 7.89999 145.6 8.29999C146.2 8.89999 146.6 9.3 146.6 9.5C146.6 9.7 146.5 9.79999 146.5 9.79999H141.6V17C141.5 18.3 140.7 19 139.2 19.2C139 19.2 138.9 19 138.8 18.7C138.7 18.3 138.3 17.9 137.7 17.6C137.3 17.4 136.9 17.3 136.4 17.2C136.4 17.1 136.4 16.9 136.5 16.8C137.2 16.9 137.9 17 138.7 17C139.3 17 139.6 16.8 139.6 16.3V9.79999H135C134.7 11.2 134.3 12.4 133.8 13.5C134.9 14.2 135.5 14.9 135.5 15.7C135.5 16.2 135.4 16.5 135.2 16.6C135.1 16.8 134.9 16.8 134.7 16.8C134.2 16.8 133.7 16.3 133.1 15.2C133 15.1 133 15 132.9 15C131.6 17 130 18.3 128 19.1C128 19.1 127.9 19 127.8 18.8C129.4 17.6 130.7 15.9 131.8 13.8V13.7C131.3 13.2 130.7 12.8 130.1 12.4C130 12.6 130 12.8 129.9 12.9C129.8 13.2 129.5 13.4 128.9 13.4C128.3 13.4 128 13.3 128 12.9C129 10.2 129.8 7.69999 130.3 5.39999C129.4 5.39999 128.6 5.50001 128.1 5.60001C128 5.30001 127.9 5.00001 127.7 4.60001C128.2 4.70001 129.1 4.79999 130.2 4.79999H130.4C130.7 3.19999 130.9 1.79999 131 0.399994C132.9 0.799994 133.8 1.10001 133.8 1.20001C133.8 1.30001 133.7 1.4 133.5 1.5C133.1 1.6 132.8 1.69999 132.7 1.79999C132.5 2.89999 132.3 3.89999 132 4.79999H133.4C134 4.19999 134.4 3.79999 134.6 3.79999C134.8 3.79999 135.2 4.10001 135.8 4.60001C136.3 5.10001 136.6 5.4 136.6 5.5C136.6 5.7 136.5 5.79999 136.3 5.79999C136 5.89999 135.8 6.00001 135.5 6.10001C135.4 7.10001 135.2 8.1 135 9H139.5V8.60001C139.5 6.90001 139.5 5.7 139.4 5C139.8 5.1 140.3 5.10001 140.7 5.20001C141.5 4.20001 142.3 3.19999 142.8 2.29999H137.7C136.5 2.39999 135.8 2.40001 135.5 2.60001C135.3 2.10001 135.1 1.8 135 1.5C135.7 1.7 136.5 1.79999 137.5 1.79999H142.7C143.5 1.09999 144 0.799988 144.2 0.799988C144.5 0.899988 144.8 1.20001 145.2 1.60001ZM132.4 12.7C133.2 10.7 133.6 8.3 133.8 5.5H132C131.4 8.3 130.8 10.4 130.3 12C131.1 12.2 131.8 12.4 132.4 12.7Z" fill="#00404B"/>
<path d="M156.5 10.5C157.2 11.1 157.6 11.5 157.7 11.7C157.7 11.9 157.6 12 157.5 12H154.6V12.9C156.3 13.2 157.1 13.8 157.2 14.8C157.2 15.1 157.2 15.2 157.1 15.4C157 15.7 156.7 15.9 156.4 15.9C156.2 15.9 155.9 15.6 155.5 14.9C155.2 14.3 154.9 13.8 154.5 13.4V19C154.5 19.4 154.1 19.5 153.4 19.6C152.9 19.6 152.6 19.5 152.6 19.2C152.6 17.6 152.6 16 152.6 14.6C151.7 16 150.3 17.2 148.4 18.1C148.3 18.1 148.3 18 148.2 17.8C150 16.3 151.1 14.6 151.7 12.8C151.8 12.5 151.9 12.3 152 12.1H151.2C150.3 12.1 149.7 12.2 149.2 12.3C149.1 12 149 11.8 148.9 11.5C149.3 11.6 150.1 11.6 151.2 11.6H152.6V10C152.6 9.3 152.5 8.8 152.5 8.5C154.4 8.8 155.3 9.09999 155.3 9.29999C155.3 9.39999 155.2 9.50001 154.9 9.60001C154.5 9.80001 154.3 9.9 154.3 10V11.5H154.8C155.1 11.1 155.3 10.8 155.6 10.5C155.7 10.4 155.7 10.4 155.8 10.4C156.2 10.3 156.3 10.3 156.5 10.5ZM165.2 1.79999C166.1 2.59999 166.5 3.00001 166.5 3.20001C166.5 3.40001 166.4 3.5 166.3 3.5H159.8C160.8 4.5 161.8 5.30001 162.8 5.70001C163.9 6.20001 165.2 6.50001 166.7 6.60001C166.7 6.80001 166.7 6.9 166.7 7C166.6 7 166.4 7.19999 166.2 7.39999C166.1 7.49999 165.9 7.80001 165.8 8.20001C165.7 8.50001 165.6 8.60001 165.4 8.60001C164.8 8.60001 163.7 8.1 162.3 7C161 6.1 160.1 4.89999 159.4 3.39999H159L159.1 8.5C159.1 8.9 158.7 9.10001 158 9.10001C157.4 9.10001 157.1 9.00001 157.1 8.70001C157.1 7.10001 157.1 5.50001 157.1 4.10001C157 4.20001 157 4.19999 157 4.29999C155.7 6.19999 153.2 7.69999 149.5 8.79999C149.4 8.79999 149.4 8.7 149.3 8.5C152.3 7.1 154.2 5.6 155.1 4C155.3 3.8 155.4 3.59999 155.5 3.39999H154.5C152.3 3.39999 150.9 3.50001 150.4 3.60001C150.3 3.20001 150.1 2.9 149.9 2.5C150.8 2.6 152.3 2.70001 154.5 2.70001H157.2V1.70001C157.2 1.00001 157.1 0.400006 157.1 0.100006C159.1 0.400006 160.1 0.699994 160.1 0.899994C160.1 0.999994 160 1.19999 159.7 1.29999C159.3 1.49999 159.1 1.60001 159.1 1.70001V2.79999H163.3C163.9 1.99999 164.4 1.49999 164.7 1.39999C164.7 1.39999 164.8 1.39999 164.9 1.39999C164.8 1.49999 165 1.69999 165.2 1.79999ZM165.8 10.5C166.5 11.1 166.9 11.5 167 11.7C167 11.9 166.9 12 166.8 12H163.5C164 13.3 164.6 14.2 165.3 14.7C165.9 15.3 166.7 15.7 167.5 15.7C167.5 15.9 167.5 16 167.4 16.1C167.3 16.1 167.1 16.2 166.9 16.5C166.8 16.6 166.6 16.9 166.5 17.3C166.4 17.6 166.3 17.7 166.1 17.7C165.8 17.7 165.3 17.1 164.6 16C164 15 163.5 13.7 163.2 12H162.9V14.4C162.9 16.6 163 18.1 163 19.1C163 19.4 162.6 19.6 161.7 19.6C161.3 19.6 161 19.5 161 19.2C161 18.4 161 16.8 161.1 14.4C160.2 15.8 158.9 17 157 17.9C157 17.8 156.9 17.7 156.9 17.7C158.5 16.2 159.6 14.8 160.1 13.6C160.4 12.9 160.6 12.4 160.6 12H160.5C159.6 12 158.9 12.1 158.5 12.2C158.4 11.9 158.3 11.7 158.2 11.4C158.6 11.5 159.4 11.5 160.5 11.5H161.1V10.5C161.1 9.9 161 9.20001 160.9 8.60001C161.6 8.70001 162.3 8.79999 163 8.89999C163.5 8.99999 163.8 9.19999 163.8 9.29999C163.8 9.39999 163.7 9.50001 163.4 9.60001C163 9.70001 162.9 9.89999 162.9 9.89999V11.5H164.5C164.8 11.1 165.1 10.8 165.3 10.5C165.4 10.4 165.5 10.4 165.5 10.4C165.5 10.3 165.7 10.3 165.8 10.5Z" fill="#00404B"/>
<path d="M185.2 1.70001C185.8 2.20001 186.1 2.50001 186.1 2.60001C186.1 2.70001 186 2.9 185.8 3C185.5 3.3 185.3 3.4 185.3 3.5V12.2C185.3 15.2 185.4 17.2 185.4 18.2C185.4 18.7 184.9 18.9 183.9 18.9C183.5 18.9 183.3 18.7 183.3 18.4V17H174.8V18.4C174.7 18.8 174.3 19.1 173.6 19.1C173.1 19.1 172.9 19 172.8 18.9C172.8 16.2 172.8 13.5 172.9 10.9V5.60001C172.9 3.40001 172.8 2.00001 172.7 1.60001L174.5 2.29999H182.9C183.6 1.49999 184 1.20001 184.2 1.20001C184.4 1.10001 184.7 1.30001 185.2 1.70001ZM183.4 9.20001V2.79999H174.9V9.20001H183.4ZM183.4 16.5V9.79999H174.9V16.5H183.4Z" fill="#00404B"/>
<path d="M206.6 2C206.6 2.2 206.4 2.29999 206 2.29999C205.7 2.39999 205.6 2.39999 205.6 2.39999C205 3.19999 204.1 4.00001 203 4.70001H206.8C207.3 4.10001 207.7 3.70001 208 3.70001C208.2 3.80001 208.5 3.99999 208.9 4.39999C209.4 4.89999 209.7 5.29999 209.7 5.39999C209.7 5.59999 209.5 5.70001 209.2 5.70001C208.9 5.70001 208.8 5.69999 208.7 5.79999C208.2 6.39999 207.4 7.10001 206.6 7.70001C206.5 7.70001 206.4 7.60001 206.4 7.60001C206.7 6.80001 206.9 6.09999 207.1 5.39999H193.8C193.8 7.39999 193.2 8.39999 192 8.39999C191.3 8.39999 191 8.20001 191 7.70001C191 7.40001 191 7.2 191.1 7C191.1 6.9 191.5 6.60001 192 6.10001C192.7 5.60001 193.1 4.7 193.3 3.5C193.5 3.5 193.6 3.5 193.6 3.5C193.7 3.9 193.7 4.29999 193.8 4.79999H199.4V2.5C199.4 1.6 199.4 0.799988 199.3 0.299988C201.3 0.599988 202.3 0.800006 202.3 1.10001C202.3 1.30001 202.2 1.39999 201.9 1.39999C201.5 1.59999 201.3 1.69999 201.3 1.79999V4.79999H202.6C203.5 3.69999 204 2.50001 204.3 1.10001C205.7 1.50001 206.6 1.8 206.6 2ZM196.5 7H203C203.5 6.3 203.9 6 204.1 6C204.3 6 204.7 6.20001 205.2 6.60001C205.7 7.00001 206 7.29999 206 7.39999C206 7.49999 205.9 7.69999 205.7 7.79999C205.4 7.99999 205.2 8.19999 205.1 8.29999V9.60001C205.2 10.1 205.2 10.4 205.2 10.6C205.2 11.1 204.8 11.3 204.1 11.3C203.6 11.3 203.3 11.2 203.2 10.9V10.5H200.7V12.6H204.8C205.4 12 205.8 11.6 206 11.6C206.2 11.7 206.5 11.8 206.9 12.1C207.5 12.5 207.8 12.8 207.8 13C207.8 13.2 207.7 13.3 207.5 13.4C207.3 13.5 207.1 13.6 207 13.8V15.8C207 17 206.3 17.7 205 18C204.7 18 204.6 17.8 204.6 17.6C204.5 17.2 204.3 16.9 204 16.7C203.7 16.5 203.2 16.3 202.5 16.1C202.5 16 202.5 15.9 202.5 15.8C203.3 15.9 204 16 204.5 16C205 16 205.2 15.9 205.2 15.6V13.2H200.8V16.1C200.8 16.9 200.9 17.9 200.9 19.1C200.9 19.4 200.5 19.5 199.8 19.6C199.2 19.6 198.9 19.5 198.9 19.3C198.9 18.7 199 17.6 199 16V13.3H195V17.8C194.9 18.2 194.5 18.4 193.8 18.4C193.4 18.4 193.1 18.3 193 18.2C193 17.2 193 16.3 193.1 15.4V13.6C193.1 12.8 193 12.4 192.9 12.2L194.5 12.8H198.9V10.7H196.5V11C196.4 11.4 196 11.6 195.3 11.6C194.9 11.6 194.6 11.5 194.5 11.4C194.5 10.6 194.5 9.80001 194.6 9.10001V7.60001C194.6 6.90001 194.5 6.59999 194.4 6.39999L196.5 7ZM196 1.60001C196.8 2.10001 197.3 2.60001 197.3 3.20001C197.3 3.60001 197.2 3.90001 196.9 4.10001C196.8 4.20001 196.6 4.29999 196.3 4.29999C195.9 4.29999 195.6 3.99999 195.4 3.29999C195.2 2.69999 195 2.3 194.8 2C194.7 1.8 194.5 1.50001 194.2 1.20001C194.2 1.20001 194.3 1.1 194.4 1C195.1 1.2 195.6 1.40001 196 1.60001ZM203.3 10V7.5H196.6V10H203.3Z" fill="#00404B"/>
<path d="M4.79999 33.1H8.59999C9.09999 32.5 9.39999 32.2 9.59999 32.2C9.79999 32.2 10.1 32.4 10.6 32.8C11.1 33.2 11.3 33.4 11.3 33.6C11.3 33.7 11.2 33.8 11 34C10.7 34.2 10.5 34.4 10.5 34.4V37.9C10.6 39.2 10.6 40.1 10.6 40.5C10.6 40.9 10.3 41.2 9.59999 41.2C9.09999 41.2 8.79999 41.1 8.79999 40.8V39.9H4.79999V44.6C6.09999 44.3 7.29998 44 8.19998 43.6C7.89998 42.7 7.49999 41.9 7.09999 41.4L7.39998 41.2C9.39998 42.4 10.4 43.5 10.4 44.5C10.4 45 10.3 45.4 10.1 45.6C9.89999 45.9 9.59999 46 9.29999 46C8.89999 46 8.69999 45.6 8.59999 44.8C8.49999 44.5 8.49998 44.2 8.39998 44C6.99998 45.2 5.19998 46.2 2.89998 47.1C2.89998 47.5 2.79998 47.8 2.69998 47.8C2.59998 47.8 2.39998 47.6 2.19998 47.1C1.99998 46.7 1.69999 46 1.29999 45.1C1.89999 45 2.49998 45 2.99998 44.9V33.9C2.99998 33.5 2.89998 32.9 2.89998 32.2C3.59998 32.5 4.19999 32.8 4.79999 33.1ZM7.99998 31.4C7.99998 31.7 7.99998 31.9 7.89998 32.1C7.79998 32.5 7.49999 32.6 7.09999 32.6C6.89999 32.6 6.49999 32.2 6.09999 31.5C5.69999 30.8 5.19998 30.2 4.69998 29.7C4.69998 29.7 4.79999 29.6 4.79999 29.5C6.79999 29.7 7.89998 30.3 7.99998 31.4ZM8.89998 36.1V33.6H4.89998V36.1H8.89998ZM8.89998 39.3V36.6H4.89998V39.3H8.89998ZM13.8 42.8C13.6 43.7 13.1 44.8 12.2 45.8C11.1 47.2 10.1 48.1 8.99998 48.6C8.89998 48.6 8.79998 48.5 8.69998 48.4C9.89998 47.3 10.8 45.9 11.5 44.2C12.1 42.9 12.5 40.6 12.5 37.5C12.5 34.4 12.5 32.5 12.5 31.8C12.5 31.2 12.5 30.5 12.4 29.7L14.6 30.7H17.2C17.6 30.2 18 29.8 18.2 29.7C18.4 29.7 18.7 29.9 19.3 30.2C19.9 30.6 20.2 30.9 20.2 31.1C20.2 31.2 20.1 31.4 19.8 31.5C19.5 31.7 19.4 31.8 19.3 31.9V45.9C19.3 47.2 18.5 47.9 16.9 48.2C16.8 48.2 16.6 48.1 16.6 47.8C16.4 47.3 16.2 46.9 15.8 46.7C15.2 46.4 14.9 46.2 14.6 46.2C14.6 46.2 14.6 46.1 14.6 45.9C15.1 46 15.9 46 16.8 46C17.1 46 17.3 45.9 17.3 45.6V41H14.1C14.1 41.7 14 42.3 13.8 42.8ZM14.4 37.5C14.4 38.6 14.4 39.6 14.3 40.5H17.4V36H14.4V37.5ZM14.4 35.4H17.4V31.2H14.4V35.4Z" fill="#00404B"/>
<path d="M25.8 33.1H29.6001C30.1001 32.5 30.4001 32.2 30.6001 32.2C30.8001 32.2 31.1001 32.4 31.6001 32.8C32.1001 33.2 32.3 33.4 32.3 33.6C32.3 33.7 32.2 33.8 32 34C31.7 34.2 31.5 34.4 31.5 34.4V37.9C31.6 39.2 31.6001 40.1 31.6001 40.5C31.6001 40.9 31.3001 41.2 30.6001 41.2C30.1001 41.2 29.8 41.1 29.8 40.8V39.9H25.8V44.6C27.1 44.3 28.3 44 29.2 43.6C28.9 42.7 28.5001 41.9 28.1001 41.4L28.4 41.2C30.4 42.4 31.4 43.5 31.4 44.5C31.4 45 31.3001 45.4 31.1001 45.6C30.9001 45.9 30.6 46 30.3 46C29.9 46 29.7001 45.6 29.6001 44.8C29.5001 44.5 29.5 44.2 29.4 44C28 45.2 26.2 46.2 23.9 47.1C23.9 47.5 23.8 47.8 23.7 47.8C23.6 47.8 23.4 47.6 23.2 47.1C23 46.7 22.7 46 22.3 45.1C22.9 45 23.5 45 24 44.9V33.9C24 33.5 23.9 32.9 23.9 32.2C24.6 32.5 25.2 32.8 25.8 33.1ZM29 31.4C29 31.7 29 31.9 28.9 32.1C28.8 32.5 28.5001 32.6 28.1001 32.6C27.9001 32.6 27.5001 32.2 27.1001 31.5C26.7001 30.8 26.2 30.2 25.7 29.7C25.7 29.7 25.8 29.6 25.8 29.5C27.8 29.7 28.9 30.3 29 31.4ZM29.9 36.1V33.6H25.9V36.1H29.9ZM29.9 39.3V36.6H25.9V39.3H29.9ZM34.8 42.8C34.6 43.7 34.1 44.8 33.2 45.8C32.1 47.2 31.1 48.1 30 48.6C29.9 48.6 29.8 48.5 29.7 48.4C30.9 47.3 31.8 45.9 32.5 44.2C33.1 42.9 33.5 40.6 33.5 37.5C33.5 34.4 33.5 32.5 33.5 31.8C33.5 31.2 33.5 30.5 33.4 29.7L35.6001 30.7H38.2C38.6 30.2 39 29.8 39.2 29.7C39.4 29.7 39.7 29.9 40.3 30.2C40.9 30.6 41.2 30.9 41.2 31.1C41.2 31.2 41.1 31.4 40.8 31.5C40.5 31.7 40.4 31.8 40.3 31.9V45.9C40.3 47.2 39.5 47.9 37.9 48.2C37.8 48.2 37.6001 48.1 37.6001 47.8C37.4001 47.3 37.2 46.9 36.8 46.7C36.2 46.4 35.9001 46.2 35.6001 46.2C35.6001 46.2 35.6001 46.1 35.6001 45.9C36.1001 46 36.9 46 37.8 46C38.1 46 38.3 45.9 38.3 45.6V41H35.1001C35.1001 41.7 35 42.3 34.8 42.8ZM35.4 37.5C35.4 38.6 35.4 39.6 35.3 40.5H38.4V36H35.4V37.5ZM35.4 35.4H38.4V31.2H35.4V35.4Z" fill="#00404B"/>
<path d="M59.7 37.4C60.1 37.7 60.3 37.9 60.4 38.1C60.4 38.3 60.3 38.4 60.1 38.4H53.6V40.1H59.1C59.7 39.4 60.1 39 60.4 38.8C60.4 38.8 60.5 38.8 60.6 38.8C60.7 38.9 60.9 39 61.1 39.1C61.9 39.8 62.3 40.3 62.3 40.4C62.3 40.6 62.2 40.7 62.1 40.7H48.7C46.2 40.7 44.7 40.8 44.1 40.9C44 40.5 43.8 40.2 43.6 39.8C44.6 39.9 46.4 40 49 40H51.9V38.3H48.9C46.9 38.3 45.9 38.4 45.9 38.5C45.8 38.2 45.6 37.9 45.5 37.4C45.8 37.5 46.9 37.6 48.8 37.7H52V36.1C49.5 36.1 47.5 36.2 46.1 36.3C45.9 36 45.8 35.7 45.7 35.4C46.5 35.5 48.6 35.5 52 35.5V34H47C46 34 44.9 34 44 34.1C43.8 33.8 43.6 33.4 43.5 33.1C44.7 33.3 45.9 33.4 47.2 33.4H51.9V31.8H51C48.9 31.8 47.3 31.9 46.3 32C46.2 31.7 46.1 31.5 46 31.1C46.8 31.2 48.5 31.2 51.3 31.2H51.8C51.8 30.4 51.7 29.8 51.7 29.3C53.7 29.6 54.7 29.8 54.7 30.1C54.7 30.3 54.6 30.4 54.3 30.4C53.9 30.6 53.7 30.7 53.7 30.8V31.2H57C57.6 30.5 58 30.2 58.3 30.2C58.5 30.2 58.8 30.4 59.3 30.8C59.8 31.3 60.1 31.6 60.1 31.8C60.1 31.9 60 32 59.8 32.2C59.7 32.3 59.5 32.4 59.2 32.6V33.4H59.7C60.3 32.6 60.7 32.2 60.8 32.1H60.9C61 32.1 61.4 32.5 62 33.1C62.3 33.4 62.4 33.6 62.4 33.7C62.4 33.9 62.3 34 62.1 34H59.2V34.8C59.3 35.3 59.3 35.8 59.3 36.2C59.3 36.6 58.8 36.8 57.9 36.9C57.5 36.9 57.2 36.8 57.2 36.5V36.3H53.5V37.9H57.6C58.2 37.3 58.6 37 58.8 37C59 36.9 59.3 37 59.7 37.4ZM48.3 42.1H56.9C57.4 41.5 57.8 41.2 58 41.2C58.2 41.2 58.6 41.4 59.1 41.8C59.6 42.2 59.9 42.5 59.9 42.6C59.9 42.7 59.8 42.9 59.6 43C59.3 43.2 59.1 43.4 59.1 43.5V46C59.2 47 59.2 47.6 59.2 47.9C59.2 48.3 58.8 48.6 58.1 48.6C57.6 48.6 57.3 48.5 57.2 48.2V47.5H48.5V47.9C48.4 48.3 48 48.5 47.4 48.5C47 48.5 46.7 48.4 46.6 48.3C46.6 47.2 46.6 46.1 46.7 45V42.9C46.7 42 46.6 41.5 46.6 41.3L48.3 42.1ZM57.3 44.5V42.7H48.6V44.5H57.3ZM57.3 47V45H48.6V47H57.3ZM53.7 33.3H57.4V31.7H53.7V33.3ZM53.7 35.6H57.4V34H53.7V35.6Z" fill="#00404B"/>
<path d="M81.1 31.1C81.1 31.2 81 31.3 80.8 31.4C80.4 31.4 80 31.3 79.6 31.3C78.4 31.6 76.9 31.7 75.1 31.8V34.2H79.7C80.4 33.3 80.9 32.8 81.2 32.6C81.3 32.6 81.2999 32.6 81.3999 32.6C81.5999 32.7 81.6999 32.8 81.8999 33C82.8999 33.8 83.3 34.3 83.3 34.5C83.3 34.7 83.2 34.8 83.1 34.8H76C76.6 35.6 77.7 36.3 79.1 36.9C80.8 37.7 82.2 38.1 83.6 38.3C83.6 38.5 83.6 38.6 83.5 38.7C83.1 38.9 82.8 39.1 82.7 39.4C82.6 39.7 82.6 39.9 82.5 40.1C82.4 40.3 82.4 40.4 82.2 40.4C81.3 40.4 79.8999 39.6 77.8999 37.8C76.8999 36.9 76.0999 35.8 75.3999 34.7H75V35.9C75 36.8 75.1 37.9 75.1 39.1C75.1 39.4 74.6999 39.6 73.8999 39.6C73.2999 39.6 72.8999 39.5 72.8999 39.3C72.8999 38.6 73 37.5 73 35.8V35.5C71.1 37.4 68.3999 38.9 64.8999 40.1C64.7999 40 64.7 39.9 64.7 39.8C67.8 38.2 70 36.7 71.3 35C71.4 34.9 71.5 34.8 71.6 34.7H70C67.6 34.7 66.1 34.8 65.5 35C65.4 34.6 65.2 34.3 65 33.9C66 34 67.6 34.1 70 34.1H73V31.8C71 31.9 68.7 31.9 66.2 31.9C66.2 31.8 66.2 31.7 66.2 31.6C71.8 31 76.1 30.2 79 29.3C80.3 30.4 81.1 30.9 81.1 31.1ZM70 40.5H77.5C78.1 39.8 78.5 39.5 78.7 39.5C78.9 39.5 79.2999 39.8 79.8999 40.2C80.3999 40.6 80.7 40.9 80.7 41.1C80.7 41.2 80.5999 41.4 80.3999 41.5C79.9999 41.8 79.8 41.9 79.8 42V45.4C79.9 46.7 79.8999 47.5 79.8999 47.9C79.8999 48.4 79.5 48.7 78.7 48.7C78.1 48.7 77.8 48.6 77.8 48.3V47.3H70.2V48.2C70.1 48.6 69.7 48.9 69 48.9C68.5 48.9 68.3 48.8 68.2 48.7C68.2 47.3 68.2 45.9 68.3 44.6V41.9C68.3 40.8 68.2 40.1 68.1 39.9L70 40.5ZM77.8 43.5V41H70.2V43.5H77.8ZM77.8 46.6V44H70.2V46.6H77.8Z" fill="#00404B"/>
<path d="M94.5 42.7L94.1 42.3C94.9 41.6 95.3 41 95.3 40.3C95.3 40.2 95.2 40.1 95 40.1C94 39.9 93.5 39.4 93.5 38.6C93.5 38.2 93.6 37.9 93.9 37.6C94.2 37.3 94.6 37.1 95.1 37.1C95.6 37.1 96 37.3 96.3 37.7C96.5 38 96.7 38.4 96.7 38.8C96.6 40.4 95.9 41.7 94.5 42.7Z" fill="#00404B"/>
<path d="M119.1 30.8C119.4 30.9 119.8 30.9 120.3 30.9H121.5C122.1 30.2 122.5 29.8 122.6 29.8C122.8 29.8 123.2 30 123.7 30.5C124.2 30.9 124.5 31.2 124.5 31.4C124.5 31.6 124.3 31.7 124 31.8C123.7 31.9 123.6 32 123.6 32L123.4 37.8C123.9 37.1 124.2 36.7 124.4 36.6C124.6 36.7 124.9 36.9 125.3 37.3C125.8 37.8 126.1 38.1 126.1 38.2C126.1 38.4 125.9 38.5 125.6 38.5C125.4 38.5 125.2 38.6 125.1 38.6C124.4 39.4 123.6 40.1 122.5 40.8C122.4 40.8 122.3 40.7 122.3 40.7C122.9 39.9 123.3 39.2 123.5 38.5H108.7C108.7 38.7 108.8 38.9 108.8 39C108.7 40.4 108.2 41.1 107.2 41.1C106.6 41.1 106.3 40.8 106.3 40.4C106.3 40.2 106.5 39.9 106.8 39.7C107.2 39.3 107.5 38.8 107.6 38.3C107.7 37.9 107.7 37.5 107.7 37.1C107.8 37.1 107.9 37.1 108 37C108.3 37.3 108.4 37.7 108.5 37.9H108.8L108.6 31.8C108.5 31.2 108.5 30.7 108.4 30.2L110.3 31C111.1 30.5 111.9 29.9 112.5 29.2C113.6 30 114.2 30.5 114.2 30.6C114.2 30.8 114.1 30.8 113.9 30.8C113.5 30.8 113.3 30.7 113.1 30.7C112.3 31 111.3 31.3 110.2 31.5V32.9H111C111.4 32.4 111.7 32.1 111.9 32H112C112.1 32 112.3 32.2 112.7 32.5C113.1 32.9 113.3 33.1 113.3 33.3C113.3 33.5 113.3 33.6 113.2 33.7H110.3L110.4 35.5H111.2C111.6 35 111.9 34.6 112.1 34.5H112.2C112.3 34.5 112.5 34.7 112.8 35C113.2 35.4 113.4 35.6 113.5 35.8C113.5 36 113.4 36.1 113.4 36.2H110.5L110.6 38.1H121.7L121.8 36.3H121.3C120.4 36.3 119.7 36.4 119.2 36.5C119 36.2 118.9 35.9 118.8 35.6C119.1 35.7 119.9 35.7 121.3 35.7H121.8L121.9 33.9H121.4C120.5 33.9 119.8 34 119.3 34.1C119.1 33.8 119 33.5 118.9 33.2C119.2 33.3 120 33.3 121.4 33.3H121.9V31.6H120.6C119.8 31.6 119.4 31.6 119.3 31.7C119.2 31.5 119.2 31.3 119.1 31C119 31 119 31 118.9 31C118.7 31 118.4 31 118.2 31C118 31.2 117.9 31.3 117.7 31.4C118.2 31.8 118.4 32.3 118.4 32.8C118.4 33 118.4 33.1 118.3 33.3C118.3 33.5 118 33.7 117.7 33.7C117.5 33.7 117.2 33.4 116.9 32.8C116.8 32.6 116.6 32.5 116.5 32.3C115.8 32.8 114.9 33.3 114 33.7C113.9 33.7 113.9 33.6 113.9 33.5C114.7 32.9 115.3 32.2 115.8 31.5C115.4 31 114.9 30.7 114.5 30.5C114.5 30.5 114.6 30.4 114.6 30.2C115.3 30.3 115.8 30.5 116.3 30.7C116.6 30.3 116.8 29.8 117 29.3C118.4 30.1 119.1 30.6 119.1 30.8ZM121 39.5C121.6 40.1 121.9 40.5 121.9 40.8C121.9 41 121.6 41.1 121 41.1C121 41.1 120.8 41.1 120.5 41.1C119.8 41.5 118.9 41.9 117.8 42.3V42.4C117.8 42.5 117.6 42.6 117.2 42.7C117 42.8 116.9 42.8 116.9 42.8V43.5H121.9C122.5 42.7 123 42.2 123.3 42.1C123.4 42.1 123.4 42.1 123.5 42.1C123.7 42.2 123.8 42.3 124 42.4C124.9 43.2 125.3 43.6 125.3 43.8C125.3 44 125.2 44.1 125.1 44.1H117V46.5C117 47.5 116.2 48.3 114.7 48.6C114.5 48.6 114.4 48.5 114.4 48.2C114.4 47.8 114.1 47.4 113.5 47.1C113.1 46.9 112.7 46.7 112.3 46.7C112.3 46.6 112.4 46.5 112.4 46.4C113.2 46.5 114 46.5 115 46.5C115.2 46.5 115.3 46.3 115.3 46V44.1H112C109.6 44.1 108.1 44.2 107.5 44.3C107.4 43.9 107.2 43.6 107 43.2C108 43.3 109.7 43.4 112.1 43.4H115.3V43.3C115.3 42.5 115.2 42 115.2 41.5C115.6 41.6 116.1 41.7 116.6 41.8C116.9 41.8 117.1 41.9 117.2 41.9C117.8 41.4 118.4 40.9 118.8 40.4H113C111.7 40.5 110.9 40.5 110.6 40.7C110.4 40.2 110.2 39.9 110.1 39.6C110.9 39.8 111.8 39.9 112.9 39.9H118.7C119.5 39.2 120 38.8 120.1 38.8C120.2 38.8 120.6 39.1 121 39.5ZM118.9 35C118.9 35.2 118.8 35.2 118.6 35.2C118.4 35.2 118.1 35.2 117.9 35.2C117.7 35.3 117.6 35.4 117.4 35.5C117.9 35.9 118.2 36.4 118.2 36.9C118.2 37 118.2 37.1 118.1 37.2C118.1 37.4 117.9 37.5 117.7 37.5C117.4 37.5 117.1 37.2 116.6 36.6C116.4 36.5 116.3 36.3 116.2 36.2C115.2 36.7 114.2 37.2 113 37.7C112.9 37.7 112.9 37.6 112.9 37.5C113.9 36.8 114.8 36.2 115.4 35.5C114.7 35 114.1 34.6 113.5 34.4C113.5 34.4 113.5 34.3 113.6 34.2C114.5 34.4 115.3 34.6 116 34.8C116.3 34.3 116.6 33.9 116.8 33.5C118.2 34.4 118.9 34.9 118.9 35Z" fill="#00404B"/>
<path d="M129.4 35C129 35 128.6 35 128.2 35.1C128 34.8 127.9 34.4 127.8 34.1C128.2 34.3 128.6 34.4 129 34.4H131V31.3C131 30.7 130.9 30.1 130.8 29.4C131.5 29.5 132.1 29.6 132.9 29.7C133.4 29.8 133.7 29.9 133.7 30.1C133.7 30.2 133.6 30.3 133.3 30.4C132.9 30.5 132.7 30.6 132.7 30.7V34.4H133C133.5 33.7 133.9 33.4 134 33.3H134.1C134.2 33.3 134.6 33.6 135.1 34.2C135.4 34.5 135.5 34.7 135.5 34.8C135.5 35 135.4 35.1 135.2 35.1H132.7V36.7C134.1 37.4 134.9 38 135.3 38.7C136.3 37.5 137 36.1 137.4 34.4C139.1 34.9 139.9 35.3 139.9 35.4C139.9 35.7 139.6 35.8 138.9 35.9C138 37.4 136.8 38.5 135.4 39.2C135.4 39.3 135.4 39.3 135.4 39.3C135.4 39.7 135.3 40 135.1 40.1C134.9 40.2 134.7 40.3 134.5 40.3C134.1 40.3 133.8 39.9 133.6 39C133.4 38.2 133.1 37.5 132.6 37V43.5C132.6 45.7 132.7 47.2 132.7 48.2C132.7 48.5 132.3 48.7 131.4 48.7C131 48.7 130.7 48.6 130.7 48.3C130.7 47.5 130.7 45.9 130.8 43.5V39C129.9 41.1 128.8 42.7 127.6 43.8C127.5 43.8 127.4 43.7 127.3 43.5C128.9 41 130 38.1 130.5 34.9H129.4V35ZM145.2 39.5C145.2 39.7 145.1 39.8 144.9 39.8C144.6 39.8 144.3 39.8 143.8 39.8C143.2 41.3 142.4 42.6 141.6 43.7C141.7 43.8 141.8 43.8 141.9 43.9C143.5 45.2 145.1 46.1 146.7 46.5C146.7 46.6 146.6 46.8 146.6 46.9C146.3 46.9 146 47 145.9 47.3C145.8 47.4 145.6 47.7 145.5 48C145.4 48.2 145.3 48.3 145.1 48.3C144.5 48.2 143.4 47.5 141.8 46.2C141.3 45.8 140.9 45.3 140.6 44.9C138.9 46.6 136.9 47.8 134.5 48.3C134.5 48.2 134.5 48.1 134.4 48C136.5 46.8 138.3 45.4 139.6 43.6C138.5 41.9 137.8 40.2 137.6 38.4L138.1 38.3C138.5 39.9 139.3 41.3 140.4 42.4C141.3 40.9 142 39.3 142.4 37.5C144.2 38.7 145.2 39.3 145.2 39.5ZM145.3 31.9C146.1 32.6 146.5 33 146.5 33.2C146.5 33.4 146.4 33.5 146.3 33.5H138.3C136.8 33.5 135.9 33.6 135.6 33.7C135.5 33.3 135.3 33 135.1 32.6C135.6 32.7 136.6 32.8 137.9 32.8H143.4C144 32.1 144.4 31.7 144.7 31.5C144.7 31.5 144.8 31.5 144.9 31.5C145 31.7 145.1 31.8 145.3 31.9ZM141.3 31.3C141.3 31.6 141.3 31.8 141.2 32C141 32.4 140.8 32.6 140.4 32.6C140.1 32.6 139.8 32.2 139.4 31.5C139 30.7 138.5 30.1 137.9 29.7C138 29.7 138 29.6 138 29.4C140.2 29.6 141.2 30.3 141.3 31.3ZM146.3 37.3C146.3 37.8 146.2 38.1 146 38.3C145.9 38.5 145.7 38.5 145.4 38.5C145 38.5 144.6 38.1 144.2 37.2C143.6 36.2 142.8 35.3 141.6 34.4C141.6 34.3 141.7 34.3 141.7 34.2C144.7 35.2 146.2 36.2 146.3 37.3Z" fill="#00404B"/>
<path d="M165.8 30.6C166.6 31.3 167 31.7 167 31.9C167 32.1 166.9 32.2 166.8 32.2H158.9V34.2H161.8C162.4 33.5 162.8 33.1 163 33.1C163.1 33.1 163.5 33.3 164 33.6C164.6 34 164.9 34.3 164.9 34.5C164.9 34.6 164.8 34.7 164.7 34.8C164.3 35.1 164 35.3 164 35.4V43.7H164.5C165.2 42.8 165.7 42.3 165.8 42.2C165.9 42.2 165.9 42.2 165.9 42.2C166.1 42.2 166.5 42.6 167.1 43.3C167.4 43.6 167.6 43.9 167.6 44.1C167.6 44.3 167.5 44.4 167.3 44.4H152C151 44.4 149.9 44.4 149 44.5C148.8 44.2 148.6 43.8 148.5 43.5C149.6 43.7 150.8 43.8 152 43.8V35.3C151.9 34.3 151.9 33.7 151.8 33.6L153.8 34.3H157.1V32.3H153.8C151.4 32.3 150 32.4 149.4 32.6C149.3 32.2 149.1 31.9 148.9 31.5C149.9 31.6 151.6 31.7 154 31.7H157V31.6C157 30.7 157 30 156.9 29.5C158.7 29.8 159.7 30 159.7 30.2C159.7 30.4 159.6 30.5 159.4 30.5C159 30.7 158.8 30.8 158.8 30.9V31.6H163.8C164.4 30.9 164.8 30.5 165.1 30.3H165.3C165.4 30.3 165.6 30.4 165.8 30.6ZM157.2 45.9C157.2 46 156.8 46.2 156.2 46.2C154.7 47.2 152.4 48 149.2 48.7C149.1 48.6 149 48.5 148.9 48.4C151.5 47.4 153.5 46.2 154.9 44.8C156.4 45.3 157.2 45.7 157.2 45.9ZM153.8 36.6H161.9V34.7H153.8V36.6ZM153.8 37.2V39H161.9V37.2H153.8ZM153.8 39.6V41.4H161.9V39.6H153.8ZM153.8 41.9V43.7H161.9V41.9H153.8ZM166.2 47.4C166.2 47.6 166.2 47.8 166.1 48C166 48.3 165.8 48.4 165.4 48.5C165 48.5 164.5 48.2 163.7 47.6C162.1 46.5 160.6 45.7 159 45.3C159 45.2 159.1 45.1 159.1 44.9C163.9 45.4 166.2 46.2 166.2 47.4Z" fill="#00404B"/>
<path d="M172.7 33.8H173.1C173.5 32.5 173.7 31 173.8 29.5C175.5 30 176.4 30.4 176.4 30.5C176.4 30.8 176 30.9 175.4 30.9C175 31.9 174.5 32.8 173.8 33.7H175.5C176.1 33 176.5 32.7 176.7 32.7C176.9 32.7 177.2 32.9 177.6 33.2C178.2 33.6 178.5 33.9 178.5 34.1C178.5 34.2 178.4 34.4 178.2 34.5C177.9 34.8 177.7 34.9 177.7 35V42C177.7 44.4 177.8 46 177.8 46.8C177.8 47.2 177.3 47.5 176.4 47.5C176 47.5 175.9 47.4 175.9 47.1V45.9H172.8V47.5C172.7 47.9 172.3 48.1 171.7 48.1C171.3 48.1 171 48 170.9 47.9C170.9 45.5 170.9 43.2 171 41V36.5C171 34.6 170.9 33.4 170.9 33.1L172.7 33.8ZM175.8 39.3V34.3H172.7V39.3H175.8ZM175.8 45.3V39.9H172.7V45.3H175.8ZM183.6 30.5C183.6 30.7 183.2 30.9 182.6 30.9C182.3 31.9 182 32.8 181.7 33.6H185.6C186.2 32.9 186.6 32.5 186.8 32.5C187.1 32.6 187.5 32.8 188 33.2C188.5 33.7 188.8 34 188.8 34.1C188.8 34.3 188.6 34.4 188.3 34.5C188 34.6 187.9 34.8 187.8 34.9C187.5 40.7 187.1 44.4 186.7 46.1C186.3 47.6 185.4 48.4 184 48.6C183.8 48.6 183.6 48.4 183.5 48C183.3 47.4 183 47 182.6 46.8C181.9 46.5 181.3 46.2 180.7 46C180.7 45.9 180.7 45.7 180.7 45.5C181.3 45.6 182.4 45.7 183.8 45.8C184.6 45.7 185 45.4 185 44.8C185.4 44.2 185.7 40.6 186.1 34.1H181.6C180.6 36.2 179.5 37.9 178.3 39C178.2 38.9 178.2 38.8 178.2 38.8C179.5 36.5 180.5 33.4 181 29.5C182.6 29.9 183.6 30.2 183.6 30.5ZM183.7 40.9C183.7 41.5 183.6 41.9 183.4 42.2C183.2 42.5 182.9 42.6 182.5 42.6C182.1 42.6 181.9 42.2 181.8 41.3C181.5 39.7 181 38.5 180.5 37.6L180.8 37.4C182.7 38.7 183.7 39.9 183.7 40.9Z" fill="#00404B"/>
<path d="M196 34.5C196.4 34.9 196.7 35.2 196.7 35.4C196.7 35.5 196.5 35.7 196.1 35.9C195.9 36 195.7 36 195.7 36.1C194.7 37.8 194 39.1 193.5 40H194.8C195.3 39.4 195.6 39.1 195.7 39.1C195.9 39.1 196.2 39.3 196.7 39.6C197.2 40 197.5 40.3 197.5 40.4C197.5 40.5 197.4 40.7 197.1 40.8C196.8 40.9 196.7 41.1 196.6 41.2C196.2 42.6 195.7 43.8 195.1 44.7C195.9 45.3 196.9 45.8 197.9 46C199.7 46.4 201.7 46.5 204.2 46.5C207 46.5 208.8 46.4 209.7 46.2C209.7 46.3 209.7 46.4 209.7 46.6C209.4 46.6 209.2 46.7 208.9 47C208.7 47.2 208.6 47.4 208.5 47.8C208.4 48.1 208.2 48.2 207.8 48.2C207 48.2 205.7 48.2 203.8 48.1C200.8 48 198.7 47.7 197.4 47.1C196.2 46.7 195.3 46 194.8 45.2C194.5 45.6 194.2 46 193.8 46.3C192.8 47.4 191.6 48.2 190.4 48.7C190.3 48.6 190.3 48.6 190.3 48.5C191.5 47.5 192.5 46.3 193.2 45.1C194.1 43.5 194.6 42 194.8 40.5H193.1C192.9 40.8 192.8 41 192.7 41.1C192.6 41.3 192.4 41.4 192 41.4C191.3 41.4 191 41.2 191 40.9C192.2 39 193.2 37.1 194.1 35.4H191.5C191.3 35.4 191 35.5 190.7 35.5C190.6 35.2 190.5 35 190.4 34.7C190.8 34.8 191.2 34.8 191.4 34.8H194C194.6 34.2 195 33.8 195.1 33.8C195.3 33.9 195.6 34.1 196 34.5ZM193.9 30.3C194.8 30.9 195.2 31.6 195.2 32.5C195.2 33 195.1 33.3 194.8 33.5C194.7 33.6 194.4 33.7 194.1 33.7C193.6 33.7 193.3 33.3 193.2 32.4C193 31.6 192.8 31.1 192.6 30.7C192.5 30.4 192.2 30.2 192 29.9C192 29.9 192.1 29.8 192.2 29.7C193 29.8 193.5 30 193.9 30.3ZM208.9 31.5C208.9 31.7 208.8 31.8 208.5 31.8C207.9 31.7 207.4 31.7 207 31.6C205.5 32 203.4 32.3 200.6 32.4V33.6C200.6 34.4 200.6 35.1 200.6 35.7H206.2C206.8 34.9 207.2 34.4 207.4 34.2H207.5C207.7 34.3 208 34.5 208.4 34.9C209 35.4 209.3 35.8 209.4 36C209.4 36.2 209.3 36.3 209.3 36.4H205.9V41.7C205.9 42.6 206 43.7 206 44.9C206 45.2 205.6 45.4 204.8 45.4C204.2 45.4 203.9 45.3 203.9 45.1C203.9 44.4 204 43.3 204 41.6V36.4H200.7C200.6 38 200.5 39.1 200.3 39.8C200.2 40.6 200 41.4 199.6 42.2C199 43.5 198.2 44.5 197.4 45.1C197.2 45.1 197.1 45 197.1 44.9C198.2 43.2 198.8 40.1 198.8 35.5V32.8C198.8 32.2 198.7 31.8 198.6 31.4L200.4 32.1C203.1 31.5 205.1 30.7 206.5 29.7C208 30.6 208.9 31.3 208.9 31.5Z" fill="#00404B"/>
<path d="M0.799988 66.2H13.8" stroke="#C9A063" stroke-width="0.75" stroke-miterlimit="10"/>
</svg>
