<svg width="225" height="110" viewBox="0 0 225 110" fill="none" xmlns="http://www.w3.org/2000/svg">
<path d="M88 22.2L90 17.4L92.1 22.2H91.4L91 21.3H88.7L88.3 22.2H88ZM88.8 21H90.9L89.9 18.6L88.8 21Z" fill="#C9A063"/>
<path d="M96.9 21.9V22.1H94.1V18C94.1 17.7 93.9 17.5 93.6 17.4H97V17.6H94.8V19.5H96.6V19.8H94.8V21.9H96.9V21.9Z" fill="#C9A063"/>
<path d="M101.4 21C101.4 21.5 101.1 22.3 100 22.3C99.2 22.3 98.6 21.9 98.5 20.9H98.7C98.8 21.8 99.5 22 99.9 22C100.6 22 100.8 21.5 100.8 21.2C100.8 20.7 100.4 20.4 99.7 20C99.2 19.7 98.4 19.3 98.4 18.5C98.4 17.5 99.4 17.3 99.7 17.3C100.6 17.3 100.9 17.8 101 18.5H100.8C100.7 18.1 100.5 17.6 99.7 17.6C99.3 17.6 98.9 17.9 98.9 18.3C98.9 18.8 99.4 19.1 100 19.4C101.2 20 101.4 20.4 101.4 21Z" fill="#C9A063"/>
<path d="M106.5 17.7H105V22.2H104.3V17.7H102.8V17.4H106.5V17.7Z" fill="#C9A063"/>
<path d="M112.8 22.2H111.9C111.7 22.2 111.5 22 111.5 21.8V19.9H109.2V22.2H108.5V18.1C108.5 17.8 108.3 17.6 108.1 17.5H108H108.9C109 17.5 109.1 17.5 109.2 17.6C109.3 17.7 109.3 17.8 109.3 17.9V19.7H111.6V17.5H112.3V21.6C112.3 21.9 112.5 22.1 112.7 22.2H112.8Z" fill="#C9A063"/>
<path d="M117.6 21.9V22.1H114.8V18C114.8 17.7 114.6 17.5 114.2 17.4H117.6V17.6H115.4V19.5H117.2V19.8H115.4V21.9H117.6V21.9Z" fill="#C9A063"/>
<path d="M122.9 17.7H121.4V22.2H120.7V17.7H119.2V17.4H122.9V17.7Z" fill="#C9A063"/>
<path d="M125.8 17.4V22.2H125.2V18.1C125.2 17.8 125 17.6 124.6 17.5H125.8V17.4Z" fill="#C9A063"/>
<path d="M131.5 21.3C131.4 21.4 130.9 22.3 129.7 22.3C128.3 22.3 127.5 21.2 127.5 19.8C127.5 18.4 128.3 17.3 129.7 17.3C131 17.3 131.5 18.2 131.5 18.3L131.4 18.5C130 16.7 128.3 17.9 128.3 19.8C128.3 21.6 130 22.9 131.4 21.1L131.5 21.3Z" fill="#C9A063"/>
<path d="M98.1 30.6L100.1 25.8L102.2 30.6H101.5L101.1 29.7H98.8L98.4 30.6H98.1ZM98.9 29.4H101L100 27L98.9 29.4Z" fill="#C9A063"/>
<path d="M107.6 30.6H106.8L105.4 28.5C105.2 28.5 105 28.5 104.9 28.5V30.6H104.2V26.5C104.2 26.2 104 25.9 103.6 25.9H104.8C105.5 25.9 106.9 25.9 106.9 27.2C106.9 28 106.5 28.3 106 28.4L107.6 30.6ZM106.1 27.9C106.1 27.8 106.2 27.8 106.2 27.7C106.2 27.6 106.3 27.5 106.3 27.5C106.3 27.4 106.3 27.3 106.3 27.2C106.3 26.2 105.5 26.1 105.4 26.1H104.9V28.2H105.4C105.5 28.2 105.6 28.2 105.6 28.2C105.7 28.2 105.8 28.1 105.9 28.1C106 28 106 28 106.1 27.9Z" fill="#C9A063"/>
<path d="M113 29.7C112.9 29.8 112.4 30.7 111.2 30.7C109.8 30.7 109 29.6 109 28.2C109 26.8 109.8 25.7 111.2 25.7C112.5 25.7 113 26.6 113 26.7L112.9 26.9C111.5 25.1 109.8 26.3 109.8 28.2C109.8 30 111.5 31.3 112.9 29.5L113 29.7Z" fill="#C9A063"/>
<path d="M119.1 30.5H118.2C118 30.5 117.8 30.3 117.8 30.1V28.2H115.5V30.5H114.8V26.4C114.8 26.1 114.6 25.9 114.4 25.8H114.3H115.2C115.3 25.8 115.4 25.8 115.5 25.9C115.6 26 115.6 26.1 115.6 26.2V28H117.9V25.8H118.6V29.9C118.6 30.2 118.8 30.4 119 30.5H119.1Z" fill="#C9A063"/>
<path d="M121.1 29.9C121.2 29.9 121.3 29.9 121.4 30C121.5 30.1 121.5 30.2 121.5 30.3C121.5 30.4 121.5 30.5 121.4 30.6C121.3 30.7 121.2 30.7 121.1 30.7C121 30.7 120.9 30.7 120.8 30.6C120.7 30.5 120.7 30.4 120.7 30.3C120.7 30.2 120.7 30.1 120.8 30C120.9 29.9 121 29.9 121.1 29.9Z" fill="#C9A063"/>
<path d="M12.4 32.6H6.50001V35.6C6.50001 35.8 6.5 36 6.4 36.1C6.4 36.2 6.10002 36.5 5.60002 36.8C5.10002 37.1 4.6 37.4 3.9 37.6C3.2 37.8 2.90001 37.9 2.70001 37.9C2.60001 37.9 2.50002 37.8 2.60002 37.5C2.70002 35.9 2.80001 34.2 2.80001 32.6V7.70001C2.80001 6.30001 2.80001 4.9 2.70001 3.5C5.20001 4.7 7 5.69999 7.9 6.39999H12.2L13.4 4.5C13.6 4.2 13.7 4.10001 13.9 4.10001C14.2 4.10001 14.9 4.60001 16.1 5.60001C17.3 6.60001 17.9 7.30001 17.9 7.60001C17.9 7.90001 17.3 8.29999 16.2 8.79999V29L16.3 33.5V34.1C15.3 34.9 14.4 35.5 13.8 35.7C13.1 36 12.8 36.1 12.6 36.1C12.5 36.1 12.4 35.9 12.4 35.5V32.6V32.6ZM6.50001 19H12.4V7.89999H6.50001V19ZM6.50001 31H12.4V20.5H6.50001V31ZM24.7 5.79999H30.9L32.1 3.70001C32.4 3.30001 32.6 3.10001 32.8 3.10001C33 3.10001 33.5 3.40001 34.3 4.10001L36.3 5.70001C36.8 6.10001 37.1 6.49999 37.1 6.79999C37.1 7.09999 36.4 7.59999 35 8.29999V39.4C35 41.5 34.9 42.9 34.6 43.7C34.3 44.5 33.6 45.2 32.3 46C31.1 46.8 30.3 47.2 30 47.2C29.7 47.2 29.6 46.8 29.4 46.1C29.3 45.4 29.1 44.8 28.8 44.3C28.5 43.8 28 43.4 27.3 42.9C26.6 42.4 25.4 41.9 23.9 41.2L24 40.4C26.7 41 28.4 41.2 29.1 41.2C29.9 41.2 30.4 41.1 30.7 40.9C31 40.7 31.2 40.2 31.2 39.3V29H22.8C22.5 34 21.3 37.8 19.2 40.2C17.1 42.6 13.8 44.9 9.20001 47.2L8.80001 46.4C11 44.7 12.7 43.1 14 41.7C15.3 40.3 16.4 38.8 17.1 37.4C17.9 35.9 18.4 34.4 18.8 32.7C19.2 31 19.4 28.4 19.6 24.9C19.8 21.4 19.9 17.8 19.9 14.2C19.9 10.6 19.8 7 19.7 3.5C21.4 3.9 23.1 4.69999 24.7 5.79999ZM31.2 18.1H23.5C23.4 20.9 23.2 24 22.9 27.3H31.1V18.1H31.2ZM23.6 16.6H31.2V7.20001H23.7C23.7 8.30001 23.7 9.49999 23.7 10.9C23.7 12.3 23.7 14.2 23.6 16.6Z" fill="white" stroke="white" stroke-width="0.2" stroke-miterlimit="10"/>
<path d="M80 26.5C79.6 26.9 79.3 27.3 79 27.5C78.7 27.8 78.4 28 78 28.1C77.7 28.2 77.2 28.3 76.8 28.4C76.3 28.4 75.6999 28.5 74.8999 28.5C73.6999 28.5 72.8 28.5 72.2 28.4C71.5 28.3 71 28.1 70.7 27.9C70.3 27.6 70.1 27.2 70 26.7C69.9 26.2 69.8999 25.5 69.8999 24.7V17.4H67C66.9 18.3 66.9 19.1 66.7 19.7C66.6 20.3 66.4 21 66.2 21.7C66.9 22 67.5 22.3 67.8 22.6C68.1 22.9 68.4 23.1 68.6 23.4C69 24 69.1 24.6 69.1 25.1C69 25.6 68.7 26 68.2 26.2C67.4 26.5 66.7 26.2 66.1 25.2C66 25 65.9 24.9 65.7 24.7C65.6 24.5 65.4 24.3 65.3 24.2C64.9 24.8 64.4 25.4 63.7 26C63 26.6 61.9999 27.3 60.8999 27.9C61.4999 28.1 61.9999 28.2 62.3999 28.3C62.7999 28.4 63.3 28.6 63.7 28.7C64.2 28.9 64.5 29.1 64.5 29.3C64.5 29.5 64.2 29.8 63.6 30.2V31.9H74.3L75.7 29.4C76 29 76.1999 28.8 76.3999 28.8C76.5999 28.8 76.9 29 77.3 29.3C77.8 29.7 78.3 30.2 78.6 30.6C79 31 79.4 31.5 79.8 31.9C80.3 32.4 80.5 32.7 80.5 33C80.5 33.2 80.1 33.3 79.5 33.3H65.8C67 34.7 68 35.8 69 36.6C70 37.5 71 38.2 72.1 38.7C73.2 39.3 74.5 39.7 76 40.1C77.5 40.4 79.2999 40.8 81.3999 41.1V42.1C80.6999 42.1 80.1 42.2 79.6 42.3C79.2 42.4 78.8 42.5 78.5 42.7C78.2 42.9 78 43.1 77.8 43.4C77.6 43.7 77.5 44 77.3 44.4C77.2 44.6 77.0999 44.7 76.8999 44.7C76.6999 44.7 76.5 44.7 76.2 44.6C74.8 44.2 73.6 43.7 72.6 43.1C71.5 42.5 70.5 41.8 69.6 41C68.7 40.1 67.8 39.1 67 37.9C66.2 36.7 65.2999 35.2 64.3999 33.4H63.5V39.9C63.5 41.1 63.5 42 63.5 42.8C63.5 43.6 63.5 44.5 63.5 45.4C63.5 45.8 63.4 46.1 63.1 46.2C62.6 46.5 62.1 46.7 61.7 46.9C61.2 47.1 60.7 47.2 60.2 47.4C60 47.4 59.8999 47.3 59.8999 47C59.8999 46.3 60 45.6 60 45.1C60 44.6 60 44 60.1 43.6C60.1 43.1 60.1 42.6 60.1 42.1C60.1 41.6 60.1 41.1 60.1 40.5V35C58.8 36.6 57.7 37.9 56.6 39C55.6 40.1 54.4 41 53.2 41.8C52 42.6 50.6 43.3 49 44C47.4 44.7 45.4 45.4 43 46.2L42.7 45.4C44.7 44.3 46.3 43.4 47.7 42.6C49 41.8 50.2 41 51.2 40.1C52.2 39.2 53.2 38.3 54 37.3C54.9 36.3 55.7999 35 56.8999 33.5H46.1C45.8 33.5 45.4 33.6 45.1 33.7C44.8 33.8 44.5 33.9 44.3 34L43.6 31.8C44 31.9 44.3 32 44.6 32C44.9 32.1 45.3 32.1 45.7 32.1H60C60 31.6 60 31 60 30.4C60 29.7 60 29.1 60 28.6C58.8 29.2 57.2 29.9 55.5 30.5L55.2 29.9C56.3 29.4 57.3 28.8 58.2 28.2C59.1 27.6 59.9 26.9 60.6 26.3C61.3 25.7 61.9 25 62.3 24.4C62.8 23.8 63.1 23.2 63.3 22.7C62.8 22.3 62.2999 22 61.8999 21.7C61.4999 21.4 60.8 21.1 60.1 20.7L60.2 20.1C61 20.2 61.7 20.3 62.2 20.4C62.7 20.5 63.3 20.7 63.8 20.9C63.9 20.3 64 19.8 64.1 19.3C64.1 18.8 64.2 18.2 64.2 17.5H63.8999C63.1999 17.5 62.7999 17.5 62.3999 17.6C62.0999 17.6 61.6999 17.8 61.3999 17.9L59.8999 16C60.5999 16.1 61.1 16.1 61.5 16.1C61.9 16.1 62.4 16.1 63.1 16.1H69.7L70.6 14.8C70.5 14.7 70.3999 14.6 70.3999 14.4C70.2999 14 70.2 13.6 70.1 13.2C70 12.9 69.9 12.5 69.7 12.2C69.5 11.9 69.3 11.5 69.1 11.1C68.9 10.7 68.6 10.2 68.2 9.70001H66.2C65.3 10.8 64.5 11.8 63.7 12.6C62.9 13.4 62 14.3 61 15.2L60.3 14.5C61.1 13.2 61.7 12.1 62.3 11.1C62.9 10.1 63.3999 9.10001 63.8999 8.20001C64.3999 7.20001 64.8 6.30001 65.2 5.20001C65.6 4.20001 66.1 3.00001 66.5 1.60001C66.9 1.80001 67.3 2.00001 67.6 2.20001C67.9 2.40001 68.2 2.50001 68.5 2.70001C68.8 2.80001 69 3.00001 69.2 3.10001C69.4 3.20001 69.5999 3.40001 69.8999 3.60001C70.7999 4.20001 70.8 4.50001 69.8 4.70001C69.7 4.70001 69.4999 4.79999 69.3999 4.89999C69.1999 4.99999 69.0999 5.19999 68.8999 5.39999C68.6999 5.59999 68.5 5.99999 68.2 6.39999C67.9 6.79999 67.6 7.4 67.1 8H74.3L75.8 5.29999C76 4.89999 76.1999 4.70001 76.3999 4.70001C76.5999 4.70001 76.8 4.90001 77.2 5.20001C77.8 5.80001 78.3 6.29999 78.8 6.79999C79.3 7.29999 79.7 7.79999 80.1 8.29999C80.4 8.69999 80.4999 8.90001 80.3999 9.10001C80.2999 9.30001 80 9.39999 79.6 9.39999H70C71.3 9.79999 72.2 10.2 72.6 10.5C73 10.8 73.2 11.2 73.2 11.8C73.2 12.3 73.0999 12.8 72.8999 13.3C72.6999 13.8 72.4 14.1 72 14.4L74.3 15.9C74.8 16.3 74.8 16.7 74.3 17.1L73.1 18V23.7C73.1 24.5 73.1999 25.1 73.3999 25.3C73.5999 25.5 74.1 25.6 74.8 25.6C75.3 25.6 75.8 25.5 76.1 25.4C76.4 25.3 76.6999 25 76.8999 24.5C77.0999 24.1 77.2 23.4 77.3 22.6C77.4 21.8 77.5 20.6 77.6 19.3H78.5C78.5 20.4 78.5 21.3 78.6 22C78.6 22.7 78.7 23.2 78.8 23.7C78.9 24.1 79.1 24.4 79.3 24.6C79.5 24.8 79.8 25 80.1 25.2C80.3 25.6 80.4 26 80 26.5ZM62.1 8.29999C62.4 8.69999 62.3999 9.00001 62.3999 9.20001C62.2999 9.40001 62.1 9.5 61.7 9.5H53.8C55.2 10.1 56.1 10.7 56.5 11.3C56.9 12 57.0999 12.6 56.8999 13.1C56.6999 13.7 56.4 14.1 56 14.4C55.6 14.7 55.1999 14.8 54.8999 14.8C54.7999 14.8 54.7 14.7 54.6 14.6C54.5 14.5 54.5 14.2 54.3 13.8C54.1 13.1 53.9 12.4 53.6 11.7C53.3 11 52.8999 10.3 52.3999 9.39999H50.6C50.1 10.2 49.5 10.9 49 11.6C48.5 12.3 47.9999 13 47.3999 13.6C46.7999 14.3 46.3 14.9 45.7 15.5C45.1 16.1 44.4 16.8 43.6 17.4L43.1 16.7C43.8 15.6 44.5 14.5 45.1 13.5C45.7 12.5 46.2999 11.3 46.8999 10.1C47.4999 8.90001 48.1 7.60001 48.6 6.10001C49.2 4.60001 49.7999 3.00001 50.3999 1.10001C51.2999 1.60001 51.8999 1.99999 52.3999 2.29999C52.8999 2.59999 53.3999 2.99999 53.8999 3.29999C54.3999 3.59999 54.6 3.8 54.6 4C54.6 4.2 54.3 4.39999 53.7 4.39999C53.5 4.39999 53.2 4.70001 52.8 5.10001C52.4 5.60001 51.9 6.40001 51.3 7.70001H57L58.3999 5.39999C58.5999 4.99999 58.8 4.79999 59 4.79999C59.2 4.79999 59.4 4.90001 59.7 5.20001C60.3 5.70001 60.7 6.20001 61.1 6.60001C61.4 7.40001 61.8 7.89999 62.1 8.29999ZM59.7 16.3C59.9 16.6 60 16.8 60 17C59.9 17.2 59.7 17.3 59.3 17.3H54.5V24.4L59.3 23.6L59.5 24.5L49.8 28.2C49.2 28.4 48.7 28.7 48.1 28.9C47.6 29.1 47.1 29.5 46.5 29.8C46.3 30 46.1 30 46 30C45.9 30 45.8 29.8 45.7 29.5C45.5 28.9 45.3 28.3 45.1 27.8C44.9 27.3 44.6999 26.6 44.3999 25.7C44.9999 25.6 45.5 25.6 46.1 25.5C46.6 25.5 47.1 25.4 47.7 25.3C48.2 25.2 48.7999 25.2 49.3999 25.1C49.9999 25 50.5999 24.9 51.3999 24.7V17.2H48.7C48.4 17.2 48.1 17.2 47.7 17.3C47.4 17.4 47.0999 17.4 46.8999 17.5L46.3 15.5C46.7 15.6 47 15.7 47.3 15.7C47.6 15.7 47.9999 15.7 48.3999 15.7H56.1L57 14C57.1 13.7 57.2999 13.6 57.3999 13.6C57.5999 13.6 57.8 13.8 58.1 14.1C58.5 14.5 58.9 14.9 59.1 15.2C59.2 15.6 59.5 16 59.7 16.3Z" fill="white" stroke="white" stroke-width="0.2" stroke-miterlimit="10"/>
<path d="M160.4 32.2C159.3 33.9 158.4 35.4 157.7 36.6C157 37.8 156.3 38.9 155.9 39.8C155.4 40.7 155 41.4 154.7 42C154.4 42.6 154.2 43.1 154 43.5C153.9 43.8 153.7 44 153.6 44C153.5 44 153.3 43.9 153 43.6C152.6 43.1 152.2 42.7 151.9 42.2C151.5 41.7 151.1 41.1 150.5 40.3C150.8 40.1 151 39.9 151.3 39.7C151.5 39.5 151.8 39.3 152.2 39V21.9H149.9C149.9 24.4 149.8 26.6 149.7 28.4C149.6 30.2 149.5 31.8 149.3 33.2C149.1 34.6 148.9 35.8 148.6 36.9C148.3 38 147.9 39 147.4 40C146.9 41 146.3 42.1 145.5 43.2C144.8 44.3 143.9 45.6 142.9 47L142.1 46.4C142.8 45 143.3 43.8 143.8 42.7C144.3 41.6 144.7 40.5 145.1 39.5C145.5 38.5 145.8 37.4 146 36.3C146.2 35.2 146.4 34 146.6 32.6C146.7 31.2 146.8 29.7 146.9 28C147 26.3 147 24.3 147 21.9H145.1C144.8 21.9 144.5 21.9 144.2 22C143.9 22.1 143.7 22.1 143.5 22.2L142.5 20.4C142.8 20.5 143.1 20.6 143.4 20.6C143.7 20.6 144 20.6 144.4 20.6H149.8V7C149.8 5.8 149.8 4.90001 149.8 4.10001C149.8 3.30001 149.8 2.50001 149.7 1.70001C150.4 1.90001 151 2.00001 151.4 2.20001C151.8 2.40001 152.4 2.59999 153 2.89999C153.6 3.09999 153.8 3.40001 153.8 3.60001C153.7 3.80001 153.3 4.19999 152.5 4.79999V20.5H156L156.9 18C157 17.6 157.2 17.4 157.3 17.4C157.5 17.4 157.7 17.6 158 17.9C158.4 18.4 158.8 18.8 159.1 19.2C159.4 19.6 159.8 20.1 160.2 20.6C160.5 21.1 160.7 21.4 160.6 21.5C160.6 21.6 160.3 21.7 159.9 21.7H155.2V36.1C155.8 35.5 156.4 34.9 157.2 34.2C158 33.5 158.9 32.6 160 31.6L160.4 32.2ZM148.2 15.5C148 16.5 147.7 17.2 147.3 17.7C146.9 18.2 146.5 18.5 146.1 18.5C145.9 18.5 145.7 18.4 145.6 18.1C145.5 17.8 145.4 17.2 145.3 16.1C145.2 15.2 145.1 14.4 145 13.7C144.9 13 144.7 12.2 144.5 11.5C144.3 10.8 144.1 10 143.8 9.20001C143.5 8.40001 143.2 7.39999 142.7 6.39999L143.5 6C144.7 7.3 145.6 8.39999 146.3 9.29999C147 10.3 147.5 11.1 147.8 11.9C148.1 12.7 148.3 13.3 148.3 13.9C148.3 14.4 148.3 15 148.2 15.5ZM159.4 7.89999C159.7 8.19999 159.9 8.40001 160 8.70001C160.1 8.90001 159.9 9.10001 159.5 9.20001C159.2 9.30001 159 9.29999 158.7 9.39999C158.5 9.49999 158.2 9.8 157.9 10.5C157.6 11.2 157.3 11.8 157 12.5C156.7 13.1 156.4 13.7 156.1 14.4C155.8 15.1 155.4 15.8 155 16.5C154.6 17.2 154.1 18.1 153.6 18.9L152.7 18.5C153.3 16.6 153.9 14.6 154.5 12.6C155.1 10.6 155.6 8.30001 156 5.70001C156.3 5.90001 156.6 6.09999 156.9 6.29999C157.2 6.49999 157.4 6.59999 157.6 6.79999C157.8 6.99999 158.1 7.09999 158.3 7.29999C158.8 7.49999 159.1 7.69999 159.4 7.89999ZM182.5 36.7C182.9 37.2 183 37.6 183 37.8C183 38 182.7 38.2 182.1 38.2H171V46.6C171 47 170.9 47.2 170.6 47.4C170.1 47.7 169.8 47.9 169.4 48C169.1 48.1 168.6 48.3 168.1 48.5C167.9 48.6 167.8 48.5 167.8 48.2C167.8 47.5 167.9 46.9 167.9 46.4C167.9 45.9 167.9 45.4 168 45C168 44.6 168 44.1 168 43.7C168 43.3 168 42.8 168 42.2V38.3H161C160.7 38.3 160.4 38.3 160.1 38.4C159.8 38.5 159.6 38.5 159.4 38.6L158.6 36.4C158.9 36.5 159.2 36.6 159.5 36.6C159.8 36.6 160.1 36.6 160.5 36.6H167.9V32.2H163.9V33C163.9 33.4 163.8 33.6 163.6 33.6C163.1 33.9 162.7 34.1 162.3 34.2C161.9 34.3 161.5 34.4 161 34.5C160.8 34.6 160.7 34.5 160.7 34.2C160.8 33.6 160.8 33.1 160.8 32.5C160.8 31.9 160.8 31.5 160.8 31.1V21.2C160.8 20.4 160.8 19.8 160.8 19.2C160.8 18.6 160.8 18 160.7 17.4C161.3 17.7 161.9 18 162.5 18.3C163.1 18.6 163.7 19 164.4 19.3H167.9V15.4H161.1C160.8 15.4 160.5 15.4 160.2 15.5C159.9 15.6 159.7 15.6 159.5 15.7L158.5 13.9C158.8 14 159.1 14.1 159.4 14.1C159.7 14.1 160 14.1 160.4 14.1H167.8C167.8 11.3 167.8 9.3 167.7 8C168.4 8.2 169 8.40001 169.5 8.60001C170 8.80001 170.6 8.99999 171.3 9.29999C171.8 9.59999 172.1 9.8 172.1 10C172.1 10.2 171.7 10.5 171 10.8V14.1H175.8L177 12.3C177.2 12 177.4 11.8 177.5 11.8C177.6 11.8 177.8 11.9 178.2 12.2C178.6 12.6 179 12.9 179.2 13.2C179.5 13.5 179.8 13.8 180.1 14.2C180.5 14.6 180.6 14.9 180.6 15.1C180.6 15.2 180.3 15.3 179.9 15.3H171.1V19.2H175.4L176.3 17.7C176.4 17.4 176.6 17.3 176.7 17.3C176.8 17.3 177 17.4 177.2 17.5C177.6 17.8 178 18.1 178.4 18.3C178.8 18.6 179.1 18.8 179.4 19.1C179.9 19.5 180.1 19.8 180.1 20.1C180.1 20.4 179.6 20.7 178.8 21.2V29.7C178.8 30.1 178.8 30.5 178.8 30.9C178.8 31.3 178.8 31.7 178.9 32.2C178.9 32.6 178.8 32.8 178.6 32.9C178.2 33.1 177.8 33.2 177.4 33.3C177 33.4 176.5 33.5 175.9 33.6C175.7 33.6 175.6 33.5 175.6 33.1V32.1H171.2V36.5H177.6L179.2 34C179.4 33.7 179.6 33.5 179.8 33.5C179.9 33.5 180.2 33.6 180.4 33.9C180.9 34.4 181.3 34.9 181.6 35.3C181.9 35.9 182.2 36.3 182.5 36.7ZM181.7 6.39999C182 6.69999 182.2 6.99999 182.1 7.29999C182.1 7.59999 181.8 7.79999 181.3 7.89999C181 7.89999 180.8 8 180.5 8C180.2 8 179.9 8.2 179.5 8.5C179.1 8.8 178.7 9.19999 178.2 9.79999C177.7 10.4 177.1 11.2 176.4 12.2L175.7 12C175.9 11.3 176.2 10.6 176.5 9.70001C176.8 8.80001 177 7.99999 177.2 7.29999H163.3C163.4 8.09999 163.4 8.79999 163.4 9.29999C163.4 9.79999 163.3 10.3 163.3 10.7C163.2 11.1 163.1 11.4 162.9 11.7C162.7 12 162.6 12.3 162.3 12.6C162.1 12.8 161.9 13 161.6 13.1C161.3 13.2 161 13.2 160.7 13.2C160.4 13.2 160.1 13.2 159.9 13.1C159.6 13 159.5 12.9 159.3 12.7C159.2 12.5 159.1 12.2 159.1 11.8C159.1 11.4 159.3 10.8 159.7 10C159.9 9.6 160.1 9.19999 160.4 8.79999C160.6 8.39999 160.8 8.00001 161 7.60001C161.2 7.20001 161.4 6.70001 161.5 6.10001C161.7 5.60001 161.8 4.90001 161.9 4.10001H162.8C162.9 4.40001 162.9 4.59999 162.9 4.89999C162.9 5.09999 163 5.40001 163 5.70001H177L177.9 4.29999C178.1 3.99999 178.3 3.79999 178.5 3.79999C178.6 3.79999 178.9 3.90001 179.2 4.20001C179.6 4.60001 180 4.89999 180.4 5.29999C180.7 5.39999 181.2 5.79999 181.7 6.39999ZM168 20.4H164V25.1H168V20.4ZM168 26.3H164V30.9H168V26.3ZM175.5 20.4H171.1V25.1H175.5V20.4ZM175.5 26.3H171.1V30.9H175.5V26.3Z" fill="white" stroke="white" stroke-width="0.2" stroke-miterlimit="10"/>
<path d="M202 29.3H190.2C189.4 29.3 188.8 29.4 188.4 29.6L187.6 27.6C188.2 27.8 188.9 27.8 189.7 27.8H215.3L216.9 25C217.1 24.6 217.3 24.5 217.5 24.5C217.7 24.5 218.4 25.1 219.6 26.3C220.8 27.5 221.4 28.3 221.4 28.7C221.4 29.1 221.1 29.3 220.5 29.3H206V35.8H212.7L214.3 32.5C214.6 32.4 214.8 32.4 214.9 32.4C215.2 32.4 216 33 217.2 34.3C218.4 35.6 219 36.4 219 36.7C219 37 218.7 37.1 218.2 37.1H206V44.2H217.4L219.2 41C219.5 40.5 219.7 40.2 219.9 40.2C220.1 40.2 220.6 40.6 221.3 41.4C222.1 42.2 222.7 43 223.4 43.8C224 44.6 224.4 45.1 224.4 45.3C224.4 45.5 224.1 45.6 223.6 45.6H188C187.2 45.6 186.6 45.7 186.2 45.9L185.4 43.9C186 44.1 186.7 44.1 187.5 44.1H202V37H192.3C191.6 37 191.1 37.1 190.5 37.3L189.7 35.4C190.3 35.6 191 35.6 191.8 35.6H202V29.3ZM200.2 7.60001C200.9 5.00001 201.3 2.79999 201.5 0.799988C202.6 1.19999 203.7 1.6 204.6 2C205.5 2.5 206 2.8 206.2 3C206.4 3.2 206.4 3.4 206.4 3.5C206.4 3.8 206.2 4 205.7 4C205.3 4 204.8 4.29999 204.3 4.89999C203.8 5.49999 203.1 6.40001 202.3 7.60001H212.5L213.5 5.5C213.6 5.2 213.8 5.10001 214.1 5.10001C214.3 5.10001 214.9 5.4 215.8 6C216.7 6.6 217.4 7.1 217.9 7.5C218.4 7.9 218.6 8.2 218.6 8.5C218.6 8.8 218.1 9.19999 217 9.89999V18C217 19.6 217 20.7 217 21.4V23.3C217 23.6 216.9 23.8 216.6 24.1C216.3 24.4 215.8 24.7 215 25C214.2 25.3 213.6 25.5 213.2 25.5C213 25.5 212.9 25.3 212.9 24.9V23H195.3V23.9C195.3 24.4 195.2 24.7 195 24.8C194.8 24.9 194.3 25.2 193.4 25.5C192.5 25.8 191.9 26 191.7 26C191.4 26 191.3 25.9 191.3 25.7C191.3 25.5 191.3 24.9 191.4 23.9C191.5 22.9 191.5 21.6 191.5 20V10.2C191.5 8.70001 191.5 7.1 191.4 5.5C193.1 6.1 194.6 6.80001 196 7.70001H200.2V7.60001ZM213 14.8V9.20001H195.4V14.8H213ZM213 21.6V16.2H195.4V21.6H213Z" fill="white" stroke="white" stroke-width="0.2" stroke-miterlimit="10"/>
<path d="M18.5 82.8C18.4 82.5 18.2 82.2 18.1 81.7C18.4 81.8 19.5 81.9 21.3 82V79C21.3 78.4 21.2 77.8 21.1 77.1C21.8 77.2 22.4 77.3 23.2 77.4C23.7 77.5 24 77.6 24 77.8C24 77.9 23.9 78 23.6 78.1C23.2 78.2 23.1 78.3 23.1 78.4V82H23.4C23.9 81.2 24.2 80.7 24.4 80.7C24.5 80.7 24.7 80.9 25.1 81.4C25.4 81.8 25.6 82.1 25.7 82.3C25.7 82.5 25.6 82.6 25.4 82.6H23.1V83.8C24.8 84.6 25.7 85.4 25.7 86.2C25.7 86.6 25.6 86.9 25.3 87C25.1 87.1 24.9 87.2 24.7 87.2C24.3 87.2 24 86.8 23.9 86C23.7 85.3 23.4 84.7 23 84.3V91.2C23 93.4 23 94.9 23.1 95.9C23.1 96.2 22.7 96.4 21.8 96.4C21.3 96.4 21.1 96.3 21.1 96C21.1 95.2 21.2 93.6 21.2 91.1V86.6C20.3 88.6 19.4 90.1 18.3 91.2C18.2 91.2 18.1 91.1 18 91C19.5 88.5 20.5 85.8 20.9 82.6C19.4 82.7 18.5 82.8 18.5 82.8ZM31.1 78.1C31.1 78.2 31 78.3 30.8 78.4C30.4 78.6 30.1 78.7 30.1 78.8V85.7C30.1 91.3 28.3 94.8 24.6 96.2C24.5 96.1 24.5 96 24.4 95.9C25.8 94.7 26.8 93.3 27.3 91.8C27.7 90.9 28 89.5 28.2 87.5C27.7 88.1 27.1 88.7 26.5 89.3C26.5 89.4 26.4 89.7 26.4 90.2C26.4 90.3 26.3 90.4 26.2 90.4C26 90.4 25.4 89.6 24.6 88.1C25.1 88.1 26.3 87.6 28.3 86.6C28.3 85.9 28.4 85.1 28.4 84.2V79.4C28.4 78.5 28.3 77.8 28.2 77.2C30.1 77.6 31 77.9 31.1 78.1ZM27.9 83.8C27.9 84.5 27.6 84.8 27.1 84.8C26.6 84.8 26.4 84.5 26.4 84C26.4 83.7 26.3 83.3 26.3 82.8C26.2 82.3 26.1 81.8 25.9 81.2C25.7 80.7 25.6 80.4 25.5 80.2C25.6 80.1 25.7 80 25.8 80C27.1 81.3 27.9 82.6 27.9 83.8ZM34.2 78.2C34.2 78.3 34.1 78.4 33.9 78.5C33.5 78.6 33.3 78.8 33.2 78.9V83.8C34 82.7 34.6 81.4 34.9 80.1C35.2 80.3 35.8 80.6 36.6 81.1C37 81.4 37.2 81.6 37.2 81.7C37.2 81.8 37.1 81.9 36.9 81.9C36.5 81.9 36.2 82 36.1 82C35.7 82.5 35.3 83 34.8 83.4C34.3 83.8 33.8 84.2 33.3 84.4V86.3C34.2 86.5 35 86.8 35.6 87.1C36.5 87.6 37 88.1 37 88.6C37 89.1 36.9 89.4 36.8 89.5C36.7 89.8 36.4 89.9 36.1 89.9C35.9 89.9 35.6 89.5 35.2 88.8C34.6 87.9 34 87.2 33.4 86.8V93.4C33.4 93.9 33.6 94.1 34 94.1H34.6C35.2 94.1 35.6 93.7 35.8 92.8C36.1 91.8 36.3 91.2 36.3 90.9C36.4 90.9 36.5 90.9 36.6 90.9C36.6 90.9 36.6 91.7 36.6 93.2C36.6 93.5 36.7 93.7 36.9 93.8C37.2 94 37.4 94.2 37.4 94.4C37.4 94.9 37 95.2 36.3 95.4C35.9 95.5 35.4 95.6 34.7 95.6C33.9 95.6 33.5 95.6 33.3 95.5C32.1 95.4 31.5 94.7 31.5 93.5V79C31.5 78.4 31.5 77.8 31.4 77.2C33.2 77.7 34.2 78 34.2 78.2Z" fill="white"/>
<path d="M42.7 84.6C42.8 85.3 42.9 85.9 43 86.7C43 90 42.1 91.7 40.2 91.8C39.4 91.8 39 91.5 39 91C39 90.7 39 90.4 39.1 90.3C39.2 90.1 39.6 89.6 40.5 88.9C41.5 88 42.1 86.6 42.3 84.7C42.6 84.6 42.7 84.6 42.7 84.6ZM48.2 82.4C48.2 82.7 47.8 82.9 47 83.2V92.6C47 93.3 47.4 93.6 48.1 93.7H51C51.8 93.7 52.4 93.3 52.7 92.6C52.9 92.1 53.2 91 53.5 89.3C53.8 89.3 53.9 89.3 53.9 89.3V92.5C53.9 92.8 54.1 93 54.5 93.1C54.9 93.4 55.2 93.6 55.2 93.9C55.2 94.6 54.5 95.1 53.2 95.3C52.3 95.4 51.4 95.5 50.5 95.5C48.6 95.5 47.4 95.5 46.9 95.4C45.7 95.3 45.1 94.3 45.1 92.3V84C45.1 82.9 45 82.1 44.9 81.7C47.1 81.9 48.2 82.2 48.2 82.4ZM52 80.3C52 80.9 51.9 81.3 51.7 81.6C51.5 81.8 51.3 81.9 51 81.9C50.5 81.9 50 81.4 49.5 80.4C48.7 79.3 47.7 78.2 46.2 77.3C46.2 77.2 46.3 77.1 46.3 77C49.9 78 51.8 79.1 52 80.3ZM58.3 89.3C58.3 89.9 58.2 90.3 58 90.6C57.8 90.9 57.5 91 57.1 91C56.5 91 56.2 90.4 56 89.2C55.5 87 54.8 85.4 53.8 84.2L54.1 84C56.8 86 58.2 87.7 58.3 89.3Z" fill="white"/>
<path d="M66.4 82.5C67.1 83.1 67.5 83.5 67.6 83.7C67.6 83.9 67.5 84 67.4 84H64.6V89.7C65.5 89.4 66.5 89 67.5 88.6C67.6 88.7 67.6 88.8 67.6 88.9C66.1 90.3 64.2 91.5 62 92.5C61.9 92.7 61.8 93 61.8 93.4C61.8 93.6 61.7 93.7 61.5 93.7C61.3 93.7 61 93.2 60.5 92.1C60.3 91.6 60.1 91.1 59.9 90.8C60.8 90.7 61.7 90.5 62.7 90.2V84H62.4C61.5 84 60.8 84.1 60.4 84.1C60.3 83.9 60.2 83.6 60.1 83.3C60.5 83.4 61.3 83.4 62.4 83.4H62.7V80.1C62.7 79.2 62.7 78.4 62.6 77.9C64.6 78.2 65.6 78.4 65.6 78.7C65.6 78.9 65.5 79 65.2 79C64.8 79.2 64.6 79.3 64.6 79.4V83.4H65C65.3 83 65.5 82.7 65.8 82.4C65.9 82.3 65.9 82.3 66 82.3C66.1 82.3 66.2 82.4 66.4 82.5ZM74 77.6C74.5 77.7 74.8 77.8 74.8 78C74.8 78.1 74.7 78.2 74.4 78.3C74 78.4 73.9 78.5 73.9 78.6V82.5C74.6 82.3 75.2 82.1 76 81.8C76.4 80.9 76.8 80.5 77 80.5C78.3 81 79 81.4 79 81.6C79 81.8 78.8 82 78.5 82.2C78.3 82.3 78.2 82.4 78.1 82.5C78.1 86.4 77.8 88.8 77.5 89.4C77 90.4 76.3 90.8 75.3 90.8C75.2 90.8 75 90.5 75 90.2C74.9 89.8 74.7 89.5 74.4 89.3C74.2 89.2 74 89.1 73.9 89C73.9 90.2 73.9 91 74 91.6C74 91.9 73.6 92.1 72.7 92.1C72.2 92.1 72 92 72 91.7C72 90.9 72.1 89.3 72.1 86.8V83.5C71.2 83.8 70.5 84 69.9 84.2V93C70.1 93.5 71.1 93.7 73 93.7H76.4C76.9 93.7 77.2 93.3 77.4 92.4C77.7 91.4 77.8 90.8 77.8 90.5C77.9 90.5 78 90.5 78.1 90.5C78.1 90.5 78.2 91.3 78.2 92.8C78.2 93.1 78.3 93.3 78.6 93.4C79 93.6 79.2 93.8 79.2 94.1C79.2 94.6 78.8 94.9 78.1 95.1C77.1 95.2 75.6 95.3 73.8 95.3C71.7 95.3 70.4 95.3 69.9 95.2C68.7 95.1 68.1 94.4 68.1 93.2V85C67.4 85.2 67.1 85.4 66.9 85.5C66.8 85.3 66.6 85 66.2 84.5C66.6 84.5 67.2 84.4 68 84.2V80.3C68 79.7 68 79.1 67.9 78.5C69.8 78.8 70.8 79.1 70.8 79.3C70.8 79.4 70.7 79.5 70.5 79.6C70.1 79.7 69.9 79.9 69.8 80V83.9C70.5 83.7 71.2 83.5 72 83.2V79.3C72 78.7 71.9 78 71.8 77.4C72.6 77.3 73.3 77.4 74 77.6ZM75 88.9C75.6 88.9 75.9 88.7 76 88.4C76.2 87.7 76.3 85.7 76.3 82.5C75.4 82.8 74.6 83 73.9 83.2V87.1C73.9 87.7 73.9 88.3 73.9 88.7C74.3 88.8 74.7 88.9 75 88.9Z" fill="white"/>
<path d="M97.8 78C98.8 78.8 99.2 79.3 99.2 79.6C99.2 79.8 99.1 79.9 99 79.9H91.7V86.4H94.6C95.3 85.5 95.8 85 96.1 84.8C96.2 84.8 96.2 84.8 96.3 84.8C96.5 84.9 96.7 85 96.9 85.2C97.9 86 98.3 86.5 98.3 86.7C98.3 86.9 98.2 87 98.1 87H91.7V94.3H96.4C97.1 93.4 97.6 92.8 98 92.6C98.1 92.6 98.1 92.6 98.2 92.6C98.4 92.7 98.6 92.8 98.8 93C99.8 93.9 100.4 94.4 100.4 94.7C100.4 94.9 100.3 95 100.2 95H86.6C84.1 95 82.5 95.1 82 95.3C81.9 94.9 81.7 94.6 81.5 94.2C82.5 94.3 84.2 94.4 86.6 94.4H89.7V87H87.7C85.8 87 84.6 87.1 84.1 87.3C84 86.9 83.8 86.6 83.6 86.2C84.3 86.3 85.6 86.4 87.4 86.4H89.7V79.9H87C84.8 79.9 83.5 80 82.9 80.2C82.8 79.8 82.6 79.5 82.4 79.1C83.3 79.2 84.8 79.3 86.9 79.3H95.5C96.2 78.4 96.7 77.9 97 77.7C97.1 77.7 97.1 77.7 97.2 77.7C97.4 77.8 97.6 77.9 97.8 78Z" fill="white"/>
<path d="M111.1 90.4L110.7 90C111.5 89.3 111.9 88.7 111.9 88C111.9 87.9 111.8 87.8 111.6 87.8C110.6 87.6 110.1 87.1 110.1 86.3C110.1 85.9 110.2 85.6 110.5 85.3C110.8 85 111.2 84.8 111.7 84.8C112.2 84.8 112.6 85 112.9 85.4C113.1 85.7 113.3 86.1 113.3 86.5C113.3 88.1 112.5 89.4 111.1 90.4Z" fill="white"/>
<path d="M125.8 79.4H128.1C128.6 78.7 129 78.4 129.2 78.4C129.4 78.4 129.8 78.6 130.3 79C130.8 79.4 131.1 79.7 131.1 79.8C131.1 79.9 131 80.1 130.7 80.2C130.3 80.5 130.1 80.6 130.1 80.7V87.4C130.2 90 130.2 91.7 130.2 92.4C130.2 92.9 129.8 93.1 129.1 93.1C128.6 93.1 128.3 93 128.2 92.7V91.5H126V93.1C125.9 93.5 125.5 93.7 124.8 93.7C124.4 93.7 124.1 93.6 124 93.5C124 91.1 124 88.8 124.1 86.6V82.1C124.1 80.2 124 79 124 78.7L125.8 79.4ZM128.3 85V79.9H126V85H128.3ZM128.3 91V85.6H126V91H128.3ZM141.9 87.4C142.2 87.7 142.3 87.9 142.3 88.1C142.3 88.3 142.2 88.4 142 88.4H139.3V93.9C139.3 95.1 138.6 95.9 137.2 96.4C137 96.4 136.8 96.2 136.8 95.9C136.7 95.4 136.4 95 135.7 94.6C135.2 94.4 134.7 94.2 134.3 94.1C134.3 94 134.4 93.8 134.4 93.7C135.3 93.8 136.2 93.8 137.2 93.8C137.4 93.8 137.6 93.6 137.6 93.2V88.3H133C132.4 88.3 131.8 88.3 131.2 88.4C131 88.1 130.9 87.7 130.8 87.4C131.4 87.6 132.1 87.6 132.8 87.6H137.5C137.5 86.5 137.4 85.6 137.4 84.9C137.9 85 138.4 85.1 138.9 85.2C139.6 85.3 140 85.4 140.1 85.4C140.2 85.4 140.3 85.5 140.3 85.7C140.3 85.8 140.1 86 139.7 86.1C139.5 86.2 139.4 86.2 139.4 86.2V87.5H139.7C140.3 86.8 140.7 86.3 140.8 86.2C140.9 86.2 140.9 86.2 140.9 86.2C141 86.5 141.3 86.8 141.9 87.4ZM139.8 79.4C140.6 80.1 141.1 80.6 141.2 80.8C141.2 81 141.1 81.1 141 81.1H136.7V84.4H138.8C139.1 83.9 139.5 83.5 139.8 83.1C139.9 83 140 82.9 140.1 82.9C140.2 82.9 140.3 83 140.5 83.1C141.3 83.9 141.8 84.3 141.9 84.6C141.9 84.8 141.8 84.9 141.7 84.9H133C132.1 84.9 131.4 85 131 85C130.9 84.8 130.8 84.5 130.7 84.2C131.2 84.3 131.9 84.3 133 84.3H134.7V81H133.5C132.6 81 132 81.1 131.5 81.2C131.4 80.9 131.3 80.7 131.2 80.4C131.6 80.5 132.4 80.5 133.5 80.5H134.7V79.5C134.7 78.6 134.7 77.8 134.6 77.3C136.6 77.6 137.6 77.8 137.6 78.1C137.6 78.3 137.5 78.4 137.2 78.4C136.8 78.6 136.6 78.7 136.6 78.8V80.5H138C138.3 80 138.7 79.6 139 79.3C139.1 79.2 139.2 79.1 139.3 79.1C139.5 79.1 139.6 79.2 139.8 79.4ZM134.1 89.7C135 90.3 135.4 91 135.4 91.8C135.4 92.3 135.3 92.6 135 92.8C134.9 92.9 134.6 93 134.3 93C133.8 93 133.5 92.6 133.4 91.8C133.2 91.1 133 90.6 132.8 90.2C132.7 89.9 132.4 89.7 132.2 89.4C132.2 89.3 132.3 89.3 132.4 89.2C133.1 89.2 133.7 89.4 134.1 89.7Z" fill="white"/>
<path d="M152.5 78.5C152.5 78.7 152 78.8 151.1 79C150.5 80.3 149.8 81.6 148.9 82.7C149.7 83 150.2 83.1 150.2 83.2C150.2 83.3 150.1 83.4 149.8 83.5C149.5 83.6 149.4 83.7 149.4 83.8V90.6C149.4 92.4 149.5 94.2 149.5 95.8C149.4 96.1 149 96.3 148.2 96.4C147.7 96.4 147.4 96.3 147.4 96C147.4 94.2 147.5 92.5 147.5 90.6V84.6C146.6 85.7 145.6 86.6 144.5 87.4C144.5 87.4 144.4 87.3 144.3 87.1C147.2 83.7 148.9 80.4 149.5 77.2C151.4 77.8 152.5 78.2 152.5 78.5ZM157.3 78.1C157.3 78.2 157.2 78.3 157 78.4C156.7 78.6 156.4 78.7 156.2 78.8C156.2 80.9 156.3 82.7 156.4 84.3C157.4 84.2 158.5 84 159.7 83.9H159.6C160.3 82.8 160.7 82.2 161 82.1C161.4 82.3 161.8 82.6 162.3 83C162.8 83.4 163 83.7 163.1 83.8C163.1 84.1 163 84.2 162.8 84.2C160.3 84.5 158.2 84.8 156.5 85C156.6 85.7 156.6 86.2 156.7 86.8C157.7 90.8 159.1 93 160.9 93.6C161.2 93.6 161.6 92.4 162.1 90.1C162.3 90.1 162.5 90.1 162.5 90.2C162.3 91.5 162.3 92.7 162.3 93.8C162.4 94.1 162.5 94.4 162.7 94.7C163 95.1 163.2 95.4 163.2 95.7C163.2 96.1 162.9 96.3 162.3 96.3C161.3 96.3 160.2 95.9 159 95C156.6 92.9 155.2 89.7 154.7 85.3C152.3 85.6 150.9 85.8 150.6 86C150.5 85.7 150.3 85.4 150.1 85.1C151.2 85.1 152.7 85 154.7 84.8C154.7 84.5 154.6 84.1 154.6 83.7C154.4 80.8 154.3 78.8 154.1 77.8C156.2 77.7 157.3 77.9 157.3 78.1ZM161.3 80.5C161.3 80.8 161.3 81 161.2 81.2C161 81.6 160.8 81.8 160.4 81.8C160.1 81.8 159.8 81.4 159.3 80.7C158.8 79.9 158.3 79.3 157.7 78.9C157.8 78.9 157.8 78.8 157.8 78.6C160.1 78.8 161.2 79.4 161.3 80.5Z" fill="white"/>
<path d="M168.4 90.8C169 89 169.4 87.1 169.6 85.1H168C167.7 85.6 167.6 85.9 167.4 86.2C167.3 86.5 167.1 86.6 166.7 86.6C166 86.6 165.7 86.4 165.7 86.1C167 83.7 168.2 81.4 169.1 79.3H166.4C166.2 79.3 165.9 79.4 165.6 79.4C165.5 79.1 165.4 78.9 165.3 78.6C165.7 78.7 166 78.7 166.3 78.7H169C169.7 78 170 77.7 170.1 77.7C170.3 77.7 170.6 77.9 171 78.4C171.5 78.9 171.7 79.2 171.7 79.3C171.7 79.4 171.5 79.6 171 79.8C170.8 79.9 170.6 79.9 170.6 80C169.6 82 168.8 83.5 168.2 84.6H169.4C169.9 84 170.3 83.7 170.5 83.7C170.6 83.7 171 83.9 171.4 84.4C171.9 84.8 172.1 85.1 172.1 85.3C172.1 85.4 172 85.5 171.8 85.6C171.4 85.8 171.1 85.9 171 86.1C170.6 88.6 170 90.6 169.3 92.2C169.5 92.4 169.7 92.5 169.9 92.6C171.4 93.7 174.5 94.3 179.2 94.3C181 94.3 182.6 94.2 184 94V94.4C183.7 94.5 183.4 94.6 183.1 94.9C183 95 182.9 95.3 182.8 95.6C182.8 95.9 182.6 96.1 182.3 96.1C181.5 96.1 180.5 96.1 179.1 96.1C174.7 96 171.6 95.3 169.7 94C169.3 93.8 169 93.5 168.7 93.2C167.7 94.8 166.5 95.9 165.1 96.5C165.1 96.4 165.1 96.3 165 96.2C166.3 95 167.2 93.6 167.8 92.1C167 91 166.5 89.5 166.1 87.7L166.4 87.6C167.2 88.9 167.8 90 168.4 90.8ZM181.8 78.9C182.3 79.3 182.6 79.6 182.6 79.8C182.6 79.9 182.5 80 182.3 80.1C182.2 80.2 181.9 80.3 181.7 80.5V81.9H181.9C182.4 81.1 182.7 80.6 182.9 80.6C183 80.6 183.2 80.8 183.6 81.3C183.9 81.7 184.1 82 184.2 82.2C184.2 82.4 184.1 82.5 183.9 82.5H181.8V83.5C181.9 84.2 181.9 84.8 181.9 85.3C181.9 85.7 181.5 85.9 180.6 85.9C180.2 85.9 180 85.8 180 85.5V85.3H177.8V87.4H180C180.3 87 180.6 86.6 180.9 86.3C181 86.2 181.1 86.1 181.1 86.1C181.2 86.1 181.3 86.2 181.5 86.3C182.2 87 182.7 87.4 182.7 87.6C182.7 87.8 182.6 87.9 182.6 87.9H177.8V88.2C177.8 88.9 177.8 89.6 177.8 90.1H180.7C181 89.6 181.3 89.2 181.7 88.9C181.8 88.8 181.9 88.7 181.9 88.7C182 88.7 182.1 88.8 182.3 88.9C183.1 89.6 183.5 90.1 183.6 90.3C183.6 90.5 183.5 90.6 183.4 90.6H177.7C177.7 91.6 177.7 92.3 177.7 92.8C177.7 93.2 177.3 93.3 176.4 93.3C176 93.3 175.7 93.2 175.7 92.9C175.7 92.4 175.7 91.6 175.7 90.5H173.5C172.6 90.5 171.9 90.6 171.5 90.7C171.4 90.4 171.3 90.2 171.2 89.9C171.6 90 172.4 90 173.5 90H175.7C175.7 89.4 175.7 88.8 175.7 88V87.7H174.2C173.3 87.7 172.6 87.8 172.2 87.9C172.1 87.6 172 87.4 171.9 87.1C172.4 87.2 173.1 87.2 174.2 87.2H175.7V85.1C174.4 85.1 173.4 85.2 172.6 85.3C172.4 85 172.3 84.6 172.2 84.4C172.6 84.5 173.8 84.5 175.6 84.5V82.3H174.5C172.5 82.3 171.5 82.4 171.5 82.5C171.4 82.2 171.2 81.9 171.1 81.4C171.4 81.5 172.5 81.6 174.4 81.7H175.7V79.7H175.5C174.1 79.7 173 79.8 172.4 79.9C172.3 79.6 172.2 79.4 172.1 79.1C172.6 79.2 173.8 79.2 175.7 79.2H175.8V79C175.8 78.4 175.7 77.7 175.6 77.1C176.3 77.2 177 77.3 177.7 77.4C178.2 77.5 178.5 77.6 178.5 77.8C178.5 77.9 178.4 78 178.1 78.1C177.7 78.2 177.6 78.3 177.6 78.4V79.3H179.6C180.2 78.6 180.6 78.2 180.8 78.2C181 78.3 181.3 78.5 181.8 78.9ZM177.6 81.9H179.8V79.9H177.6V81.9ZM177.6 84.7C177.7 84.7 177.8 84.7 177.9 84.7H179.8V82.5H177.6V84.7Z" fill="white"/>
<path d="M203.7 88.8C204.6 89.6 205 90 205 90.2C205 90.4 204.9 90.5 204.8 90.5H197.7C198.7 91.4 199.7 92.1 200.9 92.5C202.1 93 203.5 93.2 205.1 93.3C205.1 93.5 205.1 93.6 205 93.7C204.9 93.7 204.7 93.9 204.5 94.1C204.4 94.2 204.2 94.5 204.1 94.9C204 95.2 203.9 95.3 203.7 95.3C203 95.3 201.9 94.8 200.3 93.9C198.9 93.1 197.9 92 197.2 90.6H196.9L197 95.7C197 96.1 196.6 96.3 195.8 96.4C195.2 96.4 194.9 96.2 194.9 95.9C194.9 94.3 194.9 92.8 194.9 91.4C193.4 93.1 190.6 94.4 186.4 95.4C186.3 95.4 186.2 95.3 186.1 95.1C189.5 93.9 191.7 92.5 192.8 91.1C193 90.9 193.1 90.7 193.2 90.6H191.6C189.2 90.6 187.6 90.7 187 90.9C186.9 90.5 186.7 90.2 186.5 89.8C187.5 89.9 189.3 90 191.7 90H194.8V89.8C194.8 89.1 194.7 88.6 194.7 88.2C194.1 88.4 193.4 88.6 192.7 88.7C192.7 88.7 192.6 88.6 192.5 88.4C194.2 87.8 195.4 86.9 196.2 85.7C195.6 85.3 195.1 85 194.5 84.8C194.5 84.8 194.6 84.7 194.6 84.5C195.3 84.6 196 84.7 196.5 84.9C196.7 84.4 196.8 83.9 196.8 83.5C196 83.5 195.4 83.6 195.1 83.7C195 83.4 194.8 83 194.7 82.7C195 82.8 195.7 82.9 196.7 82.9H200.3C200.5 82.6 200.7 82.4 200.9 82.2C200.5 82.2 200.3 82 200.2 81.5C200.2 81.4 200.1 81.2 200.1 81C200.1 80.8 200 80.7 200 80.5C199.9 80.3 199.8 80.1 199.7 80H198C197.8 80.2 197.6 80.4 197.5 80.5C196.8 81.1 196.1 81.7 195.3 82.1C195.3 82.1 195.2 82 195.1 81.9C196.4 80.3 197.3 78.8 197.6 77.3C199.4 77.8 200.3 78.2 200.3 78.4C200.3 78.6 199.9 78.7 199.1 78.8C199 79 198.8 79.2 198.7 79.4H202.4C202.9 78.6 203.3 78.2 203.5 78.1H203.6C203.7 78.2 204 78.4 204.4 78.7C204.9 79.2 205.2 79.5 205.3 79.7C205.3 79.9 205.2 80 205.2 80H200.8C201.6 80.3 202 80.7 202 81.3C202 81.6 201.9 81.9 201.7 82C202 82.1 202.3 82.4 202.7 82.6C203.2 83 203.4 83.3 203.4 83.4C203.4 83.6 203.1 83.9 202.5 84.2V86.1C202.5 86.6 202.7 86.8 203.1 86.9C203.1 86.9 203.1 86.9 203.2 86.9C203.7 86.9 203.9 86.8 204 86.6C204.2 86.3 204.4 85.7 204.5 84.9C204.5 84.9 204.6 85 204.9 85C204.9 85.3 204.9 85.7 204.9 86.2C204.9 86.4 205 86.6 205.2 86.7C205.5 86.8 205.7 87.1 205.7 87.3C205.7 87.6 205.6 87.7 205.6 87.8C205.4 88.2 205 88.4 204.4 88.5C204.1 88.6 203.9 88.6 203.6 88.6C203.3 88.6 203.1 88.6 202.9 88.6C201.7 88.6 201.1 88 201 86.7V83.6H199.1C199 84.5 198.8 85.1 198.6 85.4V85.5C199.7 86 200.3 86.5 200.3 87.2C200.3 87.4 200.3 87.5 200.2 87.7C200.1 88 199.9 88.1 199.6 88.1C199.3 88.1 198.9 87.8 198.4 87.2C198.2 87 198 86.8 197.8 86.7C197.2 87.4 196.4 87.9 195.4 88.2C197.4 88.5 198.4 88.8 198.4 89C198.4 89.1 198.3 89.3 198 89.4C197.6 89.6 197.3 89.7 197.3 89.8V90.1H202.1C202.7 89.3 203.2 88.8 203.5 88.7C203.5 88.7 203.6 88.7 203.7 88.7C203.3 88.5 203.5 88.7 203.7 88.8ZM190 79.8C189 81.1 187.8 82 186.5 82.7C186.4 82.6 186.3 82.5 186.1 82.5C187.5 81.1 188.6 79.3 189.2 77C191 77.6 191.9 77.9 191.9 78.1C191.9 78.4 191.5 78.5 190.9 78.6C190.8 78.8 190.6 79 190.5 79.2H193.2C193.7 78.4 194.1 78 194.3 77.9H194.4C194.6 78 194.8 78.2 195.2 78.5C195.7 79 196 79.3 196.1 79.5C196.1 79.7 196 79.8 196 79.8H191.4C192.4 80.1 193 80.7 193 81.4C193 82 192.7 82.3 192.1 82.3C191.7 82.3 191.5 82.1 191.4 81.6C191.4 81.5 191.3 81.3 191.3 81C191.3 80.8 191.2 80.6 191.2 80.4C191.1 80.1 190.9 79.9 190.8 79.7H190V79.8ZM189.3 83.7C188.4 83.7 187.7 83.8 187.3 83.9C187.2 83.6 187.1 83.4 187 83.1C187.4 83.2 188.2 83.2 189.3 83.2H192.2C192.5 82.8 192.7 82.5 193 82.2C193.1 82.1 193.2 82.1 193.2 82.1C193.3 82.1 193.4 82.2 193.6 82.3C194.3 82.9 194.7 83.3 194.8 83.5C194.8 83.7 194.7 83.8 194.7 83.8H191.7V86.5C192.8 86.4 193.8 86.3 194.6 86.1L194.7 86.2C193.1 87 190.9 87.8 188 88.3C188 88.7 187.9 88.8 187.8 88.8C187.7 88.8 187.6 88.6 187.4 88.3C187.2 88 187 87.4 186.7 86.7C187.9 86.7 189 86.6 190 86.5V83.7H189.3Z" fill="white"/>
<path d="M0.5 63.5H224.5" stroke="#D8B165" stroke-width="0.35" stroke-miterlimit="10"/>
<path d="M0.5 106.9H224.5" stroke="#D8B165" stroke-width="0.35" stroke-miterlimit="10"/>
<path d="M112.1 109.5L108.4 106.9L112.1 104.3L115.9 106.9L112.1 109.5Z" fill="#D8B165"/>
<path d="M112.1 66.1L108.4 63.5L112.1 61L115.9 63.5L112.1 66.1Z" fill="#D8B165"/>
</svg>
