<svg width="6" height="556" viewBox="0 0 6 556" fill="none" xmlns="http://www.w3.org/2000/svg">
<path d="M5.00003 485.1V483.8H0.400024V483.3H5.00003V482H5.10004V485.2H5.00003V485.1Z" fill="#C9A063"/>
<path d="M0.400024 488.9V488.4H2.90002V486H0.400024V485.5H5.10004V486H3.00003V488.4H5.10004V488.9H0.400024Z" fill="#C9A063"/>
<path d="M0.400024 492.8V490.4H5.10004V492.7H5.00003V490.9H3.10004V492.5H2.90002V490.9H0.500031V492.8H0.400024Z" fill="#C9A063"/>
<path d="M5.10004 499.4L0.300018 497.4L5.10004 495.4V496L1.20001 497.6L5.10004 499.2V499.4Z" fill="#C9A063"/>
<path d="M2.70001 505.1C2.00001 505.1 1.40003 504.9 1.00003 504.4C0.500031 503.9 0.300018 503.3 0.300018 502.6C0.300018 501.9 0.500031 501.2 1.00003 500.8C1.50003 500.3 2.00001 500.1 2.70001 500.1C3.40001 500.1 4.00002 500.3 4.40002 500.8C4.90002 501.3 5.10004 501.9 5.10004 502.6C5.10004 503.3 4.90002 504 4.40002 504.4C4.00002 504.9 3.40001 505.1 2.70001 505.1ZM2.70001 504.6C3.40001 504.6 3.90002 504.4 4.30002 504.1C4.80002 503.7 5.00003 503.2 5.00003 502.6C5.00003 502 4.80002 501.5 4.30002 501.1C3.90002 500.7 3.30001 500.6 2.70001 500.6C2.00001 500.6 1.50004 500.8 1.10004 501.1C0.600037 501.5 0.400024 502 0.400024 502.6C0.400024 503.2 0.600037 503.7 1.10004 504.1C1.50004 504.4 2.10001 504.6 2.70001 504.6Z" fill="#C9A063"/>
<path d="M0.400024 506.8V506.3H5.10004V506.8H0.400024Z" fill="#C9A063"/>
<path d="M1.00003 512C0.500031 511.6 0.300018 511.1 0.300018 510.4C0.300018 509.8 0.500031 509.2 1.00003 508.8C1.50003 508.3 2.00001 508.1 2.70001 508.1C3.40001 508.1 3.90002 508.3 4.40002 508.7C4.90002 509.1 5.10004 509.6 5.10004 510.3C5.10004 510.9 4.90004 511.4 4.60004 511.8L4.40002 511.6C4.80002 511.2 4.90002 510.8 4.90002 510.3C4.90002 509.8 4.70001 509.4 4.20001 509.1C3.80001 508.8 3.20004 508.7 2.60004 508.7C2.00004 508.7 1.40003 508.9 1.00003 509.2C0.600031 509.5 0.300018 510 0.300018 510.5C0.300018 511.1 0.500031 511.5 1.00003 511.8V512Z" fill="#C9A063"/>
<path d="M0.400024 515.5V513.1H5.10004V515.4H5.00003V513.6H3.10004V515.2H2.90002V513.6H0.500031V515.5H0.400024Z" fill="#C9A063"/>
<path d="M5.00003 521.2V519.9H0.400024V519.4H5.00003V518.1H5.10004V521.3H5.00003V521.2Z" fill="#C9A063"/>
<path d="M0.400024 525.1V524.6H2.90002V522.2H0.400024V521.7H5.10004V522.2H3.00003V524.6H5.10004V525.1H0.400024Z" fill="#C9A063"/>
<path d="M0.400024 529V526.6H5.10004V528.9H5.00003V527.1H3.10004V528.7H2.90002V527.1H0.500031V529H0.400024Z" fill="#C9A063"/>
<path d="M5.10004 537.2L0.300018 535.7L4.20001 534.3L0.300018 533L5.10004 531.5V532L1.40002 533.2L5.20001 534.5L1.40002 535.9L5.20001 537.1L5.10004 537.2Z" fill="#C9A063"/>
<path d="M2.70001 542.8C2.00001 542.8 1.40003 542.6 1.00003 542.1C0.500031 541.6 0.300018 541 0.300018 540.3C0.300018 539.6 0.500031 538.9 1.00003 538.5C1.50003 538 2.00001 537.8 2.70001 537.8C3.40001 537.8 4.00002 538 4.40002 538.5C4.90002 539 5.10004 539.6 5.10004 540.3C5.10004 541 4.90002 541.7 4.40002 542.1C4.00002 542.6 3.40001 542.8 2.70001 542.8ZM2.70001 542.3C3.40001 542.3 3.90002 542.1 4.30002 541.8C4.80002 541.4 5.00003 540.9 5.00003 540.3C5.00003 539.7 4.80002 539.2 4.30002 538.8C3.90002 538.4 3.30001 538.3 2.70001 538.3C2.00001 538.3 1.50004 538.5 1.10004 538.8C0.600037 539.2 0.400024 539.7 0.400024 540.3C0.400024 540.9 0.600037 541.4 1.10004 541.8C1.50004 542.1 2.10001 542.3 2.70001 542.3Z" fill="#C9A063"/>
<path d="M0.400024 547V546.5L3.00003 544.9C3.00003 545 3.00003 545.1 3.00003 545.1C3.00003 545.8 3.30003 546.2 4.00003 546.2C4.70003 546.2 5.00003 545.7 5.00003 544.8V544.5H0.400024V544H5.10004C5.10004 544.1 5.10004 544.4 5.10004 544.9C5.10004 546.1 4.70002 546.7 3.90002 546.7C3.60002 546.7 3.30004 546.6 3.10004 546.4C2.90004 546.2 2.80001 545.9 2.70001 545.5L0.400024 547Z" fill="#C9A063"/>
<path d="M0.400024 550.4V548H5.10004V548.5H0.500031V550.4H0.400024Z" fill="#C9A063"/>
<path d="M2.70001 555.3C1.80001 555.3 1.20002 555 0.800018 554.3C0.500018 553.8 0.400024 553.3 0.400024 552.7V551.4H5.10004V552.7C5.10004 553.3 5.00001 553.8 4.70001 554.3C4.30001 554.9 3.60001 555.3 2.70001 555.3ZM2.70001 554.8C3.50001 554.8 4.10003 554.5 4.50003 553.9C4.80003 553.5 4.90002 553 4.90002 552.4V551.9H0.400024V552.4C0.400024 553.1 0.500018 553.6 0.800018 554C1.30002 554.5 1.90001 554.8 2.70001 554.8Z" fill="#C9A063"/>
<path d="M0.900024 0.299988V480.1" stroke="#C9A063" stroke-width="0.35" stroke-miterlimit="10"/>
</svg>
