<?xml version="1.0" encoding="utf-8"?>
<!-- Generator: Adobe Illustrator 25.2.3, SVG Export Plug-In . SVG Version: 6.00 Build 0)  -->
<svg version="1.1" id="圖層_1" xmlns="http://www.w3.org/2000/svg" xmlns:xlink="http://www.w3.org/1999/xlink" x="0px" y="0px"
	 viewBox="0 0 380 100" style="enable-background:new 0 0 380 100;" xml:space="preserve">
<style type="text/css">
	.st0{fill:#00404B;}
	.st1{fill:#C79F62;}
</style>
<path class="st0" d="M3.4,4.3h2.7C6.6,3.6,7,3.2,7.2,3.2s0.5,0.2,1.1,0.6c0.5,0.4,0.8,0.7,0.8,0.8C9.1,4.7,9,4.9,8.8,5
	C8.5,5.3,8.3,5.4,8.3,5.5v5.9c0.1,2.3,0.1,3.8,0.1,4.4c0,0.5-0.4,0.7-1.1,0.7c-0.5,0-0.8-0.1-0.9-0.4v-1.3H3.7v1.7
	c-0.1,0.4-0.5,0.6-1.2,0.6c-0.4,0-0.7-0.1-0.8-0.2c0-2.1,0-4.2,0.1-6.2V6.6c0-1.7-0.1-2.8-0.1-3.1L3.4,4.3z M6.5,9.2V4.8H3.7v4.4
	C3.7,9.2,6.5,9.2,6.5,9.2z M6.5,14.4V9.8H3.7v4.6H6.5z M11.7,15.9c-0.3,0.9-0.8,1.8-1.8,2.7c-1.2,1.3-2.5,2.1-3.7,2.5
	c-0.1,0-0.2-0.1-0.3-0.2c1.4-1,2.6-2.2,3.4-3.8c0.8-1.2,1.2-3.2,1.2-6.1c0-3.3,0-5.3,0-6.1c0-0.7,0-1.4-0.1-2.3l2.2,1h3.7
	c0.4-0.6,0.8-1,1-1.2c0.2,0,0.5,0.2,1.1,0.5c0.6,0.4,0.9,0.7,0.9,0.9c0,0.1-0.1,0.3-0.4,0.4c-0.3,0.2-0.4,0.3-0.5,0.4V18
	c0,1.4-0.8,2.2-2.3,2.5c-0.2,0-0.4-0.1-0.4-0.4c-0.2-0.5-0.7-1-1.2-1.2c-0.8-0.3-1.4-0.5-1.7-0.6c0,0,0-0.1,0-0.4
	c0.8,0.1,1.9,0.1,3.3,0.1c0.3,0,0.5-0.2,0.5-0.5v-4h-4.3C12.1,14.6,11.9,15.3,11.7,15.9z M12.4,11c0,0.8,0,1.6-0.1,2.2h4.3V8.8h-4.2
	C12.4,8.8,12.4,11,12.4,11z M12.4,8.3h4.2V4.2h-4.2C12.4,4.2,12.4,8.3,12.4,8.3z"/>
<path class="st0" d="M39.1,13.8c0.9,0.8,1.3,1.2,1.3,1.4s-0.1,0.3-0.2,0.3h-7.1c1,0.9,2,1.6,3.2,2c1.2,0.5,2.6,0.7,4.2,0.8
	c0,0.2,0,0.3-0.1,0.4c-0.1,0-0.3,0.2-0.5,0.4c-0.1,0.1-0.3,0.4-0.4,0.8c-0.1,0.3-0.2,0.4-0.4,0.4c-0.7,0-1.8-0.5-3.4-1.4
	c-1.4-0.8-2.4-1.9-3.1-3.3h-0.3l0.1,5.1c0,0.4-0.4,0.6-1.2,0.7c-0.6,0-0.9-0.2-0.9-0.5c0-1.6,0-3.1,0-4.5c-1.5,1.7-4.3,3-8.5,4
	c-0.1,0-0.2-0.1-0.3-0.3c3.4-1.2,5.6-2.6,6.7-4c0.2-0.2,0.3-0.4,0.4-0.5H27c-2.4,0-4,0.1-4.6,0.3c-0.1-0.4-0.3-0.7-0.5-1.1
	c1,0.1,2.8,0.2,5.2,0.2h3.1v-0.2c0-0.7-0.1-1.2-0.1-1.6c-0.6,0.2-1.3,0.4-2,0.5c0,0-0.1-0.1-0.2-0.3c1.7-0.6,2.9-1.5,3.7-2.7
	c-0.6-0.4-1.1-0.7-1.7-0.9c0,0,0.1-0.1,0.1-0.3c0.7,0.1,1.4,0.2,1.9,0.4c0.2-0.5,0.3-1,0.3-1.4c-0.8,0-1.4,0.1-1.7,0.2
	c-0.1-0.3-0.3-0.7-0.4-1c0.3,0.1,1,0.2,2,0.2h3.6c0.2-0.3,0.4-0.5,0.6-0.7c-0.4,0-0.6-0.2-0.7-0.7c0-0.1-0.1-0.3-0.1-0.5
	s-0.1-0.3-0.1-0.5c-0.1-0.2-0.2-0.4-0.3-0.5h-1.6c-0.2,0.2-0.4,0.4-0.5,0.5c-0.7,0.6-1.4,1.2-2.2,1.6c0,0-0.1-0.1-0.2-0.2
	c1.3-1.6,2.2-3.1,2.5-4.6c1.8,0.5,2.7,0.9,2.7,1.1c0,0.2-0.4,0.3-1.2,0.4c-0.1,0.2-0.3,0.4-0.4,0.6h3.7c0.5-0.8,0.9-1.2,1.1-1.3h0.1
	c0.1,0.1,0.4,0.3,0.8,0.6c0.5,0.5,0.8,0.8,0.9,1c0,0.2-0.1,0.3-0.1,0.3h-4.4c0.8,0.3,1.2,0.7,1.2,1.3c0,0.3-0.1,0.6-0.3,0.7
	c0.3,0.1,0.6,0.4,1,0.6c0.5,0.4,0.7,0.7,0.7,0.8c0,0.2-0.3,0.5-0.9,0.8v1.9c0,0.5,0.2,0.7,0.6,0.8c0,0,0,0,0.1,0
	c0.5,0,0.7-0.1,0.8-0.3c0.2-0.3,0.4-0.9,0.5-1.7c0,0,0.1,0.1,0.4,0.1c0,0.3,0,0.7,0,1.2c0,0.2,0.1,0.4,0.3,0.5
	c0.3,0.1,0.5,0.4,0.5,0.6c0,0.3-0.1,0.4-0.1,0.5c-0.2,0.4-0.6,0.6-1.2,0.7c-0.3,0.1-0.5,0.1-0.8,0.1s-0.5,0-0.7,0
	c-1.2,0-1.8-0.6-1.9-1.9V8.6h-1.9c-0.1,0.9-0.3,1.5-0.5,1.8v0.1c1.1,0.5,1.7,1,1.7,1.7c0,0.2,0,0.3-0.1,0.5
	c-0.1,0.3-0.3,0.4-0.6,0.4s-0.7-0.3-1.2-0.9c-0.2-0.2-0.4-0.4-0.6-0.5c-0.6,0.7-1.4,1.2-2.4,1.5c2,0.3,3,0.6,3,0.8
	c0,0.1-0.1,0.3-0.4,0.4c-0.4,0.2-0.7,0.3-0.7,0.4v0.3h4.8c0.6-0.8,1.1-1.3,1.4-1.4C39,13.7,39.1,13.7,39.1,13.8
	C38.8,13.6,39,13.7,39.1,13.8z M25.5,4.8c-1,1.3-2.2,2.2-3.5,2.9c-0.1-0.1-0.2-0.2-0.4-0.2C23,6.1,24.1,4.3,24.7,2
	c1.8,0.6,2.7,0.9,2.7,1.1c0,0.3-0.4,0.4-1,0.5C26.3,3.8,26.1,4,26,4.2h2.7c0.5-0.8,0.9-1.2,1.1-1.3h0.1c0.2,0.1,0.4,0.3,0.8,0.6
	c0.5,0.5,0.8,0.8,0.9,1c0,0.2-0.1,0.3-0.1,0.3h-4.6c1,0.3,1.6,0.9,1.6,1.6c0,0.6-0.3,0.9-0.9,0.9c-0.4,0-0.6-0.2-0.7-0.7
	c0-0.1-0.1-0.3-0.1-0.6c0-0.2-0.1-0.4-0.1-0.6c-0.1-0.3-0.3-0.5-0.4-0.7L25.5,4.8L25.5,4.8z M24.8,8.7c-0.9,0-1.6,0.1-2,0.2
	c-0.1-0.3-0.2-0.5-0.3-0.8c0.4,0.1,1.2,0.1,2.3,0.1h2.9c0.3-0.4,0.5-0.7,0.8-1c0.1-0.1,0.2-0.1,0.2-0.1c0.1,0,0.2,0.1,0.4,0.2
	c0.7,0.6,1.1,1,1.2,1.2c0,0.2-0.1,0.3-0.1,0.3h-3v2.7c1.1-0.1,2.1-0.2,2.9-0.4l0.1,0.1c-1.6,0.8-3.8,1.6-6.7,2.1
	c0,0.4-0.1,0.5-0.2,0.5s-0.2-0.2-0.4-0.5c-0.2-0.3-0.4-0.9-0.7-1.6c1.2,0,2.3-0.1,3.3-0.2V8.7H24.8z"/>
<path class="st0" d="M50,8.9c0.7,0.6,1.1,1,1.1,1.2s-0.1,0.3-0.2,0.3h-2.1v5.5c0.7-0.4,1.4-0.9,2.2-1.4c0,0,0,0.2,0.1,0.4
	c-0.9,1.2-2,2.4-3.3,3.7c0,0.1-0.1,0.4-0.1,0.8c0,0.1-0.1,0.2-0.2,0.2c-0.2,0-0.7-0.7-1.5-2.2c0.3,0,0.7-0.2,1.2-0.5v-6.5h-1
	c-0.1,1.9-0.1,3.2-0.3,3.9c-0.5,3.5-1.5,5.8-3.1,6.7c0-0.1-0.1-0.1-0.2-0.2c0.9-1.4,1.5-3.8,1.8-7c0.1-1.2,0.1-2.3,0.1-3.4
	c-0.9,0-1.5,0.1-1.7,0.3c-0.1-0.4-0.3-0.7-0.5-1.1c0.4,0.1,1.1,0.2,2,0.2h1.5V4c0-0.8,0-1.4-0.1-1.9c1.7,0.3,2.5,0.5,2.5,0.7
	s-0.1,0.3-0.3,0.3c-0.4,0.1-0.5,0.3-0.5,0.4v6.3h0.9c0.5-0.6,0.9-1,1.2-1.2h0.1C49.7,8.7,49.8,8.7,50,8.9z M45.3,7.2
	c0,0.5-0.1,0.8-0.3,1c-0.2,0.3-0.4,0.4-0.8,0.4c-0.2,0-0.4-0.4-0.4-1.1c-0.2-1.4-0.5-2.5-0.9-3.2l0.3-0.2
	C44.6,5.2,45.2,6.3,45.3,7.2z M51.1,4.7c0.8-0.6,1.2-1.4,1.3-2.3h0.4c0,0.3,0.1,0.6,0.1,1h6c0.5-0.6,0.9-0.9,1.2-1
	c0.2,0.1,0.5,0.3,0.9,0.7c0.5,0.5,0.8,0.8,0.8,1s-0.2,0.3-0.5,0.3s-0.4,0.1-0.5,0.1c-0.5,0.4-1.3,0.8-2.1,1.2
	c-0.1,0-0.2-0.1-0.2-0.2C58.8,5,59,4.4,59.1,3.9h-6.2V4c0,1.6-0.4,2.3-1.2,2.3c-0.7,0-1.1-0.2-1.1-0.7c0-0.2,0.1-0.4,0.2-0.6
	c-0.2,0-0.3,0.1-0.5,0.1c-0.4,1.1-1,2.3-1.9,3.5c-0.1,0-0.3-0.1-0.5-0.1c0.4-1.6,0.8-3.2,0.9-4.9C50.1,4.1,50.9,4.5,51.1,4.7z
	 M60.1,6c0.7,0.7,1.1,1.1,1.1,1.2c0,0.2-0.1,0.3-0.2,0.3h-4.5v1.6h1.4c0.5-0.5,0.8-0.8,1-0.8s0.5,0.2,1,0.6s0.7,0.6,0.7,0.8
	c0,0.1-0.1,0.3-0.3,0.4c-0.3,0.2-0.4,0.4-0.5,0.4v2.6c0.1,1,0.1,1.7,0.1,2c0,0.4-0.4,0.7-1,0.7c-0.5,0-0.8-0.1-0.8-0.4V15h-1.7v1.5
	c0,0.2,0,0.4,0,0.5h2.4c0.5-0.6,0.9-1,1.2-1.2h0.1c0.1,0.1,0.3,0.2,0.4,0.3c0.7,0.6,1.1,1,1.1,1.2s-0.1,0.3-0.2,0.3h-5
	c0,1.4,0,2.5,0.1,3.1c0,0.3-0.4,0.5-1.2,0.5c-0.4,0-0.6-0.1-0.6-0.4c0-0.6,0-1.7,0.1-3.2h-1.5c-1.5,0-2.4,0.1-2.8,0.2
	c-0.1-0.4-0.3-0.7-0.5-1.1c0.6,0.1,1.6,0.2,3,0.2h1.8v-2h-1.7v0.4c-0.1,0.4-0.4,0.6-1.1,0.6c-0.4,0-0.6-0.1-0.7-0.2
	c0-1.1,0-2.2,0.1-3.3v-2.2c0-0.9-0.1-1.5-0.1-1.7l1.6,0.6h2V7.5H54c-1.3,0-2.1,0.1-2.4,0.3c-0.1-0.4-0.3-0.7-0.5-1.1
	c0.5,0.1,1.3,0.2,2.5,0.2h1.3V6.2c0-0.6-0.1-1.2-0.2-1.7c0.6,0.1,1.2,0.2,1.9,0.3c0.5,0.1,0.7,0.2,0.7,0.4c0,0.1-0.1,0.2-0.3,0.3
	c-0.3,0.1-0.5,0.2-0.5,0.3V7h1.8c0.5-0.6,0.9-1,1.2-1.2h0.1C59.7,5.8,59.9,5.9,60.1,6z M54.8,11.7v-2h-1.7v2H54.8z M54.8,14.4v-2.2
	h-1.7v2.2H54.8z M56.5,11.7h1.7v-2h-1.7V11.7z M56.5,14.4h1.7v-2.2h-1.7V14.4z"/>
<path class="st0" d="M80.8,12.2c0.8,0.7,1.2,1.1,1.2,1.3s-0.1,0.3-0.2,0.3h-7.6v2.5h3.1c0.3-0.4,0.6-0.8,1-1.2
	c0.1-0.1,0.2-0.2,0.2-0.2c0.1,0,0.2,0.1,0.4,0.2c0.8,0.7,1.2,1.2,1.3,1.4c0,0.2-0.1,0.3-0.2,0.3h-5.9v2.9H79
	c0.7-0.9,1.2-1.4,1.5-1.6c0,0,0.1,0,0.2,0c0.2,0.1,0.4,0.2,0.6,0.4c0.9,0.8,1.4,1.3,1.4,1.6c0,0.2-0.1,0.3-0.2,0.3H68.7
	c-2.5,0-4.1,0.1-4.7,0.2c-0.1-0.4-0.3-0.7-0.5-1.1c1,0.1,2.9,0.2,5.4,0.2h3.3v-2.9h-3.5c-0.9,0-1.6,0.1-2,0.1
	c-0.1-0.2-0.2-0.5-0.3-0.8c0.4,0.1,1.2,0.1,2.3,0.1h3.5v-2.5h-2.8c-2.3,0-3.7,0.1-4.2,0.3c-0.1-0.4-0.3-0.7-0.5-1.1
	c1,0.1,2.6,0.2,4.9,0.2H79c0.6-0.7,1-1.2,1.3-1.3c0,0,0.1,0,0.2,0C80.5,12,80.6,12.1,80.8,12.2z M74.2,2.9c0,0.1-0.2,0.2-0.5,0.2
	s-0.5,0.1-0.6,0.1c-0.4,0.5-0.9,1-1.6,1.4h6.3c0.5-0.7,0.9-1.1,1.1-1.1s0.5,0.2,1.1,0.6c0.5,0.4,0.8,0.7,0.8,0.8s-0.1,0.3-0.4,0.4
	c-0.4,0.2-0.6,0.4-0.6,0.5v3c0.1,1.2,0.1,1.9,0.1,2.2c0,0.5-0.4,0.7-1.1,0.7c-0.5,0-0.8-0.1-0.9-0.4v-0.4h-9.7v0.5
	C68.1,11.8,67.7,12,67,12c-0.4,0-0.7-0.1-0.8-0.2c0-1.3,0-2.5,0.1-3.7V5.7c0-1-0.1-1.6-0.1-1.8L68,4.6h3c0.3-0.8,0.4-1.7,0.5-2.6
	C73.3,2.4,74.2,2.7,74.2,2.9z M78,5.3h-9.7v2.3H78V5.3z M68.3,10.6H78V8.2h-9.7V10.6z"/>
<path class="st0" d="M91.6,18.5c0-0.7,0.4-1.2,0.9-1.2c0.9,0,1.1,1.1,1.1,1.2c0.1,0.3,0.6,1.1,2.6,1.1c2.6,0,4.1-1.9,4.1-3.8
	c0-2.8-1.8-4.5-4-5c-0.5-0.1-0.5,0-0.5-0.4c0-0.3,0.1-0.3,0.3-0.4c1.8-0.3,3.6-1.8,3.6-4c0-1.8-1.1-3.1-2.9-3.1
	c-2.1,0-3.1,1.5-3.7,3.1c-0.1,0.2-0.2,0.3-0.3,0.3l-0.5-0.1c-0.1,0-0.1-0.2,0-0.4c0.4-1.9,2.1-4.5,5.3-4.5c3.1,0,4.1,2.2,4.1,3.7
	c0,2.4-1.7,3.9-3.1,4.8c1.9,0.5,4.1,2.4,4.1,4.9c0,3.6-3.2,6.2-7,6.2C92.5,20.7,91.6,19.3,91.6,18.5z"/>
<path class="st0" d="M107.5,8.3c0.7-0.1,2.6,0.1,3.2,0.3c2.7,0.7,4.3,2.7,4.3,5.2c0,4-3.2,6.9-7.1,6.9c-2.1,0-3.6-0.8-3.6-1.6
	c0-0.4,0.3-0.7,0.6-0.7c0.5,0,1,0.3,1.4,0.6c0.4,0.3,1.4,0.5,2.2,0.5c2.2,0,4.4-1.8,4.4-4.3c0-2-0.6-3.5-2.5-4.3
	c-1.5-0.7-2.9-0.7-3.6-0.6c-0.2,0-0.3,0.1-0.5-0.1c-0.1-0.1-0.2-0.1-0.1-0.3l1-7.9c0-0.3,0.1-0.4,0.4-0.4h6c1,0,1.2-0.5,1.7-1.4
	c0.1-0.2,0.2-0.2,0.3-0.1c0.3,0.1,0.4,0.2,0.4,0.3l-1,2.8c-0.2,0.4-0.3,0.6-1.2,0.6H108L107.5,8.3z"/>
<path class="st0" d="M116.7,11.9c0-6.4,2.7-10.7,6.2-10.7c4.1,0,6,5.3,6,9.6c0,6.4-2.4,9.9-6,9.9C118.4,20.7,116.7,15.3,116.7,11.9z
	 M125.7,17.7c0.6-1.3,0.9-3.5,0.9-7.6s-1.4-8-3.8-8c-1.1,0-1.9,0.4-2.5,1.7c-1,2-1.1,5.2-1.1,7.6c0,2.7,0.3,4.6,1,5.9
	c0.9,1.8,1.9,2.4,2.9,2.4C123.9,19.7,124.9,19.4,125.7,17.7z"/>
<path class="st0" d="M139.5,4.8c0,0.2-0.5,0.4-1.5,0.5c-0.7,1.5-1.6,2.9-2.7,4.2c-1.2,1.6-2.5,2.8-4,3.9c0,0-0.1-0.1-0.3-0.3
	c2.8-3.3,4.5-6.5,5.1-9.7C138.4,4,139.5,4.5,139.5,4.8z M141.8,10.9c0,0.2-0.5,0.4-1.5,0.5c-0.6,1.3-1.2,2.6-2,3.7
	c-0.7,1-1.4,1.9-2.1,2.6c3.1,0,6-0.1,8.8-0.2c-0.7-1.6-1.5-3-2.4-4c0,0,0.1-0.1,0.3-0.2c3.2,2.2,4.9,4.2,4.9,6c0,0.6-0.2,1-0.5,1.2
	c-0.2,0.1-0.4,0.2-0.6,0.2c-0.5,0-0.8-0.7-1.2-1.9c-0.1-0.3-0.2-0.6-0.3-0.9c-2.5,0.8-6.1,1.5-10.9,1.9c0,0.8-0.2,1.2-0.4,1.2
	c-0.1,0-0.5-0.6-0.9-1.7c-0.3-0.7-0.4-1.2-0.5-1.6c1,0,2,0,3,0c1.8-2.8,2.8-5.5,3.2-8.2C140.7,10.2,141.8,10.6,141.8,10.9z M145,3.9
	c0,0.2-0.2,0.4-0.7,0.4c-0.3,0.1-0.5,0.1-0.6,0.3c0,0.8,0.5,1.8,1.4,3.1c1.3,1.7,2.8,2.8,4.5,3.3c0,0.2-0.1,0.4-0.1,0.4
	c-0.5,0-0.8,0.1-1,0.4c-0.3,0.8-0.5,1.1-0.7,1.1c-0.6-0.1-1.4-0.8-2.4-2.3c-1.3-1.8-2.2-4-2.7-6.7h-1.3c-0.8,0-1.3,0-1.6,0.1
	c-0.1-0.3-0.3-0.6-0.4-0.9c0.4,0.1,1,0.2,1.7,0.2h1c0.5-0.7,0.9-1,1.1-1C144.5,3.2,145,3.7,145,3.9z"/>
<path class="st0" d="M168.1,3.7c0.5,0.4,0.8,0.7,0.8,0.9c0,0.1-0.1,0.3-0.3,0.4c-0.3,0.3-0.5,0.4-0.6,0.5v3.4
	c0.1,1.3,0.1,2.2,0.1,2.5c0,0.5-0.4,0.8-1.2,0.8c-0.6,0-0.9-0.1-0.9-0.4v-1h-3.6c0.9,3.3,2.9,5.6,6,7.2c0.9,0.5,1.7,0.8,2.4,0.9
	c0,0.2,0,0.3-0.1,0.4c-0.3,0.1-0.5,0.1-0.7,0.3c-0.2,0.2-0.4,0.5-0.6,0.9c-0.2,0.4-0.4,0.6-0.5,0.6c-0.2,0-0.5-0.2-1.1-0.5
	c-3.2-1.8-5.2-5.1-5.9-9.7h-4.3c0,2-0.2,3.5-0.5,4.5c-0.2,1-0.7,2.1-1.5,3.2c-1,1.5-2,2.5-3.1,3c-0.1,0-0.2-0.1-0.3-0.2
	c1-1.2,1.9-2.6,2.5-4.4c0.5-1.4,0.8-3.8,0.9-7.1c0-2.6,0-4.2,0-4.8c0-0.5,0-1.1-0.1-1.8l2.2,1h8.1c0.6-0.7,1-1.1,1.2-1.1
	C167.1,3,167.5,3.2,168.1,3.7z M157.5,9.7v0.5h8.5V4.7h-8.5V9.7z"/>
<path class="st0" d="M179.8,18.5c0-0.7,0.4-1.2,0.9-1.2c0.9,0,1.1,1.1,1.1,1.2c0.1,0.3,0.6,1.1,2.6,1.1c2.6,0,4.1-1.9,4.1-3.8
	c0-2.8-1.8-4.5-4-5c-0.5-0.1-0.5,0-0.5-0.4c0-0.3,0.1-0.3,0.3-0.4c1.8-0.3,3.6-1.8,3.6-4c0-1.8-1.1-3.1-2.9-3.1
	c-2.1,0-3.1,1.5-3.7,3.1c-0.1,0.2-0.2,0.3-0.3,0.3l-0.5-0.1c-0.1,0-0.1-0.2,0-0.4c0.4-1.9,2.1-4.5,5.3-4.5c3.1,0,4.1,2.2,4.1,3.7
	c0,2.4-1.7,3.9-3.1,4.8c1.9,0.5,4.1,2.4,4.1,4.9c0,3.6-3.2,6.2-7,6.2C180.7,20.7,179.8,19.3,179.8,18.5z"/>
<path class="st0" d="M202.3,4.4c0,0.2-0.5,0.3-1.4,0.5c-0.8,1.4-1.7,2.8-2.7,4c-1.2,1.5-2.5,2.7-4.1,3.7c0,0-0.1-0.1-0.2-0.3
	c2.9-3.1,4.7-6.2,5.4-9.2C201.3,3.7,202.3,4.1,202.3,4.4z M197.1,11.6c-0.1-0.3-0.2-0.7-0.4-1c0.8,0.2,2.1,0.3,3.8,0.3h6.3
	c0.5-0.6,0.9-0.9,1.2-0.9c1.1,0.7,1.7,1.2,1.7,1.6c0,0.1-0.1,0.3-0.4,0.4c-0.3,0.2-0.5,0.3-0.5,0.5c-0.2,3.6-0.6,5.9-1.1,6.9
	c-0.6,1.1-1.5,1.7-2.8,1.7c-0.2,0-0.3-0.2-0.4-0.7c-0.1-0.4-0.4-0.8-0.9-1c-0.4-0.3-0.9-0.5-1.6-0.8c0.1-0.1,0.1-0.3,0.1-0.4
	c0.8,0.2,1.7,0.3,2.6,0.3c0.8,0,1.2-0.3,1.4-0.8c0.4-0.9,0.7-3,0.8-6.2h-4.7c0,0.8-0.1,1.2-0.1,1.2c-0.6,4.5-3.3,7.4-8,8.7
	c-0.1,0-0.1-0.1-0.2-0.1c3.5-1.8,5.6-4.7,6.2-9c0-0.2,0-0.4,0-0.8C198.7,11.4,197.7,11.5,197.1,11.6z M207.6,3.6
	c0,0.2-0.2,0.3-0.7,0.4c-0.3,0.1-0.5,0.1-0.5,0.3c0,0.7,0.5,1.6,1.6,2.7c1.5,1.5,3.1,2.4,4.9,2.9c0,0.2,0,0.3-0.1,0.4
	c-0.4,0-0.8,0.1-0.9,0.4c-0.2,0.7-0.5,1-0.7,1c-0.7-0.1-1.6-0.7-2.6-2c-1.5-1.6-2.5-3.5-3-5.8h-1.3c-0.8,0-1.3,0-1.6,0.1
	c-0.1-0.3-0.3-0.6-0.4-0.9c0.4,0.1,1,0.2,1.8,0.2h1.1c0.5-0.7,0.8-1,1-1C207.1,2.9,207.6,3.4,207.6,3.6z"/>
<path class="st0" d="M220.3,3c0,0.2-0.3,0.4-0.9,0.4c0,0.1-0.1,0.1-0.1,0.1c2.2,0.7,3.3,1.5,3.4,2.5c0,0.4-0.1,0.7-0.2,0.8
	S222.2,7,222,7c-0.3,0-0.7-0.4-1.1-1.1c-0.5-0.7-1.1-1.4-1.8-2c-0.8,1.6-1.7,2.9-2.8,3.9c0.5,0.1,1.1,0.1,2,0.1h0.7
	c0.3-0.4,0.6-0.8,0.9-1.1c0.1-0.1,0.2-0.1,0.2-0.1c0.1,0,0.2,0.1,0.4,0.2c0.7,0.7,1.2,1.1,1.2,1.3s-0.1,0.3-0.2,0.3h-2.3v2.6h0.5
	c0.3-0.4,0.5-0.7,0.8-1c0.1-0.1,0.2-0.1,0.2-0.1c0.1,0,0.2,0.1,0.4,0.2c0.7,0.6,1.1,1,1.2,1.2c0,0.2-0.1,0.3-0.1,0.3h-2.9V18
	c1.2-0.2,2.1-0.4,2.8-0.7c0.1,0.1,0.1,0.3,0.2,0.3c-1.2,0.8-3.2,1.6-6.1,2.5c-0.1,0.6-0.2,0.9-0.4,0.9c-0.1,0-0.3-0.3-0.5-0.8
	c-0.2-0.6-0.4-1.2-0.6-2.1c0.4,0.1,1,0.1,1.9,0.1c0.3,0,0.7,0,1-0.1v-6.6h-0.4c-0.9,0-1.5,0.1-2,0.1c-0.1-0.2-0.2-0.5-0.3-0.8
	c0.4,0.1,1.2,0.1,2.3,0.1h0.4V8.3c-0.5,0-1,0.1-1.3,0.1c-0.1-0.2-0.1-0.4-0.2-0.6c-0.4,0.4-0.8,0.7-1.3,1c-0.1-0.1-0.2-0.1-0.3-0.2
	c1.6-1.8,2.8-4,3.4-6.7C219.5,2.6,220.3,2.9,220.3,3z M217.1,16c0,0.7-0.3,1-1,1c-0.4,0-0.5-0.2-0.6-0.6c0-0.1,0-0.3,0.1-0.6
	c0-0.2,0.1-0.4,0.1-0.8c0-0.9-0.2-1.6-0.5-2.1l0.1-0.1C216.5,13.7,217.1,14.8,217.1,16z M222.3,13.2c0.4,0.1,0.5,0.3,0.6,0.3
	c0,0.1-0.1,0.2-0.3,0.2c-0.3,0.1-0.5,0.1-0.6,0.2c-0.3,1.2-1,2.1-2,2.8l-0.2-0.1c0.5-1.1,0.8-2.4,0.9-4
	C221.4,12.9,221.9,13.1,222.3,13.2z M224.7,10.1h5.6c0.5-0.5,0.8-0.8,1-0.8s0.5,0.2,1,0.6c0.5,0.4,0.7,0.6,0.7,0.8
	c0,0.1-0.1,0.2-0.3,0.4c-0.3,0.2-0.5,0.4-0.5,0.4v2.2c0.1,0.9,0.1,1.4,0.1,1.7c0,0.4-0.3,0.7-1,0.7c-0.5,0-0.8-0.1-0.8-0.4v-0.1h-2
	v1.8h1.7c0.5-0.5,0.8-0.9,1-1h0.1c0.1,0.1,0.3,0.2,0.4,0.3c0.7,0.6,1,0.9,1,1.1s-0.1,0.3-0.2,0.3h-4.1v2h2.1c0.6-0.7,1-1.1,1.3-1.3
	h0.1c0.1,0.1,0.3,0.2,0.5,0.3c0.8,0.7,1.2,1.1,1.2,1.3c0,0.2-0.1,0.3-0.2,0.3h-9c-1.6,0-2.7,0.1-3.1,0.3c-0.1-0.4-0.3-0.7-0.5-1.1
	c0.6,0.1,1.7,0.2,3.3,0.2h2.3v-2h-1.2c-1.3,0-2.1,0.1-2.5,0.3c-0.1-0.4-0.3-0.7-0.5-1.1c0.5,0.1,1.4,0.2,2.7,0.2h1.5v-1.8H225v0.4
	c-0.1,0.4-0.4,0.6-1.1,0.6c-0.4,0-0.6-0.1-0.7-0.2c0-1.1,0-2.1,0.1-3.1v-2.1c0-0.9-0.1-1.4-0.1-1.6L224.7,10.1z M232,6.4
	c0,0.1-0.3,0.3-0.9,0.5c-0.4,0.5-0.9,1-1.7,1.3h1.8c0.5-0.6,0.9-1,1.2-1.2h0.2c0.1,0.1,0.3,0.2,0.4,0.3c0.7,0.6,1.1,1,1.1,1.2
	s-0.1,0.3-0.2,0.3h-8.3c-1.5,0-2.5,0.1-2.8,0.2c-0.1-0.4-0.3-0.7-0.5-1.1c0.6,0.1,1.6,0.2,3.1,0.2h0.4c-0.1-0.2-0.3-0.4-0.4-0.8
	c-0.3-0.7-0.5-1.2-0.9-1.7c0.1,0,0.1-0.1,0.1-0.3c1.5,0.2,2.2,0.7,2.3,1.6c0,0.3,0,0.5-0.1,0.7s-0.2,0.3-0.3,0.4h2.1
	c0.6-1,0.9-1.9,1-2.9C231.2,5.9,232,6.2,232,6.4z M232.3,3.7c0.7,0.6,1.1,1,1.1,1.2s-0.1,0.3-0.2,0.3h-7.4c-1.3,0-2.2,0.1-2.5,0.3
	c-0.1-0.4-0.3-0.7-0.5-1.1c0.5,0.1,1.4,0.2,2.7,0.2h2.1c-0.2-0.1-0.4-0.4-0.6-0.7c-0.4-0.6-0.8-1.1-1.4-1.5c0.1,0,0.1-0.1,0.1-0.2
	c2,0.2,3,0.6,3.1,1.4c0,0.3,0,0.5-0.1,0.7s-0.2,0.3-0.3,0.4h2.2c0.5-0.6,0.9-1,1.2-1.2h0.1C232,3.5,232.2,3.6,232.3,3.7z
	 M226.8,12.6v-1.9H225v1.9H226.8z M226.8,15v-1.9H225V15H226.8z M230.7,12.6v-1.9h-2v1.9H230.7z M230.7,15v-1.9h-2V15H230.7z"/>
<path class="st0" d="M238.3,3.8h3.3c0.5-0.6,0.8-0.9,1-0.9s0.5,0.2,1,0.6c0.2,0.1,0.3,0.3,0.4,0.4h7.5c0.5-0.8,0.9-1.2,1.1-1.3h0.1
	c0.2,0,0.4,0.3,0.8,0.6c0.5,0.5,0.8,0.8,0.9,1c0,0.2-0.1,0.3-0.1,0.4h-6.8v4.3h3.1c0.5-0.7,0.9-1,1.1-1s0.5,0.2,1.1,0.6
	c0.5,0.4,0.8,0.7,0.8,0.8s-0.1,0.3-0.3,0.4c-0.3,0.3-0.5,0.4-0.5,0.5V13c0.1,1.1,0.1,1.8,0.1,2.1c0,0.5-0.4,0.7-1.1,0.7
	c-0.5,0-0.8-0.1-0.9-0.4v-0.8h-3.4v5h3.7c0.7-0.9,1.2-1.4,1.5-1.6c0,0,0.1,0,0.2,0c0.2,0.1,0.4,0.2,0.6,0.4c0.9,0.8,1.4,1.3,1.4,1.6
	c0,0.2-0.1,0.3-0.2,0.3h-8.9c-1.6,0-2.6,0.1-3,0.2c-0.1-0.4-0.3-0.7-0.5-1.1c0.6,0.1,1.6,0.2,3.1,0.2h0.3V4.5h-1.5
	c-0.1,0.1-0.2,0.1-0.3,0.2c-0.4,0.2-0.6,0.4-0.7,0.4v2.3c0.1,0.9,0.1,1.5,0.1,1.7c0,0.4-0.3,0.7-1,0.7c-0.5,0-0.7-0.1-0.8-0.3h-0.4
	V13h0.8c0.5-0.9,0.9-1.4,1-1.5c0.1,0,0.4,0.3,0.9,0.9c0.4,0.5,0.6,0.8,0.6,0.9c0,0.2-0.1,0.3-0.2,0.3H241v4.1
	c1.2-0.2,2.3-0.5,3.2-0.8c0,0,0.1,0.1,0.1,0.2c-1.7,1.3-4.2,2.4-7.3,3.4c0,0.4-0.1,0.7-0.2,0.7c-0.1,0-0.3-0.2-0.5-0.6
	s-0.5-1.1-0.9-2c0.4,0,0.7,0,1-0.1v-4.9c0-0.7,0-1.3-0.1-1.8c1.6,0.2,2.3,0.4,2.3,0.6c0,0.1-0.1,0.2-0.3,0.3
	c-0.3,0.1-0.5,0.3-0.5,0.4v5.3c0.4,0,0.8-0.1,1.3-0.2V9.7h-0.8v0.1c-0.1,0.4-0.4,0.6-1.1,0.6c-0.4,0-0.6-0.1-0.7-0.2
	c0-1.1,0-2.1,0.1-3.2V4.9c0-0.9-0.1-1.4-0.1-1.6L238.3,3.8z M241.6,8.9V4.3h-3.1v4.6H241.6z M251,14V9.3h-3.4V14H251z"/>
<path class="st0" d="M259.3,12c0.4,0.1,0.7,0.2,0.7,0.4c0,0.1-0.1,0.2-0.3,0.2c-0.3,0.1-0.5,0.2-0.5,0.3v0.3h2v-1.9h-1.6
	c0,0.3-0.4,0.5-1,0.5c-0.4,0-0.6-0.1-0.6-0.3c0-1.4,0.1-3,0.1-4.9c-0.1-0.4-0.1-0.7-0.1-1c1.5,0.2,2.3,0.4,2.4,0.7
	c0,0.1-0.1,0.2-0.1,0.3c0.7,0.3,1.3,0.6,1.7,0.8c0.3-0.6,0.5-1.2,0.6-1.8c1.3,0.5,1.9,0.8,1.9,0.9s-0.1,0.2-0.4,0.2
	c-0.4,0-0.6,0-0.6,0c-0.2,0.4-0.4,0.8-0.6,1.2c0.8,0.6,1.2,1.1,1.2,1.6c0,0.4-0.1,0.7-0.3,0.8c-0.1,0.1-0.2,0.1-0.4,0.1
	c-0.4,0-0.8-0.3-1-1c-0.1-0.2-0.2-0.3-0.3-0.4c-0.6,0.7-1.3,1.1-2,1.5c0,0-0.1-0.1-0.2-0.1c0.7-0.7,1.2-1.4,1.7-2.1
	c-0.5-0.6-1-1.1-1.6-1.5c-0.3,0.1-0.4,0.2-0.4,0.3V11h5c0-1.2,0-2.6,0-4.1c-0.1-0.4-0.1-0.7-0.1-1c1.5,0.2,2.3,0.4,2.5,0.7
	c0,0.2-0.1,0.3-0.4,0.3c-0.3,0.2-0.5,0.3-0.5,0.3v4.6c0,0.3-0.3,0.5-1,0.5c-0.4,0-0.6-0.1-0.6-0.3s0-0.3,0-0.5h-1.8v1.9h2.1
	c0.5-0.5,0.8-0.8,0.9-0.9c0.2,0.1,0.4,0.2,0.7,0.4c0.4,0.2,0.6,0.4,0.7,0.6c0,0.2-0.1,0.3-0.4,0.4c-0.1,0.1-0.1,0.2-0.1,0.3v5.5
	c0,1-0.6,1.6-1.8,1.6c-0.3,0-0.5-0.1-0.5-0.4s-0.3-0.6-0.9-1c-0.3-0.2-0.6-0.3-0.9-0.3c0-0.1,0-0.2,0-0.3c0.6,0.1,1.3,0.1,2.1,0.1
	c0.3,0,0.4-0.2,0.4-0.6v-5h-2.3v2.6c0.3,0,0.5,0,0.7-0.1c-0.1-0.5-0.2-1-0.5-1.4c0.1,0,0.2-0.1,0.2-0.1c1.1,0.8,1.6,1.5,1.6,2.3
	c0,0.7-0.3,1-0.8,1c-0.4,0-0.6-0.2-0.6-0.6c0-0.1,0-0.2,0-0.3s0-0.2,0-0.4c-0.7,0.4-1.6,0.8-2.8,1.1c-0.1,0.5-0.2,0.7-0.3,0.7
	c-0.1,0-0.2-0.2-0.4-0.7c-0.1-0.4-0.3-1-0.5-1.6c0.3,0.1,0.8,0.1,1.5,0.1h0.3v-2.7h-2V17c0,1.9,0,3.2,0.1,3.9c0,0.3-0.4,0.4-1.1,0.4
	c-0.4,0-0.6-0.1-0.6-0.3c0-0.7,0-2,0.1-4.1v-3.2c-0.3,0-0.5,0-0.7,0.1c-0.2-0.3-0.3-0.6-0.5-1c0.3,0.1,0.7,0.1,1.1,0.2
	c0-0.5-0.1-0.9-0.1-1.3C258.1,11.9,258.7,12,259.3,12z M266.6,3.6c0.7,0.6,1.1,1,1.1,1.2c0,0.2-0.1,0.3-0.2,0.3h-7.6
	c-1.4,0-2.3,0.1-2.6,0.3c-0.1-0.4-0.3-0.7-0.5-1.1c0.5,0.1,1.5,0.2,2.8,0.2h2.4c-0.2-0.1-0.4-0.4-0.6-0.7c-0.4-0.6-0.8-1-1.3-1.4
	c0.1,0,0.1-0.1,0.1-0.3c1.9,0.1,2.9,0.5,3,1.2c0,0.3,0,0.5-0.1,0.7c-0.1,0.2-0.2,0.4-0.3,0.4h2.1c0.5-0.6,0.9-1,1.2-1.2h0.1
	C266.2,3.4,266.4,3.5,266.6,3.6z M275.2,5.9c0.5,0.5,0.8,0.8,0.8,0.9c0,0.2,0,0.3-0.1,0.4h-3v3.3h0.4c0.5-0.8,0.8-1.2,1-1.2
	c0.1,0,0.3,0.3,0.8,0.8c0.4,0.4,0.5,0.7,0.5,0.8c0,0.2-0.1,0.3-0.2,0.3h-2.5v3.6h0.5c0.5-0.8,0.8-1.3,0.9-1.3s0.4,0.3,0.8,0.8
	c0.4,0.4,0.5,0.7,0.5,0.8c0,0.2-0.1,0.3-0.2,0.3h-2.6v4.3h0.5c0.5-0.8,0.9-1.3,1-1.3s0.4,0.3,0.9,0.8c0.4,0.4,0.6,0.7,0.6,0.8
	c0,0.2-0.1,0.3-0.2,0.3h-6v0.1c0,0.3,0,0.5,0,0.8s-0.3,0.5-1,0.5c-0.5,0-0.7-0.1-0.8-0.3V9c-0.4,0.7-0.8,1.4-1.2,2
	c-0.1,0-0.3-0.1-0.4-0.1c1.2-2.7,2.1-5.6,2.6-8.6c1.6,0.6,2.4,1,2.4,1.2s-0.3,0.3-0.9,0.3c-0.3,1-0.7,1.9-1.1,2.9h4.1
	c0.5-0.7,0.8-1.1,1-1.2h0.1C274.6,5.3,274.8,5.5,275.2,5.9z M269.7,10.4h1.6V7.1h-1.6V10.4z M269.7,14.6h1.6V11h-1.6V14.6z
	 M269.7,19.5h1.6v-4.3h-1.6V19.5z M273.4,5.3c0,0.7-0.3,1-0.8,1s-0.7-0.3-0.7-0.8c0-0.2,0-0.5-0.1-0.9s-0.2-0.8-0.3-1.2
	s-0.2-0.7-0.3-0.8c0.1-0.1,0.2-0.2,0.3-0.2C272.7,3.4,273.4,4.3,273.4,5.3z"/>
<path class="st0" d="M1,37c-0.1-0.3-0.3-0.6-0.4-1.1C0.9,36,2,36.1,3.8,36.2v-3c0-0.6-0.1-1.2-0.2-1.9c0.7,0.1,1.3,0.2,2.1,0.3
	c0.5,0.1,0.8,0.2,0.8,0.4c0,0.1-0.1,0.2-0.4,0.3c-0.4,0.1-0.5,0.2-0.5,0.3v3.6h0.3c0.5-0.8,0.8-1.3,1-1.3c0.1,0,0.3,0.2,0.7,0.7
	c0.3,0.4,0.5,0.7,0.6,0.9c0,0.2-0.1,0.3-0.3,0.3H5.6V38c1.7,0.8,2.6,1.6,2.6,2.4c0,0.4-0.1,0.7-0.4,0.8c-0.2,0.1-0.4,0.2-0.6,0.2
	c-0.4,0-0.7-0.4-0.8-1.2c-0.2-0.7-0.5-1.3-0.9-1.7v6.9c0,2.2,0,3.7,0.1,4.7c0,0.3-0.4,0.5-1.3,0.5c-0.5,0-0.7-0.1-0.7-0.4
	c0-0.8,0.1-2.4,0.1-4.9v-4.5c-0.9,2-1.8,3.5-2.9,4.6c-0.1,0-0.2-0.1-0.3-0.2C2,42.7,3,40,3.4,36.8C1.9,36.9,1,37,1,37z M13.5,32.4
	c0,0.1-0.1,0.2-0.3,0.3c-0.4,0.2-0.7,0.3-0.7,0.4V40c0,5.6-1.8,9.1-5.5,10.5c-0.1-0.1-0.1-0.2-0.2-0.3c1.4-1.2,2.4-2.6,2.9-4.1
	c0.4-0.9,0.7-2.3,0.9-4.3c-0.5,0.6-1.1,1.2-1.7,1.8c0,0.1-0.1,0.4-0.1,0.9c0,0.1-0.1,0.2-0.2,0.2c-0.2,0-0.8-0.8-1.6-2.3
	c0.5,0,1.7-0.5,3.7-1.5c0-0.7,0.1-1.5,0.1-2.4v-4.8c0-0.9-0.1-1.6-0.2-2.2C12.5,31.8,13.5,32.1,13.5,32.4z M10.3,38
	c0,0.7-0.3,1-0.8,1s-0.7-0.3-0.7-0.8c0-0.3-0.1-0.7-0.1-1.2c-0.1-0.5-0.2-1-0.4-1.6c-0.2-0.5-0.3-0.8-0.4-1c0.1-0.1,0.2-0.2,0.3-0.2
	C9.6,35.5,10.3,36.8,10.3,38z M16.7,32.4c0,0.1-0.1,0.2-0.3,0.3c-0.4,0.1-0.6,0.3-0.7,0.4V38c0.8-1.1,1.4-2.4,1.7-3.7
	c0.3,0.2,0.9,0.5,1.7,1c0.4,0.3,0.6,0.5,0.6,0.6s-0.1,0.2-0.3,0.2c-0.4,0-0.7,0.1-0.8,0.1c-0.4,0.5-0.8,1-1.3,1.4s-1,0.8-1.5,1v1.9
	c0.9,0.2,1.7,0.5,2.3,0.8c0.9,0.5,1.4,1,1.4,1.5s-0.1,0.8-0.2,0.9c-0.1,0.3-0.4,0.4-0.7,0.4c-0.2,0-0.5-0.4-0.9-1.1
	c-0.6-0.9-1.2-1.6-1.8-2v6.6c0,0.5,0.2,0.7,0.6,0.7h0.6c0.6,0,1-0.4,1.2-1.3c0.3-1,0.5-1.6,0.5-1.9c0.1,0,0.2,0,0.3,0
	c0,0,0,0.8,0,2.3c0,0.3,0.1,0.5,0.3,0.6c0.3,0.2,0.5,0.4,0.5,0.6c0,0.5-0.4,0.8-1.1,1c-0.4,0.1-0.9,0.2-1.6,0.2
	c-0.8,0-1.2,0-1.4-0.1c-1.2-0.1-1.8-0.8-1.8-2V33.2c0-0.6,0-1.2-0.1-1.8C15.7,32,16.7,32.2,16.7,32.4z"/>
<path class="st0" d="M39.4,32c0.6,0.4,0.9,0.7,0.9,0.9c0,0.1-0.1,0.3-0.3,0.4c-0.3,0.3-0.5,0.4-0.5,0.5v9.7c0,3.3,0.1,5.5,0.1,6.7
	c0,0.4-0.5,0.7-1.4,0.7c-0.4,0-0.5-0.2-0.5-0.5v-1.2h-13v0.9c-0.1,0.4-0.5,0.6-1.2,0.6c-0.4,0-0.7-0.1-0.8-0.2c0-2.9,0-5.8,0.1-8.6
	v-5.6c0-2.4-0.1-3.8-0.1-4.3l2,0.8h12.6c0.6-0.8,1-1.2,1.2-1.2C38.6,31.5,38.9,31.6,39.4,32z M37.6,48.5V33.2H24.7v15.3H37.6z
	 M35.7,34.8c0.4,0.4,0.7,0.7,0.7,0.8c0,0.2-0.1,0.3-0.2,0.3h-4.4v1.6h2.8c0.6-0.8,1-1.2,1.2-1.3c0.1,0,0.4,0.2,0.8,0.7
	c0.4,0.4,0.7,0.7,0.7,0.9s-0.1,0.3-0.2,0.3h-8.7c-2,0-3.1,0.1-3.1,0.2c-0.1-0.3-0.3-0.6-0.4-1.1c0.3,0.1,1.4,0.2,3.2,0.3h2V36h-0.6
	c-2,0-3,0.1-3,0.2c-0.1-0.3-0.3-0.6-0.4-1.1c0.3,0.1,1.4,0.2,3.3,0.3h0.8c0-0.7-0.1-1.3-0.1-1.8c1.8,0.3,2.8,0.5,2.8,0.7
	s-0.1,0.3-0.3,0.3C32.2,34.8,32,34.9,32,35v0.4h2c0.6-0.8,1-1.1,1.2-1.1C35.1,34.2,35.3,34.4,35.7,34.8z M25.3,47.2
	c-0.1-0.1-0.2-0.2-0.2-0.3c2.2-1.3,3.7-2.6,4.6-3.9c0-0.1,0.1-0.1,0.1-0.2h-1.4c-0.1,0.4-0.5,0.6-1.1,0.6c-0.4,0-0.6-0.1-0.7-0.2
	c0-0.7,0-1.4,0.1-2v-1.3c0-0.6-0.1-0.9-0.1-1l1.6,0.6h5.1c0.5-0.6,0.9-1,1-1c0.2,0,0.5,0.2,1,0.6c0.5,0.4,0.7,0.6,0.7,0.8
	c0,0.1-0.1,0.3-0.3,0.4c-0.3,0.2-0.4,0.4-0.4,0.4v1.1c0.1,0.4,0.1,0.7,0.1,0.8c0.3,0.2,0.7,0.4,1.2,0.7c0.3,0.2,0.5,0.4,0.5,0.5
	s-0.1,0.1-0.3,0.1c-0.3,0-0.5,0.1-0.7,0.1c-0.3,0.2-0.6,0.4-1,0.6c-0.2,0.1-0.3,0.2-0.5,0.2c1.1,0.5,1.7,1.1,1.7,1.8
	c0,0.3-0.1,0.5-0.2,0.6c-0.1,0.3-0.3,0.4-0.7,0.4c-0.3,0-0.7-0.5-1.3-1.4c-0.6-0.7-1.4-1.3-2.4-1.9v2.4c0,0.3,0,0.6,0,0.8
	c0,0.4-0.4,0.5-1.1,0.5c-0.5,0-0.8-0.1-0.8-0.3v-3.1C28.8,45.6,27.2,46.5,25.3,47.2z M33.6,42.2v-2.3h-5.2v2.3H33.6z M35,43
	c-0.2,0.1-0.4,0.1-0.6,0.1c-0.5,0-0.8-0.1-0.8-0.3H32v1c0.8,0.2,1.6,0.4,2.1,0.6C34.5,44,34.8,43.5,35,43z"/>
<path class="st0" d="M60.4,37.2c0,0.2-0.5,0.3-1.4,0.3c-1.3,1.6-2.9,2.8-4.6,3.9c0.6,1.3,1.4,2.5,2.4,3.4c1.3,1.4,2.9,2.5,4.9,3.3
	c0,0.1,0,0.3-0.1,0.4c-0.3,0-0.6,0.1-0.9,0.3c-0.2,0.1-0.4,0.3-0.5,0.6C60,49.8,59.8,50,59.6,50c-0.4-0.1-1.1-0.7-2.1-1.6
	C55,46.1,53.5,43,53,39c-0.9,6.1-4.2,9.9-9.9,11.4c-0.1,0-0.1-0.1-0.2-0.2c5.4-2.9,8.2-8,8.3-15.4c-0.1-1.6-0.2-2.8-0.3-3.5
	c2,0.3,3,0.5,3,0.8c0,0.2-0.2,0.3-0.6,0.4c0,1,0,2-0.1,2.9c0,0.5,0,1,0,1.4c0.1,1.5,0.5,2.8,0.9,4c1.4-1.5,2.6-3.3,3.3-5.4
	C59.5,36.4,60.4,36.9,60.4,37.2z M47.9,35.8c0,0.5,0.1,1.2,0.1,2.2c0,3.1-0.9,4.7-2.7,4.8c-0.8,0-1.3-0.3-1.3-0.8s0.3-0.9,0.8-1.4
	c0.5-0.3,1-0.9,1.7-1.9c0.4-0.7,0.8-1.6,1-2.8C47.8,35.7,47.9,35.8,47.9,35.8z"/>
<path class="st0" d="M80.7,32.9c0.9,0.8,1.3,1.2,1.3,1.4s-0.1,0.3-0.2,0.3h-7.9v2.1h3.5c0.5-0.6,0.9-0.9,1.1-0.9s0.6,0.2,1.1,0.6
	s0.8,0.7,0.8,0.8s-0.1,0.3-0.3,0.4c-0.3,0.3-0.5,0.4-0.5,0.5v3.2c0.1,1.3,0.1,2.1,0.1,2.4c0,0.5-0.4,0.7-1.1,0.7
	c-0.5,0-0.8-0.1-0.9-0.4v-0.5h-3.8v1.6c0,0.3,0,0.7,0,0.9h5.2c0.7-0.9,1.2-1.4,1.5-1.6c0,0,0.1,0,0.2,0c0.2,0.1,0.4,0.2,0.6,0.4
	c0.9,0.8,1.4,1.3,1.4,1.6c0,0.2-0.1,0.3-0.2,0.3h-8.7c0,1.6,0,2.7,0.1,3.5c0,0.4-0.5,0.5-1.4,0.5c-0.5,0-0.7-0.1-0.7-0.4
	c0-0.7,0-1.8,0.1-3.6h-3.3c-2.5,0-4.1,0.1-4.7,0.2c-0.1-0.4-0.3-0.7-0.5-1.1c1,0.1,2.8,0.2,5.4,0.2H72v-2.5h-3.6V44
	c-0.1,0.4-0.5,0.6-1.2,0.6c-0.4,0-0.7-0.1-0.8-0.2c0-1.3,0-2.6,0.1-3.9v-2.6c0-1.1-0.1-1.7-0.1-2l1.8,0.7H72v-2.1h-3
	c-2.4,0-3.8,0.1-4.4,0.2c-0.1-0.4-0.3-0.7-0.5-1.1c1,0.1,2.6,0.2,5,0.2H72v-0.6c0-0.7-0.1-1.3-0.2-2c0.7,0.1,1.5,0.2,2.3,0.3
	c0.6,0.1,0.9,0.3,0.9,0.4s-0.1,0.2-0.4,0.3c-0.4,0.1-0.6,0.3-0.6,0.3v1.2h4.7c0.6-0.8,1.1-1.3,1.4-1.4c0,0,0.1,0,0.2,0
	C80.3,32.6,80.5,32.8,80.7,32.9z M72,39.7v-2.4h-3.6v2.4H72z M72,43v-2.8h-3.6V43H72z M77.7,39.7v-2.4h-3.8v2.4H77.7z M77.7,43v-2.8
	h-3.8V43H77.7z"/>
<path class="st0" d="M92.6,34.7c0.8,0.7,1.3,1.2,1.4,1.4c0,0.2-0.1,0.3-0.2,0.3h-7c-0.9,0-1.6,0.1-2,0.2c-0.1-0.3-0.2-0.5-0.3-0.9
	c0.5,0.1,1.2,0.1,2.3,0.1H91c0.3-0.4,0.7-0.8,1-1.2c0.1-0.1,0.2-0.2,0.3-0.2C92.3,34.5,92.4,34.6,92.6,34.7z M93.3,38.4
	c0,0.2-0.4,0.4-1.1,0.6c-0.5,2.6-1.3,4.8-2.3,6.7c1.2-0.2,2.3-0.4,3.2-0.7c0,0,0.1,0.1,0.1,0.2c-1.7,1.2-4,2.2-7.1,3.1
	c0,0.4-0.1,0.7-0.2,0.7s-0.3-0.2-0.5-0.6c-0.2-0.4-0.5-1.1-0.9-2c1.8-0.1,3.3-0.3,4.7-0.5c0.7-2.9,1.1-5.8,1.3-8.7
	C92.4,37.8,93.3,38.2,93.3,38.4z M88.7,43.3c0,1-0.4,1.5-1.1,1.6c-0.5,0-0.9-0.3-0.9-0.9c0-0.3,0-0.8,0-1.5c0-0.5,0-1.3,0-2.3
	c-0.1-1.3-0.3-2.2-0.6-2.7c0.1,0,0.2-0.1,0.3-0.1C87.8,39.4,88.6,41.4,88.7,43.3z M90.1,34.1c0,0.5-0.1,0.8-0.4,1
	c-0.2,0.2-0.4,0.2-0.7,0.2c-0.4,0-0.6-0.4-0.7-1.3c-0.2-1-0.5-1.7-1-2.3c0.1,0,0.1-0.1,0.3-0.2C89.2,32.4,90.1,33.3,90.1,34.1z
	 M99.6,32.2c0,0.2-0.1,0.3-0.4,0.3c-0.4,0.2-0.6,0.3-0.6,0.4v3.3h2c0.6-0.8,1-1.3,1.2-1.5h0.1c0.2,0.1,0.5,0.3,0.9,0.7
	c0.6,0.5,0.9,0.9,0.9,1.1s0,0.3-0.1,0.4h-5.1v4.9h1.5c0.5-0.7,0.9-1,1.1-1.1c0.2,0,0.6,0.2,1.1,0.6s0.8,0.7,0.8,0.8
	s-0.1,0.3-0.3,0.4c-0.3,0.2-0.5,0.4-0.5,0.5v3.9c0.1,1.5,0.1,2.5,0.1,2.9c0,0.5-0.4,0.7-1.1,0.7c-0.5,0-0.8-0.1-0.9-0.4v-1.5h-5V50
	c-0.1,0.4-0.5,0.6-1.2,0.6c-0.4,0-0.7-0.1-0.8-0.2c0-1.5,0-2.9,0.1-4.3v-2.9c0-1.2-0.1-2-0.1-2.2l1.8,0.7h1.5v-8.1
	c0-0.9,0-1.7-0.1-2.2C98.6,31.7,99.6,32,99.6,32.2z M100.4,42.3h-5v5.8h5V42.3z"/>
<path class="st0" d="M114.6,44.6l-0.4-0.4c0.8-0.7,1.2-1.3,1.2-2c0-0.1-0.1-0.2-0.3-0.2c-1-0.2-1.5-0.7-1.5-1.5c0-0.4,0.1-0.7,0.4-1
	s0.7-0.5,1.2-0.5s0.9,0.2,1.2,0.6c0.2,0.3,0.4,0.7,0.4,1.1C116.7,42.4,116,43.6,114.6,44.6z"/>
<path class="st0" d="M131.7,33c0.6,0.1,0.9,0.3,0.9,0.4c0,0.1-0.1,0.3-0.4,0.3c-0.4,0.1-0.6,0.3-0.6,0.3v3.6h3.1V33
	c-0.1-0.5-0.1-0.9-0.1-1.2c1.7,0.2,2.6,0.4,2.9,0.7c0,0.2-0.1,0.3-0.4,0.4c-0.4,0.2-0.6,0.3-0.6,0.4v4.3h3.3v-4.4
	c-0.1-0.5-0.1-0.9-0.1-1.3c1.8,0.2,2.8,0.5,3,0.8c0,0.2-0.1,0.3-0.4,0.4c-0.4,0.2-0.6,0.3-0.6,0.4v4.1h0.8c0.7-0.9,1.2-1.4,1.3-1.5
	c0.1,0,0.1,0,0.1,0c0.2,0,0.6,0.4,1.2,1.1c0.3,0.3,0.5,0.6,0.5,0.8s-0.1,0.3-0.3,0.3h-3.7v6.5c0,0.4-0.4,0.6-1.2,0.6
	c-0.5,0-0.7-0.1-0.7-0.4c0-0.4,0-0.8,0-1.2h-3.2v1.1c0,0.4-0.4,0.6-1.2,0.6c-0.5,0-0.7-0.1-0.7-0.4c0-2.1,0.1-4.4,0.1-6.9h-3.1v6.6
	c0,1.4,0,2.5,0.1,3.4h10.2c0.6-0.9,1-1.4,1.3-1.6h0.1c0.2,0.1,0.5,0.3,1,0.7c0.6,0.6,1,1,1,1.2s-0.1,0.3-0.1,0.3h-13.5
	c0,0.4,0,0.8,0,1.1c0,0.4-0.5,0.5-1.4,0.5c-0.5,0-0.7-0.1-0.7-0.4c0-0.8,0.1-2.6,0.1-5.2v-6.6c-0.9,0-1.8,0.1-2.7,0.1
	c-0.2-0.3-0.4-0.7-0.5-1c1,0.2,2.1,0.3,3.2,0.3v-3c0-0.7-0.1-1.4-0.2-2C130.1,32.8,130.9,32.9,131.7,33z M139.7,43.3
	c0-1.6,0-3.3,0.1-5h-3.3v5H139.7z"/>
<path class="st0" d="M163.8,32.2c0.6,0.4,0.9,0.7,0.9,0.9c0,0.1-0.1,0.3-0.3,0.4c-0.3,0.3-0.5,0.4-0.5,0.5v3.6
	c0,1.2,0.1,2.1,0.1,2.5c0,0.5-0.5,0.7-1.4,0.7c-0.4,0-0.6-0.1-0.6-0.5v-0.5h-2.6c1,1.2,2.1,2.1,3.3,2.5c1.2,0.6,2.6,0.9,4.2,1
	c0,0.1,0,0.3,0,0.4c-0.1,0-0.3,0.1-0.5,0.4c-0.1,0.1-0.2,0.4-0.4,0.8c-0.1,0.3-0.2,0.4-0.4,0.4c-0.7,0-1.8-0.5-3.4-1.6
	c-0.1-0.1-0.2-0.1-0.3-0.2c0,0.2-0.1,0.3-0.4,0.4c-0.4,0.2-0.5,0.3-0.5,0.4v6c0,0.3-0.4,0.5-1.2,0.6c-0.5,0-0.7-0.1-0.7-0.4
	c0-1.9,0.1-4.1,0.1-6.6c-0.1-0.5-0.1-0.9-0.1-1.2c1.3,0.2,2.1,0.3,2.6,0.5c-1.1-0.9-2-2-2.6-3.4h-2.4c-0.2,0.3-0.4,0.6-0.7,0.9
	c-0.5,0.7-1.1,1.3-1.9,1.9c1.6,0.3,2.4,0.5,2.4,0.7s-0.3,0.3-1,0.4c0,1.1-0.1,2-0.4,2.5c-0.7,1.9-2.8,3.4-6.2,4.4
	c0-0.1-0.1-0.1-0.2-0.2c3.2-1.5,4.8-3.5,4.9-5.8c0-0.7,0-1.2,0-1.6c-1.4,0.9-3.2,1.7-5.4,2.3c-0.1,0-0.2-0.1-0.2-0.3
	c3.1-1.4,5.2-2.9,6.2-4.5c0.2-0.3,0.3-0.5,0.4-0.6h-2.2v0.4c-0.1,0.4-0.5,0.6-1.2,0.6c-0.4,0-0.7-0.1-0.8-0.2c0-1.3,0-2.6,0.1-3.9
	V34c0-1.1-0.1-1.7-0.2-2l1.6,0.6h9.9c0.6-0.7,1-1,1.2-1C163,31.7,163.4,31.9,163.8,32.2z M156.1,35.8v-2.6h-3.9v2.6H156.1z
	 M156.1,39.1v-2.7h-3.9v2.7H156.1z M162.1,35.8v-2.6H158v2.6H162.1z M162.1,39.1v-2.7H158v2.7H162.1z"/>
<path class="st0" d="M176.6,34.7c0.8,0.7,1.3,1.2,1.4,1.4c0,0.2-0.1,0.3-0.2,0.3h-7c-0.9,0-1.6,0.1-2,0.2c-0.1-0.3-0.2-0.5-0.3-0.9
	c0.5,0.1,1.2,0.1,2.3,0.1h4.2c0.3-0.4,0.7-0.8,1-1.2c0.1-0.1,0.2-0.2,0.3-0.2C176.3,34.5,176.4,34.6,176.6,34.7z M177.3,38.4
	c0,0.2-0.4,0.4-1.1,0.6c-0.5,2.6-1.3,4.8-2.3,6.7c1.2-0.2,2.3-0.4,3.2-0.7c0,0,0.1,0.1,0.1,0.2c-1.7,1.2-4,2.2-7.1,3.1
	c0,0.4-0.1,0.7-0.2,0.7c-0.1,0-0.3-0.2-0.5-0.6c-0.2-0.4-0.5-1.1-0.9-2c1.8-0.1,3.3-0.3,4.7-0.5c0.7-2.9,1.1-5.8,1.3-8.7
	C176.4,37.8,177.3,38.2,177.3,38.4z M172.7,43.3c0,1-0.4,1.5-1.1,1.6c-0.5,0-0.9-0.3-0.9-0.9c0-0.3,0-0.8,0-1.5c0-0.5,0-1.3,0-2.3
	c-0.1-1.3-0.3-2.2-0.6-2.7c0.1,0,0.2-0.1,0.3-0.1C171.8,39.4,172.6,41.4,172.7,43.3z M174.1,34.1c0,0.5-0.1,0.8-0.4,1
	c-0.2,0.2-0.4,0.2-0.7,0.2c-0.4,0-0.6-0.4-0.7-1.3c-0.2-1-0.5-1.7-1-2.3c0.1,0,0.1-0.1,0.3-0.2C173.2,32.4,174.1,33.3,174.1,34.1z
	 M183.6,32.2c0,0.2-0.1,0.3-0.4,0.3c-0.4,0.2-0.6,0.3-0.6,0.4v3.3h2c0.6-0.8,1-1.3,1.2-1.5h0.1c0.2,0.1,0.5,0.3,0.9,0.7
	c0.6,0.5,0.9,0.9,0.9,1.1s0,0.3-0.1,0.4h-5.1v4.9h1.5c0.5-0.7,0.9-1,1.1-1.1c0.2,0,0.6,0.2,1.1,0.6s0.8,0.7,0.8,0.8
	s-0.1,0.3-0.3,0.4c-0.3,0.2-0.5,0.4-0.5,0.5v3.9c0.1,1.5,0.1,2.5,0.1,2.9c0,0.5-0.4,0.7-1.1,0.7c-0.5,0-0.8-0.1-0.9-0.4v-1.5h-5V50
	c-0.1,0.4-0.5,0.6-1.2,0.6c-0.4,0-0.7-0.1-0.8-0.2c0-1.5,0-2.9,0.1-4.3v-2.9c0-1.2-0.1-2-0.1-2.2l1.8,0.7h1.5v-8.1
	c0-0.9,0-1.7-0.1-2.2C182.6,31.7,183.6,32,183.6,32.2z M184.4,42.3h-5v5.8h5V42.3z"/>
<path class="st0" d="M197.3,33.8c0,0.3,0,0.5-0.1,0.7s-0.1,0.3-0.2,0.3h3.6c1-1.3,1.5-2.6,1.6-3.6c1.9,0.6,2.8,1,2.8,1.3
	c0,0.2-0.4,0.3-1.3,0.4c-0.5,0.7-1.4,1.4-2.5,2h4.1c0.6-0.8,1.1-1.3,1.4-1.4c0,0,0.1,0,0.2,0c0.2,0.1,0.3,0.2,0.5,0.3
	c0.9,0.8,1.3,1.2,1.3,1.4s-0.1,0.3-0.2,0.3h-13.8c-2.5,0-4.1,0.1-4.7,0.2c-0.1-0.4-0.3-0.7-0.5-1.1c1,0.1,2.9,0.2,5.4,0.2h1
	c-0.2-0.2-0.4-0.6-0.7-1c-0.4-0.8-0.9-1.6-1.5-2.1c0,0,0.1-0.1,0.1-0.3C196.1,31.7,197.2,32.5,197.3,33.8z M193.3,37.6h3.5
	c0.6-0.7,1-1,1.2-1c0.2,0.1,0.5,0.2,0.9,0.5c0.5,0.4,0.8,0.7,0.9,0.9c0,0.2-0.1,0.3-0.3,0.4s-0.4,0.2-0.5,0.4v9.3
	c0,1.3-0.7,2.1-2,2.4c-0.3-0.1-0.4-0.2-0.4-0.4c-0.1-0.5-0.3-0.8-0.5-1c-0.3-0.3-0.7-0.5-1.2-0.7c0-0.1,0-0.2,0-0.3
	c0.7,0.1,1.2,0.2,1.6,0.2c0.5,0,0.7-0.1,0.7-0.4v-3h-3.7v5.2c-0.1,0.4-0.5,0.6-1.2,0.6c-0.4,0-0.7-0.1-0.8-0.2c0-2.1,0-4.2,0.1-6.3
	v-4.1c0-1.8-0.1-2.8-0.1-3.1L193.3,37.6z M197.1,40.9v-2.7h-3.7v2.7H197.1z M197.1,44.3v-2.8h-3.7v2.8H197.1z M203.7,37.9
	c0,0.2-0.1,0.3-0.4,0.4c-0.4,0.2-0.5,0.3-0.5,0.4v7.4c0,0.4-0.4,0.6-1.2,0.6c-0.5,0-0.7-0.1-0.7-0.3c0-2.3,0.1-5,0.1-8
	c-0.1-0.5-0.1-0.9-0.1-1.2C202.6,37.3,203.5,37.6,203.7,37.9z M207.8,37.1c0,0.1-0.1,0.2-0.2,0.2c-0.2,0.1-0.4,0.1-0.6,0.2
	c-0.2,0.1-0.3,0.2-0.3,0.3v9.9c0,1.8-0.8,2.6-2.4,2.6c-0.3,0-0.4-0.1-0.4-0.4c-0.1-0.4-0.3-0.7-0.8-1c-0.3-0.3-0.8-0.4-1.4-0.5
	c0-0.1,0-0.2,0-0.3c0.5,0,1.4,0,2.8,0c0.2,0,0.4-0.2,0.4-0.6v-9.4c0-0.8-0.1-1.5-0.2-1.9C206.6,36.5,207.7,36.8,207.8,37.1z"/>
<path class="st0" d="M213.5,48.1c-1.8-1.7-2.7-4.6-2.7-7c0-2.3,0.8-4.7,2.5-6.6c1.3-1.3,3.5-2.5,6.2-2.5c2.3,0,4.1,0.8,5,1.4
	c0.3,0.2,0.4,0.2,0.5,0l0.2-0.7c0.1-0.1,0.1-0.1,0.3-0.1s0.3,0.1,0.3,0.4c0,0.5,0.5,4.1,0.6,4.8c0,0.1,0,0.2-0.1,0.2l-0.4,0.1
	c-0.1,0-0.2,0-0.2-0.2c-0.4-0.8-0.9-2-1.9-3.1s-2.4-1.9-4.3-1.9c-4.5,0-6.3,4-6.2,7.6c0,1.4,0.4,4.3,2.4,6.4
	c1.7,1.9,3.1,2.1,4.8,2.1c2.8,0,5-1.5,6.2-3.2c0.1-0.1,0.1-0.2,0.2-0.1l0.3,0.2c0.1,0,0.1,0.1,0.1,0.2c-1.5,2.2-3.9,4.2-7.4,4.2
	C216.9,50.4,215,49.5,213.5,48.1z"/>
<path class="st0" d="M231.7,39.1c0-0.9-0.1-4-0.1-4.4c-0.1-1.5-0.5-1.5-1.6-1.5h-0.8c-0.1,0-0.2,0-0.2-0.2v-0.6c0-0.1,0-0.2,0.2-0.2
	c0.4,0,1.5,0.1,3.3,0.1c0.8,0,2.3-0.1,3.2-0.1c1.9,0,3.5,0.2,4.4,0.7c1.4,0.8,1.9,1.9,1.9,3.4c0,2.5-1.1,3.1-3,4.1l0.1,0.1
	c2.4,0.8,4,2.3,4,4.9c0,1.3-0.8,3-1.9,3.7c-1,0.6-2.5,0.9-4.8,0.9c-1.7,0-2.7-0.1-3.7-0.1c-1.2,0-2.7,0.1-3.2,0.1
	c-0.3,0-0.4-0.1-0.4-0.2v-0.6c0-0.1,0.1-0.2,0.2-0.2h1.2c0.8,0,0.9-0.3,1-1.1c0.1-0.6,0.1-3.9,0.1-5.9L231.7,39.1L231.7,39.1z
	 M233.9,40.1c0.5,0,0.9,0,1.3,0c1.4,0,2.5-0.2,3.1-0.6c1-0.8,1.4-1.9,1.4-3c0-0.9-0.3-1.9-1.2-2.6c-0.9-0.6-2.1-0.8-3.4-0.8
	c-0.3,0-0.6,0-0.8,0c-0.2,0.1-0.4,0.2-0.4,0.4c0,0.5,0,2.7,0,4.7L233.9,40.1L233.9,40.1z M233.9,42.5v3.4c0,2.3,0.5,3.3,2.6,3.3
	s4-1,4-4c0-2-1-3.3-2.5-3.9c-1-0.4-2.2-0.4-3.3-0.4h-0.8V42.5z"/>
<path class="st0" d="M248.4,38.5c0-0.6-0.1-4.2-0.1-4.6c-0.1-0.6-0.4-0.7-1.1-0.7h-1.4c-0.1,0-0.2,0-0.2-0.2v-0.7
	c0-0.1,0.1-0.1,0.2-0.1c0.3,0,1.4,0.1,3.7,0.1c0.6,0,3.1-0.1,3.7-0.1c3.2,0,5.9,0.4,8.1,2.2c1.6,1.4,2.8,3.5,2.8,6.4
	s-0.8,4.8-2.5,6.6c-2.4,2.6-5.8,2.6-7.8,2.6c-1.6,0-3.5-0.1-4.6-0.1c-2.2,0-3.2,0.1-3.5,0.1c-0.1,0-0.2-0.1-0.2-0.2v-0.7
	c0-0.1,0.1-0.1,0.2-0.1h1.7c0.5,0,0.7-0.2,0.8-0.6c0.1-0.5,0.2-6.1,0.2-8.1L248.4,38.5L248.4,38.5z M250.7,41c0,0.3,0,4.6,0.1,6.1
	c0,0.5,0.1,0.9,0.4,1.4c0.4,0.5,1.4,0.8,2.6,0.8c2.5,0,4.6-1.1,5.9-2.7c1-1.3,1.8-3.3,1.8-5.6c0-1.9-0.8-4.2-2-5.5
	c-1.3-1.4-3.5-2.4-6.3-2.4c-0.5,0-1.6,0-2,0.2s-0.4,0.6-0.5,1.2c0,1,0,4.3,0,4.7V41z"/>
<path class="st0" d="M7.5,69.6c0,0.2-0.1,0.3-0.4,0.4c-0.4,0.2-0.5,0.3-0.5,0.4v1.2h1c0.3-0.4,0.6-0.8,0.9-1.2
	c0.1-0.1,0.2-0.2,0.3-0.2s0.2,0.1,0.4,0.2c0.8,0.7,1.2,1.2,1.3,1.4c0,0.2-0.1,0.3-0.2,0.3H6.6v1.2c1.9,0.3,2.9,0.9,3,1.8
	c0,0.3,0,0.4-0.1,0.6c-0.1,0.3-0.4,0.5-0.7,0.5s-0.6-0.3-1.1-1c-0.3-0.5-0.7-0.9-1.2-1.3v5.2c0,0.3-0.4,0.5-1.2,0.6
	c-0.5,0-0.7-0.1-0.7-0.4c0-1.5,0-3.1,0-4.9c-0.9,1.5-2.3,2.7-4.1,3.7c-0.1,0-0.1-0.1-0.2-0.3c1.7-1.6,2.8-3.3,3.4-5.1
	c0.1-0.3,0.2-0.5,0.2-0.7H3.3c-0.9,0-1.5,0.1-2,0.2c-0.1-0.3-0.2-0.5-0.3-0.8c0.4,0.1,1.2,0.1,2.3,0.1h1.5V70
	c-0.1-0.5-0.1-0.9-0.1-1.2C6.4,69.1,7.3,69.4,7.5,69.6z M9.7,66.9c0.7,0.7,1.2,1.1,1.2,1.3s-0.1,0.3-0.1,0.3H2.9
	c-0.9,0-1.6,0.1-2,0.2c-0.1-0.2-0.2-0.5-0.3-0.8C1,68,1.8,68,2.9,68h3.3c0.5-1.3,0.7-2.6,0.8-3.9c1.7,0.6,2.5,1,2.5,1.2
	s-0.4,0.3-1.1,0.3C8,66.4,7.5,67.2,6.7,68h1.4c0.3-0.4,0.6-0.8,0.9-1.1c0.1-0.1,0.2-0.1,0.2-0.1C9.4,66.7,9.5,66.8,9.7,66.9z
	 M9.1,62.3c0.8,0.7,1.2,1.1,1.3,1.3c0,0.2-0.1,0.3-0.2,0.3H3.1c-0.9,0-1.5,0.1-2,0.2c-0.1-0.3-0.2-0.5-0.3-0.9
	c0.4,0.1,1.2,0.1,2.3,0.1h2.4c-0.2-0.1-0.4-0.4-0.7-0.9c-0.4-0.7-0.8-1.2-1.3-1.6c0.1,0,0.1-0.1,0.1-0.2c1.9,0.2,2.8,0.7,2.9,1.6
	c0,0.3,0,0.5-0.1,0.7c-0.1,0.3-0.3,0.4-0.4,0.5h1.6c0.3-0.4,0.6-0.8,0.9-1.1c0.1-0.1,0.2-0.1,0.2-0.1C8.8,62.1,9,62.2,9.1,62.3z
	 M5.1,66.6c0,0.6-0.3,0.9-1,0.9c-0.4,0-0.6-0.2-0.7-0.7c0-0.1-0.1-0.4-0.1-0.8c0-0.3-0.1-0.5-0.2-0.8c-0.2-0.5-0.4-0.8-0.7-1
	c0.1,0,0.1-0.1,0.1-0.1C4.3,64.6,5.1,65.4,5.1,66.6z M13.2,68.1v0.4c0,2.4-0.1,4.1-0.4,5.3c-0.1,0.9-0.5,1.9-1.1,3
	c-0.8,1.4-1.6,2.3-2.4,2.8c-0.1,0-0.2-0.1-0.3-0.2c0.7-1.1,1.3-2.5,1.7-4.1c0.4-1.3,0.6-3.5,0.6-6.7c0-2.6,0-4.2,0-4.9
	c0-0.5,0-1.1-0.1-1.8l1.9,0.8c1.8-0.5,3.1-1.2,4.1-2.1c1.6,1.1,2.3,1.7,2.3,1.9s-0.1,0.3-0.4,0.3c-0.6-0.1-1.1-0.1-1.4-0.2
	c-1,0.4-2.5,0.6-4.5,0.7v4.2h3.3c0.5-0.8,0.9-1.2,1.1-1.3h0.1c0.2,0,0.4,0.3,0.8,0.6c0.5,0.5,0.8,0.8,0.9,1c0,0.2-0.1,0.3-0.1,0.4
	H17v7.9c0,0.9,0.1,2,0.1,3.2c0,0.3-0.4,0.4-1.2,0.5c-0.6,0-1-0.1-1-0.3c0-0.7,0.1-1.8,0.1-3.5v-7.8L13.2,68.1L13.2,68.1z"/>
<path class="st0" d="M29.6,63.9c0.8,0.7,1.3,1.2,1.4,1.4c0,0.2-0.1,0.3-0.2,0.3h-7c-0.9,0-1.6,0.1-2,0.2c-0.1-0.3-0.2-0.5-0.3-0.9
	C22,65,22.7,65,23.8,65H28c0.3-0.4,0.7-0.8,1-1.2c0.1-0.1,0.2-0.2,0.3-0.2C29.3,63.7,29.4,63.8,29.6,63.9z M30.3,67.6
	c0,0.2-0.4,0.4-1.1,0.6c-0.5,2.6-1.3,4.8-2.3,6.7c1.2-0.2,2.3-0.4,3.2-0.7c0,0,0.1,0.1,0.1,0.2c-1.7,1.2-4,2.2-7.1,3.1
	c0,0.4-0.1,0.7-0.2,0.7s-0.3-0.2-0.5-0.6s-0.5-1.1-0.9-2c1.8-0.1,3.3-0.3,4.7-0.5c0.7-2.9,1.1-5.8,1.3-8.7
	C29.4,67,30.3,67.4,30.3,67.6z M25.7,72.5c0,1-0.4,1.5-1.1,1.6c-0.5,0-0.9-0.3-0.9-0.9c0-0.3,0-0.8,0-1.5c0-0.5,0-1.3,0-2.3
	c-0.1-1.3-0.3-2.2-0.6-2.7c0.1,0,0.2-0.1,0.3-0.1C24.8,68.6,25.6,70.6,25.7,72.5z M27.1,63.3c0,0.5-0.1,0.8-0.4,1
	c-0.2,0.2-0.4,0.2-0.7,0.2c-0.4,0-0.6-0.4-0.7-1.3c-0.2-1-0.5-1.7-1-2.3c0.1,0,0.1-0.1,0.3-0.2C26.2,61.6,27.1,62.5,27.1,63.3z
	 M36.6,61.4c0,0.2-0.1,0.3-0.4,0.3c-0.4,0.2-0.6,0.3-0.6,0.4v3.3h2c0.6-0.8,1-1.3,1.2-1.5h0.1c0.2,0.1,0.5,0.3,0.9,0.7
	c0.6,0.5,0.9,0.9,0.9,1.1s0,0.3-0.1,0.4h-5.1v4.8H37c0.5-0.7,0.9-1,1.1-1.1c0.2,0,0.6,0.2,1.1,0.6s0.8,0.7,0.8,0.8
	c0,0.1-0.1,0.3-0.3,0.4c-0.3,0.2-0.5,0.4-0.5,0.5V76c0.1,1.5,0.1,2.5,0.1,2.9c0,0.5-0.4,0.7-1.1,0.7c-0.5,0-0.8-0.1-0.9-0.4v-1.5h-5
	v1.4c-0.1,0.4-0.5,0.6-1.2,0.6c-0.4,0-0.7-0.1-0.8-0.2c0-1.5,0-2.9,0.1-4.3v-2.9c0-1.2-0.1-2-0.1-2.2l1.8,0.7h1.5v-8.1
	c0-0.9,0-1.7-0.1-2.2C35.6,60.9,36.6,61.2,36.6,61.4z M37.4,71.5h-5v5.8h5V71.5z"/>
<path class="st0" d="M48,60.8c0.5,0.1,0.8,0.2,0.8,0.4c0,0.1-0.1,0.2-0.4,0.3c-0.4,0.1-0.6,0.2-0.6,0.3v4h0.6c0.5-0.9,0.9-1.4,1-1.5
	c0.1,0,0.4,0.3,0.9,0.9c0.4,0.5,0.6,0.8,0.6,0.9c0,0.2-0.1,0.3-0.2,0.3h-3v4c1-0.3,2-0.7,3-1.1c0,0.1,0.1,0.2,0.1,0.3
	c-0.9,0.8-2,1.4-3.1,2v3.1c0,2.2,0.1,3.7,0.1,4.7c0,0.3-0.4,0.5-1.3,0.5c-0.4,0-0.7-0.1-0.7-0.4c0-0.8,0-2.4,0.1-4.9v-2.2
	c-0.6,0.3-1.2,0.5-1.7,0.8C44.1,73.3,44,73.6,44,74c0,0.2-0.1,0.3-0.2,0.3c-0.2,0-0.5-0.5-0.9-1.4c-0.2-0.5-0.3-0.9-0.5-1.2
	c1.2-0.2,2.4-0.4,3.6-0.8v-4.6h-1.7c-0.4,1.2-0.9,2.4-1.5,3.4c-0.1,0-0.2-0.1-0.3-0.2c0.5-2,0.8-4.4,0.9-7.1
	c1.7,0.4,2.5,0.7,2.5,0.9s-0.2,0.3-0.6,0.3c-0.3,0.1-0.4,0.1-0.4,0.1c-0.1,0.7-0.3,1.3-0.5,1.9h1.5v-3.4c0-0.6-0.1-1.2-0.2-1.9
	C46.6,60.6,47.3,60.7,48,60.8z M61.3,71.1c0.3,0.3,0.5,0.5,0.5,0.7s-0.1,0.3-0.3,0.3h-2.9v5.4c0,1.1-0.8,1.9-2.3,2.3
	c-0.2,0-0.3-0.2-0.3-0.4c-0.1-0.4-0.4-0.8-1-1.2c-0.5-0.3-0.9-0.4-1.3-0.5c0-0.1,0.1-0.3,0.1-0.3c0.8,0.1,1.6,0.1,2.5,0.1
	c0.3,0,0.4-0.2,0.4-0.5v-5H52c-0.7,0-1.3,0-1.9,0.1c-0.2-0.3-0.4-0.7-0.5-1c0.6,0.2,1.3,0.3,2.1,0.3h4.9c0-1.2-0.1-2.2-0.1-2.9
	c0.5,0.1,1,0.3,1.6,0.4c0.7,0.1,1.1,0.2,1.3,0.3c0.1,0,0.2,0.1,0.2,0.3c0,0.1-0.2,0.3-0.7,0.4c-0.2,0.1-0.3,0.1-0.3,0.2v1.4h0.2
	c0.7-0.8,1.1-1.3,1.2-1.4c0.1,0,0.1,0,0.1,0C60.3,70.1,60.7,70.4,61.3,71.1z M59,62.4c0.8,0.8,1.3,1.2,1.4,1.5
	c0,0.2-0.1,0.3-0.2,0.3h-4.4v3.4H58c0.4-0.5,0.7-1,1.1-1.4c0.1-0.1,0.2-0.2,0.3-0.2s0.3,0.1,0.5,0.3c0.9,0.8,1.4,1.3,1.6,1.6
	c0,0.2-0.1,0.3-0.2,0.3h-9.2c-0.9,0-1.5,0.1-2,0.2c-0.1-0.3-0.2-0.5-0.3-0.8c0.4,0.1,1.2,0.1,2.3,0.1h2v-3.4h-1.3
	c-0.9,0-1.6,0.1-2,0.2c-0.1-0.2-0.2-0.5-0.3-0.8c0.4,0.1,1.2,0.1,2.3,0.1h1.3v-0.7c0-0.9,0-1.7-0.1-2.2c2,0.3,3,0.5,3,0.8
	c0,0.2-0.1,0.3-0.4,0.3c-0.4,0.2-0.6,0.3-0.6,0.4v1.4h1.4c0.3-0.5,0.7-0.9,1-1.3c0.1-0.1,0.2-0.2,0.3-0.2
	C58.7,62.2,58.8,62.2,59,62.4z M53.2,73.3c0.8,0.5,1.3,1.2,1.3,2c0,0.5-0.1,0.8-0.4,0.9c-0.1,0.1-0.4,0.2-0.7,0.2
	c-0.4,0-0.7-0.4-0.8-1.2c-0.2-0.7-0.4-1.2-0.5-1.5c-0.2-0.3-0.4-0.5-0.6-0.8c0-0.1,0.1-0.1,0.2-0.2C52.3,72.9,52.8,73.1,53.2,73.3z"
	/>
<path class="st0" d="M80.9,60.9c0.9,0.8,1.3,1.2,1.3,1.4s-0.1,0.3-0.2,0.3H68.7c-0.5,0-1,0-1.4,0v13.3c0,0.5,0,1.2,0.1,1.9h12.1
	c0.6-0.8,1-1.3,1.2-1.5h0.1c0.2,0,0.5,0.3,0.9,0.7c0.6,0.5,0.9,0.9,1,1.1c0,0.2-0.1,0.3-0.1,0.4H67.3v0.8c0,0.3-0.4,0.4-1.2,0.5
	c-0.6,0-1-0.1-1-0.3c0-0.7,0.1-1.8,0.1-3.5V62.9c-0.5,0-0.9,0.1-1.1,0.1c-0.1-0.4-0.3-0.7-0.5-1.1c1,0.1,2.8,0.2,5.2,0.2h10
	c0.6-0.8,1.1-1.3,1.4-1.4c0,0,0.1,0,0.2,0S80.7,60.8,80.9,60.9z M70.4,75.9c-0.1,0.4-0.4,0.6-1.1,0.6c-0.4,0-0.6-0.1-0.7-0.2
	c0-1,0-2,0.1-3v-2c0-0.8-0.1-1.3-0.1-1.5l1.3,0.5H72c0.5-0.7,0.8-1,1-1s0.5,0.2,1,0.6s0.7,0.6,0.7,0.8c0,0.1-0.1,0.3-0.3,0.4
	c-0.3,0.2-0.5,0.4-0.5,0.4v2.4c0.1,0.9,0.1,1.5,0.1,1.8c0,0.4-0.3,0.7-1,0.7c-0.5,0-0.8-0.1-0.8-0.3v-0.4h-2v0.2H70.4z M72.4,70.9
	h-2V75h2V70.9z M72.4,68.4c-0.1,0.4-0.5,0.6-1.2,0.6c-0.4,0-0.7-0.1-0.8-0.2c0-0.9,0-1.7,0.1-2.5v-1.7c0-0.7-0.1-1.1-0.2-1.3
	l1.8,0.7h4c0.5-0.7,0.9-1,1.1-1.1c0.2,0,0.6,0.2,1.1,0.6c0.5,0.4,0.8,0.7,0.8,0.8s-0.1,0.3-0.3,0.4c-0.3,0.2-0.5,0.4-0.5,0.5v1.7
	c0.1,0.7,0.1,1.1,0.1,1.3c0,0.5-0.4,0.7-1.1,0.7c-0.5,0-0.8-0.1-0.9-0.4v-0.3h-4.2v0.2H72.4z M76.6,64.6h-4.2v3.1h4.2V64.6z
	 M77.1,75.8c-0.1,0.4-0.4,0.6-1,0.6c-0.4,0-0.6-0.1-0.7-0.2c0-1,0-2,0.1-3v-1.9c0-0.8-0.1-1.3-0.1-1.5l1.2,0.5H79
	c0.5-0.7,0.8-1.1,1-1.1s0.5,0.2,1,0.6s0.7,0.6,0.7,0.8c0,0.1-0.1,0.3-0.3,0.4c-0.3,0.2-0.5,0.4-0.5,0.4v2.4c0.1,0.9,0.1,1.5,0.1,1.8
	c0,0.4-0.4,0.7-1,0.7c-0.5,0-0.8-0.1-0.8-0.4v-0.2L77.1,75.8L77.1,75.8z M79.3,70.8h-2.1V75h2.1V70.8z"/>
<path class="st0" d="M93.6,73.8l-0.4-0.4c0.8-0.7,1.2-1.3,1.2-2c0-0.1-0.1-0.2-0.3-0.2c-1-0.2-1.5-0.7-1.5-1.5c0-0.4,0.1-0.7,0.4-1
	s0.7-0.5,1.2-0.5s0.9,0.2,1.2,0.6c0.2,0.3,0.4,0.7,0.4,1.1C95.7,71.6,95,72.8,93.6,73.8z"/>
<path class="st0" d="M106,66.2c-0.1-0.3-0.3-0.6-0.4-1.1c0.3,0.1,1.4,0.2,3.2,0.3v-3c0-0.6-0.1-1.2-0.2-1.9c0.7,0.1,1.3,0.2,2.1,0.3
	c0.5,0.1,0.8,0.2,0.8,0.4c0,0.1-0.1,0.2-0.4,0.3c-0.4,0.1-0.5,0.2-0.5,0.3v3.6h0.3c0.5-0.8,0.8-1.3,1-1.3c0.1,0,0.3,0.2,0.7,0.7
	c0.3,0.4,0.5,0.7,0.6,0.9c0,0.2-0.1,0.3-0.3,0.3h-2.3v1.2c1.7,0.8,2.6,1.6,2.6,2.4c0,0.4-0.1,0.7-0.4,0.8c-0.2,0.1-0.4,0.2-0.6,0.2
	c-0.4,0-0.7-0.4-0.8-1.2c-0.2-0.7-0.5-1.3-0.9-1.7v6.9c0,2.2,0,3.7,0.1,4.7c0,0.3-0.4,0.5-1.3,0.5c-0.5,0-0.7-0.1-0.7-0.4
	c0-0.8,0.1-2.4,0.1-4.8v-4.5c-0.9,2-1.8,3.5-2.9,4.6c-0.1,0-0.2-0.1-0.3-0.2c1.5-2.5,2.5-5.2,2.9-8.4C106.9,66.1,106,66.2,106,66.2z
	 M118.5,61.6c0,0.1-0.1,0.2-0.3,0.3c-0.4,0.2-0.7,0.3-0.7,0.4v6.9c0,5.6-1.8,9.1-5.5,10.5c-0.1-0.1-0.1-0.2-0.2-0.3
	c1.4-1.2,2.4-2.6,2.9-4.1c0.4-0.9,0.7-2.3,0.9-4.3c-0.5,0.6-1.1,1.2-1.7,1.8c0,0.1-0.1,0.4-0.1,0.9c0,0.1-0.1,0.2-0.2,0.2
	c-0.2,0-0.8-0.8-1.6-2.3c0.5,0,1.7-0.5,3.7-1.5c0-0.7,0.1-1.5,0.1-2.4v-4.8c0-0.9-0.1-1.6-0.2-2.2C117.5,61,118.5,61.3,118.5,61.6z
	 M115.3,67.2c0,0.7-0.3,1-0.8,1s-0.7-0.3-0.7-0.8c0-0.3-0.1-0.7-0.1-1.2c-0.1-0.5-0.2-1-0.4-1.6c-0.2-0.5-0.3-0.8-0.4-1
	c0.1-0.1,0.2-0.2,0.3-0.2C114.6,64.7,115.3,66,115.3,67.2z M121.7,61.6c0,0.1-0.1,0.2-0.3,0.3c-0.4,0.1-0.6,0.3-0.7,0.4v4.9
	c0.8-1.1,1.4-2.4,1.7-3.7c0.3,0.2,0.9,0.5,1.7,1c0.4,0.3,0.6,0.5,0.6,0.6s-0.1,0.2-0.3,0.2c-0.4,0-0.7,0.1-0.8,0.1
	c-0.4,0.5-0.8,1-1.3,1.4s-1,0.8-1.5,1v1.9c0.9,0.2,1.7,0.5,2.3,0.8c0.9,0.5,1.4,1,1.4,1.5s-0.1,0.8-0.2,0.9
	c-0.1,0.3-0.4,0.4-0.7,0.4c-0.2,0-0.5-0.4-0.9-1.1c-0.6-0.9-1.2-1.6-1.8-2v6.6c0,0.5,0.2,0.7,0.6,0.7h0.6c0.6,0,1-0.4,1.2-1.3
	c0.3-1,0.5-1.6,0.5-1.9c0.1,0,0.2,0,0.3,0c0,0,0,0.8,0,2.3c0,0.3,0.1,0.5,0.3,0.6c0.3,0.2,0.5,0.4,0.5,0.6c0,0.5-0.4,0.8-1.1,1
	c-0.4,0.1-0.9,0.2-1.6,0.2c-0.8,0-1.2,0-1.4-0.1c-1.2-0.1-1.8-0.8-1.8-2V62.4c0-0.6,0-1.2-0.1-1.8C120.7,61.2,121.7,61.4,121.7,61.6
	z"/>
<path class="st0" d="M144.4,61.2c0.6,0.4,0.9,0.7,0.9,0.9c0,0.1-0.1,0.3-0.3,0.4c-0.3,0.3-0.5,0.4-0.5,0.5v9.7
	c0,3.3,0.1,5.5,0.1,6.7c0,0.4-0.5,0.7-1.4,0.7c-0.4,0-0.5-0.2-0.5-0.5v-1.2h-12.9v0.9c-0.1,0.4-0.5,0.6-1.2,0.6
	c-0.4,0-0.7-0.1-0.8-0.2c0-2.9,0-5.8,0.1-8.6v-5.6c0-2.4-0.1-3.8-0.1-4.3l2,0.8h12.6c0.6-0.8,1-1.2,1.2-1.2
	C143.6,60.7,143.9,60.8,144.4,61.2z M142.6,77.7V62.4h-12.9v15.3C129.7,77.7,142.6,77.7,142.6,77.7z M140.7,64
	c0.4,0.4,0.7,0.7,0.7,0.8c0,0.2-0.1,0.3-0.2,0.3h-4.4v1.6h2.8c0.6-0.8,1-1.2,1.2-1.3c0.1,0,0.4,0.2,0.8,0.7c0.4,0.4,0.7,0.7,0.7,0.9
	c0,0.2-0.1,0.3-0.2,0.3h-8.7c-2,0-3.1,0.1-3.1,0.2c-0.1-0.3-0.3-0.6-0.4-1.1c0.3,0.1,1.4,0.2,3.2,0.3h2v-1.6h-0.6c-2,0-3,0.1-3,0.2
	c-0.1-0.3-0.3-0.6-0.4-1.1c0.3,0.1,1.4,0.2,3.3,0.3h0.8c0-0.7-0.1-1.3-0.1-1.8c1.8,0.3,2.8,0.5,2.8,0.7s-0.1,0.3-0.3,0.3
	c-0.4,0.2-0.6,0.3-0.6,0.4v0.4h2c0.6-0.8,1-1.1,1.2-1.1C140.1,63.4,140.3,63.6,140.7,64z M130.3,76.4c-0.1-0.1-0.2-0.2-0.2-0.3
	c2.2-1.3,3.7-2.6,4.6-3.9c0-0.1,0.1-0.1,0.1-0.2h-1.4c-0.1,0.4-0.5,0.6-1.1,0.6c-0.4,0-0.6-0.1-0.7-0.2c0-0.7,0-1.4,0.1-2V69
	c0-0.6-0.1-0.9-0.1-1l1.6,0.6h5.1c0.5-0.6,0.9-1,1-1c0.2,0,0.5,0.2,1,0.6s0.7,0.6,0.7,0.8c0,0.1-0.1,0.3-0.3,0.4
	c-0.3,0.2-0.4,0.4-0.4,0.4v1.1c0.1,0.4,0.1,0.7,0.1,0.8c0.3,0.2,0.7,0.4,1.2,0.7c0.3,0.2,0.5,0.4,0.5,0.5S142,73,141.8,73
	c-0.3,0-0.5,0.1-0.7,0.1c-0.3,0.2-0.6,0.4-1,0.6c-0.2,0.1-0.3,0.2-0.5,0.2c1.1,0.5,1.7,1.1,1.7,1.8c0,0.3-0.1,0.5-0.2,0.6
	c-0.1,0.3-0.3,0.4-0.7,0.4c-0.3,0-0.7-0.5-1.3-1.4c-0.6-0.7-1.4-1.3-2.4-1.9v2.4c0,0.3,0,0.6,0,0.8c0,0.4-0.4,0.5-1.1,0.5
	c-0.5,0-0.8-0.1-0.8-0.3v-3.1C133.8,74.8,132.2,75.7,130.3,76.4z M138.6,71.4v-2.3h-5.2v2.3H138.6z M140,72.2
	c-0.2,0.1-0.4,0.1-0.6,0.1c-0.5,0-0.8-0.1-0.8-0.3H137v1c0.8,0.2,1.6,0.4,2.1,0.6C139.5,73.2,139.8,72.7,140,72.2z"/>
<path class="st0" d="M149.7,78c-0.1,0.6-0.3,0.9-0.4,0.9c-0.1,0-0.3-0.3-0.5-0.8s-0.4-1.2-0.6-2c0.4,0.1,1,0.1,1.8,0.1v-7
	c-0.8,0-1.4,0.1-1.7,0.2c-0.1-0.4-0.3-0.7-0.5-1.1c1,0.1,2.9,0.2,5.4,0.2h10.4c0.5-0.6,0.9-1,1.2-1.2h0.1c0.1,0.1,0.3,0.2,0.4,0.3
	c0.7,0.6,1.1,1,1.1,1.2s-0.1,0.3-0.2,0.3h-9.6v7.2c0,0.8,0.1,1.8,0.1,3c0,0.3-0.4,0.4-1.1,0.5c-0.6,0-0.9-0.1-0.9-0.3
	c0-0.6,0.1-1.6,0.1-3.1C153.6,76.9,151.9,77.4,149.7,78z M152.5,61.5h8.6c0.5-0.6,0.9-0.9,1.1-0.9s0.6,0.2,1.1,0.6s0.8,0.7,0.8,0.8
	s-0.1,0.3-0.3,0.4c-0.4,0.2-0.6,0.4-0.6,0.5v2.3c0.1,0.9,0.1,1.4,0.1,1.7c0,0.5-0.4,0.7-1.1,0.7c-0.5,0-0.8-0.1-0.9-0.4v-0.4h-8.5
	v0.3c-0.1,0.4-0.5,0.6-1.2,0.6c-0.4,0-0.7-0.1-0.8-0.2c0-1,0-2.1,0.1-3.1v-2c0-0.8-0.1-1.4-0.2-1.5L152.5,61.5z M151.9,69.1v1.7h2.9
	v-1.7H151.9z M151.9,71.3v1.9h2.9v-1.9H151.9z M151.9,73.8V76c1.2-0.1,2.1-0.2,2.9-0.3v-1.9C154.8,73.8,151.9,73.8,151.9,73.8z
	 M161.4,63.8v-1.7h-8.5v1.7H161.4z M161.4,66.3v-2h-8.5v2H161.4z M165,70.2c0.6,0.5,0.9,0.8,0.9,1c0,0.1-0.1,0.2-0.3,0.3
	c-0.5,0.1-0.7,0.2-0.7,0.4c-0.7,1.4-1.5,2.7-2.5,3.8c0.6,0.5,1.3,0.8,2,1.2c0.8,0.4,1.6,0.7,2.1,0.7c0,0.1,0,0.3-0.1,0.4
	c-0.3,0-0.5,0.1-0.6,0.2c-0.2,0.2-0.4,0.5-0.6,0.9c-0.2,0.3-0.4,0.5-0.5,0.5c-0.2,0-0.5-0.1-0.9-0.4c-1-0.6-2-1.3-2.7-2.2
	c-1.1,0.9-2.3,1.7-3.7,2.4c-0.1-0.1-0.1-0.2-0.2-0.3c1.1-0.8,2.2-1.8,3.1-3.1c-0.9-1.3-1.4-3-1.8-4.9c-0.6,0-1,0.1-1.3,0.1
	c-0.2-0.5-0.3-0.8-0.4-1c0.8,0.2,1.7,0.3,2.9,0.3h3c0.7-0.7,1-1,1.2-1C164.1,69.5,164.5,69.8,165,70.2z M161.2,74.7
	c0.8-1.2,1.4-2.5,1.7-3.7h-3.3c-0.2,0-0.4,0-0.6,0C159.5,72.5,160.2,73.7,161.2,74.7z"/>
<path class="st0" d="M186.9,68.5c0.5,0.5,0.8,0.8,0.8,1s-0.2,0.3-0.5,0.3s-0.4,0.1-0.5,0.1c-0.7,0.4-1.6,0.9-2.6,1.3
	c-0.1,0-0.2-0.1-0.2-0.2c0.5-0.5,0.9-1.1,1.2-1.6H171v0.1c0,1.7-0.5,2.6-1.4,2.7c-0.7,0-1.1-0.2-1.1-0.7c0-0.3,0-0.5,0.1-0.7
	c0-0.1,0.3-0.4,0.8-0.8c0.5-0.5,0.9-1.3,1-2.4c0.2,0,0.3,0,0.3,0c0.1,0.4,0.1,0.9,0.2,1.3h13.8c0.5-0.6,0.9-1,1.2-1
	C186.1,67.8,186.4,68.1,186.9,68.5z M186.1,71.3c0.8,0.7,1.2,1.1,1.2,1.3c0,0.2-0.1,0.3-0.2,0.3H180c1,1.2,2.2,2.1,3.4,2.6
	c1.3,0.6,2.7,1,4.4,1c0,0.2,0,0.3,0,0.4c-0.1,0-0.3,0.2-0.5,0.4c-0.1,0.1-0.3,0.4-0.4,0.8c-0.1,0.3-0.2,0.4-0.4,0.4
	c-0.7,0-1.9-0.6-3.5-1.7c-1.4-0.9-2.5-2.2-3.3-3.9h-0.3v6.4c0,0.4-0.4,0.5-1.1,0.5c-0.5,0-0.8-0.1-0.8-0.4c0-2.1,0-4.1,0-6
	c-0.1,0.1-0.2,0.3-0.3,0.4c-1.3,2.1-4,3.8-8,5c-0.1,0-0.2-0.1-0.3-0.3c3.1-1.5,5.1-3.2,6.1-4.9c0.2-0.3,0.3-0.5,0.4-0.7h-0.7
	c-2.3,0-3.7,0.1-4.3,0.3c-0.1-0.4-0.3-0.7-0.5-1.1c1,0.1,2.6,0.2,4.9,0.2h2.6v-1.1c0-0.7-0.1-1.2-0.1-1.5c1.9,0.3,2.9,0.6,2.9,0.8
	c0,0.1-0.1,0.2-0.4,0.3c-0.4,0.2-0.6,0.3-0.6,0.4v1.2h5c0.6-0.7,1-1.1,1.3-1.3h0.2C185.7,71.1,185.9,71.2,186.1,71.3z M172.1,61.8
	c0.1,0.5,0.2,1.1,0.2,1.7c0,1.6-0.5,2.3-1.4,2.4c-0.6,0-0.9-0.2-0.9-0.6c0-0.2,0-0.4,0.1-0.6c0-0.1,0.3-0.3,0.7-0.7
	c0.5-0.5,0.8-1.2,1-2.1C171.9,61.8,172,61.8,172.1,61.8z M171.5,68.5l-0.2-0.3c1.2-1,2-2.3,2.1-4c0.1-0.6,0.1-1.8,0.1-3.7
	c0.5,0.1,1.2,0.3,2,0.4c0.5,0.1,0.7,0.3,0.7,0.4c0,0.1-0.1,0.2-0.3,0.3s-0.5,0.2-0.8,0.3c0,0.8,0,1.4-0.1,1.9
	c0.8-0.6,1.5-1.3,1.9-2.1c1.1,0.8,1.6,1.2,1.6,1.2c0,0.1-0.1,0.2-0.2,0.2c-0.2,0-0.4,0-0.7,0c-0.7,0.5-1.6,0.9-2.7,1.3
	c0,0.2-0.1,0.3-0.1,0.4s-0.1,0.2-0.1,0.3c1.7,0.3,2.6,1,2.7,2.1c0,0.2,0,0.4-0.1,0.5c-0.1,0.3-0.3,0.4-0.6,0.4s-0.6-0.4-1-1.1
	c-0.3-0.6-0.7-1.1-1.2-1.5C174.2,67.1,173.1,68.1,171.5,68.5z M179.8,62.1c0.1,0.5,0.2,1.1,0.2,1.7c0,1.3-0.4,1.9-1.2,2
	c-0.6,0-0.9-0.2-0.9-0.6c0-0.3,0-0.4,0.1-0.6c0-0.1,0.3-0.3,0.7-0.6c0.5-0.4,0.8-1,0.9-1.8h0.2V62.1z M178.3,68.7l-0.1-0.3
	c1.8-1,2.8-2.4,3.1-4.1c0.1-0.6,0.2-1.8,0.2-3.8c0.5,0.1,1.2,0.3,2,0.4c0.5,0.1,0.7,0.3,0.7,0.4c0,0.1-0.1,0.2-0.3,0.3
	s-0.5,0.2-0.8,0.3c0,0.7,0,1.3-0.1,1.8c1.1-0.6,1.9-1.3,2.4-2c1.2,0.8,1.8,1.3,1.8,1.4c0,0.1-0.1,0.2-0.2,0.2c-0.3,0-0.5,0-0.8,0
	c-0.9,0.4-2,0.8-3.3,1.1c0,0.3-0.1,0.5-0.1,0.7v0.1c1.9,0.3,2.9,0.9,2.9,1.9c0,0.2,0,0.4-0.1,0.6c-0.1,0.3-0.3,0.5-0.7,0.5
	c-0.3,0-0.7-0.4-1.2-1.1c-0.4-0.5-0.8-1-1.2-1.4C181.8,67.3,180.4,68.3,178.3,68.7z"/>
<path class="st0" d="M197.1,68.6c0.3,0.3,0.4,0.5,0.4,0.6c0,0.2-0.1,0.3-0.3,0.3h-1.7v6.7c0.6-0.4,1.2-0.8,1.8-1.2
	c0,0.1,0.1,0.2,0.1,0.3c-0.9,1.4-2,2.6-3.3,3.5c0,0.1-0.1,0.4-0.1,0.8c0,0.1-0.1,0.2-0.2,0.2c-0.2,0-0.7-0.7-1.6-2.1
	c0.6-0.2,1.1-0.4,1.7-0.7v-7.5h-1.1c-0.1,1.8-0.1,3-0.3,3.7c-0.4,3.4-1.3,5.5-2.6,6.4c0-0.1-0.1-0.1-0.2-0.2
	c0.7-1.3,1.2-3.5,1.4-6.6c0.1-1.1,0.1-2.2,0.1-3.2H191c-0.4,0-0.8,0-1.2,0.1c-0.2-0.3-0.4-0.7-0.4-1c0.4,0.2,0.8,0.3,1.3,0.3h1.8
	v-6.3c0-0.8,0-1.4-0.1-1.9c1.7,0.3,2.5,0.5,2.5,0.7s-0.1,0.3-0.3,0.3c-0.4,0.1-0.5,0.3-0.5,0.4v6.9h0.9c0.5-0.7,0.9-1,1-1.1
	c0.1,0,0.1,0,0.1,0C196.3,67.7,196.6,68,197.1,68.6z M191.7,66.7c0,0.6-0.3,0.9-0.9,0.9c-0.3,0-0.5-0.2-0.5-0.5c0-0.1,0-0.4,0.1-0.7
	c0-0.2,0.1-0.5,0.1-0.9c0-1-0.2-1.7-0.5-2.3c0,0,0-0.1,0.1-0.1C191.2,64.1,191.7,65.3,191.7,66.7z M197.8,64c0,0.1-0.3,0.3-0.9,0.3
	c-0.4,1-1.1,2.1-2,3.3c-0.1,0-0.3-0.1-0.4-0.1c0.6-1.4,1-3,1.2-4.6C197,63.4,197.8,63.8,197.8,64z M201.5,68.9c0,0.2-0.3,0.3-1,0.4
	c-0.2,0.4-0.4,0.8-0.6,1.1h3.1c-0.2-0.2-0.3-0.4-0.3-0.7c-0.2-0.7-0.5-1.1-1-1.4c0,0,0-0.1,0.1-0.2c0.3,0,0.5,0,0.6,0
	c0.7,0,1.2,0.1,1.7,0.4c0.3,0.3,0.5,0.7,0.5,1.2c0,0.3-0.1,0.6-0.3,0.7h1.6c0.5-0.7,0.8-1.1,1-1.2h0.1c0.1,0,0.4,0.2,0.8,0.5
	c0.5,0.5,0.8,0.8,0.8,0.9c0,0.2-0.1,0.3-0.1,0.3H204v1.8h1.2c0.5-0.6,0.8-1,1-1.1h0.1c0.1,0,0.4,0.2,0.7,0.5
	c0.4,0.4,0.7,0.7,0.7,0.8c0,0.2-0.1,0.3-0.1,0.4H204v1.9h1.2c0.4-0.6,0.8-1,0.9-1.1h0.1c0.1,0,0.4,0.2,0.7,0.5
	c0.4,0.4,0.7,0.7,0.7,0.8c0,0.2-0.1,0.3-0.1,0.4H204v2.1h1.9c0.5-0.7,0.8-1.1,1-1.2h0.1c0.1,0,0.4,0.2,0.8,0.6
	c0.5,0.5,0.8,0.8,0.8,0.9c0,0.2-0.1,0.3-0.1,0.4h-8.7v0.7c0,0.3-0.4,0.5-1,0.5c-0.5,0-0.8-0.1-0.8-0.2c0-0.3,0-1.1,0-2.3v-4.5
	c-0.5,0.5-1.1,0.9-1.7,1.2c-0.1-0.1-0.1-0.2-0.1-0.2c1.3-1.4,2.2-3.4,2.8-5.8C200.6,68.3,201.5,68.6,201.5,68.9z M207.9,61.2
	c0.5,0.4,0.7,0.6,0.7,0.8c0,0.1-0.1,0.2-0.3,0.4c-0.3,0.2-0.5,0.4-0.6,0.4v2.9c0.1,1.1,0.1,1.8,0.1,2.1c0,0.4-0.4,0.7-1,0.7
	c-0.5,0-0.8-0.1-0.8-0.3v-2.3c-0.6,0.6-1.4,1.1-2.3,1.6c0,0.3-0.1,0.5-0.1,0.5c-0.1,0-0.2-0.1-0.3-0.5c-0.2-0.3-0.4-0.8-0.7-1.5
	c1.4-0.1,2.6-0.4,3.4-0.7V62h-3.4c0,0.1-0.1,0.2-0.2,0.2c-0.1,0.1-0.3,0.2-0.5,0.4v2.9c0.1,0.7,0.1,1.3,0.1,1.7
	c0,0.3-0.4,0.5-1.2,0.6c-0.4,0-0.6-0.1-0.6-0.4v-1.2c-0.7,0.7-1.5,1.3-2.5,1.8c0,0.4-0.1,0.5-0.2,0.5s-0.2-0.2-0.4-0.5
	s-0.4-0.9-0.7-1.6c1.6-0.2,2.9-0.5,3.8-0.9V62h-2c-0.7,0-1.2,0.1-1.5,0.2c-0.1-0.3-0.2-0.5-0.3-0.9c0.2,0.1,0.8,0.1,1.6,0.1h1.8
	c0.5-0.5,0.9-0.8,1.1-0.8c0.1,0,0.4,0.2,0.9,0.5c0.2,0.2,0.3,0.3,0.4,0.4h3.5c0.5-0.5,0.8-0.8,1-0.9C207,60.7,207.4,60.8,207.9,61.2
	z M199.2,62.9c0.3,0.3,0.5,0.7,0.5,1.3c0,0.6-0.3,0.8-0.9,0.8c-0.4,0-0.6-0.3-0.7-0.9c-0.2-0.7-0.5-1.2-1-1.4c0,0,0-0.1,0.1-0.1
	c0.3,0,0.5,0,0.5,0C198.3,62.5,198.8,62.7,199.2,62.9z M202.2,72.7v-1.8h-2.5v1.8H202.2z M202.2,75.2v-1.9h-2.5v1.9H202.2z
	 M202.2,77.9v-2.1h-2.5v1.6c0,0.2,0,0.4,0,0.6L202.2,77.9L202.2,77.9z M205,63c0.3,0.3,0.5,0.7,0.5,1.2c0,0.5-0.3,0.8-0.9,0.8
	c-0.3,0-0.6-0.3-0.7-0.8c-0.2-0.7-0.5-1.1-0.9-1.3c0,0,0-0.1,0.1-0.1h0.5C204.1,62.7,204.6,62.8,205,63z"/>
<path class="st0" d="M227.2,64.8c0.6,0.6,0.9,1,0.9,1.3c0,0.2-0.5,0.4-1.5,0.4c-2.6,3.7-6.2,6.6-10.8,8.5c0.1,0.1,0.1,0.2,0.2,0.3
	c0.7,1,2.8,1.6,6.2,1.6c4.1-0.1,6.6-0.3,7.4-0.6l0.1,0.5c-0.6,0.2-0.9,0.6-1,1.1c0,0.5-0.1,0.8-0.3,0.8c-1.3,0-3.1,0-5.5,0
	c-3.1-0.1-5.2-0.6-6.2-1.4c-1.2-0.8-1.9-2.2-2.1-4.1c-0.1,1.7-0.6,3.2-1.5,4.7c0.2,0.5,0.3,0.8,0.3,1c-0.1,0.2-0.1,0.3-0.3,0.3
	c-0.3,0-1.1-0.5-2.6-1.6c1.3-1.1,2.5-2.8,3.6-5.1c0.2-0.1,0.3-0.2,0.4-0.2c0.3,0,0.6,0.4,0.7,1.1c0.1,0.4,0.2,0.7,0.3,1
	c1.7-0.9,3.4-2.3,5.3-4.1c1.2-1.2,2.4-2.8,3.7-4.8h-9.7c-1.1,0-1.9,0.1-2.4,0.1c-0.1-0.3-0.3-0.7-0.5-1c0.8,0.2,2,0.3,3.4,0.3h9.1
	c0.8-0.8,1.3-1.2,1.5-1.2C226.1,63.9,226.6,64.2,227.2,64.8z M221.1,63c0,0.3,0,0.5-0.1,0.7c-0.1,0.4-0.4,0.6-0.8,0.6
	c-0.4,0-0.9-0.4-1.5-1.3c-0.6-0.9-1.4-1.6-2.2-2.1c0,0,0.1-0.1,0.1-0.3C219.5,60.9,221,61.7,221.1,63z"/>
<path class="st0" d="M236.6,68.6h8.6c0.5-0.6,0.9-1,1.1-1s0.6,0.2,1.1,0.6s0.8,0.7,0.8,0.8c0,0.1-0.1,0.3-0.3,0.4
	c-0.3,0.2-0.5,0.4-0.6,0.5v2.2c0.1,0.8,0.1,1.4,0.1,1.6c0,0.5-0.4,0.7-1.1,0.7c-0.5,0-0.8-0.1-0.9-0.4v-0.3H242v1.9h5.4
	c0.6-0.8,1.1-1.3,1.4-1.4c0,0,0.1,0,0.2,0c0.2,0.1,0.3,0.2,0.5,0.3c0.9,0.8,1.3,1.2,1.3,1.4c0,0.2-0.1,0.3-0.2,0.3h-8.5
	c0,0.8,0,1.8,0,2.9c0,0.3-0.4,0.5-1.2,0.5c-0.6,0-1-0.1-1-0.3c0-0.6,0.1-1.6,0.1-3.1h-3.2c-2.5,0-4.1,0.1-4.7,0.3
	c-0.1-0.4-0.3-0.7-0.5-1.1c1,0.1,2.9,0.2,5.4,0.2h3v-1.9h-3.3v0.1c-0.1,0.4-0.5,0.6-1.1,0.6c-0.4,0-0.7-0.1-0.8-0.2c0-1,0-2,0.1-3
	v-2c0-0.8-0.1-1.3-0.2-1.5L236.6,68.6z M245.8,64.7c0,0.2-0.4,0.3-1.1,0.3c-0.3,0.5-0.8,1-1.4,1.4h3.9c0.6-0.7,1-1.2,1.3-1.3
	c0,0,0.1,0,0.2,0c0.1,0.1,0.3,0.2,0.5,0.3c0.8,0.7,1.2,1.1,1.2,1.3s-0.1,0.3-0.2,0.3h-13.3c-2.4,0-3.9,0.1-4.5,0.3
	c-0.1-0.4-0.3-0.7-0.5-1.1c1,0.1,2.8,0.2,5.3,0.2h1.2c-0.2-0.1-0.4-0.4-0.5-0.7c-0.2-0.5-0.3-0.8-0.5-1c-0.1-0.3-0.4-0.5-0.6-0.8
	c0,0,0.1-0.1,0.2-0.2c0.6,0.1,1.1,0.3,1.5,0.4c0.8,0.4,1.2,0.8,1.2,1.3s-0.1,0.8-0.4,1c-0.1,0.1-0.1,0.1-0.2,0.1h3.8
	c0.3-1,0.5-2,0.6-2.8C245,64.1,245.8,64.5,245.8,64.7z M248,62c0.8,0.7,1.2,1.1,1.2,1.3s-0.1,0.3-0.2,0.3h-11.6
	c-2.1,0-3.4,0.1-4,0.3c-0.1-0.4-0.3-0.7-0.5-1.1c0.9,0.1,2.4,0.2,4.5,0.2h8.7c0.6-0.7,1-1.2,1.3-1.3c0,0,0.1,0,0.2,0
	C247.6,61.7,247.8,61.8,248,62z M245.5,70.9v-1.7h-8.7v1.7H245.5z M245.5,73.2v-1.8h-8.7v1.8H245.5z M242.2,62
	c0,0.5-0.2,0.8-0.5,0.9c-0.1,0-0.3,0.1-0.4,0.1c-0.2,0-0.4-0.2-0.8-0.6c-0.5-0.7-1.2-1.2-1.9-1.5c0-0.1,0-0.2,0.1-0.3
	c0.2,0,0.7,0,1.5,0C241.5,60.6,242.2,61.1,242.2,62z"/>
<g>
	<rect y="99.2" class="st1" width="13" height="0.8"/>
</g>
</svg>
