<svg width="206" height="116" viewBox="0 0 206 116" fill="none" xmlns="http://www.w3.org/2000/svg">
<path d="M27 3.39999H16.3V33.9H11.4V3.39999H0.599998V1.39999H27V3.39999Z" fill="#C9A063"/>
<path d="M63.2 33.7V33.9H56.9C55.5 33.8 54.3 32.7 54.3 31.2V18.2H38V33.9H33.1V5.89999C33.1 3.99999 31.9 2.39999 30.1 1.89999H30L29.2 1.7V1.5H35.4C36.2 1.5 36.8 1.8 37.3 2.3C37.7 2.8 38.1 3.5 38.1 4.2V16.7H54.4V1.60001H59.3V29.6C59.3 31.5 60.5 33.1 62.4 33.7H62.5H63.2Z" fill="#C9A063"/>
<path d="M88.6 32.2V33.9H68.1V5.89999C68.1 3.99999 66.9 2.40001 64.2 1.60001V1.39999H88.6V3.10001H73V16H86V18H73V32.2H88.6Z" fill="#C9A063"/>
<path d="M132.1 28C131.7 28.8 128.1 34.7 118.9 34.7C109 34.7 103.2 27.2 103.2 17.8C103.2 8.5 109 0.899994 118.9 0.899994C128.3 0.899994 131.8 7.1 132.2 7.7L131.1 8.8C120.9 -3.4 108.8 4.7 108.8 17.8C108.8 29.9 120.9 39.1 131 26.9L132.1 28Z" fill="#C9A063"/>
<path d="M141.6 1.39999V33.9H137.2V5.89999C137.2 3.99999 136 2.40001 133.3 1.60001V1.39999H141.6Z" fill="#C9A063"/>
<path d="M171 3.39999H160.3V33.9H155.4V3.39999H144.6V1.39999H171V3.39999Z" fill="#C9A063"/>
<path d="M205.6 1.39999L193.9 19.9V33.9H189V20.5L178 4.10001C177.6 3.60001 177.2 3.1 176.6 2.7C176.1 2.3 175.4 1.99999 174.8 1.89999L174 1.7V1.5H178.8C180.7 1.5 182.5 2.4 183.7 4L192.8 17.7L203.1 1.5H205.6V1.39999Z" fill="#C9A063"/>
<path d="M31.8 48.7L17.3 81.8L4.1 51.4C3.6 50.3 2.6 49.5 1.5 49.2L0.5 48.9V48.7H4.8C6.5 48.7 8.1 49.8 8.8 51.4L18.5 73.9L29.5 48.8H31.8V48.7Z" fill="#C9A063"/>
<path d="M43.3 48.7V81.2H38.9V53.2C38.9 51.3 37.7 49.7 35 48.9V48.7H43.3Z" fill="#C9A063"/>
<path d="M68.5 72.9C68.5 76.3 66 81.9 58.3 81.9C52.2 81.9 48.3 79.3 47.4 72.6H48.9C49.9 78.7 54.9 80 57.9 80C63.1 80 64.3 76.4 64.3 74.8C64.3 71.4 61.5 69.5 56.2 66.8C52.8 65.1 47.1 62.2 47.1 56.7C47.1 49.6 54.1 48.2 56.6 48.2C62.8 48.2 65.4 51.5 66.3 56.1H64.7C64 53.7 62.3 50 56.7 50C53.9 50 51 52.2 51 55C51 58.3 54.9 60.4 59 62.5C66.6 66.3 68.5 69 68.5 72.9Z" fill="#C9A063"/>
<path d="M78 48.7V81.2H73.6V53.2C73.6 51.3 72.4 49.7 69.7 48.9V48.7H78Z" fill="#C9A063"/>
<path d="M113.1 64.8C113.1 76.6 106.1 81.7 97.4 81.7C88.7 81.7 81.7 76.6 81.7 64.8C81.7 53.4 88.7 47.9 97.4 47.9C106.1 48 113.1 53.4 113.1 64.8ZM107.8 64.8C107.8 54.4 103.2 49.4 97.5 49.4C91.8 49.4 87.2 54.5 87.2 64.8C87.2 75.5 91.9 80.2 97.5 80.2C103.2 80.2 107.8 75.6 107.8 64.8Z" fill="#C9A063"/>
<path d="M144.3 48.7V81.2L120.7 58V81.2H118.7V56.2C118.7 53.7 118.3 50 114.8 49V48.8C118 48.8 120.2 50.7 121.3 51.6L142.3 72V48.8H144.3V48.7Z" fill="#C9A063"/>
<path d="M4.6 103.7C4.6 104.2 4.4 104.6 3.9 104.9C3.5 105.1 3.1 105.2 2.5 105.2C2.4 105.2 2.1 105.2 1.6 105.2V100H2.5C3 100 3.4 100.1 3.7 100.2C4.1 100.4 4.3 100.7 4.3 101.1C4.3 101.4 4.2 101.6 4 101.9C3.8 102.1 3.6 102.3 3.3 102.4C3.7 102.5 4 102.6 4.2 102.8C4.5 103 4.6 103.3 4.6 103.7ZM4.1 103.7C4.1 103.3 4 103 3.7 102.8C3.5 102.6 3.2 102.5 2.8 102.5H2.5V102.3H2.7C3.1 102.3 3.3 102.2 3.5 101.9C3.6 101.7 3.7 101.4 3.7 101.2C3.7 100.5 3.2 100.1 2.3 100.1H2V105H2.3C3.5 105 4.1 104.5 4.1 103.7Z" fill="#00404B"/>
<path d="M8.5 103.1H6.5V102.9H8C8 102.3 7.7 102 7.2 102C6.9 102 6.6 102.1 6.4 102.4C6.2 102.7 6.1 103 6.1 103.5C6.1 104 6.2 104.3 6.4 104.6C6.6 104.9 6.9 105 7.2 105C7.6 105 7.9 104.8 8.2 104.5L8.4 104.7C8.1 105 7.7 105.2 7.3 105.2C6.8 105.2 6.5 105 6.1 104.7C5.8 104.4 5.6 104 5.6 103.5C5.6 103 5.8 102.6 6.1 102.3C6.4 102 6.8 101.8 7.2 101.8C7.5 101.8 7.8 101.9 8.1 102.2C8.3 102.4 8.5 102.7 8.5 103.1Z" fill="#00404B"/>
<path d="M11.6 103V105.1H11.1V104.8C10.9 105 10.6 105.1 10.3 105.1C10 105.1 9.7 105 9.5 104.8C9.3 104.6 9.1 104.4 9.1 104C9.1 103.7 9.2 103.4 9.5 103.2C9.7 103 10 102.9 10.2 102.9C10.3 102.9 10.4 102.9 10.4 102.9C10.6 102.9 10.7 103 10.8 103L10.7 103.2C10.5 103.1 10.4 103 10.2 103C10 103 9.8 103.1 9.7 103.2C9.6 103.4 9.5 103.6 9.5 103.9C9.5 104.2 9.6 104.4 9.7 104.5C9.8 104.7 10 104.7 10.2 104.7C10.5 104.7 10.8 104.5 11 104.2V103C11 102.3 10.8 102 10.3 102C10 102 9.8 102.1 9.5 102.3L9.4 102.1C9.6 101.9 9.9 101.9 10.3 101.9C11.2 101.8 11.6 102.2 11.6 103Z" fill="#00404B"/>
<path d="M15.4 105.1H14.9V104.5C14.7 104.9 14.3 105.1 13.9 105.1C13.1 105.1 12.7 104.7 12.7 103.9V101.7H13.2V103.9C13.2 104.6 13.4 104.9 13.9 104.9C14.2 104.9 14.4 104.7 14.6 104.4C14.7 104.2 14.8 104 14.8 103.8V101.7H15.3V105.1H15.4Z" fill="#00404B"/>
<path d="M17.8 102H17.2V104C17.2 104.3 17.2 104.6 17.3 104.7C17.4 104.8 17.5 104.9 17.8 104.9V105.1C17.1 105.1 16.7 104.7 16.7 104V102H16.4V101.8H16.7V101.4H17.2V101.8H17.8V102Z" fill="#00404B"/>
<path d="M21.5 101.8L19.7 106.3H19.5L20 105L18.6 101.8H19.1L20.2 104.4L21.2 101.8H21.5Z" fill="#00404B"/>
<path d="M24.4 105.1H23.9V100.1H24.4V105.1Z" fill="#00404B"/>
<path d="M26.1 100.4C26.1 100.5 26.1 100.6 26 100.6C25.9 100.6 25.9 100.7 25.8 100.7C25.7 100.7 25.6 100.7 25.6 100.6C25.6 100.5 25.5 100.5 25.5 100.4C25.5 100.3 25.5 100.2 25.6 100.2C25.7 100.1 25.7 100.1 25.8 100.1C25.9 100.1 26 100.1 26 100.2C26.1 100.3 26.1 100.3 26.1 100.4ZM26 105.1H25.5V101.9H26V105.1Z" fill="#00404B"/>
<path d="M29.9 103.1H27.9V102.9H29.4C29.4 102.3 29.1 102 28.6 102C28.3 102 28 102.1 27.8 102.4C27.6 102.7 27.5 103 27.5 103.5C27.5 104 27.6 104.3 27.8 104.6C28 104.9 28.3 105 28.6 105C29 105 29.3 104.8 29.6 104.5L29.8 104.7C29.5 105 29.1 105.2 28.7 105.2C28.2 105.2 27.9 105 27.5 104.7C27.2 104.4 27 104 27 103.5C27 103 27.2 102.6 27.5 102.3C27.8 102 28.2 101.8 28.6 101.8C28.9 101.8 29.2 101.9 29.5 102.2C29.8 102.4 29.9 102.7 29.9 103.1Z" fill="#00404B"/>
<path d="M32.6 104.3C32.6 104.6 32.5 104.8 32.3 104.9C32.1 105.1 31.9 105.1 31.6 105.1C31.2 105.1 30.9 105 30.7 104.7L30.8 104.5C31 104.8 31.3 104.9 31.6 104.9C31.8 104.9 31.9 104.8 32 104.7C32.1 104.6 32.2 104.4 32.2 104.3C32.2 104.1 32.1 103.9 31.9 103.8C31.8 103.7 31.6 103.6 31.3 103.4C30.9 103.2 30.8 102.9 30.8 102.5C30.8 102.3 30.9 102.1 31.1 101.9C31.3 101.8 31.5 101.7 31.7 101.7C31.9 101.7 32 101.7 32.2 101.8C32.4 101.9 32.5 102 32.5 102.1L32.3 102.3C32.1 102 31.9 101.9 31.6 101.9C31.3 101.9 31.1 102 31.1 102.3C31.1 102.5 31.2 102.7 31.4 102.9C31.8 103.1 32 103.3 32.1 103.4C32.5 103.7 32.6 104 32.6 104.3Z" fill="#00404B"/>
<path d="M35.7 100.4C35.7 100.5 35.7 100.6 35.6 100.6C35.5 100.6 35.5 100.7 35.4 100.7C35.3 100.7 35.2 100.7 35.2 100.6C35.2 100.5 35.1 100.5 35.1 100.4C35.1 100.3 35.1 100.2 35.2 100.2C35.3 100.1 35.3 100.1 35.4 100.1C35.5 100.1 35.6 100.1 35.6 100.2C35.6 100.3 35.7 100.3 35.7 100.4ZM35.6 105.1H35.1V101.9H35.6V105.1Z" fill="#00404B"/>
<path d="M39.3 105.1H38.8V103C38.8 102.3 38.6 102 38.1 102C37.6 102 37.3 102.3 37.1 102.9V105.2H36.6V102H37.1V102.4C37.4 102 37.7 101.9 38.1 101.9C38.5 101.9 38.8 102 38.9 102.1C39.1 102.3 39.2 102.6 39.2 103V105.1H39.3Z" fill="#00404B"/>
<path d="M43.2 102H42.6V104C42.6 104.3 42.6 104.6 42.7 104.7C42.8 104.8 42.9 104.9 43.2 104.9V105.1C42.5 105.1 42.1 104.7 42.1 104V102H41.8V101.8H42.1V101.4H42.6V101.8H43.2V102Z" fill="#00404B"/>
<path d="M46.7 105.1H46.2V103C46.2 102.3 46 102 45.5 102C45 102 44.7 102.3 44.5 102.9V105.2H44V100.2H44.5V102.4C44.8 102 45.1 101.9 45.5 101.9C45.9 101.9 46.2 102 46.3 102.1C46.5 102.3 46.6 102.6 46.6 103V105.1H46.7Z" fill="#00404B"/>
<path d="M50.7 103.1H48.7V102.9H50.2C50.2 102.3 49.9 102 49.4 102C49.1 102 48.8 102.1 48.6 102.4C48.4 102.7 48.3 103 48.3 103.5C48.3 104 48.4 104.3 48.6 104.6C48.8 104.9 49.1 105 49.4 105C49.8 105 50.1 104.8 50.4 104.5L50.6 104.7C50.3 105 49.9 105.2 49.5 105.2C49 105.2 48.7 105 48.3 104.7C48 104.4 47.8 104 47.8 103.5C47.8 103 48 102.6 48.3 102.3C48.6 102 49 101.8 49.4 101.8C49.7 101.8 50 101.9 50.3 102.2C50.5 102.4 50.7 102.7 50.7 103.1Z" fill="#00404B"/>
<path d="M55.7 104.7C55.4 105 55 105.1 54.6 105.1C54.1 105.1 53.8 104.9 53.4 104.6C53.1 104.3 52.9 103.9 52.9 103.4C52.9 102.9 53.1 102.5 53.4 102.2C53.7 101.9 54.1 101.7 54.6 101.7C55 101.7 55.3 101.8 55.6 102L55.5 102.2C55.3 102 55 101.8 54.6 101.8C54.3 101.8 54 102 53.8 102.3C53.6 102.6 53.5 102.9 53.5 103.3C53.5 103.7 53.6 104.1 53.8 104.3C54 104.6 54.3 104.8 54.6 104.8C55 104.8 55.3 104.6 55.6 104.3L55.7 104.7Z" fill="#00404B"/>
<path d="M59.5 103.5C59.5 104 59.3 104.4 59 104.7C58.7 105 58.3 105.2 57.8 105.2C57.3 105.2 57 105 56.6 104.7C56.3 104.4 56.1 104 56.1 103.5C56.1 103 56.3 102.6 56.6 102.3C56.9 102 57.3 101.8 57.8 101.8C58.3 101.8 58.6 102 59 102.3C59.3 102.6 59.5 103 59.5 103.5ZM59 103.5C59 103.1 58.9 102.7 58.7 102.4C58.5 102.1 58.2 102 57.9 102C57.6 102 57.3 102.1 57.1 102.4C56.9 102.7 56.8 103 56.8 103.5C56.8 103.9 56.9 104.3 57.1 104.6C57.3 104.9 57.6 105 57.9 105C58.2 105 58.5 104.9 58.7 104.6C58.9 104.3 59 103.9 59 103.5Z" fill="#00404B"/>
<path d="M64.9 105.1H64.4V102.9C64.4 102.6 64.4 102.4 64.3 102.2C64.2 102.1 64.1 102 63.8 102C63.4 102 63.2 102.3 62.9 102.8V102.9V105.1H62.4V102.9C62.4 102.6 62.4 102.4 62.3 102.2C62.2 102.1 62 102 61.8 102C61.6 102 61.5 102.1 61.3 102.2C61.1 102.4 61 102.6 60.9 102.8V105.1H60.4V101.9H60.9V102.3C61.2 102 61.5 101.8 61.8 101.8C62.3 101.8 62.6 102 62.8 102.3C63.1 101.9 63.4 101.8 63.8 101.8C64.5 101.8 64.9 102.2 64.9 102.9V105.1Z" fill="#00404B"/>
<path d="M68.8 103.5C68.8 104 68.7 104.4 68.4 104.7C68.1 105 67.8 105.2 67.3 105.2C67 105.2 66.7 105.1 66.5 104.8V105.1H66V100.1H66.5V104.3C66.6 104.5 66.7 104.7 66.8 104.8C66.9 104.9 67.1 105 67.3 105C67.6 105 67.8 104.9 68 104.6C68.2 104.3 68.3 104 68.3 103.5C68.3 103.1 68.2 102.7 68 102.4C67.8 102.1 67.6 102 67.3 102C67.1 102 67 102.1 66.9 102.2L66.8 102C67 101.9 67.2 101.9 67.4 101.9C67.8 101.9 68.2 102.1 68.5 102.4C68.6 102.6 68.8 103 68.8 103.5Z" fill="#00404B"/>
<path d="M70.4 100.4C70.4 100.5 70.4 100.6 70.3 100.6C70.2 100.6 70.2 100.7 70.1 100.7C70 100.7 69.9 100.7 69.9 100.6C69.9 100.5 69.8 100.5 69.8 100.4C69.8 100.3 69.8 100.2 69.9 100.2C70 100.1 70 100.1 70.1 100.1C70.2 100.1 70.3 100.1 70.3 100.2C70.4 100.3 70.4 100.3 70.4 100.4ZM70.3 105.1H69.8V101.9H70.3V105.1Z" fill="#00404B"/>
<path d="M74.1 105.1H73.6V103C73.6 102.3 73.4 102 72.9 102C72.4 102 72.1 102.3 71.9 102.9V105.2H71.4V102H71.9V102.4C72.2 102 72.5 101.9 72.9 101.9C73.3 101.9 73.6 102 73.7 102.1C73.9 102.3 74 102.6 74 103V105.1H74.1Z" fill="#00404B"/>
<path d="M77.5 103V105.1H77V104.8C76.8 105 76.5 105.1 76.2 105.1C75.9 105.1 75.6 105 75.4 104.8C75.2 104.6 75 104.4 75 104C75 103.7 75.1 103.4 75.4 103.2C75.6 103 75.9 102.9 76.1 102.9C76.2 102.9 76.3 102.9 76.3 102.9C76.5 102.9 76.6 103 76.7 103L76.6 103.2C76.4 103.1 76.3 103 76.1 103C75.9 103 75.7 103.1 75.6 103.2C75.5 103.4 75.4 103.6 75.4 103.9C75.4 104.2 75.5 104.4 75.6 104.5C75.7 104.7 75.9 104.7 76.1 104.7C76.4 104.7 76.7 104.5 76.9 104.2V103C76.9 102.3 76.7 102 76.2 102C75.9 102 75.7 102.1 75.4 102.3L75.3 102.1C75.5 101.9 75.8 101.9 76.2 101.9C77.1 101.8 77.5 102.2 77.5 103Z" fill="#00404B"/>
<path d="M79.9 102H79.3V104C79.3 104.3 79.3 104.6 79.4 104.7C79.5 104.8 79.6 104.9 79.9 104.9V105.1C79.2 105.1 78.8 104.7 78.8 104V102H78.5V101.8H78.8V101.4H79.3V101.8H79.9V102Z" fill="#00404B"/>
<path d="M81.4 100.4C81.4 100.5 81.4 100.6 81.3 100.6C81.2 100.6 81.2 100.7 81.1 100.7C81 100.7 80.9 100.7 80.9 100.6C80.9 100.5 80.8 100.5 80.8 100.4C80.8 100.3 80.8 100.2 80.9 100.2C81 100.1 81 100.1 81.1 100.1C81.2 100.1 81.3 100.1 81.3 100.2C81.4 100.3 81.4 100.3 81.4 100.4ZM81.3 105.1H80.8V101.9H81.3V105.1Z" fill="#00404B"/>
<path d="M85.7 103.5C85.7 104 85.5 104.4 85.2 104.7C84.9 105 84.5 105.2 84 105.2C83.5 105.2 83.2 105 82.8 104.7C82.5 104.4 82.3 104 82.3 103.5C82.3 103 82.5 102.6 82.8 102.3C83.1 102 83.5 101.8 84 101.8C84.5 101.8 84.8 102 85.2 102.3C85.5 102.6 85.7 103 85.7 103.5ZM85.2 103.5C85.2 103.1 85.1 102.7 84.9 102.4C84.7 102.1 84.4 102 84.1 102C83.8 102 83.5 102.1 83.3 102.4C83.1 102.7 83 103 83 103.5C83 103.9 83.1 104.3 83.3 104.6C83.5 104.9 83.8 105 84.1 105C84.4 105 84.7 104.9 84.9 104.6C85 104.3 85.2 103.9 85.2 103.5Z" fill="#00404B"/>
<path d="M89.3 105.1H88.8V103C88.8 102.3 88.6 102 88.1 102C87.6 102 87.3 102.3 87.1 102.9V105.2H86.6V102H87.1V102.4C87.4 102 87.7 101.9 88.1 101.9C88.5 101.9 88.8 102 88.9 102.1C89.1 102.3 89.2 102.6 89.2 103V105.1H89.3Z" fill="#00404B"/>
<path d="M95.1 103.5C95.1 104 94.9 104.4 94.6 104.7C94.3 105 93.9 105.2 93.4 105.2C92.9 105.2 92.6 105 92.2 104.7C91.9 104.4 91.7 104 91.7 103.5C91.7 103 91.9 102.6 92.2 102.3C92.5 102 92.9 101.8 93.4 101.8C93.9 101.8 94.2 102 94.6 102.3C94.9 102.6 95.1 103 95.1 103.5ZM94.6 103.5C94.6 103.1 94.5 102.7 94.3 102.4C94.1 102.1 93.8 102 93.5 102C93.2 102 92.9 102.1 92.7 102.4C92.5 102.7 92.4 103 92.4 103.5C92.4 103.9 92.5 104.3 92.7 104.6C92.9 104.9 93.2 105 93.5 105C93.8 105 94.1 104.9 94.3 104.6C94.5 104.3 94.6 103.9 94.6 103.5Z" fill="#00404B"/>
<path d="M97.4 102H96.8V105.1H96.3V102H96V101.8H96.3V101.1C96.3 100.4 96.7 100 97.4 100V100.2C97.2 100.2 97 100.3 96.9 100.4C96.8 100.5 96.8 100.8 96.8 101.1V101.8H97.4V102Z" fill="#00404B"/>
<path d="M4.2 114.1H3.7V112C3.7 111.3 3.5 111 3 111C2.5 111 2.2 111.3 2 111.9V114.2H1.5V111H2V111.4C2.3 111 2.6 110.9 3 110.9C3.4 110.9 3.7 111 3.8 111.1C4 111.3 4.1 111.6 4.1 112V114.1H4.2Z" fill="#00404B"/>
<path d="M7.6 112V114.1H7.1V113.8C6.9 114 6.6 114.1 6.3 114.1C6 114.1 5.7 114 5.5 113.8C5.3 113.6 5.1 113.4 5.1 113C5.1 112.7 5.2 112.4 5.5 112.2C5.7 112 6 111.9 6.2 111.9C6.3 111.9 6.4 111.9 6.4 111.9C6.6 111.9 6.7 112 6.8 112L6.7 112.2C6.5 112.1 6.4 112 6.2 112C6 112 5.8 112.1 5.7 112.2C5.6 112.4 5.5 112.6 5.5 112.9C5.5 113.2 5.6 113.4 5.7 113.5C5.8 113.7 6 113.7 6.2 113.7C6.5 113.7 6.8 113.5 7 113.2V112C7 111.3 6.8 111 6.3 111C6 111 5.8 111.1 5.5 111.3L5.4 111.1C5.6 110.9 5.9 110.9 6.3 110.9C7.2 110.8 7.6 111.2 7.6 112Z" fill="#00404B"/>
<path d="M10 111H9.4V113C9.4 113.3 9.4 113.6 9.5 113.7C9.6 113.8 9.7 113.9 10 113.9V114.1C9.3 114.1 8.9 113.7 8.9 113V111H8.6V110.8H8.9V110.4H9.4V110.8H10V111Z" fill="#00404B"/>
<path d="M13.5 114.1H13V113.5C12.8 113.9 12.4 114.1 12 114.1C11.2 114.1 10.8 113.7 10.8 112.9V110.7H11.3V112.9C11.3 113.6 11.5 113.9 12 113.9C12.3 113.9 12.5 113.7 12.7 113.4C12.8 113.2 12.9 113 12.9 112.8V110.7H13.4V114.1H13.5Z" fill="#00404B"/>
<path d="M16.2 111L16.1 111.2C16 111.1 15.8 111.1 15.7 111.1C15.6 111.1 15.6 111.1 15.5 111.2C15.3 111.3 15.2 111.6 15.2 112.1V114.2H14.7V111H15.2V111.4C15.3 111.3 15.3 111.2 15.4 111.1C15.5 111 15.6 111 15.8 111C16 111 16 110.9 16.2 111Z" fill="#00404B"/>
<path d="M19.3 112V114.1H18.8V113.8C18.6 114 18.3 114.1 18 114.1C17.7 114.1 17.4 114 17.2 113.8C17 113.6 16.8 113.4 16.8 113C16.8 112.7 16.9 112.4 17.2 112.2C17.4 112 17.7 111.9 17.9 111.9C18 111.9 18.1 111.9 18.1 111.9C18.3 111.9 18.4 112 18.5 112L18.4 112.2C18.2 112.1 18.1 112 17.9 112C17.7 112 17.5 112.1 17.4 112.2C17.3 112.4 17.2 112.6 17.2 112.9C17.2 113.2 17.3 113.4 17.4 113.5C17.5 113.7 17.7 113.7 17.9 113.7C18.2 113.7 18.5 113.5 18.7 113.2V112C18.7 111.3 18.5 111 18 111C17.7 111 17.5 111.1 17.2 111.3L17.1 111.1C17.3 110.9 17.6 110.9 18 110.9C18.9 110.8 19.3 111.2 19.3 112Z" fill="#00404B"/>
<path d="M20.9 114.1H20.4V109.1H20.9V114.1Z" fill="#00404B"/>
<path d="M23.8 114.1H23.3V109.1H23.8V114.1Z" fill="#00404B"/>
<path d="M27.3 112V114.1H26.8V113.8C26.6 114 26.3 114.1 26 114.1C25.7 114.1 25.4 114 25.2 113.8C25 113.6 24.8 113.4 24.8 113C24.8 112.7 24.9 112.4 25.2 112.2C25.4 112 25.7 111.9 25.9 111.9C26 111.9 26.1 111.9 26.1 111.9C26.3 111.9 26.4 112 26.5 112L26.4 112.2C26.2 112.1 26.1 112 25.9 112C25.7 112 25.5 112.1 25.4 112.2C25.3 112.4 25.2 112.6 25.2 112.9C25.2 113.2 25.3 113.4 25.4 113.5C25.5 113.7 25.7 113.7 25.9 113.7C26.2 113.7 26.5 113.5 26.7 113.2V112C26.7 111.3 26.5 111 26 111C25.7 111 25.5 111.1 25.2 111.3L25.1 111.1C25.3 110.9 25.6 110.9 26 110.9C26.9 110.8 27.3 111.2 27.3 112Z" fill="#00404B"/>
<path d="M31 114.1H30.5V112C30.5 111.3 30.3 111 29.8 111C29.3 111 29 111.3 28.8 111.9V114.2H28.3V111H28.8V111.4C29.1 111 29.4 110.9 29.8 110.9C30.2 110.9 30.5 111 30.6 111.1C30.8 111.3 30.9 111.6 30.9 112V114.1H31Z" fill="#00404B"/>
<path d="M34.8 114.1H34.3V113.8C34.1 114 33.8 114.2 33.5 114.2C33.1 114.2 32.7 114 32.4 113.7C32.1 113.4 32 113 32 112.5C32 112 32.1 111.6 32.4 111.3C32.7 111 33 110.8 33.5 110.8C33.7 110.8 33.9 110.8 34.1 110.9L34 111.1C33.8 111 33.7 110.9 33.5 110.9C33.3 110.9 33 111 32.9 111.3C32.7 111.6 32.6 112 32.6 112.4C32.6 112.8 32.7 113.2 32.9 113.5C33.1 113.8 33.3 113.9 33.6 113.9C33.8 113.9 33.9 113.8 34.1 113.7C34.2 113.6 34.3 113.4 34.4 113.2V109H34.9V114.1H34.8Z" fill="#00404B"/>
<path d="M37.7 113.3C37.7 113.6 37.6 113.8 37.4 113.9C37.2 114.1 37 114.1 36.7 114.1C36.3 114.1 36 114 35.8 113.7L36 113.5C36.2 113.8 36.5 113.9 36.8 113.9C37 113.9 37.1 113.8 37.2 113.7C37.3 113.6 37.4 113.4 37.4 113.3C37.4 113.1 37.3 112.9 37.1 112.8C37 112.7 36.8 112.6 36.5 112.4C36.1 112.2 36 111.9 36 111.5C36 111.3 36.1 111.1 36.3 110.9C36.5 110.8 36.7 110.7 36.9 110.7C37 110.7 37.2 110.7 37.4 110.8C37.6 110.9 37.7 111 37.7 111.1L37.5 111.3C37.3 111 37.1 110.9 36.8 110.9C36.5 110.9 36.3 111 36.3 111.3C36.3 111.5 36.4 111.7 36.6 111.9C37 112.1 37.2 112.3 37.3 112.4C37.6 112.7 37.8 113 37.7 113.3Z" fill="#00404B"/>
<path d="M41.4 113.7C41.1 114 40.7 114.1 40.3 114.1C39.8 114.1 39.5 113.9 39.1 113.6C38.8 113.3 38.6 112.9 38.6 112.4C38.6 111.9 38.8 111.5 39.1 111.2C39.4 110.9 39.8 110.7 40.3 110.7C40.7 110.7 41 110.8 41.3 111L41.2 111.2C41 111 40.7 110.8 40.3 110.8C40 110.8 39.7 111 39.5 111.3C39.3 111.6 39.2 111.9 39.2 112.3C39.2 112.7 39.3 113.1 39.5 113.3C39.7 113.6 40 113.8 40.3 113.8C40.7 113.8 41 113.6 41.3 113.3L41.4 113.7Z" fill="#00404B"/>
<path d="M44.4 112V114.1H44V113.8C43.8 114 43.5 114.1 43.2 114.1C42.9 114.1 42.6 114 42.4 113.8C42.2 113.6 42 113.4 42 113C42 112.7 42.1 112.4 42.4 112.2C42.6 112 42.9 111.9 43.1 111.9C43.2 111.9 43.3 111.9 43.3 111.9C43.5 111.9 43.6 112 43.7 112L43.6 112.2C43.4 112.1 43.3 112 43.1 112C42.9 112 42.7 112.1 42.6 112.2C42.5 112.4 42.4 112.6 42.4 112.9C42.4 113.2 42.5 113.4 42.6 113.5C42.7 113.7 42.9 113.7 43.1 113.7C43.4 113.7 43.7 113.5 43.9 113.2V112C43.9 111.3 43.7 111 43.2 111C42.9 111 42.7 111.1 42.4 111.3L42.3 111.1C42.5 110.9 42.8 110.9 43.2 110.9C44 110.8 44.4 111.2 44.4 112Z" fill="#00404B"/>
<path d="M48.3 112.5C48.3 113 48.2 113.3 47.9 113.7C47.6 114 47.3 114.2 46.9 114.2C46.7 114.2 46.5 114.2 46.3 114.1L46.4 113.9C46.5 114 46.7 114.1 46.9 114.1C47.1 114.1 47.4 114 47.5 113.7C47.7 113.4 47.8 113.1 47.8 112.6C47.8 112.2 47.7 111.8 47.5 111.5C47.3 111.2 47.1 111.1 46.8 111.1C46.6 111.1 46.5 111.2 46.3 111.3C46.2 111.4 46.1 111.6 46 111.8V115.4H45.5V111H46V111.3C46.2 111.1 46.5 110.9 46.8 110.9C47.2 110.9 47.6 111.1 47.8 111.4C48.2 111.7 48.3 112.1 48.3 112.5Z" fill="#00404B"/>
<path d="M52.1 112.1H50.1V111.9H51.6C51.6 111.3 51.3 111 50.8 111C50.5 111 50.2 111.1 50 111.4C49.8 111.7 49.7 112 49.7 112.5C49.7 113 49.8 113.3 50 113.6C50.2 113.9 50.5 114 50.8 114C51.2 114 51.5 113.8 51.8 113.5L52 113.7C51.7 114 51.3 114.2 50.9 114.2C50.4 114.2 50.1 114 49.7 113.7C49.4 113.4 49.2 113 49.2 112.5C49.2 112 49.4 111.6 49.7 111.3C50 111 50.4 110.8 50.8 110.8C51.1 110.8 51.4 110.9 51.7 111.2C52 111.4 52.1 111.7 52.1 112.1Z" fill="#00404B"/>
<path d="M56.8 112V114.1H56.3V113.8C56.1 114 55.8 114.1 55.5 114.1C55.2 114.1 54.9 114 54.7 113.8C54.5 113.6 54.3 113.4 54.3 113C54.3 112.7 54.4 112.4 54.7 112.2C54.9 112 55.2 111.9 55.4 111.9C55.5 111.9 55.6 111.9 55.6 111.9C55.8 111.9 55.9 112 56 112L55.9 112.2C55.7 112.1 55.6 112 55.4 112C55.2 112 55 112.1 54.9 112.2C54.8 112.4 54.7 112.6 54.7 112.9C54.7 113.2 54.8 113.4 54.9 113.5C55 113.7 55.2 113.7 55.4 113.7C55.7 113.7 56 113.5 56.2 113.2V112C56.2 111.3 56 111 55.5 111C55.2 111 55 111.1 54.7 111.3L54.6 111.1C54.8 110.9 55.1 110.9 55.5 110.9C56.4 110.8 56.8 111.2 56.8 112Z" fill="#00404B"/>
<path d="M60.5 114.1H60V112C60 111.3 59.8 111 59.3 111C58.8 111 58.5 111.3 58.3 111.9V114.2H57.8V111H58.3V111.4C58.6 111 58.9 110.9 59.3 110.9C59.7 110.9 60 111 60.1 111.1C60.3 111.3 60.4 111.6 60.4 112V114.1H60.5Z" fill="#00404B"/>
<path d="M64.4 114.1H63.9V113.8C63.7 114 63.4 114.2 63.1 114.2C62.7 114.2 62.3 114 62 113.7C61.7 113.4 61.6 113 61.6 112.5C61.6 112 61.7 111.6 62 111.3C62.3 111 62.6 110.8 63.1 110.8C63.3 110.8 63.5 110.8 63.7 110.9L63.6 111.1C63.4 111 63.3 110.9 63.1 110.9C62.9 110.9 62.6 111 62.5 111.3C62.3 111.6 62.2 112 62.2 112.4C62.2 112.8 62.3 113.2 62.5 113.5C62.7 113.8 62.9 113.9 63.2 113.9C63.4 113.9 63.5 113.8 63.7 113.7C63.9 113.6 63.9 113.4 64 113.2V109H64.5V114.1H64.4Z" fill="#00404B"/>
<path d="M69.2 112V114.1H68.7V113.8C68.5 114 68.2 114.1 67.9 114.1C67.6 114.1 67.3 114 67.1 113.8C66.9 113.6 66.7 113.4 66.7 113C66.7 112.7 66.8 112.4 67.1 112.2C67.3 112 67.6 111.9 67.8 111.9C67.9 111.9 68 111.9 68 111.9C68.2 111.9 68.3 112 68.4 112L68.3 112.2C68.1 112.1 68 112 67.8 112C67.6 112 67.4 112.1 67.3 112.2C67.2 112.4 67.1 112.6 67.1 112.9C67.1 113.2 67.2 113.4 67.3 113.5C67.4 113.7 67.6 113.7 67.8 113.7C68.1 113.7 68.4 113.5 68.6 113.2V112C68.6 111.3 68.4 111 67.9 111C67.6 111 67.4 111.1 67.1 111.3L67 111.1C67.2 110.9 67.5 110.9 67.9 110.9C68.8 110.8 69.2 111.2 69.2 112Z" fill="#00404B"/>
<path d="M71.9 111L71.8 111.2C71.7 111.1 71.5 111.1 71.4 111.1C71.3 111.1 71.3 111.1 71.2 111.2C71 111.3 70.9 111.6 70.9 112.1V114.2H70.4V111H70.9V111.4C71 111.3 71 111.2 71.1 111.1C71.2 111 71.3 111 71.5 111C71.6 110.8 71.8 110.9 71.9 111Z" fill="#00404B"/>
<path d="M74.1 111H73.5V113C73.5 113.3 73.5 113.6 73.6 113.7C73.7 113.8 73.8 113.9 74.1 113.9V114.1C73.4 114.1 73 113.7 73 113V111H72.7V110.8H73V110.4H73.5V110.8H74.1V111Z" fill="#00404B"/>
<path d="M75.6 109.4C75.6 109.5 75.6 109.6 75.5 109.6C75.4 109.6 75.4 109.7 75.3 109.7C75.2 109.7 75.1 109.7 75.1 109.6C75.1 109.5 75 109.5 75 109.4C75 109.3 75 109.2 75.1 109.2C75.2 109.1 75.2 109.1 75.3 109.1C75.4 109.1 75.5 109.1 75.5 109.2C75.6 109.3 75.6 109.3 75.6 109.4ZM75.6 114.1H75.1V110.9H75.6V114.1Z" fill="#00404B"/>
<path d="M78.4 113.3C78.4 113.6 78.3 113.8 78.1 113.9C77.9 114.1 77.7 114.1 77.4 114.1C77 114.1 76.7 114 76.5 113.7L76.7 113.5C76.9 113.8 77.2 113.9 77.5 113.9C77.7 113.9 77.8 113.8 77.9 113.7C78 113.6 78.1 113.4 78.1 113.3C78.1 113.1 78 112.9 77.8 112.8C77.7 112.7 77.5 112.6 77.2 112.4C76.8 112.2 76.7 111.9 76.7 111.5C76.7 111.3 76.8 111.1 77 110.9C77.2 110.8 77.4 110.7 77.6 110.7C77.8 110.7 77.9 110.7 78.1 110.8C78.3 110.9 78.4 111 78.4 111.1L78.2 111.3C78 111 77.8 110.9 77.5 110.9C77.2 110.9 77 111 77 111.3C77 111.5 77.1 111.7 77.3 111.9C77.7 112.1 77.9 112.3 78 112.4C78.3 112.7 78.4 113 78.4 113.3Z" fill="#00404B"/>
<path d="M80.7 111H80.1V113C80.1 113.3 80.1 113.6 80.2 113.7C80.3 113.8 80.4 113.9 80.7 113.9V114.1C80 114.1 79.6 113.7 79.6 113V111H79.3V110.8H79.6V110.4H80.1V110.8H80.7V111Z" fill="#00404B"/>
<path d="M82.2 109.4C82.2 109.5 82.2 109.6 82.1 109.6C82 109.6 82 109.7 81.9 109.7C81.8 109.7 81.7 109.7 81.7 109.6C81.7 109.5 81.6 109.5 81.6 109.4C81.6 109.3 81.6 109.2 81.7 109.2C81.8 109.1 81.8 109.1 81.9 109.1C82 109.1 82.1 109.1 82.1 109.2C82.2 109.3 82.2 109.3 82.2 109.4ZM82.1 114.1H81.6V110.9H82.1V114.1Z" fill="#00404B"/>
<path d="M86 113.7C85.7 114 85.3 114.1 84.9 114.1C84.4 114.1 84.1 113.9 83.7 113.6C83.4 113.3 83.2 112.9 83.2 112.4C83.2 111.9 83.4 111.5 83.7 111.2C84 110.9 84.4 110.7 84.9 110.7C85.3 110.7 85.6 110.8 85.9 111L85.8 111.2C85.6 111 85.3 110.8 84.9 110.8C84.6 110.8 84.3 111 84.1 111.3C83.9 111.6 83.8 111.9 83.8 112.3C83.8 112.7 83.9 113.1 84.1 113.3C84.3 113.6 84.6 113.8 84.9 113.8C85.3 113.8 85.6 113.6 85.9 113.3L86 113.7Z" fill="#00404B"/>
<path d="M90.7 112.1H88.7V111.9H90.2C90.2 111.3 89.9 111 89.4 111C89.1 111 88.8 111.1 88.6 111.4C88.4 111.7 88.3 112 88.3 112.5C88.3 113 88.4 113.3 88.6 113.6C88.8 113.9 89.1 114 89.4 114C89.8 114 90.1 113.8 90.4 113.5L90.6 113.7C90.3 114 89.9 114.2 89.5 114.2C89 114.2 88.7 114 88.3 113.7C88 113.4 87.8 113 87.8 112.5C87.8 112 88 111.6 88.3 111.3C88.6 111 89 110.8 89.4 110.8C89.7 110.8 90 110.9 90.3 111.2C90.6 111.4 90.7 111.7 90.7 112.1Z" fill="#00404B"/>
<path d="M94.4 114.1H93.8L92.8 112.6L91.6 114.1H91.4L92.7 112.5L91.6 110.9H92.2L93.1 112.2L94.1 110.9H94.3L93.2 112.3L94.4 114.1Z" fill="#00404B"/>
<path d="M98 112.5C98 113 97.9 113.3 97.6 113.7C97.3 114 97 114.2 96.6 114.2C96.4 114.2 96.2 114.2 96 114.1L96.1 113.9C96.2 114 96.4 114.1 96.6 114.1C96.8 114.1 97.1 114 97.2 113.7C97.4 113.4 97.5 113.1 97.5 112.6C97.5 112.2 97.4 111.8 97.2 111.5C97 111.2 96.8 111.1 96.5 111.1C96.3 111.1 96.2 111.2 96 111.3C95.9 111.4 95.8 111.6 95.7 111.8V115.4H95.2V111H95.7V111.3C95.9 111.1 96.2 110.9 96.5 110.9C96.9 110.9 97.3 111.1 97.5 111.4C97.8 111.7 98 112.1 98 112.5Z" fill="#00404B"/>
<path d="M100.5 111L100.4 111.2C100.3 111.1 100.1 111.1 100 111.1C99.9 111.1 99.9 111.1 99.8 111.2C99.6 111.3 99.5 111.6 99.5 112.1V114.2H99V111H99.5V111.4C99.6 111.3 99.6 111.2 99.7 111.1C99.8 111 99.9 111 100.1 111C100.2 110.8 100.4 110.9 100.5 111Z" fill="#00404B"/>
<path d="M103.9 112.1H101.9V111.9H103.4C103.4 111.3 103.1 111 102.6 111C102.3 111 102 111.1 101.8 111.4C101.6 111.7 101.5 112 101.5 112.5C101.5 113 101.6 113.3 101.8 113.6C102 113.9 102.3 114 102.6 114C103 114 103.3 113.8 103.6 113.5L103.8 113.7C103.5 114 103.1 114.2 102.7 114.2C102.2 114.2 101.9 114 101.5 113.7C101.2 113.4 101 113 101 112.5C101 112 101.2 111.6 101.5 111.3C101.8 111 102.2 110.8 102.6 110.8C102.9 110.8 103.2 110.9 103.5 111.2C103.8 111.4 103.9 111.7 103.9 112.1Z" fill="#00404B"/>
<path d="M106.6 113.3C106.6 113.6 106.5 113.8 106.3 113.9C106.1 114.1 105.9 114.1 105.6 114.1C105.2 114.1 104.9 114 104.7 113.7L104.9 113.5C105.1 113.8 105.4 113.9 105.7 113.9C105.9 113.9 106 113.8 106.1 113.7C106.2 113.6 106.3 113.4 106.3 113.3C106.3 113.1 106.2 112.9 106 112.8C105.9 112.7 105.7 112.6 105.4 112.4C105 112.2 104.9 111.9 104.9 111.5C104.9 111.3 105 111.1 105.2 110.9C105.4 110.8 105.6 110.7 105.8 110.7C105.9 110.7 106.1 110.7 106.3 110.8C106.5 110.9 106.6 111 106.6 111.1L106.4 111.3C106.2 111 106 110.9 105.7 110.9C105.4 110.9 105.2 111 105.2 111.3C105.2 111.5 105.3 111.7 105.5 111.9C105.9 112.1 106.1 112.3 106.2 112.4C106.5 112.7 106.7 113 106.6 113.3Z" fill="#00404B"/>
<path d="M109.4 113.3C109.4 113.6 109.3 113.8 109.1 113.9C108.9 114.1 108.7 114.1 108.4 114.1C108 114.1 107.7 114 107.5 113.7L107.6 113.5C107.8 113.8 108.1 113.9 108.4 113.9C108.6 113.9 108.7 113.8 108.8 113.7C108.9 113.6 109 113.4 109 113.3C109 113.1 108.9 112.9 108.7 112.8C108.6 112.7 108.4 112.6 108.1 112.4C107.7 112.2 107.6 111.9 107.6 111.5C107.6 111.3 107.7 111.1 107.9 110.9C108.1 110.8 108.3 110.7 108.5 110.7C108.7 110.7 108.8 110.7 109 110.8C109.2 110.9 109.3 111 109.3 111.1L109.1 111.3C108.9 111 108.7 110.9 108.4 110.9C108.1 110.9 107.9 111 107.9 111.3C107.9 111.5 108 111.7 108.2 111.9C108.6 112.1 108.8 112.3 108.9 112.4C109.3 112.7 109.4 113 109.4 113.3Z" fill="#00404B"/>
<path d="M111 109.4C111 109.5 111 109.6 110.9 109.6C110.8 109.6 110.8 109.7 110.7 109.7C110.6 109.7 110.5 109.7 110.5 109.6C110.5 109.5 110.4 109.5 110.4 109.4C110.4 109.3 110.4 109.2 110.5 109.2C110.6 109.1 110.6 109.1 110.7 109.1C110.8 109.1 110.9 109.1 110.9 109.2C111 109.3 111 109.3 111 109.4ZM110.9 114.1H110.4V110.9H110.9V114.1Z" fill="#00404B"/>
<path d="M115.3 112.5C115.3 113 115.1 113.4 114.8 113.7C114.5 114 114.1 114.2 113.6 114.2C113.1 114.2 112.8 114 112.4 113.7C112.1 113.4 111.9 113 111.9 112.5C111.9 112 112.1 111.6 112.4 111.3C112.7 111 113.1 110.8 113.6 110.8C114.1 110.8 114.4 111 114.8 111.3C115.1 111.6 115.3 112 115.3 112.5ZM114.7 112.5C114.7 112.1 114.6 111.7 114.4 111.4C114.2 111.1 113.9 111 113.6 111C113.3 111 113 111.1 112.8 111.4C112.6 111.7 112.5 112 112.5 112.5C112.5 112.9 112.6 113.3 112.8 113.6C113 113.9 113.3 114 113.6 114C113.9 114 114.2 113.9 114.4 113.6C114.6 113.3 114.7 112.9 114.7 112.5Z" fill="#00404B"/>
<path d="M118.9 114.1H118.4V112C118.4 111.3 118.2 111 117.7 111C117.2 111 116.9 111.3 116.7 111.9V114.2H116.2V111H116.7V111.4C117 111 117.3 110.9 117.7 110.9C118.1 110.9 118.4 111 118.5 111.1C118.7 111.3 118.8 111.6 118.8 112V114.1H118.9Z" fill="#00404B"/>
<path d="M120.6 113.9C120.6 114 120.6 114.1 120.5 114.1C120.4 114.1 120.4 114.2 120.3 114.2C120.2 114.2 120.1 114.2 120.1 114.1C120.1 114 120 114 120 113.9C120 113.8 120 113.7 120.1 113.7C120.2 113.7 120.2 113.6 120.3 113.6C120.4 113.6 120.5 113.6 120.5 113.7C120.5 113.8 120.6 113.8 120.6 113.9Z" fill="#00404B"/>
</svg>
