<svg width="237" height="116" viewBox="0 0 237 116" fill="none" xmlns="http://www.w3.org/2000/svg">
<path d="M26.7 3.39996H16V33.9H11.1001V3.39996H0.300049V1.39996H26.7V3.39996Z" fill="#C9A063"/>
<path d="M62.9 33.7V33.9H56.6C55.2 33.8 54 32.7 54 31.2V18.2H37.7V33.9H32.8V5.89996C32.8 3.99996 31.6 2.39996 29.8 1.89996H29.7L28.9 1.70001V1.5H35.1C35.9 1.5 36.5 1.79999 37 2.29999C37.4 2.79999 37.8 3.50001 37.8 4.20001V16.7H54.1V1.59998H59V29.6C59 31.5 60.2 33.1 62.1 33.7H62.2H62.9Z" fill="#C9A063"/>
<path d="M88.4001 32.2V33.9H67.9001V5.89996C67.9001 3.99996 66.7001 2.39998 64.0001 1.59998V1.39996H88.4001V3.09998H72.8001V16H85.8001V18H72.8001V32.2H88.4001V32.2Z" fill="#C9A063"/>
<path d="M134.3 1.39996L119.8 34.5L106.6 4.09998C106.1 2.99998 105.1 2.19996 104 1.89996L103 1.59998V1.39996H107.3C109 1.39996 110.6 2.49998 111.3 4.09998L121 26.6L132 1.5H134.3V1.39996Z" fill="#C9A063"/>
<path d="M166.3 17.6C166.3 29.4 159.3 34.5 150.6 34.5C141.9 34.5 134.9 29.4 134.9 17.6C134.9 6.19998 141.9 0.700012 150.6 0.700012C159.3 0.700012 166.3 6.09998 166.3 17.6ZM161 17.6C161 7.19998 156.4 2.20001 150.7 2.20001C145 2.20001 140.4 7.29998 140.4 17.6C140.4 28.3 145.1 33 150.7 33C156.3 33 161 28.3 161 17.6Z" fill="#C9A063"/>
<path d="M177.1 1.39996V33.9H172.7V5.89996C172.7 3.99996 171.5 2.39998 168.8 1.59998V1.39996H177.1Z" fill="#C9A063"/>
<path d="M210.5 28C210.1 28.8 206.5 34.7 197.3 34.7C187.4 34.7 181.6 27.2 181.6 17.8C181.6 8.49999 187.4 0.899963 197.3 0.899963C206.7 0.899963 210.2 7.10001 210.6 7.70001L209.5 8.79999C199.3 -3.40001 187.2 4.69999 187.2 17.8C187.2 29.9 199.3 39.1 209.4 26.9L210.5 28Z" fill="#C9A063"/>
<path d="M236.9 32.2V33.9H216.4V5.89996C216.4 3.99996 215.2 2.39998 212.5 1.59998V1.39996H236.9V3.09998H221.3V16H234.3V18H221.3V32.2H236.9V32.2Z" fill="#C9A063"/>
<path d="M42.9 48.7L30.4 81.8L22.5 59.2L14.8 81.8L3.70004 51.4C3.50004 50.9 3.20005 50.4 2.80005 50C2.40005 49.6 1.90005 49.3 1.30005 49.2L0.300049 48.9V48.7H4.60005C6.30005 48.7 7.80004 49.8 8.40004 51.4L15.9 72.2L23.9 48.7L31.9 71.8L40.6001 48.7H42.9V48.7Z" fill="#C9A063"/>
<path d="M75.1001 64.8C75.1001 76.6 68.1001 81.7 59.4001 81.7C50.7001 81.7 43.7001 76.6 43.7001 64.8C43.7001 53.4 50.7001 47.9 59.4001 47.9C68.1001 48 75.1001 53.4 75.1001 64.8ZM69.8001 64.8C69.8001 54.4 65.2001 49.4 59.5001 49.4C53.8001 49.4 49.2001 54.5 49.2001 64.8C49.2001 75.5 53.9001 80.2 59.5001 80.2C65.2001 80.2 69.8001 75.6 69.8001 64.8Z" fill="#C9A063"/>
<path d="M104.1 81.2H98.6L88.3 66.6C87 66.6 85.7 66.6 84.7 66.6V81.2H79.8V53.3C79.8 51.3 78.3 49.3 75.9 49V48.8H84.7C89.8 48.8 100.1 48.6999 100.1 57.8999C100.1 63.0999 96.9 65.3 93.4 66.2L104.1 81.2ZM93.2 63C93.5 62.6 93.8 62.2 94 61.8C94.3 61.3 94.4 60.7 94.6 60.1C94.7 59.4 94.8 58.6 94.8 57.8C94.6 50.7 89.1 50.3 88.1 50.3H84.6V64.8H88.1C88.7 64.8 89.3 64.8 89.8 64.7C90.6 64.6 91.5 64.2999 92.2 63.8999C92.6 63.5999 92.9 63.3 93.2 63Z" fill="#C9A063"/>
<path d="M129 79.2V81.2H108.1V53.2C108.1 51.3 106.9 49.7 104.2 48.9V48.7H112.5V79.2H129Z" fill="#C9A063"/>
<path d="M161.4 64.9C161.4 81.9 143.9 81.1 143.5 81.1H133.2V53.1C133.2 51.1 131.7 49.1 129.3 48.8V48.6H143.6C143.8 48.7 161.4 47.7 161.4 64.9ZM155.9 64.9C155.9 50.3 145.5 50.3 143.4 50.3H138V79.5H143.5C145.1 79.5 156 79.4 155.9 64.9Z" fill="#C9A063"/>
<path d="M4.39996 103.7C4.39996 104.2 4.19997 104.6 3.69997 104.9C3.29997 105.1 2.89997 105.2 2.29997 105.2C2.19997 105.2 1.89996 105.2 1.39996 105.2V100H2.29997C2.79997 100 3.19997 100.1 3.49997 100.2C3.89997 100.4 4.09998 100.7 4.09998 101.1C4.09998 101.4 3.99997 101.6 3.79997 101.9C3.59997 102.1 3.39998 102.3 3.09998 102.4C3.49998 102.5 3.79997 102.6 3.99997 102.8C4.29997 103 4.39996 103.3 4.39996 103.7ZM3.89996 103.7C3.89996 103.3 3.79997 103 3.49997 102.8C3.29997 102.6 2.99998 102.5 2.59998 102.5H2.29997V102.3H2.49997C2.89997 102.3 3.09997 102.2 3.29997 101.9C3.39997 101.7 3.49997 101.4 3.49997 101.2C3.49997 100.5 2.99998 100.1 2.09998 100.1H1.79997V105H2.09998C3.29998 105 3.89996 104.6 3.89996 103.7Z" fill="#00404B"/>
<path d="M8.19992 103.1H6.19992V102.9H7.69992C7.69992 102.3 7.39992 102 6.89992 102C6.59992 102 6.29993 102.1 6.09993 102.4C5.89993 102.7 5.79993 103 5.79993 103.5C5.79993 104 5.89993 104.3 6.09993 104.6C6.29993 104.9 6.59992 105 6.89992 105C7.29992 105 7.59992 104.8 7.89992 104.5L8.09993 104.7C7.79993 105 7.39992 105.2 6.99992 105.2C6.49992 105.2 6.19993 105 5.79993 104.7C5.49993 104.4 5.29993 104 5.29993 103.5C5.29993 103 5.49993 102.6 5.79993 102.3C6.09993 102 6.49992 101.8 6.89992 101.8C7.19992 101.8 7.49993 101.9 7.79993 102.2C8.09993 102.5 8.19992 102.8 8.19992 103.1Z" fill="#00404B"/>
<path d="M11.4 103V105.1H10.9V104.8C10.7 105 10.4 105.1 10.1 105.1C9.79998 105.1 9.49997 105 9.29997 104.8C9.09997 104.6 8.89996 104.4 8.89996 104C8.89996 103.7 8.99997 103.4 9.29997 103.2C9.49997 103 9.79997 102.9 9.99997 102.9C10.1 102.9 10.2 102.9 10.2 102.9C10.4 102.9 10.5 103 10.6 103L10.5 103.2C10.3 103.1 10.2 103 9.99997 103C9.79997 103 9.59997 103.1 9.49997 103.2C9.39997 103.4 9.29997 103.6 9.29997 103.9C9.29997 104.2 9.39997 104.4 9.49997 104.5C9.59997 104.7 9.79997 104.7 9.99997 104.7C10.3 104.7 10.6 104.5 10.8 104.2V102.7C10.8 102 10.6 101.7 10.1 101.7C9.79998 101.7 9.59997 101.8 9.29997 102L9.19997 101.8C9.39997 101.6 9.69998 101.6 10.1 101.6C11 101.8 11.4 102.2 11.4 103Z" fill="#00404B"/>
<path d="M15.1 105.1H14.6V104.5C14.4 104.9 14 105.1 13.6 105.1C12.8 105.1 12.4 104.7 12.4 103.9V101.7H12.9V103.9C12.9 104.6 13.1 104.9 13.6 104.9C13.9 104.9 14.1 104.7 14.3 104.4C14.4 104.2 14.5 104 14.5 103.8V101.7H15V105.1H15.1Z" fill="#00404B"/>
<path d="M17.5 102H16.9V104C16.9 104.3 16.9 104.6 17 104.7C17.1 104.8 17.2 104.9 17.5 104.9V105.1C16.8 105.1 16.4 104.7 16.4 104V102H16.1V101.8H16.4V101.4H16.9V101.8H17.5V102Z" fill="#00404B"/>
<path d="M21.3 101.9L19.5 106.4H19.3L19.8 105.1L18.4 101.9H18.9L20 104.5L21 101.9H21.3Z" fill="#00404B"/>
<path d="M24.1 105.1H23.6V100.1H24.1V105.1Z" fill="#00404B"/>
<path d="M25.8 100.5C25.8 100.6 25.8 100.7 25.7 100.7C25.6 100.7 25.6 100.8 25.5 100.8C25.4 100.8 25.3 100.8 25.3 100.7C25.3 100.6 25.2 100.6 25.2 100.5C25.2 100.4 25.2 100.3 25.3 100.3C25.4 100.2 25.4 100.2 25.5 100.2C25.6 100.2 25.7 100.2 25.7 100.3C25.8 100.3 25.8 100.4 25.8 100.5ZM25.8 105.1H25.3V101.9H25.8V105.1Z" fill="#00404B"/>
<path d="M29.6999 103.1H27.6999V102.9H29.1999C29.1999 102.3 28.8999 102 28.3999 102C28.0999 102 27.7999 102.1 27.5999 102.4C27.3999 102.7 27.2999 103 27.2999 103.5C27.2999 104 27.3999 104.3 27.5999 104.6C27.7999 104.9 28.0999 105 28.3999 105C28.7999 105 29.0999 104.8 29.3999 104.5L29.5999 104.7C29.2999 105 28.8999 105.2 28.4999 105.2C27.9999 105.2 27.6999 105 27.2999 104.7C26.9999 104.4 26.7999 104 26.7999 103.5C26.7999 103 26.9999 102.6 27.2999 102.3C27.5999 102 27.9999 101.8 28.3999 101.8C28.6999 101.8 28.9999 101.9 29.2999 102.2C29.5999 102.5 29.6999 102.8 29.6999 103.1Z" fill="#00404B"/>
<path d="M32.3999 104.3C32.3999 104.6 32.2999 104.8 32.0999 104.9C31.8999 105.1 31.6999 105.1 31.3999 105.1C30.9999 105.1 30.6999 105 30.4999 104.7L30.6999 104.5C30.8999 104.8 31.1999 104.9 31.4999 104.9C31.6999 104.9 31.7999 104.8 31.8999 104.7C31.9999 104.6 32.0999 104.4 32.0999 104.3C32.0999 104.1 31.9999 103.9 31.7999 103.8C31.6999 103.7 31.4999 103.6 31.1999 103.4C30.7999 103.2 30.6999 102.9 30.6999 102.5C30.6999 102.3 30.7999 102.1 30.9999 101.9C31.1999 101.8 31.3999 101.7 31.5999 101.7C31.6999 101.7 31.8999 101.7 32.0999 101.8C32.2999 101.9 32.3999 102 32.3999 102.1L32.1999 102.3C31.9999 102 31.7999 101.9 31.4999 101.9C31.1999 101.9 30.9999 102 30.9999 102.3C30.9999 102.5 31.0999 102.7 31.2999 102.9C31.6999 103.1 31.8999 103.3 31.9999 103.4C32.2999 103.7 32.3999 104 32.3999 104.3Z" fill="#00404B"/>
<path d="M35.3999 100.5C35.3999 100.6 35.3999 100.7 35.2999 100.7C35.1999 100.7 35.1999 100.8 35.0999 100.8C34.9999 100.8 34.8999 100.8 34.8999 100.7C34.8999 100.6 34.7999 100.6 34.7999 100.5C34.7999 100.4 34.7999 100.3 34.8999 100.3C34.9999 100.2 34.9999 100.2 35.0999 100.2C35.1999 100.2 35.2999 100.2 35.2999 100.3C35.3999 100.3 35.3999 100.4 35.3999 100.5ZM35.2999 105.1H34.7999V101.9H35.2999V105.1Z" fill="#00404B"/>
<path d="M39.1 105.1H38.6V102.9C38.6 102.2 38.4 101.9 37.9 101.9C37.4 101.9 37.1 102.2 36.9 102.8V105.1H36.4V101.9H36.9V102.3C37.2 101.9 37.5 101.8 37.9 101.8C38.3 101.8 38.6 101.9 38.7 102C38.9 102.2 39 102.5 39 102.9V105.1H39.1Z" fill="#00404B"/>
<path d="M43 102H42.4V104C42.4 104.3 42.4 104.6 42.5 104.7C42.6 104.8 42.7 104.9 43 104.9V105.1C42.3 105.1 41.9 104.7 41.9 104V102H41.6V101.8H41.9V101.4H42.4V101.8H43V102Z" fill="#00404B"/>
<path d="M46.4999 105.1H45.9999V102.9C45.9999 102.2 45.7999 101.9 45.2999 101.9C44.7999 101.9 44.4999 102.2 44.2999 102.8V105.1H43.7999V100.1H44.2999V102.3C44.5999 101.9 44.8999 101.8 45.2999 101.8C45.6999 101.8 45.9999 101.9 46.0999 102C46.2999 102.2 46.3999 102.5 46.3999 102.9V105.1H46.4999Z" fill="#00404B"/>
<path d="M50.3999 103.1H48.3999V102.9H49.8999C49.8999 102.3 49.5999 102 49.0999 102C48.7999 102 48.4999 102.1 48.2999 102.4C48.0999 102.7 47.9999 103 47.9999 103.5C47.9999 104 48.0999 104.3 48.2999 104.6C48.4999 104.9 48.7999 105 49.0999 105C49.4999 105 49.7999 104.8 50.0999 104.5L50.2999 104.7C49.9999 105 49.5999 105.2 49.1999 105.2C48.6999 105.2 48.3999 105 47.9999 104.7C47.6999 104.4 47.4999 104 47.4999 103.5C47.4999 103 47.6999 102.6 47.9999 102.3C48.2999 102 48.6999 101.8 49.0999 101.8C49.3999 101.8 49.6999 101.9 49.9999 102.2C50.2999 102.5 50.3999 102.8 50.3999 103.1Z" fill="#00404B"/>
<path d="M55.4 104.7C55.1 105 54.7 105.1 54.3 105.1C53.8 105.1 53.5 104.9 53.1 104.6C52.8 104.3 52.6 103.9 52.6 103.4C52.6 102.9 52.8 102.5 53.1 102.2C53.4 101.9 53.8 101.7 54.3 101.7C54.7 101.7 55 101.8 55.3 102L55.2 102.2C55 102 54.7 101.8 54.3 101.8C54 101.8 53.7 102 53.5 102.3C53.3 102.6 53.2 102.9 53.2 103.3C53.2 103.7 53.3 104.1 53.5 104.3C53.7 104.6 54 104.8 54.3 104.8C54.7 104.8 55 104.6 55.3 104.3L55.4 104.7Z" fill="#00404B"/>
<path d="M59.1999 103.5C59.1999 104 58.9999 104.4 58.6999 104.7C58.3999 105 57.9999 105.2 57.4999 105.2C56.9999 105.2 56.6999 105 56.2999 104.7C55.9999 104.4 55.7999 104 55.7999 103.5C55.7999 103 55.9999 102.7 56.2999 102.3C56.5999 102 56.9999 101.8 57.4999 101.8C57.9999 101.8 58.2999 102 58.6999 102.3C59.0999 102.7 59.1999 103 59.1999 103.5ZM58.6999 103.5C58.6999 103.1 58.5999 102.7 58.3999 102.4C58.1999 102.1 57.8999 102 57.5999 102C57.2999 102 56.9999 102.1 56.7999 102.4C56.5999 102.7 56.4999 103 56.4999 103.5C56.4999 103.9 56.5999 104.3 56.7999 104.6C56.9999 104.9 57.2999 105 57.5999 105C57.8999 105 58.1999 104.9 58.3999 104.6C58.5999 104.3 58.6999 103.9 58.6999 103.5Z" fill="#00404B"/>
<path d="M64.6 105.1H64.1V102.9C64.1 102.6 64.1 102.4 64 102.2C63.9 102.1 63.8 102 63.5 102C63.1 102 62.9 102.3 62.6 102.8V102.9V105.1H62.1V102.9C62.1 102.6 62.1 102.4 62 102.2C61.9 102.1 61.7 102 61.5 102C61.3 102 61.2 102.1 61 102.2C60.8 102.4 60.7 102.6 60.6 102.8V105.1H60.1V101.9H60.6V102.3C60.9 102 61.2 101.8 61.5 101.8C62 101.8 62.3 102 62.5 102.3C62.8 101.9 63.1 101.8 63.5 101.8C64.2 101.8 64.6 102.2 64.6 102.9V105.1Z" fill="#00404B"/>
<path d="M68.5 103.5C68.5 104 68.4 104.4 68.1 104.7C67.8 105 67.5 105.2 67 105.2C66.7 105.2 66.4 105.1 66.2 104.8V105.1H65.7V100.1H66.2V104.3C66.3 104.5 66.4 104.7 66.5 104.8C66.6 104.9 66.8 105 67 105C67.3 105 67.5 104.9 67.7 104.6C67.9 104.3 68 104 68 103.5C68 103.1 67.9 102.7 67.7 102.4C67.5 102.1 67.3 102 67 102C66.8 102 66.7 102.1 66.6 102.2L66.5 102C66.7 101.9 66.9 101.9 67.1 101.9C67.5 101.9 67.9 102.1 68.2 102.4C68.4 102.7 68.5 103.1 68.5 103.5Z" fill="#00404B"/>
<path d="M70.2 100.5C70.2 100.6 70.2 100.7 70.1 100.7C70 100.7 70 100.8 69.9 100.8C69.8 100.8 69.7 100.8 69.7 100.7C69.7 100.6 69.6 100.6 69.6 100.5C69.6 100.4 69.6 100.3 69.7 100.3C69.8 100.2 69.8 100.2 69.9 100.2C70 100.2 70.1 100.2 70.1 100.3C70.1 100.3 70.2 100.4 70.2 100.5ZM70.1 105.1H69.6V101.9H70.1V105.1Z" fill="#00404B"/>
<path d="M73.8 105.1H73.3V102.9C73.3 102.2 73.1 101.9 72.6 101.9C72.1 101.9 71.8 102.2 71.6 102.8V105.1H71.1V101.9H71.6V102.3C71.9 101.9 72.2 101.8 72.6 101.8C73 101.8 73.3 101.9 73.4 102C73.6 102.2 73.7 102.5 73.7 102.9V105.1H73.8Z" fill="#00404B"/>
<path d="M77.2999 103V105.1H76.7999V104.8C76.5999 105 76.2999 105.1 75.9999 105.1C75.6999 105.1 75.3999 105 75.1999 104.8C74.9999 104.6 74.7999 104.4 74.7999 104C74.7999 103.7 74.8999 103.4 75.1999 103.2C75.3999 103 75.6999 102.9 75.8999 102.9C75.9999 102.9 76.0999 102.9 76.0999 102.9C76.2999 102.9 76.3999 103 76.4999 103L76.3999 103.2C76.1999 103.1 76.0999 103 75.8999 103C75.6999 103 75.4999 103.1 75.3999 103.2C75.2999 103.4 75.1999 103.6 75.1999 103.9C75.1999 104.2 75.2999 104.4 75.3999 104.5C75.4999 104.7 75.6999 104.7 75.8999 104.7C76.1999 104.7 76.4999 104.5 76.6999 104.2V102.7C76.6999 102 76.4999 101.7 75.9999 101.7C75.6999 101.7 75.4999 101.8 75.1999 102L75.0999 101.8C75.2999 101.6 75.5999 101.6 75.9999 101.6C76.8999 101.8 77.2999 102.2 77.2999 103Z" fill="#00404B"/>
<path d="M79.7 102H79V104C79 104.3 79 104.6 79.1 104.7C79.2 104.8 79.3 104.9 79.6 104.9V105.1C78.9 105.1 78.5 104.7 78.5 104V102H78.2V101.8H78.5V101.4H79V101.8H79.6V102H79.7Z" fill="#00404B"/>
<path d="M81.2 100.5C81.2 100.6 81.2 100.7 81.1 100.7C81 100.7 81 100.8 80.9 100.8C80.8 100.8 80.7 100.8 80.7 100.7C80.7 100.6 80.6 100.6 80.6 100.5C80.6 100.4 80.6 100.3 80.7 100.3C80.8 100.2 80.8 100.2 80.9 100.2C81 100.2 81.1 100.2 81.1 100.3C81.1 100.3 81.2 100.4 81.2 100.5ZM81.1 105.1H80.6V101.9H81.1V105.1Z" fill="#00404B"/>
<path d="M85.3999 103.5C85.3999 104 85.1999 104.4 84.8999 104.7C84.5999 105 84.1999 105.2 83.6999 105.2C83.1999 105.2 82.8999 105 82.4999 104.7C82.1999 104.4 81.9999 104 81.9999 103.5C81.9999 103 82.1999 102.7 82.4999 102.3C82.7999 102 83.1999 101.8 83.6999 101.8C84.1999 101.8 84.4999 102 84.8999 102.3C85.2999 102.7 85.3999 103 85.3999 103.5ZM84.8999 103.5C84.8999 103.1 84.7999 102.7 84.5999 102.4C84.3999 102.1 84.0999 102 83.7999 102C83.4999 102 83.1999 102.1 82.9999 102.4C82.7999 102.7 82.6999 103 82.6999 103.5C82.6999 103.9 82.7999 104.3 82.9999 104.6C83.1999 104.9 83.4999 105 83.7999 105C84.0999 105 84.3999 104.9 84.5999 104.6C84.7999 104.3 84.8999 103.9 84.8999 103.5Z" fill="#00404B"/>
<path d="M89.1 105.1H88.6V102.9C88.6 102.2 88.4 101.9 87.9 101.9C87.4 101.9 87.1 102.2 86.9 102.8V105.1H86.4V101.9H86.9V102.3C87.2 101.9 87.5 101.8 87.9 101.8C88.3 101.8 88.6 101.9 88.7 102C88.9 102.2 89 102.5 89 102.9V105.1H89.1Z" fill="#00404B"/>
<path d="M94.8 103.5C94.8 104 94.6 104.4 94.3 104.7C94 105 93.6 105.2 93.1 105.2C92.6 105.2 92.3 105 91.9 104.7C91.6 104.4 91.4 104 91.4 103.5C91.4 103 91.6 102.7 91.9 102.3C92.2 102 92.6 101.8 93.1 101.8C93.6 101.8 93.9 102 94.3 102.3C94.7 102.7 94.8 103 94.8 103.5ZM94.3 103.5C94.3 103.1 94.2 102.7 94 102.4C93.8 102.1 93.5 102 93.2 102C92.9 102 92.6 102.1 92.4 102.4C92.2 102.7 92.1 103 92.1 103.5C92.1 103.9 92.2 104.3 92.4 104.6C92.6 104.9 92.9 105 93.2 105C93.5 105 93.8 104.9 94 104.6C94.2 104.3 94.3 103.9 94.3 103.5Z" fill="#00404B"/>
<path d="M97.1 102H96.5V105.1H96V102H95.7V101.8H96V101.1C96 100.4 96.4 100.1 97.1 100.1V100.3C96.9 100.3 96.7 100.4 96.6 100.5C96.5 100.6 96.5 100.9 96.5 101.2V101.9H97.1V102Z" fill="#00404B"/>
<path d="M3.89995 114.1H3.39995V111.9C3.39995 111.2 3.19995 110.9 2.69995 110.9C2.19995 110.9 1.89995 111.2 1.69995 111.8V114.1H1.19995V110.9H1.69995V111.3C1.99995 110.9 2.29995 110.8 2.69995 110.8C3.09995 110.8 3.39995 110.9 3.49995 111C3.69995 111.2 3.79996 111.5 3.79996 111.9V114.1H3.89995Z" fill="#00404B"/>
<path d="M7.39996 112V114.1H6.89996V113.8C6.69996 114 6.39998 114.1 6.09998 114.1C5.79998 114.1 5.49997 114 5.29997 113.8C5.09997 113.6 4.89996 113.4 4.89996 113C4.89996 112.7 4.99997 112.4 5.29997 112.2C5.49997 112 5.79997 111.9 5.99997 111.9C6.09997 111.9 6.19997 111.9 6.19997 111.9C6.39997 111.9 6.49998 112 6.59998 112L6.49997 112.2C6.29997 112.1 6.19997 112 5.99997 112C5.79997 112 5.59997 112.1 5.49997 112.2C5.39997 112.4 5.29997 112.6 5.29997 112.9C5.29997 113.2 5.39997 113.4 5.49997 113.5C5.59997 113.7 5.79997 113.7 5.99997 113.7C6.29997 113.7 6.59997 113.5 6.79997 113.2V111.7C6.79997 111 6.59998 110.7 6.09998 110.7C5.79998 110.7 5.59997 110.8 5.29997 111L5.19997 110.8C5.39997 110.6 5.69998 110.6 6.09998 110.6C6.99998 110.8 7.39996 111.2 7.39996 112Z" fill="#00404B"/>
<path d="M9.69992 111H9.09993V113C9.09993 113.3 9.09992 113.6 9.19992 113.7C9.29992 113.8 9.39992 113.9 9.69992 113.9V114.1C8.99992 114.1 8.59993 113.7 8.59993 113V111H8.29993V110.8H8.59993V110.4H9.09993V110.8H9.69992V111Z" fill="#00404B"/>
<path d="M13.3 114.1H12.8V113.5C12.6 113.9 12.2 114.1 11.8 114.1C11 114.1 10.6 113.7 10.6 112.9V110.7H11.1V112.9C11.1 113.6 11.3 113.9 11.8 113.9C12.1 113.9 12.3 113.7 12.5 113.4C12.6 113.2 12.7 113 12.7 112.8V110.7H13.2V114.1H13.3Z" fill="#00404B"/>
<path d="M15.9 111L15.8 111.2C15.7 111.1 15.5 111.1 15.4 111.1C15.3 111.1 15.3 111.1 15.2 111.2C15 111.3 14.9 111.6 14.9 112.1V114.2H14.4V111H14.9V111.4C15 111.3 15 111.2 15.1 111.1C15.2 111 15.3 111 15.5 111C15.7 110.9 15.8 110.9 15.9 111Z" fill="#00404B"/>
<path d="M18.9999 112V114.1H18.4999V113.8C18.2999 114 17.9999 114.1 17.6999 114.1C17.3999 114.1 17.0999 114 16.8999 113.8C16.6999 113.6 16.4999 113.4 16.4999 113C16.4999 112.7 16.5999 112.4 16.8999 112.2C17.0999 112 17.3999 111.9 17.5999 111.9C17.6999 111.9 17.7999 111.9 17.7999 111.9C17.9999 111.9 18.0999 112 18.1999 112L18.0999 112.2C17.8999 112.1 17.7999 112 17.5999 112C17.3999 112 17.1999 112.1 17.0999 112.2C16.9999 112.4 16.8999 112.6 16.8999 112.9C16.8999 113.2 16.9999 113.4 17.0999 113.5C17.1999 113.7 17.3999 113.7 17.5999 113.7C17.8999 113.7 18.1999 113.5 18.3999 113.2V111.7C18.3999 111 18.1999 110.7 17.6999 110.7C17.3999 110.7 17.1999 110.8 16.8999 111L16.7999 110.8C16.9999 110.6 17.2999 110.6 17.6999 110.6C18.5999 110.8 18.9999 111.2 18.9999 112Z" fill="#00404B"/>
<path d="M20.6 114.1H20.1V109.1H20.6V114.1Z" fill="#00404B"/>
<path d="M23.6 114.1H23.1V109.1H23.6V114.1Z" fill="#00404B"/>
<path d="M26.9999 112V114.1H26.4999V113.8C26.2999 114 25.9999 114.1 25.6999 114.1C25.3999 114.1 25.0999 114 24.8999 113.8C24.6999 113.6 24.4999 113.4 24.4999 113C24.4999 112.7 24.5999 112.4 24.8999 112.2C25.0999 112 25.3999 111.9 25.5999 111.9C25.6999 111.9 25.7999 111.9 25.7999 111.9C25.9999 111.9 26.0999 112 26.1999 112L26.0999 112.2C25.8999 112.1 25.7999 112 25.5999 112C25.3999 112 25.1999 112.1 25.0999 112.2C24.9999 112.4 24.8999 112.6 24.8999 112.9C24.8999 113.2 24.9999 113.4 25.0999 113.5C25.1999 113.7 25.3999 113.7 25.5999 113.7C25.8999 113.7 26.1999 113.5 26.3999 113.2V111.7C26.3999 111 26.1999 110.7 25.6999 110.7C25.3999 110.7 25.1999 110.8 24.8999 111L24.7999 110.8C24.9999 110.6 25.2999 110.6 25.6999 110.6C26.5999 110.8 26.9999 111.2 26.9999 112Z" fill="#00404B"/>
<path d="M30.8 114.1H30.3V111.9C30.3 111.2 30.1 110.9 29.6 110.9C29.1 110.9 28.8 111.2 28.6 111.8V114.1H28.1V110.9H28.6V111.3C28.9 110.9 29.2 110.8 29.6 110.8C30 110.8 30.3 110.9 30.4 111C30.6 111.2 30.7 111.5 30.7 111.9V114.1H30.8Z" fill="#00404B"/>
<path d="M34.5999 114.1H34.0999V113.8C33.8999 114 33.5999 114.2 33.2999 114.2C32.8999 114.2 32.4999 114 32.1999 113.7C31.8999 113.4 31.7999 113 31.7999 112.5C31.7999 112 31.8999 111.6 32.1999 111.3C32.4999 111 32.7999 110.8 33.2999 110.8C33.4999 110.8 33.6999 110.8 33.8999 110.9L33.7999 111.1C33.6999 111 33.4999 110.9 33.2999 110.9C33.0999 110.9 32.7999 111 32.6999 111.3C32.4999 111.6 32.3999 112 32.3999 112.4C32.3999 112.8 32.4999 113.2 32.6999 113.5C32.8999 113.8 33.0999 113.9 33.3999 113.9C33.5999 113.9 33.6999 113.8 33.8999 113.7C33.9999 113.6 34.0999 113.4 34.1999 113.2V109H34.6999V114.1H34.5999Z" fill="#00404B"/>
<path d="M37.5 113.3C37.5 113.6 37.4 113.8 37.2 113.9C37 114.1 36.8 114.1 36.5 114.1C36.1 114.1 35.8 114 35.6 113.7L35.8 113.5C36 113.8 36.3 113.9 36.6 113.9C36.8 113.9 36.9 113.8 37 113.7C37.1 113.6 37.2 113.4 37.2 113.3C37.2 113.1 37.1 112.9 36.9 112.8C36.8 112.7 36.6 112.6 36.3 112.4C35.9 112.2 35.8 111.9 35.8 111.5C35.8 111.3 35.9 111.1 36.1 110.9C36.3 110.8 36.5 110.7 36.7 110.7C36.9 110.7 37 110.7 37.2 110.8C37.4 110.9 37.5 111 37.5 111.1L37.3 111.3C37.1 111 36.9 110.9 36.6 110.9C36.3 110.9 36.1 111 36.1 111.3C36.1 111.5 36.2 111.7 36.4 111.9C36.8 112.1 37 112.3 37.1 112.4C37.4 112.7 37.5 113 37.5 113.3Z" fill="#00404B"/>
<path d="M41.0999 113.7C40.7999 114 40.3999 114.1 39.9999 114.1C39.4999 114.1 39.1999 113.9 38.7999 113.6C38.4999 113.3 38.2999 112.9 38.2999 112.4C38.2999 111.9 38.4999 111.5 38.7999 111.2C39.0999 110.9 39.4999 110.7 39.9999 110.7C40.3999 110.7 40.6999 110.8 40.9999 111L40.8999 111.2C40.6999 111 40.3999 110.8 39.9999 110.8C39.6999 110.8 39.3999 111 39.1999 111.3C38.9999 111.6 38.8999 111.9 38.8999 112.3C38.8999 112.7 38.9999 113.1 39.1999 113.3C39.3999 113.6 39.6999 113.8 39.9999 113.8C40.3999 113.8 40.6999 113.6 40.9999 113.3L41.0999 113.7Z" fill="#00404B"/>
<path d="M44.2 112V114.1H43.7V113.8C43.5 114 43.1999 114.1 42.8999 114.1C42.5999 114.1 42.3 114 42.1 113.8C41.9 113.6 41.7 113.4 41.7 113C41.7 112.7 41.8 112.4 42.1 112.2C42.3 112 42.6 111.9 42.8 111.9C42.9 111.9 43 111.9 43 111.9C43.2 111.9 43.2999 112 43.3999 112L43.3 112.2C43.1 112.1 43 112 42.8 112C42.6 112 42.4 112.1 42.3 112.2C42.2 112.4 42.1 112.6 42.1 112.9C42.1 113.2 42.2 113.4 42.3 113.5C42.4 113.7 42.6 113.7 42.8 113.7C43.1 113.7 43.4 113.5 43.6 113.2V111.7C43.6 111 43.3999 110.7 42.8999 110.7C42.5999 110.7 42.4 110.8 42.1 111L42 110.8C42.2 110.6 42.4999 110.6 42.8999 110.6C43.7999 110.8 44.2 111.2 44.2 112Z" fill="#00404B"/>
<path d="M48 112.5C48 113 47.9 113.3 47.6 113.7C47.3 114 47 114.2 46.6 114.2C46.4 114.2 46.2 114.2 46 114.1L46.1 113.9C46.2 114 46.4 114.1 46.6 114.1C46.8 114.1 47.1 114 47.2 113.7C47.4 113.4 47.5 113.1 47.5 112.6C47.5 112.2 47.4 111.8 47.2 111.5C47 111.2 46.8 111.1 46.5 111.1C46.3 111.1 46.2 111.2 46 111.3C45.9 111.4 45.8 111.6 45.7 111.8V115.4H45.2V111H45.7V111.3C45.9 111.1 46.2 110.9 46.5 110.9C46.9 110.9 47.3 111.1 47.5 111.4C47.9 111.7 48 112.1 48 112.5Z" fill="#00404B"/>
<path d="M51.8999 112.1H49.8999V111.9H51.3999C51.3999 111.3 51.0999 111 50.5999 111C50.2999 111 49.9999 111.1 49.7999 111.4C49.5999 111.7 49.4999 112 49.4999 112.5C49.4999 113 49.5999 113.3 49.7999 113.6C49.9999 113.9 50.2999 114 50.5999 114C50.9999 114 51.2999 113.8 51.5999 113.5L51.7999 113.7C51.4999 114 51.0999 114.2 50.6999 114.2C50.1999 114.2 49.8999 114 49.4999 113.7C49.1999 113.4 48.9999 113 48.9999 112.5C48.9999 112 49.1999 111.6 49.4999 111.3C49.7999 111 50.1999 110.8 50.5999 110.8C50.8999 110.8 51.1999 110.9 51.4999 111.2C51.7999 111.5 51.8999 111.8 51.8999 112.1Z" fill="#00404B"/>
<path d="M56.4999 112V114.1H55.9999V113.8C55.7999 114 55.4999 114.1 55.1999 114.1C54.8999 114.1 54.5999 114 54.3999 113.8C54.1999 113.6 53.9999 113.4 53.9999 113C53.9999 112.7 54.0999 112.4 54.3999 112.2C54.5999 112 54.8999 111.9 55.0999 111.9C55.1999 111.9 55.2999 111.9 55.2999 111.9C55.4999 111.9 55.5999 112 55.6999 112L55.5999 112.2C55.3999 112.1 55.2999 112 55.0999 112C54.8999 112 54.6999 112.1 54.5999 112.2C54.4999 112.4 54.3999 112.6 54.3999 112.9C54.3999 113.2 54.4999 113.4 54.5999 113.5C54.6999 113.7 54.8999 113.7 55.0999 113.7C55.3999 113.7 55.6999 113.5 55.8999 113.2V111.7C55.8999 111 55.6999 110.7 55.1999 110.7C54.8999 110.7 54.6999 110.8 54.3999 111L54.2999 110.8C54.4999 110.6 54.7999 110.6 55.1999 110.6C56.0999 110.8 56.4999 111.2 56.4999 112Z" fill="#00404B"/>
<path d="M60.3 114.1H59.8V111.9C59.8 111.2 59.6 110.9 59.1 110.9C58.6 110.9 58.3 111.2 58.1 111.8V114.1H57.6V110.9H58.1V111.3C58.4 110.9 58.7 110.8 59.1 110.8C59.5 110.8 59.8 110.9 59.9 111C60.1 111.2 60.2 111.5 60.2 111.9V114.1H60.3Z" fill="#00404B"/>
<path d="M64.0999 114.1H63.5999V113.8C63.3999 114 63.0999 114.2 62.7999 114.2C62.3999 114.2 61.9999 114 61.6999 113.7C61.3999 113.4 61.2999 113 61.2999 112.5C61.2999 112 61.3999 111.6 61.6999 111.3C61.9999 111 62.2999 110.8 62.7999 110.8C62.9999 110.8 63.1999 110.8 63.3999 110.9L63.2999 111.1C63.0999 111 62.9999 110.9 62.7999 110.9C62.5999 110.9 62.2999 111 62.1999 111.3C61.9999 111.6 61.8999 112 61.8999 112.4C61.8999 112.8 61.9999 113.2 62.1999 113.5C62.3999 113.8 62.5999 113.9 62.8999 113.9C63.0999 113.9 63.1999 113.8 63.3999 113.7C63.4999 113.6 63.5999 113.4 63.6999 113.2V109H64.1999V114.1H64.0999Z" fill="#00404B"/>
<path d="M68.9999 112V114.1H68.4999V113.8C68.2999 114 67.9999 114.1 67.6999 114.1C67.3999 114.1 67.0999 114 66.8999 113.8C66.6999 113.6 66.4999 113.4 66.4999 113C66.4999 112.7 66.5999 112.4 66.8999 112.2C67.0999 112 67.3999 111.9 67.5999 111.9C67.6999 111.9 67.7999 111.9 67.7999 111.9C67.9999 111.9 68.0999 112 68.1999 112L68.0999 112.2C67.8999 112.1 67.7999 112 67.5999 112C67.3999 112 67.1999 112.1 67.0999 112.2C66.9999 112.4 66.8999 112.6 66.8999 112.9C66.8999 113.2 66.9999 113.4 67.0999 113.5C67.1999 113.7 67.3999 113.7 67.5999 113.7C67.8999 113.7 68.1999 113.5 68.3999 113.2V111.7C68.3999 111 68.1999 110.7 67.6999 110.7C67.3999 110.7 67.1999 110.8 66.8999 111L66.7999 110.8C66.9999 110.6 67.2999 110.6 67.6999 110.6C68.5999 110.8 68.9999 111.2 68.9999 112Z" fill="#00404B"/>
<path d="M71.6 111L71.5 111.2C71.4 111.1 71.2 111.1 71.1 111.1C71 111.1 71 111.1 70.9 111.2C70.7 111.3 70.6 111.6 70.6 112.1V114.2H70.1V111H70.6V111.4C70.7 111.3 70.7 111.2 70.8 111.1C70.9 111 71 111 71.2 111C71.4 110.9 71.5 110.9 71.6 111Z" fill="#00404B"/>
<path d="M73.8999 111H73.2999V113C73.2999 113.3 73.2999 113.6 73.3999 113.7C73.4999 113.8 73.5999 113.9 73.8999 113.9V114.1C73.1999 114.1 72.7999 113.7 72.7999 113V111H72.4999V110.8H72.7999V110.4H73.2999V110.8H73.8999V111Z" fill="#00404B"/>
<path d="M75.3999 109.5C75.3999 109.6 75.3999 109.7 75.2999 109.7C75.1999 109.7 75.1999 109.8 75.0999 109.8C74.9999 109.8 74.8999 109.8 74.8999 109.7C74.8999 109.6 74.7999 109.6 74.7999 109.5C74.7999 109.4 74.7999 109.3 74.8999 109.3C74.9999 109.2 74.9999 109.2 75.0999 109.2C75.1999 109.2 75.2999 109.2 75.2999 109.3C75.3999 109.3 75.3999 109.4 75.3999 109.5ZM75.2999 114.1H74.7999V110.9H75.2999V114.1Z" fill="#00404B"/>
<path d="M78.1999 113.3C78.1999 113.6 78.0999 113.8 77.8999 113.9C77.6999 114.1 77.4999 114.1 77.1999 114.1C76.7999 114.1 76.4999 114 76.2999 113.7L76.3999 113.5C76.5999 113.8 76.8999 113.9 77.1999 113.9C77.3999 113.9 77.4999 113.8 77.5999 113.7C77.6999 113.6 77.7999 113.4 77.7999 113.3C77.7999 113.1 77.6999 112.9 77.4999 112.8C77.3999 112.7 77.1999 112.6 76.8999 112.4C76.4999 112.2 76.3999 111.9 76.3999 111.5C76.3999 111.3 76.4999 111.1 76.6999 110.9C76.8999 110.8 77.0999 110.7 77.2999 110.7C77.4999 110.7 77.5999 110.7 77.7999 110.8C77.9999 110.9 78.0999 111 78.0999 111.1L77.8999 111.3C77.6999 111 77.4999 110.9 77.1999 110.9C76.8999 110.9 76.6999 111 76.5999 111.3C76.5999 111.5 76.6999 111.7 76.8999 111.9C77.2999 112.1 77.4999 112.3 77.5999 112.4C78.0999 112.7 78.1999 113 78.1999 113.3Z" fill="#00404B"/>
<path d="M80.5 111H79.9V113C79.9 113.3 79.9 113.6 80 113.7C80.1 113.8 80.2 113.9 80.5 113.9V114.1C79.8 114.1 79.4 113.7 79.4 113V111H79.1V110.8H79.4V110.4H79.9V110.8H80.5V111Z" fill="#00404B"/>
<path d="M82 109.5C82 109.6 82 109.7 81.9 109.7C81.8 109.7 81.8 109.8 81.7 109.8C81.6 109.8 81.5 109.8 81.5 109.7C81.5 109.6 81.4 109.6 81.4 109.5C81.4 109.4 81.4 109.3 81.5 109.3C81.6 109.2 81.6 109.2 81.7 109.2C81.8 109.2 81.9 109.2 81.9 109.3C81.9 109.3 82 109.4 82 109.5ZM81.9 114.1H81.4V110.9H81.9V114.1Z" fill="#00404B"/>
<path d="M85.7 113.7C85.4 114 85 114.1 84.6 114.1C84.1 114.1 83.8 113.9 83.4 113.6C83.1 113.3 82.9 112.9 82.9 112.4C82.9 111.9 83.1 111.5 83.4 111.2C83.7 110.9 84.1 110.7 84.6 110.7C85 110.7 85.3 110.8 85.6 111L85.5 111.2C85.3 111 85 110.8 84.6 110.8C84.3 110.8 84 111 83.8 111.3C83.6 111.6 83.5 111.9 83.5 112.3C83.5 112.7 83.6 113.1 83.8 113.3C84 113.6 84.3 113.8 84.6 113.8C85 113.8 85.3 113.6 85.6 113.3L85.7 113.7Z" fill="#00404B"/>
<path d="M90.5 112.1H88.5V111.9H90C90 111.3 89.7 111 89.2 111C88.9 111 88.6 111.1 88.4 111.4C88.2 111.7 88.1 112 88.1 112.5C88.1 113 88.2 113.3 88.4 113.6C88.6 113.9 88.9 114 89.2 114C89.6 114 89.9 113.8 90.2 113.5L90.4 113.7C90.1 114 89.7 114.2 89.3 114.2C88.8 114.2 88.5 114 88.1 113.7C87.8 113.4 87.6 113 87.6 112.5C87.6 112 87.8 111.6 88.1 111.3C88.4 111 88.8 110.8 89.2 110.8C89.5 110.8 89.8 110.9 90.1 111.2C90.4 111.5 90.5 111.8 90.5 112.1Z" fill="#00404B"/>
<path d="M94.2 114.1H93.6L92.6 112.6L91.3999 114.1H91.2L92.5 112.5L91.3999 110.9H92L92.8999 112.1L93.8999 110.9H94.1L93 112.3L94.2 114.1Z" fill="#00404B"/>
<path d="M97.6999 112.5C97.6999 113 97.5999 113.3 97.2999 113.7C96.9999 114 96.6999 114.2 96.2999 114.2C96.0999 114.2 95.8999 114.2 95.6999 114.1L95.7999 113.9C95.8999 114 96.0999 114.1 96.2999 114.1C96.4999 114.1 96.7999 114 96.8999 113.7C97.0999 113.4 97.1999 113.1 97.1999 112.6C97.1999 112.2 97.0999 111.8 96.8999 111.5C96.6999 111.2 96.4999 111.1 96.1999 111.1C95.9999 111.1 95.8999 111.2 95.6999 111.3C95.5999 111.4 95.4999 111.6 95.3999 111.8V115.4H94.9999V111H95.4999V111.3C95.6999 111.1 95.9999 110.9 96.2999 110.9C96.6999 110.9 97.0999 111.1 97.2999 111.4C97.5999 111.7 97.6999 112.1 97.6999 112.5Z" fill="#00404B"/>
<path d="M100.2 111L100.1 111.2C100 111.1 99.8 111.1 99.7 111.1C99.6 111.1 99.6 111.1 99.5 111.2C99.3 111.3 99.2 111.6 99.2 112.1V114.2H98.7V111H99.2V111.4C99.3 111.3 99.2999 111.2 99.3999 111.1C99.4999 111 99.6 111 99.8 111C100 111 100.1 110.9 100.2 111Z" fill="#00404B"/>
<path d="M103.7 112.1H101.7V111.9H103.2C103.2 111.3 102.9 111 102.4 111C102.1 111 101.8 111.1 101.6 111.4C101.4 111.7 101.3 112 101.3 112.5C101.3 113 101.4 113.3 101.6 113.6C101.8 113.9 102.1 114 102.4 114C102.8 114 103.1 113.8 103.4 113.5L103.6 113.7C103.3 114 102.9 114.2 102.5 114.2C102 114.2 101.7 114 101.3 113.7C101 113.4 100.8 113 100.8 112.5C100.8 112 101 111.6 101.3 111.3C101.6 111 102 110.8 102.4 110.8C102.7 110.8 103 110.9 103.3 111.2C103.6 111.5 103.7 111.8 103.7 112.1Z" fill="#00404B"/>
<path d="M106.4 113.3C106.4 113.6 106.3 113.8 106.1 113.9C105.9 114.1 105.7 114.1 105.4 114.1C105 114.1 104.7 114 104.5 113.7L104.6 113.5C104.8 113.8 105.1 113.9 105.4 113.9C105.6 113.9 105.7 113.8 105.8 113.7C105.9 113.6 106 113.4 106 113.3C106 113.1 105.9 112.9 105.7 112.8C105.6 112.7 105.4 112.6 105.1 112.4C104.7 112.2 104.6 111.9 104.6 111.5C104.6 111.3 104.7 111.1 104.9 110.9C105.1 110.8 105.3 110.7 105.5 110.7C105.6 110.7 105.8 110.7 106 110.8C106.2 110.9 106.3 111 106.3 111.1L106.1 111.3C105.9 111 105.7 110.9 105.4 110.9C105.1 110.9 104.9 111 104.9 111.3C104.9 111.5 105 111.7 105.2 111.9C105.6 112.1 105.8 112.3 105.9 112.4C106.3 112.7 106.4 113 106.4 113.3Z" fill="#00404B"/>
<path d="M109.2 113.3C109.2 113.6 109.1 113.8 108.9 113.9C108.7 114.1 108.5 114.1 108.2 114.1C107.8 114.1 107.5 114 107.3 113.7L107.5 113.5C107.7 113.8 108 113.9 108.3 113.9C108.5 113.9 108.6 113.8 108.7 113.7C108.8 113.6 108.9 113.4 108.9 113.3C108.9 113.1 108.8 112.9 108.6 112.8C108.5 112.7 108.3 112.6 108 112.4C107.6 112.2 107.5 111.9 107.5 111.5C107.5 111.3 107.6 111.1 107.8 110.9C108 110.8 108.2 110.7 108.4 110.7C108.6 110.7 108.7 110.7 108.9 110.8C109.1 110.9 109.2 111 109.2 111.1L109 111.3C108.8 111 108.6 110.9 108.3 110.9C108 110.9 107.8 111 107.8 111.3C107.8 111.5 107.9 111.7 108.1 111.9C108.5 112.1 108.7 112.3 108.8 112.4C109 112.7 109.2 113 109.2 113.3Z" fill="#00404B"/>
<path d="M110.7 109.5C110.7 109.6 110.7 109.7 110.6 109.7C110.5 109.7 110.5 109.8 110.4 109.8C110.3 109.8 110.2 109.8 110.2 109.7C110.2 109.6 110.1 109.6 110.1 109.5C110.1 109.4 110.1 109.3 110.2 109.3C110.3 109.2 110.3 109.2 110.4 109.2C110.5 109.2 110.6 109.2 110.6 109.3C110.7 109.3 110.7 109.4 110.7 109.5ZM110.7 114.1H110.2V110.9H110.7V114.1Z" fill="#00404B"/>
<path d="M115 112.5C115 113 114.8 113.4 114.5 113.7C114.2 114 113.8 114.2 113.3 114.2C112.8 114.2 112.5 114 112.1 113.7C111.8 113.4 111.6 113 111.6 112.5C111.6 112 111.8 111.7 112.1 111.3C112.4 111 112.8 110.8 113.3 110.8C113.8 110.8 114.1 111 114.5 111.3C114.9 111.7 115 112 115 112.5ZM114.5 112.5C114.5 112.1 114.4 111.7 114.2 111.4C114 111.1 113.7 111 113.4 111C113.1 111 112.8 111.1 112.6 111.4C112.4 111.7 112.3 112 112.3 112.5C112.3 112.9 112.4 113.3 112.6 113.6C112.8 113.9 113.1 114 113.4 114C113.7 114 114 113.9 114.2 113.6C114.4 113.3 114.5 112.9 114.5 112.5Z" fill="#00404B"/>
<path d="M118.7 114.1H118.2V111.9C118.2 111.2 118 110.9 117.5 110.9C117 110.9 116.7 111.2 116.5 111.8V114.1H116V110.9H116.5V111.3C116.8 110.9 117.1 110.8 117.5 110.8C117.9 110.8 118.2 110.9 118.3 111C118.5 111.2 118.6 111.5 118.6 111.9V114.1H118.7Z" fill="#00404B"/>
<path d="M120.4 113.9C120.4 114 120.4 114.1 120.3 114.1C120.2 114.1 120.2 114.2 120.1 114.2C120 114.2 119.9 114.2 119.9 114.1C119.9 114 119.8 114 119.8 113.9C119.8 113.8 119.8 113.7 119.9 113.7C120 113.7 120 113.6 120.1 113.6C120.2 113.6 120.3 113.6 120.3 113.7C120.3 113.8 120.4 113.8 120.4 113.9Z" fill="#00404B"/>
</svg>
