<svg width="6" height="582" viewBox="0 0 6 582" fill="none" xmlns="http://www.w3.org/2000/svg">
<path d="M5.39992 510.9V509.6H0.799927V509.1H5.39992V507.8H5.49992V511H5.39992V510.9Z" fill="#C9A063"/>
<path d="M0.799927 514.8V514.3H3.29993V511.9H0.799927V511.4H5.49992V511.9H3.39992V514.3H5.49992V514.8H0.799927Z" fill="#C9A063"/>
<path d="M0.799927 518.7V516.3H5.49992V518.6H5.39992V516.8H3.49992V518.4H3.39992V516.8H0.999924V518.7H0.799927Z" fill="#C9A063"/>
<path d="M5.49995 525.3L0.699951 523.3L5.49995 521.3V521.9L1.59996 523.5L5.49995 525.1V525.3Z" fill="#C9A063"/>
<path d="M3.09996 531C2.39996 531 1.79995 530.8 1.39995 530.3C0.899948 529.8 0.699951 529.2 0.699951 528.5C0.699951 527.8 0.899948 527.1 1.39995 526.7C1.89995 526.2 2.39996 526 3.09996 526C3.79996 526 4.39996 526.2 4.79996 526.7C5.29996 527.2 5.49995 527.8 5.49995 528.5C5.49995 529.2 5.29996 529.9 4.79996 530.3C4.39996 530.8 3.79996 531 3.09996 531ZM3.09996 530.4C3.79996 530.4 4.29995 530.2 4.69995 529.9C5.19995 529.5 5.39995 529 5.39995 528.4C5.39995 527.8 5.19995 527.3 4.69995 526.9C4.29995 526.5 3.69996 526.4 3.09996 526.4C2.39996 526.4 1.89995 526.6 1.49995 526.9C0.999954 527.3 0.799957 527.8 0.799957 528.4C0.799957 529 0.999954 529.5 1.49995 529.9C1.89995 530.3 2.49996 530.4 3.09996 530.4Z" fill="#C9A063"/>
<path d="M0.799927 532.7V532.2H5.49992V532.7H0.799927Z" fill="#C9A063"/>
<path d="M1.39995 537.9C0.899948 537.5 0.699951 537 0.699951 536.3C0.699951 535.7 0.899948 535.1 1.39995 534.7C1.89995 534.2 2.39996 534 3.09996 534C3.79996 534 4.29996 534.2 4.79996 534.6C5.29996 535 5.49995 535.5 5.49995 536.2C5.49995 536.8 5.29995 537.3 4.99995 537.7L4.79996 537.5C5.19996 537.1 5.29996 536.7 5.29996 536.2C5.29996 535.7 5.09996 535.3 4.59996 535C4.19996 534.7 3.59995 534.6 2.99995 534.6C2.39995 534.6 1.79995 534.8 1.39995 535.1C0.999948 535.4 0.699951 535.9 0.699951 536.4C0.699951 537 0.899948 537.4 1.39995 537.7V537.9Z" fill="#C9A063"/>
<path d="M0.799927 541.3V538.9H5.49992V541.2H5.39992V539.4H3.49992V541H3.39992V539.4H0.999924V541.3H0.799927Z" fill="#C9A063"/>
<path d="M5.39992 547.1V545.8H0.799927V545.3H5.39992V544H5.49992V547.2H5.39992V547.1Z" fill="#C9A063"/>
<path d="M0.799927 550.9V550.4H3.29993V548H0.799927V547.5H5.49992V548H3.39992V550.4H5.49992V550.9H0.799927Z" fill="#C9A063"/>
<path d="M0.799927 554.8V552.4H5.49992V554.7H5.39992V552.9H3.49992V554.5H3.39992V552.9H0.999924V554.8H0.799927Z" fill="#C9A063"/>
<path d="M5.49995 563.1L0.699951 561.6L4.59996 560.2L0.699951 558.9L5.49995 557.4V557.9L1.79996 559.1L5.59996 560.4L1.79996 561.8L5.59996 563L5.49995 563.1Z" fill="#C9A063"/>
<path d="M3.09996 568.7C2.39996 568.7 1.79995 568.5 1.39995 568C0.899948 567.5 0.699951 566.9 0.699951 566.2C0.699951 565.5 0.899948 564.8 1.39995 564.4C1.89995 563.9 2.39996 563.7 3.09996 563.7C3.79996 563.7 4.39996 563.9 4.79996 564.4C5.29996 564.9 5.49995 565.5 5.49995 566.2C5.49995 566.9 5.29996 567.6 4.79996 568C4.39996 568.5 3.79996 568.7 3.09996 568.7ZM3.09996 568.1C3.79996 568.1 4.29995 567.9 4.69995 567.6C5.19995 567.2 5.39995 566.7 5.39995 566.1C5.39995 565.5 5.19995 565 4.69995 564.6C4.29995 564.2 3.69996 564.1 3.09996 564.1C2.39996 564.1 1.89995 564.3 1.49995 564.6C0.999954 565 0.799957 565.5 0.799957 566.1C0.799957 566.7 0.999954 567.2 1.49995 567.6C1.89995 568 2.49996 568.1 3.09996 568.1Z" fill="#C9A063"/>
<path d="M0.799927 572.9V572.4L3.39992 570.8C3.39992 570.9 3.39992 571 3.39992 571C3.39992 571.7 3.69992 572.1 4.39992 572.1C5.09992 572.1 5.39992 571.6 5.39992 570.7V570.4H0.799927V569.9H5.49992C5.49992 570 5.49992 570.3 5.49992 570.8C5.49992 572 5.09993 572.6 4.29993 572.6C3.99993 572.6 3.69992 572.5 3.49992 572.3C3.29992 572.1 3.19993 571.8 3.09993 571.4L0.799927 572.9Z" fill="#C9A063"/>
<path d="M0.799927 576.3V573.9H5.49992V574.4H0.899918V576.3H0.799927Z" fill="#C9A063"/>
<path d="M3.19997 581.1C2.29997 581.1 1.69997 580.8 1.29997 580.1C0.999973 579.6 0.899963 579.1 0.899963 578.5V577.2H5.59998V578.5C5.59998 579.1 5.49997 579.6 5.19997 580.1C4.69997 580.8 3.99997 581.1 3.19997 581.1ZM3.19997 580.6C3.99997 580.6 4.59997 580.3 4.99997 579.7C5.29997 579.3 5.39996 578.8 5.39996 578.2V577.7H0.899963V578.2C0.899963 578.9 0.999973 579.4 1.29997 579.8C1.69997 580.4 2.29997 580.6 3.19997 580.6Z" fill="#C9A063"/>
<path d="M1.30005 0.700012V503.2" stroke="#C9A063" stroke-width="0.35" stroke-miterlimit="10"/>
</svg>
