<svg width="148" height="149" viewBox="0 0 148 149" fill="none" xmlns="http://www.w3.org/2000/svg">
<path d="M4 3.79999V4.59998C3.6 5.19998 3.20001 5.89998 2.60001 6.59998H3.89999V7.29999C3.69999 8.09999 3.49999 8.70001 3.29999 9.20001C3.69999 9.70001 3.99999 9.99998 4.29999 10.1C4.49999 10.2 4.79999 10.3 5.29999 10.4C5.79999 10.5 6.79999 10.5 8.29999 10.5C9.39999 10.5 10.2 10.5 10.7 10.4L10.6 11.4C7.70001 11.4 5.99999 11.4 5.29999 11.3C4.69999 11.2 4.29999 11.1 3.89999 10.9C3.59999 10.8 3.19999 10.4 2.89999 9.90002C2.59999 10.4 2.20001 11 1.70001 11.6L1 10.8C1.6 10.2 2.00001 9.70001 2.20001 9.20001C2.40001 8.90001 2.59999 8.4 2.89999 7.5H1.39999V6.59998C1.89999 6.09998 2.29999 5.50001 2.79999 4.70001H1.10001V3.79999H4ZM3.79999 2.59998L3 3.5C2.7 3 2.20001 2.39999 1.60001 1.79999L2.39999 1C2.99999 1.5 3.39999 2.09998 3.79999 2.59998ZM10.3 2C8.99999 2.3 7.6 2.5 6 2.5V4H10.6V5H8.79999V9.79999H7.79999V5H6C6 5.7 5.90001 6.50002 5.70001 7.40002C5.50001 8.10002 5.29999 8.80002 4.89999 9.40002L4.20001 8.5C4.50001 8 4.69999 7.50002 4.79999 6.90002C4.89999 6.30002 5 5.70002 5 4.90002V1.40002C6.9 1.40002 8.40001 1.20001 9.70001 0.700012L10.3 2Z" fill="#3E3A39"/>
<path d="M14.6001 10.7C14.0001 10 13.8 9.20001 13.8 8.20001H15.2001C15.3001 8.90001 15.4001 9.40001 15.6001 9.70001C15.9001 10.3 16.6001 10.5 17.5001 10.5C18.2001 10.5 18.7001 10.3 19.2001 9.90002C19.6001 9.50002 19.8 9.1 19.8 8.5C19.8 7.8 19.6001 7.3 19.1001 7C18.7001 6.7 18 6.59998 17.3 6.59998C17.2 6.59998 17.1001 6.59998 17.0001 6.59998C16.9001 6.59998 16.8001 6.59998 16.7001 6.59998V5.40002C16.8001 5.40002 17.0001 5.40002 17.0001 5.40002C17.1001 5.40002 17.2 5.40002 17.3 5.40002C17.8 5.40002 18.2001 5.30001 18.5001 5.20001C19.1001 4.90001 19.3 4.40001 19.3 3.70001C19.3 3.20001 19.1001 2.8 18.7001 2.5C18.3001 2.2 17.9001 2.09998 17.4001 2.09998C16.5001 2.09998 15.9001 2.4 15.6001 3C15.4001 3.3 15.3 3.80002 15.3 4.40002H14.0001C14.0001 3.60002 14.2001 3.00002 14.5001 2.40002C15.0001 1.40002 16 0.900024 17.3 0.900024C18.4 0.900024 19.2 1.09998 19.8 1.59998C20.4 2.09998 20.7001 2.80001 20.7001 3.70001C20.7001 4.30001 20.5001 4.89999 20.2001 5.29999C20.0001 5.49999 19.7001 5.70002 19.4001 5.90002C20.0001 6.10002 20.4001 6.29999 20.7001 6.79999C21.0001 7.19999 21.2001 7.80002 21.2001 8.40002C21.2001 9.40002 20.9001 10.2 20.2001 10.8C19.5001 11.4 18.6001 11.7 17.4001 11.7C16.0001 11.7 15.1001 11.4 14.6001 10.7Z" fill="#3E3A39"/>
<path d="M28.2001 1.79999V1H29.2001V1.79999H30.4001V2.70001H29.2001V3.29999H32.0001V2.70001H30.8V1.79999H32.0001V1H33.0001V1.79999H35.4001V2.70001H33.0001V3.29999H34.3V7H31.0001V7.59998H35.0001V10.5C35.0001 10.8 34.9 11.1 34.8 11.3C34.7 11.5 34.4001 11.6 34.1001 11.6H33.3L33.1001 10.7H33.8C34 10.7 34.1001 10.6 34.1001 10.4V8.59998H31.0001V9.59998C31.4001 9.59998 31.7001 9.50002 32.0001 9.40002C31.9001 9.20002 31.8001 9.10002 31.7001 8.90002L32.5001 8.59998C32.9001 9.09998 33.2001 9.69999 33.5001 10.3L32.7001 10.7C32.6001 10.5 32.5001 10.3 32.4001 10.2C31.4001 10.4 29.9001 10.6 27.9001 10.8L27.8 9.90002C28.6 9.90002 29.4001 9.79999 30.1001 9.79999V8.59998H27.4001V11.6H26.4001V8.59998H25.8V7.70001H26.4001V7.20001H27.4001V7.70001H30.1001V7H26.9001V3.29999H28.2001V2.70001H25.9001V1.79999H28.2001ZM30.1001 4.79999V4.09998H27.8V4.79999H30.1001ZM30.1001 5.59998H27.8V6.20001H30.1001V5.59998ZM31.0001 4.79999H33.4001V4.09998H31.0001V4.79999ZM33.4001 5.59998H31.0001V6.20001H33.4001V5.59998Z" fill="#3E3A39"/>
<path d="M38.1 4V1.09998H39.1V4H40.2V5H39.1V8C39.5 7.9 39.8 7.7 40.2 7.5V8.70001C39.3 9.20001 38.3 9.60002 37.1 9.90002L37 8.70001C37.3 8.70001 37.7 8.6 38.1 8.5V5.09998H37V4.09998H38.1V4ZM42.3 6L41.3 6.29999C41 5.29999 40.7 4.4 40.3 3.5L41.2 3.20001C41.7 4.00001 42 4.9 42.3 6ZM46.2 1.5V2.5H43.9V7.09998H46.6V8.09998H43.9V11.5H42.9V8.09998H40.5V7.09998H42.9V2.5H40.6V1.5H46.2ZM46.3 3.40002C46 4.40002 45.7 5.40001 45.3 6.20001L44.3 5.79999C44.7 5.09999 45 4.19998 45.3 3.09998L46.3 3.40002Z" fill="#3E3A39"/>
<path d="M51.7 1.40002V2.20001C51.5 3.10001 51.2 4 50.9 5C51.2 5.5 51.4 6.00002 51.5 6.40002C51.6 6.80002 51.7 7.2 51.7 7.5C52 7.3 52.2 7.10002 52.5 6.90002C52.7 6.70002 52.8 6.50001 53 6.20001H51.6V5.29999H57.9V6.20001H54C53.9 6.40001 53.8 6.59999 53.7 6.79999H57.7C57.7 9.19999 57.5 10.6 57.1 11C56.9 11.3 56.2 11.5 55 11.5L54.8 10.4C55.1 10.5 55.3 10.5 55.5 10.5C55.9 10.5 56.2 10.4 56.4 10.2C56.6 10 56.7 9.20001 56.7 7.70001H56.3C55.9 8.70001 55.4 9.39999 55 9.79999C54.4 10.4 53.6 11 52.5 11.4L52 10.5C53 10.1 53.8 9.69998 54.3 9.09998C54.7 8.69998 55 8.19998 55.3 7.59998H54.6C54.3 8.09998 53.9 8.50002 53.5 8.90002C53 9.40002 52.3 9.80001 51.5 10.2L51 9.40002C51.7 9.10002 52.3 8.70002 52.8 8.40002C53.1 8.20002 53.3 7.89998 53.6 7.59998H52.9C52.6 7.89998 52.2 8.2 51.7 8.5L51.5 8.20001C51.4 8.40001 51.4 8.49998 51.3 8.59998C51.1 8.89998 50.6 9.09998 49.9 9.09998L49.6 8C49.8 8 49.9 8 50.1 8C50.3 8 50.4 7.99999 50.5 7.79999C50.6 7.69999 50.7 7.50001 50.7 7.20001C50.7 6.90001 50.6 6.50001 50.6 6.20001C50.5 5.80001 50.3 5.29999 50 4.79999C50.4 3.69999 50.7 2.79998 50.8 2.09998H49.6V11.2H48.6V1.09998H51.7V1.40002ZM57.2 1.29999V4.79999H51.9V1.29999H57.2ZM56.3 2.70001V2.09998H52.9V2.70001H56.3ZM56.3 3.40002H52.9V4.09998H56.3V3.40002Z" fill="#3E3A39"/>
<path d="M63.3999 9.20001H60.7V10.1H59.7V1.70001H63.3999V9.20001ZM62.3999 4.90002V2.70001H60.5999V4.90002H62.3999ZM62.3999 8.09998V5.79999H60.5999V8.09998H62.3999ZM64.2999 1.40002H68.7999V10.3C68.7999 10.7 68.6999 11 68.4999 11.2C68.2999 11.4 68.0999 11.5 67.7999 11.5H66.0999L65.8999 10.4L67.3999 10.5C67.5999 10.5 67.7 10.3 67.7 10.1V8.09998H65.0999C64.9999 8.49998 64.8999 8.90001 64.7999 9.20001C64.4999 10 63.8999 10.9 62.9999 11.7L62.0999 10.9C62.8999 10.3 63.4999 9.59999 63.7999 8.79999C64.0999 8.19999 64.2 7.3 64.2 6V5.20001V1.40002H64.2999ZM67.7999 6.90002V5.09998H65.3999V5.90002C65.3999 6.30002 65.3999 6.60002 65.3999 6.90002H67.7999ZM67.7999 4.09998V2.40002H65.3999V4.09998H67.7999Z" fill="#3E3A39"/>
<path d="M74.1001 1.90002C73.7001 3.10002 73.4001 3.90002 73.1001 4.40002C72.8001 5.00002 72.4001 5.60002 71.7001 6.40002L70.8 5.59998C71.4 4.99998 71.8001 4.30001 72.2001 3.70001C72.5001 3.10001 72.8001 2.30002 73.0001 1.40002L74.1001 1.90002ZM75.6001 5C74.9001 6.9 74.2001 8.50001 73.5001 9.70001C75.0001 9.70001 76.4001 9.60002 77.7001 9.40002C77.4001 8.60002 77.0001 7.89998 76.6001 7.09998L77.6001 6.70001C78.3001 8.00001 79.0001 9.50001 79.5001 11.2L78.3 11.5C78.2 11.1 78.0001 10.7 77.9001 10.3C76.5001 10.5 74.2001 10.7 71.1001 10.9L70.9001 9.70001C71.3001 9.70001 71.7001 9.70001 72.1001 9.70001C72.8001 8.50001 73.5 6.7 74.3 4.5L75.6001 5ZM77.9001 1.29999C78.3001 2.69999 79.1 4.09999 80.3 5.29999L79.6001 6.40002C79.0001 5.80002 78.5001 5.19998 78.1001 4.59998C77.7001 3.89998 77.3001 3.19999 77.0001 2.29999H75.0001V1.29999H77.9001V1.29999Z" fill="#3E3A39"/>
<path d="M91.2 11.5H90.3V11.1H83V11.5H82.1V1.29999H91.2V11.5V11.5ZM90.3 10.2V2.29999H83V10.2H90.3ZM89.4 5.40002V7.5H86.5C86.4 7.6 86.4 7.60001 86.4 7.70001V9.90002H85.5V8.5C85 8.9 84.3 9.3 83.6 9.5L83.1 8.70001C83.8 8.50001 84.4 8.20002 84.8 7.90002C85 7.80002 85.2 7.60002 85.4 7.40002H84V5.29999H89.4V5.40002ZM86.1 2.90002V2.40002H87V2.90002H89.5V3.59998H87V4.20001H90V5H83.3V4.20001H86.1V3.59998H83.7V2.90002H86.1ZM88.6 6.20001H84.8V6.79999H88.6V6.20001ZM88.1 8.29999C88.3 8.09999 88.5 7.79998 88.6 7.59998L89.4 8.09998C89.3 8.29998 89.1 8.50001 89 8.70001C89.4 8.90001 89.7 9.09999 90 9.29999L89.5 10.1C88.6 9.49998 87.6 8.89998 86.7 8.59998L87.1 7.90002C87.4 8.00002 87.7 8.09999 88.1 8.29999Z" fill="#3E3A39"/>
<path d="M98.2 7.5C98 7.7 97.8 8.00001 97.4 8.20001L97.1 7.59998C97.6 7.29998 97.9 6.99998 98 6.59998H97.3V5.20001H98.6V6.29999C98.5 6.79999 98.4 7.2 98.2 7.5Z" fill="#3E3A39"/>
<path d="M109.6 1.09998C109.5 1.49998 109.4 1.79998 109.2 2.09998H113V11.3H112V10.7H106V11.3H105V2.09998H108.1C108.3 1.69998 108.4 1.40002 108.5 0.900024L109.6 1.09998ZM112 4.5V3.20001H106V4.5H112ZM112 7.09998V5.59998H106V7.09998H112ZM112 9.70001V8H106V9.70001H112Z" fill="#3E3A39"/>
<path d="M118.4 1.20001C118.3 1.50001 118.3 1.70002 118.2 1.90002H120.8V2.70001C120.7 3.00001 120.6 3.29998 120.5 3.59998H121.7C121.7 3.19998 121.8 2.80002 121.8 2.40002V1.09998H122.8V2.40002C122.8 2.80002 122.8 3.19998 122.7 3.59998H125.1V4.59998H122.9C123.1 5.19998 123.3 5.7 123.6 6C124 6.6 124.6 6.99999 125.3 7.29999L124.8 8.29999C123.9 7.79999 123.3 7.2 122.8 6.5C122.6 6.2 122.4 5.9 122.3 5.5C122.2 5.8 122.1 6.00001 122 6.20001C121.5 7.10001 120.7 7.79999 119.6 8.29999L119.1 7.40002C120.2 6.90002 120.9 6.3 121.3 5.5C121.4 5.2 121.6 4.9 121.7 4.5H120C119.8 4.9 119.5 5.30001 119.3 5.70001C118.6 6.70001 117.5 7.50001 115.9 8.20001L115.5 7.09998C116.2 6.89998 116.8 6.60001 117.4 6.20001C117.1 5.90001 116.8 5.69998 116.5 5.59998L117 4.90002C117.4 5.10002 117.8 5.39998 118.2 5.59998C118.3 5.49998 118.5 5.30001 118.6 5.20001C118.7 5.10001 118.7 5.1 118.8 5C118.4 4.7 117.9 4.50002 117.5 4.40002L118 3.70001C118.5 3.90001 118.9 3.99999 119.3 4.29999C119.5 3.89999 119.7 3.40002 119.8 2.90002H118C117.9 3.30002 117.7 3.60002 117.5 3.90002C117.1 4.70002 116.6 5.3 116 6L115.4 5.09998C115.9 4.49998 116.4 3.89999 116.7 3.29999C117 2.79999 117.2 2.09998 117.5 1.09998L118.4 1.20001ZM117.6 8.79999C117.2 9.89999 116.8 10.8 116.3 11.5L115.3 10.8C115.8 10.1 116.3 9.29999 116.7 8.29999L117.6 8.79999ZM119.7 11.3L118.6 11.4C118.6 10.5 118.5 9.60002 118.4 8.90002L119.3 8.79999C119.5 9.49999 119.6 10.4 119.7 11.3ZM122.4 11.3L121.2 11.4C121.1 10.5 120.9 9.60002 120.8 8.90002L121.8 8.79999C122 9.49999 122.2 10.4 122.4 11.3ZM125.1 11L124.1 11.5C123.7 10.5 123.3 9.59999 122.8 8.79999L123.8 8.40002C124.3 9.20002 124.7 10.1 125.1 11ZM124.7 2.90002L123.9 3.5C123.7 3.1 123.4 2.70001 123.1 2.20001L123.8 1.79999C124.1 2.19999 124.4 2.60002 124.7 2.90002Z" fill="#3E3A39"/>
<path d="M129.5 1.70001C129.3 2.20001 129.2 2.69998 129.1 3.09998H131.3V1H132.3V3.09998H136.2V4.09998H132.3V6.5H135.7V7.5H132.3V10.2H136.4V11.2H126.9V10.2H131.3V7.5H128V6.5H131.3V4.09998H128.7C128.7 4.09998 128.7 4.10001 128.7 4.20001C128.5 4.80001 128.1 5.40001 127.5 6.20001L126.7 5.40002C127.2 4.80002 127.6 4.1 127.9 3.5C128.2 2.9 128.4 2.10001 128.6 1.20001L129.5 1.70001Z" fill="#3E3A39"/>
<path d="M140.2 5.29999L139.6 6.40002C139 5.80002 138.4 5.39998 137.8 5.09998L138.3 4.20001C139.1 4.40001 139.7 4.79999 140.2 5.29999ZM140.6 7.59998C140.1 9.09998 139.4 10.4 138.7 11.6L137.9 10.6C138.5 9.69998 139.1 8.5 139.7 7L140.6 7.59998ZM140.4 2.20001L139.8 3.29999C139.2 2.79999 138.7 2.39998 138.1 2.09998L138.6 1.20001C139.3 1.50001 139.9 1.80001 140.4 2.20001ZM147.3 2C146.5 2.3 145.6 2.49998 144.6 2.59998V4.29999H147.7V5.29999H144.6V7H147.1V11.6H146.1V10.9H142.1V11.6H141.1V7H143.5V5.29999H140.4V4.29999H143.5V2.70001C142.8 2.80001 142 2.79999 141.2 2.79999L141 1.90002C143.3 1.90002 145.3 1.70001 146.9 1.20001L147.3 2ZM146 9.90002V7.90002H142V9.90002H146Z" fill="#3E3A39"/>
<path d="M3.89999 22.5C3.59999 23.2 3.40001 23.8 3.10001 24.3V28.6H2.10001V25.7C1.80001 26 1.59999 26.3 1.29999 26.6L1 25.3C1.4 24.9 1.80001 24.4 2.10001 23.9C2.40001 23.5 2.7 22.9 3 22L3.89999 22.5ZM3.10001 29.4C2.90001 30.5 2.60001 31.5 2.20001 32.3L1.29999 31.7C1.69999 30.9 2.00001 30.1 2.10001 29.2L3.10001 29.4ZM4.39999 28.8V31.3C4.39999 31.5 4.49999 31.7 4.79999 31.7H7.39999C7.59999 31.7 7.79999 31.7 7.89999 31.6C7.99999 31.5 8.10001 31.1 8.10001 30.3L9.10001 30.6C9.00001 31.6 8.80001 32.2 8.60001 32.4C8.40001 32.6 8.10001 32.7 7.60001 32.7H4.5C4.2 32.7 3.99999 32.6 3.79999 32.4C3.59999 32.2 3.5 32 3.5 31.7V28.9H4.39999V28.8ZM4.89999 23.4V28H3.89999V23.4H4.89999ZM7.70001 22.3C7.60001 22.7 7.49999 23.1 7.29999 23.4H10.7V24.4H10C9.7 25.1 9.40001 25.7 9.10001 26.2C9.00001 26.3 8.89999 26.5 8.79999 26.6C9.39999 27 9.99999 27.3 10.8 27.5L10.3 28.5C9.39999 28.1 8.70001 27.7 8.10001 27.3C8.00001 27.4 7.99999 27.4 7.89999 27.4C7.29999 27.8 6.60001 28.2 5.70001 28.4L5.20001 27.4C6.10001 27.2 6.80001 26.9 7.20001 26.6C7.20001 26.6 7.29999 26.6 7.29999 26.5C6.79999 26.1 6.50001 25.5 6.20001 25C6.00001 25.2 5.80001 25.4 5.60001 25.6L5 24.7C5.4 24.3 5.8 24 6 23.5C6.2 23.2 6.40001 22.7 6.60001 22.1L7.70001 22.3ZM7.39999 30.1L6.5 30.5C6.1 29.9 5.69999 29.4 5.29999 28.9L6.20001 28.6C6.60001 29.1 7.09999 29.6 7.39999 30.1ZM8 25.9C8.1 25.8 8.29999 25.6 8.39999 25.4C8.59999 25.1 8.8 24.7 9 24.3H6.89999C7.19999 25 7.5 25.5 8 25.9ZM11.1 31L10.1 31.4C9.60001 30.5 9.1 29.7 8.5 29L9.5 28.7C10.1 29.5 10.6 30.2 11.1 31Z" fill="#3E3A39"/>
<path d="M12.8999 24.7C12.8999 25.8 12.6999 26.9 12.4999 27.9L11.7 27.7C12 26.7 12.0999 25.7 12.0999 24.6L12.8999 24.7ZM14.2 22.3V24.5L14.8999 24.3C15.1999 25.1 15.3999 26 15.5999 27L14.7 27.2C14.6 26.4 14.4 25.6 14.2 24.8V32.6H13.2V22.3H14.2V22.3ZM17.9999 24.1L17.2999 24.5H19.4999L18.7999 24.1C19.1999 23.5 19.4999 22.9 19.7999 22.3L20.7 22.7C20.5 23.3 20.1999 23.9 19.7999 24.4H20.8999V28.3H19.5999V31.1C19.5999 31.4 19.6999 31.5 19.9999 31.5H20.2C20.3 31.5 20.2999 31.5 20.3999 31.3C20.3999 31.2 20.4999 30.7 20.4999 29.8L21.3999 30.1C21.2999 31.3 21.1999 32 21.0999 32.2C20.9999 32.4 20.6999 32.5 20.2999 32.5H19.5999C19.2999 32.5 18.9999 32.4 18.8999 32.2C18.6999 32 18.5999 31.7 18.5999 31.4V28.2H17.8999C17.7999 29.4 17.5999 30.3 17.2999 30.8C16.8999 31.5 16.2999 32.1 15.3999 32.6L14.7 31.7C15.5 31.3 16.0999 30.8 16.3999 30.3C16.6999 29.9 16.7999 29.1 16.8999 28.1H15.7V24.2H16.8999C16.5999 23.6 16.2999 23.1 15.9999 22.6L16.8999 22.2C17.2999 22.9 17.6999 23.5 17.9999 24.1ZM19.8999 25.4H16.7V27.3H19.8999V25.4Z" fill="#3E3A39"/>
<path d="M25.4 22.4C25.3 23 25.1 23.6 24.9 24.1H26.4V26.5C26.7 25.9 27 25.4 27.1 24.8C27.3 24.2 27.5 23.3 27.6 22.2L28.6 22.4C28.5 23 28.4 23.6 28.3 24H31.6C31.6 28 31.5 30.4 31.4 31.2C31.3 31.8 31.1 32.2 30.9 32.4C30.6 32.6 30.1 32.7 29.3 32.7C29.1 32.7 28.8 32.7 28.5 32.7L28.3 31.6C28.6 31.7 28.9 31.7 29.3 31.7C30 31.7 30.3 31.5 30.4 31C30.5 30.4 30.6 28.5 30.6 25.2H28.1C28.1 25.3 28 25.3 28 25.4C27.8 26.2 27.4 27.1 26.8 28L26.3 27.3V32H25.4V31.5H23.5V32.4H22.6V24H23.9C24.1 23.4 24.3 22.8 24.4 22.2L25.4 22.4ZM25.5 27.2V25H23.6V27.2H25.5ZM25.5 30.4V28.1H23.6V30.4H25.5ZM29.9 29.3L28.9 30C28.6 29.2 28.2 28.2 27.7 27.1L28.5 26.5C29.1 27.6 29.6 28.5 29.9 29.3Z" fill="#3E3A39"/>
<path d="M34.1 24.2C34.2 23.6 34.3 23 34.4 22.3L35.3 22.4C35.2 23 35.2 23.6 35.1 24.2H37.1V25.2C37 26.5 36.8 27.6 36.6 28.5C36.5 29 36.3 29.4 36.1 29.8C36.5 30.2 37 30.5 37.4 30.9L36.9 31.8C36.6 31.4 36.2 31.1 35.7 30.7C35.3 31.4 34.6 32.1 33.6 32.9L32.9 32C33.7 31.4 34.4 30.7 34.8 30C34.3 29.6 33.7 29.3 33.1 28.9C33.4 27.7 33.7 26.5 34 25.2H32.9V24.2H34.1V24.2ZM34.2 28.4C34.5 28.6 34.9 28.8 35.2 29.1C35.2 29.1 35.2 29.1 35.2 29C35.6 28.1 35.9 26.8 36 25.1H34.8C34.7 26.3 34.5 27.4 34.2 28.4ZM42.3 22.7V23.8C41.8 24.6 41.2 25.3 40.5 26V27H42.6V28.1H40.5V31.8C40.5 32.1 40.4 32.3 40.3 32.5C40.1 32.7 39.9 32.8 39.7 32.8H37.9L37.7 31.7C38.1 31.7 38.6 31.7 39.1 31.7C39.3 31.7 39.4 31.6 39.4 31.4V28H37V27H39.4V25.7C39.9 25.3 40.4 24.7 41 23.9H37.2V22.8H42.3V22.7Z" fill="#3E3A39"/>
<path d="M51.8999 32.8H50.8999V31.9H45.7V32.7H44.7V22.5H51.9999V32.8H51.8999ZM50.8999 26.6V23.7H45.7V26.6H50.8999ZM50.8999 30.9V27.8H45.7V30.9H50.8999Z" fill="#3E3A39"/>
<path d="M62.5999 22.7V23.6C61.9999 24.3 60.9999 25.1 59.5999 26.2V27H63.5999V28.1H59.5999V31.7C59.5999 32 59.4999 32.3 59.3999 32.5C59.1999 32.7 59 32.8 58.7 32.8H56.7L56.5999 31.6C57.2999 31.7 57.8 31.7 58.2 31.7C58.4 31.7 58.4999 31.6 58.4999 31.3V28.1H54.2V27H58.4999V25.6C59.4999 25 60.4 24.4 61.2 23.8H55.2V22.8H62.5999V22.7Z" fill="#3E3A39"/>
<path d="M74.2 22.6V23.6H70.0999C69.9999 24.1 69.9 24.6 69.7 25.1H73.3999V32.7H72.3999V32H66.3999V32.8H65.3999V25.2H68.4999C68.6999 24.7 68.7999 24.2 68.8999 23.7H64.7V22.7H74.2V22.6ZM72.4999 28V26.2H66.4999V28H72.4999ZM72.4999 31V29H66.4999V31.1H72.4999V31Z" fill="#3E3A39"/>
<path d="M78.5 22.7C78.4 23 78.2 23.2 78.1 23.5H84.6V24.4H81.2V26.1H84.3V27H81.2V29.3H84.7V30.3H81.2V32.7H80.2V30.3H75.2V29.3H76.8V26.1H80.2V24.4H77.5C77.4 24.5 77.3 24.6 77.3 24.7C76.9 25.3 76.3 25.9 75.6 26.4L75 25.4C75.5 25.1 76 24.6 76.5 23.9C76.9 23.4 77.2 22.8 77.6 22L78.5 22.7ZM80.3 27H77.9V29.3H80.3V27Z" fill="#3E3A39"/>
<path d="M91.2999 23V22.2H92.2999V23H94.7999V24.7H95.3999V25.6H94.7999V27.3H92.2999V28H94.8999V28.8H92.2999V29.6H95.3999V30.5H92.2999V31.5C92.3999 31.5 92.6 31.5 92.7 31.5C93.9 31.5 94.8999 31.5 95.4999 31.4L95.2999 32.6C91.9999 32.6 89.9999 32.5 89.2999 32.4C88.5999 32.2 88.1 31.9 87.7 31.6L87.5999 31.5C87.2999 32 86.8 32.4 86.2 33L85.7 31.9C86.2 31.5 86.6999 31 86.9999 30.6C86.6999 30 86.3999 29.2 85.9999 28.2L86.7999 27.9C86.9999 28.6 87.2999 29.1 87.4999 29.5C87.4999 29.5 87.4999 29.4 87.5999 29.3C87.6999 28.8 87.7999 28.1 87.8999 27.2H85.9999V26.5C86.5999 25.7 87.2 24.8 87.7 23.8H85.7999V22.9H88.7999V23.9C88.1999 25 87.7 25.8 87.2 26.4H88.7999C88.7999 27.7 88.5999 28.7 88.3999 29.5C88.2999 29.9 88.1999 30.2 88.0999 30.5C88.3999 30.8 88.7 31.1 89.2 31.2C89.6 31.3 90.3 31.4 91.2 31.5V30.6H88.7V29.7H91.2V28.9H89.0999V28.1H91.2V27.4H89.2999V26.6H91.2V25.7H88.7V24.8H91.2V23.9H89.2999V23H91.2999ZM92.2 24.7H93.7999V23.8H92.2V24.7ZM92.2 26.4H93.7999V25.5H92.2V26.4Z" fill="#3E3A39"/>
<path d="M105.7 32.7H104.8V32.3H97.7001V32.7H96.8V22.5H105.7V32.7ZM104.8 31.4V23.4H97.7001V31.4H104.8ZM101.5 29.8C100.5 30.1 99.4001 30.3 98.2001 30.6L98.0001 29.6C99.2001 29.5 100.4 29.3 101.5 28.9V29.8ZM101.5 24.7C101.5 24.4 101.5 24 101.5 23.6H102.4C102.4 24 102.4 24.3 102.4 24.7H103.4C103.3 24.4 103.2 24.1 103 23.8L103.7 23.5C103.9 23.8 104 24.1 104.2 24.5L103.7 24.6H104.5V25.5H102.4C102.4 26.2 102.5 26.8 102.6 27.3C102.7 27.7 102.7 28 102.8 28.4C103.1 27.8 103.4 27 103.8 25.9L104.5 26.4C104 27.8 103.6 28.8 103.2 29.4C103.2 29.5 103.3 29.5 103.3 29.6C103.5 30 103.6 30.1 103.8 30.1C103.9 30.1 104 29.7 104.1 28.8L104.9 29.5C104.7 30.4 104.5 30.9 104.4 31C104.3 31.2 104.1 31.3 103.9 31.3C103.6 31.3 103.3 31.1 103 30.7C102.9 30.6 102.8 30.4 102.7 30.3C102.4 30.7 102 31.1 101.5 31.5L101 30.8C101.5 30.4 102 29.9 102.3 29.5C102.2 29.1 102 28.7 101.9 28.2C101.8 27.6 101.7 26.8 101.6 25.8H98.2001V24.9H101.5V24.7ZM100.9 26.1V28.8H98.4001V26.1H100.9ZM100.2 26.9H99.2001V28H100.2V26.9Z" fill="#3E3A39"/>
<path d="M116.3 32.7H115.4V32.3H108.3V32.7H107.4V22.5H116.3V32.7ZM115.4 31.4V23.4H108.3V31.4H115.4ZM112.1 29.8C111.1 30.1 110 30.3 108.8 30.6L108.6 29.6C109.8 29.5 111 29.3 112.1 28.9V29.8ZM112 24.7C112 24.4 112 24 112 23.6H112.9C112.9 24 112.9 24.3 112.9 24.7H113.9C113.8 24.4 113.7 24.1 113.5 23.8L114.2 23.5C114.4 23.8 114.5 24.1 114.7 24.5L114.2 24.6H115V25.5H112.9C112.9 26.2 113 26.8 113.1 27.3C113.2 27.7 113.2 28 113.3 28.4C113.6 27.8 113.9 27 114.3 25.9L115 26.4C114.5 27.8 114.1 28.8 113.7 29.4C113.7 29.5 113.8 29.5 113.8 29.6C114 30 114.1 30.1 114.3 30.1C114.4 30.1 114.5 29.7 114.6 28.8L115.4 29.5C115.2 30.4 115 30.9 114.9 31C114.8 31.2 114.6 31.3 114.4 31.3C114.1 31.3 113.8 31.1 113.5 30.7C113.4 30.6 113.3 30.4 113.2 30.3C112.9 30.7 112.5 31.1 112 31.5L111.5 30.8C112 30.4 112.5 29.9 112.8 29.5C112.7 29.1 112.5 28.7 112.4 28.2C112.3 27.6 112.2 26.8 112.1 25.8H108.7V24.9H112V24.7ZM111.5 26.1V28.8H109V26.1H111.5ZM110.7 26.9H109.7V28H110.7V26.9Z" fill="#3E3A39"/>
<path d="M121.8 24.4V22.2H122.9V24.4H126.6V29.8H122.9V32.7H121.8V29.8H118.1V24.4H121.8ZM121.8 25.4H119.2V28.8H121.8V25.4ZM125.5 25.4H122.9V28.8H125.5V25.4Z" fill="#3E3A39"/>
<path d="M130.9 24.7C130.5 26.9 129.9 28.8 129.1 30.4L128.1 29.7C128.9 28.1 129.5 26.4 129.8 24.5L130.9 24.7ZM133.6 22.3V31.3C133.6 31.8 133.5 32.1 133.3 32.3C133.1 32.5 132.8 32.6 132.3 32.6H130.7L130.5 31.3C131.1 31.4 131.6 31.4 132 31.4C132.3 31.4 132.5 31.3 132.5 31.1V22.4H133.6V22.3ZM137.8 30.3L136.7 30.6C136.3 28.6 135.8 26.7 135.1 24.8L136.1 24.4C136.7 26.1 137.3 28.1 137.8 30.3Z" fill="#3E3A39"/>
<path d="M144.2 29.1C144 28.7 143.7 28.3 143.2 27.8C142.9 27.5 142.5 27.1 142 26.6L142.7 26C143.1 26.3 143.5 26.7 143.9 27.2C144.2 27.5 144.5 28 144.9 28.5L144.2 29.1Z" fill="#3E3A39"/>
<path d="M6.60001 44.2V43.4H7.60001V44.2H10.1V45.9H10.7V46.8H10.1V48.5H7.60001V49.2H10.2V50H7.60001V50.8H10.7V51.7H7.60001V52.7C7.70001 52.7 7.9 52.7 8 52.7C9.2 52.7 10.2 52.7 10.8 52.6L10.6 53.8C7.30001 53.8 5.30001 53.7 4.60001 53.6C3.90001 53.4 3.4 53.1 3 52.8L2.89999 52.7C2.59999 53.2 2.1 53.6 1.5 54.2L1 53.1C1.5 52.7 1.99999 52.2 2.29999 51.8C1.99999 51.2 1.69999 50.4 1.29999 49.4L2.10001 49.1C2.30001 49.8 2.59999 50.3 2.79999 50.7C2.79999 50.7 2.79999 50.6 2.89999 50.5C2.99999 50 3.10001 49.3 3.20001 48.4H1.39999V47.7C1.99999 46.9 2.60001 46 3.10001 45H1.20001V44.1H4.20001V45.1C3.60001 46.2 3.10001 47 2.60001 47.6H4.20001C4.20001 48.9 3.99999 49.9 3.79999 50.7C3.69999 51.1 3.6 51.4 3.5 51.7C3.8 52 4.10001 52.3 4.60001 52.4C5.00001 52.5 5.70001 52.6 6.60001 52.7V51.8H4.10001V50.9H6.60001V50H4.5V49.2H6.60001V48.5H4.70001V47.7H6.60001V46.8H4.10001V45.9H6.60001V45H4.70001V44.2H6.60001ZM7.60001 45.9H9.20001V45H7.60001V45.9ZM7.60001 47.6H9.20001V46.7H7.60001V47.6Z" fill="#3E3A39"/>
<path d="M15.7001 46.5C15.4001 47.2 15.0001 47.8 14.6001 48.3V53.8H13.6001V49.3C13.3001 49.6 13.0001 49.9 12.6001 50.2L12.3 49C12.8 48.6 13.3001 48.2 13.7001 47.7C14.1001 47.3 14.5001 46.7 14.9001 46L15.7001 46.5ZM15.7001 43.9C15.3001 44.5 15.0001 44.9 14.6001 45.3C14.2001 45.7 13.7001 46.1 13.1001 46.5L12.6001 45.6C13.1001 45.4 13.5001 45.1 13.9001 44.7C14.2001 44.4 14.5001 44 14.9001 43.5L15.7001 43.9ZM16.8 50.8C16.6 51.9 16.3 52.9 15.8 53.7L15.0001 53C15.4001 52.2 15.7001 51.4 15.9001 50.5L16.8 50.8ZM22.2001 49.1V50H15.5001V49.1H22.2001ZM18.4001 44.2V43.6H19.4001V44.2H22.1001V45.1H19.4001V45.7H21.8V48.5H16.0001V45.7H18.4001V45H15.8V44.1H18.4001V44.2ZM17.6001 46.6H16.8V47.6H17.6001V46.6ZM18.0001 50.8V52.5C18.0001 52.7 18.1001 52.9 18.4001 52.9H19.6001C19.7001 52.9 19.9001 52.9 19.9001 52.8C20.0001 52.7 20.0001 52.5 20.1001 52L21.0001 52.3C20.9001 53 20.8001 53.5 20.6001 53.6C20.4001 53.7 20.1001 53.8 19.7001 53.8H18.0001C17.7001 53.8 17.5 53.7 17.3 53.5C17.1 53.3 17.0001 53.1 17.0001 52.8V50.8H18.0001ZM20.1001 51.3L19.4001 52C19.1001 51.6 18.7001 51.2 18.2001 50.7L18.8 50.1C19.3 50.5 19.8001 50.9 20.1001 51.3ZM19.3 46.6H18.4001V47.6H19.3V46.6ZM21.0001 46.6H20.1001V47.6H21.0001V46.6ZM22.3 52.7L21.5001 53.3C21.3001 52.5 21.0001 51.7 20.6001 50.7L21.3 50.3C21.7 51.3 22.1 52.1 22.3 52.7Z" fill="#3E3A39"/>
<path d="M33.3 53.9H32.4V53.5H25.3V53.9H24.4V43.7H33.3V53.9ZM32.4 52.6V44.6H25.3V52.6H32.4ZM29.2 51C28.2 51.3 27.1 51.5 25.9 51.8L25.7 50.8C26.9 50.7 28.1 50.5 29.2 50.1V51ZM29.1 45.9C29.1 45.6 29.1 45.2 29.1 44.8H30C30 45.2 30 45.5 30 45.9H31C30.9 45.6 30.8 45.3 30.6 45L31.3 44.7C31.5 45 31.6 45.3 31.8 45.7L31.3 45.8H32.1V46.7H30C30 47.4 30.1 48 30.2 48.5C30.3 48.9 30.3 49.2 30.4 49.6C30.7 49 31 48.2 31.4 47.1L32.1 47.6C31.6 49 31.2 50 30.8 50.6C30.8 50.7 30.9 50.7 30.9 50.8C31.1 51.2 31.2 51.3 31.4 51.3C31.5 51.3 31.6 50.9 31.7 50L32.5 50.7C32.3 51.6 32.1 52.1 32 52.2C31.9 52.4 31.7 52.5 31.5 52.5C31.2 52.5 30.9 52.3 30.6 51.9C30.5 51.8 30.4 51.6 30.3 51.5C30 51.9 29.6 52.3 29.1 52.7L28.6 52C29.1 51.6 29.6 51.1 29.9 50.7C29.8 50.3 29.6 49.9 29.5 49.4C29.4 48.8 29.3 48 29.2 47H25.8V46.1H29.1V45.9ZM28.5 47.3V50H26V47.3H28.5ZM27.8 48.1H26.8V49.2H27.8V48.1Z" fill="#3E3A39"/>
<path d="M38.2 45.9C37.8 48.1 37.2 50 36.4 51.6L35.4 50.9C36.2 49.3 36.8 47.6 37.1 45.7L38.2 45.9ZM41 43.5V52.5C41 53 40.9 53.3 40.7 53.5C40.5 53.7 40.2 53.8 39.7 53.8H38.1L37.9 52.5C38.5 52.6 39 52.6 39.4 52.6C39.7 52.6 39.9 52.5 39.9 52.3V43.6H41V43.5ZM45.1 51.5L44 51.8C43.6 49.8 43.1 47.9 42.4 46L43.4 45.6C44.1 47.3 44.6 49.3 45.1 51.5Z" fill="#3E3A39"/>
<path d="M52.3999 50.3C52.1999 49.9 51.8999 49.5 51.3999 49C51.0999 48.7 50.7 48.3 50.2 47.8L50.8999 47.2C51.2999 47.5 51.6999 47.9 52.0999 48.4C52.3999 48.7 52.6999 49.2 53.0999 49.7L52.3999 50.3Z" fill="#3E3A39"/>
<path d="M60.7 45.2H61.7V46.1C61.4 46.9 61 47.6 60.7 48.2C61.1 48.5 61.4999 48.9 61.7999 49.3L61.2999 50.2C60.9999 49.9 60.7999 49.5 60.4999 49.3V54H59.4999V49.8C59.1999 50.2 58.8999 50.5 58.4999 50.9L58.2 49.7C58.8 49.2 59.1999 48.7 59.4999 48.3C59.7999 47.9 60.1999 47.3 60.5999 46.3H58.3999V45.3H59.7999C59.5999 44.7 59.4 44.1 59.2 43.6L60.2 43.5C60.3 43.9 60.5 44.5 60.7 45.2ZM67.7999 43.7V44.6H61.8999V43.7H67.7999ZM67.7 54H66.7999V53.5H62.7999V54H61.8999V48.7H67.7V54V54ZM67.3999 45.2V47.9H62.2999V45.2H67.3999ZM64.2999 50.6V49.5H62.7999V50.6H64.2999ZM64.2999 52.6V51.3H62.7999V52.6H64.2999ZM66.3999 46.1H63.2V47.1H66.3999V46.1ZM65.2 50.6H66.7999V49.5H65.2V50.6ZM66.7999 52.6V51.3H65.2V52.6H66.7999Z" fill="#3E3A39"/>
<path d="M78.3 50V52.1H77.1C77 52.4 76.8 52.6 76.7 52.9H79.4V53.8H69.6V52.9H72.3C72.2 52.6 72 52.4 72 52.1H70.7V50H78.3ZM79.2 48.7V49.5H69.8V48.7H79.2ZM71.1 43.6V47.5H72.3V46.9H71.4V46.3H72.3V45.8H71.6V45.1H72.3V44.6H71.4V44H72.3V43.5H73V44H73.8V44.6H73V45.1H73.7V45.8H73V46.3H73.9V46.9H73V47.5H74.2V43.4H75.1V47.5H76.3V46.9H75.4V46.3H76.3V45.8H75.6V45.1H76.3V44.6H75.4V44H76.3V43.5H77V44H77.8V44.6H77V45.1H77.7V45.8H77V46.3H77.9V46.9H77V47.5H78.1V43.6H79V48.2H70.4V43.6H71.1V43.6ZM77.4 50.8H71.5V51.4H77.4V50.8ZM75.7 52.9C75.9 52.6 76 52.4 76.1 52.1H72.8C72.9 52.4 73 52.6 73.2 52.9H75.7Z" fill="#3E3A39"/>
<path d="M90.5 53.9H89.6V53.5H82.5V53.9H81.6V43.7H90.5V53.9ZM89.5 52.6V44.6H82.4V52.6H89.5ZM86.3 51C85.3 51.3 84.2 51.5 83 51.8L82.8 50.8C84 50.7 85.2 50.5 86.3 50.1V51ZM86.2 45.9C86.2 45.6 86.2 45.2 86.2 44.8H87.1C87.1 45.2 87.1 45.5 87.1 45.9H88.1C88 45.6 87.9 45.3 87.7 45L88.4 44.7C88.6 45 88.7 45.3 88.9 45.7L88.4 45.8H89.2V46.7H87.1C87.1 47.4 87.2 48 87.3 48.5C87.4 48.9 87.4 49.2 87.5 49.6C87.8 49 88.1 48.2 88.5 47.1L89.2 47.6C88.7 49 88.3 50 87.9 50.6C87.9 50.7 88 50.7 88 50.8C88.2 51.2 88.3 51.3 88.5 51.3C88.6 51.3 88.7 50.9 88.8 50L89.6 50.7C89.4 51.6 89.2 52.1 89.1 52.2C89 52.4 88.8 52.5 88.6 52.5C88.3 52.5 88 52.3 87.7 51.9C87.6 51.8 87.5 51.6 87.4 51.5C87.1 51.9 86.7 52.3 86.2 52.7L85.7 52C86.2 51.6 86.7 51.1 87 50.7C86.9 50.3 86.7 49.9 86.6 49.4C86.5 48.8 86.4 48 86.3 47H82.9V46.1H86.2V45.9ZM85.7 47.3V50H83.2V47.3H85.7ZM84.9 48.1H83.9V49.2H84.9V48.1Z" fill="#3E3A39"/>
<path d="M95.3 45.9C94.9 48.1 94.3 50 93.5 51.6L92.5 50.9C93.3 49.3 93.9 47.6 94.2 45.7L95.3 45.9ZM98.1 43.5V52.5C98.1 53 98 53.3 97.8 53.5C97.6 53.7 97.3 53.8 96.8 53.8H95.2L95 52.5C95.6 52.6 96.1 52.6 96.5 52.6C96.8 52.6 97 52.5 97 52.3V43.6H98.1V43.5ZM102.3 51.5L101.2 51.8C100.8 49.8 100.3 47.9 99.6 46L100.6 45.6C101.2 47.3 101.8 49.3 102.3 51.5Z" fill="#3E3A39"/>
<path d="M109.2 49.9C109 50.1 108.8 50.4 108.4 50.6L108.1 50C108.6 49.7 108.9 49.4 109 49H108.3V47.6H109.6V48.7C109.5 49.2 109.4 49.6 109.2 49.9Z" fill="#3E3A39"/>
<path d="M117 45C116.9 44.6 116.7 44.2 116.6 43.8L117.6 43.7C117.7 44.1 117.9 44.5 118 45H118.7C118.8 44.5 118.9 44 119 43.4L119.9 43.5C119.8 44 119.7 44.5 119.6 44.9H123.7C123.6 45.7 123.5 46.4 123.4 46.9H124.4C124.3 47.7 124.2 48.4 124.1 48.9H124.9C124.9 51.5 124.7 52.9 124.3 53.3C124.1 53.6 123.4 53.8 122.2 53.8L122 52.7C122.3 52.8 122.6 52.8 122.8 52.8C123.2 52.8 123.5 52.7 123.7 52.5C123.9 52.3 124 51.4 124.1 49.8H117.7C117.2 50.5 116.7 51.2 116.2 51.7L115.4 51.1C116.8 49.7 117.8 47.9 118.5 45.9H116V44.9H117V45ZM118.4 50.9C118.1 52 117.7 53 117.2 53.8L116.4 53.2C116.9 52.4 117.3 51.6 117.5 50.7L118.4 50.9ZM118.2 49.1H123.2C123.3 48.8 123.3 48.4 123.4 48H118.7C118.5 48.4 118.4 48.7 118.2 49.1ZM120 53.6L119 53.7C119 52.5 118.9 51.5 118.8 50.9L119.6 50.8C119.8 51.5 120 52.4 120 53.6ZM119 47H122.5C122.6 46.7 122.6 46.4 122.7 46H119.4C119.2 46.4 119.1 46.7 119 47ZM121.8 52.8L120.9 53C120.8 52.2 120.6 51.5 120.3 50.8L121.1 50.5C121.4 51.2 121.6 52 121.8 52.8ZM123.3 52.1L122.5 52.4C122.3 51.8 122.2 51.1 121.9 50.5L122.6 50.3C122.9 51 123.2 51.6 123.3 52.1Z" fill="#3E3A39"/>
<path d="M130.4 43.9V44.7C130.1 45.3 129.8 46.1 129.2 47.1V48.3C129.5 48.1 129.9 47.9 130.2 47.6V48.8C129.9 49.1 129.5 49.3 129.2 49.5V52.9C129.2 53.2 129.1 53.5 129 53.6C128.8 53.8 128.6 53.9 128.4 53.9H127.3L127.2 52.8C127.5 52.9 127.8 52.9 128 52.9C128.2 52.9 128.2 52.8 128.2 52.5V50C127.8 50.2 127.4 50.4 127 50.5L126.9 49.3C127.3 49.2 127.8 49.1 128.2 48.9V47C128.6 46.3 129 45.7 129.4 44.9H127V44H130.4V43.9ZM136.4 48.4C135.9 49.4 135.3 50.3 134.6 51C135.3 51.6 135.9 52.2 136.5 52.9L135.9 53.8C135.2 52.9 134.6 52.2 133.9 51.6C133.8 51.7 133.8 51.7 133.7 51.8C132.9 52.6 131.8 53.3 130.3 53.9L129.8 53C131.2 52.5 132.3 51.8 133.1 51C133.8 50.4 134.6 49.3 135.5 47.8L136.4 48.4ZM134 44.5H136.5V45.5H133.5C133.3 46.1 132.9 46.8 132.4 47.5C132.9 47.5 133.4 47.5 133.8 47.4C134 47 134.3 46.6 134.5 46.2L135.3 46.6C134.7 47.8 134.1 48.8 133.3 49.6C132.7 50.3 131.8 50.9 130.7 51.3L130.2 50.4C131.2 49.9 132 49.4 132.7 48.7C132.8 48.6 133 48.4 133.1 48.2C132.4 48.3 131.5 48.3 130.4 48.4L130.3 47.4C130.6 47.4 130.9 47.4 131.2 47.4C131.7 46.8 132.1 46.1 132.4 45.4H130.4V44.4H132.8C132.7 44.1 132.5 43.7 132.4 43.4L133.4 43.3C133.7 43.7 133.8 44.1 134 44.5Z" fill="#3E3A39"/>
<path d="M146.8 43.9V44.8C146.2 45.5 145.2 46.3 143.8 47.4V48.2H147.8V49.3H143.8V52.9C143.8 53.2 143.7 53.5 143.6 53.7C143.4 53.9 143.2 54 142.9 54H140.9L140.8 52.8C141.5 52.9 142 52.9 142.4 52.9C142.6 52.9 142.7 52.8 142.7 52.5V49.3H138.4V48.2H142.7V46.8C143.7 46.2 144.6 45.6 145.4 45H139.4V44H146.8V43.9Z" fill="#3E3A39"/>
<path d="M3.69995 65C3.49995 65.8 3.29995 66.5 3.09995 67.1V75.2H2.19995V69C1.99995 69.4 1.69994 69.8 1.49994 70.2L1.19995 68.9C1.49995 68.3 1.89995 67.7 2.09995 67C2.39995 66.4 2.59993 65.6 2.89993 64.5L3.69995 65ZM4.89993 66.3V64.6H5.89993V66.3H7.19995V67.3H5.89993V69.5H6.69995L6.39993 69.1C6.89993 68.4 7.19994 67.7 7.49994 67.1C7.69994 66.5 7.89995 65.6 8.09995 64.6L8.99994 64.7C8.89994 65.3 8.79995 65.9 8.69995 66.3H10.8999V67.3H10.3999C10.1999 69.2 9.89994 70.7 9.49994 71.8C9.49994 71.9 9.39993 71.9 9.39993 72C9.79993 72.9 10.3999 73.6 10.9999 74.2L10.3999 75.1C9.69993 74.5 9.19993 73.8 8.79993 73.1C8.39993 73.8 7.89993 74.5 7.39993 75.1L6.79993 74.3C7.39993 73.6 7.89993 72.9 8.29993 72C7.99993 71.2 7.69993 70.2 7.39993 69.2C7.29993 69.5 7.09993 69.7 6.89993 70L6.79993 69.8V74.1H3.79993V69.5H4.89993V67.3H3.59995V66.3H4.89993V66.3ZM5.89993 70.4H4.69995V73.2H5.89993V70.4ZM8.79993 70.8C9.09993 69.9 9.29993 68.7 9.39993 67.4H8.19995V67.5C8.09995 67.7 8.09994 67.8 7.99994 68C8.19994 69 8.49993 70 8.79993 70.8Z" fill="#3E3A39"/>
<path d="M12.3 66.6C12.4 66 12.5 65.4 12.6 64.7L13.5 64.8C13.4 65.4 13.4 66 13.3 66.6H15.3V67.6C15.2 68.9 15 70 14.8 70.9C14.7 71.4 14.5 71.8 14.3 72.2C14.7 72.6 15.2 72.9 15.6 73.3L15.1 74.2C14.8 73.8 14.4 73.5 13.9 73.1C13.5 73.8 12.8 74.5 11.8 75.3L11.1 74.4C11.9 73.8 12.6 73.1 13 72.4C12.5 72 11.9 71.7 11.3 71.3C11.6 70.1 11.9 68.9 12.2 67.6H11.1V66.6H12.3V66.6ZM12.4 70.8C12.7 71 13.1 71.2 13.4 71.5C13.4 71.5 13.4 71.5 13.4 71.4C13.8 70.5 14.1 69.2 14.2 67.5H13C12.9 68.7 12.7 69.8 12.4 70.8ZM20.5 65.1V66.2C20 67 19.4 67.7 18.7 68.4V69.4H20.8V70.5H18.7V74.2C18.7 74.5 18.6 74.7 18.5 74.9C18.3 75.1 18.1 75.2 17.9 75.2H16.1L15.9 74.1C16.3 74.1 16.8 74.1 17.3 74.1C17.5 74.1 17.6 74 17.6 73.8V70.4H15.2V69.3H17.6V68C18.1 67.6 18.6 67 19.2 66.2H15.4V65.1H20.5Z" fill="#3E3A39"/>
<path d="M26.2 64.9C26.1 65.2 25.9 65.6 25.8 65.8H27.2C27.1 65.5 26.9 65.1 26.7 64.8L27.7 64.7C27.9 65 28 65.4 28.2 65.8H30.5V66.7H28.2V67.4H30.2V68.3H28.2V69H30.2V69.9H28.2V70.6H30.7V71.5H26.4V72.3H30.8V73.3H26.4V75.3H25.4V73.3H21V72.3H25.4V71.5H24.3V68.5C24.2 68.7 24 68.8 23.9 68.9L23.2 68C24.1 67 24.8 65.9 25.2 64.7L26.2 64.9ZM23.1 67.8L22.5 68.8C22 68.4 21.4 68 20.9 67.8L21.4 66.9C22.1 67.1 22.6 67.4 23.1 67.8ZM23.6 69.5C23.2 70.4 22.6 71.2 22 72L21.3 71.1C21.9 70.4 22.5 69.6 23 68.7L23.6 69.5ZM24 65.8L23.4 66.7C22.8 66.3 22.2 65.9 21.6 65.6L22.1 64.8C22.8 65.1 23.4 65.4 24 65.8ZM27.2 66.7H25.3C25.3 66.8 25.2 66.8 25.2 66.8V67.3H27.2V66.7ZM27.2 68.2H25.2V68.9H27.2V68.2ZM27.2 69.8H25.2V70.5H27.2V69.8Z" fill="#3E3A39"/>
<path d="M33.8 65C33.5 65.9 33.3 66.7 33 67.4V75H32V69.1C31.8 69.5 31.5 69.9 31.2 70.2L30.9 68.9C31.3 68.3 31.7 67.7 32 67C32.3 66.4 32.6 65.6 32.9 64.5L33.8 65ZM35.2 65.5V64.6H36.1V65.5H37.8V64.6H38.7V65.5H40.3V66.4H38.7V67.4H40.6V68.3H34.9V68.9C34.9 70.2 34.8 71.3 34.7 72.1C34.6 72.9 34.3 73.8 33.9 74.7L33.1 73.9C33.4 73.2 33.7 72.5 33.8 71.7C33.9 71.1 34 70.1 34 68.9V68.3H33.3V67.4H35.2V66.4H33.8V65.5H35.2V65.5ZM40.1 74.1C40.1 74.4 40 74.7 39.8 74.9C39.7 75.1 39.5 75.1 39.2 75.1H38.5L38.3 74.2H38.8C39 74.2 39.1 74.1 39.1 73.8V73.2H38V75H37.1V73.2H36V75H35.1V69H40V74.1H40.1ZM37.9 66.4H36.2V67.4H37.9V66.4ZM37.3 70.7V69.8H36.2V70.7H37.3ZM37.3 72.5V71.6H36.2V72.5H37.3ZM38.1 70.7H39.2V69.8H38.1V70.7ZM38.1 72.5H39.2V71.6H38.1V72.5Z" fill="#3E3A39"/>
<path d="M45.3 66V64.6H46.3V66H49.8V67.1H46.3V68.8H50.6V69.9H47.4C47.7 70.6 48.1 71.2 48.6 71.7C49.1 72.3 49.8 73 50.7 73.7L50 74.7C49 73.9 48.2 73.1 47.7 72.2C47.2 71.6 46.8 70.8 46.5 69.9H46.4V75.2H45.4V69.9H45.2C44.9 70.7 44.6 71.3 44.3 71.7C43.8 72.6 42.8 73.6 41.6 74.6L41 73.6C41.9 72.9 42.6 72.2 43.2 71.6C43.6 71.2 43.9 70.6 44.2 70H41V68.9H45.3V67.2H41.7V66H45.3Z" fill="#3E3A39"/>
<path d="M55.1 65.8V64.7H56.1V65.8H60V66.8H56.1V69.4C56.5 70.3 57 71 57.6 71.7C58.2 72.4 59.2 73.2 60.5 73.9L59.8 74.8C58.8 74.1 58 73.5 57.4 72.9C56.9 72.4 56.5 71.8 56.1 71.2V75H55.1V71.1C54.7 71.7 54.3 72.2 54 72.5C53.3 73.3 52.5 74 51.4 74.7L50.9 73.7C51.9 73.1 52.8 72.4 53.6 71.6C54.2 71 54.7 70.2 55.2 69.4V66.8H51.4V65.8H55.1V65.8ZM53.8 67.2C53.7 67.8 53.6 68.2 53.4 68.6C53.8 69 54.2 69.4 54.5 69.8L54 70.7C53.7 70.2 53.4 69.8 53.1 69.5C52.8 70.1 52.4 70.8 51.8 71.5L51.2 70.6C51.7 70.1 52.1 69.5 52.3 69C52.5 68.5 52.7 67.8 52.9 67L53.8 67.2ZM58.9 67.2C58.8 67.8 58.7 68.2 58.5 68.6C59.1 69.1 59.6 69.7 60.1 70.3L59.6 71.2C59.1 70.5 58.6 69.9 58.1 69.4C57.9 69.8 57.6 70.3 57.2 70.7L56.5 69.8C56.9 69.4 57.2 69 57.4 68.6C57.6 68.2 57.7 67.7 57.9 67L58.9 67.2Z" fill="#3E3A39"/>
<path d="M66 71.1C65.8 71.3 65.6 71.6 65.2 71.8L64.9 71.2C65.4 70.9 65.7 70.6 65.8 70.2H65V68.8H66.3V69.9C66.3 70.4 66.2 70.8 66 71.1Z" fill="#3E3A39"/>
<path d="M79.6001 64.9V65.8H76.0001V66.3H80.3V69H79.3V67.2H76.0001V69.7H75.0001V67.2H71.8V69.1H70.8V66.3H75.0001V65.8H71.3V64.9H79.6001V64.9ZM80.3 70.1V71H76.0001L75.7001 71.7H79.9001V74.1C79.9001 74.4 79.8001 74.6 79.6001 74.8C79.5001 74.9 79.3001 75 79.0001 75H78.0001L77.8 74.1H78.6001C78.8001 74.1 78.9001 74 78.9001 73.7V72.4H77.2001V74.8H76.3V72.4H74.8V74.8H73.9001V72.4H72.4001V75H71.4001V71.6H74.6001L74.9001 70.9H70.8V70H80.3V70.1ZM74.7001 67.6V68.3H72.2001V67.6H74.7001ZM74.7001 68.9V69.6H72.2001V68.9H74.7001ZM79.0001 67.6V68.3H76.4001V67.6H79.0001ZM79.0001 68.9V69.6H76.4001V68.9H79.0001Z" fill="#3E3A39"/>
<path d="M90.3 65V65.9H87.1V66.8H89.7V69.8H85.5C85.3 70.1 85.2 70.3 85 70.6H90.3V71.5H88.3C88 72.1 87.6 72.7 87.2 73.1C88.3 73.5 89.3 73.8 90.2 74.3L89.4 75.2C88.5 74.7 87.4 74.3 86.3 73.9C85.3 74.5 83.6 74.9 81.1 75.3L80.7 74.3C82.7 74.2 84.1 73.9 85 73.6C84.1 73.3 83.1 73.1 82 72.9C82.4 72.5 82.8 72 83.1 71.6H80.5V70.7H83.8C84 70.4 84.1 70.2 84.3 69.9H81.1V66.9H83.7V66H80.7V65H90.3ZM83.8 67.7H82.2V68.9H83.8V67.7ZM87.3 71.5H84.3C84.1 71.8 83.9 72 83.7 72.2C84.7 72.4 85.6 72.6 86.2 72.8C86.7 72.5 87 72 87.3 71.5ZM86.2 65.9H84.8V66.8H86.2V65.9ZM86.2 67.7H84.8V68.9H86.2V67.7ZM88.8 67.7H87.2V68.9H88.8V67.7Z" fill="#3E3A39"/>
<path d="M93.8 64.8C93.7 65.4 93.5 66 93.3 66.5H94.8V68.9C95.1 68.3 95.4 67.8 95.5 67.2C95.7 66.6 95.9 65.7 96 64.6L97 64.8C96.9 65.4 96.8 66 96.7 66.4H100C100 70.4 99.9 72.8 99.8 73.6C99.7 74.2 99.5 74.6 99.3 74.8C99 75 98.5 75.1 97.7 75.1C97.5 75.1 97.2 75.1 96.9 75.1L96.7 74C97 74.1 97.3 74.1 97.7 74.1C98.4 74.1 98.7 73.9 98.8 73.4C98.9 72.8 99 70.9 99 67.6H96.5C96.5 67.7 96.4 67.7 96.4 67.8C96.2 68.6 95.8 69.5 95.2 70.4L94.7 69.7V74.4H93.8V73.9H91.9V74.8H91V66.6H92.3C92.5 66 92.7 65.4 92.8 64.8H93.8ZM93.9 69.6V67.4H92V69.6H93.9ZM93.9 72.8V70.5H92V72.8H93.9ZM98.2 71.7L97.2 72.4C96.9 71.6 96.5 70.6 96 69.5L96.8 68.9C97.4 70 97.9 70.9 98.2 71.7Z" fill="#3E3A39"/>
<path d="M103.7 65.7C103.3 65.9 102.7 66.1 101.9 66.3V67.2H103.5V68.1H102V69.4H103.4V70.3H102V71.6H103.9V68.5H104.9V71.6H105.8V68H104V64.5H104.9V65.3H106.8V66.2H104.9V67.2H106.8V71.7H108.8V70.5H107.2V69.6H108.8V68.3H107.2V67.4H108.8V66.2H107.2V65.3H109.8L109.7 71.9H110.2V72.9H100.5V71.9H101.1L101 65.7C101.7 65.6 102.5 65.3 103.3 64.9L103.7 65.7ZM104.4 73.5C103.6 74.1 102.5 74.6 101.2 75.1L100.5 74.2C101.7 73.8 102.7 73.4 103.6 72.8L104.4 73.5ZM110.1 74.2L109.5 75.2C108.5 74.5 107.5 74 106.4 73.6L106.9 72.7C108.1 73.2 109.2 73.7 110.1 74.2Z" fill="#3E3A39"/>
<path d="M112.4 65.9V64.6H113.4V65.9H114.9V66.8H113.4V67C113.9 67.4 114.5 67.9 115 68.4L114.5 69.3C114.1 68.8 113.7 68.4 113.4 68.1V70.9H112.4V68.1C112.4 68.2 112.3 68.2 112.3 68.3C111.9 69.1 111.4 69.8 110.8 70.4L110.4 69.3C111.2 68.6 111.8 67.7 112.3 66.7H110.5V65.8H112.4V65.9ZM112.5 72C112.2 73.1 111.8 74 111.3 74.8L110.5 74.2C110.9 73.5 111.4 72.6 111.7 71.6L112.5 72ZM114.1 71.6V73.8C114.1 74 114.2 74.1 114.5 74.1H116.6C116.8 74.1 116.9 74 117 74C117.1 73.9 117.2 73.4 117.2 72.6L118.1 72.9C118 74 117.9 74.6 117.6 74.8C117.4 75 117.1 75.1 116.6 75.1H114C113.7 75.1 113.5 75 113.3 74.8C113.1 74.6 113 74.4 113 74.1V71.6H114.1V71.6ZM116.7 72.4L115.9 73C115.6 72.5 115.1 71.9 114.5 71.3L115.2 70.9C115.8 71.4 116.3 71.9 116.7 72.4ZM119.7 65V70.7H115.2V65H119.7ZM118.7 66.6V65.9H116.1V66.6H118.7ZM118.7 68.2V67.5H116.1V68.2H118.7ZM118.7 69H116.1V69.8H118.7V69ZM120.3 73.6L119.4 74.3C119.1 73.5 118.7 72.7 118.2 71.7L118.9 71.2C119.5 72.1 120 72.9 120.3 73.6Z" fill="#3E3A39"/>
<path d="M130.1 65V65.9H126.9V66.8H129.5V69.8H125.3C125.1 70.1 125 70.3 124.8 70.6H130.1V71.5H128.1C127.8 72.1 127.4 72.7 127 73.1C128.1 73.5 129.1 73.8 130 74.3L129.2 75.2C128.3 74.7 127.2 74.3 126.1 73.9C125.1 74.5 123.4 74.9 120.9 75.3L120.5 74.3C122.5 74.2 123.9 73.9 124.8 73.6C123.9 73.3 122.9 73.1 121.8 72.9C122.2 72.5 122.6 72 122.9 71.6H120.3V70.7H123.6C123.8 70.4 123.9 70.2 124.1 69.9H121V66.9H123.6V66H120.6V65H130.1ZM123.6 67.7H122V68.9H123.6V67.7ZM127.1 71.5H124.1C123.9 71.8 123.7 72 123.5 72.2C124.5 72.4 125.4 72.6 126 72.8C126.5 72.5 126.8 72 127.1 71.5ZM126 65.9H124.6V66.8H126V65.9ZM126 67.7H124.6V68.9H126V67.7ZM128.6 67.7H127V68.9H128.6V67.7Z" fill="#3E3A39"/>
<path d="M133.6 64.8C133.5 65.4 133.3 66 133.1 66.5H134.6V68.9C134.9 68.3 135.2 67.8 135.3 67.2C135.5 66.6 135.7 65.7 135.8 64.6L136.8 64.8C136.7 65.4 136.6 66 136.5 66.4H139.8C139.8 70.4 139.7 72.8 139.6 73.6C139.5 74.2 139.3 74.6 139.1 74.8C138.8 75 138.3 75.1 137.5 75.1C137.3 75.1 137 75.1 136.7 75.1L136.5 74C136.8 74.1 137.1 74.1 137.5 74.1C138.2 74.1 138.5 73.9 138.6 73.4C138.7 72.8 138.8 70.9 138.8 67.6H136.3C136.3 67.7 136.2 67.7 136.2 67.8C136 68.6 135.6 69.5 135 70.4L134.5 69.7V74.4H133.6V73.9H131.7V74.8H130.8V66.6H132.1C132.3 66 132.5 65.4 132.6 64.8H133.6ZM133.6 69.6V67.4H131.7V69.6H133.6ZM133.6 72.8V70.5H131.7V72.8H133.6ZM138 71.7L137 72.4C136.7 71.6 136.3 70.6 135.8 69.5L136.6 68.9C137.2 70 137.7 70.9 138 71.7Z" fill="#3E3A39"/>
<path d="M145.5 71.1C145.3 71.3 145.1 71.6 144.7 71.8L144.4 71.2C144.9 70.9 145.2 70.6 145.3 70.2H144.6V68.8H145.9V69.9C145.9 70.4 145.7 70.8 145.5 71.1Z" fill="#3E3A39"/>
<path d="M10.6 90.1V91.2H1.40002V90.1H10.6Z" fill="#3E3A39"/>
<path d="M14.7 91.8C14 93.1 13.2999 94.3 12.4999 95.3L11.7 94.4C12.4 93.7 13.0999 92.6 13.8999 91.2L14.7 91.8ZM14.3999 87.7L13.7999 88.8C13.1999 88.1 12.4999 87.5 11.8999 87.1L12.3999 86.2C13.0999 86.7 13.6999 87.2 14.3999 87.7ZM17.7999 89.4V90.3C18.0999 91.5 18.4999 92.5 19.0999 93.3C19.5999 93.9 20.2999 94.6 21.3999 95.3L20.7 96.2C19.8 95.6 19.2 95.1 18.7 94.5C18.1 93.8 17.5999 93 17.2999 92C16.9999 93 16.7 93.8 16.2 94.4C15.7 95 14.9999 95.6 14.0999 96.2L13.4999 95.3C14.6999 94.5 15.5999 93.7 15.9999 92.8C16.4999 91.9 16.7 91.1 16.7 90.3V89.4H17.7999V89.4ZM17.0999 86C16.9999 86.5 16.9 87 16.7 87.5H21.0999V88.5C20.5999 89.8 20.0999 90.9 19.4999 91.7L18.7 91C19.2 90.4 19.5999 89.5 19.9999 88.4H16.2999C15.8999 89.3 15.3999 90 14.7999 90.6L13.8999 89.9C15.0999 88.8 15.7999 87.4 16.0999 85.7L17.0999 86Z" fill="#3E3A39"/>
<path d="M23.9001 87.4C23.8001 87 23.6001 86.6 23.5001 86.2L24.5001 86.1C24.6001 86.5 24.8001 86.9 24.9001 87.4H25.6001C25.7001 86.9 25.8001 86.4 25.9001 85.8L26.8 85.9C26.7 86.4 26.6001 86.9 26.5001 87.3H30.6001C30.5001 88.1 30.4 88.8 30.3 89.3H31.3C31.2 90.1 31.1001 90.8 31.0001 91.3H31.8C31.8 93.9 31.6001 95.3 31.2001 95.7C31.0001 96 30.3001 96.2 29.1001 96.2L28.9001 95.1C29.2001 95.2 29.5001 95.2 29.7001 95.2C30.1001 95.2 30.4001 95.1 30.6001 94.9C30.8001 94.7 30.9001 93.8 31.0001 92.2H24.6001C24.1001 92.9 23.6001 93.6 23.1001 94.1L22.3 93.5C23.7 92.1 24.7001 90.3 25.4001 88.3H22.9001V87.3H23.9001V87.4ZM25.3 93.3C25 94.4 24.6001 95.4 24.1001 96.2L23.3 95.6C23.8 94.8 24.2001 94 24.4001 93.1L25.3 93.3ZM25.1001 91.5H30.1001C30.2001 91.2 30.2 90.8 30.3 90.4H25.6001C25.4001 90.8 25.3001 91.1 25.1001 91.5ZM26.9001 96L25.9001 96.1C25.9001 94.9 25.8001 93.9 25.7001 93.3L26.5001 93.2C26.7001 93.9 26.9001 94.8 26.9001 96ZM25.9001 89.4H29.4001C29.5001 89.1 29.5001 88.8 29.6001 88.4H26.3C26.1 88.8 26.0001 89.1 25.9001 89.4ZM28.7001 95.2L27.8 95.4C27.7 94.6 27.5001 93.9 27.2001 93.2L28.0001 92.9C28.3001 93.6 28.5001 94.4 28.7001 95.2ZM30.2001 94.5L29.4001 94.8C29.2001 94.2 29.1 93.5 28.8 92.9L29.5001 92.7C29.8001 93.4 30.1001 94 30.2001 94.5Z" fill="#3E3A39"/>
<path d="M35.9001 86.2C35.6001 86.9 35.3001 87.5 35.0001 88V92.4H34.0001V89.2C33.7001 89.5 33.4001 89.8 33.1001 90.1L32.8 88.9C33.3 88.5 33.7001 88 34.0001 87.6C34.4001 87.2 34.7001 86.6 35.0001 85.8L35.9001 86.2ZM34.9001 93.2C34.6001 94.2 34.3001 95.1 33.9001 95.9L33.0001 95.2C33.4001 94.5 33.8001 93.7 34.1001 92.8L34.9001 93.2ZM36.4001 92.8V94.8C36.4001 95 36.5 95.2 36.8 95.2H39.1001C39.3001 95.2 39.4001 95.2 39.5001 95.1C39.6001 95 39.7001 94.6 39.7001 93.8L40.7001 94.1C40.6001 95.1 40.5 95.7 40.3 95.9C40.1 96.1 39.8 96.2 39.3 96.2H36.5001C36.2001 96.2 36 96.1 35.8 95.9C35.6 95.7 35.5001 95.5 35.5001 95.2V92.9H36.4001V92.8ZM38.2001 86C38.1001 86.2 38.0001 86.4 37.9001 86.6H42.2001C42.1001 87.3 42.0001 88 41.7001 88.8L40.7001 88.5C40.8001 88.2 40.9001 87.9 41.0001 87.6H39.5001V91.4C39.5001 91.8 39.4 92 39.3 92.2C39.2 92.4 38.9001 92.4 38.5001 92.4H37.5001L37.3 91.4C37.7 91.5 38.0001 91.5 38.2001 91.5C38.4001 91.5 38.6001 91.4 38.6001 91.3V87.7H37.3C36.9 88.3 36.5001 88.9 36.1001 89.3L35.4001 88.4C36.2001 87.7 36.8001 86.9 37.2001 86H38.2001ZM37.8 88.9C37.5 89.9 37.0001 90.8 36.4001 91.5L35.6001 90.9C36.2001 90.2 36.7001 89.5 36.9001 88.6L37.8 88.9ZM39.0001 94L38.1001 94.4C37.8001 93.8 37.5001 93.2 37.1001 92.7L38.0001 92.4C38.4001 92.9 38.8001 93.5 39.0001 94ZM42.3 91L41.4001 91.7C41.1001 91 40.6001 90.1 40.1001 89.2L40.8 88.7C41.5 89.6 42 90.4 42.3 91ZM42.7001 95.1L41.7001 95.5C41.2001 94.4 40.7001 93.5 40.2001 92.6L41.2001 92.3C41.7001 93.2 42.2001 94.1 42.7001 95.1Z" fill="#3E3A39"/>
<path d="M48.6 86.1C48.5 86.4 48.3 86.8 48.2 87H49.6C49.5 86.7 49.3 86.3 49.1 86L50.1 85.9C50.3 86.2 50.4 86.6 50.6 87H52.9V87.9H50.6V88.6H52.6V89.5H50.6V90.2H52.6V91.1H50.6V91.8H53.1V92.7H48.8V93.5H53.2V94.5H48.8V96.5H47.8V94.5H43.4V93.5H47.8V92.7H46.7V89.7C46.6 89.9 46.4 90 46.3 90.1L45.6 89.2C46.5 88.2 47.2 87.1 47.6 85.9L48.6 86.1ZM45.6 89L45 90C44.5 89.6 43.9 89.2 43.4 89L43.9 88.1C44.5 88.3 45.1 88.6 45.6 89ZM46 90.7C45.6 91.6 45 92.4 44.4 93.2L43.7 92.3C44.3 91.6 44.9 90.8 45.4 89.9L46 90.7ZM46.4 87L45.8 87.9C45.2 87.5 44.6 87.1 44 86.8L44.5 86C45.2 86.3 45.8 86.6 46.4 87ZM49.6 87.9H47.7C47.7 88 47.6 88 47.6 88V88.5H49.6V87.9ZM49.6 89.4H47.6V90.1H49.6V89.4ZM49.6 91H47.6V91.7H49.6V91Z" fill="#3E3A39"/>
<path d="M56.9 86.2C56.6 87.1 56.4 87.9 56.1 88.6V96.2H55.1V90.3C54.9 90.7 54.6 91.1 54.3 91.4L54 90.1C54.4 89.5 54.8 88.9 55.1 88.2C55.4 87.6 55.7 86.8 56 85.7L56.9 86.2ZM58.3 86.7V85.8H59.2V86.7H60.9V85.8H61.8V86.7H63.4V87.6H61.8V88.6H63.7V89.5H58V90.1C58 91.4 57.9 92.5 57.8 93.3C57.7 94.1 57.4 95 57 95.9L56.2 95.1C56.5 94.4 56.8 93.7 56.9 92.9C57 92.3 57.1 91.3 57.1 90.1V89.5H56.4V88.6H58.3V87.6H56.9V86.7H58.3V86.7ZM63.2 95.3C63.2 95.6 63.1 95.9 62.9 96.1C62.8 96.3 62.6 96.3 62.3 96.3H61.6L61.4 95.4H61.9C62.1 95.4 62.2 95.3 62.2 95V94.4H61.1V96.2H60.2V94.4H59.1V96.2H58.2V90.1H63.1V95.3H63.2ZM60.9 87.6H59.2V88.6H60.9V87.6ZM60.3 91.9V91H59.2V91.9H60.3ZM60.3 93.7V92.8H59.2V93.7H60.3ZM61.2 91.9H62.3V91H61.2V91.9ZM61.2 93.7H62.3V92.8H61.2V93.7Z" fill="#3E3A39"/>
<path d="M70.2 86.1V87.1H67.5L66.6 89.4C67.4 89.4 68.2 89.3 68.9 89.3C68.8 88.9 68.6 88.6 68.4 88.1L69.1 87.6C69.6 88.6 70 89.5 70.3 90.2L69.4 90.9C69.3 90.7 69.2 90.4 69.2 90.1C68.8 90.2 68.4 90.2 67.9 90.3V91.8H69.8V92.8H67.9V94.5C68.7 94.4 69.5 94.3 70.3 94.1V95.1C68.8 95.4 67 95.7 64.9 96L64.6 94.9C65.4 94.8 66.2 94.8 66.9 94.7V92.8H65V91.8H66.9V90.4C66.3 90.4 65.7 90.5 65 90.5L64.8 89.4C65 89.4 65.2 89.4 65.4 89.4L66.3 87.1H64.6V86.1H70.2V86.1ZM71.8 86.6V93.9H70.8V86.6H71.8ZM73.8 85.8V95C73.8 95.4 73.7 95.7 73.5 95.9C73.3 96.1 73.1 96.2 72.6 96.2H71.2L71 95C71.5 95.1 72 95.1 72.4 95.1C72.7 95.1 72.8 95 72.8 94.8V85.8H73.8V85.8Z" fill="#3E3A39"/>
<path d="M78.2 86.2C77.9 87.1 77.7 87.9 77.4 88.5V96.3H76.4V90.2C76.1 90.7 75.8 91.1 75.4 91.6L75.1 90.3C75.5 89.7 75.9 89 76.3 88.4C76.6 87.8 77 86.9 77.3 85.8L78.2 86.2ZM84.9 94.6V95.6H77.8V94.6H84.9ZM84.6 88.2V89.2H78V88.2H84.6ZM81 93.8L80 94.1C79.7 92.7 79.2 91.3 78.7 90L79.7 89.7C80.1 90.8 80.6 92.2 81 93.8ZM82.1 87.3L81.4 88.1C81 87.6 80.5 87.1 79.8 86.5L80.5 85.8C81.1 86.3 81.6 86.8 82.1 87.3ZM83.9 89.9C83.6 91.5 83.1 92.9 82.6 94.2L81.6 93.8C82.1 92.7 82.5 91.3 82.9 89.6L83.9 89.9Z" fill="#3E3A39"/>
<path d="M91.7001 92.2C91.4001 92.5 91.1001 92.6 90.7001 92.6C90.3001 92.6 89.9001 92.5 89.7001 92.2C89.4001 91.9 89.3 91.5 89.3 91.1C89.3 90.7 89.4001 90.3 89.7001 90C90.0001 89.7 90.3001 89.6 90.7001 89.6C91.1001 89.6 91.5001 89.7 91.7001 90C92.0001 90.3 92.1001 90.7 92.1001 91.1C92.1001 91.5 91.9001 91.9 91.7001 92.2ZM91.1001 90.6C91.0001 90.5 90.8001 90.4 90.6001 90.4C90.4001 90.4 90.2001 90.5 90.1001 90.6C90.0001 90.7 89.9001 90.9 89.9001 91.1C89.9001 91.3 90.0001 91.5 90.1001 91.6C90.2001 91.8 90.4001 91.8 90.6001 91.8C90.8001 91.8 91.0001 91.7 91.1001 91.6C91.2001 91.5 91.3 91.3 91.3 91.1C91.3 90.9 91.3001 90.7 91.1001 90.6Z" fill="#3E3A39"/>
<g opacity="0.6">
<path d="M3.79993 136.4C3.79993 136.9 3.59995 137.3 3.09995 137.6C2.69995 137.8 2.29995 137.9 1.69995 137.9C1.59995 137.9 1.29993 137.9 0.799927 137.9V132.7H1.69995C2.19995 132.7 2.59993 132.8 2.89993 132.9C3.29993 133.1 3.49994 133.4 3.49994 133.8C3.49994 134.1 3.39995 134.3 3.19995 134.6C2.99995 134.8 2.79994 135 2.49994 135.1C2.89994 135.2 3.19993 135.3 3.39993 135.5C3.59993 135.7 3.79993 136 3.79993 136.4ZM3.29993 136.4C3.29993 136 3.19993 135.7 2.89993 135.5C2.69993 135.3 2.39994 135.2 1.99994 135.2H1.69995V135H1.89993C2.29993 135 2.49995 134.9 2.69995 134.6C2.79995 134.4 2.89993 134.1 2.89993 133.9C2.89993 133.2 2.39994 132.8 1.49994 132.8H1.19995V137.7H1.49994C2.69994 137.7 3.29993 137.3 3.29993 136.4Z" fill="#C9A063"/>
<path d="M7.59995 135.8H5.59995V135.6H7.09995C7.09995 135 6.79993 134.7 6.29993 134.7C5.99993 134.7 5.69994 134.8 5.49994 135.1C5.29994 135.4 5.19995 135.7 5.19995 136.2C5.19995 136.7 5.29994 137 5.49994 137.3C5.69994 137.6 5.99993 137.7 6.29993 137.7C6.69993 137.7 6.99993 137.5 7.29993 137.2L7.49994 137.4C7.19994 137.7 6.79993 137.9 6.39993 137.9C5.89993 137.9 5.59995 137.7 5.19995 137.4C4.89995 137.1 4.69995 136.7 4.69995 136.2C4.69995 135.7 4.89995 135.3 5.19995 135C5.49995 134.7 5.89993 134.5 6.29993 134.5C6.59993 134.5 6.89995 134.6 7.19995 134.9C7.49995 135.2 7.59995 135.5 7.59995 135.8Z" fill="#C9A063"/>
<path d="M10.7999 135.7V137.8H10.2999V137.5C10.0999 137.7 9.79994 137.8 9.49994 137.8C9.19994 137.8 8.89995 137.7 8.69995 137.5C8.49995 137.3 8.29993 137.1 8.29993 136.7C8.29993 136.4 8.39995 136.1 8.69995 135.9C8.89995 135.7 9.19993 135.6 9.39993 135.6C9.49993 135.6 9.59995 135.6 9.59995 135.6C9.79995 135.6 9.89994 135.7 9.99994 135.7L9.89993 135.9C9.69993 135.8 9.59993 135.7 9.39993 135.7C9.19993 135.7 8.99993 135.8 8.89993 135.9C8.79993 136.1 8.69995 136.3 8.69995 136.6C8.69995 136.9 8.79993 137.1 8.89993 137.2C8.99993 137.4 9.19993 137.4 9.39993 137.4C9.69993 137.4 9.99995 137.2 10.2 136.9V135.4C10.2 134.7 9.99994 134.4 9.49994 134.4C9.19994 134.4 8.99995 134.5 8.69995 134.7L8.59995 134.5C8.79995 134.3 9.09994 134.3 9.49994 134.3C10.3999 134.5 10.7999 134.9 10.7999 135.7Z" fill="#C9A063"/>
<path d="M14.4999 137.8H13.9999V137.2C13.7999 137.6 13.3999 137.8 12.9999 137.8C12.1999 137.8 11.7999 137.4 11.7999 136.6V134.4H12.2999V136.6C12.2999 137.3 12.4999 137.6 12.9999 137.6C13.2999 137.6 13.5 137.4 13.7 137.1C13.8 136.9 13.8999 136.7 13.8999 136.5V134.4H14.3999V137.8H14.4999Z" fill="#C9A063"/>
<path d="M16.9 134.7H16.3V136.7C16.3 137 16.3 137.3 16.4 137.4C16.5 137.5 16.6 137.6 16.9 137.6V137.8C16.2 137.8 15.8 137.4 15.8 136.7V134.7H15.5V134.5H15.8V134.1H16.3V134.5H16.9V134.7Z" fill="#C9A063"/>
<path d="M20.7 134.6L18.8999 139.1H18.7L19.2 137.8L17.7999 134.6H18.2999L19.3999 137.2L20.3999 134.6H20.7Z" fill="#C9A063"/>
<path d="M23.5 137.8H23V132.8H23.5V137.8Z" fill="#C9A063"/>
<path d="M25.2 133.2C25.2 133.3 25.2 133.4 25.1 133.4C25 133.4 25 133.5 24.9 133.5C24.8 133.5 24.7 133.5 24.7 133.4C24.7 133.3 24.6 133.3 24.6 133.2C24.6 133.1 24.6 133 24.7 133C24.8 132.9 24.8 132.9 24.9 132.9C25 132.9 25.1 132.9 25.1 133C25.2 133 25.2 133.1 25.2 133.2ZM25.1 137.8H24.6V134.6H25.1V137.8Z" fill="#C9A063"/>
<path d="M29 135.8H27V135.6H28.5C28.5 135 28.2 134.7 27.7 134.7C27.4 134.7 27.1 134.8 26.9 135.1C26.7 135.4 26.6 135.7 26.6 136.2C26.6 136.7 26.7 137 26.9 137.3C27.1 137.6 27.4 137.7 27.7 137.7C28.1 137.7 28.4 137.5 28.7 137.2L28.9 137.4C28.6 137.7 28.2 137.9 27.8 137.9C27.3 137.9 27 137.7 26.6 137.4C26.3 137.1 26.1 136.7 26.1 136.2C26.1 135.7 26.3 135.3 26.6 135C26.9 134.7 27.3 134.5 27.7 134.5C28 134.5 28.3 134.6 28.6 134.9C28.9 135.2 29 135.5 29 135.8Z" fill="#C9A063"/>
<path d="M31.7 137C31.7 137.3 31.5999 137.5 31.3999 137.6C31.1999 137.8 31 137.8 30.7 137.8C30.3 137.8 29.9999 137.7 29.7999 137.4L29.8999 137.2C30.0999 137.5 30.4 137.6 30.7 137.6C30.9 137.6 30.9999 137.5 31.0999 137.4C31.1999 137.3 31.2999 137.1 31.2999 137C31.2999 136.8 31.1999 136.6 30.9999 136.5C30.8999 136.4 30.6999 136.3 30.3999 136.1C29.9999 135.9 29.8999 135.6 29.8999 135.2C29.8999 135 30 134.8 30.2 134.6C30.4 134.5 30.5999 134.4 30.7999 134.4C30.9999 134.4 31.0999 134.4 31.2999 134.5C31.4999 134.6 31.5999 134.7 31.5999 134.8L31.3999 135C31.1999 134.7 31 134.6 30.7 134.6C30.4 134.6 30.2 134.7 30.2 135C30.2 135.2 30.2999 135.4 30.4999 135.6C30.8999 135.8 31.1 136 31.2 136.1C31.6 136.4 31.8 136.7 31.7 137Z" fill="#C9A063"/>
<path d="M34.7999 133.2C34.7999 133.3 34.8 133.4 34.7 133.4C34.6 133.4 34.5999 133.5 34.4999 133.5C34.3999 133.5 34.2999 133.5 34.2999 133.4C34.2999 133.3 34.2 133.3 34.2 133.2C34.2 133.1 34.1999 133 34.2999 133C34.3999 132.9 34.3999 132.9 34.4999 132.9C34.5999 132.9 34.7 132.9 34.7 133C34.7 133 34.7999 133.1 34.7999 133.2ZM34.7 137.8H34.2V134.6H34.7V137.8Z" fill="#C9A063"/>
<path d="M38.4999 137.8H37.9999V135.6C37.9999 134.9 37.7999 134.6 37.2999 134.6C36.7999 134.6 36.4999 134.9 36.2999 135.5V137.8H35.7999V134.6H36.2999V135C36.5999 134.6 36.8999 134.5 37.2999 134.5C37.6999 134.5 37.9999 134.6 38.0999 134.7C38.2999 134.9 38.3999 135.2 38.3999 135.6V137.8H38.4999Z" fill="#C9A063"/>
<path d="M42.2999 134.7H41.6999V136.7C41.6999 137 41.6999 137.3 41.7999 137.4C41.8999 137.5 41.9999 137.6 42.2999 137.6V137.8C41.5999 137.8 41.1999 137.4 41.1999 136.7V134.7H40.8999V134.5H41.1999V134.1H41.6999V134.5H42.2999V134.7Z" fill="#C9A063"/>
<path d="M45.8999 137.8H45.3999V135.6C45.3999 134.9 45.2 134.6 44.7 134.6C44.2 134.6 43.9 134.9 43.7 135.5V137.8H43.2V132.8H43.7V135C44 134.6 44.3 134.5 44.7 134.5C45.1 134.5 45.3999 134.6 45.4999 134.7C45.6999 134.9 45.7999 135.2 45.7999 135.6V137.8H45.8999Z" fill="#C9A063"/>
<path d="M49.7999 135.8H47.7999V135.6H49.2999C49.2999 135 48.9999 134.7 48.4999 134.7C48.1999 134.7 47.8999 134.8 47.6999 135.1C47.4999 135.4 47.3999 135.7 47.3999 136.2C47.3999 136.7 47.4999 137 47.6999 137.3C47.8999 137.6 48.1999 137.7 48.4999 137.7C48.8999 137.7 49.1999 137.5 49.4999 137.2L49.6999 137.4C49.3999 137.7 48.9999 137.9 48.5999 137.9C48.0999 137.9 47.7999 137.7 47.3999 137.4C47.0999 137.1 46.8999 136.7 46.8999 136.2C46.8999 135.7 47.0999 135.3 47.3999 135C47.6999 134.7 48.0999 134.5 48.4999 134.5C48.7999 134.5 49.0999 134.6 49.3999 134.9C49.6999 135.2 49.7999 135.5 49.7999 135.8Z" fill="#C9A063"/>
<path d="M54.8 137.4C54.5 137.7 54.1 137.8 53.7 137.8C53.2 137.8 52.9 137.6 52.5 137.3C52.2 137 52 136.6 52 136.1C52 135.6 52.2 135.2 52.5 134.9C52.8 134.6 53.2 134.4 53.7 134.4C54.1 134.4 54.4 134.5 54.7 134.7L54.6 134.9C54.4 134.7 54.1 134.5 53.7 134.5C53.4 134.5 53.1 134.7 52.9 135C52.7 135.3 52.6 135.6 52.6 136C52.6 136.4 52.7 136.8 52.9 137C53.1 137.3 53.4 137.5 53.7 137.5C54.1 137.5 54.4 137.3 54.7 137L54.8 137.4Z" fill="#C9A063"/>
<path d="M58.5999 136.2C58.5999 136.7 58.3999 137.1 58.0999 137.4C57.7999 137.7 57.3999 137.9 56.8999 137.9C56.3999 137.9 56.1 137.7 55.7 137.4C55.4 137.1 55.2 136.7 55.2 136.2C55.2 135.7 55.4 135.4 55.7 135C56 134.7 56.3999 134.5 56.8999 134.5C57.3999 134.5 57.6999 134.7 58.0999 135C58.3999 135.4 58.5999 135.7 58.5999 136.2ZM58.0999 136.2C58.0999 135.8 57.9999 135.4 57.7999 135.1C57.5999 134.8 57.2999 134.7 56.9999 134.7C56.6999 134.7 56.4 134.8 56.2 135.1C56 135.4 55.8999 135.7 55.8999 136.2C55.8999 136.6 56 137 56.2 137.3C56.4 137.6 56.6999 137.7 56.9999 137.7C57.2999 137.7 57.5999 137.6 57.7999 137.3C57.9999 137 58.0999 136.6 58.0999 136.2Z" fill="#C9A063"/>
<path d="M64 137.8H63.5V135.6C63.5 135.3 63.5 135.1 63.4 134.9C63.3 134.7 63.2 134.7 62.9 134.7C62.5 134.7 62.3 135 62 135.5V135.6V137.8H61.5V135.6C61.5 135.3 61.5 135.1 61.4 134.9C61.3 134.8 61.1 134.7 60.9 134.7C60.7 134.7 60.6 134.8 60.4 134.9C60.2 135 60.1 135.3 60 135.5V137.8H59.5V134.6H60V135C60.3 134.7 60.6 134.5 60.9 134.5C61.4 134.5 61.7 134.7 61.9 135C62.2 134.6 62.5 134.5 62.9 134.5C63.6 134.5 64 134.9 64 135.6V137.8Z" fill="#C9A063"/>
<path d="M67.9 136.2C67.9 136.7 67.8 137.1 67.5 137.4C67.2 137.7 66.9 137.9 66.4 137.9C66.1 137.9 65.8 137.8 65.6 137.5V137.8H65.1V132.8H65.6V137C65.7 137.2 65.8 137.4 65.9 137.5C66 137.6 66.2 137.7 66.4 137.7C66.7 137.7 66.9 137.6 67.1 137.3C67.3 137 67.4 136.7 67.4 136.2C67.4 135.8 67.3 135.4 67.1 135.1C66.9 134.8 66.7 134.7 66.4 134.7C66.2 134.7 66.1 134.8 65.9 134.9L65.8 134.7C66 134.6 66.2 134.6 66.4 134.6C66.8 134.6 67.2 134.8 67.5 135.1C67.8 135.4 67.9 135.7 67.9 136.2Z" fill="#C9A063"/>
<path d="M69.4999 133.2C69.4999 133.3 69.4999 133.4 69.3999 133.4C69.2999 133.4 69.2999 133.5 69.1999 133.5C69.0999 133.5 68.9999 133.5 68.9999 133.4C68.9999 133.3 68.8999 133.3 68.8999 133.2C68.8999 133.1 68.8999 133 68.9999 133C69.0999 132.9 69.0999 132.9 69.1999 132.9C69.2999 132.9 69.3999 132.9 69.3999 133C69.4999 133 69.4999 133.1 69.4999 133.2ZM69.3999 137.8H68.9999V134.6H69.4999V137.8H69.3999Z" fill="#C9A063"/>
<path d="M73.2 137.8H72.7V135.6C72.7 134.9 72.5 134.6 72 134.6C71.5 134.6 71.2 134.9 71 135.5V137.8H70.5V134.6H71V135C71.3 134.6 71.6 134.5 72 134.5C72.4 134.5 72.7 134.6 72.8 134.7C73 134.9 73.1 135.2 73.1 135.6V137.8H73.2Z" fill="#C9A063"/>
<path d="M76.7 135.7V137.8H76.2V137.5C76 137.7 75.6999 137.8 75.3999 137.8C75.0999 137.8 74.7999 137.7 74.5999 137.5C74.3999 137.3 74.2 137.1 74.2 136.7C74.2 136.4 74.2999 136.1 74.5999 135.9C74.7999 135.7 75.0999 135.6 75.2999 135.6C75.3999 135.6 75.4999 135.6 75.4999 135.6C75.6999 135.6 75.7999 135.7 75.8999 135.7L75.7999 135.9C75.5999 135.8 75.4999 135.7 75.2999 135.7C75.0999 135.7 74.8999 135.8 74.7999 135.9C74.6999 136.1 74.5999 136.3 74.5999 136.6C74.5999 136.9 74.6999 137.1 74.7999 137.2C74.8999 137.4 75.0999 137.4 75.2999 137.4C75.5999 137.4 75.8999 137.2 76.0999 136.9V135.4C76.0999 134.7 75.8999 134.4 75.3999 134.4C75.0999 134.4 74.8999 134.5 74.5999 134.7L74.4999 134.5C74.6999 134.3 74.9999 134.3 75.3999 134.3C76.2999 134.5 76.7 134.9 76.7 135.7Z" fill="#C9A063"/>
<path d="M79 134.7H78.4V136.7C78.4 137 78.4 137.3 78.5 137.4C78.6 137.5 78.7 137.6 79 137.6V137.8C78.3 137.8 77.9 137.4 77.9 136.7V134.7H77.6V134.5H77.9V134.1H78.4V134.5H79V134.7Z" fill="#C9A063"/>
<path d="M80.4999 133.2C80.4999 133.3 80.4999 133.4 80.3999 133.4C80.2999 133.4 80.2999 133.5 80.1999 133.5C80.0999 133.5 79.9999 133.5 79.9999 133.4C79.9999 133.3 79.8999 133.3 79.8999 133.2C79.8999 133.1 79.8999 133 79.9999 133C80.0999 132.9 80.0999 132.9 80.1999 132.9C80.2999 132.9 80.3999 132.9 80.3999 133C80.4999 133 80.4999 133.1 80.4999 133.2ZM80.3999 137.8H79.9999V134.6H80.4999V137.8H80.3999Z" fill="#C9A063"/>
<path d="M84.7999 136.2C84.7999 136.7 84.5999 137.1 84.2999 137.4C83.9999 137.7 83.5999 137.9 83.0999 137.9C82.5999 137.9 82.2999 137.7 81.8999 137.4C81.5999 137.1 81.3999 136.7 81.3999 136.2C81.3999 135.7 81.5999 135.4 81.8999 135C82.1999 134.7 82.5999 134.5 83.0999 134.5C83.5999 134.5 83.8999 134.7 84.2999 135C84.5999 135.4 84.7999 135.7 84.7999 136.2ZM84.2999 136.2C84.2999 135.8 84.1999 135.4 83.9999 135.1C83.7999 134.8 83.4999 134.7 83.1999 134.7C82.8999 134.7 82.5999 134.8 82.3999 135.1C82.1999 135.4 82.0999 135.7 82.0999 136.2C82.0999 136.6 82.1999 137 82.3999 137.3C82.5999 137.6 82.8999 137.7 83.1999 137.7C83.4999 137.7 83.7999 137.6 83.9999 137.3C84.1999 137 84.2999 136.6 84.2999 136.2Z" fill="#C9A063"/>
<path d="M88.3999 137.8H87.9999V135.6C87.9999 134.9 87.7999 134.6 87.2999 134.6C86.7999 134.6 86.4999 134.9 86.2999 135.5V137.8H85.7999V134.6H86.2999V135C86.5999 134.6 86.8999 134.5 87.2999 134.5C87.6999 134.5 87.9999 134.6 88.0999 134.7C88.2999 134.9 88.3999 135.2 88.3999 135.6V137.8V137.8Z" fill="#C9A063"/>
<path d="M94.2 136.2C94.2 136.7 94 137.1 93.7 137.4C93.4 137.7 92.9999 137.9 92.4999 137.9C91.9999 137.9 91.6999 137.7 91.2999 137.4C90.9999 137.1 90.7999 136.7 90.7999 136.2C90.7999 135.7 90.9999 135.4 91.2999 135C91.5999 134.7 91.9999 134.5 92.4999 134.5C92.9999 134.5 93.3 134.7 93.7 135C94.1 135.4 94.2 135.7 94.2 136.2ZM93.7 136.2C93.7 135.8 93.5999 135.4 93.3999 135.1C93.1999 134.8 92.8999 134.7 92.5999 134.7C92.2999 134.7 91.9999 134.8 91.7999 135.1C91.5999 135.4 91.4999 135.7 91.4999 136.2C91.4999 136.6 91.5999 137 91.7999 137.3C91.9999 137.6 92.2999 137.7 92.5999 137.7C92.8999 137.7 93.1999 137.6 93.3999 137.3C93.5999 137 93.7 136.6 93.7 136.2Z" fill="#C9A063"/>
<path d="M96.5 134.7H95.9V137.8H95.4V134.7H95.1V134.5H95.4V133.8C95.4 133.1 95.8 132.8 96.5 132.8V133C96.3 133 96.1 133.1 96 133.2C95.9 133.3 95.9 133.6 95.9 133.9V134.6H96.5V134.7Z" fill="#C9A063"/>
<path d="M3.29996 146.8H2.79996V144.6C2.79996 143.9 2.59998 143.6 2.09998 143.6C1.59998 143.6 1.29998 143.9 1.09998 144.5V146.8H0.599976V143.6H1.09998V144C1.39998 143.6 1.69998 143.5 2.09998 143.5C2.49998 143.5 2.79996 143.6 2.89996 143.7C3.09996 143.9 3.19998 144.2 3.19998 144.6V146.8H3.29996Z" fill="#C9A063"/>
<path d="M6.69995 144.7V146.8H6.19995V146.5C5.99995 146.7 5.69993 146.8 5.39993 146.8C5.09993 146.8 4.79995 146.7 4.59995 146.5C4.39995 146.3 4.19995 146.1 4.19995 145.7C4.19995 145.4 4.29995 145.1 4.59995 144.9C4.79995 144.7 5.09993 144.6 5.29993 144.6C5.39993 144.6 5.49994 144.6 5.49994 144.6C5.69994 144.6 5.79993 144.7 5.89993 144.7L5.79993 144.9C5.59993 144.8 5.49993 144.7 5.29993 144.7C5.09993 144.7 4.89993 144.8 4.79993 144.9C4.69993 145.1 4.59995 145.3 4.59995 145.6C4.59995 145.9 4.69993 146.1 4.79993 146.2C4.89993 146.4 5.09993 146.4 5.29993 146.4C5.59993 146.4 5.89995 146.2 6.09995 145.9V144.4C6.09995 143.7 5.89993 143.4 5.39993 143.4C5.09993 143.4 4.89995 143.5 4.59995 143.7L4.49994 143.5C4.69994 143.3 4.99993 143.3 5.39993 143.3C6.29993 143.5 6.69995 143.9 6.69995 144.7Z" fill="#C9A063"/>
<path d="M9.09995 143.7H8.49994V145.7C8.49994 146 8.49995 146.3 8.59995 146.4C8.69995 146.5 8.79995 146.6 9.09995 146.6V146.8C8.39995 146.8 7.99994 146.4 7.99994 145.7V143.7H7.69995V143.5H7.99994V143.1H8.49994V143.5H9.09995V143.7Z" fill="#C9A063"/>
<path d="M12.5999 146.8H12.0999V146.2C11.8999 146.6 11.4999 146.8 11.0999 146.8C10.2999 146.8 9.8999 146.4 9.8999 145.6V143.4H10.3999V145.6C10.3999 146.3 10.5999 146.6 11.0999 146.6C11.3999 146.6 11.5999 146.4 11.7999 146.1C11.8999 145.9 11.9999 145.7 11.9999 145.5V143.4H12.4999V146.8H12.5999Z" fill="#C9A063"/>
<path d="M15.2999 143.7L15.2 143.9C15.1 143.8 14.8999 143.8 14.7999 143.8C14.6999 143.8 14.6999 143.8 14.5999 143.9C14.3999 144 14.2999 144.3 14.2999 144.8V146.9H13.7999V143.7H14.2999V144.1C14.3999 144 14.3999 143.9 14.4999 143.8C14.5999 143.7 14.6999 143.7 14.8999 143.7C14.9999 143.5 15.1999 143.6 15.2999 143.7Z" fill="#C9A063"/>
<path d="M18.3999 144.7V146.8H17.8999V146.5C17.6999 146.7 17.3999 146.8 17.0999 146.8C16.7999 146.8 16.4999 146.7 16.2999 146.5C16.0999 146.3 15.8999 146.1 15.8999 145.7C15.8999 145.4 15.9999 145.1 16.2999 144.9C16.4999 144.7 16.7999 144.6 16.9999 144.6C17.0999 144.6 17.1999 144.6 17.1999 144.6C17.3999 144.6 17.4999 144.7 17.5999 144.7L17.4999 144.9C17.2999 144.8 17.1999 144.7 16.9999 144.7C16.7999 144.7 16.5999 144.8 16.4999 144.9C16.3999 145.1 16.2999 145.3 16.2999 145.6C16.2999 145.9 16.3999 146.1 16.4999 146.2C16.5999 146.4 16.7999 146.4 16.9999 146.4C17.2999 146.4 17.5999 146.2 17.7999 145.9V144.4C17.7999 143.7 17.5999 143.4 17.0999 143.4C16.7999 143.4 16.5999 143.5 16.2999 143.7L16.1999 143.5C16.3999 143.3 16.6999 143.3 17.0999 143.3C17.9999 143.5 18.3999 143.9 18.3999 144.7Z" fill="#C9A063"/>
<path d="M20 146.8H19.5V141.8H20V146.8Z" fill="#C9A063"/>
<path d="M23 146.8H22.5V141.8H23V146.8Z" fill="#C9A063"/>
<path d="M26.3999 144.7V146.8H25.8999V146.5C25.6999 146.7 25.3999 146.8 25.0999 146.8C24.7999 146.8 24.4999 146.7 24.2999 146.5C24.0999 146.3 23.8999 146.1 23.8999 145.7C23.8999 145.4 23.9999 145.1 24.2999 144.9C24.4999 144.7 24.7999 144.6 24.9999 144.6C25.0999 144.6 25.1999 144.6 25.1999 144.6C25.3999 144.6 25.4999 144.7 25.5999 144.7L25.4999 144.9C25.2999 144.8 25.1999 144.7 24.9999 144.7C24.7999 144.7 24.5999 144.8 24.4999 144.9C24.3999 145.1 24.2999 145.3 24.2999 145.6C24.2999 145.9 24.3999 146.1 24.4999 146.2C24.5999 146.4 24.7999 146.4 24.9999 146.4C25.2999 146.4 25.5999 146.2 25.7999 145.9V144.4C25.7999 143.7 25.5999 143.4 25.0999 143.4C24.7999 143.4 24.5999 143.5 24.2999 143.7L24.1999 143.5C24.3999 143.3 24.6999 143.3 25.0999 143.3C25.9999 143.5 26.3999 143.9 26.3999 144.7Z" fill="#C9A063"/>
<path d="M30.2 146.8H29.7V144.6C29.7 143.9 29.5 143.6 29 143.6C28.5 143.6 28.2 143.9 28 144.5V146.8H27.5V143.6H28V144C28.3 143.6 28.6 143.5 29 143.5C29.4 143.5 29.7 143.6 29.8 143.7C30 143.9 30.1 144.2 30.1 144.6V146.8H30.2Z" fill="#C9A063"/>
<path d="M33.9999 146.8H33.4999V146.5C33.2999 146.7 33 146.9 32.7 146.9C32.3 146.9 31.8999 146.7 31.5999 146.4C31.2999 146.1 31.2 145.7 31.2 145.2C31.2 144.7 31.2999 144.3 31.5999 144C31.8999 143.7 32.2 143.5 32.7 143.5C32.9 143.5 33.0999 143.5 33.2999 143.6L33.2 143.8C33.1 143.7 32.9 143.6 32.7 143.6C32.5 143.6 32.1999 143.7 32.0999 144C31.8999 144.3 31.7999 144.7 31.7999 145.1C31.7999 145.5 31.8999 145.9 32.0999 146.2C32.2999 146.5 32.4999 146.6 32.7999 146.6C32.9999 146.6 33.0999 146.5 33.2999 146.4C33.3999 146.3 33.4999 146.1 33.5999 145.9V141.7H34.0999V146.8H33.9999Z" fill="#C9A063"/>
<path d="M36.7999 146C36.7999 146.3 36.6999 146.5 36.4999 146.6C36.2999 146.8 36.0999 146.8 35.7999 146.8C35.3999 146.8 35.0999 146.7 34.8999 146.4L34.9999 146.2C35.1999 146.5 35.4999 146.6 35.7999 146.6C35.9999 146.6 36.0999 146.5 36.1999 146.4C36.2999 146.3 36.3999 146.1 36.3999 146C36.3999 145.8 36.2999 145.6 36.0999 145.5C35.9999 145.4 35.7999 145.3 35.4999 145.1C35.0999 144.9 34.9999 144.6 34.9999 144.2C34.9999 144 35.0999 143.8 35.2999 143.6C35.4999 143.5 35.6999 143.4 35.8999 143.4C35.9999 143.4 36.1999 143.4 36.3999 143.5C36.5999 143.6 36.6999 143.7 36.6999 143.8L36.4999 144C36.2999 143.7 36.0999 143.6 35.7999 143.6C35.4999 143.6 35.2999 143.7 35.2999 144C35.2999 144.2 35.3999 144.4 35.5999 144.6C35.9999 144.8 36.1999 145 36.2999 145.1C36.6999 145.4 36.8999 145.7 36.7999 146Z" fill="#C9A063"/>
<path d="M40.4999 146.4C40.1999 146.7 39.7999 146.8 39.3999 146.8C38.8999 146.8 38.6 146.6 38.2 146.3C37.9 146 37.7 145.6 37.7 145.1C37.7 144.6 37.9 144.2 38.2 143.9C38.5 143.6 38.8999 143.4 39.3999 143.4C39.7999 143.4 40.0999 143.5 40.3999 143.7L40.2999 143.9C40.0999 143.7 39.7999 143.5 39.3999 143.5C39.0999 143.5 38.7999 143.7 38.5999 144C38.3999 144.3 38.2999 144.6 38.2999 145C38.2999 145.4 38.3999 145.8 38.5999 146C38.7999 146.3 39.0999 146.5 39.3999 146.5C39.7999 146.5 40.0999 146.3 40.3999 146L40.4999 146.4Z" fill="#C9A063"/>
<path d="M43.6 144.7V146.8H43.1V146.5C42.9 146.7 42.6 146.8 42.3 146.8C42 146.8 41.7 146.7 41.5 146.5C41.3 146.3 41.1 146.1 41.1 145.7C41.1 145.4 41.2 145.1 41.5 144.9C41.7 144.7 42 144.6 42.2 144.6C42.3 144.6 42.4 144.6 42.4 144.6C42.6 144.6 42.7 144.7 42.8 144.7L42.7 144.9C42.5 144.8 42.4 144.7 42.2 144.7C42 144.7 41.8 144.8 41.7 144.9C41.6 145.1 41.5 145.3 41.5 145.6C41.5 145.9 41.6 146.1 41.7 146.2C41.8 146.4 42 146.4 42.2 146.4C42.5 146.4 42.8 146.2 43 145.9V144.4C43 143.7 42.8 143.4 42.3 143.4C42 143.4 41.8 143.5 41.5 143.7L41.4 143.5C41.6 143.3 41.9 143.3 42.3 143.3C43.2 143.5 43.6 143.9 43.6 144.7Z" fill="#C9A063"/>
<path d="M47.4 145.2C47.4 145.7 47.3 146 47 146.4C46.7 146.7 46.4 146.9 46 146.9C45.8 146.9 45.6 146.9 45.4 146.8L45.5 146.6C45.6 146.7 45.8 146.8 46 146.8C46.2 146.8 46.5 146.7 46.6 146.4C46.8 146.1 46.9 145.8 46.9 145.3C46.9 144.9 46.8 144.5 46.6 144.2C46.4 143.9 46.2 143.8 45.9 143.8C45.7 143.8 45.6 143.9 45.4 144C45.3 144.1 45.2 144.3 45.1 144.5V148.1H44.6V143.7H45.1V144C45.3 143.8 45.6 143.6 45.9 143.6C46.3 143.6 46.7 143.8 46.9 144.1C47.3 144.4 47.4 144.8 47.4 145.2Z" fill="#C9A063"/>
<path d="M51.2 144.8H49.2V144.6H50.7C50.7 144 50.3999 143.7 49.8999 143.7C49.5999 143.7 49.2999 143.8 49.0999 144.1C48.8999 144.4 48.7999 144.7 48.7999 145.2C48.7999 145.7 48.8999 146 49.0999 146.3C49.2999 146.6 49.5999 146.7 49.8999 146.7C50.2999 146.7 50.5999 146.5 50.8999 146.2L51.0999 146.4C50.7999 146.7 50.3999 146.9 49.9999 146.9C49.4999 146.9 49.1999 146.7 48.7999 146.4C48.4999 146.1 48.2999 145.7 48.2999 145.2C48.2999 144.7 48.4999 144.3 48.7999 144C49.0999 143.7 49.4999 143.5 49.8999 143.5C50.1999 143.5 50.4999 143.6 50.7999 143.9C51.0999 144.2 51.2 144.5 51.2 144.8Z" fill="#C9A063"/>
<path d="M55.8999 144.7V146.8H55.3999V146.5C55.1999 146.7 54.8999 146.8 54.5999 146.8C54.2999 146.8 53.9999 146.7 53.7999 146.5C53.5999 146.3 53.3999 146.1 53.3999 145.7C53.3999 145.4 53.4999 145.1 53.7999 144.9C53.9999 144.7 54.2999 144.6 54.4999 144.6C54.5999 144.6 54.6999 144.6 54.6999 144.6C54.8999 144.6 54.9999 144.7 55.0999 144.7L54.9999 144.9C54.7999 144.8 54.6999 144.7 54.4999 144.7C54.2999 144.7 54.0999 144.8 53.9999 144.9C53.8999 145.1 53.7999 145.3 53.7999 145.6C53.7999 145.9 53.8999 146.1 53.9999 146.2C54.0999 146.4 54.2999 146.4 54.4999 146.4C54.7999 146.4 55.0999 146.2 55.2999 145.9V144.4C55.2999 143.7 55.0999 143.4 54.5999 143.4C54.2999 143.4 54.0999 143.5 53.7999 143.7L53.6999 143.5C53.8999 143.3 54.1999 143.3 54.5999 143.3C55.4999 143.5 55.8999 143.9 55.8999 144.7Z" fill="#C9A063"/>
<path d="M59.7 146.8H59.2V144.6C59.2 143.9 59 143.6 58.5 143.6C58 143.6 57.7 143.9 57.5 144.5V146.8H57V143.6H57.5V144C57.8 143.6 58.1 143.5 58.5 143.5C58.9 143.5 59.2 143.6 59.3 143.7C59.5 143.9 59.6 144.2 59.6 144.6V146.8H59.7Z" fill="#C9A063"/>
<path d="M63.4999 146.8H62.9999V146.5C62.7999 146.7 62.5 146.9 62.2 146.9C61.8 146.9 61.3999 146.7 61.0999 146.4C60.7999 146.1 60.7 145.7 60.7 145.2C60.7 144.7 60.7999 144.3 61.0999 144C61.3999 143.7 61.7 143.5 62.2 143.5C62.4 143.5 62.5999 143.5 62.7999 143.6L62.7 143.8C62.6 143.7 62.4 143.6 62.2 143.6C62 143.6 61.6999 143.7 61.5999 144C61.3999 144.3 61.2999 144.7 61.2999 145.1C61.2999 145.5 61.3999 145.9 61.5999 146.2C61.7999 146.5 61.9999 146.6 62.2999 146.6C62.4999 146.6 62.5999 146.5 62.7999 146.4C62.8999 146.3 62.9999 146.1 63.0999 145.9V141.7H63.5999V146.8H63.4999Z" fill="#C9A063"/>
<path d="M68.3999 144.7V146.8H67.8999V146.5C67.6999 146.7 67.3999 146.8 67.0999 146.8C66.7999 146.8 66.4999 146.7 66.2999 146.5C66.0999 146.3 65.8999 146.1 65.8999 145.7C65.8999 145.4 65.9999 145.1 66.2999 144.9C66.4999 144.7 66.7999 144.6 66.9999 144.6C67.0999 144.6 67.1999 144.6 67.1999 144.6C67.3999 144.6 67.4999 144.7 67.5999 144.7L67.4999 144.9C67.2999 144.8 67.1999 144.7 66.9999 144.7C66.7999 144.7 66.5999 144.8 66.4999 144.9C66.3999 145.1 66.2999 145.3 66.2999 145.6C66.2999 145.9 66.3999 146.1 66.4999 146.2C66.5999 146.4 66.7999 146.4 66.9999 146.4C67.2999 146.4 67.5999 146.2 67.7999 145.9V144.4C67.7999 143.7 67.5999 143.4 67.0999 143.4C66.7999 143.4 66.5999 143.5 66.2999 143.7L66.1999 143.5C66.3999 143.3 66.6999 143.3 67.0999 143.3C67.9999 143.5 68.3999 143.9 68.3999 144.7Z" fill="#C9A063"/>
<path d="M71 143.7L70.9 143.9C70.8 143.8 70.6 143.8 70.5 143.8C70.4 143.8 70.4 143.8 70.3 143.9C70.1 144 70 144.3 70 144.8V146.9H69.5V143.7H70V144.1C70.1 144 70.1 143.9 70.2 143.8C70.3 143.7 70.4 143.7 70.6 143.7C70.7 143.5 70.9 143.6 71 143.7Z" fill="#C9A063"/>
<path d="M73.2 143.7H72.5999V145.7C72.5999 146 72.6 146.3 72.7 146.4C72.8 146.5 72.9 146.6 73.2 146.6V146.8C72.5 146.8 72.0999 146.4 72.0999 145.7V143.7H71.7999V143.5H72.0999V143.1H72.5999V143.5H73.2V143.7Z" fill="#C9A063"/>
<path d="M74.7999 142.2C74.7999 142.3 74.8 142.4 74.7 142.4C74.6 142.4 74.5999 142.5 74.4999 142.5C74.3999 142.5 74.2999 142.5 74.2999 142.4C74.2999 142.3 74.2 142.3 74.2 142.2C74.2 142.1 74.1999 142 74.2999 142C74.3999 141.9 74.3999 141.9 74.4999 141.9C74.5999 141.9 74.7 141.9 74.7 142C74.7 142 74.7999 142.1 74.7999 142.2ZM74.7 146.8H74.2V143.6H74.7V146.8Z" fill="#C9A063"/>
<path d="M77.5 146C77.5 146.3 77.4 146.5 77.2 146.6C77 146.8 76.8 146.8 76.5 146.8C76.1 146.8 75.8 146.7 75.6 146.4L75.8 146.2C76 146.5 76.3 146.6 76.6 146.6C76.8 146.6 76.9 146.5 77 146.4C77.1 146.3 77.2 146.1 77.2 146C77.2 145.8 77.1 145.6 76.9 145.5C76.8 145.4 76.6 145.3 76.3 145.1C75.9 144.9 75.8 144.6 75.8 144.2C75.8 144 75.9 143.8 76.1 143.6C76.3 143.5 76.5 143.4 76.7 143.4C76.8 143.4 77 143.4 77.2 143.5C77.4 143.6 77.5 143.7 77.5 143.8L77.3 144C77.1 143.7 76.9 143.6 76.6 143.6C76.3 143.6 76.1 143.7 76.1 144C76.1 144.2 76.2 144.4 76.4 144.6C76.8 144.8 77 145 77.1 145.1C77.4 145.4 77.6 145.7 77.5 146Z" fill="#C9A063"/>
<path d="M79.7999 143.7H79.1999V145.7C79.1999 146 79.1999 146.3 79.2999 146.4C79.3999 146.5 79.4999 146.6 79.7999 146.6V146.8C79.0999 146.8 78.6999 146.4 78.6999 145.7V143.7H78.3999V143.5H78.6999V143.1H79.1999V143.5H79.7999V143.7Z" fill="#C9A063"/>
<path d="M81.2999 142.2C81.2999 142.3 81.3 142.4 81.2 142.4C81.1 142.4 81.0999 142.5 80.9999 142.5C80.8999 142.5 80.7999 142.5 80.7999 142.4C80.7999 142.3 80.7 142.3 80.7 142.2C80.7 142.1 80.6999 142 80.7999 142C80.8999 141.9 80.8999 141.9 80.9999 141.9C81.0999 141.9 81.2 141.9 81.2 142C81.3 142 81.2999 142.1 81.2999 142.2ZM81.2 146.8H80.7V143.6H81.2V146.8Z" fill="#C9A063"/>
<path d="M85.0999 146.4C84.7999 146.7 84.3999 146.8 83.9999 146.8C83.4999 146.8 83.1999 146.6 82.7999 146.3C82.4999 146 82.2999 145.6 82.2999 145.1C82.2999 144.6 82.4999 144.2 82.7999 143.9C83.0999 143.6 83.4999 143.4 83.9999 143.4C84.3999 143.4 84.6999 143.5 84.9999 143.7L84.8999 143.9C84.6999 143.7 84.3999 143.5 83.9999 143.5C83.6999 143.5 83.4 143.7 83.2 144C83 144.3 82.8999 144.6 82.8999 145C82.8999 145.4 83 145.8 83.2 146C83.4 146.3 83.6999 146.5 83.9999 146.5C84.3999 146.5 84.6999 146.3 84.9999 146L85.0999 146.4Z" fill="#C9A063"/>
<path d="M89.9 144.8H87.9V144.6H89.4C89.4 144 89.1 143.7 88.6 143.7C88.3 143.7 88 143.8 87.8 144.1C87.6 144.4 87.5 144.7 87.5 145.2C87.5 145.7 87.6 146 87.8 146.3C88 146.6 88.3 146.7 88.6 146.7C89 146.7 89.3 146.5 89.6 146.2L89.8 146.4C89.5 146.7 89.1 146.9 88.7 146.9C88.2 146.9 87.9 146.7 87.5 146.4C87.2 146.1 87 145.7 87 145.2C87 144.7 87.2 144.3 87.5 144C87.8 143.7 88.2 143.5 88.6 143.5C88.9 143.5 89.2 143.6 89.5 143.9C89.7 144.2 89.9 144.5 89.9 144.8Z" fill="#C9A063"/>
<path d="M93.6 146.8H93L92 145.3L90.8 146.8H90.6L91.9 145.2L90.8 143.6H91.4L92.3 144.8L93.3 143.6H93.5L92.4 145L93.6 146.8Z" fill="#C9A063"/>
<path d="M97.0999 145.2C97.0999 145.7 97 146 96.7 146.4C96.4 146.7 96.1 146.9 95.7 146.9C95.5 146.9 95.2999 146.9 95.0999 146.8L95.2 146.6C95.3 146.7 95.5 146.8 95.7 146.8C95.9 146.8 96.1999 146.7 96.2999 146.4C96.4999 146.1 96.5999 145.8 96.5999 145.3C96.5999 144.9 96.4999 144.5 96.2999 144.2C96.0999 143.9 95.8999 143.8 95.5999 143.8C95.3999 143.8 95.2999 143.9 95.0999 144C94.9999 144.1 94.8999 144.3 94.7999 144.5V148.1H94.2999V143.7H94.7999V144C94.9999 143.8 95.2999 143.6 95.5999 143.6C95.9999 143.6 96.3999 143.8 96.5999 144.1C96.9999 144.4 97.0999 144.8 97.0999 145.2Z" fill="#C9A063"/>
<path d="M99.6 143.7L99.5 143.9C99.4 143.8 99.2 143.8 99.1 143.8C99 143.8 99 143.8 98.9 143.9C98.7 144 98.6 144.3 98.6 144.8V146.9H98.1V143.7H98.6V144.1C98.7 144 98.7 143.9 98.8 143.8C98.9 143.7 99 143.7 99.2 143.7C99.4 143.5 99.5 143.6 99.6 143.7Z" fill="#C9A063"/>
<path d="M103.1 144.8H101.1V144.6H102.6C102.6 144 102.3 143.7 101.8 143.7C101.5 143.7 101.2 143.8 101 144.1C100.8 144.4 100.7 144.7 100.7 145.2C100.7 145.7 100.8 146 101 146.3C101.2 146.6 101.5 146.7 101.8 146.7C102.2 146.7 102.5 146.5 102.8 146.2L103 146.4C102.7 146.7 102.3 146.9 101.9 146.9C101.4 146.9 101.1 146.7 100.7 146.4C100.4 146.1 100.2 145.7 100.2 145.2C100.2 144.7 100.4 144.3 100.7 144C101 143.7 101.4 143.5 101.8 143.5C102.1 143.5 102.4 143.6 102.7 143.9C102.9 144.2 103.1 144.5 103.1 144.8Z" fill="#C9A063"/>
<path d="M105.8 146C105.8 146.3 105.7 146.5 105.5 146.6C105.3 146.8 105.1 146.8 104.8 146.8C104.4 146.8 104.1 146.7 103.9 146.4L104 146.2C104.2 146.5 104.5 146.6 104.8 146.6C105 146.6 105.1 146.5 105.2 146.4C105.3 146.3 105.4 146.1 105.4 146C105.4 145.8 105.3 145.6 105.1 145.5C105 145.4 104.8 145.3 104.5 145.1C104.1 144.9 104 144.6 104 144.2C104 144 104.1 143.8 104.3 143.6C104.5 143.5 104.7 143.4 104.9 143.4C105 143.4 105.2 143.4 105.4 143.5C105.6 143.6 105.7 143.7 105.7 143.8L105.5 144C105.3 143.7 105.1 143.6 104.8 143.6C104.5 143.6 104.3 143.7 104.3 144C104.3 144.2 104.4 144.4 104.6 144.6C105 144.8 105.2 145 105.3 145.1C105.6 145.4 105.8 145.7 105.8 146Z" fill="#C9A063"/>
<path d="M108.5 146C108.5 146.3 108.4 146.5 108.2 146.6C108 146.8 107.8 146.8 107.5 146.8C107.1 146.8 106.8 146.7 106.6 146.4L106.7 146.2C106.9 146.5 107.2 146.6 107.5 146.6C107.7 146.6 107.8 146.5 107.9 146.4C108 146.3 108.1 146.1 108.1 146C108.1 145.8 108 145.6 107.8 145.5C107.7 145.4 107.5 145.3 107.2 145.1C106.8 144.9 106.7 144.6 106.7 144.2C106.7 144 106.8 143.8 107 143.6C107.2 143.5 107.4 143.4 107.6 143.4C107.8 143.4 107.9 143.4 108.1 143.5C108.3 143.6 108.4 143.7 108.4 143.8L108.2 144C108 143.7 107.8 143.6 107.5 143.6C107.2 143.6 107 143.7 107 144C107 144.2 107.1 144.4 107.3 144.6C107.7 144.8 107.9 145 108 145.1C108.4 145.4 108.6 145.7 108.5 146Z" fill="#C9A063"/>
<path d="M110.1 142.2C110.1 142.3 110.1 142.4 110 142.4C109.9 142.4 109.9 142.5 109.8 142.5C109.7 142.5 109.6 142.5 109.6 142.4C109.6 142.3 109.5 142.3 109.5 142.2C109.5 142.1 109.5 142 109.6 142C109.7 141.9 109.7 141.9 109.8 141.9C109.9 141.9 110 141.9 110 142C110.1 142 110.1 142.1 110.1 142.2ZM110 146.8H109.5V143.6H110V146.8Z" fill="#C9A063"/>
<path d="M114.4 145.2C114.4 145.7 114.2 146.1 113.9 146.4C113.6 146.7 113.2 146.9 112.7 146.9C112.2 146.9 111.9 146.7 111.5 146.4C111.2 146.1 111 145.7 111 145.2C111 144.7 111.2 144.4 111.5 144C111.8 143.7 112.2 143.5 112.7 143.5C113.2 143.5 113.5 143.7 113.9 144C114.2 144.4 114.4 144.7 114.4 145.2ZM113.9 145.2C113.9 144.8 113.8 144.4 113.6 144.1C113.4 143.8 113.1 143.7 112.8 143.7C112.5 143.7 112.2 143.8 112 144.1C111.8 144.4 111.7 144.7 111.7 145.2C111.7 145.6 111.8 146 112 146.3C112.2 146.6 112.5 146.7 112.8 146.7C113.1 146.7 113.4 146.6 113.6 146.3C113.8 146 113.9 145.6 113.9 145.2Z" fill="#C9A063"/>
<path d="M118 146.8H117.5V144.6C117.5 143.9 117.3 143.6 116.8 143.6C116.3 143.6 116 143.9 115.8 144.5V146.8H115.3V143.6H115.8V144C116.1 143.6 116.4 143.5 116.8 143.5C117.2 143.5 117.5 143.6 117.6 143.7C117.8 143.9 117.9 144.2 117.9 144.6V146.8H118Z" fill="#C9A063"/>
<path d="M119.7 146.6C119.7 146.7 119.7 146.8 119.6 146.8C119.5 146.8 119.5 146.9 119.4 146.9C119.3 146.9 119.2 146.9 119.2 146.8C119.2 146.7 119.1 146.7 119.1 146.6C119.1 146.5 119.1 146.4 119.2 146.4C119.3 146.4 119.3 146.3 119.4 146.3C119.5 146.3 119.6 146.3 119.6 146.4C119.6 146.5 119.7 146.5 119.7 146.6Z" fill="#C9A063"/>
</g>
</svg>
