<?xml version="1.0" encoding="utf-8"?>
<!-- Generator: Adobe Illustrator 25.2.3, SVG Export Plug-In . SVG Version: 6.00 Build 0)  -->
<svg version="1.1" id="圖層_1" xmlns="http://www.w3.org/2000/svg" xmlns:xlink="http://www.w3.org/1999/xlink" x="0px" y="0px"
	 viewBox="0 0 90 78" style="enable-background:new 0 0 90 78;" xml:space="preserve">
<style type="text/css">
	.st0{fill:#3E3A39;}
	.st1{fill:#C9A063;}
</style>
<path class="st0" d="M2.4,49.5H0.8V50H0.3v-4.7h2.1V49.5z M1.9,47.1v-1.2h-1v1.2H1.9z M1.9,48.9v-1.3h-1v1.3H1.9z M3,45.1h2.6v5
	c0,0.2-0.1,0.4-0.2,0.5c-0.1,0.1-0.2,0.1-0.4,0.1H4l-0.1-0.6l0.8,0.1c0.1,0,0.2-0.1,0.2-0.3v-1.1H3.4c0,0.2-0.1,0.5-0.2,0.6
	c-0.2,0.5-0.5,0.9-1,1.4l-0.5-0.5c0.5-0.4,0.8-0.8,1-1.2c0.2-0.3,0.2-0.9,0.2-1.6V47L3,45.1L3,45.1z M4.9,48.2v-1H3.5v0.5
	c0,0.2,0,0.4,0,0.6L4.9,48.2L4.9,48.2z M4.9,46.6v-0.9H3.5v0.9H4.9z"/>
<path class="st0" d="M7.6,45c-0.1,0.1-0.1,0.2-0.2,0.4H9v0.5c0.3-0.3,0.5-0.6,0.6-1l0.5,0.1c-0.1,0.1-0.1,0.3-0.2,0.4h1.8v0.5h-1
	c0.1,0.2,0.1,0.3,0.2,0.5l-0.6,0.1c0-0.2-0.1-0.4-0.1-0.5H9.6c-0.1,0.2-0.3,0.4-0.4,0.6l-0.5-0.3c0.1-0.1,0.2-0.1,0.2-0.2H8.1
	c0.1,0.1,0.1,0.3,0.2,0.5l-0.6,0.1c0-0.2-0.1-0.3-0.1-0.5H7.2c-0.2,0.2-0.3,0.4-0.5,0.6l-0.5-0.3c0.4-0.4,0.8-0.8,0.9-1.2L7.6,45z
	 M8.7,48.6v-0.3l-0.2-0.2C8.8,48,9,47.9,9.2,47.8c-0.2-0.1-0.3-0.1-0.5-0.2L9,47.2c0.2,0.1,0.3,0.1,0.5,0.2c0-0.1,0-0.1,0-0.2V47
	H8.8v-0.5H11v1.3c0,0.1,0.1,0.2,0.2,0.2c0.1,0,0.1,0,0.1-0.1c0,0,0.1-0.2,0.1-0.5l0.4,0.2c0,0.4-0.1,0.7-0.2,0.8
	c-0.1,0.1-0.2,0.1-0.4,0.1H11c-0.2,0-0.3,0-0.4-0.1c-0.1-0.1-0.1-0.2-0.1-0.4v-1H9.9v0.2c0,0.1,0,0.3-0.1,0.4
	c0.2,0.1,0.4,0.2,0.6,0.3l-0.3,0.5c-0.2-0.1-0.4-0.2-0.5-0.3c-0.1,0.1-0.2,0.2-0.4,0.3h0.1v0.3h2.5v0.5H9.9c0.2,0.2,0.4,0.3,0.6,0.4
	c0.3,0.2,0.7,0.3,1.3,0.5l-0.2,0.5c-0.7-0.2-1.1-0.5-1.5-0.7c-0.2-0.2-0.5-0.4-0.8-0.7v1.6H8.8v-1.6c-0.2,0.2-0.4,0.5-0.6,0.6
	c-0.4,0.3-0.9,0.6-1.6,0.8l-0.3-0.5c0.7-0.2,1.2-0.4,1.5-0.6c0.1-0.1,0.3-0.2,0.4-0.3h-2v-0.5h2.5V48.6z M8.6,46.6v0.5H7.8v0.6
	c0.3-0.1,0.5-0.1,0.8-0.2V48c-0.6,0.2-1.4,0.3-2.2,0.5l-0.1-0.6c0.3,0,0.7-0.1,1-0.1v-0.7H6.5v-0.5H8.6z"/>
<path class="st0" d="M15.4,45c-0.1,0.3-0.2,0.5-0.4,0.8h2.5v4.3c0,0.2-0.1,0.4-0.2,0.5c-0.1,0.1-0.2,0.2-0.4,0.2h-0.8L16,50.2
	l0.7,0.1c0.1,0,0.2-0.1,0.2-0.3v-3.5h-3.7V51h-0.6v-5h1.8c0.2-0.3,0.3-0.5,0.4-0.9L15.4,45z M16.3,47.1v2.4h-2.5v-2.4H16.3z
	 M15.7,47.6h-1.3v1.3h1.3V47.6z"/>
<path class="st0" d="M20.3,45.1v0.5c-0.1,0.5-0.3,1-0.5,1.6c0.2,0.3,0.3,0.6,0.3,0.8c0.1,0.2,0.1,0.5,0.1,0.6
	c0.2-0.1,0.3-0.2,0.4-0.3c0.1-0.1,0.2-0.2,0.3-0.4h-0.8v-0.5h3.6v0.5h-2.2c-0.1,0.1-0.1,0.2-0.2,0.3h2.3c0,1.4-0.1,2.1-0.3,2.3
	c-0.1,0.2-0.5,0.3-1.2,0.3L22,50.2c0.2,0,0.3,0.1,0.4,0.1c0.2,0,0.4-0.1,0.5-0.2c0.1-0.1,0.2-0.6,0.2-1.4H23
	c-0.3,0.5-0.5,0.9-0.8,1.2c-0.3,0.3-0.8,0.6-1.4,0.9l-0.3-0.5c0.6-0.2,1-0.5,1.3-0.8c0.2-0.2,0.4-0.5,0.6-0.8H22
	c-0.2,0.3-0.4,0.5-0.6,0.7c-0.3,0.3-0.7,0.5-1.2,0.7l-0.3-0.4c0.4-0.2,0.8-0.4,1.1-0.6c0.2-0.1,0.3-0.3,0.5-0.4H21
	c-0.2,0.2-0.4,0.3-0.7,0.5l-0.1-0.1c0,0.1-0.1,0.2-0.1,0.2c-0.1,0.2-0.4,0.3-0.8,0.3L19.1,49c0.1,0,0.2,0,0.3,0s0.2,0,0.2-0.1
	c0.1,0,0.1-0.1,0.1-0.3c0-0.2,0-0.4-0.1-0.5c-0.1-0.2-0.2-0.5-0.4-0.8c0.2-0.6,0.4-1.1,0.5-1.5H19v5.1h-0.6v-5.7L20.3,45.1
	L20.3,45.1z M23.5,45.1v2h-3v-2H23.5z M23,45.8v-0.3h-2v0.3H23z M23,46.2h-2v0.4h2V46.2z"/>
<path class="st0" d="M26.6,48.8c-0.1-0.2-0.3-0.5-0.6-0.8c-0.2-0.2-0.4-0.4-0.7-0.7l0.4-0.3c0.2,0.2,0.4,0.4,0.7,0.6
	c0.2,0.2,0.4,0.4,0.6,0.7L26.6,48.8z"/>
<path class="st0" d="M31,49.5h-1.6V50h-0.5v-4.7H31V49.5z M30.5,47.1v-1.2h-1v1.2H30.5z M30.5,48.9v-1.3h-1v1.3H30.5z M31.6,45.1
	h2.6v5c0,0.2-0.1,0.4-0.2,0.5c-0.1,0.1-0.2,0.1-0.4,0.1h-1l-0.1-0.6l0.8,0.1c0.1,0,0.2-0.1,0.2-0.3v-1.1H32c0,0.2-0.1,0.5-0.2,0.6
	c-0.2,0.5-0.5,0.9-1,1.4l-0.5-0.5c0.5-0.4,0.8-0.8,1-1.2c0.2-0.3,0.2-0.9,0.2-1.6V47L31.6,45.1L31.6,45.1z M33.5,48.2v-1h-1.4v0.5
	c0,0.2,0,0.4,0,0.6L33.5,48.2L33.5,48.2z M33.5,46.6v-0.9h-1.4v0.9H33.5z"/>
<path class="st0" d="M36.2,45c-0.1,0.1-0.1,0.2-0.2,0.4h1.5v0.5c0.3-0.3,0.5-0.6,0.6-1l0.5,0.1c-0.1,0.1-0.1,0.3-0.2,0.4h1.8v0.5h-1
	c0.1,0.2,0.1,0.3,0.2,0.5l-0.6,0.1c0-0.2-0.1-0.4-0.1-0.5h-0.6c-0.1,0.2-0.3,0.4-0.4,0.6l-0.5-0.3c0.1-0.1,0.2-0.1,0.2-0.2h-0.8
	c0.1,0.1,0.1,0.3,0.2,0.5l-0.6,0.1c0-0.2-0.1-0.3-0.1-0.5h-0.4c-0.2,0.2-0.3,0.4-0.5,0.6l-0.5-0.3c0.4-0.4,0.8-0.8,0.9-1.2L36.2,45z
	 M37.3,48.6v-0.3l-0.2-0.2c0.3-0.1,0.5-0.2,0.7-0.3c-0.2-0.1-0.3-0.1-0.5-0.2l0.3-0.4c0.2,0.1,0.3,0.1,0.5,0.2c0-0.1,0-0.1,0-0.2V47
	h-0.7v-0.5h2.2v1.3c0,0.1,0.1,0.2,0.2,0.2s0.1,0,0.1-0.1c0,0,0.1-0.2,0.1-0.5l0.4,0.2c0,0.4-0.1,0.7-0.2,0.8
	c-0.1,0.1-0.2,0.1-0.4,0.1h-0.2c-0.2,0-0.3,0-0.4-0.1c-0.1-0.1-0.1-0.2-0.1-0.4v-1h-0.6v0.2c0,0.1,0,0.3-0.1,0.4
	c0.2,0.1,0.4,0.2,0.6,0.3l-0.3,0.5c-0.2-0.1-0.4-0.2-0.5-0.3c-0.1,0.1-0.2,0.2-0.4,0.3h0.1v0.3h2.5v0.5h-1.9
	c0.2,0.2,0.4,0.3,0.6,0.4c0.3,0.2,0.7,0.3,1.3,0.5l-0.2,0.5c-0.7-0.2-1.1-0.5-1.5-0.7c-0.2-0.2-0.5-0.4-0.8-0.7v1.6h-0.5v-1.6
	c-0.2,0.2-0.4,0.5-0.6,0.6c-0.4,0.3-0.9,0.6-1.6,0.8l-0.3-0.5c0.7-0.2,1.2-0.4,1.5-0.6c0.1-0.1,0.3-0.2,0.4-0.3h-2v-0.5h2.5V48.6z
	 M37.2,46.6v0.5h-0.8v0.6c0.3-0.1,0.5-0.1,0.8-0.2V48c-0.6,0.2-1.4,0.3-2.2,0.5l-0.1-0.6c0.3,0,0.7-0.1,1-0.1v-0.7H35v-0.5H37.2z"/>
<path class="st0" d="M42.9,45.1v0.5c-0.1,0.5-0.3,1-0.5,1.6c0.2,0.3,0.3,0.6,0.3,0.8c0.1,0.2,0.1,0.5,0.1,0.6c0,0.3-0.1,0.6-0.2,0.7
	c-0.1,0.2-0.4,0.3-0.8,0.3L41.6,49c0.1,0,0.2,0,0.3,0c0.1,0,0.2,0,0.2-0.1c0.1,0,0.1-0.1,0.1-0.3c0-0.2,0-0.4-0.1-0.5
	c-0.1-0.2-0.2-0.5-0.4-0.8c0.2-0.6,0.4-1.1,0.5-1.5h-0.7v5.1H41v-5.7h1.9V45.1z M43.3,49.6c-0.2,0.4-0.3,0.8-0.5,1l-0.4-0.3
	c0.2-0.2,0.3-0.5,0.5-0.9L43.3,49.6z M43.8,46.2h0.5c0-0.2-0.1-0.3-0.1-0.5h0.4c0,0.2,0.1,0.3,0.1,0.5h0.4c0.1-0.2,0.2-0.4,0.2-0.7
	l0.5,0.2c-0.1,0.2-0.1,0.4-0.2,0.5H46v0.4h-1.2v0.3h1.5v0.4h-3.4v-0.4h1.4v-0.3h-1.1v-0.4h0.3c0-0.1-0.1-0.2-0.1-0.4l0.4-0.1
	C43.7,45.8,43.8,46,43.8,46.2z M46,47.5v0.7h0.4v0.4H46v0.7h-1.4c0.2,0.1,0.4,0.3,0.5,0.4l-0.3,0.4c-0.1-0.1-0.3-0.3-0.5-0.5
	l0.3-0.3h-1.4v-0.4h2.4v-0.3H43v-0.4h2.6v-0.3h-2.3v-0.4H46z M46.1,45.4c-0.8,0.2-1.8,0.3-3.1,0.3l-0.1-0.5c1.2,0,2.2-0.1,3-0.2
	L46.1,45.4z M44,49.4v0.7c0,0.1,0.1,0.2,0.2,0.2h0.5c0.1,0,0.2,0,0.2-0.1c0,0,0.1-0.2,0.1-0.5l0.5,0.2c0,0.4-0.1,0.6-0.2,0.7
	c-0.1,0.1-0.3,0.1-0.5,0.1H44c-0.2,0-0.3,0-0.4-0.1c-0.1-0.1-0.1-0.2-0.1-0.3v-0.8L44,49.4L44,49.4z M46.4,50.2l-0.5,0.3
	c-0.1-0.3-0.3-0.6-0.5-1l0.4-0.3C46,49.7,46.2,50,46.4,50.2z"/>
<path class="st0" d="M49.3,48.8c-0.1-0.2-0.3-0.5-0.6-0.8c-0.2-0.2-0.4-0.4-0.7-0.7l0.4-0.3c0.2,0.2,0.4,0.4,0.7,0.6
	c0.2,0.2,0.4,0.4,0.6,0.7L49.3,48.8z"/>
<path class="st0" d="M53.7,49.5h-1.6V50h-0.5v-4.7h2.1V49.5z M53.2,47.1v-1.2h-1v1.2H53.2z M53.2,48.9v-1.3h-1v1.3H53.2z M54.2,45.1
	h2.6v5c0,0.2-0.1,0.4-0.2,0.5c-0.1,0.1-0.2,0.1-0.4,0.1h-1l-0.1-0.6l0.8,0.1c0.1,0,0.2-0.1,0.2-0.3v-1.1h-1.5c0,0.2-0.1,0.5-0.2,0.6
	c-0.2,0.5-0.5,0.9-1,1.4l-0.5-0.5c0.5-0.4,0.8-0.8,1-1.2c0.2-0.3,0.2-0.9,0.2-1.6V47v-1.9H54.2z M56.2,48.2v-1h-1.4v0.5
	c0,0.2,0,0.4,0,0.6L56.2,48.2L56.2,48.2z M56.2,46.6v-0.9h-1.4v0.9H56.2z"/>
<path class="st0" d="M58.9,45c-0.1,0.1-0.1,0.2-0.2,0.4h1.5v0.5c0.3-0.3,0.5-0.6,0.6-1l0.5,0.1c-0.1,0.1-0.1,0.3-0.2,0.4H63v0.5h-1
	c0.1,0.2,0.1,0.3,0.2,0.5l-0.6,0.1c0-0.2-0.1-0.4-0.1-0.5h-0.6c-0.1,0.2-0.3,0.4-0.4,0.6L60,46.3c0.1-0.1,0.2-0.1,0.2-0.2h-0.8
	c0.1,0.1,0.1,0.3,0.2,0.5L59,46.7c0-0.2-0.1-0.3-0.1-0.5h-0.4c-0.2,0.2-0.3,0.4-0.5,0.6l-0.5-0.3c0.4-0.4,0.8-0.8,0.9-1.2L58.9,45z
	 M60,48.6v-0.3l-0.2-0.2c0.3-0.1,0.5-0.2,0.7-0.3c-0.2-0.1-0.3-0.1-0.5-0.2l0.3-0.4c0.2,0.1,0.3,0.1,0.5,0.2c0-0.1,0-0.1,0-0.2V47
	H60v-0.5h2.2v1.3c0,0.1,0.1,0.2,0.2,0.2c0.1,0,0.1,0,0.1-0.1c0,0,0.1-0.2,0.1-0.5l0.4,0.2c0,0.4-0.1,0.7-0.2,0.8
	c-0.1,0.1-0.2,0.1-0.4,0.1h-0.2c-0.2,0-0.3,0-0.4-0.1c-0.1-0.1-0.1-0.2-0.1-0.4v-1h-0.6v0.2c0,0.1,0,0.3-0.1,0.4
	c0.2,0.1,0.4,0.2,0.6,0.3l-0.3,0.5c-0.2-0.1-0.4-0.2-0.5-0.3c-0.1,0.1-0.2,0.2-0.4,0.3h0.1v0.3H63v0.5h-1.9c0.2,0.2,0.4,0.3,0.6,0.4
	c0.3,0.2,0.7,0.3,1.3,0.5l-0.2,0.5c-0.7-0.2-1.1-0.5-1.5-0.7c-0.2-0.2-0.5-0.4-0.8-0.7v1.6H60v-1.6c-0.2,0.2-0.4,0.5-0.6,0.6
	c-0.4,0.3-0.9,0.6-1.6,0.8l-0.3-0.5c0.7-0.2,1.2-0.4,1.5-0.6c0.1-0.1,0.3-0.2,0.4-0.3h-2v-0.5H60V48.6z M59.8,46.6v0.5H59v0.6
	c0.3-0.1,0.5-0.1,0.8-0.2V48c-0.6,0.2-1.4,0.3-2.2,0.5l-0.1-0.6c0.3,0,0.7-0.1,1-0.1v-0.7h-0.8v-0.5H59.8z"/>
<path class="st0" d="M64.9,44.9v2.4h0.8v0.5h-0.4v1.9c0.2-0.1,0.3-0.3,0.5-0.4v0.6c-0.3,0.3-0.6,0.6-1,0.8l-0.2-0.6
	c0.1,0,0.1-0.1,0.2-0.1v-2.2h-0.3c0,0.7-0.1,1.3-0.2,1.7c-0.1,0.5-0.2,0.9-0.4,1.3l-0.3-0.4c0.1-0.3,0.2-0.7,0.3-1.1
	c0.1-0.4,0.1-0.8,0.2-1.4h-0.5v-0.5h0.9V45h0.4V44.9z M64.2,46.8l-0.4,0.1c-0.1-0.5-0.1-1-0.2-1.5l0.4-0.1
	C64.1,45.7,64.1,46.2,64.2,46.8z M65.7,45.4c-0.1,0.6-0.2,1.1-0.3,1.6L65,46.7c0.1-0.4,0.2-0.9,0.3-1.4L65.7,45.4z M69,46.3h-0.3
	v0.2h-1.1v0.3h1.3V49h-1.3v0.4H69v0.5h-1.4v0.8h-0.5V50h-1.3v-0.5h1.3v-0.4h-1.2v-2.2h1.2v-0.3h-1v-0.2h-0.3v-1.2H69V46.3z
	 M67.1,46.1v-0.4h-0.8v0.4H67.1z M67.1,47.8v-0.5h-0.8v0.5H67.1z M67.1,48.2h-0.8v0.4h0.8V48.2z M67.6,46.1h0.9v-0.4h-0.9V46.1z
	 M67.6,47.8h0.8v-0.5h-0.8V47.8z M68.4,48.2h-0.8v0.4h0.8V48.2z"/>
<path class="st0" d="M74.9,48.2v0.5h-2.2v0.5h2.1v0.5h-2.1v0.5h2.5v0.5h-5.5v-0.5H72v-0.5h-2.1v-0.5H72v-0.5h-2.2v-0.5H74.9z
	 M72.7,45c0,0.2-0.1,0.3-0.1,0.5h2.1v2.4H70v-2.4h1.9c0-0.2,0.1-0.4,0.1-0.6L72.7,45z M74.1,46.4V46h-3.5v0.4H74.1z M74.1,46.8h-3.5
	v0.4h3.5V46.8z"/>
<path class="st0" d="M3.5,54.2v-0.5h0.6v0.5h1.5v0.9H6v0.5H5.6v1H4.1V57h1.6v0.5H4.1V58H6v0.5H4.1V59c0.1,0,0.2,0,0.3,0
	c0.8,0,1.3,0,1.7,0L6,59.7c-2,0-3.2,0-3.7-0.1c-0.4-0.1-0.7-0.3-0.9-0.5c0,0-0.1,0-0.1-0.1c-0.2,0.3-0.5,0.5-0.8,0.8l-0.3-0.6
	C0.5,59,0.8,58.7,1,58.5c-0.2-0.3-0.4-0.8-0.6-1.3L0.9,57c0.1,0.4,0.3,0.7,0.4,0.9v-0.1c0.1-0.3,0.1-0.7,0.2-1.2H0.4v-0.4
	c0.4-0.5,0.7-1,1.1-1.5H0.3V54H2v0.6c-0.4,0.6-0.7,1.1-1,1.4h1c0,0.7-0.1,1.3-0.2,1.7c-0.1,0.2-0.1,0.4-0.2,0.6
	c0.2,0.2,0.4,0.3,0.7,0.4c0.2,0.1,0.7,0.1,1.2,0.2v-0.5H2v-0.5h1.5v-0.5H2.2V57h1.3v-0.4H2.3v-0.5h1.2v-0.5H2v-0.5h1.5v-0.5H2.3
	v-0.5L3.5,54.2L3.5,54.2z M4.1,55.1h1v-0.5h-1V55.1z M4.1,56.1h1v-0.5h-1V56.1z"/>
<path class="st0" d="M8.5,53.8c-0.1,0.1-0.1,0.2-0.2,0.4h1.6v0.5c0.3-0.3,0.5-0.6,0.6-1l0.6,0.1c-0.1,0.1-0.1,0.3-0.2,0.4h1.9v0.5
	h-1.1c0.1,0.2,0.1,0.3,0.2,0.5l-0.6,0.1c0-0.2-0.1-0.4-0.1-0.5h-0.6c-0.1,0.2-0.3,0.4-0.5,0.6l-0.5-0.3C9.7,55,9.8,55,9.8,54.9H9
	c0.1,0.1,0.1,0.3,0.2,0.5l-0.6,0.1c0-0.2-0.1-0.3-0.1-0.5H8c-0.2,0.2-0.3,0.4-0.5,0.6L7,55.3c0.5-0.4,0.8-0.8,1-1.2L8.5,53.8z
	 M9.7,57.5v-0.3L9.4,57c0.3-0.1,0.5-0.2,0.7-0.3c-0.2-0.1-0.3-0.1-0.5-0.2l0.3-0.4c0.2,0.1,0.3,0.1,0.5,0.2c0-0.1,0-0.1,0-0.2v-0.2
	H9.7v-0.5H12v1.3c0,0.1,0.1,0.2,0.2,0.2c0.1,0,0.1,0,0.1-0.1c0,0,0.1-0.2,0.1-0.5l0.5,0.2c0,0.4-0.1,0.7-0.2,0.8
	c-0.1,0.1-0.2,0.1-0.4,0.1H12c-0.2,0-0.3,0-0.4-0.1c-0.1-0.1-0.1-0.2-0.1-0.4v-1h-0.6v0.2c0,0.1,0,0.3-0.1,0.4
	c0.2,0.1,0.4,0.2,0.6,0.3l-0.3,0.5c-0.2-0.1-0.4-0.2-0.6-0.3c-0.1,0.1-0.3,0.2-0.4,0.3h0.1v0.3h2.6v0.5h-2c0.2,0.2,0.4,0.3,0.6,0.4
	c0.3,0.2,0.8,0.3,1.3,0.5l-0.3,0.5c-0.7-0.2-1.2-0.5-1.5-0.7c-0.3-0.2-0.5-0.4-0.8-0.7v1.6H9.5V58c-0.2,0.2-0.4,0.5-0.7,0.6
	c-0.4,0.3-1,0.6-1.7,0.8L7,59c0.8-0.2,1.3-0.4,1.6-0.6c0.2-0.1,0.3-0.2,0.4-0.3H6.9v-0.5h2.8V57.5z M9.5,55.5V56H8.6v0.6
	c0.3-0.1,0.6-0.1,0.9-0.2v0.5c-0.7,0.2-1.5,0.3-2.4,0.5L7,56.8c0.4,0,0.7-0.1,1.1-0.1V56H7.2v-0.5H9.5z"/>
<path class="st0" d="M14.7,54.3c0,0.3,0,0.6-0.1,0.8H15v-1.4h0.6v1.4h0.6v0.5c0.2-0.2,0.3-0.4,0.4-0.7c0.1-0.3,0.2-0.7,0.3-1.2
	l0.6,0.1c-0.1,0.3-0.1,0.5-0.2,0.8h2.3c0,2.3,0,3.7-0.1,4.1c-0.1,0.3-0.1,0.6-0.3,0.7c-0.2,0.1-0.5,0.2-0.9,0.2c-0.1,0-0.3,0-0.5,0
	l-0.1-0.7c0.2,0,0.4,0.1,0.6,0.1c0.3,0,0.5-0.1,0.6-0.4s0.1-1.5,0.1-3.4h-0.2c-0.2,1.1-0.4,1.9-0.7,2.5c-0.3,0.7-0.8,1.3-1.5,1.8
	L16.2,59c0.6-0.5,1-1,1.4-1.6c0.3-0.5,0.5-1.3,0.6-2.2H18c-0.2,0.6-0.3,1.1-0.5,1.4c-0.2,0.5-0.6,1-1.1,1.5L16,57.6
	c0.4-0.4,0.8-0.8,1-1.2c0.2-0.3,0.3-0.7,0.5-1.2h-0.3c-0.1,0.4-0.4,0.8-0.7,1.2l-0.4-0.5c0.1-0.1,0.1-0.1,0.1-0.2h-0.5V57
	c0.2-0.1,0.4-0.1,0.6-0.2v0.6c-0.2,0.1-0.4,0.2-0.6,0.2v2.1H15v-1.9c-0.3,0.1-0.7,0.2-1,0.3l-0.2-0.7c0.4-0.1,0.8-0.1,1.2-0.3v-1.4
	h-0.5c-0.1,0.4-0.1,0.7-0.2,1l-0.6-0.2c0.2-0.7,0.3-1.4,0.4-2.2H14.7z"/>
<path class="st0" d="M22.4,53.9c0,0.2-0.1,0.4-0.1,0.6h1.5v0.6c-0.1,0.8-0.2,1.4-0.4,2c-0.2,0.5-0.4,0.9-0.7,1.3
	c-0.3,0.4-0.8,0.9-1.5,1.3l-0.5-0.5c0.7-0.5,1.3-1,1.6-1.5c-0.2-0.4-0.5-0.7-0.9-1.1l0.4-0.4c0.3,0.3,0.6,0.6,0.8,0.9
	c0.2-0.5,0.3-1.1,0.4-1.9h-1c-0.1,0.2-0.1,0.3-0.2,0.5c-0.2,0.5-0.5,0.9-0.9,1.3l-0.4-0.5c0.3-0.4,0.5-0.7,0.7-1.2
	c0.1-0.3,0.3-0.8,0.4-1.4H22.4z M24.8,53.8v2.1c0.6,0.3,1.2,0.7,1.8,1l-0.4,0.6c-0.6-0.4-1-0.7-1.4-0.9v3.2h-0.6v-5.9L24.8,53.8
	L24.8,53.8z"/>
<path class="st0" d="M28.2,54.2v-0.5h0.5v0.5h0.4v0.5h-0.4v0.4h0.4v1.2h-0.7l0.3,0.1c-0.1,0.1-0.1,0.2-0.1,0.3h0.7
	c0-0.1-0.1-0.2-0.1-0.3l0.3-0.1h-0.1V55h0.4v-0.4h-0.4v-0.5h0.4v-0.5h0.5v0.5h0.6v0.5h-0.6V55h0.5v1.2h-1.1c0.1,0.1,0.1,0.3,0.2,0.4
	h0.9V57h-1v0.4h0.9v0.4h-0.9v0.4h0.9v0.4h-0.9V59h1v0.2c0.2-0.2,0.4-0.4,0.5-0.6c0.1-0.2,0.2-0.5,0.2-0.9h-0.4V54h2.3v3.7h-0.6V59
	c0,0.1,0.1,0.1,0.2,0.1h0.1c0.1,0,0.1,0,0.1-0.1c0-0.1,0-0.3,0.1-0.7l0.5,0.1c0,0.5-0.1,0.9-0.2,1c-0.1,0.1-0.2,0.1-0.4,0.1h-0.4
	c-0.2,0-0.3,0-0.4-0.1c-0.1-0.1-0.1-0.2-0.1-0.3v-1.4H32c0,0.5-0.1,0.8-0.2,1.1c-0.1,0.3-0.4,0.6-0.7,0.8l-0.3-0.4v0.1h-2.2v0.3
	h-0.5v-2c-0.1,0.1-0.2,0.2-0.3,0.3l-0.1-0.6c0.3-0.3,0.5-0.7,0.7-1.1H28V55h0.4v-0.4h-0.7v-0.5L28.2,54.2L28.2,54.2z M28.6,55.4
	h-0.4v0.5h0.4V55.4z M29.1,57.1h-0.7v0.4h0.7V57.1z M29.1,57.8h-0.7v0.4h0.7V57.8z M29.1,59v-0.4h-0.7V59H29.1z M30.1,55.4h-0.5v0.5
	h0.5V55.4z M32.6,55.1v-0.6h-1.3v0.6H32.6z M32.6,56.1v-0.6h-1.3v0.6H32.6z M32.6,56.6h-1.3v0.6h1.3V56.6z"/>
<path class="st0" d="M37.7,57.6c-0.1-0.2-0.3-0.5-0.6-0.8c-0.2-0.2-0.4-0.4-0.7-0.7l0.4-0.3c0.2,0.2,0.5,0.4,0.8,0.6
	c0.2,0.2,0.4,0.4,0.6,0.7L37.7,57.6z"/>
<path class="st0" d="M41.8,55c0,0.7-0.1,1.3-0.2,1.9l-0.5-0.1c0.1-0.6,0.2-1.2,0.2-1.8H41.8z M42.6,53.8V55c0.1-0.2,0.2-0.3,0.3-0.5
	l0.4,0.5c-0.2,0.2-0.4,0.5-0.7,0.7c0,0.6,0,1.2-0.1,1.7c0.3,0.3,0.6,0.6,0.9,0.9L43,58.9c-0.2-0.4-0.4-0.6-0.6-0.8
	c-0.1,0.5-0.4,1.1-0.7,1.6l-0.5-0.4c0.3-0.5,0.5-1,0.7-1.5c0.1-0.4,0.2-1.1,0.2-2v-1.9L42.6,53.8L42.6,53.8z M45.1,54
	c0.1,0.2,0.2,0.4,0.3,0.5c0.1-0.1,0.2-0.1,0.3-0.2c0.1-0.1,0.2-0.2,0.3-0.4l0.4,0.3c-0.1,0.2-0.3,0.3-0.4,0.4s-0.2,0.2-0.3,0.3
	c0.1,0.1,0.2,0.2,0.3,0.3c0.1-0.1,0.2-0.1,0.3-0.2c0.1-0.1,0.2-0.3,0.3-0.4l0.4,0.3c-0.1,0.2-0.3,0.4-0.4,0.5
	c-0.1,0.1-0.2,0.2-0.3,0.2c0.2,0.2,0.4,0.3,0.7,0.5l-0.3,0.4c-0.3-0.2-0.5-0.3-0.7-0.5v0.2h-2.2V56c-0.2,0.2-0.5,0.3-0.7,0.5
	l-0.3-0.4c0.3-0.2,0.6-0.4,0.9-0.6c-0.1-0.2-0.3-0.3-0.5-0.5l0.4-0.2c0.2,0.1,0.3,0.3,0.4,0.4c0.1-0.2,0.2-0.3,0.3-0.5h-1.1V54H45.1
	z M44.5,58.9h0.8c0.2-0.2,0.3-0.5,0.4-0.8l0.6,0.2c-0.1,0.2-0.3,0.4-0.4,0.6H47v0.5h-4.1v-0.5h1c-0.1-0.2-0.2-0.5-0.3-0.7l0.6-0.1
	C44.3,58.4,44.4,58.7,44.5,58.9z M46.6,56.5V58h-3.1v-1.5H46.6z M46,57h-2v0.6h2V57z M45.7,55.6c-0.4-0.4-0.6-0.7-0.8-1
	c-0.2,0.3-0.3,0.6-0.5,0.8c-0.1,0.1-0.2,0.2-0.3,0.3L45.7,55.6L45.7,55.6z"/>
<path class="st0" d="M51.3,53.8v2.3h2.5v0.5H52v2.2c0,0.1,0.1,0.2,0.2,0.2H53c0.1,0,0.2,0,0.2-0.1c0.1-0.1,0.1-0.4,0.1-1l0.6,0.2
	c-0.1,0.8-0.1,1.2-0.3,1.3c-0.1,0.1-0.3,0.2-0.6,0.2h-1.1c-0.2,0-0.3-0.1-0.5-0.2c-0.1-0.1-0.2-0.3-0.2-0.4v-2.4h-0.9
	c-0.1,0.8-0.2,1.4-0.5,1.8c-0.3,0.5-0.8,0.9-1.5,1.2L47.9,59c0.7-0.3,1.1-0.6,1.4-0.9c0.2-0.3,0.4-0.8,0.4-1.5H48v-0.5h2.5v-2.3
	H51.3z M50,55.5l-0.7,0.3c-0.2-0.5-0.5-1-0.7-1.4l0.6-0.2C49.5,54.6,49.7,55,50,55.5z M53.2,54.4c-0.2,0.5-0.4,1-0.7,1.5l-0.6-0.3
	c0.3-0.5,0.5-1,0.7-1.4L53.2,54.4z"/>
<path class="st0" d="M56.4,54.5h0.9V55h-2.4v-0.5h0.9c-0.1-0.2-0.2-0.5-0.3-0.7l0.6-0.1C56.2,54,56.3,54.2,56.4,54.5z M57,59.2h-1.4
	v0.5H55v-2.3h2V59.2z M57,55.4v0.5h-2v-0.5H57z M57,56.4v0.5h-2v-0.5H57z M56.4,58.7v-0.8h-0.8v0.8H56.4z M59.9,55.4
	c0,0.2,0.1,0.2,0.2,0.2h0.5v0.6H60c-0.2,0-0.4-0.1-0.5-0.2c-0.1-0.1-0.2-0.3-0.2-0.5v-1.1h-1c0,0.4-0.1,0.7-0.1,0.9
	c-0.1,0.3-0.3,0.6-0.6,0.9l-0.5-0.4c0.3-0.3,0.4-0.5,0.5-0.7c0.1-0.2,0.1-0.6,0.1-1.2h2.2V55.4z M60.2,56.4v0.4
	c-0.2,0.7-0.4,1.2-0.8,1.7c0.4,0.2,0.8,0.4,1.4,0.6l-0.4,0.6c-0.6-0.2-1.1-0.4-1.4-0.7c-0.4,0.3-0.8,0.5-1.4,0.7l-0.4-0.5
	c0.5-0.2,1-0.4,1.3-0.6c-0.4-0.4-0.7-0.8-0.9-1.2L58,57c0.2,0.5,0.5,0.8,0.9,1.1c0.3-0.3,0.5-0.7,0.6-1.2h-2.2v-0.5H60.2z"/>
<path class="st0" d="M63.4,54.5h1.1V55h-2.8v-0.5h1.1c-0.1-0.2-0.2-0.5-0.4-0.7l0.6-0.1C63.1,54,63.2,54.2,63.4,54.5z M64.2,55.5V56
	h-2.3v-0.5H64.2z M64.2,56.4v0.5h-2.3v-0.5H64.2z M62.5,59.6h-0.6v-2.3h2.2v2.2h-0.6v-0.4h-1.1L62.5,59.6L62.5,59.6z M63.6,57.8
	h-1.1v0.8h1.1V57.8z M65.8,55.6v-1.8h0.6v1.8h1.2v0.6h-1.2v3.5h-0.6v-3.5h-1.2v-0.6H65.8z"/>
<path class="st0" d="M2.1,63.1c-0.2,0-0.6,0.1-1.1,0.1v0.3h1v0.4H1v0.3h1v0.5H1v0.4h4.1v-0.4h-1v-0.5h1V64h-1v-0.4h1v-0.4h-1v-0.5
	h1.6v2.4H6v1.3H5.4v-0.8H0.9v0.8H0.3v-1.3h0.3v-2.3c0.5,0,0.9-0.1,1.4-0.2L2.1,63.1z M5,66v0.5c-0.4,0.2-0.9,0.4-1.5,0.6h2.4v0.5
	H3.5v0.6c0,0.1,0,0.2-0.1,0.3c-0.1,0.1-0.2,0.1-0.3,0.1h-1L2,68.1c0.2,0,0.5,0,0.7,0c0.1,0,0.2,0,0.2-0.1v-0.4H0.4V67h2.5v-0.2
	c0.4-0.1,0.7-0.2,1.2-0.3H1.4V66H5z M4,62.9c-0.1,0.1-0.3,0.3-0.4,0.4c0.1,0.1,0.2,0.2,0.3,0.2l-0.3,0.3c-0.1-0.1-0.2-0.2-0.3-0.3
	c-0.2,0.1-0.5,0.3-0.8,0.4l-0.3-0.4c0.2-0.1,0.4-0.1,0.7-0.3c-0.1-0.1-0.3-0.2-0.5-0.3l0.3-0.3c0.2,0.1,0.4,0.2,0.5,0.3
	c0.1-0.1,0.3-0.2,0.4-0.3L4,62.9z M4.1,64.1c-0.2,0.2-0.3,0.3-0.5,0.4c0.1,0.1,0.3,0.2,0.4,0.3l-0.3,0.3c-0.1-0.1-0.3-0.2-0.4-0.4
	c-0.2,0.1-0.4,0.2-0.7,0.3l-0.3-0.4c0.2-0.1,0.4-0.1,0.6-0.2c-0.1-0.1-0.3-0.2-0.4-0.3l0.3-0.3C3,63.9,3.1,64,3.3,64.1
	c0.2-0.1,0.3-0.2,0.5-0.4L4.1,64.1z"/>
<path class="st0" d="M12.8,63.3H8v2.2c0,0.5,0,0.9-0.1,1.4s-0.2,1-0.4,1.5L7,68c0.2-0.4,0.3-0.8,0.3-1.2c0-0.4,0.1-0.9,0.1-1.2v-2.7
	h5.4V63.3z M10.8,66.5v0.4h1.7v0.5h-1.7v0.5h2.1v0.5H8v-0.5h0.8v-1.1h0.6v1.1h0.8v-1.4H10.8z M10.4,63.9C10.2,64,9.9,64,9.6,64v0.4
	h0.7v0.5H9.6c0.3,0.2,0.5,0.3,0.8,0.5l-0.3,0.4c-0.2-0.2-0.4-0.3-0.5-0.4v1H9.1v-1c-0.2,0.3-0.5,0.5-0.8,0.8L8,65.8
	c0.4-0.3,0.8-0.6,1-0.9H8.1v-0.5H9V64c-0.2,0-0.5,0-0.8,0l-0.1-0.5c0.8,0,1.4-0.1,1.9-0.2L10.4,63.9z M12.7,63.9
	c-0.3,0.1-0.6,0.1-0.9,0.2v0.4h1.1V65h-1.1v0.1c0.4,0.3,0.7,0.5,1.1,0.8l-0.3,0.5c-0.3-0.3-0.6-0.6-0.8-0.8v1h-0.5v-1
	c-0.2,0.3-0.5,0.6-0.7,0.8L10.3,66c0.4-0.3,0.7-0.6,0.9-0.9h-0.7v-0.5h0.7v-0.3c-0.2,0-0.4,0-0.7,0l-0.1-0.5c0.8,0,1.4-0.1,2-0.2
	L12.7,63.9z"/>
<path class="st0" d="M16.4,64.7v-0.8h0.8v0.8H16.4z M16.4,67v-0.8h0.8V67H16.4z"/>
<path class="st0" d="M2.8,72.7v-1.2h0.7v1.2h2.3v3H3.5v1.6H2.8v-1.6H0.6v-3H2.8z M2.8,73.3H1.2v1.9h1.6V73.3z M5,73.3H3.4v1.9H5
	V73.3z"/>
<path class="st0" d="M8.5,72v-0.5h0.6V72h0.7v0.5H9.1V73h1.7v-0.5h-0.7V72h0.7v-0.5h0.6V72h1.5v0.5h-1.5V73h1.1v0.5h-0.7V74h0.9v0.5
	h-0.9v0.7h1v0.5h-2.6v0.5h2.4v0.5h-2.4v0.8H9.6v-0.8H7.2v-0.5h2.4v-0.5H7v-0.5h1v-0.7H7.1V74H8v-0.5H7.2V73h1.2v-0.5H7V72H8.5z
	 M9.6,73.5h-1V74h1V73.5z M9.6,75.2v-0.7h-1v0.7H9.6z M11.3,73.5h-1V74h1V73.5z M10.2,75.2h1v-0.7h-1V75.2z"/>
<path class="st0" d="M16.3,72.1c-0.2,0.1-0.5,0.1-0.8,0.2v0.9h0.9v0.5h-0.9v0.2c0.3,0.3,0.6,0.7,0.9,1.1l-0.3,0.5
	c-0.2-0.4-0.4-0.7-0.6-0.9v2.8H15v-2.8c0,0.1-0.1,0.1-0.1,0.2c-0.2,0.5-0.5,1-0.9,1.3l-0.2-0.6c0.5-0.5,0.8-1.1,1.2-1.8h-1.1v-0.5
	H15v-0.8c-0.3,0-0.6,0.1-0.9,0.1L14,72c0.8-0.1,1.5-0.2,2.1-0.4L16.3,72.1z M19.8,75.5l-0.6,0.1v1.8h-0.6v-1.7L16.5,76l-0.1-0.6
	l2.2-0.3v-3.6h0.6V75l0.5-0.1L19.8,75.5z M18.3,74.3l-0.5,0.5c-0.3-0.3-0.6-0.5-1.1-0.8l0.4-0.4C17.6,73.7,17.9,74,18.3,74.3z
	 M18.4,72.7l-0.5,0.5c-0.3-0.3-0.6-0.5-1.1-0.8l0.4-0.4C17.7,72.2,18,72.5,18.4,72.7z"/>
<path class="st0" d="M21.5,72.6v-1.2h0.6v1.2h0.7v0.6h-0.7v1.2c0.2-0.1,0.5-0.2,0.7-0.4v0.7c-0.2,0.1-0.5,0.3-0.7,0.4v1.7
	c0,0.2-0.1,0.4-0.2,0.5c-0.1,0.1-0.3,0.1-0.5,0.1h-0.5l-0.1-0.6c0.2,0,0.3,0.1,0.5,0.1s0.3-0.1,0.3-0.2v-1.3
	c-0.2,0.1-0.5,0.2-0.8,0.3L20.7,75c0.3,0,0.5-0.1,0.8-0.2v-1.5h-0.8v-0.6L21.5,72.6L21.5,72.6z M24.3,72.4v-0.9H25v0.9h1.4V73H25
	v0.8h1.3v0.5c-0.3,0.7-0.6,1.2-1,1.6c-0.1,0.1-0.1,0.1-0.2,0.2c0.4,0.3,0.9,0.5,1.5,0.7l-0.3,0.5c-0.7-0.3-1.2-0.6-1.6-0.9
	c-0.5,0.3-1.1,0.6-1.9,0.9l-0.3-0.6c0.7-0.2,1.3-0.5,1.7-0.8c-0.4-0.4-0.7-0.9-0.9-1.4l0.5-0.3c0.2,0.5,0.5,1,0.9,1.3
	c0.3-0.3,0.6-0.7,0.9-1.3h-2.5v-0.6h1.2V73h-1.2v-0.6H24.3z"/>
<path class="st0" d="M29.9,73.1c0-0.3,0.1-0.7,0.1-1.2v-0.4h0.7v0.4c0,0.4,0,0.8-0.1,1.2h2.7v0.6h-1.9c0.1,0.7,0.3,1.2,0.6,1.6
	c0.4,0.5,0.8,1,1.4,1.3L33,77.2c-0.7-0.5-1.2-1-1.6-1.6c-0.3-0.5-0.6-1.2-0.7-1.9h-0.2c-0.1,0.4-0.2,0.8-0.4,1.2
	c-0.3,0.8-1,1.6-2,2.4l-0.6-0.5c0.9-0.6,1.6-1.3,1.9-2.1c0.1-0.3,0.3-0.6,0.3-1h-2.2v-0.6H29.9z"/>
<path class="st0" d="M36.3,72c-0.2,0-0.6,0.1-1.1,0.1v0.3h1v0.4h-1v0.3h1v0.5h-1V74h4.1v-0.4h-1v-0.5h1v-0.3h-1v-0.4h1V72h-1v-0.5
	h1.6v2.4h0.3v1.3h-0.6v-0.8H35v0.8h-0.6V74h0.3v-2.3c0.5,0,0.9-0.1,1.4-0.2L36.3,72z M39.1,74.9v0.5c-0.4,0.2-0.9,0.4-1.5,0.6H40
	v0.5h-2.4v0.6c0,0.1,0,0.2-0.1,0.3c-0.1,0.1-0.2,0.1-0.3,0.1h-1L36.1,77c0.2,0,0.5,0,0.7,0c0.1,0,0.2,0,0.2-0.1v-0.4h-2.5V76H37
	v-0.2c0.4-0.1,0.7-0.2,1.2-0.3h-2.7V75L39.1,74.9L39.1,74.9z M38.1,71.8c-0.1,0.1-0.3,0.3-0.4,0.4c0.1,0.1,0.2,0.2,0.3,0.2l-0.3,0.3
	c-0.1-0.1-0.2-0.2-0.3-0.3c-0.2,0.1-0.5,0.3-0.8,0.4l-0.3-0.4c0.2-0.1,0.4-0.1,0.7-0.3c-0.1-0.1-0.3-0.2-0.5-0.3l0.3-0.3
	c0.2,0.1,0.4,0.2,0.5,0.3c0.1-0.1,0.3-0.2,0.4-0.3L38.1,71.8z M38.2,72.9c-0.2,0.2-0.3,0.3-0.5,0.4c0.1,0.1,0.3,0.2,0.4,0.3
	l-0.3,0.3c-0.1-0.1-0.3-0.2-0.4-0.4c-0.2,0.1-0.4,0.2-0.7,0.3l-0.3-0.4c0.2-0.1,0.4-0.1,0.6-0.2c-0.1-0.1-0.3-0.2-0.4-0.3l0.3-0.3
	c0.2,0.1,0.3,0.2,0.5,0.3c0.2-0.1,0.3-0.2,0.5-0.4L38.2,72.9z"/>
<path class="st0" d="M44.5,71.9v-0.5h0.6v0.5h1.5v0.9H47v0.5h-0.4v1h-1.5v0.4h1.6v0.5h-1.6v0.5H47v0.5h-1.9v0.5c0.1,0,0.2,0,0.3,0
	c0.8,0,1.3,0,1.7,0L47,77.4c-2,0-3.2,0-3.7-0.1c-0.4-0.1-0.7-0.3-0.9-0.5c0,0-0.1,0-0.1-0.1c-0.2,0.3-0.5,0.5-0.8,0.8l-0.3-0.6
	c0.3-0.2,0.6-0.5,0.8-0.7c-0.2-0.3-0.4-0.8-0.6-1.3l0.5-0.2c0.1,0.4,0.3,0.7,0.4,0.9v-0.1c0.1-0.3,0.1-0.7,0.2-1.2h-1.1v-0.4
	c0.4-0.5,0.7-1,1.1-1.5h-1.2v-0.5H43v0.6c-0.4,0.6-0.7,1.1-1,1.4h1c0,0.7-0.1,1.3-0.2,1.7c-0.1,0.2-0.1,0.4-0.2,0.6
	c0.2,0.2,0.4,0.3,0.7,0.4c0.2,0.1,0.7,0.1,1.2,0.2v-0.5H43v-0.5h1.5v-0.5h-1.3v-0.5h1.3v-0.4h-1.2v-0.5h1.2v-0.5H43v-0.5h1.5v-0.5
	h-1.2v-0.5H44.5z M45.1,72.9h1v-0.5h-1V72.9z M45.1,73.8h1v-0.5h-1V73.8z"/>
<path class="st0" d="M49.5,71.6c-0.1,0.1-0.1,0.2-0.2,0.4h1.6v0.5c0.3-0.3,0.5-0.6,0.6-1l0.6,0.1C52,71.7,52,71.9,51.9,72h1.9v0.5
	h-1.1c0.1,0.2,0.1,0.3,0.2,0.5l-0.6,0.1c0-0.2-0.1-0.4-0.1-0.5h-0.6c-0.1,0.2-0.3,0.4-0.5,0.6l-0.5-0.3c0.1-0.1,0.2-0.1,0.2-0.2H50
	c0.1,0.1,0.1,0.3,0.2,0.5l-0.6,0.1c0-0.2-0.1-0.3-0.1-0.5H49c-0.2,0.2-0.3,0.4-0.5,0.6L48,73.1c0.5-0.4,0.8-0.8,1-1.2L49.5,71.6z
	 M50.7,75.2v-0.3l-0.3-0.2c0.3-0.1,0.5-0.2,0.7-0.3c-0.2-0.1-0.3-0.1-0.5-0.2l0.3-0.4c0.2,0.1,0.3,0.1,0.5,0.2c0-0.1,0-0.1,0-0.2
	v-0.2h-0.7v-0.5H53v1.3c0,0.1,0.1,0.2,0.2,0.2c0.1,0,0.1,0,0.1-0.1c0,0,0.1-0.2,0.1-0.5l0.5,0.2c0,0.4-0.1,0.7-0.2,0.8
	c-0.1,0.1-0.2,0.1-0.4,0.1H53c-0.2,0-0.3,0-0.4-0.1c-0.1-0.1-0.1-0.2-0.1-0.4v-1h-0.6v0.2c0,0.1,0,0.3-0.1,0.4
	c0.2,0.1,0.4,0.2,0.6,0.3L52.1,75c-0.2-0.1-0.4-0.2-0.6-0.3c-0.1,0.1-0.3,0.2-0.4,0.3h0.1v0.3h2.6v0.5h-2c0.2,0.2,0.4,0.3,0.6,0.4
	c0.3,0.2,0.8,0.3,1.3,0.5l-0.3,0.5c-0.7-0.2-1.2-0.5-1.5-0.7c-0.3-0.2-0.5-0.4-0.8-0.7v1.6h-0.6v-1.6c-0.2,0.2-0.4,0.5-0.7,0.6
	c-0.4,0.3-1,0.6-1.7,0.8l-0.3-0.5c0.8-0.2,1.3-0.4,1.6-0.6c0.2-0.1,0.3-0.2,0.4-0.3h-2.1v-0.5h3V75.2z M50.5,73.2v0.5h-0.9v0.6
	c0.3-0.1,0.6-0.1,0.9-0.2v0.5c-0.7,0.2-1.5,0.3-2.4,0.5L48,74.5c0.4,0,0.7-0.1,1.1-0.1v-0.7h-0.9v-0.5H50.5z"/>
<path class="st0" d="M55.8,74.8V74h0.8v0.8H55.8z"/>
<path class="st0" d="M60.8,71.8v0.5h-0.9c-0.1,0.5-0.2,1-0.3,1.3h1.1v3h-1v0.6h-0.5v-2.7c-0.1,0.2-0.2,0.3-0.3,0.5l-0.3-0.5
	c0.3-0.5,0.5-0.9,0.7-1.3c0.1-0.2,0.2-0.6,0.2-1h-0.7v-0.5L60.8,71.8L60.8,71.8z M60.2,76.2v-2h-0.5v2H60.2z M62.4,76.5
	c-0.4,0.3-0.8,0.6-1.4,0.9l-0.4-0.5c0.5-0.2,0.9-0.5,1.3-0.8L62.4,76.5z M64.5,71.7v0.5H63c0,0.2-0.1,0.3-0.2,0.5h1.4v3.4h-3.1v-3.4
	h1.1c0.1-0.2,0.1-0.3,0.2-0.5H61v-0.5H64.5z M63.6,73.6v-0.5h-2v0.5H63.6z M63.6,74.6v-0.5h-2v0.5H63.6z M63.6,75.1h-2v0.5h2V75.1z
	 M64.5,76.9l-0.3,0.5c-0.5-0.3-0.9-0.6-1.4-0.8l0.3-0.4C63.6,76.4,64,76.6,64.5,76.9z"/>
<path class="st0" d="M68,73.4v-1.9h0.7v1.9h2.6V74h-2.6v2.5H71v0.6h-5.2v-0.6H68V74h-2.5v-0.6H68z"/>
<path class="st1" d="M3.8,6.7H1.4v0.7H0.6V0.9h3.2V6.7z M3,3.4V1.7H1.4v1.7H3z M3,5.9V4.1H1.4v1.8H3z M4.7,0.7h3.9v6.9
	c0,0.3-0.1,0.5-0.2,0.7C8.3,8.4,8.1,8.5,7.8,8.5H6.3L6.1,7.7l1.3,0.1c0.2,0,0.3-0.1,0.3-0.3V5.9H5.4C5.3,6.2,5.2,6.5,5.1,6.8
	c-0.3,0.6-0.8,1.3-1.6,2L2.7,8.2c0.7-0.5,1.2-1,1.5-1.6c0.2-0.5,0.4-1.2,0.4-2.2V3.8L4.7,0.7L4.7,0.7z M7.7,5V3.6H5.6v0.6
	c0,0.3,0,0.5,0,0.8H7.7z M7.7,2.8V1.5H5.6v1.3H7.7z"/>
<path class="st1" d="M17.7,8.6h-0.9V7.9h-4.6v0.6h-0.9V0.7h6.5v7.9H17.7z M16.8,3.8V1.6h-4.6v2.2H16.8z M16.8,7.1V4.7h-4.6v2.4H16.8
	z"/>
<path class="st1" d="M22.3,1.4h1.3v0.7h-3.5V1.4h1.4c-0.1-0.3-0.3-0.6-0.4-0.9L22,0.4C22.1,0.7,22.2,1,22.3,1.4z M23.3,7.9h-2v0.6
	h-0.8V5.3h2.9v2.6H23.3z M23.3,2.7v0.7h-2.8V2.7H23.3z M23.3,4v0.7h-2.8V4H23.3z M22.4,7.2V6.1h-1.2v1.1H22.4z M27.5,2.7
	c0,0.2,0.1,0.3,0.3,0.3h0.7v0.8h-0.9c-0.4,0-0.6-0.1-0.8-0.2c-0.2-0.1-0.3-0.4-0.3-0.7V1.4h-1.4c0,0.6-0.1,1-0.2,1.3
	c-0.1,0.4-0.4,0.8-0.9,1.2l-0.7-0.6c0.4-0.4,0.6-0.7,0.7-1c0.1-0.2,0.1-0.8,0.1-1.7h3.2v2.1H27.5z M27.9,4v0.6
	c-0.2,0.9-0.6,1.7-1.2,2.3c0.5,0.3,1.2,0.6,2,0.8l-0.5,0.8c-0.9-0.3-1.6-0.6-2.1-1c-0.5,0.4-1.2,0.7-2.1,1l-0.5-0.7
	c0.8-0.2,1.4-0.5,1.9-0.8c-0.5-0.5-1-1.1-1.3-1.7l0.8-0.4c0.3,0.6,0.7,1.1,1.3,1.6c0.4-0.5,0.7-1,0.9-1.7h-3.2V4H27.9z"/>
<path class="st1" d="M32.5,1.4H34v0.7h-4V1.4h1.6c-0.2-0.3-0.4-0.6-0.6-0.9l0.9-0.1C32.1,0.7,32.3,1,32.5,1.4z M33.7,2.8v0.7h-3.4
	V2.8H33.7z M33.7,4v0.7h-3.4V4H33.7z M31.2,8.5h-0.8V5.3h3.2v3.1h-0.8V7.9h-1.6V8.5z M32.8,6.1h-1.6v1.1h1.6V6.1z M36,2.9V0.4h0.9
	v2.5h1.8v0.8h-1.8v4.8H36V3.7h-1.8V2.9H36z"/>
<path class="st1" d="M3.2,15v0.6c-0.3,0.5-0.7,1-1.2,1.5h1.2v0.5c-0.1,0.5-0.3,0.9-0.4,1.2c0.4,0.5,0.9,0.8,1.4,0.9
	c0.5,0.2,1.5,0.2,2.9,0.2c0.9,0,1.6,0,2.2-0.1L9,20.7c-2.9,0-4.6-0.1-5.2-0.3c-0.6-0.2-1-0.5-1.4-1c-0.3,0.5-0.7,0.9-1.2,1.4
	l-0.6-0.6c0.5-0.5,0.9-0.9,1.1-1.2c0.2-0.2,0.4-0.6,0.6-1.3H1V17c0.4-0.4,0.8-0.9,1.2-1.5H0.8V15H3.2z M2.9,14.1l-0.6,0.6
	C2,14.3,1.7,14,1.2,13.6l0.6-0.5C2.2,13.4,2.6,13.7,2.9,14.1z M5.4,13.1c-0.1,0.3-0.2,0.5-0.3,0.7h0.8v-1h0.8v1h2v0.7h-2v0.9h2.5
	v0.7H6.7v0.6H5.9v-0.6H3.4v-0.7h2.5v-0.9H4.7c-0.2,0.3-0.4,0.6-0.6,0.8l-0.8-0.5c0.6-0.6,1-1.3,1.2-1.9L5.4,13.1z M8.7,17v2.4H4V17
	H8.7z M7.8,17.6h-3v1h3V17.6z"/>
<path class="st1" d="M15.6,13.2v0.7h-1V15h1.2v0.7h-1.2v1.8h-0.8v-1.8h-1.1c0,0.3-0.1,0.5-0.2,0.7c-0.1,0.4-0.4,0.8-0.8,1.2L11,17
	c0.4-0.3,0.6-0.6,0.7-0.9c0.1-0.1,0.1-0.3,0.1-0.5h-1.2v-0.7h1.2v-1.1H11v-0.7L15.6,13.2L15.6,13.2z M14.4,18.3v-0.6h0.9v0.6h3.1
	v0.8h-3.1V20h3.8v0.8h-8.4V20h3.7v-0.9h-3v-0.8H14.4z M13.8,13.9h-1.1V15h1.1V13.9z M17.1,13.5v2.9h-0.8v-2.9H17.1z M18.8,13v4
	c0,0.3-0.1,0.5-0.2,0.6s-0.4,0.2-0.7,0.2h-1.2l-0.1-0.7c0.5,0,0.9,0.1,1.2,0.1c0.2,0,0.3-0.1,0.3-0.2v-4H18.8z"/>
<path class="st1" d="M27.8,14.9v0.7h-2c-0.3,0.2-0.5,0.4-0.8,0.5c0.3,0.4,0.6,0.8,0.7,1.2c0.7-0.3,1.3-0.7,2-1.3l0.7,0.6
	c-0.4,0.3-0.8,0.6-1.3,0.9c0.2,0.5,0.5,0.9,0.8,1.3c0.3,0.4,0.7,0.8,1.2,1.2l-0.6,0.7c-0.6-0.5-1.1-1-1.4-1.6
	c-0.3-0.4-0.5-0.8-0.7-1.3c-0.1,0.1-0.3,0.1-0.4,0.2c0.1,0.4,0.1,0.8,0.1,1.1c0,0.7-0.1,1.1-0.3,1.4c-0.2,0.3-0.9,0.5-2,0.5
	l-0.3-0.9c0,0,0.2,0.1,0.5,0.1c0.5,0,0.8-0.1,0.9-0.2c0.1-0.2,0.2-0.5,0.2-0.9c0-0.1,0-0.3,0-0.4c-0.5,0.4-1,0.7-1.4,0.9
	c-0.7,0.3-1.5,0.7-2.6,1l-0.5-0.8c1-0.3,1.9-0.6,2.7-0.9c0.6-0.3,1.2-0.6,1.6-1c0-0.1,0-0.2-0.1-0.2c0-0.1-0.1-0.2-0.1-0.2
	c-0.5,0.3-1,0.6-1.4,0.8c-0.6,0.3-1.4,0.5-2.3,0.8l-0.4-0.7c0.9-0.2,1.7-0.4,2.4-0.7c0.5-0.2,1-0.4,1.4-0.7
	c-0.1-0.1-0.1-0.2-0.2-0.3c-0.8,0.3-1.8,0.6-2.8,0.9l-0.5-0.7c1.2-0.2,2.1-0.4,2.7-0.7c0.3-0.1,0.5-0.2,0.8-0.3h-2.6v-0.7h6V14.9z
	 M25.2,13.5h3.7v1.8h-0.8v-1h-6.4v1h-0.8v-1.8h3.5c-0.1-0.2-0.2-0.4-0.3-0.5l1-0.1C25,13.1,25.1,13.3,25.2,13.5z"/>
</svg>
