<svg width="353" height="83" viewBox="0 0 353 83" fill="none" xmlns="http://www.w3.org/2000/svg">
<path d="M29.8 28C29.7 28.3 29.1 29.3 28 30.4C26 32.4 22.5 34.7 16.6 34.7C6.70004 34.7 0.900024 27.2 0.900024 17.8C0.900024 8.5 6.70004 0.900002 16.6 0.900002C26 0.900002 29.5 7.1 29.9 7.7L28.8 8.8C18.6 -3.4 6.50003 4.8 6.50003 17.8C6.50003 28.7 16.4 37.2 25.8 29.7V18.6H29.8V28Z" fill="#D3B380"/>
<path d="M64.3 17.8C64.3 29.6 57.3 34.7 48.6 34.7C39.9 34.7 32.9 29.6 32.9 17.8C32.9 6.4 39.9 0.900002 48.6 0.900002C57.3 0.900002 64.3 6.3 64.3 17.8ZM59 17.8C59 7.4 54.4 2.4 48.7 2.4C43 2.4 38.4 7.5 38.4 17.8C38.4 28.5 43.1 33.2 48.7 33.2C54.4 33.2 59 28.5 59 17.8Z" fill="#D3B380"/>
<path d="M98.7 17.8C98.7 29.6 91.7 34.7 83 34.7C74.3 34.7 67.3 29.6 67.3 17.8C67.3 6.4 74.3 0.900002 83 0.900002C91.7 0.900002 98.7 6.3 98.7 17.8ZM93.4 17.8C93.4 7.4 88.8001 2.4 83.1001 2.4C77.4001 2.4 72.8 7.5 72.8 17.8C72.8 28.5 77.5001 33.2 83.1001 33.2C88.8001 33.2 93.4 28.5 93.4 17.8Z" fill="#D3B380"/>
<path d="M132.5 17.9C132.5 34.9 115 34.1 114.6 34.1H104.3V6.1C104.3 4.1 102.8 2.1 100.4 1.8V1.6H114.7C115 1.7 132.5 0.600002 132.5 17.9ZM127.1 17.9C127.1 3.3 116.7 3.3 114.6 3.3H109.1V32.5H114.6C116.3 32.4 127.2 32.4 127.1 17.9Z" fill="#D3B380"/>
<path d="M171.9 32.1V34.1H151V6.1C151 4.2 149.8 2.6 147.1 1.8V1.6H155.4V32.1H171.9Z" fill="#D3B380"/>
<path d="M181.3 1.6V34.1H176.9V6.1C176.9 4.2 175.7 2.6 173 1.8V1.6H181.3V1.6Z" fill="#D3B380"/>
<path d="M193.2 3.3V16.2H206.2V18.2H193.2V34.1H188.3V6.1C188.3 4.2 187.1 2.6 184.4 1.8V1.6H208.8V3.3H193.2V3.3Z" fill="#D3B380"/>
<path d="M236.2 32.4V34.1H215.7V6.1C215.7 4.2 214.5 2.6 211.8 1.8V1.6H236.2V3.3H220.6V16.2H233.6V18.2H220.6V32.4H236.2V32.4Z" fill="#D3B380"/>
<path d="M29.8 75.2C29.7 75.5 29.1 76.5 28 77.6C26 79.6 22.5 81.9 16.6 81.9C6.70004 81.9 0.900024 74.4 0.900024 65C0.900024 55.7 6.70004 48.1 16.6 48.1C26 48.1 29.5 54.3 29.9 54.9L28.8 56C18.6 43.8 6.50003 52 6.50003 65C6.50003 75.9 16.4 84.4 25.8 76.9V65.7H29.8V75.2Z" fill="#D3B380"/>
<path d="M64.3 65C64.3 76.8 57.3 81.9 48.6 81.9C39.9 81.9 32.9 76.8 32.9 65C32.9 53.6 39.9 48.1 48.6 48.1C57.3 48.2 64.3 53.6 64.3 65ZM59 65C59 54.6 54.4 49.6 48.7 49.6C43 49.6 38.4 54.7 38.4 65C38.4 75.7 43.1 80.4 48.7 80.4C54.4 80.4 59 75.8 59 65Z" fill="#D3B380"/>
<path d="M98.7 65C98.7 76.8 91.7 81.9 83 81.9C74.3 81.9 67.3 76.8 67.3 65C67.3 53.6 74.3 48.1 83 48.1C91.7 48.2 98.7 53.6 98.7 65ZM93.4 65C93.4 54.6 88.8001 49.6 83.1001 49.6C77.4001 49.6 72.8 54.7 72.8 65C72.8 75.7 77.5001 80.4 83.1001 80.4C88.8001 80.4 93.4 75.8 93.4 65Z" fill="#D3B380"/>
<path d="M132.5 65.1C132.5 82.1 115 81.3 114.6 81.3H104.3V53.3C104.3 51.3 102.8 49.3 100.4 49V48.8H114.7C115 48.9 132.5 47.9 132.5 65.1ZM127.1 65.1C127.1 50.5 116.7 50.5 114.6 50.5H109.1V79.7H114.6C116.3 79.7 127.2 79.6 127.1 65.1Z" fill="#D3B380"/>
<path d="M173.5 50.9H162.8V81.4H157.9V50.9H147.1V48.9H173.5V50.9Z" fill="#D3B380"/>
<path d="M185 48.9V81.4H180.6V53.4C180.6 51.5 179.4 49.9 176.7 49.1V48.9H185Z" fill="#D3B380"/>
<path d="M225.7 81.3H225.5H220.8L216.9 59L204.8 81.3L193.8 60.5L191.4 81.3H189.4L191.7 61.2C192 58.4 193.1 50.9 188.2 49.8V49.6C194.5 49.8 196.6 55.5 198.3 58.6L206.4 74.1L220.1 48.9L225.7 81.3Z" fill="#D3B380"/>
<path d="M251.3 79.7V81.4H230.8V53.4C230.8 51.5 229.6 49.9 226.9 49.1V48.9H251.3V50.6H235.7V63.5H248.7V65.5H235.7V79.7H251.3Z" fill="#D3B380"/>
<path d="M274.8 73.1C274.8 76.5 272.3 82.1 264.6 82.1C258.5 82.1 254.6 79.5 253.7 72.8H255.2C256.2 78.9 261.2 80.2 264.2 80.2C269.4 80.2 270.6 76.6 270.6 75C270.6 71.6 267.8 69.7 262.5 67C259.1 65.3 253.4 62.4 253.4 56.9C253.4 49.8 260.4 48.4 262.9 48.4C269.1 48.4 271.7 51.7 272.6 56.3H271C270.3 53.9 268.6 50.2 263 50.2C260.2 50.2 257.3 52.4 257.3 55.2C257.3 58.5 261.2 60.6 265.3 62.7C273 66.4 274.8 69.2 274.8 73.1Z" fill="#D3B380"/>
<g opacity="0.6">
<path d="M259.7 11C259.7 11.5 259.5 11.9 259 12.2C258.6 12.4 258.2 12.5 257.6 12.5C257.5 12.5 257.2 12.5 256.7 12.5V7.3H257.6C258.1 7.3 258.5 7.4 258.8 7.5C259.2 7.7 259.4 8 259.4 8.4C259.4 8.7 259.3 8.9 259.1 9.2C258.9 9.4 258.7 9.6 258.4 9.7C258.8 9.8 259.1 9.9 259.3 10.1C259.6 10.3 259.7 10.6 259.7 11ZM259.2 11C259.2 10.6 259.1 10.3 258.8 10.1C258.6 9.9 258.3 9.8 257.9 9.8H257.6V9.6H257.8C258.2 9.6 258.4 9.5 258.6 9.2C258.7 9 258.8 8.7 258.8 8.5C258.8 7.8 258.3 7.4 257.4 7.4H257.1V12.3H257.4C258.6 12.3 259.2 11.8 259.2 11Z" fill="white"/>
<path d="M263.5 10.4H261.5V10.2H263C263 9.6 262.7 9.3 262.2 9.3C261.9 9.3 261.6 9.4 261.4 9.7C261.2 10 261.1 10.3 261.1 10.8C261.1 11.3 261.2 11.6 261.4 11.9C261.6 12.2 261.9 12.3 262.2 12.3C262.6 12.3 262.9 12.1 263.2 11.8L263.4 12C263.1 12.3 262.7 12.5 262.3 12.5C261.8 12.5 261.5 12.3 261.1 12C260.8 11.7 260.6 11.3 260.6 10.8C260.6 10.3 260.8 9.9 261.1 9.6C261.4 9.3 261.8 9.1 262.2 9.1C262.5 9.1 262.8 9.2 263.1 9.5C263.4 9.7 263.5 10 263.5 10.4Z" fill="white"/>
<path d="M266.7 10.3V12.4H266.2V12.1C266 12.3 265.7 12.4 265.4 12.4C265.1 12.4 264.8 12.3 264.6 12.1C264.4 11.9 264.2 11.7 264.2 11.3C264.2 11 264.3 10.7 264.6 10.5C264.8 10.3 265.1 10.2 265.3 10.2C265.4 10.2 265.5 10.2 265.5 10.2C265.7 10.2 265.8 10.3 265.9 10.3L265.8 10.5C265.6 10.4 265.5 10.3 265.3 10.3C265.1 10.3 264.9 10.4 264.8 10.5C264.7 10.7 264.6 10.9 264.6 11.2C264.6 11.5 264.7 11.7 264.8 11.8C264.9 12 265.1 12 265.3 12C265.6 12 265.9 11.8 266.1 11.5V10C266.1 9.3 265.9 9 265.4 9C265.1 9 264.9 9.1 264.6 9.3L264.5 9.1C264.7 8.9 265 8.9 265.4 8.9C266.3 9.1 266.7 9.5 266.7 10.3Z" fill="white"/>
<path d="M270.5 12.4H270V11.8C269.8 12.2 269.4 12.4 269 12.4C268.2 12.4 267.8 12 267.8 11.2V9H268.3V11.2C268.3 11.9 268.5 12.2 269 12.2C269.3 12.2 269.5 12 269.7 11.7C269.8 11.5 269.9 11.3 269.9 11.1V9H270.4V12.4H270.5Z" fill="white"/>
<path d="M272.9 9.3H272.3V11.3C272.3 11.6 272.3 11.9 272.4 12C272.5 12.1 272.6 12.2 272.9 12.2V12.4C272.2 12.4 271.8 12 271.8 11.3V9.3H271.5V9.1H271.8V8.7H272.3V9.1H272.9V9.3Z" fill="white"/>
<path d="M276.6 9.2L274.8 13.7H274.6L275.1 12.4L273.7 9.2H274.2L275.3 11.8L276.3 9.2H276.6Z" fill="white"/>
<path d="M279.4 12.4H278.9V7.4H279.4V12.4Z" fill="white"/>
<path d="M281.2 7.7C281.2 7.8 281.2 7.9 281.1 7.9C281 7.9 281 8 280.9 8C280.8 8 280.7 8 280.7 7.9C280.7 7.8 280.6 7.8 280.6 7.7C280.6 7.6 280.6 7.5 280.7 7.5C280.8 7.4 280.8 7.4 280.9 7.4C281 7.4 281.1 7.4 281.1 7.5C281.1 7.6 281.2 7.7 281.2 7.7ZM281.1 12.4H280.6V9.2H281.1V12.4Z" fill="white"/>
<path d="M285 10.4H283V10.2H284.5C284.5 9.6 284.2 9.3 283.7 9.3C283.4 9.3 283.1 9.4 282.9 9.7C282.7 10 282.6 10.3 282.6 10.8C282.6 11.3 282.7 11.6 282.9 11.9C283.1 12.2 283.4 12.3 283.7 12.3C284.1 12.3 284.4 12.1 284.7 11.8L284.9 12C284.6 12.3 284.2 12.5 283.8 12.5C283.3 12.5 283 12.3 282.6 12C282.3 11.7 282.1 11.3 282.1 10.8C282.1 10.3 282.3 9.9 282.6 9.6C282.9 9.3 283.3 9.1 283.7 9.1C284 9.1 284.3 9.2 284.6 9.5C284.9 9.7 285 10 285 10.4Z" fill="white"/>
<path d="M287.7 11.6C287.7 11.9 287.6 12.1 287.4 12.2C287.2 12.4 287 12.4 286.7 12.4C286.3 12.4 286 12.3 285.8 12L285.9 11.8C286.1 12.1 286.4 12.2 286.7 12.2C286.9 12.2 287 12.1 287.1 12C287.2 11.9 287.3 11.7 287.3 11.6C287.3 11.4 287.2 11.2 287 11.1C286.9 11 286.7 10.9 286.4 10.7C286 10.5 285.9 10.2 285.9 9.8C285.9 9.6 286 9.4 286.2 9.2C286.4 9.1 286.6 9 286.8 9C286.9 9 287.1 9 287.3 9.1C287.5 9.2 287.6 9.3 287.6 9.4L287.4 9.6C287.2 9.3 287 9.2 286.7 9.2C286.4 9.2 286.2 9.3 286.2 9.6C286.2 9.8 286.3 10 286.5 10.2C286.9 10.4 287.1 10.6 287.2 10.7C287.6 11 287.7 11.3 287.7 11.6Z" fill="white"/>
<path d="M290.7 7.7C290.7 7.8 290.7 7.9 290.6 7.9C290.5 7.9 290.5 8 290.4 8C290.3 8 290.2 8 290.2 7.9C290.2 7.8 290.1 7.8 290.1 7.7C290.1 7.6 290.1 7.5 290.2 7.5C290.3 7.4 290.3 7.4 290.4 7.4C290.5 7.4 290.6 7.4 290.6 7.5C290.7 7.6 290.7 7.7 290.7 7.7ZM290.6 12.4H290.1V9.2H290.6V12.4Z" fill="white"/>
<path d="M294.4 12.4H293.9V10.2C293.9 9.5 293.7 9.2 293.2 9.2C292.7 9.2 292.4 9.5 292.2 10.1V12.4H291.7V9.2H292.2V9.6C292.5 9.2 292.8 9.1 293.2 9.1C293.6 9.1 293.9 9.2 294 9.3C294.2 9.5 294.3 9.8 294.3 10.2V12.4H294.4Z" fill="white"/>
<path d="M298.3 9.3H297.7V11.3C297.7 11.6 297.7 11.9 297.8 12C297.9 12.1 298 12.2 298.3 12.2V12.4C297.6 12.4 297.2 12 297.2 11.3V9.3H296.9V9.1H297.2V8.7H297.7V9.1H298.3V9.3Z" fill="white"/>
<path d="M301.8 12.4H301.3V10.2C301.3 9.5 301.1 9.2 300.6 9.2C300.1 9.2 299.8 9.5 299.6 10.1V12.4H299.1V7.4H299.6V9.6C299.9 9.2 300.2 9.1 300.6 9.1C301 9.1 301.3 9.2 301.4 9.3C301.6 9.5 301.7 9.8 301.7 10.2V12.4H301.8Z" fill="white"/>
<path d="M305.7 10.4H303.7V10.2H305.2C305.2 9.6 304.9 9.3 304.4 9.3C304.1 9.3 303.8 9.4 303.6 9.7C303.4 10 303.3 10.3 303.3 10.8C303.3 11.3 303.4 11.6 303.6 11.9C303.8 12.2 304.1 12.3 304.4 12.3C304.8 12.3 305.1 12.1 305.4 11.8L305.6 12C305.3 12.3 304.9 12.5 304.5 12.5C304 12.5 303.7 12.3 303.3 12C303 11.7 302.8 11.3 302.8 10.8C302.8 10.3 303 9.9 303.3 9.6C303.6 9.3 304 9.1 304.4 9.1C304.7 9.1 305 9.2 305.3 9.5C305.6 9.7 305.7 10 305.7 10.4Z" fill="white"/>
<path d="M310.8 12C310.5 12.3 310.1 12.4 309.7 12.4C309.2 12.4 308.9 12.2 308.5 11.9C308.2 11.6 308 11.2 308 10.7C308 10.2 308.2 9.8 308.5 9.5C308.8 9.2 309.2 9 309.7 9C310.1 9 310.4 9.1 310.7 9.3L310.6 9.5C310.4 9.3 310.1 9.1 309.7 9.1C309.4 9.1 309.1 9.3 308.9 9.6C308.7 9.9 308.6 10.2 308.6 10.6C308.6 11 308.7 11.4 308.9 11.6C309.1 11.9 309.4 12.1 309.7 12.1C310.1 12.1 310.4 11.9 310.7 11.6L310.8 12Z" fill="white"/>
<path d="M314.5 10.8C314.5 11.3 314.3 11.7 314 12C313.7 12.3 313.3 12.5 312.8 12.5C312.3 12.5 312 12.3 311.6 12C311.3 11.7 311.1 11.3 311.1 10.8C311.1 10.3 311.3 9.9 311.6 9.6C311.9 9.3 312.3 9.1 312.8 9.1C313.3 9.1 313.6 9.3 314 9.6C314.4 9.9 314.5 10.3 314.5 10.8ZM314 10.8C314 10.4 313.9 10 313.7 9.7C313.5 9.4 313.2 9.3 312.9 9.3C312.6 9.3 312.3 9.4 312.1 9.7C311.9 10 311.8 10.3 311.8 10.8C311.8 11.2 311.9 11.6 312.1 11.9C312.3 12.2 312.6 12.3 312.9 12.3C313.2 12.3 313.5 12.2 313.7 11.9C313.9 11.6 314 11.2 314 10.8Z" fill="white"/>
<path d="M320 12.4H319.5V10.2C319.5 9.9 319.5 9.7 319.4 9.5C319.3 9.4 319.2 9.3 318.9 9.3C318.5 9.3 318.3 9.6 318 10.1V10.2V12.4H317.5V10.2C317.5 9.9 317.5 9.7 317.4 9.5C317.3 9.3 317.1 9.3 316.9 9.3C316.7 9.3 316.6 9.4 316.4 9.5C316.2 9.7 316.1 9.9 316 10.1V12.4H315.5V9.2H316V9.6C316.3 9.3 316.6 9.1 316.9 9.1C317.4 9.1 317.7 9.3 317.9 9.6C318.2 9.2 318.5 9.1 318.9 9.1C319.6 9.1 320 9.5 320 10.2V12.4Z" fill="white"/>
<path d="M323.8 10.8C323.8 11.3 323.7 11.7 323.4 12C323.1 12.3 322.8 12.5 322.3 12.5C322 12.5 321.7 12.4 321.5 12.1V12.4H321V7.4H321.5V11.6C321.6 11.8 321.7 12 321.8 12.1C321.9 12.2 322.1 12.3 322.3 12.3C322.6 12.3 322.8 12.2 323 11.9C323.2 11.6 323.3 11.3 323.3 10.8C323.3 10.4 323.2 10 323 9.7C322.8 9.4 322.6 9.3 322.3 9.3C322.1 9.3 322 9.4 321.8 9.5L321.7 9.3C321.9 9.2 322.1 9.2 322.3 9.2C322.7 9.2 323.1 9.4 323.4 9.7C323.7 9.9 323.8 10.3 323.8 10.8Z" fill="white"/>
<path d="M325.5 7.7C325.5 7.8 325.5 7.9 325.4 7.9C325.3 7.9 325.3 8 325.2 8C325.1 8 325 8 325 7.9C325 7.8 324.9 7.8 324.9 7.7C324.9 7.6 324.9 7.5 325 7.5C325.1 7.4 325.1 7.4 325.2 7.4C325.3 7.4 325.4 7.4 325.4 7.5C325.4 7.6 325.5 7.7 325.5 7.7ZM325.4 12.4H324.9V9.2H325.4V12.4Z" fill="white"/>
<path d="M329.2 12.4H328.7V10.2C328.7 9.5 328.5 9.2 328 9.2C327.5 9.2 327.2 9.5 327 10.1V12.4H326.5V9.2H327V9.6C327.3 9.2 327.6 9.1 328 9.1C328.4 9.1 328.7 9.2 328.8 9.3C329 9.5 329.1 9.8 329.1 10.2V12.4H329.2Z" fill="white"/>
<path d="M332.6 10.3V12.4H332.1V12.1C331.9 12.3 331.6 12.4 331.3 12.4C331 12.4 330.7 12.3 330.5 12.1C330.3 11.9 330.1 11.7 330.1 11.3C330.1 11 330.2 10.7 330.5 10.5C330.7 10.3 331 10.2 331.2 10.2C331.3 10.2 331.4 10.2 331.4 10.2C331.6 10.2 331.7 10.3 331.8 10.3L331.7 10.5C331.5 10.4 331.4 10.3 331.2 10.3C331 10.3 330.8 10.4 330.7 10.5C330.6 10.7 330.5 10.9 330.5 11.2C330.5 11.5 330.6 11.7 330.7 11.8C330.8 12 331 12 331.2 12C331.5 12 331.8 11.8 332 11.5V10C332 9.3 331.8 9 331.3 9C331 9 330.8 9.1 330.5 9.3L330.4 9.1C330.6 8.9 330.9 8.9 331.3 8.9C332.2 9.1 332.6 9.5 332.6 10.3Z" fill="white"/>
<path d="M335 9.3H334.4V11.3C334.4 11.6 334.4 11.9 334.5 12C334.6 12.1 334.7 12.2 335 12.2V12.4C334.3 12.4 333.9 12 333.9 11.3V9.3H333.6V9.1H333.9V8.7H334.4V9.1H335V9.3Z" fill="white"/>
<path d="M336.5 7.7C336.5 7.8 336.5 7.9 336.4 7.9C336.3 7.9 336.3 8 336.2 8C336.1 8 336 8 336 7.9C336 7.8 335.9 7.8 335.9 7.7C335.9 7.6 335.9 7.5 336 7.5C336.1 7.4 336.1 7.4 336.2 7.4C336.3 7.4 336.4 7.4 336.4 7.5C336.4 7.6 336.5 7.7 336.5 7.7ZM336.4 12.4H335.9V9.2H336.4V12.4Z" fill="white"/>
<path d="M340.7 10.8C340.7 11.3 340.5 11.7 340.2 12C339.9 12.3 339.5 12.5 339 12.5C338.5 12.5 338.2 12.3 337.8 12C337.5 11.7 337.3 11.3 337.3 10.8C337.3 10.3 337.5 9.9 337.8 9.6C338.1 9.3 338.5 9.1 339 9.1C339.5 9.1 339.8 9.3 340.2 9.6C340.6 9.9 340.7 10.3 340.7 10.8ZM340.2 10.8C340.2 10.4 340.1 10 339.9 9.7C339.7 9.4 339.4 9.3 339.1 9.3C338.8 9.3 338.5 9.4 338.3 9.7C338.1 10 338 10.3 338 10.8C338 11.2 338.1 11.6 338.3 11.9C338.5 12.2 338.8 12.3 339.1 12.3C339.4 12.3 339.7 12.2 339.9 11.9C340.1 11.6 340.2 11.2 340.2 10.8Z" fill="white"/>
<path d="M344.4 12.4H343.9V10.2C343.9 9.5 343.7 9.2 343.2 9.2C342.7 9.2 342.4 9.5 342.2 10.1V12.4H341.7V9.2H342.2V9.6C342.5 9.2 342.8 9.1 343.2 9.1C343.6 9.1 343.9 9.2 344 9.3C344.2 9.5 344.3 9.8 344.3 10.2V12.4H344.4Z" fill="white"/>
<path d="M350.2 10.8C350.2 11.3 350 11.7 349.7 12C349.4 12.3 349 12.5 348.5 12.5C348 12.5 347.7 12.3 347.3 12C347 11.7 346.8 11.3 346.8 10.8C346.8 10.3 347 9.9 347.3 9.6C347.6 9.3 348 9.1 348.5 9.1C349 9.1 349.3 9.3 349.7 9.6C350 9.9 350.2 10.3 350.2 10.8ZM349.6 10.8C349.6 10.4 349.5 10 349.3 9.7C349.1 9.4 348.8 9.3 348.5 9.3C348.2 9.3 347.9 9.4 347.7 9.7C347.5 10 347.4 10.3 347.4 10.8C347.4 11.2 347.5 11.6 347.7 11.9C347.9 12.2 348.2 12.3 348.5 12.3C348.8 12.3 349.1 12.2 349.3 11.9C349.5 11.6 349.6 11.2 349.6 10.8Z" fill="white"/>
<path d="M352.4 9.3H351.8V12.4H351.3V9.3H351V9.1H351.3V8.4C351.3 7.7 351.7 7.4 352.4 7.4V7.6C352.2 7.6 352 7.7 351.9 7.8C351.8 7.9 351.8 8.2 351.8 8.5V9.2H352.4V9.3V9.3Z" fill="white"/>
<path d="M259.3 21.4H258.8V19.2C258.8 18.5 258.6 18.2 258.1 18.2C257.6 18.2 257.3 18.5 257.1 19.1V21.4H256.6V18.2H257.1V18.6C257.4 18.2 257.7 18.1 258.1 18.1C258.5 18.1 258.8 18.2 258.9 18.3C259.1 18.5 259.2 18.8 259.2 19.2V21.4H259.3Z" fill="white"/>
<path d="M262.7 19.3V21.4H262.2V21.1C262 21.3 261.7 21.4 261.4 21.4C261.1 21.4 260.8 21.3 260.6 21.1C260.4 20.9 260.2 20.7 260.2 20.3C260.2 20 260.3 19.7 260.6 19.5C260.8 19.3 261.1 19.2 261.3 19.2C261.4 19.2 261.5 19.2 261.5 19.2C261.7 19.2 261.8 19.3 261.9 19.3L261.8 19.5C261.6 19.4 261.5 19.3 261.3 19.3C261.1 19.3 260.9 19.4 260.8 19.5C260.7 19.7 260.6 19.9 260.6 20.2C260.6 20.5 260.7 20.7 260.8 20.8C260.9 21 261.1 21 261.3 21C261.6 21 261.9 20.8 262.1 20.5V19C262.1 18.3 261.9 18 261.4 18C261.1 18 260.9 18.1 260.6 18.3L260.5 18.1C260.7 17.9 261 17.9 261.4 17.9C262.3 18.1 262.7 18.5 262.7 19.3Z" fill="white"/>
<path d="M265.1 18.3H264.5V20.3C264.5 20.6 264.5 20.9 264.6 21C264.7 21.1 264.8 21.2 265.1 21.2V21.4C264.4 21.4 264 21 264 20.3V18.3H263.7V18.1H264V17.7H264.5V18.1H265.1V18.3Z" fill="white"/>
<path d="M268.6 21.4H268.1V20.8C267.9 21.2 267.5 21.4 267.1 21.4C266.3 21.4 265.9 21 265.9 20.2V18H266.4V20.2C266.4 20.9 266.6 21.2 267.1 21.2C267.4 21.2 267.6 21 267.8 20.7C267.9 20.5 268 20.3 268 20.1V18H268.5V21.4H268.6Z" fill="white"/>
<path d="M271.2 18.3L271.1 18.5C271 18.4 270.8 18.4 270.7 18.4C270.6 18.4 270.6 18.4 270.5 18.5C270.3 18.6 270.2 18.9 270.2 19.4V21.5H269.7V18.3H270.2V18.7C270.3 18.6 270.3 18.5 270.4 18.4C270.5 18.3 270.6 18.3 270.8 18.3C271 18.1 271.1 18.2 271.2 18.3Z" fill="white"/>
<path d="M274.3 19.3V21.4H273.8V21.1C273.6 21.3 273.3 21.4 273 21.4C272.7 21.4 272.4 21.3 272.2 21.1C272 20.9 271.8 20.7 271.8 20.3C271.8 20 271.9 19.7 272.2 19.5C272.4 19.3 272.7 19.2 272.9 19.2C273 19.2 273.1 19.2 273.1 19.2C273.3 19.2 273.4 19.3 273.5 19.3L273.4 19.5C273.2 19.4 273.1 19.3 272.9 19.3C272.7 19.3 272.5 19.4 272.4 19.5C272.3 19.7 272.2 19.9 272.2 20.2C272.2 20.5 272.3 20.7 272.4 20.8C272.5 21 272.7 21 272.9 21C273.2 21 273.5 20.8 273.7 20.5V19C273.7 18.3 273.5 18 273 18C272.7 18 272.5 18.1 272.2 18.3L272.1 18.1C272.3 17.9 272.6 17.9 273 17.9C273.9 18.1 274.3 18.5 274.3 19.3Z" fill="white"/>
<path d="M275.9 21.4H275.4V16.4H275.9V21.4Z" fill="white"/>
<path d="M278.9 21.4H278.4V16.4H278.9V21.4Z" fill="white"/>
<path d="M282.3 19.3V21.4H281.8V21.1C281.6 21.3 281.3 21.4 281 21.4C280.7 21.4 280.4 21.3 280.2 21.1C280 20.9 279.8 20.7 279.8 20.3C279.8 20 279.9 19.7 280.2 19.5C280.4 19.3 280.7 19.2 280.9 19.2C281 19.2 281.1 19.2 281.1 19.2C281.3 19.2 281.4 19.3 281.5 19.3L281.4 19.5C281.2 19.4 281.1 19.3 280.9 19.3C280.7 19.3 280.5 19.4 280.4 19.5C280.3 19.7 280.2 19.9 280.2 20.2C280.2 20.5 280.3 20.7 280.4 20.8C280.5 21 280.7 21 280.9 21C281.2 21 281.5 20.8 281.7 20.5V19C281.7 18.3 281.5 18 281 18C280.7 18 280.5 18.1 280.2 18.3L280.1 18.1C280.3 17.9 280.6 17.9 281 17.9C281.9 18.1 282.3 18.5 282.3 19.3Z" fill="white"/>
<path d="M286.1 21.4H285.6V19.2C285.6 18.5 285.4 18.2 284.9 18.2C284.4 18.2 284.1 18.5 283.9 19.1V21.4H283.4V18.2H283.9V18.6C284.2 18.2 284.5 18.1 284.9 18.1C285.3 18.1 285.6 18.2 285.7 18.3C285.9 18.5 286 18.8 286 19.2V21.4H286.1Z" fill="white"/>
<path d="M289.9 21.4H289.4V21.1C289.2 21.3 288.9 21.5 288.6 21.5C288.2 21.5 287.8 21.3 287.5 21C287.2 20.7 287.1 20.3 287.1 19.8C287.1 19.3 287.2 18.9 287.5 18.6C287.8 18.3 288.1 18.1 288.6 18.1C288.8 18.1 289 18.1 289.2 18.2L289.1 18.4C289 18.3 288.8 18.2 288.6 18.2C288.4 18.2 288.1 18.3 288 18.6C287.8 18.9 287.7 19.3 287.7 19.7C287.7 20.1 287.8 20.5 288 20.8C288.2 21.1 288.4 21.2 288.7 21.2C288.9 21.2 289 21.1 289.2 21C289.3 20.9 289.4 20.7 289.5 20.5V16.3H290V21.4H289.9Z" fill="white"/>
<path d="M292.8 20.6C292.8 20.9 292.7 21.1 292.5 21.2C292.3 21.4 292.1 21.4 291.8 21.4C291.4 21.4 291.1 21.3 290.9 21L291 20.8C291.2 21.1 291.5 21.2 291.8 21.2C292 21.2 292.1 21.1 292.2 21C292.3 20.9 292.4 20.7 292.4 20.6C292.4 20.4 292.3 20.2 292.1 20.1C292 20 291.8 19.9 291.5 19.7C291.1 19.5 291 19.2 291 18.8C291 18.6 291.1 18.4 291.3 18.2C291.5 18.1 291.7 18 291.9 18C292 18 292.2 18 292.4 18.1C292.6 18.2 292.7 18.3 292.7 18.4L292.5 18.6C292.3 18.3 292.1 18.2 291.8 18.2C291.5 18.2 291.3 18.3 291.3 18.6C291.3 18.8 291.4 19 291.6 19.2C292 19.4 292.2 19.6 292.3 19.7C292.7 20 292.8 20.3 292.8 20.6Z" fill="white"/>
<path d="M296.5 21C296.2 21.3 295.8 21.4 295.4 21.4C294.9 21.4 294.6 21.2 294.2 20.9C293.9 20.6 293.7 20.2 293.7 19.7C293.7 19.2 293.9 18.8 294.2 18.5C294.5 18.2 294.9 18 295.4 18C295.8 18 296.1 18.1 296.4 18.3L296.3 18.5C296.1 18.3 295.8 18.1 295.4 18.1C295.1 18.1 294.8 18.3 294.6 18.6C294.4 18.9 294.3 19.2 294.3 19.6C294.3 20 294.4 20.4 294.6 20.6C294.8 20.9 295.1 21.1 295.4 21.1C295.8 21.1 296.1 20.9 296.4 20.6L296.5 21Z" fill="white"/>
<path d="M299.5 19.3V21.4H299V21.1C298.8 21.3 298.5 21.4 298.2 21.4C297.9 21.4 297.6 21.3 297.4 21.1C297.2 20.9 297 20.7 297 20.3C297 20 297.1 19.7 297.4 19.5C297.6 19.3 297.9 19.2 298.1 19.2C298.2 19.2 298.3 19.2 298.3 19.2C298.5 19.2 298.6 19.3 298.7 19.3L298.6 19.5C298.4 19.4 298.3 19.3 298.1 19.3C297.9 19.3 297.7 19.4 297.6 19.5C297.5 19.7 297.4 19.9 297.4 20.2C297.4 20.5 297.5 20.7 297.6 20.8C297.7 21 297.9 21 298.1 21C298.4 21 298.7 20.8 298.9 20.5V19C298.9 18.3 298.7 18 298.2 18C297.9 18 297.7 18.1 297.4 18.3L297.3 18.1C297.5 17.9 297.8 17.9 298.2 17.9C299.1 18.1 299.5 18.5 299.5 19.3Z" fill="white"/>
<path d="M303.4 19.8C303.4 20.3 303.3 20.6 303 21C302.7 21.3 302.4 21.5 302 21.5C301.8 21.5 301.6 21.5 301.4 21.4L301.5 21.2C301.6 21.3 301.8 21.4 302 21.4C302.2 21.4 302.5 21.3 302.6 21C302.8 20.7 302.9 20.4 302.9 19.9C302.9 19.5 302.8 19.1 302.6 18.8C302.4 18.5 302.2 18.4 301.9 18.4C301.7 18.4 301.6 18.5 301.4 18.6C301.3 18.7 301.2 18.9 301.1 19.1V22.7H300.6V18.3H301.1V18.6C301.3 18.4 301.6 18.2 301.9 18.2C302.3 18.2 302.7 18.4 302.9 18.7C303.2 19 303.4 19.4 303.4 19.8Z" fill="white"/>
<path d="M307.2 19.4H305.2V19.2H306.7C306.7 18.6 306.4 18.3 305.9 18.3C305.6 18.3 305.3 18.4 305.1 18.7C304.9 19 304.8 19.3 304.8 19.8C304.8 20.3 304.9 20.6 305.1 20.9C305.3 21.2 305.6 21.3 305.9 21.3C306.3 21.3 306.6 21.1 306.9 20.8L307.1 21C306.8 21.3 306.4 21.5 306 21.5C305.5 21.5 305.2 21.3 304.8 21C304.5 20.7 304.3 20.3 304.3 19.8C304.3 19.3 304.5 18.9 304.8 18.6C305.1 18.3 305.5 18.1 305.9 18.1C306.2 18.1 306.5 18.2 306.8 18.5C307 18.7 307.2 19 307.2 19.4Z" fill="white"/>
<path d="M259 28.3V30.4H258.5V30.1C258.3 30.3 258 30.4 257.7 30.4C257.4 30.4 257.1 30.3 256.9 30.1C256.7 29.9 256.5 29.7 256.5 29.3C256.5 29 256.6 28.7 256.9 28.5C257.1 28.3 257.4 28.2 257.6 28.2C257.7 28.2 257.8 28.2 257.8 28.2C258 28.2 258.1 28.3 258.2 28.3L258.1 28.5C257.9 28.4 257.8 28.3 257.6 28.3C257.4 28.3 257.2 28.4 257.1 28.5C257 28.7 256.9 28.9 256.9 29.2C256.9 29.5 257 29.7 257.1 29.8C257.2 30 257.4 30 257.6 30C257.9 30 258.2 29.8 258.4 29.5V28C258.4 27.3 258.2 27 257.7 27C257.4 27 257.2 27.1 256.9 27.3L256.8 27.1C257 26.9 257.3 26.9 257.7 26.9C258.6 27.1 259 27.5 259 28.3Z" fill="white"/>
<path d="M262.8 30.4H262.3V28.2C262.3 27.5 262.1 27.2 261.6 27.2C261.1 27.2 260.8 27.5 260.6 28.1V30.4H260.1V27.2H260.6V27.6C260.9 27.2 261.2 27.1 261.6 27.1C262 27.1 262.3 27.2 262.4 27.3C262.6 27.5 262.7 27.8 262.7 28.2V30.4H262.8Z" fill="white"/>
<path d="M266.6 30.4H266.1V30.1C265.9 30.3 265.6 30.5 265.3 30.5C264.9 30.5 264.5 30.3 264.2 30C263.9 29.7 263.8 29.3 263.8 28.8C263.8 28.3 263.9 27.9 264.2 27.6C264.5 27.3 264.8 27.1 265.3 27.1C265.5 27.1 265.7 27.1 265.9 27.2L265.8 27.4C265.6 27.3 265.5 27.2 265.3 27.2C265.1 27.2 264.8 27.3 264.7 27.6C264.5 27.9 264.4 28.3 264.4 28.7C264.4 29.1 264.5 29.5 264.7 29.8C264.9 30.1 265.1 30.2 265.4 30.2C265.6 30.2 265.7 30.1 265.9 30C266 29.9 266.1 29.7 266.2 29.5V25.3H266.7V30.4H266.6Z" fill="white"/>
<path d="M271.5 28.3V30.4H271V30.1C270.8 30.3 270.5 30.4 270.2 30.4C269.9 30.4 269.6 30.3 269.4 30.1C269.2 29.9 269 29.7 269 29.3C269 29 269.1 28.7 269.4 28.5C269.6 28.3 269.9 28.2 270.1 28.2C270.2 28.2 270.3 28.2 270.3 28.2C270.5 28.2 270.6 28.3 270.7 28.3L270.6 28.5C270.4 28.4 270.3 28.3 270.1 28.3C269.9 28.3 269.7 28.4 269.6 28.5C269.5 28.7 269.4 28.9 269.4 29.2C269.4 29.5 269.5 29.7 269.6 29.8C269.7 30 269.9 30 270.1 30C270.4 30 270.7 29.8 270.9 29.5V28C270.9 27.3 270.7 27 270.2 27C269.9 27 269.7 27.1 269.4 27.3L269.3 27.1C269.5 26.9 269.8 26.9 270.2 26.9C271.1 27.1 271.5 27.5 271.5 28.3Z" fill="white"/>
<path d="M274.1 27.3L274 27.5C273.9 27.4 273.7 27.4 273.6 27.4C273.5 27.4 273.5 27.4 273.4 27.5C273.2 27.6 273.1 27.9 273.1 28.4V30.5H272.6V27.3H273.1V27.7C273.2 27.6 273.2 27.5 273.3 27.4C273.4 27.3 273.5 27.3 273.7 27.3C273.9 27.3 274 27.2 274.1 27.3Z" fill="white"/>
<path d="M276.4 27.3H275.8V29.3C275.8 29.6 275.8 29.9 275.9 30C276 30.1 276.1 30.2 276.4 30.2V30.4C275.7 30.4 275.3 30 275.3 29.3V27.3H275V27.1H275.3V26.7H275.8V27.1H276.4V27.3V27.3Z" fill="white"/>
<path d="M277.9 25.7C277.9 25.8 277.9 25.9 277.8 25.9C277.7 25.9 277.7 26 277.6 26C277.5 26 277.4 26 277.4 25.9C277.4 25.8 277.3 25.8 277.3 25.7C277.3 25.6 277.3 25.5 277.4 25.5C277.5 25.4 277.5 25.4 277.6 25.4C277.7 25.4 277.8 25.4 277.8 25.5C277.9 25.6 277.9 25.7 277.9 25.7ZM277.8 30.4H277.3V27.2H277.8V30.4Z" fill="white"/>
<path d="M280.7 29.6C280.7 29.9 280.6 30.1 280.4 30.2C280.2 30.4 280 30.4 279.7 30.4C279.3 30.4 279 30.3 278.8 30L278.9 29.8C279.1 30.1 279.4 30.2 279.7 30.2C279.9 30.2 280 30.1 280.1 30C280.2 29.9 280.3 29.7 280.3 29.6C280.3 29.4 280.2 29.2 280 29.1C279.9 29 279.7 28.9 279.4 28.7C279 28.5 278.9 28.2 278.9 27.8C278.9 27.6 279 27.4 279.2 27.2C279.4 27.1 279.6 27 279.8 27C279.9 27 280.1 27 280.3 27.1C280.5 27.2 280.6 27.3 280.6 27.4L280.4 27.6C280.2 27.3 280 27.2 279.7 27.2C279.4 27.2 279.2 27.3 279.2 27.6C279.2 27.8 279.3 28 279.5 28.2C279.9 28.4 280.1 28.6 280.2 28.7C280.6 29 280.7 29.3 280.7 29.6Z" fill="white"/>
<path d="M283 27.3H282.4V29.3C282.4 29.6 282.4 29.9 282.5 30C282.6 30.1 282.7 30.2 283 30.2V30.4C282.3 30.4 281.9 30 281.9 29.3V27.3H281.6V27.1H281.9V26.7H282.4V27.1H283V27.3Z" fill="white"/>
<path d="M284.5 25.7C284.5 25.8 284.5 25.9 284.4 25.9C284.3 25.9 284.3 26 284.2 26C284.1 26 284 26 284 25.9C284 25.8 283.9 25.8 283.9 25.7C283.9 25.6 283.9 25.5 284 25.5C284.1 25.4 284.1 25.4 284.2 25.4C284.3 25.4 284.4 25.4 284.4 25.5C284.4 25.6 284.5 25.7 284.5 25.7ZM284.4 30.4H283.9V27.2H284.4V30.4Z" fill="white"/>
<path d="M288.2 30C287.9 30.3 287.5 30.4 287.1 30.4C286.6 30.4 286.3 30.2 285.9 29.9C285.6 29.6 285.4 29.2 285.4 28.7C285.4 28.2 285.6 27.8 285.9 27.5C286.2 27.2 286.6 27 287.1 27C287.5 27 287.8 27.1 288.1 27.3L288 27.5C287.8 27.3 287.5 27.1 287.1 27.1C286.8 27.1 286.5 27.3 286.3 27.6C286.1 27.9 286 28.2 286 28.6C286 29 286.1 29.4 286.3 29.6C286.5 29.9 286.8 30.1 287.1 30.1C287.5 30.1 287.8 29.9 288.1 29.6L288.2 30Z" fill="white"/>
<path d="M293 28.4H291V28.2H292.5C292.5 27.6 292.2 27.3 291.7 27.3C291.4 27.3 291.1 27.4 290.9 27.7C290.7 28 290.6 28.3 290.6 28.8C290.6 29.3 290.7 29.6 290.9 29.9C291.1 30.2 291.4 30.3 291.7 30.3C292.1 30.3 292.4 30.1 292.7 29.8L292.9 30C292.6 30.3 292.2 30.5 291.8 30.5C291.3 30.5 291 30.3 290.6 30C290.3 29.7 290.1 29.3 290.1 28.8C290.1 28.3 290.3 27.9 290.6 27.6C290.9 27.3 291.3 27.1 291.7 27.1C292 27.1 292.3 27.2 292.6 27.5C292.9 27.7 293 28 293 28.4Z" fill="white"/>
<path d="M296.7 30.4H296.1L295.1 28.9L293.9 30.4H293.7L295 28.8L293.9 27.2H294.5L295.4 28.4L296.4 27.2H296.6L295.5 28.6L296.7 30.4Z" fill="white"/>
<path d="M300.2 28.8C300.2 29.3 300.1 29.6 299.8 30C299.5 30.3 299.2 30.5 298.8 30.5C298.6 30.5 298.4 30.5 298.2 30.4L298.3 30.2C298.4 30.3 298.6 30.4 298.8 30.4C299 30.4 299.3 30.3 299.4 30C299.6 29.7 299.7 29.4 299.7 28.9C299.7 28.5 299.6 28.1 299.4 27.8C299.2 27.5 299 27.4 298.7 27.4C298.5 27.4 298.4 27.5 298.2 27.6C298.1 27.7 298 27.9 297.9 28.1V31.7H297.4V27.3H297.9V27.6C298.1 27.4 298.4 27.2 298.7 27.2C299.1 27.2 299.5 27.4 299.7 27.7C300.1 28 300.2 28.4 300.2 28.8Z" fill="white"/>
<path d="M302.7 27.3L302.6 27.5C302.5 27.4 302.3 27.4 302.2 27.4C302.1 27.4 302.1 27.4 302 27.5C301.8 27.6 301.7 27.9 301.7 28.4V30.5H301.2V27.3H301.7V27.7C301.8 27.6 301.8 27.5 301.9 27.4C302 27.3 302.1 27.3 302.3 27.3C302.5 27.1 302.6 27.2 302.7 27.3Z" fill="white"/>
<path d="M306.2 28.4H304.2V28.2H305.7C305.7 27.6 305.4 27.3 304.9 27.3C304.6 27.3 304.3 27.4 304.1 27.7C303.9 28 303.8 28.3 303.8 28.8C303.8 29.3 303.9 29.6 304.1 29.9C304.3 30.2 304.6 30.3 304.9 30.3C305.3 30.3 305.6 30.1 305.9 29.8L306.1 30C305.8 30.3 305.4 30.5 305 30.5C304.5 30.5 304.2 30.3 303.8 30C303.5 29.7 303.3 29.3 303.3 28.8C303.3 28.3 303.5 27.9 303.8 27.6C304.1 27.3 304.5 27.1 304.9 27.1C305.2 27.1 305.5 27.2 305.8 27.5C306.1 27.7 306.2 28 306.2 28.4Z" fill="white"/>
<path d="M308.9 29.6C308.9 29.9 308.8 30.1 308.6 30.2C308.4 30.4 308.2 30.4 307.9 30.4C307.5 30.4 307.2 30.3 307 30L307.1 29.8C307.3 30.1 307.6 30.2 307.9 30.2C308.1 30.2 308.2 30.1 308.3 30C308.4 29.9 308.5 29.7 308.5 29.6C308.5 29.4 308.4 29.2 308.2 29.1C308.1 29 307.9 28.9 307.6 28.7C307.2 28.5 307.1 28.2 307.1 27.8C307.1 27.6 307.2 27.4 307.4 27.2C307.6 27.1 307.8 27 308 27C308.1 27 308.3 27 308.5 27.1C308.7 27.2 308.8 27.3 308.8 27.4L308.6 27.6C308.4 27.3 308.2 27.2 307.9 27.2C307.6 27.2 307.4 27.3 307.4 27.6C307.4 27.8 307.5 28 307.7 28.2C308.1 28.4 308.3 28.6 308.4 28.7C308.8 29 308.9 29.3 308.9 29.6Z" fill="white"/>
<path d="M311.7 29.6C311.7 29.9 311.6 30.1 311.4 30.2C311.2 30.4 311 30.4 310.7 30.4C310.3 30.4 310 30.3 309.8 30L310 29.8C310.2 30.1 310.5 30.2 310.8 30.2C311 30.2 311.1 30.1 311.2 30C311.3 29.9 311.4 29.7 311.4 29.6C311.4 29.4 311.3 29.2 311.1 29.1C311 29 310.8 28.9 310.5 28.7C310.1 28.5 310 28.2 310 27.8C310 27.6 310.1 27.4 310.3 27.2C310.5 27.1 310.7 27 310.9 27C311 27 311.2 27 311.4 27.1C311.6 27.2 311.7 27.3 311.7 27.4L311.5 27.6C311.3 27.3 311.1 27.2 310.8 27.2C310.5 27.2 310.3 27.3 310.3 27.6C310.3 27.8 310.4 28 310.6 28.2C311 28.4 311.2 28.6 311.3 28.7C311.6 29 311.7 29.3 311.7 29.6Z" fill="white"/>
<path d="M313.3 25.7C313.3 25.8 313.3 25.9 313.2 25.9C313.1 25.9 313.1 26 313 26C312.9 26 312.8 26 312.8 25.9C312.8 25.8 312.7 25.8 312.7 25.7C312.7 25.6 312.7 25.5 312.8 25.5C312.9 25.4 312.9 25.4 313 25.4C313.1 25.4 313.2 25.4 313.2 25.5C313.2 25.6 313.3 25.7 313.3 25.7ZM313.2 30.4H312.7V27.2H313.2V30.4Z" fill="white"/>
<path d="M317.5 28.8C317.5 29.3 317.3 29.7 317 30C316.7 30.3 316.3 30.5 315.8 30.5C315.3 30.5 315 30.3 314.6 30C314.3 29.7 314.1 29.3 314.1 28.8C314.1 28.3 314.3 27.9 314.6 27.6C314.9 27.3 315.3 27.1 315.8 27.1C316.3 27.1 316.6 27.3 317 27.6C317.4 27.9 317.5 28.3 317.5 28.8ZM317 28.8C317 28.4 316.9 28 316.7 27.7C316.5 27.4 316.2 27.3 315.9 27.3C315.6 27.3 315.3 27.4 315.1 27.7C314.9 28 314.8 28.3 314.8 28.8C314.8 29.2 314.9 29.6 315.1 29.9C315.3 30.2 315.6 30.3 315.9 30.3C316.2 30.3 316.5 30.2 316.7 29.9C316.9 29.6 317 29.2 317 28.8Z" fill="white"/>
<path d="M321.2 30.4H320.7V28.2C320.7 27.5 320.5 27.2 320 27.2C319.5 27.2 319.2 27.5 319 28.1V30.4H318.5V27.2H319V27.6C319.3 27.2 319.6 27.1 320 27.1C320.4 27.1 320.7 27.2 320.8 27.3C321 27.5 321.1 27.8 321.1 28.2V30.4H321.2Z" fill="white"/>
<path d="M322.9 30.2C322.9 30.3 322.9 30.4 322.8 30.4C322.7 30.4 322.7 30.5 322.6 30.5C322.5 30.5 322.4 30.5 322.4 30.4C322.4 30.3 322.3 30.3 322.3 30.2C322.3 30.1 322.3 30 322.4 30C322.5 30 322.5 29.9 322.6 29.9C322.7 29.9 322.8 29.9 322.8 30C322.8 30.1 322.9 30.1 322.9 30.2Z" fill="white"/>
</g>
</svg>
