<svg width="5" height="582" viewBox="0 0 5 582" fill="none" xmlns="http://www.w3.org/2000/svg">
<path d="M0.5 0.600006V503.2" stroke="#C9A063" stroke-width="0.35" stroke-miterlimit="10"/>
<path d="M4.6 510.9V509.6H0V509.1H4.6V507.8H4.7V511H4.6V510.9Z" fill="#C9A063"/>
<path d="M0 514.8V514.3H2.5V511.9H0V511.4H4.7V511.9H2.6V514.3H4.7V514.8H0Z" fill="#C9A063"/>
<path d="M0 518.6V516.2H4.7V518.5H4.6V516.7H2.7V518.3H2.6V516.7H0.199997V518.6H0Z" fill="#C9A063"/>
<path d="M4.8 525.3L0 523.3L4.8 521.3V521.9L0.900002 523.5L4.8 525.1V525.3Z" fill="#C9A063"/>
<path d="M2.4 531C1.7 531 1.1 530.8 0.699997 530.3C0.199997 529.8 0 529.2 0 528.5C0 527.8 0.199997 527.1 0.699997 526.7C1.2 526.2 1.7 526 2.4 526C3.1 526 3.7 526.2 4.1 526.7C4.6 527.2 4.8 527.8 4.8 528.5C4.8 529.2 4.6 529.9 4.1 530.3C3.6 530.7 3.1 531 2.4 531ZM2.4 530.4C3.1 530.4 3.6 530.2 4 529.9C4.5 529.5 4.7 529 4.7 528.4C4.7 527.8 4.5 527.3 4 526.9C3.6 526.5 3 526.4 2.4 526.4C1.7 526.4 1.2 526.6 0.800003 526.9C0.300003 527.3 0.0999985 527.8 0.0999985 528.4C0.0999985 529 0.300003 529.5 0.800003 529.9C1.2 530.3 1.7 530.4 2.4 530.4Z" fill="#C9A063"/>
<path d="M0 532.6V532.1H4.7V532.6H0Z" fill="#C9A063"/>
<path d="M0.699997 537.9C0.199997 537.5 0 537 0 536.3C0 535.7 0.199997 535.1 0.699997 534.7C1.2 534.2 1.7 534 2.4 534C3.1 534 3.6 534.2 4.1 534.6C4.6 535 4.8 535.5 4.8 536.2C4.8 536.8 4.6 537.3 4.3 537.7L4.1 537.5C4.5 537.1 4.6 536.7 4.6 536.2C4.6 535.7 4.4 535.3 3.9 535C3.5 534.7 2.9 534.6 2.3 534.6C1.7 534.6 1.1 534.8 0.699997 535.1C0.299997 535.4 0 535.9 0 536.4C0 537 0.199997 537.4 0.699997 537.7V537.9Z" fill="#C9A063"/>
<path d="M0 541.3V538.9H4.7V541.2H4.6V539.4H2.7V541H2.6V539.4H0.199997V541.3H0Z" fill="#C9A063"/>
<path d="M4.6 547V545.7H0V545.2H4.6V543.9H4.7V547.1H4.6V547Z" fill="#C9A063"/>
<path d="M0 550.9V550.4H2.5V548H0V547.5H4.7V548H2.6V550.4H4.7V550.9H0Z" fill="#C9A063"/>
<path d="M0 554.8V552.4H4.7V554.7H4.6V552.9H2.7V554.5H2.6V552.9H0.199997V554.8H0Z" fill="#C9A063"/>
<path d="M4.8 563.1L0 561.6L3.9 560.2L0 558.9L4.8 557.4V557.9L1.1 559.1L4.9 560.4L1.1 561.8L4.9 563L4.8 563.1Z" fill="#C9A063"/>
<path d="M2.4 568.7C1.7 568.7 1.1 568.5 0.699997 568C0.199997 567.5 0 566.9 0 566.2C0 565.5 0.199997 564.8 0.699997 564.4C1.2 563.9 1.7 563.7 2.4 563.7C3.1 563.7 3.7 563.9 4.1 564.4C4.6 564.9 4.8 565.5 4.8 566.2C4.8 566.9 4.6 567.6 4.1 568C3.6 568.4 3.1 568.7 2.4 568.7ZM2.4 568.1C3.1 568.1 3.6 567.9 4 567.6C4.5 567.2 4.7 566.7 4.7 566.1C4.7 565.5 4.5 565 4 564.6C3.6 564.2 3 564.1 2.4 564.1C1.7 564.1 1.2 564.3 0.800003 564.6C0.300003 565 0.0999985 565.5 0.0999985 566.1C0.0999985 566.7 0.300003 567.2 0.800003 567.6C1.2 567.9 1.7 568.1 2.4 568.1Z" fill="#C9A063"/>
<path d="M0 572.9V572.4L2.6 570.8C2.6 570.9 2.6 571 2.6 571C2.6 571.7 2.9 572.1 3.6 572.1C4.3 572.1 4.6 571.6 4.6 570.7V570.4H0V569.9H4.7C4.7 570 4.7 570.3 4.7 570.8C4.7 572 4.3 572.6 3.5 572.6C3.2 572.6 2.9 572.5 2.7 572.3C2.5 572.1 2.4 571.8 2.3 571.4L0 572.9Z" fill="#C9A063"/>
<path d="M0 576.2V573.8H4.7V574.3H0.0999985V576.2H0Z" fill="#C9A063"/>
<path d="M2.4 581.1C1.5 581.1 0.9 580.8 0.5 580.1C0.2 579.6 0.0999985 579.1 0.0999985 578.5V577.2H4.8V578.5C4.8 579.1 4.7 579.6 4.4 580.1C3.9 580.8 3.3 581.1 2.4 581.1ZM2.4 580.6C3.2 580.6 3.8 580.3 4.2 579.7C4.5 579.3 4.6 578.8 4.6 578.2V577.7H0.0999985V578.2C0.0999985 578.9 0.2 579.4 0.5 579.8C1 580.3 1.6 580.6 2.4 580.6Z" fill="#C9A063"/>
</svg>
