<?xml version="1.0" encoding="utf-8"?>
<!-- Generator: Adobe Illustrator 25.2.3, SVG Export Plug-In . SVG Version: 6.00 Build 0)  -->
<svg version="1.1" id="圖層_1" xmlns="http://www.w3.org/2000/svg" xmlns:xlink="http://www.w3.org/1999/xlink" x="0px" y="0px"
	 viewBox="0 0 90 78" style="enable-background:new 0 0 90 78;" xml:space="preserve">
<style type="text/css">
	.st0{fill:#3E3A39;}
	.st1{fill:#C9A063;}
</style>
<path class="st0" d="M2.7,42.6v-0.3h0.4v0.3h1.1v0.7h0.3v0.4H4.2v0.7H3.1v0.3h1.1V45H3.1v0.3h1.3v0.4H3.1v0.4c0.1,0,0.1,0,0.2,0
	c0.5,0,1,0,1.2,0l-0.1,0.5c-1.4,0-2.3,0-2.6-0.1c-0.3-0.1-0.5-0.2-0.7-0.4c0,0,0,0-0.1-0.1c-0.1,0.2-0.3,0.4-0.6,0.6l-0.2-0.5
	c0.2-0.2,0.4-0.4,0.6-0.6c-0.1-0.2-0.3-0.6-0.4-1l0.4-0.1c0.1,0.3,0.2,0.5,0.3,0.7c0,0,0,0,0-0.1c0.1-0.2,0.1-0.5,0.1-0.9H0.4v-0.3
	c0.3-0.4,0.5-0.8,0.8-1.2H0.4v-0.4h1.3v0.4c-0.3,0.5-0.5,0.8-0.7,1.1h0.7c0,0.6-0.1,1-0.2,1.3c0,0.2-0.1,0.3-0.1,0.4
	c0.1,0.1,0.3,0.2,0.5,0.3c0.2,0.1,0.5,0.1,0.9,0.1v-0.4H1.7V45h1.1v-0.3H1.9v-0.3h0.9v-0.3H1.9v-0.3h0.9v-0.4H1.7V43h1.1H1.9v-0.3
	L2.7,42.6L2.7,42.6z M3.2,43.3h0.7V43H3.2V43.3z M3.2,44.1h0.7v-0.4H3.2V44.1z"/>
<path class="st0" d="M6.1,42.3c0,0.1-0.1,0.2-0.1,0.3h1.2V43c0.2-0.2,0.4-0.5,0.5-0.7l0.4,0.1c0,0.1-0.1,0.2-0.1,0.3h1.4v0.4H8.6
	c0,0.1,0.1,0.2,0.1,0.4H8.2c0-0.1-0.1-0.3-0.1-0.4H7.7c-0.1,0.2-0.2,0.3-0.3,0.4L7,43.2c0.1-0.1,0.1-0.1,0.2-0.2H6.6
	c0,0.1,0.1,0.2,0.1,0.3H6.2c0-0.1-0.1-0.3-0.1-0.4H5.8c-0.1,0.2-0.2,0.3-0.4,0.4L5,43c0.3-0.3,0.6-0.6,0.7-1L6.1,42.3z M6.9,45.2V45
	l-0.2-0.2c0.2-0.1,0.4-0.2,0.5-0.2c-0.1-0.1-0.2-0.1-0.4-0.2L7,44.1c0.1,0,0.2,0.1,0.4,0.1v-0.1v-0.2H6.9v-0.3h1.7v1
	c0,0.1,0,0.1,0.1,0.1h0.1c0,0,0-0.2,0.1-0.4l0.3,0.1c0,0.3-0.1,0.5-0.1,0.6c-0.1,0.1-0.2,0.1-0.3,0.1H8.6c-0.1,0-0.2,0-0.3-0.1
	c-0.1-0.1-0.1-0.2-0.1-0.3V44H7.7v0.2c0,0.1,0,0.2,0,0.3c0.1,0.1,0.3,0.1,0.4,0.2l-0.2,0.4c-0.1-0.1-0.3-0.2-0.4-0.3
	C7.4,44.9,7.3,45,7.2,45h0.1v0.3h1.9v0.4H7.7C7.9,45.8,8,45.9,8.2,46s0.5,0.2,1,0.4L9,46.8c-0.5-0.2-0.9-0.4-1.1-0.5
	c-0.2-0.1-0.4-0.3-0.6-0.6V47H6.9v-1.3c-0.1,0.2-0.3,0.4-0.5,0.5c-0.3,0.2-0.7,0.4-1.2,0.6L5,46.4c0.5-0.2,0.9-0.3,1.2-0.5
	c0.1-0.1,0.2-0.1,0.3-0.2H5v-0.4L6.9,45.2L6.9,45.2z M6.8,43.6V44H6.2v0.4c0.2,0,0.4-0.1,0.6-0.1v0.4c-0.5,0.1-1.1,0.2-1.7,0.4
	L5,44.7c0.3,0,0.5-0.1,0.8-0.1V44H5.2v-0.4H6.8z"/>
<path class="st0" d="M10.2,42.7c0,0.2,0,0.4,0,0.6h0.3v-1.1h0.4v1.1h0.4v0.4c0.1-0.2,0.2-0.3,0.3-0.5c0.1-0.2,0.2-0.5,0.2-0.9
	l0.4,0.1c0,0.2-0.1,0.4-0.1,0.6h1.7c0,1.8,0,2.9-0.1,3.2c0,0.3-0.1,0.4-0.2,0.5c-0.1,0.1-0.3,0.1-0.6,0.1c-0.1,0-0.2,0-0.4,0
	l-0.1-0.5c0.1,0,0.3,0,0.4,0c0.3,0,0.4-0.1,0.4-0.3c0-0.3,0.1-1.1,0.1-2.6h-0.1c-0.1,0.8-0.3,1.5-0.5,2s-0.6,1-1.1,1.4l-0.3-0.4
	c0.4-0.4,0.8-0.8,1-1.2c0.2-0.4,0.4-1,0.5-1.7h-0.2c-0.1,0.5-0.2,0.8-0.4,1.1c-0.2,0.4-0.4,0.8-0.8,1.2l-0.3-0.4
	c0.3-0.3,0.5-0.6,0.7-0.9c0.1-0.2,0.2-0.6,0.3-1H12c-0.1,0.3-0.3,0.6-0.5,0.9L11.2,44l0.1-0.1h-0.4v1c0.1,0,0.3-0.1,0.4-0.2v0.4
	c-0.1,0.1-0.3,0.1-0.4,0.2V47h-0.4v-1.5c-0.2,0.1-0.5,0.2-0.7,0.2l-0.1-0.5c0.3,0,0.6-0.1,0.8-0.2v-1.1h-0.3c0,0.3-0.1,0.5-0.1,0.7
	l-0.4-0.1c0.1-0.5,0.2-1.1,0.3-1.7L10.2,42.7z"/>
<path class="st0" d="M15.8,42.7c-0.2,0.5-0.3,0.9-0.4,1.1c-0.1,0.2-0.3,0.5-0.6,0.9l-0.4-0.3c0.3-0.3,0.5-0.5,0.6-0.8
	c0.1-0.3,0.3-0.6,0.4-1L15.8,42.7z M16.5,44c-0.3,0.8-0.6,1.5-0.9,2.1c0.7,0,1.3-0.1,1.8-0.1c-0.1-0.3-0.3-0.7-0.5-1l0.5-0.2
	c0.3,0.6,0.6,1.2,0.9,1.9l-0.5,0.1c-0.1-0.2-0.1-0.3-0.2-0.5c-0.6,0.1-1.6,0.2-3,0.2L14.5,46c0.2,0,0.4,0,0.5,0
	c0.3-0.5,0.6-1.3,1-2.3L16.5,44z M17.5,42.4c0.2,0.6,0.5,1.2,1.1,1.7l-0.3,0.5c-0.3-0.3-0.5-0.5-0.6-0.8c-0.2-0.3-0.3-0.6-0.5-1
	h-0.9v-0.4H17.5z"/>
<path class="st0" d="M20,43.3v-1h0.5v1h1.2v-1h0.5v1h0.9v0.4h-0.9v1.1h1.1v0.4H19v-0.4h1.1v-1.1h-0.8v-0.4H20z M20.7,45.7
	c-0.4,0.4-0.8,0.8-1.4,1.2L19,46.4c0.5-0.3,1-0.6,1.4-1L20.7,45.7z M21.6,44.8v-1.1h-1.2v1.1H21.6z M23.1,46.4l-0.4,0.4
	c-0.3-0.3-0.7-0.7-1.3-1.1l0.3-0.3C22.3,45.7,22.8,46.1,23.1,46.4z"/>
<path class="st0" d="M27.6,42.7v0.5h-1.7v2.9h1.9v0.5h-4.2v-0.5h1.8v-2.9h-1.7v-0.5H27.6z"/>
<path class="st0" d="M29.9,42.8c-0.2,0.1-0.4,0.1-0.6,0.2v0.7h0.6v0.4h-0.6v0.2c0.2,0.2,0.4,0.5,0.6,0.7l-0.2,0.4
	c-0.2-0.2-0.3-0.5-0.4-0.6v2.1h-0.4v-2c0,0,0,0,0,0.1c-0.2,0.4-0.3,0.7-0.6,1l-0.2-0.5c0.3-0.4,0.5-0.8,0.7-1.4h-0.7v-0.4h0.7V43
	c-0.2,0-0.3,0-0.5,0.1l-0.1-0.4c0.5-0.1,1-0.1,1.4-0.3L29.9,42.8z M32.3,44.5c-0.3,0.1-0.6,0.1-1,0.2v0.5h1v0.4h-1v0.7h1.1v0.4h-2.8
	v-0.4h1.2v-0.7H30v-0.4h0.9v-0.5c-0.3,0-0.6,0-0.9,0l-0.1-0.4c0.9,0,1.6-0.1,2.2-0.2L32.3,44.5z M32.2,42.5V44H30v-1.5H32.2z
	 M31.8,42.9h-1.3v0.7h1.3V42.9z"/>
<path class="st0" d="M35.2,43.5c-0.1,0.2-0.3,0.5-0.4,0.7h2.3v0.4h-0.7c-0.2,0.5-0.4,1-0.7,1.2c0.4,0.2,0.8,0.4,1.3,0.7l-0.3,0.4
	c-0.4-0.3-0.9-0.5-1.3-0.7c-0.5,0.3-1.2,0.5-2.2,0.7L33,46.4c0.8-0.1,1.5-0.2,1.9-0.4c-0.4-0.2-0.9-0.3-1.4-0.5
	c0.2-0.3,0.4-0.5,0.6-0.9h-1.2v-0.4h1.5c0.2-0.2,0.3-0.5,0.5-0.8L35.2,43.5z M35.2,42.7H37v1.1h-0.4v-0.7h-3.2v0.7H33v-1.1h1.8
	c-0.1-0.1-0.1-0.2-0.2-0.4l0.5-0.1C35.1,42.4,35.2,42.6,35.2,42.7z M34.6,44.6c-0.1,0.2-0.3,0.5-0.4,0.6c0.4,0.1,0.7,0.2,1.1,0.4
	c0.2-0.2,0.5-0.6,0.6-1H34.6z"/>
<path class="st0" d="M38.2,42.7v-0.4h1.7c0.3,0.5,0.9,1,1.9,1.5l-0.3,0.4c-0.1-0.1-0.3-0.1-0.4-0.2v0.3h-1.3v0.8H41v0.4h-1.2v0.9
	h1.8v0.4h-4v-0.4h1.8v-0.9h-1.2v-0.4h1.2v-0.8h-1.3V44c-0.1,0.1-0.2,0.1-0.4,0.2l-0.3-0.5c0.5-0.2,0.9-0.4,1.1-0.6
	c0.2-0.1,0.4-0.3,0.5-0.5L38.2,42.7L38.2,42.7z M40.9,43.9c-0.2-0.1-0.4-0.2-0.5-0.4c-0.3-0.2-0.6-0.5-0.8-0.8
	c-0.1,0.2-0.3,0.4-0.5,0.6s-0.5,0.4-0.8,0.6H40.9z"/>
<path class="st0" d="M42.7,43.2v-1h0.4v1h0.5v0.1c0.3-0.1,0.5-0.3,0.7-0.5c0.1-0.1,0.3-0.3,0.4-0.6h0.4c0.2,0.3,0.4,0.5,0.6,0.6
	c0.1,0.1,0.4,0.3,0.8,0.4l-0.2,0.4c-0.2-0.1-0.4-0.2-0.5-0.3v0.3h-1.5v-0.2c-0.1,0.1-0.3,0.2-0.5,0.3l-0.1-0.3v0.1h-0.5v0.3
	c0.2,0.2,0.3,0.4,0.5,0.7l-0.2,0.4c-0.1-0.2-0.2-0.4-0.3-0.5v2.4h-0.4v-2.2c-0.1,0.4-0.3,0.7-0.4,1l-0.2-0.5
	c0.2-0.4,0.4-0.9,0.6-1.4h-0.5v-0.4h0.4V43.2z M44.8,44v1.4h-0.7l0.3,0.1c0,0.1-0.1,0.2-0.1,0.3c0.2,0.2,0.4,0.4,0.6,0.5l-0.3,0.3
	c-0.1-0.2-0.3-0.3-0.4-0.5c0,0,0,0,0,0.1c-0.1,0.2-0.2,0.4-0.4,0.6l-0.3-0.3c0.2-0.2,0.3-0.4,0.4-0.6c0.1-0.2,0.2-0.4,0.2-0.6h-0.4
	V44H44.8z M44.4,44.4H44V45h0.4V44.4z M45.5,43.3c-0.2-0.2-0.4-0.4-0.6-0.6c-0.2,0.2-0.3,0.4-0.5,0.6c0,0,0,0-0.1,0.1L45.5,43.3
	L45.5,43.3z M46.2,44v1.3h-0.7l0.3,0.1c-0.1,0.2-0.1,0.3-0.2,0.4c0.3,0.2,0.5,0.4,0.7,0.6L46,46.7c-0.2-0.2-0.4-0.4-0.6-0.6
	c-0.1,0.2-0.2,0.4-0.4,0.6l-0.3-0.3c0.2-0.2,0.3-0.4,0.4-0.6c0.1-0.2,0.2-0.4,0.2-0.6H45V44H46.2z M45.8,44.4h-0.4V45h0.4V44.4z"/>
<path class="st0" d="M48.7,42.6v-0.4h0.4v0.4h1.7V43h-1.3c0.1,0.1,0.3,0.3,0.5,0.4s0.6,0.3,1,0.5l-0.3,0.4c-0.1-0.1-0.3-0.1-0.4-0.2
	v1.8h-3v-1.7c-0.1,0.1-0.2,0.1-0.4,0.2L46.7,44c0.4-0.2,0.8-0.4,1-0.5c0.2-0.1,0.3-0.2,0.4-0.4H47v-0.4L48.7,42.6L48.7,42.6z
	 M51,46.3v0.4h-4.1v-0.4H51z M50.3,44.1c-0.3-0.1-0.5-0.3-0.7-0.4c-0.2-0.2-0.4-0.3-0.5-0.5V44h-0.4v-0.8c-0.1,0.2-0.3,0.4-0.4,0.5
	c-0.2,0.2-0.4,0.3-0.7,0.5L50.3,44.1L50.3,44.1z M50,44.8v-0.3h-2.1v0.3H50z M50,45.1h-2.1v0.4H50V45.1z"/>
<path class="st0" d="M53.4,42.6v-0.3h0.4v0.3h1.9v0.3h-1.9v0.2h1.5v1.5h-0.2c0.2,0.2,0.3,0.4,0.5,0.6l-0.3,0.2
	c0-0.1-0.1-0.2-0.2-0.3c-0.1,0-0.2,0-0.4,0v0.3h1v0.4h-1v0.4c0,0.2,0,0.3-0.1,0.3c-0.1,0.1-0.2,0.1-0.4,0.1h-0.5l-0.1-0.4
	c0.2,0,0.3,0,0.4,0c0.1,0,0.2,0,0.2-0.1V46h-2.8v-0.4h2.8v-0.3c-0.8,0-1.6,0.1-2.6,0.1L51.5,45c0.6,0,1.2,0,1.7-0.1v-0.3h-1.5v-1.5
	h1.5v-0.2h-1.9v-0.3H53.4z M53.4,43.8v-0.3h-1.1v0.3H53.4z M53.4,44.1h-1.1v0.3h1.1V44.1z M53.4,46.4l-0.3,0.3
	c-0.2-0.1-0.5-0.3-0.8-0.5l0.3-0.3C52.9,46.1,53.2,46.3,53.4,46.4z M53.8,43.8h1.1v-0.3h-1.1V43.8z M54.9,44.1h-1.1v0.3h1.1V44.1z
	 M53.8,45c0.4,0,0.7,0,1.1-0.1c0-0.1-0.1-0.1-0.1-0.1l0.1-0.1h-1.1V45z"/>
<path class="st0" d="M58,42.3v0.8h0.4v-0.8h0.4v0.8h0.3c0.1-0.2,0.2-0.4,0.3-0.7l0.4,0.2c-0.1,0.2-0.2,0.4-0.3,0.5h0.7v0.4H59
	l0.3,0.1c-0.1,0.1-0.1,0.2-0.2,0.3h1v0.4h-1.7v0.3H60V45h-1.6v0.3h1.9v0.4h-1.5c0.2,0.2,0.4,0.3,0.6,0.4c0.2,0.1,0.5,0.2,0.9,0.3
	l-0.2,0.4c-0.5-0.1-0.8-0.3-1-0.5c-0.2-0.1-0.4-0.3-0.6-0.6v1.1H58v-1.2c-0.1,0.2-0.3,0.3-0.4,0.4c-0.3,0.2-0.7,0.4-1.2,0.6
	l-0.2-0.4c0.5-0.2,0.9-0.3,1.1-0.5c0.1-0.1,0.2-0.2,0.3-0.3h-1.5V45H58v-0.3h-1.6v-0.4H58V44h-1.7v-0.4h1c-0.1-0.1-0.1-0.2-0.2-0.3
	l0.3-0.1h-1.3V43h0.7c-0.1-0.2-0.1-0.3-0.2-0.5l0.4-0.2c0.1,0.2,0.2,0.4,0.2,0.7h0.3v-0.8H58V42.3z M58.7,43.9
	c0.1-0.1,0.2-0.3,0.2-0.4h-1.3c0.1,0.1,0.1,0.3,0.2,0.4H58.7z"/>
<path class="st0" d="M61.3,43.2v-1h0.4v1h0.5v0.1c0.3-0.1,0.5-0.3,0.7-0.5c0.1-0.1,0.3-0.3,0.4-0.6h0.4c0.2,0.3,0.4,0.5,0.6,0.6
	c0.1,0.1,0.4,0.3,0.8,0.4l-0.2,0.4c-0.2-0.1-0.4-0.2-0.5-0.3v0.3h-1.5v-0.2c-0.1,0.1-0.3,0.2-0.5,0.3l-0.1-0.3v0.1h-0.5v0.3
	c0.2,0.2,0.3,0.4,0.5,0.7L62,45c-0.1-0.2-0.2-0.4-0.3-0.5v2.4h-0.4v-2.2c-0.1,0.4-0.3,0.7-0.4,1l-0.2-0.5c0.2-0.4,0.4-0.9,0.6-1.4
	h-0.5v-0.4h0.5V43.2z M63.4,44v1.4h-0.7l0.3,0.1c0,0.1-0.1,0.2-0.1,0.3c0.2,0.2,0.4,0.4,0.6,0.5l-0.3,0.3c-0.1-0.2-0.3-0.3-0.4-0.5
	c0,0,0,0,0,0.1c-0.1,0.2-0.2,0.4-0.4,0.6l-0.3-0.3c0.2-0.2,0.3-0.4,0.4-0.6s0.2-0.4,0.2-0.6h-0.4V44H63.4z M63,44.4h-0.4V45H63V44.4
	z M64.1,43.3c-0.2-0.2-0.4-0.4-0.6-0.6c-0.2,0.2-0.3,0.4-0.5,0.6c0,0,0,0-0.1,0.1L64.1,43.3L64.1,43.3z M64.8,44v1.3h-0.7l0.3,0.1
	c-0.1,0.2-0.1,0.3-0.2,0.4c0.3,0.2,0.5,0.4,0.7,0.6l-0.3,0.3c-0.2-0.2-0.4-0.4-0.6-0.6c-0.1,0.2-0.2,0.4-0.4,0.6l-0.3-0.3
	c0.2-0.2,0.3-0.4,0.4-0.6c0.1-0.2,0.2-0.4,0.2-0.6h-0.4V44H64.8z M64.4,44.4H64V45h0.4V44.4z"/>
<path class="st0" d="M67.2,42.6v-0.4h0.4v0.4h1.7V43H68c0.1,0.1,0.3,0.3,0.5,0.4s0.6,0.3,1,0.5l-0.3,0.4c-0.1-0.1-0.3-0.1-0.4-0.2
	v1.8h-3v-1.7c-0.1,0.1-0.2,0.1-0.4,0.2L65.2,44c0.4-0.2,0.8-0.4,1-0.5c0.2-0.1,0.3-0.2,0.4-0.4h-1.3v-0.4L67.2,42.6L67.2,42.6z
	 M69.5,46.3v0.4h-4.1v-0.4H69.5z M68.8,44.1c-0.3-0.1-0.5-0.3-0.7-0.4c-0.2-0.2-0.4-0.3-0.5-0.5V44h-0.4v-0.8
	c-0.1,0.2-0.3,0.4-0.4,0.5c-0.2,0.2-0.4,0.3-0.7,0.5L68.8,44.1L68.8,44.1z M68.5,44.8v-0.3h-2.1v0.3H68.5z M68.5,45.1h-2.1v0.4h2.1
	V45.1z"/>
<path class="st0" d="M72,42.2v1.2c0.2,0.7,0.4,1.3,0.7,1.8c0.2,0.4,0.7,0.8,1.2,1.2l-0.3,0.4c-0.5-0.3-0.8-0.6-1.1-1
	c-0.3-0.4-0.6-0.8-0.7-1.4c-0.2,0.6-0.4,1-0.6,1.3c-0.3,0.3-0.7,0.7-1.3,1l-0.3-0.4c0.7-0.4,1.2-0.9,1.5-1.5c0.3-0.5,0.4-1,0.4-1.5
	v-1.2L72,42.2L72,42.2z"/>
<path class="st0" d="M2.3,50.1c-0.3,0.6-0.6,1.1-0.9,1.5c0.1,0,0.2,0,0.2,0c0.7,0,1.4-0.1,2.1-0.2c-0.2-0.2-0.4-0.5-0.6-0.8l0.3-0.3
	c0.4,0.5,0.8,1,1.1,1.6l-0.3,0.4C4.1,52.2,4,52,4,51.9c-0.9,0.1-2,0.2-3.4,0.2l-0.1-0.5c0.2,0,0.3,0,0.4,0c0.3-0.4,0.6-0.9,0.9-1.6
	L2.3,50.1z M4.2,54.5H3.7v-0.3H1.2v0.3H0.7v-2.1h3.4L4.2,54.5L4.2,54.5z M3.7,53.8v-1H1.2v1H3.7z"/>
<path class="st0" d="M5.8,51.6L5.5,52c-0.2-0.2-0.4-0.4-0.6-0.5l0.2-0.4C5.4,51.3,5.6,51.5,5.8,51.6z M5.8,52.5
	c-0.1,0.8-0.3,1.4-0.5,2L5,54.2c0.2-0.5,0.3-1.1,0.5-1.8L5.8,52.5z M5.9,50.4l-0.3,0.4c-0.2-0.2-0.4-0.4-0.6-0.5L5.2,50
	C5.5,50.1,5.7,50.3,5.9,50.4z M6.2,51.8C6.1,52,6.1,52.2,6,52.4l-0.2-0.1C5.9,52.2,5.9,52,6,51.8H6.2z M6.6,50
	c-0.1,0.3-0.2,0.5-0.3,0.6c0.1,0,0.1,0,0.2,0c0.1-0.1,0.1-0.2,0.2-0.4l0.2,0.1v-0.1h0.5c0-0.1-0.1-0.2-0.2-0.3h0.3
	c0.1,0.1,0.1,0.2,0.1,0.3H8v0.3H6.8v-0.1c-0.2,0.4-0.3,0.7-0.5,0.9c0.1,0,0.2,0,0.2,0c0-0.1,0-0.1,0-0.2L6.7,51
	c0,0.2,0.1,0.4,0.1,0.6l-0.2,0.1v-0.1c-0.2,0.1-0.5,0.1-0.8,0.1v-0.3c0.1,0,0.1,0,0.2,0c0.1-0.1,0.2-0.3,0.3-0.4c-0.1,0-0.3,0-0.5,0
	v-0.3H6c0.1-0.2,0.2-0.4,0.3-0.8L6.6,50z M9,52.5v0.8H6.5l-0.1,0.2h2.7c0,0.4-0.1,0.7-0.2,0.8c-0.1,0.1-0.3,0.2-0.6,0.2H7.5
	l-0.1-0.4c0.4,0,0.7,0,0.9,0c0.1,0,0.2,0,0.3,0c0,0,0.1-0.1,0.1-0.2H6l0.2-0.8h2.4v-0.2H6v-0.3L9,52.5L9,52.5z M6.6,52.3H6.3
	c0-0.2,0-0.4-0.1-0.5h0.2C6.5,51.9,6.5,52.1,6.6,52.3z M6.9,52.2l-0.2,0.1c0-0.2-0.1-0.4-0.1-0.5l0.2-0.1C6.9,51.8,6.9,52,6.9,52.2z
	 M8,50.7v0.2H7v-0.2H8z M8,51.1v0.2H7v-0.2H8z M8,51.5v0.8H7v-0.8H8z M7.7,51.8H7.3V52h0.4V51.8z M8.4,51.8c0,0.2-0.1,0.4-0.1,0.6
	L8,52.3c0-0.1,0.1-0.3,0.1-0.5H8.4z M8.8,50c-0.1,0.3-0.2,0.5-0.3,0.6c0.1,0,0.1,0,0.2,0c0.1-0.1,0.1-0.2,0.2-0.3l0.3,0.1
	C9,50.7,8.8,51,8.6,51.3c0.1,0,0.2,0,0.3,0c0-0.1,0-0.2-0.1-0.2L9,51c0.1,0.2,0.1,0.4,0.2,0.6l-0.3,0.1v-0.1c-0.2,0-0.5,0.1-0.9,0.1
	v-0.3c0.1,0,0.1,0,0.2,0c0.1-0.1,0.2-0.3,0.3-0.4c-0.1,0-0.3,0-0.5,0v-0.3h0.1c0.1-0.2,0.2-0.4,0.3-0.8L8.8,50z M8.8,52.3H8.5
	c0-0.2,0-0.4,0-0.5h0.2C8.8,51.9,8.8,52.1,8.8,52.3z M9.2,52.2l-0.3,0.1c0-0.2-0.1-0.4-0.1-0.5l0.3-0.1C9.2,51.9,9.2,52,9.2,52.2z"
	/>
<path class="st0" d="M13.6,50v0.4H12v0.2h1.9v1.1h-0.4V51h-1.4v1h-0.4v-1h-1.4v0.8H9.9v-1.1h1.9v-0.2h-1.6V50H13.6z M13.5,52.1v1.5
	l0.4,0.1c-0.1,0.3-0.1,0.5-0.2,0.6c-0.1,0.1-0.3,0.1-0.5,0.1H12c-0.1,0-0.2,0-0.3-0.1c-0.1-0.1-0.1-0.2-0.1-0.3v-0.3h-1.5v-1.6H13.5
	z M11.3,51.2v0.3h-1.1v-0.3H11.3z M11.3,51.6v0.3h-1.1v-0.3H11.3z M11.5,52.8v-0.3h-1.1v0.3H11.5z M11.5,53.1h-1.1v0.3h1.1V53.1z
	 M11.9,52.8h1.2v-0.3h-1.2V52.8z M13.1,53.1h-1.2v0.3h1.2V53.1z M11.9,54c0,0.1,0.1,0.1,0.2,0.1h1c0.1,0,0.2,0,0.3,0
	c0.1,0,0.1-0.1,0.1-0.3h-1.6V54z M13.2,51.2v0.3h-1.1v-0.3H13.2z M13.2,51.6v0.3h-1.1v-0.3H13.2z"/>
<path class="st0" d="M16.1,50.9v-1h0.5v1h1.8c0,1.7-0.1,2.7-0.2,3c-0.1,0.3-0.3,0.4-0.7,0.4c-0.3,0-0.5,0-0.7,0l-0.1-0.5
	c0.3,0,0.5,0.1,0.8,0.1c0.2,0,0.3-0.1,0.3-0.4c0-0.2,0.1-0.9,0.1-2.1h-1.3c-0.1,0.8-0.2,1.4-0.5,1.9c-0.3,0.5-0.8,0.9-1.4,1.2
	l-0.3-0.4c0.7-0.3,1.1-0.7,1.3-1.1c0.2-0.4,0.3-0.9,0.3-1.5h-1.6V51h1.7V50.9z"/>
<path class="st0" d="M20.4,50.3c-0.2,0.5-0.3,0.9-0.4,1.1c-0.1,0.2-0.3,0.5-0.6,0.9L19,52c0.3-0.3,0.5-0.5,0.6-0.8s0.3-0.6,0.4-1
	L20.4,50.3z M21.1,51.6c-0.3,0.8-0.6,1.5-0.9,2.1c0.7,0,1.3-0.1,1.8-0.1c-0.1-0.3-0.3-0.7-0.5-1l0.5-0.2c0.3,0.6,0.6,1.2,0.9,1.9
	l-0.5,0.1c-0.1-0.2-0.1-0.3-0.2-0.5c-0.6,0.1-1.6,0.2-3,0.2l-0.1-0.5c0.2,0,0.4,0,0.5,0c0.3-0.5,0.6-1.3,1-2.3L21.1,51.6z M22.1,50
	c0.2,0.6,0.5,1.2,1.1,1.7l-0.3,0.5c-0.3-0.3-0.5-0.5-0.6-0.8c-0.2-0.3-0.3-0.6-0.5-1h-0.9V50H22.1z"/>
<path class="st0" d="M27.6,50.1v3.8c0,0.2-0.1,0.3-0.1,0.4c-0.1,0.1-0.2,0.1-0.4,0.1h-0.6l-0.1-0.5H27c0.1,0,0.2-0.1,0.2-0.2v-3.2
	h-3.4v-0.4H27.6z M26.3,51v0.4h-2.6V51H26.3z M26.2,51.9v1.7h-2.3v-1.7H26.2z M25.7,52.3h-1.4v0.9h1.4V52.3z"/>
<path class="st0" d="M30.9,50.5h0.7v0.4h-1.8v-0.4h0.7c-0.1-0.2-0.1-0.3-0.2-0.5l0.4-0.1C30.7,50.1,30.8,50.3,30.9,50.5z M31.3,54.1
	h-1v0.4h-0.4v-1.8h1.4V54.1z M31.3,51.2v0.4h-1.4v-0.4H31.3z M31.3,51.9v0.4h-1.4v-0.4H31.3z M30.9,53.7v-0.6h-0.6v0.6H30.9z
	 M33.4,51.2c0,0.1,0.1,0.2,0.2,0.2H34v0.4h-0.5c-0.2,0-0.3,0-0.4-0.1C33,51.6,33,51.5,33,51.3v-0.8h-0.7c0,0.3,0,0.6-0.1,0.7
	c-0.1,0.2-0.2,0.4-0.4,0.7l-0.3-0.3c0.2-0.2,0.3-0.4,0.4-0.5c0-0.1,0.1-0.4,0.1-1h1.6v1.1H33.4z M33.6,51.9v0.3
	c-0.1,0.5-0.3,0.9-0.6,1.3c0.3,0.2,0.6,0.3,1,0.5l-0.3,0.4c-0.4-0.2-0.8-0.3-1-0.5c-0.3,0.2-0.6,0.4-1,0.6l-0.3-0.4
	c0.4-0.1,0.7-0.3,1-0.5c-0.3-0.3-0.5-0.6-0.7-1l0.4-0.2c0.2,0.3,0.4,0.6,0.6,0.9c0.2-0.3,0.3-0.6,0.5-0.9h-1.6V52h2V51.9z"/>
<path class="st0" d="M35.6,50.5h0.8v0.4h-2v-0.4h0.8c-0.1-0.2-0.2-0.3-0.3-0.5l0.4-0.1C35.5,50.1,35.5,50.3,35.6,50.5z M36.2,51.2
	v0.4h-1.7v-0.4H36.2z M36.2,51.9v0.4h-1.7v-0.4H36.2z M35,54.5h-0.4v-1.8h1.6v1.7h-0.4v-0.3H35V54.5z M35.8,53.1H35v0.6h0.8V53.1z
	 M37.4,51.3v-1.4h0.5v1.4h0.9v0.4h-0.9v2.7h-0.5v-2.7h-0.9v-0.4H37.4z"/>
<path class="st0" d="M43.1,50.3v0.5h-1.7v2.9h1.9v0.5h-4.2v-0.5h1.8v-2.9h-1.7v-0.5H43.1z"/>
<path class="st0" d="M45.4,50.4c-0.2,0.1-0.4,0.1-0.6,0.2v0.7h0.6v0.4h-0.6v0.2c0.2,0.2,0.4,0.5,0.6,0.7L45.2,53
	c-0.2-0.2-0.3-0.5-0.4-0.6v2.1h-0.4v-2c0,0,0,0,0,0.1c-0.2,0.4-0.3,0.7-0.6,1l-0.2-0.5c0.3-0.4,0.5-0.8,0.7-1.4h-0.7v-0.4h0.7v-0.6
	c-0.2,0-0.3,0-0.5,0.1l-0.1-0.4c0.5-0.1,1-0.1,1.4-0.3L45.4,50.4z M47.8,52.1c-0.3,0.1-0.6,0.1-1,0.2v0.5h1v0.4h-1v0.7h1.1v0.4h-2.8
	v-0.4h1.2v-0.7h-0.9v-0.4h0.9v-0.5c-0.3,0-0.6,0-0.9,0l-0.1-0.4c0.9,0,1.6-0.1,2.2-0.2L47.8,52.1z M47.7,50.1v1.5h-2.2v-1.5H47.7z
	 M47.3,50.5H46v0.7h1.3V50.5z"/>
<path class="st0" d="M49.6,50c0,0.2-0.1,0.3-0.2,0.4H50V52h-1.2v0.5h1.3v1.9h-0.4v-0.3h-0.9v0.3h-0.4v-4h0.5
	c0.1-0.1,0.1-0.3,0.2-0.5L49.6,50z M49.7,51.5v-0.7h-0.8v0.7H49.7z M49.7,53.7v-0.8h-0.9v0.8H49.7z M52.6,50.1v0.4h-0.9V51h0.8v2.6
	c0,0.1,0,0.2-0.1,0.3C52.3,54,52.2,54,52.1,54h-0.3l-0.1-0.5h0.2c0.1,0,0.1,0,0.1-0.1v-2h-0.4v3h-0.4v-3h-0.4V54h-0.4v-3h0.8v-0.5
	h-1v-0.4H52.6z"/>
<path class="st0" d="M2.3,57.7c-0.3,0.6-0.6,1.1-0.9,1.5c0.1,0,0.2,0,0.2,0c0.7,0,1.4-0.1,2.1-0.2c-0.2-0.2-0.4-0.5-0.6-0.8l0.3-0.3
	c0.4,0.5,0.8,1,1.1,1.6l-0.3,0.4C4.1,59.8,4,59.6,4,59.5c-0.9,0.1-2,0.2-3.4,0.2l-0.1-0.5c0.2,0,0.3,0,0.4,0
	c0.3-0.4,0.6-0.9,0.9-1.6L2.3,57.7z M4.2,62.1H3.7v-0.3H1.2v0.3H0.7V60h3.4L4.2,62.1L4.2,62.1z M3.7,61.4v-1H1.2v1H3.7z"/>
<path class="st0" d="M5.8,59.3l-0.3,0.4c-0.2-0.2-0.4-0.4-0.6-0.5l0.2-0.4C5.4,59,5.6,59.1,5.8,59.3z M5.8,60.1
	c-0.1,0.8-0.3,1.4-0.5,2L5,61.8c0.2-0.5,0.3-1.1,0.5-1.8L5.8,60.1z M5.9,58.1l-0.3,0.4C5.4,58.3,5.2,58.1,5,58l0.2-0.3
	C5.5,57.8,5.7,57.9,5.9,58.1z M6.2,59.4C6.1,59.6,6.1,59.8,6,60l-0.2-0.1c0.1-0.1,0.1-0.3,0.2-0.5H6.2z M6.6,57.6
	c-0.1,0.3-0.2,0.5-0.3,0.6c0.1,0,0.1,0,0.2,0c0.1-0.1,0.1-0.2,0.2-0.4l0.2,0.1v-0.1h0.5c0-0.1-0.1-0.2-0.2-0.3h0.3
	c0.1,0.1,0.1,0.2,0.1,0.3H8v0.3H6.8V58c-0.2,0.4-0.3,0.7-0.5,0.9c0.1,0,0.2,0,0.2,0c0-0.1,0-0.1,0-0.2l0.2-0.1
	c0,0.2,0.1,0.4,0.1,0.6l-0.2,0.1v-0.1c-0.2,0.1-0.5,0.1-0.8,0.1V59c0.1,0,0.1,0,0.2,0c0.1-0.1,0.2-0.3,0.3-0.4c-0.1,0-0.3,0-0.5,0
	v-0.3H6c0.1-0.2,0.2-0.4,0.3-0.8L6.6,57.6z M9,60.1v0.8H6.5l-0.1,0.2h2.7c0,0.4-0.1,0.7-0.2,0.8c-0.1,0.1-0.3,0.2-0.6,0.2H7.5
	l-0.1-0.4c0.4,0,0.7,0,0.9,0c0.1,0,0.2,0,0.3,0c0,0,0.1-0.1,0.1-0.2H6l0.2-0.8h2.4v-0.2H6v-0.3h3V60.1z M6.6,59.9H6.3
	c0-0.2,0-0.4-0.1-0.5h0.2C6.5,59.5,6.5,59.7,6.6,59.9z M6.9,59.9L6.7,60c0-0.2-0.1-0.4-0.1-0.5l0.2-0.1C6.9,59.5,6.9,59.7,6.9,59.9z
	 M8,58.3v0.2H7v-0.2H8z M8,58.7v0.2H7v-0.2H8z M8,59.1v0.8H7v-0.8H8z M7.7,59.4H7.3v0.2h0.4V59.4z M8.4,59.4c0,0.2-0.1,0.4-0.1,0.6
	L8,59.9c0-0.1,0.1-0.3,0.1-0.5H8.4z M8.8,57.7c-0.1,0.3-0.2,0.5-0.3,0.6c0.1,0,0.1,0,0.2,0c0.1-0.1,0.1-0.2,0.2-0.3l0.3,0.1
	C9,58.4,8.8,58.7,8.6,59c0.1,0,0.2,0,0.3,0c0-0.1,0-0.2-0.1-0.2L9,58.7c0.1,0.2,0.1,0.4,0.2,0.6l-0.3,0.1v-0.1
	c-0.2,0-0.5,0.1-0.9,0.1v-0.3c0.1,0,0.1,0,0.2,0c0.1-0.1,0.2-0.3,0.3-0.4c-0.1,0-0.3,0-0.5,0v-0.3h0.1c0.1-0.2,0.2-0.4,0.3-0.8
	L8.8,57.7z M8.8,59.9H8.5c0-0.2,0-0.4,0-0.5h0.2C8.8,59.5,8.8,59.7,8.8,59.9z M9.2,59.9L9,60c0-0.2-0.1-0.4-0.1-0.5l0.3-0.1
	C9.2,59.5,9.2,59.7,9.2,59.9z"/>
<path class="st0" d="M10.1,62.1v-4.2h0.6v4.2H10.1z"/>
<path class="st0" d="M14.3,61.8c-0.3,0.2-0.6,0.4-1,0.4c-0.6,0-1-0.2-1.3-0.7c-0.3-0.4-0.4-0.9-0.4-1.5c0-0.6,0.1-1.1,0.4-1.5
	c0.3-0.5,0.7-0.7,1.3-0.7c0.4,0,0.7,0.1,0.9,0.3c0.3,0.2,0.4,0.6,0.4,1H14c-0.1-0.5-0.3-0.7-0.7-0.7c-0.4,0-0.7,0.2-0.8,0.5
	c-0.2,0.3-0.2,0.6-0.2,1.1s0.1,0.8,0.2,1.1c0.2,0.3,0.5,0.5,0.8,0.5c0.2,0,0.4-0.1,0.5-0.2c0.1-0.1,0.2-0.3,0.3-0.6h0.6
	C14.7,61.3,14.5,61.6,14.3,61.8z"/>
<path class="st0" d="M17.5,57.9h1.7v0.4h-3.4v1.3c0,0.4,0,0.8-0.1,1.2c-0.1,0.4-0.2,0.8-0.3,1.3L15,61.8c0.1-0.3,0.2-0.7,0.2-1
	c0-0.4,0.1-0.7,0.1-1v-1.7H17c0-0.1-0.1-0.2-0.1-0.3l0.4-0.1C17.4,57.6,17.5,57.8,17.5,57.9z M17,58.4v1.2h0.7V60
	c0.1-0.2,0.2-0.4,0.2-0.6c0.1-0.2,0.1-0.5,0.2-0.9h0.4c0,0.2-0.1,0.4-0.1,0.5h0.8v0.4H19c0,0.7-0.1,1.2-0.3,1.6v0.1
	c0.1,0.2,0.3,0.4,0.6,0.6l-0.2,0.4c-0.2-0.2-0.4-0.4-0.6-0.6c-0.1,0.2-0.3,0.4-0.5,0.6l-0.2-0.4c0.2-0.2,0.4-0.4,0.5-0.6
	c-0.1-0.2-0.2-0.5-0.3-0.9c0,0.1-0.1,0.2-0.1,0.2l-0.2-0.2v1.5c0,0.1,0,0.2-0.1,0.3c-0.1,0.1-0.1,0.1-0.2,0.1H17l-0.1-0.4h0.3
	c0.1,0,0.1-0.1,0.1-0.2v-1.6h-1.1v2.2h-0.4v-2.5h0.7v-1.2H17z M16.5,59.2l-0.3,0.2c-0.1-0.2-0.2-0.4-0.3-0.7l0.3-0.2
	C16.3,58.8,16.4,59,16.5,59.2z M17.2,60.2v1.3h-0.8v-1.3H17.2z M16.9,60.5h-0.2v0.6h0.2V60.5z M17.8,58.7c-0.1,0.3-0.2,0.6-0.4,0.8
	l-0.3-0.3c0.1-0.2,0.3-0.4,0.4-0.7L17.8,58.7z M18.5,60.6c0.1-0.3,0.1-0.7,0.2-1.2h-0.3v0.1C18.3,60,18.4,60.3,18.5,60.6z"/>
<path class="st0" d="M23.8,58c-1,0.1-2.1,0.1-3.3,0.2v0.3h3.2v1.2h-1.5l0.1,0.4h1.6v0.4h-2c0,0.1,0,0.3-0.1,0.4h1.8
	c0,0.6-0.1,0.9-0.1,1.1c0,0.1-0.1,0.2-0.3,0.2c-0.1,0-0.4,0.1-1,0.1l-0.1-0.5c0.1,0,0.3,0,0.3,0c0.3,0,0.4,0,0.5,0s0.2-0.2,0.2-0.5
	h-1.5c0,0.1-0.1,0.2-0.2,0.3c-0.2,0.3-0.5,0.5-0.9,0.8L20.2,62c0.4-0.1,0.6-0.3,0.8-0.5c0.1-0.2,0.2-0.5,0.3-0.8h-1
	c0,0.3-0.1,0.5-0.1,0.8c-0.1,0.3-0.2,0.6-0.4,0.9L19.5,62c0.1-0.2,0.2-0.5,0.3-0.7c0-0.3,0.1-0.6,0.1-0.9v-2.3
	c1.4,0,2.6-0.1,3.5-0.2L23.8,58z M23.2,59.2v-0.4h-2.8v0.4H23.2z M21.8,60l-0.2-0.4h-1.2V60H21.8z"/>
<path class="st0" d="M25,57.6c0,0.1-0.1,0.2-0.1,0.2h0.4v-0.3h0.4v0.3h0.9v0.3h-0.9v0.2h1v0.3h-1v0.3h1v0.5c0,0.1,0,0.2-0.1,0.3
	c-0.1,0.1-0.1,0.1-0.3,0.1H26l-0.1-0.3h0.3c0.1,0,0.1,0,0.1-0.1v-0.1h-0.6v0.8h-0.4v-0.8h-0.5v0.6h-0.4v-1h0.9v-0.3h-1v-0.3h0.2
	l-0.3-0.2c0.2-0.2,0.4-0.4,0.5-0.7L25,57.6z M26.6,60.2h1.7v0.4h-1.5c0.1,0.2,0.3,0.3,0.4,0.5c0.1,0,0.1-0.1,0.2-0.1
	c0.1-0.1,0.2-0.2,0.3-0.3l0.3,0.2c-0.1,0.1-0.2,0.3-0.3,0.3c-0.1,0-0.1,0.1-0.2,0.1c0.2,0.1,0.5,0.3,0.9,0.4l-0.2,0.4
	c-0.5-0.2-0.8-0.4-1.1-0.6c-0.3-0.2-0.5-0.5-0.7-0.9h-0.2c-0.1,0.1-0.3,0.3-0.4,0.3v0.6c0.3,0,0.7-0.1,0.9-0.2v0.4
	c-0.3,0.1-0.9,0.2-1.8,0.3l-0.1-0.4c0.2,0,0.3,0,0.5,0v-0.4c-0.3,0.1-0.6,0.2-0.9,0.3l-0.2-0.4c0.4-0.1,0.8-0.2,1-0.3
	c0.1-0.1,0.2-0.1,0.3-0.2h-1.4v-0.4H26c0-0.1-0.1-0.2-0.2-0.3l0.4-0.1C26.5,60,26.5,60.1,26.6,60.2z M25.3,58.2h-0.6
	c-0.1,0.1-0.1,0.2-0.2,0.2h0.7L25.3,58.2L25.3,58.2z M27.4,57.8v1.5H27v-1.5H27.4z M28.1,57.5v2.1c0,0.2,0,0.3-0.1,0.3
	C27.9,60,27.8,60,27.6,60h-0.5L27,59.6c0.2,0,0.3,0,0.4,0s0.2,0,0.2-0.1v-2H28.1z"/>
<path class="st0" d="M29.9,58.7V59c-0.1,0.3-0.3,0.6-0.6,0.9h0.6v0.3c-0.1,0.3-0.1,0.5-0.2,0.7c0.2,0.3,0.4,0.4,0.7,0.5
	c0.3,0.1,0.7,0.1,1.4,0.1c0.4,0,0.8,0,1.1,0L32.8,62c-1.4,0-2.2-0.1-2.5-0.2c-0.3-0.1-0.5-0.3-0.7-0.6c-0.1,0.3-0.3,0.5-0.6,0.8
	l-0.3-0.4c0.2-0.3,0.4-0.5,0.5-0.7c0.1-0.1,0.2-0.4,0.3-0.7h-0.7V60c0.2-0.2,0.4-0.5,0.6-0.8h-0.7v-0.4L29.9,58.7L29.9,58.7z
	 M29.8,58.2l-0.3,0.3c-0.1-0.2-0.3-0.4-0.5-0.6l0.3-0.3C29.5,57.8,29.6,58,29.8,58.2z M31,57.7c0,0.1-0.1,0.3-0.1,0.4h0.4v-0.5h0.4
	v0.5h1v0.4h-1V59h1.2v0.4h-1.2v0.3h-0.4v-0.3H30V59h1.2v-0.5h-0.6c-0.1,0.2-0.2,0.3-0.3,0.4l-0.4-0.3c0.3-0.3,0.5-0.7,0.6-1.1
	L31,57.7z M32.6,59.8v1.3h-2.3v-1.3H32.6z M32.2,60.2h-1.5v0.5h1.5V60.2z"/>
<path class="st0" d="M34.6,57.7c-0.1,0.4-0.2,0.7-0.4,1v3.4h-0.4v-2.6c-0.1,0.2-0.3,0.4-0.4,0.6l-0.1-0.5c0.2-0.3,0.4-0.5,0.5-0.8
	s0.3-0.6,0.4-1.1H34.6z M35.8,57.6c-0.1,0.2-0.1,0.4-0.2,0.6h1.9v0.4h-1.6v0.7h1.5v0.4h-1.5v0.8h1.5v0.4h-1.5V62h-0.4v-3.4
	c-0.2,0.4-0.4,0.8-0.6,1.1l-0.3-0.4c0.4-0.6,0.7-1.2,0.9-1.9L35.8,57.6z"/>
<path class="st0" d="M39.7,57.5v0.8h0.4v-0.8h0.4v0.8h0.3c0.1-0.2,0.2-0.4,0.3-0.7l0.4,0.2c-0.1,0.2-0.2,0.4-0.3,0.5h0.7v0.4h-1.3
	l0.3,0.1c-0.1,0.1-0.1,0.2-0.2,0.3h1v0.4H40v0.3h1.6v0.4H40v0.3h1.9v0.4h-1.5c0.2,0.2,0.4,0.3,0.6,0.4c0.2,0.1,0.5,0.2,0.9,0.3
	L41.7,62c-0.5-0.1-0.8-0.3-1-0.5c-0.2-0.1-0.4-0.3-0.6-0.6V62h-0.4v-1.2c-0.1,0.2-0.3,0.3-0.4,0.4c-0.3,0.2-0.7,0.4-1.2,0.6
	l-0.2-0.4c0.5-0.2,0.9-0.3,1.1-0.5c0.1-0.1,0.2-0.2,0.3-0.3h-1.5v-0.4h1.8v-0.3H38v-0.4h1.6v-0.3H38v-0.4h1
	c-0.1-0.1-0.1-0.2-0.2-0.3l0.3-0.1h-1.3V58h0.7c-0.1-0.2-0.1-0.3-0.2-0.5l0.4-0.2c0.1,0.2,0.2,0.4,0.2,0.7h0.3v-0.8h0.5V57.5z
	 M40.3,59.2c0.1-0.1,0.2-0.3,0.2-0.4h-1.3c0.1,0.1,0.1,0.3,0.2,0.4H40.3z"/>
<path class="st0" d="M43.6,58.1h0.7v0.4h-2v-0.4h0.8c-0.1-0.2-0.2-0.3-0.3-0.5l0.4-0.1C43.4,57.7,43.5,57.9,43.6,58.1z M44.2,58.9
	v0.4h-1.6v-0.4H44.2z M44.2,59.6V60h-1.6v-0.4H44.2z M43,62.1h-0.4v-1.8h1.6V62h-0.4v-0.3H43V62.1z M43.7,60.7H43v0.6h0.8L43.7,60.7
	L43.7,60.7z M45.3,59v-1.4h0.4V59h0.9v0.4h-0.9v2.7h-0.4v-2.7h-0.9V59H45.3z"/>
<path class="st0" d="M48.8,57.8v-0.2h0.4v0.2h1.5v0.5h0.4v0.3h-0.4v0.5h-1.5v0.2h1.7v0.3h-1.7v0.2h1.9v0.3H47v-0.3h1.8v-0.2h-1.5
	v-0.3h1.5v-0.2h-1.5v-0.3h1.5v-0.2H47v-0.3h1.8v-0.2h-1.5v-0.3H48.8z M51,61.7V62h-4v-0.3H51z M50.7,60.2v1.3h-3.3v-1.3H50.7z
	 M48.8,60.7v-0.2h-1.1v0.2H48.8z M48.8,61h-1.1v0.2h1.1V61z M49.2,58.3h1.1v-0.2h-1.1V58.3z M49.2,58.8h1.1v-0.2h-1.1V58.8z
	 M49.2,60.7h1.1v-0.2h-1.1V60.7z M50.3,61h-1.1v0.2h1.1V61z"/>
<path class="st0" d="M52.3,58v-0.4h0.4V58h0.7v0.4h-0.7v0.5h0.8v0.4h-0.3L53,60h0.4v0.4h-0.7v0.5h0.8v0.4h-0.8v0.9h-0.4v-0.9h-0.8
	v-0.4h0.8v-0.5h-0.7V60H52l-0.1-0.7h-0.3v-0.4h0.8v-0.5h-0.7V58H52.3z M52.7,59.9l0.2-0.7h-0.6l0.1,0.7H52.7z M54,58.4v-0.8h0.4v0.8
	h0.9c-0.1,0.4-0.1,0.9-0.1,1.6s0,1.2,0,1.4c0,0.1,0,0.2,0.1,0.2c0.1,0,0.1-0.2,0.1-0.7l0.3,0.2c-0.1,0.4-0.1,0.7-0.2,0.9
	c-0.1,0.1-0.1,0.1-0.2,0.1c-0.1,0-0.2-0.1-0.3-0.2c-0.1-0.1-0.1-0.3-0.2-0.5c0-0.4-0.1-0.9-0.1-1.4c0-0.4,0-0.8,0.1-1.2h-0.5
	c0,0.5,0,1-0.1,1.4c0.2,0.3,0.3,0.5,0.5,0.8l-0.3,0.3c-0.1-0.2-0.2-0.4-0.3-0.6c-0.1,0.5-0.4,0.9-0.7,1.4l-0.3-0.3
	c0.3-0.4,0.5-0.9,0.7-1.3c0-0.1,0-0.1,0.1-0.2c-0.1-0.2-0.3-0.4-0.4-0.6l0.3-0.3c0.1,0.1,0.2,0.2,0.2,0.3c0-0.3,0-0.6,0-0.9h-0.5
	v-0.4H54z"/>
<path class="st0" d="M57.4,59c-0.1,0.2-0.2,0.4-0.3,0.6v2.6h-0.4v-2c-0.1,0.1-0.2,0.3-0.4,0.4L56,60.2c0.4-0.4,0.8-0.8,1.1-1.4
	L57.4,59z M57.3,57.8c-0.3,0.4-0.6,0.8-1,1.1L56,58.5c0.4-0.3,0.7-0.6,1-1L57.3,57.8z M60.2,59.1v0.4h-0.7v2.1c0,0.2,0,0.3-0.1,0.4
	c-0.1,0.1-0.2,0.1-0.4,0.1h-0.8l-0.1-0.5c0.3,0,0.5,0,0.7,0c0.1,0,0.2,0,0.2-0.1v-2h-1.6v-0.4H60.2z M60,57.8v0.4h-2.3v-0.4H60z"/>
<path class="st0" d="M63,58.1l-0.3,0.2h1.9v0.4H63v1h1.4v0.4H63v1.2h1.8v0.5h-4.1v-0.5h1.8v-1.2H61v-0.4h1.4v-1h-1.7v-0.4h1.7
	c-0.1-0.2-0.2-0.4-0.4-0.6l0.4-0.2C62.7,57.8,62.8,58,63,58.1z"/>
<path class="st0" d="M65.7,58.4v-0.9h0.4v0.9h0.5v0.4h-0.5v1c0.2-0.1,0.3-0.2,0.5-0.3V60c-0.2,0.1-0.3,0.2-0.5,0.3v1.3
	c0,0.2,0,0.3-0.1,0.4s-0.2,0.1-0.4,0.1h-0.4l-0.1-0.5c0.1,0,0.2,0,0.3,0s0.2,0,0.2-0.1v-1c-0.2,0.1-0.3,0.1-0.5,0.2L65,60.2
	c0.2,0,0.4-0.1,0.6-0.2v-1.2H65v-0.4H65.7z M67.7,58.1v-0.6h0.4v0.6H69v0.4h-0.9V59h1.2v0.4h-0.5v0.5h0.5v0.4h-0.5v1.2
	c0,0.2,0,0.3-0.1,0.3c-0.1,0.1-0.2,0.1-0.4,0.1h-0.5l-0.1-0.4c0.2,0,0.4,0,0.5,0c0.1,0,0.2,0,0.2-0.1v-1.1h-1.7V60h1.7v-0.5h-1.7
	v-0.4h1v-0.5h-0.9v-0.4h0.9V58.1z M67.9,61.2l-0.4,0.3c-0.1-0.2-0.3-0.5-0.5-0.8l0.3-0.2C67.5,60.8,67.7,61,67.9,61.2z"/>
<path class="st0" d="M72,57.5v1.2c0.1,0.7,0.4,1.3,0.7,1.8c0.2,0.4,0.6,0.8,1.2,1.2l-0.3,0.4c-0.5-0.3-0.8-0.6-1-1
	c-0.3-0.4-0.5-0.8-0.7-1.4c-0.2,0.6-0.4,1-0.6,1.3c-0.3,0.3-0.7,0.7-1.2,1l-0.3-0.4c0.7-0.4,1.2-0.9,1.4-1.5c0.3-0.5,0.4-1,0.4-1.5
	v-1.2H72V57.5z"/>
<path class="st0" d="M1.1,66.1v-1h0.4v1h0.6v0.4H1.5v0.2c0.3,0.2,0.5,0.5,0.8,0.8L2,68c-0.2-0.3-0.4-0.6-0.5-0.7v2.5H1.1v-2.4v0.1
	c-0.2,0.4-0.3,0.8-0.6,1.1l-0.2-0.5c0.3-0.4,0.5-0.9,0.7-1.5H0.3v-0.4h0.8V66.1z M3.1,65.5c-0.1,0.5-0.2,0.8-0.3,1
	c-0.1,0.2-0.3,0.5-0.5,0.8L1.9,67c0.2-0.3,0.4-0.5,0.5-0.8c0.1-0.3,0.2-0.6,0.3-0.9L3.1,65.5z M3.6,66.9c-0.2,0.8-0.5,1.5-0.8,2.1
	c0.5,0,0.9-0.1,1.2-0.2c-0.1-0.3-0.2-0.6-0.4-0.8L4,67.9c0.3,0.5,0.5,1,0.7,1.7l-0.4,0.1c0-0.2-0.1-0.3-0.2-0.5
	c-0.5,0.1-1.2,0.2-2.2,0.4l-0.1-0.5c0.1,0,0.2,0,0.3,0c0.3-0.7,0.6-1.4,0.8-2.3L3.6,66.9z M4.1,65.4C4.2,66,4.5,66.5,4.9,67
	l-0.3,0.4c-0.2-0.2-0.4-0.5-0.5-0.7c-0.1-0.3-0.2-0.6-0.3-0.9H3.2v-0.4H4.1z"/>
<path class="st0" d="M6.6,66v2.8h1.2v-3.6h0.5v3.6h1.3V66h0.5v3.7H9.6v-0.5H6.5v0.5H6V66H6.6z"/>
<path class="st0" d="M12,66.1v-0.9h0.4v0.9h0.4v0.4h-0.4v0.3c0.2,0.2,0.4,0.5,0.5,0.7l-0.1,0.1h0.4c0-0.1,0-0.2,0-0.4
	c-0.1,0-0.2,0-0.3,0l-0.1-0.3c0.1,0,0.1,0,0.2,0c0.1-0.1,0.2-0.3,0.3-0.5c-0.2,0-0.3,0.1-0.5,0.1l-0.1-0.3c0.1,0,0.1,0,0.2,0
	c0.2-0.3,0.3-0.6,0.4-0.9h0.4c-0.1,0.3-0.2,0.6-0.3,0.8c0.1,0,0.1,0,0.2,0c0.1-0.1,0.1-0.3,0.2-0.4l0.3,0.1
	c-0.2,0.5-0.4,0.8-0.6,1.1c0.1,0,0.2,0,0.3,0c0-0.1,0-0.2-0.1-0.3l0.3-0.1c0.1,0.3,0.2,0.5,0.3,0.7L14,67.3c0-0.1,0-0.1,0-0.2
	c-0.1,0-0.1,0-0.2,0c0,0.1,0,0.3,0,0.4h0.6c-0.1-0.5-0.1-1.3-0.1-2.5h0.4c0,1.2,0.1,2,0.1,2.5h0.5c0-0.1-0.1-0.2-0.1-0.3
	c-0.1,0-0.2,0-0.3,0l-0.1-0.3c0.1,0,0.2,0,0.2,0c0.1-0.2,0.2-0.4,0.3-0.6c-0.2,0-0.3,0.1-0.5,0.1l-0.1-0.3c0.1,0,0.1,0,0.2,0
	c0.1-0.3,0.2-0.6,0.3-0.9h0.3c-0.1,0.3-0.2,0.6-0.3,0.9c0.1,0,0.2,0,0.2,0c0-0.1,0.1-0.2,0.1-0.3l0.3,0.1c-0.2,0.4-0.4,0.8-0.6,1.1
	c0.1,0,0.2,0,0.3-0.1c0-0.1,0-0.2-0.1-0.3l0.3-0.1c0.1,0.3,0.2,0.5,0.2,0.7l-0.3,0.1c0-0.1,0-0.1,0-0.2c-0.1,0-0.2,0-0.2,0.1
	c0,0.1,0.1,0.2,0.1,0.4H16V68h-1.2c0,0.2,0.1,0.4,0.2,0.6c0.1-0.1,0.2-0.3,0.3-0.4l0.3,0.2c-0.1,0.2-0.3,0.5-0.5,0.6
	c0.2,0.3,0.3,0.4,0.4,0.4c0,0,0,0,0.1-0.1c0,0,0-0.3,0.1-0.6l0.4,0.2c-0.1,0.4-0.1,0.6-0.2,0.7c-0.1,0.1-0.2,0.1-0.3,0.1
	c-0.2,0-0.4-0.2-0.7-0.5c-0.2,0.2-0.5,0.3-0.9,0.5l-0.2-0.3c0.4-0.1,0.7-0.3,0.9-0.5c-0.1-0.2-0.2-0.5-0.3-0.8h-0.7
	c0,0.1,0,0.1,0,0.2c0.2,0.2,0.5,0.3,0.7,0.5l-0.2,0.3c-0.2-0.2-0.3-0.3-0.5-0.5c-0.1,0.3-0.1,0.5-0.2,0.6c-0.1,0.2-0.3,0.4-0.5,0.6
	l-0.3-0.4c0.2-0.2,0.4-0.4,0.5-0.6c0.1-0.1,0.1-0.4,0.2-0.7V68h-0.5v-0.2l-0.1,0.1c-0.1-0.2-0.2-0.4-0.3-0.6v2.4H12v-2.1
	c-0.1,0.3-0.3,0.6-0.4,0.9L11.4,68c0.2-0.4,0.4-0.8,0.6-1.3v-0.1h-0.5v-0.4L12,66.1L12,66.1z"/>
<path class="st0" d="M17.5,66.4v-1.2h0.4v1.2h0.5v0.4H18v1.3c0.2-0.1,0.3-0.2,0.5-0.2v0.2c0.1-0.1,0.3-0.2,0.4-0.3s0.2-0.2,0.3-0.3
	h-0.7v-0.4h3.2v0.4h-2c0,0.1-0.1,0.2-0.1,0.3h2c0,1-0.1,1.6-0.3,1.8c-0.1,0.1-0.4,0.2-0.9,0.2l-0.1-0.5c0.1,0,0.3,0,0.3,0
	c0.1,0,0.3,0,0.3-0.1c0.1-0.1,0.1-0.4,0.1-1h-0.1c-0.2,0.3-0.3,0.6-0.5,0.8c-0.2,0.3-0.6,0.6-1.1,0.9L19,69.5c0.4-0.2,0.8-0.4,1-0.7
	c0.2-0.2,0.3-0.4,0.4-0.6H20c-0.1,0.2-0.3,0.4-0.5,0.6c-0.3,0.2-0.6,0.4-1,0.6L18.2,69c0.4-0.1,0.7-0.3,0.9-0.5
	c0.1-0.1,0.3-0.2,0.4-0.4h-0.4c-0.2,0.2-0.4,0.3-0.6,0.5l-0.2-0.2c-0.4,0.2-0.8,0.4-1.2,0.6L17,68.5c0.2,0,0.4-0.1,0.6-0.2v-1.5H17
	v-0.4H17.5z M21.3,65.3v1.6h-2.6v-1.6H21.3z M20.8,66v-0.3h-1.7V66H20.8z M20.8,66.3h-1.7v0.3h1.7V66.3z"/>
<path class="st0" d="M23.7,66.9l-0.3,0.4c-0.3-0.3-0.5-0.5-0.8-0.6l0.3-0.4C23.1,66.6,23.4,66.7,23.7,66.9z M23.8,67.9
	c-0.2,0.7-0.5,1.3-0.8,1.9l-0.4-0.4c0.2-0.4,0.5-1,0.8-1.7L23.8,67.9z M23.8,65.8l-0.3,0.5c-0.3-0.2-0.5-0.4-0.8-0.6l0.3-0.4
	C23.3,65.4,23.5,65.6,23.8,65.8z M24.8,66.2l-0.4,0.2c-0.2-0.3-0.3-0.6-0.5-0.9l0.4-0.2C24.5,65.6,24.7,65.9,24.8,66.2z M25.7,65.2
	v1.3H27v2.8c0,0.2,0,0.3-0.1,0.4c-0.1,0.1-0.2,0.1-0.3,0.1h-0.7l-0.1-0.4h0.6c0.1,0,0.2-0.1,0.2-0.2v-0.5h-2v1.1H24v-3.3h1.2v-1.3
	H25.7z M26.5,67.4v-0.5h-2v0.5H26.5z M26.5,68.2v-0.5h-2v0.5H26.5z M27,65.5c-0.1,0.3-0.3,0.6-0.5,0.9l-0.4-0.2
	c0.2-0.3,0.4-0.6,0.5-0.9L27,65.5z"/>
<path class="st0" d="M29.9,65.4v0.3c-0.1,0.4-0.2,0.8-0.4,1.2c0.1,0.2,0.2,0.4,0.3,0.6c0.1,0.2,0.1,0.3,0.1,0.5
	c0,0.3-0.1,0.4-0.2,0.6c-0.1,0.1-0.4,0.2-0.7,0.2l-0.1-0.5c0.1,0,0.2,0,0.2,0c0.1,0,0.2,0,0.3-0.1c0.1,0,0.1-0.1,0.1-0.2
	s0-0.3-0.1-0.4c-0.1-0.2-0.2-0.4-0.3-0.6c0.2-0.5,0.3-0.9,0.4-1.2h-0.7v4h-0.5v-4.4H29.9z M31.5,65.9h1.2v0.4H31V67h1.5
	c0,1.3-0.1,2.1-0.2,2.3c-0.1,0.2-0.3,0.3-0.6,0.3c-0.3,0-0.5,0-0.6,0L31,69.1c0.2,0,0.5,0.1,0.8,0.1c0.1,0,0.2-0.1,0.2-0.3
	c0-0.1,0-0.6,0.1-1.5h-1c0,0.4-0.1,0.8-0.3,1.1c-0.2,0.4-0.5,0.8-1,1.2l-0.4-0.4c0.4-0.3,0.8-0.6,0.9-1c0.2-0.3,0.2-0.7,0.2-1.3
	v-0.7h-0.7v-0.4h1.1c-0.1-0.2-0.2-0.4-0.4-0.6l0.5-0.1C31.3,65.4,31.4,65.6,31.5,65.9z"/>
<path class="st0" d="M36.2,65.2v1c0,0.3,0.1,0.7,0.2,1.1c0.2,0.5,0.4,0.9,0.7,1.2c0.3,0.4,0.7,0.6,1.1,0.8L38,69.8
	c-0.5-0.3-0.9-0.6-1.2-0.9c-0.3-0.4-0.6-0.9-0.9-1.6c-0.1,0.7-0.4,1.3-0.8,1.6c-0.3,0.4-0.7,0.6-1.3,0.9l-0.2-0.5
	c0.5-0.2,0.9-0.5,1.2-0.8c0.3-0.3,0.5-0.7,0.6-1.2c0.1-0.4,0.2-0.8,0.2-1.1v-1H36.2z M34.9,66.1c-0.2,0.7-0.4,1.2-0.6,1.7l-0.5-0.3
	c0.2-0.4,0.4-1,0.6-1.6L34.9,66.1z M38,66.1c-0.2,0.6-0.4,1.2-0.6,1.7l-0.5-0.3c0.2-0.4,0.4-1,0.6-1.5L38,66.1z"/>
<path class="st0" d="M39.9,65.4v-0.2h0.4v0.2h0.2v0.3h-0.2v0.2h0.6v-0.2h-0.2v-0.3h0.2v-0.2h0.4v0.2h0.6v0.3h-0.6v0.2h0.3v1
	c0,0.1,0,0.2-0.1,0.2c-0.1,0.1-0.1,0.1-0.2,0.1H41v-0.1h-1.2v-0.6c-0.1,0.1-0.2,0.1-0.3,0.2l-0.2-0.3c0.2-0.1,0.3-0.2,0.4-0.2
	c0.1-0.1,0.1-0.1,0.2-0.2v-0.2h-0.5v-0.3L39.9,65.4L39.9,65.4z M41.9,67.3h1.8v0.3h-4.5v-0.3h2.2l-0.1-0.1l0.4-0.1
	C41.8,67.1,41.8,67.2,41.9,67.3z M43.4,67.8v0.3h-3.8v-0.3H43.4z M43.4,68.3v0.3h-3.7v-0.3H43.4z M43.4,69.8H43v-0.2h-2.9v0.2h-0.4
	v-1h3.8v1H43.4z M40.9,66.3v0.5h0.2c0.1,0,0.1,0,0.1-0.1v-0.6H40c0,0-0.1,0.1-0.2,0.2H40.9z M40.5,66.6H40v0.3h0.5V66.6z M43,69.3
	V69h-2.9v0.3H43z M42.7,65.2c0,0.1-0.1,0.3-0.1,0.4h1.2v0.3h-0.3c-0.2,0.3-0.3,0.5-0.5,0.7c0.2,0.1,0.4,0.2,0.7,0.3l-0.2,0.3
	c-0.4-0.1-0.6-0.3-0.9-0.4c-0.2,0.1-0.4,0.3-0.7,0.4l-0.2-0.3c0.2-0.1,0.4-0.2,0.6-0.3c-0.1-0.1-0.2-0.2-0.3-0.4
	c-0.1,0.1-0.1,0.1-0.2,0.2l-0.2-0.3c0.2-0.1,0.3-0.3,0.4-0.4c0.1-0.1,0.2-0.3,0.3-0.5H42.7z M42.7,66.4c0.1-0.1,0.3-0.3,0.4-0.5
	h-0.7L42.3,66C42.4,66.2,42.6,66.3,42.7,66.4z"/>
<path class="st0" d="M46.4,68.5c-0.3,0.4-0.8,0.8-1.3,1.1l-0.3-0.4c0.5-0.3,0.9-0.6,1.2-1L46.4,68.5z M49.1,65.6
	c-0.6,0.1-1.3,0.2-2.2,0.3c-0.1,0.2-0.3,0.4-0.6,0.7c0.4,0,0.7,0,1.1-0.1c0.2-0.2,0.4-0.4,0.6-0.6l0.4,0.2c-0.6,0.6-1.3,1.1-1.9,1.5
	c0.7,0,1.3-0.1,1.8-0.1c-0.1-0.2-0.2-0.4-0.3-0.6l0.3-0.2c0.4,0.5,0.6,1,0.9,1.3l-0.4,0.3c-0.1-0.1-0.1-0.3-0.2-0.5
	c-0.3,0-0.8,0.1-1.2,0.1V69c0,0.2,0,0.3-0.1,0.4s-0.2,0.1-0.4,0.1h-0.4L46.4,69c0.2,0,0.3,0,0.4,0s0.2,0,0.2-0.1v-1
	c-0.5,0-1.1,0.1-1.7,0.1l-0.1-0.4c0.3,0,0.6,0,0.9,0c0.4-0.2,0.8-0.5,1.1-0.8c-0.5,0-1.1,0.1-1.8,0.1l-0.1-0.4c0.2,0,0.4,0,0.6,0
	c0.3-0.2,0.5-0.4,0.7-0.7c-0.4,0-0.9,0-1.4,0l-0.1-0.4c1.6,0,2.9-0.1,4-0.3V65.6z M49.3,69.2L49,69.5c-0.3-0.3-0.7-0.7-1.2-1.1
	l0.3-0.3C48.6,68.5,49,68.9,49.3,69.2z"/>
<path class="st0" d="M51.6,65.3c-0.2,0.5-0.3,0.9-0.5,1.2c0.1,0,0.3,0,0.4-0.1c0.1-0.2,0.2-0.5,0.3-0.7l0.4,0.1
	c-0.3,0.8-0.7,1.4-1.1,1.9c0.3,0,0.5-0.1,0.7-0.1c0-0.1-0.1-0.3-0.1-0.4l0.4-0.1c0.1,0.3,0.2,0.7,0.3,1.1L52,68.3
	c0-0.1,0-0.2-0.1-0.3c-0.3,0.1-0.8,0.2-1.4,0.2l-0.1-0.4c0.1,0,0.2,0,0.3,0c0.2-0.3,0.4-0.6,0.6-0.9c-0.3,0-0.5,0.1-0.8,0.2
	l-0.1-0.4c0.1,0,0.2,0,0.3,0c0.2-0.4,0.4-0.9,0.6-1.4H51.6z M50.9,68.5c0,0.5-0.1,0.9-0.2,1.2l-0.4-0.1c0.1-0.4,0.2-0.8,0.2-1.2
	L50.9,68.5z M51.6,69.5h-0.4c0-0.5,0-0.8-0.1-1.1h0.3C51.5,68.7,51.5,69,51.6,69.5z M52.2,69.2l-0.4,0.1c0-0.3-0.1-0.6-0.2-0.9
	l0.3-0.1C52.1,68.6,52.1,68.8,52.2,69.2z M53.8,65.7h1.1v0.4h-1.4c-0.1,0.3-0.2,0.7-0.4,1c0.4,0,0.8-0.1,1.1-0.1
	c-0.1-0.1-0.1-0.2-0.2-0.4l0.3-0.2c0.3,0.4,0.5,0.8,0.6,1.1l-0.4,0.3c-0.1-0.1-0.1-0.3-0.2-0.4c-0.1,0-0.2,0-0.3,0.1v1.8
	c0,0.1,0,0.1,0.2,0.1h0.2c0,0,0.1,0,0.1-0.1s0-0.3,0-0.8l0.4,0.1c0,0.6-0.1,0.9-0.2,1c-0.1,0.1-0.2,0.2-0.3,0.2H54
	c-0.1,0-0.2,0-0.3-0.1c-0.1-0.1-0.1-0.2-0.1-0.3v-1.8c-0.1,0-0.2,0-0.3,0c0,0.6-0.1,1.1-0.2,1.4c-0.1,0.4-0.4,0.7-0.7,0.9l-0.3-0.4
	c0.3-0.2,0.5-0.5,0.6-0.7c0.1-0.2,0.2-0.6,0.2-1.2c-0.2,0-0.3,0-0.5,0l-0.1-0.4c0.1,0,0.2,0,0.4,0c0.2-0.3,0.3-0.6,0.4-1h-0.8v-0.4
	h1.1c-0.1-0.1-0.1-0.3-0.2-0.4l0.4-0.2C53.6,65.3,53.7,65.5,53.8,65.7z"/>
<path class="st0" d="M55.9,68.3v-0.4h1.3v0.4H55.9z"/>
<path class="st0" d="M59.6,65.5h0.9v0.4H60l0.2,0.1c-0.1,0.3-0.2,0.5-0.3,0.7h0.5v0.4h-0.9v0.4h0.9v0.4h-0.9
	c0.3,0.2,0.6,0.5,0.9,0.7l-0.3,0.3c-0.2-0.2-0.4-0.4-0.6-0.6v1.4h-0.4v-1.3c-0.2,0.4-0.5,0.7-0.8,0.9L58,68.9c0.4-0.3,0.7-0.7,1-1.1
	h-0.8v-0.4h0.9V67h-1v-0.4h0.6c-0.1-0.2-0.1-0.4-0.2-0.7l0.3-0.1h-0.6v-0.4h0.9c-0.1-0.1-0.1-0.2-0.2-0.3l0.4-0.1
	C59.4,65.3,59.5,65.4,59.6,65.5z M59.5,66.7c0.1-0.2,0.2-0.5,0.3-0.8h-0.9c0.1,0.2,0.2,0.5,0.2,0.8H59.5z M62.7,65.8
	c-0.5,0.1-1,0.2-1.5,0.2v0.8h1.5v0.4h-0.5v2.5h-0.4v-2.5h-0.6v0.4c0,0.4-0.1,0.7-0.2,1.1c-0.1,0.3-0.2,0.7-0.5,1l-0.3-0.4
	c0.2-0.2,0.3-0.5,0.4-0.8c0.1-0.3,0.1-0.6,0.1-1v-2c0.7,0,1.3-0.1,1.7-0.3L62.7,65.8z"/>
<path class="st0" d="M64.9,65.7h0.7v0.4h-1.9v-0.4h0.7c-0.1-0.2-0.1-0.3-0.2-0.5l0.5-0.1C64.7,65.3,64.8,65.5,64.9,65.7z M65.4,69.4
	h-1.1v0.4h-0.4V68h1.5V69.4z M65.4,66.5v0.4h-1.5v-0.4H65.4z M65.4,67.2v0.4h-1.5v-0.4H65.4z M64.9,69v-0.6h-0.6V69H64.9z
	 M67.6,66.5c0,0.1,0.1,0.2,0.2,0.2h0.4v0.4h-0.5c-0.2,0-0.3,0-0.4-0.1c-0.1-0.1-0.1-0.2-0.1-0.4v-0.8h-0.8c0,0.3,0,0.6-0.1,0.7
	c-0.1,0.2-0.2,0.4-0.5,0.7l-0.3-0.3c0.2-0.2,0.3-0.4,0.4-0.5c0-0.1,0.1-0.4,0.1-1h1.7L67.6,66.5L67.6,66.5z M67.8,67.2v0.3
	c-0.1,0.5-0.3,0.9-0.6,1.3c0.3,0.2,0.6,0.3,1.1,0.5L68,69.7c-0.5-0.2-0.8-0.3-1.1-0.5c-0.3,0.2-0.7,0.4-1.1,0.6l-0.3-0.4
	c0.4-0.1,0.8-0.3,1-0.5c-0.3-0.3-0.5-0.6-0.7-1l0.4-0.2c0.2,0.3,0.4,0.6,0.7,0.9c0.2-0.3,0.4-0.6,0.5-0.9h-1.7v-0.4L67.8,67.2
	L67.8,67.2z"/>
<path class="st0" d="M73.1,65.3c-0.1,0.5-0.3,1-0.4,1.4h0.9c-0.2,0.9-0.5,1.6-0.9,2c0.3,0.2,0.7,0.4,1.1,0.6l-0.3,0.5
	c-0.5-0.2-0.9-0.4-1.2-0.7c-0.4,0.3-0.8,0.5-1.4,0.7l-0.4-0.5c0.6-0.1,1-0.3,1.4-0.5c-0.4-0.4-0.8-0.9-1-1.4
	c-0.1,0.5-0.2,0.9-0.4,1.2c-0.2,0.4-0.5,0.8-0.9,1.2l-0.4-0.3c0.5-0.5,0.9-1,1.1-1.6c0.2-0.5,0.3-1,0.3-1.6V66h-1v-0.4h3.5V65.3z
	 M71.1,66.1c0,0.6,0.2,1.2,0.7,1.7c0.2,0.2,0.3,0.4,0.6,0.6c0.3-0.3,0.5-0.7,0.6-1.3h-1c0.1-0.3,0.3-0.8,0.4-1.4h-1.3V66.1z"/>
<path class="st0" d="M1.4,74.6L1.1,75c-0.3-0.2-0.5-0.4-0.8-0.6L0.6,74C0.9,74.3,1.2,74.4,1.4,74.6z M1.5,75.6
	c-0.2,0.7-0.5,1.3-0.8,1.8L0.4,77c0.2-0.4,0.5-0.9,0.8-1.6L1.5,75.6z M1.6,73.4l-0.3,0.5c-0.2-0.3-0.5-0.5-0.8-0.6l0.3-0.4
	C1.1,73,1.4,73.2,1.6,73.4z M2.8,73.8c0-0.3,0-0.6,0-1h0.5c0,0.4,0,0.7,0,1h1.6v0.4H3.8c0.1,0.5,0.3,1,0.4,1.4
	c0.2,0.4,0.4,0.9,0.7,1.3l-0.3,0.4c-0.3-0.5-0.6-1-0.8-1.6c-0.2-0.4-0.3-1-0.5-1.6H3.2c-0.1,0.5-0.2,1-0.3,1.4
	c-0.2,0.6-0.6,1.2-1.2,1.7l-0.3-0.5c0.5-0.4,0.9-0.9,1.1-1.4c0.1-0.3,0.2-0.7,0.3-1.2H1.7v-0.4L2.8,73.8L2.8,73.8z M3.7,76.9
	l-0.4,0.3c-0.1-0.3-0.4-0.6-0.6-1L3,76C3.3,76.4,3.6,76.7,3.7,76.9z"/>
<path class="st0" d="M5.9,73.7v-0.9h0.4v0.9h0.4c0.2-0.1,0.4-0.3,0.5-0.4c0.1-0.1,0.2-0.3,0.3-0.5h0.4c0,0.1-0.1,0.2-0.1,0.3h1.3
	v0.3c-0.1,0.2-0.2,0.3-0.3,0.4h0.8v1.7H9.2v-1.3H7.4v1.3H7V74l-0.1-0.2v0.4H6.4v0.9c0.1-0.1,0.3-0.2,0.4-0.3v0.5
	c-0.1,0.1-0.3,0.2-0.4,0.3v1.3c0,0.2,0,0.3-0.1,0.4c-0.1,0.1-0.2,0.1-0.4,0.1H5.5l-0.1-0.5c0.1,0,0.3,0,0.3,0c0.1,0,0.2,0,0.2-0.1
	v-1c-0.2,0.1-0.4,0.1-0.5,0.2l-0.1-0.5c0.2,0,0.4-0.1,0.6-0.2v-1.1H5.3v-0.4L5.9,73.7L5.9,73.7z M8.1,75.8c0,0,0-0.1,0-0.2v-0.3h0.5
	v0.3c0,0.1,0,0.1,0,0.2H10v0.4H8.7c0.2,0.2,0.3,0.3,0.5,0.4c0.2,0.1,0.4,0.2,0.8,0.3l-0.2,0.4c-0.4-0.2-0.7-0.3-0.9-0.5
	c-0.1-0.1-0.3-0.3-0.4-0.5c-0.1,0.1-0.1,0.2-0.2,0.3c-0.2,0.3-0.7,0.5-1.2,0.6l-0.3-0.4c0.6-0.1,0.9-0.3,1.1-0.5
	C8,76.2,8,76.1,8.1,76H7v-0.4h1.1V75.8z M8.3,73.9c0.1-0.1,0.3-0.2,0.4-0.4h-1c-0.1,0.1-0.2,0.3-0.4,0.4H8.3z M8.6,74.4
	c0,0.1-0.1,0.2-0.1,0.2c0.2,0.2,0.4,0.3,0.6,0.5l-0.3,0.4c-0.2-0.2-0.4-0.4-0.6-0.6c-0.1,0.2-0.3,0.3-0.6,0.5L7.4,75
	c0.2-0.1,0.3-0.2,0.4-0.3S8,74.5,8,74.3L8.6,74.4z"/>
<path class="st0" d="M14.7,73.2v0.5h-1.8v2.9h2v0.5h-4.5v-0.5h2v-2.9h-1.8v-0.5H14.7z"/>
<path class="st0" d="M17.1,73.3c-0.2,0.1-0.4,0.1-0.6,0.2v0.7h0.6v0.4h-0.6v0.2c0.2,0.2,0.4,0.5,0.7,0.7L17,75.9
	c-0.2-0.2-0.3-0.5-0.4-0.6v2.1h-0.4v-2c0,0,0,0,0,0.1c-0.2,0.4-0.4,0.7-0.6,1L15.4,76c0.3-0.4,0.6-0.8,0.8-1.4h-0.7v-0.4h0.7v-0.6
	c-0.2,0-0.4,0-0.5,0.1l-0.1-0.4c0.6-0.1,1.1-0.1,1.5-0.3V73.3z M19.7,75c-0.3,0.1-0.7,0.1-1.1,0.2v0.5h1.1v0.4h-1.1v0.7h1.2v0.4h-3
	v-0.4h1.3v-0.7h-1v-0.4h1v-0.5c-0.3,0-0.6,0-0.9,0l-0.1-0.4c0.9,0,1.7-0.1,2.4-0.2L19.7,75z M19.7,73v1.5h-2.4V73H19.7z M19.2,73.4
	h-1.4v0.7h1.4V73.4z"/>
<path class="st1" d="M3.9,7H1.5v0.7H0.7V1.2h3.2V7z M3,3.6V2H1.4v1.7H3V3.6z M3,6.2V4.4H1.4v1.8H3z M4.7,0.9h3.9v6.9
	c0,0.3-0.1,0.5-0.2,0.7C8.3,8.6,8.1,8.7,7.8,8.7H6.3L6.1,7.9L7.4,8c0.2,0,0.3-0.1,0.3-0.3V6H5.4C5.3,6.3,5.2,6.6,5.1,6.9
	c-0.3,0.6-0.8,1.3-1.6,2L2.7,8.3c0.7-0.5,1.2-1,1.5-1.6c0.2-0.5,0.4-1.2,0.4-2.2V3.9L4.7,0.9L4.7,0.9z M7.7,5.2V3.8H5.6v0.6
	c0,0.3,0,0.5,0,0.8H7.7z M7.7,3V1.7H5.6V3H7.7z"/>
<path class="st1" d="M17.7,8.8h-0.9V8.1h-4.6v0.6h-0.9V0.9h6.5v7.9H17.7z M16.8,4V1.8h-4.6V4H16.8z M16.8,7.3V4.9h-4.6v2.4H16.8z"/>
<path class="st1" d="M23.2,6.5c-0.6,0.7-1.4,1.4-2.4,1.9l-0.6-0.7c0.9-0.5,1.6-1,2.3-1.7L23.2,6.5z M28.3,1.5
	c-1.1,0.2-2.5,0.4-4.1,0.5c-0.2,0.4-0.6,0.8-1.1,1.2c0.7,0,1.4-0.1,2.1-0.1c0.4-0.3,0.7-0.6,1.1-1l0.8,0.4c-1.2,1.1-2.4,2-3.5,2.7
	c1.3,0,2.4-0.1,3.3-0.2c-0.2-0.3-0.4-0.7-0.6-1L27,3.6c0.7,0.9,1.2,1.7,1.6,2.4l-0.8,0.5c-0.1-0.3-0.3-0.6-0.4-0.9
	c-0.6,0.1-1.4,0.2-2.3,0.2v2c0,0.3-0.1,0.6-0.3,0.7c-0.1,0.1-0.4,0.2-0.8,0.2h-0.8L23,7.8c0.3,0.1,0.6,0.1,0.8,0.1
	c0.3,0,0.4-0.1,0.4-0.2V5.9C23.2,6,22.2,6,21,6l-0.2-0.8c0.6,0,1.2,0,1.7,0c0.7-0.4,1.4-0.9,2.1-1.5c-1,0.1-2.1,0.2-3.3,0.2
	l-0.2-0.7c0.4,0,0.7,0,1,0C22.6,2.8,23,2.4,23.4,2c-0.8,0-1.7,0-2.6,0l-0.3-0.7c2.9,0,5.4-0.2,7.5-0.5L28.3,1.5z M28.6,7.8l-0.7,0.6
	c-0.5-0.6-1.3-1.2-2.2-1.9l0.6-0.6C27.2,6.6,28,7.2,28.6,7.8z"/>
<path class="st1" d="M32.3,0.9c-0.3,0.8-0.6,1.6-1,2.2c0.3,0,0.5-0.1,0.8-0.1c0.2-0.4,0.4-0.8,0.6-1.3l0.7,0.2
	c-0.6,1.4-1.3,2.5-2,3.3c0.5-0.1,0.9-0.1,1.2-0.2c-0.1-0.2-0.2-0.5-0.2-0.7l0.7-0.2c0.2,0.6,0.4,1.2,0.6,1.9L33,6.2
	c0-0.2-0.1-0.3-0.1-0.5c-0.6,0.2-1.5,0.3-2.6,0.4l-0.2-0.8c0.2,0,0.4,0,0.6,0c0.3-0.5,0.7-1,1.1-1.7c-0.5,0.1-1,0.2-1.6,0.3L30,3.2
	c0.2,0,0.3,0,0.5,0c0.4-0.8,0.8-1.6,1.1-2.6L32.3,0.9z M31,6.5c-0.1,0.9-0.1,1.6-0.3,2.2l-0.8-0.2c0.2-0.6,0.3-1.3,0.4-2.1L31,6.5z
	 M32.3,8.3l-0.8,0.1c0-0.8-0.1-1.5-0.1-1.9l0.7-0.1C32.2,6.9,32.3,7.5,32.3,8.3z M33.6,7.7l-0.7,0.2c-0.1-0.5-0.2-1-0.3-1.5l0.6-0.2
	C33.3,6.7,33.4,7.2,33.6,7.7z M36.5,1.6h2v0.7h-2.7C35.6,2.9,35.4,3.5,35,4c0.8,0,1.5-0.1,2.1-0.3C37,3.5,36.9,3.3,36.7,3l0.6-0.4
	c0.5,0.7,0.9,1.3,1.2,1.9L37.7,5c-0.1-0.2-0.2-0.5-0.3-0.7c-0.2,0-0.4,0.1-0.6,0.1v3.1c0,0.2,0.1,0.2,0.3,0.2h0.4
	c0.1,0,0.1,0,0.2-0.2c0-0.1,0.1-0.6,0.1-1.4l0.8,0.2c-0.1,1-0.2,1.6-0.3,1.8c-0.1,0.2-0.3,0.3-0.7,0.3h-0.8c-0.3,0-0.4-0.1-0.6-0.2
	C36.1,8.1,36,7.9,36,7.7V4.5c-0.2,0-0.4,0.1-0.6,0.1c-0.1,1.1-0.2,1.9-0.4,2.5c-0.3,0.6-0.7,1.2-1.4,1.6L33.1,8
	c0.6-0.4,1-0.8,1.2-1.3c0.2-0.4,0.3-1.1,0.4-2.1c-0.3,0-0.7,0.1-1,0.1l-0.2-0.8c0.2,0,0.4,0,0.7,0c0.4-0.6,0.6-1.1,0.8-1.8h-1.5V1.4
	h2.1c-0.1-0.2-0.3-0.5-0.5-0.7l0.8-0.3C36.2,0.9,36.4,1.2,36.5,1.6z"/>
<path class="st1" d="M3,13.3c-0.1,0.1-0.2,0.3-0.2,0.4h2.5v0.7H3.8c0,0.3,0,0.5-0.1,0.7h1.7v0.7H3.7c0.7,0.3,1.2,0.7,1.7,1l-0.6,0.6
	c-0.4-0.3-0.9-0.6-1.5-1c-0.2,0.4-0.6,0.7-1.2,1h6.5v3.8H7.7v-0.4H2.8v0.4H2v-3.7c-0.2,0.1-0.4,0.2-0.7,0.3l-0.5-0.7
	c0.8-0.3,1.4-0.7,1.7-1c0.1-0.1,0.2-0.2,0.2-0.4H0.9V15h2c0-0.2,0.1-0.5,0.1-0.7H2.2c-0.2,0.2-0.4,0.4-0.7,0.6l-0.6-0.5
	c0.4-0.2,0.6-0.4,0.9-0.6C2,13.6,2.2,13.3,2.3,13L3,13.3z M7.7,18.9v-0.7H2.8v0.7H7.7z M7.7,20.2v-0.7H2.8v0.7H7.7z M9.1,13.7v3.2
	H5.7v-3.2H9.1z M8.2,14.4H6.5v1.8h1.7V14.4z"/>
<path class="st1" d="M12.3,19.4c-0.2,0.4-0.3,0.7-0.4,0.8c-0.1,0.2-0.3,0.4-0.6,0.7l-0.6-0.5c0.3-0.2,0.5-0.4,0.6-0.6
	c0.1-0.2,0.3-0.4,0.4-0.7L12.3,19.4z M12.7,13.5v-0.4h0.8v0.4h1.3v0.6h-1.3v0.4h1.2V15h-1.2v0.4l1.3-0.1l0.1,0.6L13.5,16v0.5h3.1
	v-0.4h-1.4v-0.6h1.4V15h-1.4v-0.6h1.4V14h-1.4v-0.6h1.4V13h0.8v0.4h1.7V14h-1.7v0.4H19V15h-1.6v0.5h1.7v0.6h-1.7v0.4h1.2v0.9h0.9V18
	h-0.9v1h-7.1v-0.6h6.2V18h-6.8v-0.6h6.8V17h-6.2v-0.6h1.3V16l-1.6,0.1l-0.1-0.6l1.7-0.1V15h-1.5v-0.5h1.5v-0.4H11v-0.6H12.7z
	 M13.6,19.3v0.9c0,0.2,0.1,0.2,0.3,0.2H16c0.2,0,0.4,0,0.5-0.1c0.1-0.1,0.2-0.3,0.3-0.8l0.8,0.2c-0.1,0.6-0.3,1-0.5,1.1
	c-0.2,0.1-0.5,0.2-1,0.2h-2.6c-0.3,0-0.5-0.1-0.6-0.2c-0.2-0.1-0.2-0.3-0.2-0.5v-1.1L13.6,19.3L13.6,19.3z M15.9,19.5l-0.4,0.6
	c-0.3-0.3-0.7-0.5-1-0.7l0.4-0.5C15.2,19.1,15.6,19.3,15.9,19.5z M19.2,20.4l-0.7,0.5c-0.3-0.4-0.6-0.9-1.1-1.5l0.6-0.3
	C18.6,19.6,18.9,20,19.2,20.4z"/>
<path class="st1" d="M27.8,15.1v0.7h-2c-0.3,0.2-0.5,0.4-0.8,0.5c0.3,0.4,0.6,0.8,0.7,1.2c0.7-0.3,1.3-0.7,2-1.3l0.7,0.6
	c-0.4,0.3-0.8,0.6-1.3,0.9c0.2,0.5,0.5,0.9,0.8,1.3c0.3,0.4,0.7,0.8,1.2,1.2l-0.6,0.7c-0.6-0.5-1.1-1-1.4-1.6
	c-0.3-0.4-0.5-0.8-0.7-1.3c-0.1,0.1-0.3,0.1-0.4,0.2c0.1,0.4,0.1,0.8,0.1,1.1c0,0.7-0.1,1.1-0.3,1.4c-0.2,0.3-0.9,0.5-2,0.5
	l-0.3-0.9c0,0,0.2,0.1,0.5,0.1c0.5,0,0.8-0.1,0.9-0.2c0.1-0.2,0.2-0.5,0.2-0.9c0-0.1,0-0.3,0-0.4c-0.5,0.4-1,0.7-1.4,0.9
	c-0.7,0.3-1.5,0.7-2.6,1L20.6,20c1-0.3,1.9-0.6,2.7-0.9c0.6-0.3,1.2-0.6,1.6-1c0-0.1,0-0.2-0.1-0.2c0-0.1-0.1-0.2-0.1-0.2
	c-0.5,0.3-1,0.6-1.4,0.8c-0.6,0.3-1.4,0.5-2.3,0.8l-0.4-0.7c0.9-0.2,1.7-0.4,2.4-0.7c0.5-0.2,1-0.4,1.4-0.7
	c-0.1-0.1-0.1-0.2-0.2-0.3c-0.8,0.3-1.8,0.6-2.8,0.9l-0.5-0.7c1.2-0.2,2.1-0.4,2.7-0.7c0.3-0.1,0.5-0.2,0.8-0.3H22v-0.7h5.8V15.1z
	 M25.3,13.8H29v1.8h-0.8v-1h-6.4v1H21v-1.8h3.5c-0.1-0.2-0.2-0.4-0.3-0.5l1-0.1C25.1,13.3,25.2,13.5,25.3,13.8z"/>
</svg>
