<?xml version="1.0" encoding="utf-8"?>
<!-- Generator: Adobe Illustrator 25.2.3, SVG Export Plug-In . SVG Version: 6.00 Build 0)  -->
<svg version="1.1" id="圖層_1" xmlns="http://www.w3.org/2000/svg" xmlns:xlink="http://www.w3.org/1999/xlink" x="0px" y="0px"
	 viewBox="0 0 90 78" style="enable-background:new 0 0 90 78;" xml:space="preserve">
<style type="text/css">
	.st0{fill:#3E3A39;}
	.st1{fill:#C9A063;}
</style>
<path class="st0" d="M2.2,43.4v-0.5h2.3c0.4,0.7,1.3,1.3,2.6,1.9l-0.4,0.6c-0.2-0.1-0.4-0.2-0.5-0.3v0.4H4.4v1h1.7V47H4.4v1.1h2.5
	v0.5H1.3v-0.5h2.4V47H2v-0.5h1.7v-1H2v-0.4c-0.2,0.1-0.3,0.2-0.5,0.2l-0.4-0.6c0.7-0.3,1.2-0.5,1.6-0.8c0.3-0.2,0.5-0.4,0.7-0.6
	L2.2,43.4L2.2,43.4z M5.9,44.9c-0.3-0.2-0.5-0.3-0.7-0.5c-0.5-0.3-0.8-0.7-1.1-1.1c-0.2,0.3-0.4,0.6-0.6,0.8
	c-0.3,0.3-0.7,0.5-1.1,0.8H5.9z"/>
<path class="st0" d="M10.7,43c-0.4,0.8-0.8,1.4-1.3,1.9c0.1,0,0.2,0,0.3,0c1,0,1.9-0.1,2.9-0.2c-0.2-0.3-0.5-0.6-0.8-1l0.5-0.4
	c0.6,0.7,1.1,1.3,1.5,2l-0.5,0.5c-0.1-0.2-0.2-0.4-0.3-0.5c-1.3,0.2-2.8,0.3-4.7,0.3l-0.1-0.7c0.2,0,0.4,0,0.6,0.1
	c0.4-0.5,0.8-1.2,1.3-2.1L10.7,43z M13.3,48.7h-0.6v-0.4H9.3v0.4H8.7V46h4.7L13.3,48.7L13.3,48.7z M12.7,47.8v-1.2H9.3v1.2H12.7z"/>
<path class="st0" d="M17.4,44.9v-2.1h0.7v2.1h2.6v0.6h-2.6v3.2h-0.7v-3.2h-2.6v-0.6H17.4z"/>
<path class="st0" d="M24,44.5c0-0.3,0.1-0.7,0.1-1.2v-0.4h0.7v0.4c0,0.4,0,0.8-0.1,1.2h2.7v0.6h-1.9c0.1,0.7,0.3,1.2,0.6,1.6
	c0.4,0.5,0.8,1,1.4,1.3l-0.4,0.6c-0.7-0.5-1.2-1-1.6-1.6c-0.3-0.5-0.6-1.2-0.7-1.9h-0.2c-0.1,0.4-0.2,0.8-0.4,1.2
	c-0.3,0.8-1,1.6-2,2.4l-0.6-0.5c0.9-0.6,1.6-1.3,1.9-2.1c0.1-0.3,0.3-0.6,0.3-1h-2.2v-0.6H24z"/>
<path class="st0" d="M31.8,43.2v-0.5h0.6v0.5H34v0.9h0.4v0.5H34v1h-1.5V46H34v0.5h-1.6V47h1.9v0.5h-1.9V48c0.1,0,0.2,0,0.3,0
	c0.8,0,1.3,0,1.7,0l-0.1,0.7c-2,0-3.2,0-3.7-0.1c-0.4-0.1-0.7-0.3-0.9-0.5c0,0-0.1,0-0.1-0.1c-0.2,0.3-0.5,0.5-0.8,0.8l-0.3-0.6
	c0.3-0.2,0.6-0.5,0.8-0.7c-0.2-0.3-0.4-0.8-0.6-1.3l0.5-0.2c0.1,0.4,0.3,0.7,0.4,0.9v-0.1c0.1-0.3,0.1-0.7,0.2-1.2h-1.1v-0.4
	c0.4-0.5,0.7-1,1.1-1.5h-1.2v-0.5h1.8v0.6c-0.4,0.6-0.7,1.1-1,1.4h1c0,0.7-0.1,1.3-0.2,1.7c-0.1,0.2-0.1,0.4-0.2,0.6
	c0.2,0.2,0.4,0.3,0.7,0.4c0.2,0.1,0.7,0.1,1.2,0.2v-0.5h-1.5v-0.5h1.5v-0.5h-1.3V46h1.3v-0.4h-1.2v-0.5h1.2v-0.5h-1.5v-0.5h1.5v-0.5
	h-1.2v-0.5L31.8,43.2L31.8,43.2z M32.4,44.2h1v-0.5h-1V44.2z M32.4,45.2h1v-0.5h-1V45.2z"/>
<path class="st0" d="M36.8,42.9c-0.1,0.1-0.1,0.2-0.2,0.4h1.6v0.5c0.3-0.3,0.5-0.6,0.6-1l0.6,0.1c-0.1,0.1-0.1,0.3-0.2,0.4h1.9v0.5
	H40c0.1,0.2,0.1,0.3,0.2,0.5l-0.6,0.1c0-0.2-0.1-0.4-0.1-0.5H39c-0.1,0.2-0.3,0.4-0.5,0.6L38,44c0.1-0.1,0.2-0.1,0.2-0.2h-0.9
	c0.1,0.1,0.1,0.3,0.2,0.5l-0.6,0.1c0-0.2-0.1-0.3-0.1-0.5h-0.5c-0.2,0.2-0.3,0.4-0.5,0.6l-0.5-0.3c0.5-0.4,0.8-0.8,1-1.2L36.8,42.9z
	 M38,46.5v-0.3L37.7,46c0.3-0.1,0.5-0.2,0.7-0.3c-0.2-0.1-0.3-0.1-0.5-0.2l0.3-0.4c0.2,0.1,0.3,0.1,0.5,0.2c0-0.1,0-0.1,0-0.2v-0.2
	H38v-0.5h2.3v1.3c0,0.1,0.1,0.2,0.2,0.2c0.1,0,0.1,0,0.1-0.1c0,0,0.1-0.2,0.1-0.5l0.5,0.2c0,0.4-0.1,0.7-0.2,0.8
	c-0.1,0.1-0.2,0.1-0.4,0.1h-0.3c-0.2,0-0.3,0-0.4-0.1c-0.1-0.1-0.1-0.2-0.1-0.4v-1h-0.6v0.2c0,0.1,0,0.3-0.1,0.4
	c0.2,0.1,0.4,0.2,0.6,0.3l-0.3,0.5c-0.2-0.1-0.4-0.2-0.6-0.3c-0.1,0.1-0.3,0.2-0.4,0.3h0.1v0.3h2.6v0.5h-2c0.2,0.2,0.4,0.3,0.6,0.4
	c0.3,0.2,0.8,0.3,1.3,0.5l-0.3,0.5c-0.7-0.2-1.2-0.5-1.5-0.7s-0.5-0.4-0.8-0.7v1.6H38v-1.6c-0.2,0.2-0.4,0.5-0.7,0.6
	c-0.4,0.3-1,0.6-1.7,0.8L35.3,48c0.8-0.2,1.3-0.4,1.6-0.6c0.2-0.1,0.3-0.2,0.4-0.3h-2.1v-0.5L38,46.5L38,46.5z M37.8,44.5V45H37v0.6
	c0.3-0.1,0.6-0.1,0.9-0.2v0.5c-0.7,0.2-1.5,0.3-2.4,0.5l-0.1-0.6c0.4,0,0.7-0.1,1.1-0.1V45h-0.9v-0.5H37.8z"/>
<path class="st0" d="M43.9,42.9c-0.1,0.2-0.1,0.4-0.2,0.6h0.8v2h-1.6v0.7h1.8v2.5h-0.6v-0.4h-1.2v0.4h-0.6v-5.2h0.8
	c0.1-0.2,0.2-0.4,0.2-0.6H43.9z M44,44.9v-1h-1.1v1H44z M44.1,47.6v-1h-1.2v1H44.1z M48,43.1v0.6h-1.3v0.7h1.1v3.3
	c0,0.2,0,0.3-0.1,0.4c-0.1,0.1-0.2,0.2-0.4,0.2H47l-0.1-0.6h0.3c0.1,0,0.1-0.1,0.1-0.2v-2.6h-0.6v3.8h-0.6v-3.8h-0.6v3.3H45v-3.9
	h1.1v-0.7h-1.4V43L48,43.1L48,43.1z"/>
<path class="st0" d="M3.1,54.1c-0.2,0-0.6,0.1-1.1,0.1v0.3h1v0.4H2v0.3h1v0.5H2v0.4h4.1v-0.4h-1v-0.5h1V55h-1v-0.4h1v-0.4h-1v-0.5
	h1.6v2.4H7v1.3H6.4v-0.8H1.9v0.8H1.3v-1.3h0.3v-2.3c0.5,0,0.9-0.1,1.4-0.2L3.1,54.1z M6,56.9v0.5c-0.4,0.2-0.9,0.4-1.5,0.6h2.4v0.5
	H4.5v0.6c0,0.1,0,0.2-0.1,0.3c-0.1,0.1-0.2,0.1-0.3,0.1h-1L3,59c0.2,0,0.5,0,0.7,0c0.1,0,0.2,0,0.2-0.1v-0.4H1.4V58h2.5v-0.2
	c0.4-0.1,0.7-0.2,1.2-0.3H2.4V57L6,56.9L6,56.9z M5,53.8c-0.1,0.1-0.3,0.3-0.4,0.4c0.1,0.1,0.2,0.2,0.3,0.2l-0.3,0.3
	c-0.1-0.1-0.2-0.2-0.3-0.3c-0.2,0.1-0.5,0.3-0.8,0.4l-0.3-0.4c0.2-0.1,0.4-0.1,0.7-0.3c-0.1-0.1-0.3-0.2-0.5-0.3l0.3-0.3
	c0.2,0.1,0.4,0.2,0.5,0.3c0.1-0.1,0.3-0.2,0.4-0.3L5,53.8z M5.1,55c-0.2,0.2-0.3,0.3-0.5,0.4c0.1,0.1,0.3,0.2,0.4,0.3L4.7,56
	c-0.1-0.1-0.3-0.2-0.4-0.4c-0.2,0.1-0.4,0.2-0.7,0.3l-0.3-0.4c0.2-0.1,0.4-0.1,0.6-0.2c-0.1-0.1-0.3-0.2-0.4-0.3l0.3-0.3
	C4,54.8,4.1,54.9,4.3,55c0.2-0.1,0.3-0.2,0.5-0.4L5.1,55z"/>
<path class="st0" d="M13.8,54.2H9v2.2c0,0.5,0,0.9-0.1,1.4c-0.1,0.5-0.2,1-0.4,1.5L8,58.8c0.2-0.4,0.3-0.8,0.3-1.2
	c0-0.4,0.1-0.9,0.1-1.2v-2.7h5.4V54.2z M11.8,57.4v0.4h1.7v0.5h-1.7v0.5h2.1v0.5H9v-0.5h0.8v-1.1h0.6v1.1h0.8v-1.4H11.8z M11.4,54.8
	c-0.2,0.1-0.5,0.1-0.8,0.1v0.4h0.7v0.5h-0.7c0.3,0.2,0.5,0.3,0.8,0.5l-0.3,0.4c-0.2-0.2-0.4-0.3-0.5-0.4v1h-0.5v-1
	c-0.2,0.3-0.5,0.5-0.8,0.8L9,56.7c0.4-0.3,0.8-0.6,1-0.9H9.1v-0.5H10V55c-0.2,0-0.5,0-0.8,0l-0.1-0.5c0.8,0,1.4-0.1,1.9-0.2
	L11.4,54.8z M13.7,54.8c-0.3,0.1-0.6,0.1-0.9,0.2v0.4h1.1v0.5h-1.1V56c0.4,0.3,0.7,0.5,1.1,0.8l-0.3,0.5c-0.3-0.3-0.6-0.6-0.8-0.8v1
	h-0.5v-1c-0.2,0.3-0.5,0.6-0.7,0.8l-0.3-0.4c0.4-0.3,0.7-0.6,0.9-0.9h-0.7v-0.5h0.7V55c-0.2,0-0.4,0-0.7,0l-0.1-0.5
	c0.8,0,1.4-0.1,2-0.2L13.7,54.8z"/>
<path class="st0" d="M17.4,55.6v-0.8h0.8v0.8H17.4z M17.4,57.9v-0.8h0.8v0.8H17.4z"/>
<path class="st0" d="M3.5,63.1h1.1c0.2-0.2,0.4-0.5,0.5-0.8l0.6,0.2c-0.1,0.2-0.3,0.4-0.5,0.6h1.4v0.5H4.2V64h2.1v0.5H4.2v0.1
	c0,0.1,0,0.2,0,0.3H7v0.6H4.3c0,0.2-0.1,0.4-0.1,0.5H7v0.5H4.8c0.1,0.2,0.2,0.3,0.3,0.4c0.2,0.1,0.4,0.3,0.7,0.4
	c0.3,0.1,0.7,0.2,1.2,0.3l-0.4,0.6c-0.5-0.1-1-0.3-1.3-0.4c-0.3-0.2-0.6-0.3-0.8-0.5s-0.3-0.4-0.4-0.7H3.9c-0.1,0.2-0.2,0.4-0.3,0.6
	c-0.4,0.6-1.2,0.9-2.4,1.1l-0.3-0.6c1.1-0.1,1.8-0.4,2.2-0.9c0.1-0.1,0.1-0.1,0.1-0.2H1v-0.5h2.4c0-0.2,0.1-0.3,0.1-0.5H1V65h2.6
	c0-0.1,0-0.2,0-0.3v-0.1h-2V64h2v-0.4H1.3v-0.5h1.4c-0.1-0.2-0.3-0.3-0.4-0.5l0.6-0.2C3.2,62.6,3.4,62.8,3.5,63.1z"/>
<path class="st0" d="M13.7,68.2h-0.6V68H8.8v0.2H8.3v-5.7h5.4V68.2z M13.1,67.5V63H8.8v4.5H13.1z M11.1,66.6c-0.6,0.2-1.2,0.3-2,0.5
	L9,66.5c0.7-0.1,1.4-0.2,2.1-0.4V66.6z M11.1,63.8c0-0.2,0-0.4,0-0.6h0.5c0,0.2,0,0.4,0,0.6h0.6c-0.1-0.2-0.1-0.3-0.2-0.5l0.5-0.1
	c0.1,0.2,0.2,0.3,0.3,0.6l-0.3,0.1H13v0.5h-1.3c0,0.4,0.1,0.7,0.1,1c0,0.2,0.1,0.4,0.1,0.6c0.2-0.3,0.4-0.8,0.6-1.4l0.4,0.3
	c-0.3,0.8-0.6,1.3-0.8,1.7c0,0,0,0.1,0.1,0.1c0.1,0.2,0.2,0.3,0.3,0.3c0,0,0.1-0.3,0.2-0.8l0.5,0.4c-0.1,0.5-0.2,0.8-0.3,0.8
	c-0.1,0.1-0.2,0.1-0.3,0.1c-0.2,0-0.4-0.1-0.5-0.3C12,67.1,12,67,11.9,66.9c-0.2,0.2-0.5,0.5-0.7,0.7l-0.3-0.4
	c0.3-0.2,0.6-0.5,0.8-0.7c-0.1-0.2-0.2-0.5-0.2-0.7c-0.1-0.3-0.1-0.8-0.2-1.3H9V64h2.1V63.8z M10.8,64.6v1.5H9.3v-1.5H10.8z
	 M10.3,65H9.7v0.6h0.6V65z"/>
<path class="st0" d="M17.6,62.4v0.8h2.6v0.6h-2.6v0.9h3v0.6h-3v0.5c0.8,0.4,1.6,0.8,2.4,1.2l-0.4,0.6c-0.8-0.5-1.5-0.9-2-1.2v1.9H17
	v-3h-2.1v-0.6H17v-2.3H17.6z"/>
<path class="st0" d="M27.1,67.6c0,0.2-0.1,0.4-0.2,0.5s-0.2,0.2-0.4,0.2h-1.1l-0.1-0.6l1,0.1c0.1,0,0.2-0.1,0.2-0.3v-0.9L26.1,67
	c-0.4-0.3-0.7-0.7-0.9-1c-0.2-0.3-0.4-0.7-0.6-1.1c-0.1,0.3-0.2,0.5-0.3,0.7c-0.3,0.5-0.7,1-1.3,1.5l-0.3-0.4v1.6h-0.6v-4.6h2.2V63
	h-1.4v-0.5h2v1.1H27v4H27.1z M23.8,65.2c0.2-0.3,0.3-0.6,0.4-1h-1.5v2.2C23.3,66,23.6,65.6,23.8,65.2z M25.5,65.3
	c0.2,0.4,0.5,0.7,1,1.1v-2.2H25C25.1,64.6,25.3,65,25.5,65.3z"/>
<path class="st0" d="M29.6,62.9v-0.5h0.6v0.5h2.5v-0.5h0.6v0.5h1v0.5h-1v2h1.1v0.5h-1.1c0.1,0.1,0.3,0.3,0.4,0.3
	c0.2,0.1,0.5,0.3,0.9,0.4l-0.3,0.6c-0.4-0.1-0.6-0.3-0.9-0.4v0.4h-1.7v0.5H34v0.5h-5.3v-0.5H31v-0.5h-1.6v-0.4
	c-0.3,0.2-0.5,0.3-0.9,0.4l-0.3-0.5c0.4-0.1,0.8-0.3,1-0.5c0.1-0.1,0.2-0.2,0.3-0.3h-1.2v-0.5h1.1v-2h-1v-0.5H29.6z M31.1,66.6v-0.5
	h0.6v0.5h1.5c0,0-0.1,0-0.1-0.1c-0.2-0.1-0.4-0.4-0.6-0.6h-2.1c-0.2,0.2-0.3,0.4-0.5,0.5c-0.1,0.1-0.2,0.1-0.3,0.2H31.1z M32.7,63.7
	v-0.4h-2.5v0.4H32.7z M32.7,64.6v-0.4h-2.5v0.4H32.7z M32.7,65.4V65h-2.5v0.4H32.7z"/>
<path class="st0" d="M37.7,63.1h1.1c0.2-0.2,0.4-0.5,0.5-0.8l0.6,0.2c-0.1,0.2-0.3,0.4-0.5,0.6h1.4v0.5h-2.4V64h2.1v0.5h-2.1v0.1
	c0,0.1,0,0.2,0,0.3H41v0.6h-2.7c0,0.2-0.1,0.4-0.1,0.5H41v0.5h-2c0.1,0.2,0.2,0.3,0.3,0.4c0.2,0.1,0.4,0.3,0.7,0.4s0.7,0.2,1.2,0.3
	l-0.4,0.6c-0.5-0.1-1-0.3-1.3-0.4c-0.3-0.2-0.6-0.3-0.8-0.5s-0.3-0.4-0.4-0.7h-0.2c-0.1,0.2-0.2,0.4-0.3,0.6
	c-0.4,0.6-1.2,0.9-2.4,1.1l-0.3-0.6c1.1-0.1,1.8-0.4,2.2-0.9c0.1-0.1,0.1-0.1,0.1-0.2h-2.2v-0.5h2.4c0-0.2,0.1-0.3,0.1-0.5h-2.5V65
	h2.6c0-0.1,0-0.2,0-0.3v-0.1h-2V64h2v-0.4h-2.3v-0.5H37c-0.1-0.2-0.3-0.3-0.4-0.5l0.6-0.2C37.4,62.6,37.5,62.8,37.7,63.1z"/>
<path class="st0" d="M45.4,62.4c0.4,0.4,0.8,0.7,1.2,1c0.3,0.2,0.8,0.4,1.5,0.7l-0.4,0.6c-0.3-0.1-0.7-0.2-1-0.4v0.2h-3.4v-0.2
	c-0.3,0.1-0.6,0.3-0.9,0.4l-0.3-0.6c0.7-0.3,1.3-0.5,1.7-0.8c0.3-0.2,0.6-0.5,1-0.9h0.3H45.4z M47.5,67.7c0,0.2-0.1,0.4-0.2,0.5
	c-0.1,0.1-0.2,0.1-0.4,0.1h-0.5l-0.1-0.6l0.4,0.1c0.1,0,0.2-0.1,0.2-0.3v-0.7H46V68h-0.6v-1.2h-0.8v1.3H44v-1.3h-0.8v1.5h-0.6v-3.4
	h4.8L47.5,67.7L47.5,67.7z M44.1,66.3v-0.8h-0.8v0.8H44.1z M46.3,63.9c-0.4-0.2-0.8-0.6-1.2-0.9c-0.4,0.4-0.8,0.7-1.1,0.9H46.3z
	 M44.6,66.3h0.8v-0.8h-0.8V66.3z M46,66.3h0.8v-0.8H46V66.3z"/>
<path class="st0" d="M51.4,64c0-0.3,0.1-0.7,0.1-1.2v-0.4h0.7v0.4c0,0.4,0,0.8-0.1,1.2h2.7v0.6h-1.9c0.1,0.7,0.3,1.2,0.6,1.6
	c0.4,0.5,0.8,1,1.4,1.3l-0.4,0.6c-0.7-0.5-1.2-1-1.6-1.6c-0.3-0.5-0.6-1.2-0.7-1.9H52c-0.1,0.4-0.2,0.8-0.4,1.2
	c-0.3,0.8-1,1.6-2,2.4L49,67.7c0.9-0.6,1.6-1.3,1.9-2.1c0.1-0.3,0.3-0.6,0.3-1H49V64H51.4z"/>
<path class="st0" d="M57.8,62.9c-0.2,0-0.6,0.1-1.1,0.1v0.3h1v0.4h-1V64h1v0.5h-1v0.4h4.1v-0.4h-1V64h1v-0.3h-1v-0.4h1V63h-1v-0.5
	h1.6v2.4h0.3v1.3H61v-0.8h-4.5v0.8h-0.6V65h0.3v-2.3c0.5,0,0.9-0.1,1.4-0.2L57.8,62.9z M60.6,65.8v0.5c-0.4,0.2-0.9,0.4-1.5,0.6h2.4
	v0.5h-2.4V68c0,0.1,0,0.2-0.1,0.3s-0.2,0.1-0.3,0.1h-1l-0.1-0.5c0.2,0,0.5,0,0.7,0c0.1,0,0.2,0,0.2-0.1v-0.4H56v-0.5h2.5v-0.2
	c0.4-0.1,0.7-0.2,1.2-0.3H57v-0.5L60.6,65.8L60.6,65.8z M59.6,62.7c-0.1,0.1-0.3,0.3-0.4,0.4c0.1,0.1,0.2,0.2,0.3,0.2l-0.3,0.3
	c-0.1-0.1-0.2-0.2-0.3-0.3c-0.2,0.1-0.5,0.3-0.8,0.4l-0.3-0.4c0.2-0.1,0.4-0.1,0.7-0.3c-0.1-0.1-0.3-0.2-0.5-0.3l0.3-0.3
	c0.2,0.1,0.4,0.2,0.5,0.3c0.1-0.1,0.3-0.2,0.4-0.3L59.6,62.7z M59.7,63.8c-0.2,0.2-0.3,0.3-0.5,0.4c0.1,0.1,0.3,0.2,0.4,0.3
	l-0.3,0.3c-0.1-0.1-0.3-0.2-0.4-0.4c-0.2,0.1-0.4,0.2-0.7,0.3l-0.3-0.4c0.2-0.1,0.4-0.1,0.6-0.2c-0.1-0.1-0.3-0.2-0.4-0.3l0.3-0.3
	c0.2,0.1,0.3,0.2,0.5,0.3c0.2-0.1,0.3-0.2,0.5-0.4L59.7,63.8z"/>
<path class="st0" d="M4.5,71.7v-0.5h0.6v0.5h1.5v0.9H7v0.5H6.6v1H5.1v0.4h1.6V75H5.1v0.5H7V76H5.1v0.5c0.1,0,0.2,0,0.3,0
	c0.8,0,1.3,0,1.7,0L7,77.2c-2,0-3.2,0-3.7-0.1c-0.4-0.1-0.7-0.3-0.9-0.5c0,0-0.1,0-0.1-0.1c-0.2,0.3-0.5,0.5-0.8,0.8l-0.3-0.6
	C1.5,76.5,1.8,76.2,2,76c-0.2-0.3-0.4-0.8-0.6-1.3l0.5-0.2c0.1,0.4,0.3,0.7,0.4,0.9v-0.1c0.1-0.3,0.1-0.7,0.2-1.2H1.4v-0.4
	c0.4-0.5,0.7-1,1.1-1.5H1.3v-0.5H3v0.6c-0.4,0.6-0.7,1.1-1,1.4h1c0,0.7-0.1,1.3-0.2,1.7c-0.1,0.2-0.1,0.4-0.2,0.6
	c0.2,0.2,0.4,0.3,0.7,0.4c0.2,0.1,0.7,0.1,1.2,0.2v-0.5H3v-0.5h1.5v-0.5H3.2v-0.5h1.3v-0.4H3.3v-0.5h1.2v-0.5H3v-0.5h1.5v-0.5H3.3
	v-0.5H4.5z M5.1,72.6h1v-0.5h-1V72.6z M5.1,73.6h1v-0.5h-1V73.6z"/>
<path class="st0" d="M9.5,71.3c-0.1,0.1-0.1,0.2-0.2,0.4h1.6v0.5c0.3-0.3,0.5-0.6,0.6-1l0.6,0.1c-0.1,0.1-0.1,0.3-0.2,0.4h1.9v0.5
	h-1.1c0.1,0.2,0.1,0.3,0.2,0.5l-0.6,0.1c0-0.2-0.1-0.4-0.1-0.5h-0.6c-0.1,0.2-0.3,0.4-0.5,0.6l-0.5-0.3c0.1-0.1,0.2-0.1,0.2-0.2H10
	c0.1,0.1,0.1,0.3,0.2,0.5L9.6,73c0-0.2-0.1-0.3-0.1-0.5H9c-0.2,0.2-0.3,0.4-0.5,0.6L8,72.8c0.5-0.4,0.8-0.8,1-1.2L9.5,71.3z
	 M10.7,75v-0.3l-0.3-0.2c0.3-0.1,0.5-0.2,0.7-0.3c-0.2-0.1-0.3-0.1-0.5-0.2l0.3-0.4c0.2,0.1,0.3,0.1,0.5,0.2c0-0.1,0-0.1,0-0.2v-0.2
	h-0.7v-0.5H13v1.3c0,0.1,0.1,0.2,0.2,0.2s0.1,0,0.1-0.1c0,0,0.1-0.2,0.1-0.5l0.5,0.2c0,0.4-0.1,0.7-0.2,0.8s-0.2,0.1-0.4,0.1H13
	c-0.2,0-0.3,0-0.4-0.1c-0.1-0.1-0.1-0.2-0.1-0.4v-1h-0.6v0.2c0,0.1,0,0.3-0.1,0.4c0.2,0.1,0.4,0.2,0.6,0.3l-0.3,0.5
	c-0.2-0.1-0.4-0.2-0.6-0.3c-0.1,0.1-0.3,0.2-0.4,0.3h0.1v0.3h2.6v0.5h-2c0.2,0.2,0.4,0.3,0.6,0.4c0.3,0.2,0.8,0.3,1.3,0.5L13.4,77
	c-0.7-0.2-1.2-0.5-1.5-0.7c-0.3-0.2-0.5-0.4-0.8-0.7v1.6h-0.6v-1.6c-0.2,0.2-0.4,0.5-0.7,0.6c-0.4,0.3-1,0.6-1.7,0.8l-0.3-0.5
	c0.8-0.2,1.3-0.4,1.6-0.6c0.2-0.1,0.3-0.2,0.4-0.3H7.7V75H10.7z M10.5,73v0.5H9.6v0.6c0.3-0.1,0.6-0.1,0.9-0.2v0.5
	c-0.7,0.2-1.5,0.3-2.4,0.5L8,74.3c0.4,0,0.7-0.1,1.1-0.1v-0.7H8.2V73H10.5z"/>
<path class="st0" d="M20.3,71.4v0.5H18v0.3h2.6v1.4H20v-0.9h-2V74h-0.6v-1.3h-2v1h-0.6v-1.5h2.6v-0.3h-2.2v-0.5H20.3z M20.2,74.1V76
	l0.5,0.2c-0.1,0.4-0.2,0.7-0.3,0.8c-0.1,0.1-0.4,0.1-0.7,0.1H18c-0.2,0-0.3,0-0.4-0.1c-0.1-0.1-0.2-0.2-0.2-0.4v-0.4h-2.1v-2.1H20.2
	z M17.2,72.9v0.4h-1.5v-0.4H17.2z M17.2,73.5v0.4h-1.5v-0.4H17.2z M17.4,74.9v-0.4h-1.5v0.4H17.4z M17.4,75.3h-1.5v0.4h1.5V75.3z
	 M18,74.9h1.7v-0.4H18V74.9z M19.7,75.3H18v0.4h1.7V75.3z M18,76.5c0,0.1,0.1,0.2,0.2,0.2h1.4c0.2,0,0.3,0,0.4-0.1
	c0.1,0,0.1-0.2,0.2-0.4H18V76.5z M19.8,72.9v0.4h-1.6v-0.4H19.8z M19.8,73.5v0.4h-1.6v-0.4H19.8z"/>
<path class="st0" d="M23.6,71.4v5c0,0.2,0,0.3-0.1,0.4S23.3,77,23.1,77h-0.4l-0.1-0.6H23c0.1,0,0.1-0.1,0.1-0.2v-1.5
	c-0.2,0.2-0.3,0.4-0.5,0.5l-0.1-0.3c0,0.2,0,0.5-0.1,0.7c-0.1,0.5-0.2,0.9-0.3,1.4l-0.5-0.4c0.1-0.4,0.2-0.7,0.2-1.1
	c0-0.4,0.1-0.8,0.1-1.1v-3h0.3H23.6z M23.1,74.2v-0.7l-0.3,0.2c-0.1-0.2-0.2-0.5-0.3-0.8v1.5c0,0.1,0,0.3,0,0.4
	C22.6,74.7,22.8,74.5,23.1,74.2z M22.6,72.5c0.2,0.3,0.3,0.5,0.4,0.8V72h-0.6v0.7L22.6,72.5z M25.1,71.5c-0.2,0.3-0.5,0.7-0.8,1
	c0.3,0.4,0.5,0.7,0.7,0.9l-0.5,0.2c-0.2-0.4-0.4-0.8-0.7-1.2c0.3-0.3,0.6-0.7,0.9-1.1L25.1,71.5z M26.3,71.5
	c-0.2,0.4-0.5,0.7-0.8,1.1c0.3,0.3,0.5,0.6,0.7,0.9l-0.5,0.2c0-0.1-0.1-0.1-0.1-0.2c-0.1,0.1-0.1,0.2-0.2,0.3h1.9v3.4h-0.6v-0.3
	h-2.4v0.3h-0.6v-3.4h1c0.1-0.2,0.2-0.3,0.2-0.5l0.4,0.1c-0.2-0.3-0.4-0.5-0.6-0.8c0.3-0.4,0.6-0.8,0.8-1.2L26.3,71.5z M26.8,76.4
	v-2.1h-2.4v2.1H26.8z M26.7,74.7c-0.2,0.2-0.4,0.4-0.5,0.6c0.2,0.2,0.4,0.3,0.5,0.4l-0.4,0.4c-0.2-0.2-0.4-0.3-0.6-0.5
	c-0.3,0.2-0.6,0.4-0.9,0.6l-0.3-0.5c0.3-0.1,0.5-0.2,0.8-0.4c-0.2-0.1-0.5-0.3-0.7-0.5l0.4-0.4c0.3,0.2,0.5,0.3,0.8,0.5
	c0.2-0.2,0.3-0.3,0.5-0.5L26.7,74.7z M27.5,71.5c-0.2,0.4-0.5,0.7-0.8,1c0.3,0.4,0.6,0.7,0.7,1l-0.5,0.2c-0.2-0.4-0.5-0.8-0.8-1.2
	c0.3-0.4,0.6-0.8,0.8-1.2L27.5,71.5z"/>
<path class="st0" d="M29.4,74.6v-0.8h0.8v0.8H29.4z"/>
<path class="st0" d="M34.8,71.5V72H34c-0.1,0.5-0.2,1-0.3,1.3h1.1v3h-1v0.6h-0.5v-2.7c-0.1,0.2-0.2,0.3-0.3,0.5l-0.3-0.5
	c0.3-0.5,0.5-0.9,0.7-1.3c0.1-0.2,0.2-0.6,0.2-1h-0.7v-0.5L34.8,71.5L34.8,71.5z M34.2,76v-2h-0.5v2H34.2z M36.4,76.3
	c-0.4,0.3-0.8,0.6-1.4,0.9l-0.4-0.5c0.5-0.2,0.9-0.5,1.3-0.8L36.4,76.3z M38.5,71.5V72H37c0,0.2-0.1,0.3-0.2,0.5h1.4v3.4h-3.1v-3.4
	h1.1c0.1-0.2,0.1-0.3,0.2-0.5h-1.3v-0.5H38.5z M37.7,73.4V73h-2v0.5L37.7,73.4L37.7,73.4z M37.7,74.4v-0.5h-2v0.5H37.7z M37.7,74.9
	h-2v0.5h2V74.9z M38.5,76.7l-0.3,0.5c-0.5-0.3-0.9-0.6-1.4-0.8l0.3-0.4C37.6,76.2,38.1,76.4,38.5,76.7z"/>
<path class="st0" d="M42,73.2v-1.9h0.7v1.9h2.6v0.6h-2.6v2.5H45v0.6h-5.2v-0.6H42v-2.5h-2.5v-0.6H42z"/>
<path class="st1" d="M4.8,6.3H2.4V7H1.6V0.5h3.2V6.3z M4,3V1.3H2.4V3H4z M4,5.5V3.7H2.4v1.8H4z M5.7,0.3h3.9v6.9
	c0,0.3-0.1,0.5-0.2,0.7C9.3,8,9.1,8.1,8.8,8.1H7.3L7.1,7.3l1.3,0.1c0.2,0,0.3-0.1,0.3-0.3V5.5H6.4C6.3,5.8,6.2,6.1,6.1,6.4
	C5.8,7,5.3,7.7,4.5,8.4L3.7,7.8c0.7-0.5,1.2-1,1.5-1.6C5.4,5.7,5.6,5,5.6,4V3.4L5.7,0.3L5.7,0.3z M8.7,4.6V3.2H6.6v0.6
	c0,0.3,0,0.5,0,0.8H8.7z M8.7,2.4V1.1H6.6v1.3H8.7z"/>
<path class="st1" d="M18.7,8.2h-0.9V7.5h-4.6v0.6h-0.9V0.3h6.5v7.9H18.7z M17.8,3.4V1.2h-4.6v2.2H17.8z M17.8,6.7V4.3h-4.6v2.4H17.8
	z"/>
<path class="st1" d="M23.6,0.5c-0.1,0.4-0.3,0.8-0.4,1.1h2V0h0.9v1.6h3.4v0.8h-3.4v1.9h3v0.8h-3v2.1h3.6V8h-8.4V7.2h3.9V5h-3V4.2h3
	V2.3h-2.3c-0.2,0.4-0.6,1-1.1,1.6l-0.7-0.6c0.4-0.5,0.8-1,1.1-1.4c0.3-0.5,0.5-1.1,0.7-1.7L23.6,0.5z"/>
<path class="st1" d="M33.1,3.3l-0.5,0.8c-0.5-0.4-1-0.8-1.6-1l0.5-0.7C32,2.6,32.6,2.9,33.1,3.3z M33.5,5.1c-0.5,1.2-1,2.2-1.7,3.1
	l-0.7-0.8c0.5-0.7,1-1.6,1.6-2.8L33.5,5.1z M33.3,0.9l-0.6,0.8c-0.5-0.4-1-0.7-1.5-0.9l0.5-0.7C32.3,0.4,32.8,0.6,33.3,0.9z
	 M39.3,0.8c-0.7,0.2-1.5,0.4-2.4,0.5v1.3h2.7v0.8h-2.7v1.3h2.2v3.6h-0.9V7.7h-3.5v0.6h-0.9V4.7H36V3.4h-2.7V2.6H36V1.4
	c-0.6,0-1.3,0.1-2,0.1l-0.2-0.7c2,0,3.8-0.2,5.2-0.6L39.3,0.8z M38.2,6.9V5.3h-3.5v1.6H38.2z"/>
<path class="st1" d="M9.1,13.9L9,14.8h1.3v0.5H9l-0.1,0.9h-6L3,15.3H1.7v-0.5H3l0.1-0.9H9.1z M6.6,12.9h3.6v1.5H9.4v-0.9H2.9v0.9
	H2.1v-1.5h3.7c-0.1-0.1-0.2-0.3-0.3-0.4l0.9-0.1C6.3,12.6,6.4,12.7,6.6,12.9z M9.3,16.5v3H7.5c0.8,0.1,1.6,0.3,2.4,0.6l-0.3,0.7
	c-0.9-0.3-1.9-0.5-2.9-0.7L7,19.6H5.1l0.2,0.3c-0.5,0.2-0.9,0.4-1.2,0.5c-0.4,0.1-1,0.2-1.6,0.4l-0.4-0.7c0.6-0.1,1.2-0.2,1.6-0.3
	c0.2-0.1,0.4-0.1,0.6-0.2H2.7v-3L9.3,16.5L9.3,16.5z M8.5,17.4V17h-5v0.3h5V17.4z M8.5,18.2v-0.3h-5v0.3H8.5z M8.5,18.7h-5V19h5
	V18.7z M5.5,15.7v-0.3H3.8v0.3H5.5z M5.6,14.8v-0.4H3.9v0.4H5.6z M6.3,15.7h1.9v-0.3H6.3V15.7z M6.4,14.8h1.9v-0.4H6.4V14.8z"/>
<path class="st1" d="M15,12.9v2.8h-0.8v1.1h0.9v0.7h-0.9V19c0.3-0.1,0.7-0.2,1.1-0.4v0.8c-1,0.4-2.2,0.7-3.5,0.9l-0.1-0.8
	c0.1,0,0.3,0,0.4,0v-3.2h0.7v3.1c0.2,0,0.4-0.1,0.6-0.1v-3.6h-1.2v-2.8H15z M14.1,13.6H13V15h1.2L14.1,13.6L14.1,13.6z M20,14
	l-2.7,0.3c0.1,0.1,0.1,0.2,0.2,0.3c0.1,0.1,0.1,0.2,0.2,0.3c0.4-0.2,0.7-0.4,1.1-0.7l0.6,0.4c-0.4,0.3-0.7,0.6-1.2,0.8
	c0.1,0,0.1,0.1,0.2,0.1c0.3,0.2,0.5,0.2,0.7,0.2c0.1,0,0.3-0.3,0.5-0.9l0.7,0.5c-0.3,0.6-0.5,0.9-0.7,1.1c-0.2,0.1-0.3,0.2-0.6,0.2
	s-0.7-0.1-1.1-0.3c-0.2-0.1-0.4-0.3-0.6-0.4c-0.5,0.2-1.2,0.4-2.1,0.6l-0.3-0.7c0.8-0.1,1.4-0.3,1.9-0.5c-0.1-0.1-0.1-0.2-0.2-0.3
	c-0.1-0.1-0.2-0.3-0.3-0.5l-1.2,0.1L15,13.9l1-0.1c-0.1-0.3-0.2-0.7-0.3-1.2l0.8-0.1c0.1,0.5,0.2,0.8,0.3,1.2l1-0.1
	c-0.1-0.2-0.3-0.4-0.6-0.6l0.6-0.3c0.3,0.2,0.6,0.4,0.7,0.6l-0.6,0.4l1.7-0.2L20,14z M20.1,17.5L17.3,18c0.1,0.2,0.2,0.4,0.3,0.6
	c0.1,0.1,0.1,0.2,0.2,0.3c0.4-0.2,0.8-0.6,1.2-1l0.6,0.4c-0.4,0.4-0.8,0.8-1.3,1.1l0.1,0.1c0.3,0.2,0.6,0.3,0.8,0.3
	c0.1,0,0.2,0,0.2-0.1c0.1-0.1,0.2-0.4,0.3-1l0.8,0.4c-0.2,0.7-0.4,1.1-0.6,1.3c-0.1,0.1-0.3,0.2-0.6,0.2c-0.4,0-0.9-0.2-1.3-0.5
	c-0.2-0.1-0.3-0.2-0.4-0.4c-0.5,0.2-1.2,0.5-2,0.8l-0.3-0.7c0.7-0.2,1.3-0.4,1.8-0.6c-0.1-0.1-0.2-0.3-0.3-0.5
	c-0.1-0.2-0.2-0.4-0.3-0.6l-1.2,0.2l-0.1-0.7l1.1-0.2c-0.1-0.3-0.1-0.7-0.2-1.1h0.8c0,0.3,0.1,0.7,0.1,0.9l0.8-0.1
	c-0.1-0.2-0.3-0.4-0.5-0.6l0.5-0.3c0.3,0.2,0.5,0.4,0.7,0.6L18,17.1l1.9-0.3L20.1,17.5z"/>
<path class="st1" d="M28.8,14.5v0.7h-2c-0.3,0.2-0.5,0.4-0.8,0.5c0.3,0.4,0.6,0.8,0.7,1.2c0.7-0.3,1.3-0.7,2-1.3l0.7,0.6
	c-0.4,0.3-0.8,0.6-1.3,0.9c0.2,0.5,0.5,0.9,0.8,1.3c0.3,0.4,0.7,0.8,1.2,1.2l-0.6,0.7c-0.6-0.5-1.1-1-1.4-1.6
	c-0.3-0.4-0.5-0.8-0.7-1.3c-0.1,0.1-0.3,0.1-0.4,0.2c0.1,0.4,0.1,0.8,0.1,1.1c0,0.7-0.1,1.1-0.3,1.4c-0.2,0.3-0.9,0.5-2,0.5
	l-0.3-0.9c0,0,0.2,0.1,0.5,0.1c0.5,0,0.8-0.1,0.9-0.2c0.1-0.2,0.2-0.5,0.2-0.9c0-0.1,0-0.3,0-0.4c-0.5,0.4-1,0.7-1.4,0.9
	c-0.7,0.3-1.5,0.7-2.6,1l-0.5-0.8c1-0.3,1.9-0.6,2.7-0.9c0.6-0.3,1.2-0.6,1.6-1c0-0.1,0-0.2-0.1-0.2c0-0.1-0.1-0.2-0.1-0.2
	c-0.5,0.3-1,0.6-1.4,0.8c-0.6,0.3-1.4,0.5-2.3,0.8L21.6,18c0.9-0.2,1.7-0.4,2.4-0.7c0.5-0.2,1-0.4,1.4-0.7c-0.1-0.1-0.1-0.2-0.2-0.3
	c-0.8,0.3-1.8,0.6-2.8,0.9l-0.5-0.7c1.2-0.2,2.1-0.4,2.7-0.7c0.3-0.1,0.5-0.2,0.8-0.3h-2.6v-0.7h6V14.5z M26.2,13.1h3.7v1.8h-0.8v-1
	h-6.4v1h-0.8v-1.8h3.5c-0.1-0.2-0.2-0.4-0.3-0.5l1-0.1C26,12.7,26.1,12.9,26.2,13.1z"/>
</svg>
