<svg width="160" height="149" viewBox="0 0 160 149" fill="none" xmlns="http://www.w3.org/2000/svg">
<path d="M4.10001 2.33069H5.5L8.89999 11.6307H7.5L6.5 8.83069H2.79999L1.79999 11.6307H0.5L4.10001 2.33069ZM6.20001 7.83069L4.79999 3.73071L3.29999 7.83069H6.20001Z" fill="#3E3A39"/>
<path d="M15.9 2.33069V3.43073H12.8V11.6307H11.5V3.43073H8.40002V2.33069H15.9Z" fill="#3E3A39"/>
<path d="M24.9 2.33069V3.43073H21.8V11.6307H20.5V3.43073H17.4V2.33069H24.9Z" fill="#3E3A39"/>
<path d="M29.3 1.43073C29.2 1.73073 29.1 1.93071 29 2.23071H31.4V3.13068C31.9 2.53068 32.3 1.93069 32.5 1.33069L33.4 1.5307C33.3 1.8307 33.2 2.03069 33.1 2.33069H36.2V3.23071H34.5C34.6 3.53071 34.7 3.93071 34.8 4.23071L33.9 4.5307C33.8 4.1307 33.7 3.63071 33.5 3.23071H32.6C32.4 3.63071 32.1 3.93071 31.8 4.23071L31 3.63068C31.2 3.53068 31.3 3.33071 31.4 3.23071H30C30.1 3.53071 30.2 3.93073 30.3 4.43073L29.3 4.5307C29.3 4.0307 29.2 3.53071 29.1 3.23071H28.4C28.1 3.73071 27.8 4.1307 27.4 4.5307L26.6 3.93073C27.4 3.13073 28 2.33069 28.3 1.33069L29.3 1.43073ZM27.8 5.73071C27.8 6.63071 27.7 7.43068 27.5 8.13068L26.7 7.93073C26.9 7.13073 27 6.43068 27 5.63068L27.8 5.73071ZM28.9 3.93073V11.7307H28V3.93073H28.9ZM30.3 7.0307L29.5 7.23071C29.4 6.63071 29.2 6.03073 29 5.43073L29.7 5.23071C29.9 5.83071 30.1 6.4307 30.3 7.0307ZM32.1 5.0307V3.93073H33V5.0307H35.4V7.63068H36.3V8.5307H33.8C34 9.0307 34.2 9.43071 34.5 9.73071C34.9 10.2307 35.5 10.6307 36.2 10.9307L35.7 11.8307C34.8 11.3307 34.2 10.8307 33.7 10.2307C33.3 9.73071 33 9.1307 32.9 8.5307H32.8C32.7 9.1307 32.5 9.53073 32.3 9.93073C31.9 10.7307 31.2 11.3307 30.3 11.8307L29.8 10.9307C30.7 10.5307 31.3 9.93071 31.6 9.23071C31.7 9.03071 31.8 8.73073 31.9 8.43073H29.7V7.5307H32.1C32.1 7.1307 32.2 6.73069 32.2 6.33069V5.83069H30.2V5.0307H32.1ZM33 6.43073C33 6.83073 33 7.23068 32.9 7.63068H34.5V5.93073H33V6.43073Z" fill="#3E3A39"/>
<path d="M40.3 10.6307H39.4V9.73071H38.1V10.8307H37.2V2.0307H40.2V10.6307H40.3ZM39.4 5.43073V3.0307H38.1V5.43073H39.4ZM39.4 8.83069V6.43073H38.1V8.83069H39.4ZM43 2.33069V1.23071H43.9V2.33069H46.1V3.33069H43.9V4.5307H46.5V5.5307H45.5V6.73071H46.6V7.73071H45.5V10.4307C45.5 10.8307 45.4 11.1307 45.3 11.3307C45.2 11.5307 44.9 11.6307 44.5 11.6307H43.2L43 10.5307C43.5 10.6307 43.9 10.6307 44.2 10.6307C44.4 10.6307 44.6 10.5307 44.6 10.3307V7.73071H40.6V6.73071H44.6V5.5307H40.7V4.5307H43.1V3.33069H40.9V2.33069H43ZM43.4 9.73071L42.5 10.4307C42.2 9.93073 41.7 9.23068 41.1 8.63068L41.9 8.13068C42.4 8.73068 43 9.23071 43.4 9.73071Z" fill="#3E3A39"/>
<path d="M52.5 1.23071V4.5307H56.2V10.5307C56.2 10.9307 56.1 11.1307 55.9 11.3307C55.7 11.5307 55.5 11.6307 55.3 11.6307H53.9L53.7 10.6307H54.9C55.1 10.6307 55.2 10.5307 55.2 10.2307V5.5307H48.6V11.7307H47.6V4.5307H51.4V1.23071H52.5V1.23071ZM50.3 3.93073L49.4 4.43073C49 3.63073 48.5 2.83071 48 2.23071L48.9 1.83069C49.4 2.33069 49.9 3.13073 50.3 3.93073ZM54 6.43073V10.0307H49.8V6.43073H54ZM53 7.43073H50.8V9.13068H53V7.43073ZM55.9 2.23071C55.5 3.03071 55.1 3.73073 54.5 4.43073L53.6 3.93073C54.2 3.23073 54.6 2.43071 55 1.73071L55.9 2.23071Z" fill="#3E3A39"/>
<path d="M62.9 8.13068C62.7 7.73068 62.4 7.33069 62 6.83069C61.7 6.53069 61.3 6.13068 60.8 5.63068L61.5 5.0307C61.8 5.3307 62.2 5.73071 62.7 6.23071C63 6.53071 63.3 7.0307 63.7 7.5307L62.9 8.13068Z" fill="#3E3A39"/>
<path d="M70.8 2.0307H72.6V2.93073H71.6L72.1 3.13068C71.9 3.73068 71.7 4.33071 71.6 4.73071H72.7V5.63068H70.8V6.5307H72.6V7.43073H70.8C71.5 8.03073 72.1 8.53068 72.6 9.13068L72 9.83069C71.7 9.43069 71.3 8.9307 70.8 8.5307V11.8307H69.9V8.83069C69.4 9.63069 68.9 10.3307 68.3 10.9307L67.7 10.0307C68.5 9.3307 69.2 8.5307 69.7 7.5307H68V6.63068H69.8V5.73071H67.8V4.83069H68.9C68.8 4.33069 68.6 3.83071 68.4 3.23071L68.9 3.0307H67.7V2.0307H69.5C69.4 1.7307 69.2 1.53069 69.1 1.33069L70 1.23071C70.4 1.43071 70.6 1.7307 70.8 2.0307ZM70.6 4.73071C70.8 4.23071 70.9 3.63073 71.1 2.93073H69.2C69.4 3.43073 69.6 4.03071 69.7 4.73071H70.6ZM77.1 2.63068C76.2 2.93068 75.1 3.13068 74 3.13068V5.0307H77.1V5.93073H76.1V11.7307H75.2V5.93073H74V6.93073C74 7.73073 73.9 8.6307 73.7 9.5307C73.5 10.3307 73.2 11.0307 72.8 11.7307L72.1 10.9307C72.4 10.3307 72.7 9.73071 72.9 9.23071C73 8.63071 73.1 7.8307 73.2 7.0307V2.33069C74.6 2.33069 75.8 2.13068 76.7 1.63068L77.1 2.63068Z" fill="#3E3A39"/>
<path d="M83.2 1.23071V5.43073H87.2V6.33069H84.3V10.2307C84.3 10.4307 84.4 10.6307 84.7 10.6307H86C86.1 10.6307 86.2 10.5307 86.3 10.4307C86.4 10.3307 86.4 9.6307 86.5 8.5307L87.5 8.83069C87.4 10.1307 87.3 10.9307 87.1 11.2307C86.9 11.4307 86.6 11.6307 86.2 11.6307H84.4C84.1 11.6307 83.8 11.5307 83.7 11.3307C83.5 11.1307 83.4 10.9307 83.4 10.5307V6.33069H82C81.9 7.83069 81.6 8.83068 81.2 9.63068C80.7 10.4307 79.9 11.2307 78.8 11.8307L78.1 10.8307C79.2 10.3307 79.9 9.73068 80.3 9.13068C80.7 8.63068 80.9 7.63069 81 6.33069H78.3V5.43073H82.3V1.23071H83.2V1.23071ZM81.1 4.33069L80.1 4.83069C79.8 3.83069 79.4 3.03071 79 2.23071L80 1.83069C80.4 2.73069 80.8 3.53069 81.1 4.33069ZM86.3 2.33069C86 3.23069 85.6 4.13073 85.1 4.93073L84.1 4.43073C84.6 3.53073 85 2.73069 85.3 1.83069L86.3 2.33069Z" fill="#3E3A39"/>
<path d="M97.4 9.93073V11.0307H88.2V9.93073H97.4ZM97 2.13068V3.23071H88.8V2.13068H97ZM96.4 5.93073V7.0307H89.2V5.93073H96.4Z" fill="#3E3A39"/>
<path d="M100.3 2.5307V1.23071H101.2V2.5307H102.5V3.5307H101.2V4.83069H102.7V5.83069H101.3V6.83069H102.5V7.83069H101.3V10.0307C101.5 10.1307 101.7 10.2307 102 10.3307C102.6 10.4307 103.6 10.5307 105.3 10.5307C106.5 10.5307 107.3 10.5307 107.9 10.4307L107.8 11.4307C104.7 11.4307 102.8 11.3307 102.1 11.2307C101.5 11.1307 101 10.9307 100.6 10.6307C100.3 10.4307 100 10.0307 99.6 9.43073C99.5 10.3307 99.3 11.0307 99.1 11.6307L98.3 11.0307C98.7 9.8307 98.9 8.33073 99 6.43073L99.9 6.5307C99.9 7.1307 99.8 7.63068 99.8 8.13068C100 8.53068 100.2 8.8307 100.4 9.0307V5.63068H98.6V4.63068H100.3V3.33069H98.8V2.33069H100.3V2.5307ZM107.6 3.63068H105.8C105.8 4.63068 105.9 5.53071 106 6.23071C106.3 5.63071 106.5 4.93068 106.7 4.13068L107.5 4.5307C107.1 5.8307 106.7 6.8307 106.3 7.5307C106.6 8.4307 106.8 8.93073 106.9 8.93073C107 8.93073 107.1 8.4307 107.3 7.5307L108 8.0307C107.8 9.0307 107.6 9.53071 107.4 9.73071C107.3 9.93071 107.1 9.93073 107 9.93073C106.7 9.93073 106.4 9.73071 106.2 9.23071C106 8.93071 105.9 8.63071 105.8 8.23071C105.3 8.83071 104.7 9.23068 104 9.63068L103.5 8.73071C104.3 8.23071 105 7.7307 105.5 7.0307C105.4 6.8307 105.4 6.53069 105.3 6.33069C105.2 5.53069 105.1 4.53073 105 3.43073H104V7.0307C104.3 6.8307 104.7 6.63069 105 6.33069V7.23071C104.2 7.83071 103.4 8.43073 102.4 8.93073L102.2 7.93073C102.5 7.83073 102.9 7.63073 103.2 7.43073V2.43073H105.1C105.1 1.93073 105.1 1.43073 105.1 0.930725H105.9C105.9 1.43073 105.9 1.93073 105.9 2.43073H106.7C106.6 2.13073 106.4 1.83073 106.2 1.43073L106.8 1.0307C107.1 1.4307 107.3 1.7307 107.5 2.0307L107 2.43073H107.8V3.63068H107.6Z" fill="#3E3A39"/>
<path d="M114 8.13068C113.8 7.73068 113.5 7.33069 113.1 6.83069C112.8 6.53069 112.4 6.13068 111.9 5.63068L112.6 5.0307C112.9 5.3307 113.3 5.73071 113.8 6.23071C114.1 6.53071 114.4 7.0307 114.8 7.5307L114 8.13068Z" fill="#3E3A39"/>
<path d="M121.6 4.0307V4.83069C121.3 5.43069 120.9 6.13069 120.3 6.83069H121.5V7.5307C121.3 8.3307 121.2 8.83069 121 9.33069C121.4 9.83069 121.7 10.1307 121.9 10.2307C122.1 10.3307 122.5 10.5307 122.9 10.5307C123.4 10.6307 124.4 10.6307 125.8 10.6307C126.9 10.6307 127.7 10.6307 128.2 10.5307L128.1 11.6307C125.3 11.6307 123.5 11.6307 122.9 11.5307C122.3 11.4307 121.9 11.3307 121.6 11.1307C121.3 10.9307 121 10.6307 120.6 10.1307C120.3 10.6307 119.9 11.2307 119.5 11.8307L118.8 11.0307C119.3 10.4307 119.7 9.93073 119.9 9.43073C120.1 9.13073 120.3 8.63071 120.5 7.73071H119.1V6.83069C119.5 6.33069 119.9 5.73073 120.4 4.93073H119V4.0307H121.6ZM121.2 2.93073L120.6 3.63068C120.3 3.13068 119.9 2.53073 119.4 1.93073L120 1.33069C120.4 1.93069 120.9 2.43073 121.2 2.93073ZM127.8 4.83069V7.23071H125.1C125 7.43071 124.8 7.53071 124.7 7.73071V10.2307H123.8V8.5307C123.4 8.8307 122.8 9.13073 122.2 9.43073L121.7 8.5307C122.3 8.3307 122.8 8.03068 123.3 7.63068C123.5 7.53068 123.7 7.33071 123.8 7.23071H122.2V4.83069H127.8ZM124.6 1.93073V1.23071H125.5V1.93073H127.9V2.83069H125.5V3.5307H128.2V4.43073H121.9V3.5307H124.6V2.83069H122.2V1.93073H124.6ZM126.9 5.73071H123.1V6.43073H126.9V5.73071ZM126.2 8.33069C126.5 8.03069 126.8 7.63069 127 7.33069L127.7 7.83069C127.5 8.13069 127.2 8.33071 126.9 8.73071C127.3 8.93071 127.7 9.13073 128 9.43073L127.5 10.3307C126.6 9.63069 125.7 9.13071 124.8 8.73071L125.2 8.0307C125.6 8.1307 125.9 8.23069 126.2 8.33069Z" fill="#3E3A39"/>
<path d="M133.3 2.13068V1.23071H134.3V2.13068H138.3V3.13068H134.3V3.83069H137.6V8.23071H135.3C135.7 8.73071 136.1 9.13069 136.5 9.33069C137 9.73069 137.7 10.0307 138.6 10.4307L138.2 11.4307C137.1 10.9307 136.3 10.4307 135.8 9.93073C135.4 9.53073 134.9 9.03071 134.5 8.23071H134.4V11.7307H133.4V8.23071C133.1 8.83071 132.7 9.33071 132.3 9.73071C131.7 10.3307 130.8 10.9307 129.7 11.5307L129.2 10.6307C130.3 10.1307 131.2 9.63068 131.6 9.13068C131.9 8.93068 132.1 8.63071 132.4 8.23071H130.2V3.83069H133.4V3.13068H129.4V2.13068H133.3ZM133.3 5.63068V4.83069H131.1V5.63068H133.3ZM133.3 6.43073H131.1V7.23071H133.3V6.43073ZM134.3 5.63068H136.7V4.83069H134.3V5.63068ZM136.7 6.43073H134.3V7.23071H136.7V6.43073Z" fill="#3E3A39"/>
<path d="M148.6 1.63068V2.63068H144.6C144.5 3.13068 144.4 3.63068 144.2 4.13068H147.8V11.7307H146.8V11.0307H141V11.8307H140V4.23071H143C143.2 3.73071 143.3 3.23071 143.4 2.73071H139.3V1.73071H148.6V1.63068ZM147 7.0307V5.23071H141.2V7.0307H147ZM147 10.0307V8.0307H141.2V10.1307H147V10.0307Z" fill="#3E3A39"/>
<path d="M153 1.63068C152.6 2.13068 152.3 2.53069 151.9 2.83069V4.83069H150.9V3.5307C150.6 3.7307 150.3 3.9307 150 4.0307L149.5 3.13068C150 2.93068 150.5 2.63071 151 2.23071C151.4 1.93071 151.7 1.53068 152.1 1.13068L153 1.63068ZM153.4 10.8307C152.8 11.0307 152.4 11.2307 151.9 11.3307C151.4 11.4307 150.8 11.6307 150 11.7307L149.5 10.8307C150.2 10.7307 150.9 10.6307 151.4 10.5307C151.9 10.4307 152.4 10.2307 152.8 10.1307L153.4 10.8307ZM157.6 5.13068V10.0307H150.9V5.13068H157.6ZM156.7 6.5307V5.93073H151.7V6.5307H156.7ZM156.7 7.83069V7.23071H151.7V7.83069H156.7ZM156.7 8.5307H151.7V9.13068H156.7V8.5307ZM158.5 2.13068C157.4 2.53068 156.1 2.83068 154.6 3.13068V3.43073C154.6 3.63073 154.7 3.73071 155 3.73071H157.6C157.8 3.73071 157.9 3.73068 158 3.63068C158.1 3.53068 158.2 3.23071 158.2 2.73071L159.1 3.0307C159 3.8307 158.9 4.23073 158.7 4.43073C158.5 4.53073 158.2 4.63068 157.7 4.63068H154.7C154.4 4.63068 154.2 4.53073 154 4.43073C153.8 4.23073 153.7 4.03071 153.7 3.73071V1.33069H154.7V2.33069C156.1 2.03069 157.2 1.83073 158.1 1.43073L158.5 2.13068ZM158.9 10.8307L158.5 11.8307C157.4 11.4307 156.2 11.1307 154.9 10.9307L155.3 10.0307C156.5 10.2307 157.7 10.5307 158.9 10.8307Z" fill="#3E3A39"/>
<path d="M10.4 31.1307V32.2307H1V31.1307H10.4ZM9.89999 23.3307V24.4307H1.39999V23.3307H9.89999ZM9.29999 27.1307V28.2307H2V27.1307H9.29999Z" fill="#3E3A39"/>
<path d="M17.4 23.5307H21.2V24.5307H13.2V27.6307C13.2 28.4307 13.1 29.2307 13 30.1307C12.9 31.0307 12.6 31.9307 12.3 32.8307L11.5 32.0307C11.8 31.3307 12 30.6307 12.1 29.8307C12.2 29.0307 12.2 28.3307 12.2 27.6307V23.5307H16.3C16.1 23.2307 15.9 22.9307 15.7 22.6307L16.9 22.4307C17 22.7307 17.2 23.1307 17.4 23.5307ZM16.6 29.5307V24.6307H17.6V29.5307H20.8V30.4307H17.6V31.7307H21.2V32.7307H13.1V31.7307H16.7V30.4307H13.7V29.5307H16.6ZM15.5 25.2307C15.4 25.6307 15.3 26.0307 15.3 26.3307C15.7 26.8307 16.1 27.3307 16.5 27.9307L15.9 28.8307C15.6 28.2307 15.3 27.7307 15 27.3307C14.8 27.9307 14.5 28.4307 14 29.1307L13.3 28.2307C13.7 27.7307 13.9 27.3307 14.1 26.8307C14.3 26.4307 14.4 25.8307 14.5 25.1307L15.5 25.2307ZM19.9 25.1307C19.8 25.6307 19.7 26.1307 19.6 26.4307C20.1 26.9307 20.6 27.4307 21.1 28.0307L20.6 28.9307C20.1 28.2307 19.7 27.6307 19.3 27.2307C19.1 27.8307 18.8 28.4307 18.3 29.1307L17.7 28.2307C18.1 27.7307 18.3 27.2307 18.5 26.7307C18.7 26.2307 18.8 25.6307 18.9 24.8307L19.9 25.1307Z" fill="#3E3A39"/>
<path d="M31.6 22.8307V23.8307H27.5C27.4 24.3307 27.3 24.8307 27.1 25.3307H30.8V32.9307H29.8V32.1307H23.8V32.9307H22.8V25.3307H25.9C26.1 24.8307 26.2 24.3307 26.3 23.8307H22.1V22.8307H31.6ZM29.9 28.2307V26.4307H23.9V28.2307H29.9ZM29.9 31.2307V29.1307H23.9V31.2307H29.9Z" fill="#3E3A39"/>
<path d="M36.1 22.8307C35.7 23.3307 35.3 23.7307 35 24.0307V26.0307H34V24.7307C33.7 24.9307 33.4 25.1307 33 25.2307L32.5 24.3307C33 24.1307 33.6 23.8307 34.1 23.4307C34.5 23.1307 34.9 22.7307 35.3 22.3307L36.1 22.8307ZM36.5 32.0307C35.9 32.2307 35.4 32.4307 35 32.5307C34.5 32.6307 33.8 32.8307 33.1 32.9307L32.6 32.0307C33.4 31.9307 34 31.8307 34.6 31.7307C35.1 31.6307 35.6 31.4307 36 31.3307L36.5 32.0307ZM40.9 26.3307V31.2307H34V26.3307H40.9ZM40 27.7307V27.1307H34.9V27.7307H40ZM40 29.0307V28.4307H34.9V29.0307H40ZM40 29.7307H34.9V30.3307H40V29.7307ZM41.7 23.3307C40.5 23.7307 39.2 24.0307 37.7 24.3307V24.6307C37.7 24.8307 37.8 24.9307 38.1 24.9307H40.7C40.9 24.9307 41 24.9307 41.1 24.8307C41.2 24.7307 41.3 24.4307 41.3 23.9307L42.3 24.2307C42.2 25.0307 42 25.4307 41.8 25.6307C41.6 25.7307 41.3 25.8307 40.8 25.8307H37.7C37.4 25.8307 37.2 25.7307 37 25.6307C36.8 25.4307 36.7 25.2307 36.7 24.9307V22.5307H37.7V23.5307C39.1 23.2307 40.3 23.0307 41.3 22.6307L41.7 23.3307ZM42.2 32.0307L41.8 33.0307C40.6 32.6307 39.4 32.3307 38.1 32.1307L38.5 31.2307C39.8 31.4307 41 31.7307 42.2 32.0307Z" fill="#3E3A39"/>
<path d="M46.6 31.8307H45.7V31.0307H44.4V32.1307H43.5V23.2307H46.6V31.8307V31.8307ZM45.7 26.6307V24.2307H44.4V26.6307H45.7ZM45.7 30.0307V27.6307H44.4V30.0307H45.7ZM49.3 23.5307V22.4307H50.2V23.5307H52.5V24.5307H50.2V25.7307H52.8V26.7307H51.8V27.9307H52.9V28.9307H51.8V31.6307C51.8 32.0307 51.7 32.3307 51.5 32.5307C51.4 32.7307 51.1 32.8307 50.7 32.8307H49.4L49.2 31.7307C49.7 31.8307 50.1 31.8307 50.5 31.8307C50.7 31.8307 50.9 31.7307 50.9 31.5307V28.9307H46.8V27.9307H50.9V26.7307H46.9V25.7307H49.3V24.5307H47.1V23.5307H49.3ZM49.7 30.9307L48.7 31.6307C48.3 31.1307 47.9 30.4307 47.3 29.8307L48.1 29.3307C48.8 29.9307 49.3 30.4307 49.7 30.9307Z" fill="#3E3A39"/>
<path d="M59.2 22.4307V25.7307H63V31.7307C63 32.1307 62.9 32.3307 62.7 32.5307C62.5 32.7307 62.3 32.8307 62 32.8307H60.6L60.4 31.8307H61.6C61.8 31.8307 61.9 31.7307 61.9 31.4307V26.7307H55.1V32.9307H54.1V25.7307H58V22.4307H59.2V22.4307ZM57 25.1307L56 25.6307C55.6 24.8307 55.1 24.0307 54.6 23.4307L55.5 23.0307C56 23.5307 56.5 24.3307 57 25.1307ZM60.7 27.6307V31.2307H56.4V27.6307H60.7ZM59.7 28.6307H57.5V30.3307H59.7V28.6307ZM62.7 23.4307C62.3 24.2307 61.9 24.9307 61.3 25.6307L60.3 25.1307C60.9 24.4307 61.4 23.6307 61.7 22.9307L62.7 23.4307Z" fill="#3E3A39"/>
<path d="M72.8 22.7307V29.0307C72.8 30.3307 72.9 31.1307 73 31.2307C73.1 31.4307 73.1 31.5307 73.2 31.5307C73.3 31.5307 73.4 31.1307 73.6 30.2307L74.3 30.6307C74.2 31.5307 74 32.1307 73.8 32.4307C73.7 32.6307 73.5 32.7307 73.3 32.7307C73 32.7307 72.7 32.6307 72.5 32.3307C72.1 31.8307 72 30.7307 72 28.9307V23.6307H66.2V27.4307C66.2 28.2307 66.1 29.1307 66 30.0307C65.9 31.0307 65.6 31.9307 65.3 32.8307L64.5 32.0307C64.8 31.3307 65 30.5307 65.1 29.7307C65.2 28.9307 65.2 28.1307 65.2 27.4307V22.6307H65.7H72.8V22.7307ZM71.5 24.4307V25.3307H69.4V26.2307H71.3V29.7307H69.4V31.1307C69.8 31.1307 70.2 31.0307 70.5 30.9307C70.4 30.6307 70.3 30.4307 70.1 30.2307L70.9 29.9307C71.3 30.6307 71.6 31.3307 71.9 32.1307L71.1 32.5307C71 32.3307 70.9 32.0307 70.8 31.8307C69.8 32.0307 68.2 32.2307 66.2 32.3307L65.9 31.2307C66.8 31.2307 67.6 31.2307 68.3 31.1307V29.6307H66.5V26.1307H68.3V25.2307H66.3V24.3307H71.5V24.4307ZM68.4 27.2307H67.4V28.9307H68.4V27.2307ZM70.4 27.2307H69.4V28.9307H70.4V27.2307Z" fill="#3E3A39"/>
<path d="M77 23.7307L76.2 24.5307C75.9 24.1307 75.4 23.7307 74.9 23.3307L75.6 22.6307C76.2 22.9307 76.6 23.3307 77 23.7307ZM77 28.5307C76.7 30.2307 76.2 31.7307 75.7 32.9307L74.9 32.1307C75.3 31.1307 75.7 29.7307 76.1 28.1307L77 28.5307ZM77 26.3307L76.4 27.3307C76 26.7307 75.5 26.3307 75 26.0307L75.5 25.1307C76 25.5307 76.5 25.9307 77 26.3307ZM78.5 23.3307V22.4307H79.4V23.3307H80.8V24.2307H79.4V25.0307H80.7V29.2307H79.4V30.2307H80.7V31.1307H79.4V32.9307H78.5V31.1307H76.9V30.2307H78.5V29.2307H77.2V25.0307H78.5V24.2307H77.1V23.3307H78.5V23.3307ZM79.8 26.8307V25.9307H78V26.8307H79.8ZM79.8 27.6307H78V28.5307H79.8V27.6307ZM84.2 22.7307V31.7307C84.2 32.0307 84.1 32.3307 84 32.5307C83.9 32.7307 83.6 32.8307 83.3 32.8307H82.4L82.2 31.9307H83.1C83.3 31.9307 83.3 31.8307 83.3 31.6307V29.3307H82.1C82.1 29.8307 82 30.3307 82 30.9307C81.9 31.6307 81.6 32.4307 81.3 33.1307L80.6 32.4307C80.9 31.8307 81.1 31.3307 81.2 30.7307C81.3 30.1307 81.3 29.5307 81.3 28.9307V22.8307H81.7H84.2V22.7307ZM83.3 25.5307V23.8307H82.1V25.5307H83.3ZM83.3 28.4307V26.5307H82.1V28.4307H83.3Z" fill="#3E3A39"/>
<path d="M91.4 28.8307C91.1 29.1307 90.8 29.2307 90.4 29.2307C90 29.2307 89.6 29.1307 89.4 28.8307C89.1 28.5307 89 28.1307 89 27.7307C89 27.3307 89.1 26.9307 89.4 26.6307C89.7 26.3307 90 26.2307 90.4 26.2307C90.8 26.2307 91.2 26.3307 91.4 26.6307C91.7 26.9307 91.8 27.3307 91.8 27.7307C91.8 28.1307 91.7 28.5307 91.4 28.8307ZM90.9 27.2307C90.8 27.1307 90.6 27.0307 90.4 27.0307C90.2 27.0307 90 27.1307 89.9 27.2307C89.8 27.3307 89.7 27.5307 89.7 27.7307C89.7 27.9307 89.8 28.1307 89.9 28.2307C90 28.4307 90.2 28.4307 90.4 28.4307C90.6 28.4307 90.8 28.3307 90.9 28.2307C91 28.1307 91.1 27.9307 91.1 27.7307C91.1 27.5307 91 27.3307 90.9 27.2307Z" fill="#3E3A39"/>
<path d="M2.79996 44.6307V43.7307H6.89996C7.59996 44.9307 9.19998 46.0307 11.6 47.1307L10.9 48.1307C10.6 48.0307 10.2 47.8307 9.99997 47.6307V48.3307H6.79996V50.0307H9.89996V50.9307H6.79996V52.9307H11.2V53.8307H1.29996V53.0307H5.69998V51.0307H2.69998V50.1307H5.69998V48.4307H2.59998V47.7307C2.29998 47.8307 1.99998 48.0307 1.69998 48.1307L1.09998 47.0307C2.29998 46.5307 3.19996 46.1307 3.89996 45.6307C4.39996 45.3307 4.79998 45.0307 5.19998 44.5307H2.79996V44.6307ZM9.39996 47.4307C8.89996 47.1307 8.39998 46.8307 8.09998 46.5307C7.29998 45.9307 6.69998 45.3307 6.09998 44.6307C5.69998 45.2307 5.29996 45.6307 4.89996 46.0307C4.39996 46.5307 3.69996 47.0307 2.89996 47.4307H9.39996Z" fill="#3E3A39"/>
<path d="M16.4 43.9307V44.8307H15.9V54.1307H15V52.1307C14.3 52.4307 13.5 52.6307 12.6 52.9307L12.3 51.8307C12.5 51.8307 12.6 51.8307 12.8 51.7307V44.9307H12.4V44.0307H16.4V43.9307ZM14.9 46.3307V44.9307H13.7V46.3307H14.9ZM14.9 48.8307V47.3307H13.7V48.8307H14.9ZM14.9 51.1307V49.6307H13.7V51.5307C14.1 51.4307 14.5 51.3307 14.9 51.1307ZM18.5 43.9307C18.2 44.7307 17.8 45.3307 17.5 45.8307C17.7 45.8307 18 45.8307 18.2 45.7307C18.5 45.3307 18.7 44.9307 18.9 44.5307L19.6 44.9307C19.2 45.6307 18.5 46.6307 17.6 47.6307C17.9 47.6307 18.2 47.5307 18.5 47.5307C18.5 47.3307 18.4 47.1307 18.4 46.8307L19.1 46.7307C19.3 47.3307 19.4 47.9307 19.5 48.6307H18.7C18.7 48.4307 18.7 48.3307 18.6 48.2307C17.8 48.3307 16.9 48.4307 16 48.5307L15.9 47.6307C16.1 47.6307 16.2 47.6307 16.4 47.6307C16.8 47.2307 17.2 46.7307 17.5 46.3307C17 46.3307 16.5 46.4307 16 46.4307L15.9 45.6307C16.1 45.6307 16.2 45.6307 16.4 45.6307C16.8 45.0307 17.1 44.3307 17.5 43.3307L18.5 43.9307ZM17.3 49.4307V51.0307H18.2V49.3307H19.1V51.5307C19.1 52.2307 18.9 52.8307 18.4 53.3307C18 53.7307 17.4 54.0307 16.5 54.3307L16 53.5307C16.8 53.3307 17.4 53.1307 17.7 52.8307C17.9 52.6307 18 52.3307 18.1 52.0307H16.3V49.5307H17.3V49.4307ZM21.7 43.9307C21.4 44.7307 21.1 45.3307 20.7 45.8307C21 45.8307 21.3 45.8307 21.6 45.7307C21.8 45.4307 22 45.0307 22.1 44.7307L22.8 45.1307C22.4 45.8307 21.9 46.7307 21.1 47.7307C21.4 47.7307 21.7 47.7307 22 47.6307C22 47.3307 21.9 47.1307 21.9 46.9307L22.6 46.8307C22.8 47.4307 22.9 48.0307 23 48.7307H22.1C22.1 48.6307 22.1 48.4307 22 48.3307C21.2 48.4307 20.4 48.5307 19.5 48.5307L19.4 47.7307C19.6 47.7307 19.7 47.7307 19.9 47.7307C20.3 47.2307 20.6 46.8307 20.9 46.3307C20.4 46.3307 19.8 46.4307 19.2 46.4307L19.1 45.6307C19.2 45.6307 19.4 45.6307 19.5 45.6307C19.8 45.0307 20.2 44.3307 20.6 43.3307L21.7 43.9307ZM22.7 49.4307V52.1307H20.8V54.1307H19.9V49.2307H20.8V51.2307H21.7V49.3307H22.7V49.4307Z" fill="#3E3A39"/>
<path d="M30 50.5307C29.8 50.1307 29.4 49.7307 29 49.2307C28.7 48.9307 28.3 48.5307 27.7 48.0307L28.4 47.4307C28.8 47.7307 29.2 48.1307 29.8 48.6307C30.1 48.9307 30.5 49.4307 30.9 49.9307L30 50.5307Z" fill="#3E3A39"/>
<path d="M41.7 45.1307V46.1307C41.4 46.4307 41 46.9307 40.5 47.6307C40 48.3307 39.6 49.1307 39.2 49.9307C38.8 50.7307 38.6 51.4307 38.4 52.1307C38.3 52.5307 38.1 53.2307 37.9 54.1307H36.6C36.9 52.4307 37.5 50.6307 38.5 48.9307C39.1 47.9307 39.7 47.0307 40.3 46.3307H35.3V45.2307H41.7V45.1307Z" fill="#3E3A39"/>
<path d="M42.7 49.8307H45.9V51.0307H42.7V49.8307Z" fill="#3E3A39"/>
<path d="M47.7 47.6307V46.7307C48.5 46.6307 49.1 46.5307 49.4 46.3307C49.7 46.1307 50 45.7307 50.1 45.0307H51V54.1307H49.8V47.7307H47.7V47.6307Z" fill="#3E3A39"/>
<path d="M54 47.6307V46.7307C54.8 46.6307 55.4 46.5307 55.7 46.3307C56 46.1307 56.3 45.7307 56.4 45.0307H57.3V54.1307H56.1V47.7307H54V47.6307Z" fill="#3E3A39"/>
<path d="M66.5 50.5307C66.3 50.1307 65.9 49.7307 65.5 49.2307C65.2 48.9307 64.8 48.5307 64.2 48.0307L64.9 47.4307C65.3 47.7307 65.7 48.1307 66.3 48.6307C66.6 48.9307 67 49.4307 67.4 49.9307L66.5 50.5307Z" fill="#3E3A39"/>
<path d="M73.8 44.6307V43.7307H77.9C78.6 44.9307 80.2 46.0307 82.6 47.1307L81.9 48.1307C81.6 48.0307 81.2 47.8307 81 47.6307V48.3307H77.8V50.0307H80.9V50.9307H77.8V52.9307H82.2V53.8307H72.3V53.0307H76.7V51.0307H73.7V50.1307H76.7V48.4307H73.6V47.7307C73.3 47.8307 73 48.0307 72.7 48.1307L72 47.0307C73.2 46.5307 74.1 46.1307 74.8 45.6307C75.3 45.3307 75.7 45.0307 76.1 44.5307H73.8V44.6307ZM80.5 47.4307C80 47.1307 79.5 46.8307 79.2 46.5307C78.4 45.9307 77.8 45.3307 77.2 44.6307C76.8 45.2307 76.4 45.6307 76 46.0307C75.5 46.5307 74.8 47.0307 74 47.4307H80.5Z" fill="#3E3A39"/>
<path d="M92.3 46.2307V47.1307H89.9C89.6 47.4307 89.3 47.6307 89 47.7307C89.4 48.2307 89.7 48.7307 89.9 49.2307C90.7 48.8307 91.5 48.3307 92.3 47.5307L93.1 48.3307C92.6 48.7307 92.1 49.1307 91.5 49.4307C91.8 50.0307 92.1 50.6307 92.4 51.1307C92.8 51.6307 93.3 52.1307 93.9 52.7307L93.2 53.6307C92.5 52.9307 91.9 52.2307 91.4 51.6307C91.1 51.1307 90.8 50.6307 90.5 50.0307C90.3 50.1307 90.2 50.2307 90 50.2307C90.1 50.7307 90.2 51.2307 90.2 51.7307C90.2 52.6307 90.1 53.2307 89.8 53.6307C89.5 54.0307 88.7 54.2307 87.3 54.2307L86.9 53.1307C86.9 53.2307 87.1 53.2307 87.5 53.2307C88.1 53.2307 88.5 53.1307 88.7 53.0307C88.9 52.8307 89 52.4307 89 51.8307C89 51.6307 89 51.5307 89 51.3307C88.4 51.8307 87.8 52.2307 87.2 52.5307C86.4 52.9307 85.3 53.4307 84 53.8307L83.4 52.8307C84.7 52.5307 85.7 52.1307 86.7 51.6307C87.4 51.2307 88.1 50.8307 88.7 50.3307C88.7 50.2307 88.6 50.1307 88.6 50.0307C88.6 49.9307 88.5 49.8307 88.5 49.7307C87.9 50.1307 87.3 50.5307 86.8 50.7307C86.1 51.0307 85.1 51.4307 84 51.7307L83.5 50.8307C84.6 50.5307 85.6 50.2307 86.4 49.9307C87 49.6307 87.6 49.3307 88.1 49.0307C88 48.9307 87.9 48.7307 87.8 48.6307C86.8 49.0307 85.6 49.4307 84.3 49.7307L83.7 48.8307C85.1 48.5307 86.3 48.2307 87.1 47.9307C87.4 47.8307 87.8 47.6307 88.1 47.5307H84.9V46.6307H92.3V46.2307ZM89.2 44.4307H93.7V46.7307H92.7V45.4307H84.8V46.7307H83.8V44.4307H88C87.9 44.2307 87.7 43.9307 87.6 43.7307L88.8 43.5307C89 43.8307 89.1 44.1307 89.2 44.4307Z" fill="#3E3A39"/>
<path d="M101 50.5307C100.8 50.1307 100.4 49.7307 100 49.2307C99.7 48.9307 99.3 48.5307 98.7 48.0307L99.4 47.4307C99.8 47.7307 100.2 48.1307 100.8 48.6307C101.1 48.9307 101.5 49.4307 101.9 49.9307L101 50.5307Z" fill="#3E3A39"/>
<path d="M109.5 46.1307C109 48.3307 108.4 50.2307 107.6 51.8307L106.5 51.1307C107.4 49.5307 108 47.8307 108.4 45.9307L109.5 46.1307ZM112.5 43.7307V52.7307C112.5 53.2307 112.4 53.5307 112.2 53.7307C112 53.9307 111.6 54.0307 111.1 54.0307H109.3L109 52.7307C109.7 52.8307 110.2 52.8307 110.7 52.8307C111 52.8307 111.2 52.7307 111.2 52.5307V43.8307H112.5V43.7307ZM117 51.7307L115.8 52.0307C115.4 50.0307 114.8 48.1307 114.1 46.2307L115.2 45.8307C115.9 47.5307 116.5 49.5307 117 51.7307Z" fill="#3E3A39"/>
<path d="M121.8 53.0307H120.8V52.3307H119.5V53.3307H118.5V44.6307H121.9V53.0307H121.8ZM120.7 51.3307V45.6307H119.4V51.3307H120.7ZM124.6 43.8307C124.5 44.3307 124.3 44.7307 124.2 45.1307H128.2V46.1307H123.6C123.3 46.6307 122.9 47.1307 122.4 47.5307L121.8 46.7307C122.2 46.3307 122.6 45.8307 122.9 45.3307C123.1 44.9307 123.3 44.4307 123.6 43.6307L124.6 43.8307ZM127.7 47.5307V48.4307C124.8 51.0307 123.4 52.4307 123.4 52.7307C123.4 52.8307 123.5 52.9307 123.7 52.9307H126.8C127 52.9307 127.2 52.8307 127.3 52.7307C127.4 52.6307 127.5 52.0307 127.6 51.2307L128.5 51.5307C128.4 52.7307 128.2 53.4307 127.9 53.6307C127.7 53.8307 127.3 53.9307 126.7 53.9307H123.6C123.2 53.9307 122.8 53.8307 122.5 53.5307C122.3 53.3307 122.2 53.0307 122.2 52.7307C122.2 52.5307 122.3 52.3307 122.4 52.1307C122.6 51.7307 123.9 50.5307 126.1 48.5307H122.7V47.5307H127.7V47.5307Z" fill="#3E3A39"/>
<path d="M133.7 44.9307H135.7C136 44.5307 136.4 44.0307 136.6 43.6307L137.7 44.0307C137.4 44.4307 137.2 44.7307 136.9 45.0307H139.4V45.9307H135.2V46.6307H139V47.5307H135.2V47.7307C135.2 47.9307 135.2 48.1307 135.2 48.3307H139.9V49.3307H135.1C135.1 49.6307 135 49.9307 135 50.2307H140V51.1307H136C136.1 51.4307 136.4 51.7307 136.6 51.9307C136.9 52.1307 137.3 52.3307 137.8 52.5307C138.3 52.7307 139 52.9307 140 53.1307L139.3 54.1307C138.3 53.9307 137.6 53.6307 137 53.4307C136.4 53.1307 135.9 52.8307 135.6 52.4307C135.3 52.0307 135 51.6307 134.9 51.1307H134.6C134.4 51.5307 134.3 51.8307 134 52.1307C133.3 53.1307 131.8 53.8307 129.8 54.0307L129.3 53.0307C131.3 52.9307 132.6 52.4307 133.2 51.5307C133.3 51.4307 133.4 51.2307 133.4 51.1307H129.4V50.2307H133.7C133.8 49.9307 133.8 49.6307 133.9 49.3307H129.4V48.3307H134C134 48.1307 134 47.9307 134 47.7307V47.5307H130.4V46.6307H134V45.9307H130V45.0307H132.5C132.3 44.7307 132 44.4307 131.8 44.1307L132.9 43.7307C133.2 44.0307 133.4 44.4307 133.7 44.9307Z" fill="#3E3A39"/>
<path d="M146.7 43.6307C147.4 44.2307 148.1 44.8307 148.9 45.1307C149.4 45.4307 150.3 45.8307 151.6 46.2307L151 47.1307C150.6 47.0307 150.3 46.9307 150 46.8307V50.8307H146.7C147 51.2307 147.3 51.5307 147.6 51.8307C148.6 51.6307 149.6 51.2307 150.5 50.7307L151.2 51.4307C150.4 51.8307 149.5 52.1307 148.5 52.4307C148.5 52.4307 148.5 52.4307 148.6 52.4307C149.1 52.7307 150.2 52.9307 151.8 53.0307L151.4 54.1307C149.6 53.8307 148.4 53.5307 147.6 53.0307C146.9 52.5307 146.2 51.8307 145.6 50.8307H143.7V52.8307C144.5 52.7307 145.3 52.5307 146.1 52.3307V53.4307C144.8 53.7307 143.3 54.0307 141.7 54.2307L141.6 53.1307C141.9 53.1307 142.2 53.1307 142.6 53.0307V47.0307C142.2 47.2307 141.8 47.3307 141.4 47.5307L140.9 46.5307C142.2 46.1307 143.2 45.6307 143.9 45.2307C144.5 44.9307 145.1 44.4307 145.7 43.7307H146.2H146.7V43.6307ZM145.9 46.4307C145.8 46.1307 145.6 45.8307 145.5 45.5307L146.5 45.4307C146.6 45.7307 146.8 46.1307 146.9 46.4307H149.1C148.2 46.0307 147.2 45.3307 146.3 44.5307C145.6 45.1307 144.9 45.6307 144.3 46.0307C144.1 46.1307 143.9 46.3307 143.6 46.4307H145.9ZM148.8 48.1307V47.3307H143.6V48.1307H148.8ZM148.8 49.8307V49.0307H143.6V49.9307H148.8V49.8307Z" fill="#3E3A39"/>
<path d="M11.4 69.0307V69.9307H6.20004V75.4307H5.20004V74.2307C4.00004 74.3307 2.60004 74.5307 1.10004 74.6307L0.900024 73.6307C1.20002 73.6307 1.60002 73.6307 1.90002 73.6307V69.8307H0.900024V69.0307H11.4ZM10.4 65.0307V68.5307H2.20004V65.0307H10.4ZM5.20004 70.6307V69.9307H2.90002V70.6307H5.20004ZM5.20004 72.1307V71.4307H2.90002V72.1307H5.20004ZM5.20004 73.4307V72.8307H2.90002V73.6307C3.70002 73.6307 4.40004 73.5307 5.20004 73.4307ZM9.20004 66.4307V65.8307H3.20004V66.4307H9.20004ZM9.20004 67.1307H3.20004V67.7307H9.20004V67.1307ZM11 70.5307V71.2307C10.7 72.2307 10.3 73.1307 9.70004 73.8307C10.2 74.1307 10.8 74.3307 11.5 74.5307L11 75.3307C10.2 75.0307 9.50003 74.7307 9.00003 74.4307C8.40003 74.7307 7.80002 75.1307 6.90002 75.3307L6.40002 74.4307C7.10002 74.2307 7.70004 73.9307 8.20004 73.7307C7.70004 73.2307 7.20002 72.6307 6.90002 72.0307L7.70004 71.6307C8.00004 72.3307 8.40003 72.8307 9.00003 73.3307C9.10003 73.2307 9.10004 73.2307 9.20004 73.1307C9.60004 72.6307 9.90004 72.1307 10.1 71.4307H6.70004V70.5307H11Z" fill="#3E3A39"/>
<path d="M15.4 67.5307V68.3307C15 68.9307 14.5 69.6307 14 70.3307H15.4V71.0307C15.2 71.7307 15.1 72.3307 14.9 72.7307C15.3 73.2307 15.7 73.5307 16 73.6307C16.2 73.7307 16.6 73.9307 17.1 73.9307C17.7 74.0307 18.7 74.0307 20.4 74.0307C21.6 74.0307 22.5 74.0307 23.1 73.9307L23 75.0307C19.8 75.0307 17.9 75.0307 17.2 74.9307C16.6 74.8307 16.1 74.7307 15.7 74.5307C15.4 74.3307 15 74.0307 14.6 73.5307C14.3 74.1307 13.8 74.6307 13.3 75.3307L12.5 74.5307C13.1 73.9307 13.5 73.4307 13.8 72.9307C14 72.6307 14.2 72.1307 14.5 71.2307H12.9V70.3307C13.4 69.8307 13.9 69.2307 14.4 68.4307H12.7V67.5307H15.4ZM15 66.6307L14.3 67.3307C14 66.7307 13.6 66.1307 13.1 65.5307L13.8 64.9307C14.2 65.4307 14.6 66.0307 15 66.6307ZM19.8 65.6307H22.7V66.5307H20.6L21.3 66.7307C21.2 67.0307 21 67.2307 20.9 67.5307H22.5V72.6307C22.5 72.9307 22.4 73.2307 22.2 73.4307C22 73.6307 21.8 73.6307 21.6 73.6307H20.8L20.7 73.0307H17.7V70.6307H18.8V69.7307H17.4V68.9307H18.8V68.3307H17V73.6307H16V67.5307H17.4C17.3 67.3307 17.1 67.0307 17 66.7307L17.6 66.5307H15.7V65.6307H18.6C18.4 65.3307 18.3 65.1307 18.1 64.9307L19.2 64.8307C19.4 65.0307 19.6 65.3307 19.8 65.6307ZM19.9 67.5307C20.1 67.2307 20.2 66.9307 20.3 66.5307H18C18.2 66.8307 18.3 67.1307 18.5 67.5307H19.9ZM19.9 71.3307H18.6V72.3307H19.9V71.3307ZM20.7 70.5307V72.6307H21.2C21.4 72.6307 21.5 72.5307 21.5 72.2307V68.2307H19.6V68.8307H21V69.6307H19.6V70.5307H20.7Z" fill="#3E3A39"/>
<path d="M29.7 64.8307C30.4 65.6307 31.1 66.2307 31.9 66.7307C32.4 67.1307 33.3 67.5307 34.6 68.0307L33.9 69.1307C33.4 68.9307 32.9 68.7307 32.4 68.4307V69.1307H26.2V68.4307C25.7 68.7307 25.2 69.0307 24.5 69.3307L23.9 68.2307C25.2 67.7307 26.2 67.1307 26.9 66.6307C27.5 66.2307 28.1 65.6307 28.7 64.8307H29.2H29.7V64.8307ZM33 75.3307H31.9V74.7307H26.5V75.3307H25.4V70.4307H33V75.3307ZM31.9 73.7307V71.4307H26.5V73.7307H31.9ZM31.8 68.2307C30.9 67.6307 30 66.9307 29.1 65.9307C28.4 66.7307 27.8 67.3307 27.1 67.8307C26.9 68.0307 26.7 68.1307 26.5 68.2307H31.8Z" fill="#3E3A39"/>
<path d="M38.7 65.2307C38.4 66.1307 38.1 66.9307 37.8 67.5307V75.2307H36.8V69.1307C36.5 69.5307 36.2 69.9307 35.8 70.4307L35.4 69.1307C35.9 68.5307 36.3 67.9307 36.7 67.2307C37.1 66.6307 37.4 65.8307 37.8 64.7307L38.7 65.2307ZM41.4 65.0307C41.3 65.4307 41.1 65.7307 41 66.1307H45.9C45.7 67.1307 45.4 68.1307 45 69.1307L43.9 68.8307C44.2 68.4307 44.5 67.8307 44.7 67.1307H40.6C40.1 68.1307 39.6 68.9307 39.1 69.5307L38.3 68.6307C39.2 67.5307 40 66.2307 40.5 64.9307L41.4 65.0307ZM41 69.5307C40.6 71.1307 40 72.4307 39.3 73.5307L38.3 72.9307C39.1 71.8307 39.6 70.6307 40 69.3307L41 69.5307ZM42.8 67.8307V74.1307C42.8 74.5307 42.7 74.8307 42.5 75.0307C42.3 75.2307 42 75.3307 41.5 75.3307H39.9L39.7 74.2307C40.3 74.3307 40.8 74.3307 41.2 74.3307C41.5 74.3307 41.6 74.2307 41.6 74.0307V67.8307H42.8V67.8307ZM45.9 73.3307L44.9 73.7307C44.4 72.1307 43.9 70.7307 43.3 69.4307L44.3 69.1307C45 70.5307 45.5 71.9307 45.9 73.3307Z" fill="#3E3A39"/>
<path d="M50.3 65.0307C50.2 65.6307 50 66.2307 49.7 66.7307H51.4V69.1307C51.7 68.5307 52 68.0307 52.2 67.4307C52.4 66.8307 52.6 65.9307 52.8 64.8307L53.9 65.0307C53.8 65.6307 53.7 66.2307 53.6 66.6307H57.1C57.1 70.6307 57 73.0307 56.9 73.8307C56.8 74.4307 56.6 74.8307 56.3 75.0307C56 75.2307 55.4 75.3307 54.5 75.3307C54.2 75.3307 54 75.3307 53.6 75.3307L53.4 74.2307C53.7 74.3307 54.1 74.3307 54.4 74.3307C55.1 74.3307 55.5 74.1307 55.6 73.6307C55.7 73.0307 55.8 71.1307 55.9 67.8307H53.2C53.2 67.9307 53.1 67.9307 53.1 68.0307C52.8 68.8307 52.4 69.7307 51.8 70.6307L51.3 69.9307V74.6307H50.3V74.1307H48.2V75.0307H47.2V66.8307H48.6C48.8 66.2307 49 65.6307 49.2 65.0307H50.3ZM50.4 69.8307V67.6307H48.3V69.8307H50.4ZM50.4 73.0307V70.7307H48.3V73.0307H50.4ZM55.2 71.9307L54.1 72.6307C53.8 71.8307 53.3 70.8307 52.8 69.7307L53.7 69.1307C54.3 70.2307 54.8 71.1307 55.2 71.9307Z" fill="#3E3A39"/>
<path d="M60.3 71.3307C60.1 72.3307 59.8 73.3307 59.4 74.1307L58.4 73.7307C58.7 73.0307 59 72.1307 59.3 71.0307L60.3 71.3307ZM61.8 65.9307H63.8V66.8307H58.5V65.9307H60.7C60.5 65.6307 60.4 65.3307 60.2 65.0307L61.3 64.9307C61.5 65.2307 61.7 65.6307 61.8 65.9307ZM63.4 67.6307V70.6307H61.8V74.1307C61.8 74.5307 61.7 74.8307 61.5 74.9307C61.3 75.1307 61 75.2307 60.6 75.2307H59.9L59.7 74.1307C59.9 74.2307 60.1 74.2307 60.3 74.2307C60.6 74.2307 60.7 74.1307 60.7 73.9307V70.6307H59V67.6307H63.4ZM62.4 68.5307H60V69.8307H62.4V68.5307ZM63.7 73.0307L62.7 73.4307C62.6 72.7307 62.5 72.0307 62.3 71.3307L63.1 71.1307C63.4 71.8307 63.6 72.5307 63.7 73.0307ZM65.1 67.4307V64.8307H66.1V67.4307H68.8V68.4307H66C65.9 69.7307 65.8 70.8307 65.5 71.7307C65.2 72.9307 64.5 74.1307 63.6 75.3307L62.7 74.5307C63.6 73.5307 64.2 72.5307 64.5 71.3307C64.7 70.6307 64.9 69.6307 64.9 68.3307H63.5V67.3307H65.1V67.4307ZM67.2 69.5307V73.8307C67.2 74.0307 67.3 74.1307 67.5 74.1307C67.8 74.1307 67.9 74.0307 67.9 73.7307V72.0307L68.8 72.4307C68.8 73.7307 68.7 74.5307 68.5 74.8307C68.3 75.0307 68 75.2307 67.4 75.2307C66.9 75.2307 66.6 75.1307 66.4 74.9307C66.2 74.7307 66.1 74.5307 66.1 74.1307V69.5307H67.2ZM68.7 66.5307L67.8 67.1307C67.5 66.7307 67.1 66.2307 66.7 65.6307L67.5 65.2307C68 65.7307 68.4 66.2307 68.7 66.5307Z" fill="#3E3A39"/>
<path d="M80.4 69.9307V70.9307H75.9V72.0307H79.8V72.9307H75.9V74.1307C76.5 74.1307 77.1 74.2307 77.9 74.2307C79 74.2307 79.9 74.2307 80.6 74.1307L80.3 75.2307C76.8 75.2307 74.7 75.1307 74 74.8307C73.3 74.6307 72.7 74.1307 72.3 73.4307C72 74.0307 71.4 74.7307 70.7 75.4307L69.9 74.4307C70.5 73.9307 71 73.4307 71.3 72.9307C71.6 72.4307 71.9 71.8307 72 71.0307L73.1 71.2307C73 71.7307 72.8 72.1307 72.7 72.5307C73.2 73.2307 73.7 73.6307 74.4 73.8307C74.5 73.8307 74.7 73.9307 74.8 73.9307V70.8307H69.9V69.8307H80.4V69.9307ZM79.3 65.0307V69.2307H71.1V65.0307H79.3ZM78.2 66.7307V66.0307H72.2V66.7307H78.2ZM78.2 67.5307H72.2V68.3307H78.2V67.5307Z" fill="#3E3A39"/>
<path d="M91.9 69.0307V69.9307H86.7V75.4307H85.7V74.2307C84.5 74.3307 83.1 74.5307 81.6 74.6307L81.4 73.6307C81.7 73.6307 82.1 73.6307 82.4 73.6307V69.8307H81.4V69.0307H91.9ZM90.9 65.0307V68.5307H82.7V65.0307H90.9ZM85.7 70.6307V69.9307H83.4V70.6307H85.7ZM85.7 72.1307V71.4307H83.4V72.1307H85.7ZM85.7 73.4307V72.8307H83.4V73.6307C84.2 73.6307 84.9 73.5307 85.7 73.4307ZM89.7 66.4307V65.8307H83.7V66.4307H89.7ZM89.7 67.1307H83.7V67.7307H89.7V67.1307ZM91.5 70.5307V71.2307C91.2 72.2307 90.8 73.1307 90.2 73.8307C90.7 74.1307 91.3 74.3307 92 74.5307L91.5 75.3307C90.7 75.0307 90 74.7307 89.5 74.4307C88.9 74.7307 88.3 75.1307 87.4 75.3307L86.9 74.4307C87.6 74.2307 88.2 73.9307 88.7 73.7307C88.2 73.2307 87.7 72.6307 87.4 72.0307L88.2 71.6307C88.5 72.3307 88.9 72.8307 89.5 73.3307C89.6 73.2307 89.6 73.2307 89.7 73.1307C90.1 72.6307 90.4 72.1307 90.6 71.4307H87.2V70.5307H91.5Z" fill="#3E3A39"/>
<path d="M94.2 66.8307C94.3 66.2307 94.4 65.6307 94.5 64.9307L95.5 65.0307C95.4 65.6307 95.3 66.2307 95.2 66.8307H97.4V67.8307C97.3 69.1307 97.1 70.2307 96.8 71.1307C96.7 71.6307 96.5 72.0307 96.3 72.4307C96.8 72.8307 97.2 73.1307 97.7 73.5307L97.1 74.4307C96.7 74.0307 96.3 73.7307 95.8 73.3307C95.3 74.0307 94.6 74.7307 93.6 75.5307L92.8 74.6307C93.7 74.0307 94.4 73.3307 94.9 72.6307C94.3 72.2307 93.7 71.9307 93.1 71.5307C93.5 70.3307 93.8 69.1307 94.1 67.8307H92.9V66.8307H94.2V66.8307ZM94.4 71.0307C94.8 71.2307 95.1 71.4307 95.4 71.7307C95.4 71.7307 95.4 71.7307 95.4 71.6307C95.8 70.7307 96.1 69.4307 96.3 67.7307H95C94.9 68.9307 94.7 70.0307 94.4 71.0307ZM103.1 65.3307V66.4307C102.5 67.2307 101.9 67.9307 101.2 68.6307V69.6307H103.5V70.7307H101.2V74.4307C101.2 74.7307 101.1 74.9307 101 75.1307C100.8 75.3307 100.6 75.4307 100.3 75.4307H98.4L98.2 74.3307C98.7 74.3307 99.2 74.3307 99.7 74.3307C99.9 74.3307 100.1 74.2307 100.1 74.0307V70.6307H97.5V69.5307H100.1V68.2307C100.7 67.8307 101.2 67.2307 101.9 66.4307H97.8V65.3307H103.1V65.3307Z" fill="#3E3A39"/>
<path d="M107.8 65.0307C107.7 65.6307 107.5 66.2307 107.2 66.7307H108.9V69.1307C109.2 68.5307 109.5 68.0307 109.7 67.4307C109.9 66.8307 110.1 65.9307 110.3 64.8307L111.4 65.0307C111.3 65.6307 111.2 66.2307 111.1 66.6307H114.6C114.6 70.6307 114.5 73.0307 114.4 73.8307C114.3 74.4307 114.1 74.8307 113.8 75.0307C113.5 75.2307 112.9 75.3307 112 75.3307C111.7 75.3307 111.5 75.3307 111.1 75.3307L110.9 74.2307C111.2 74.3307 111.6 74.3307 111.9 74.3307C112.6 74.3307 113 74.1307 113.1 73.6307C113.2 73.0307 113.3 71.1307 113.4 67.8307H110.7C110.7 67.9307 110.6 67.9307 110.6 68.0307C110.3 68.8307 109.9 69.7307 109.3 70.6307L108.8 69.9307V74.6307H107.8V74.1307H105.7V75.0307H104.7V66.8307H106.1C106.3 66.2307 106.5 65.6307 106.7 65.0307H107.8ZM107.9 69.8307V67.6307H105.8V69.8307H107.9ZM107.9 73.0307V70.7307H105.8V73.0307H107.9ZM112.7 71.9307L111.6 72.6307C111.3 71.8307 110.8 70.8307 110.3 69.7307L111.2 69.1307C111.8 70.2307 112.3 71.1307 112.7 71.9307Z" fill="#3E3A39"/>
<g opacity="0.6">
<path d="M3.5 136.631C3.5 137.131 3.29999 137.531 2.79999 137.831C2.39999 138.031 1.99999 138.131 1.39999 138.131C1.29999 138.131 1 138.131 0.5 138.131V132.931H1.39999C1.89999 132.931 2.30001 133.031 2.60001 133.131C3.00001 133.331 3.20001 133.631 3.20001 134.031C3.20001 134.331 3.09999 134.531 2.89999 134.831C2.69999 135.031 2.50001 135.231 2.20001 135.331C2.60001 135.431 2.90001 135.531 3.10001 135.731C3.40001 135.931 3.5 136.231 3.5 136.631ZM3 136.631C3 136.231 2.90001 135.931 2.60001 135.731C2.40001 135.531 2.10001 135.431 1.70001 135.431H1.39999V135.231H1.60001C2.00001 135.231 2.19999 135.131 2.39999 134.831C2.49999 134.631 2.60001 134.331 2.60001 134.131C2.60001 133.431 2.10001 133.031 1.20001 133.031H0.899994V137.931H1.20001C2.40001 137.931 3 137.431 3 136.631Z" fill="#C9A063"/>
<path d="M7.30002 136.031H5.30002V135.831H6.80002C6.80002 135.231 6.50003 134.931 6.00003 134.931C5.70003 134.931 5.40004 135.031 5.20004 135.331C5.00004 135.631 4.90002 135.931 4.90002 136.431C4.90002 136.931 5.00004 137.231 5.20004 137.531C5.40004 137.831 5.70003 137.931 6.00003 137.931C6.40003 137.931 6.70003 137.731 7.00003 137.431L7.20004 137.631C6.90004 137.931 6.50004 138.131 6.10004 138.131C5.60004 138.131 5.30002 137.931 4.90002 137.631C4.60002 137.331 4.40002 136.931 4.40002 136.431C4.40002 135.931 4.60002 135.531 4.90002 135.231C5.20002 134.931 5.60003 134.731 6.00003 134.731C6.30003 134.731 6.60002 134.831 6.90002 135.131C7.20002 135.431 7.30002 135.631 7.30002 136.031Z" fill="#C9A063"/>
<path d="M10.5 135.931V138.031H10V137.731C9.8 137.931 9.50001 138.031 9.20001 138.031C8.90001 138.031 8.59999 137.931 8.39999 137.731C8.19999 137.531 8 137.331 8 136.931C8 136.631 8.09999 136.331 8.39999 136.131C8.59999 135.931 8.90001 135.831 9.10001 135.831C9.20001 135.831 9.29999 135.831 9.29999 135.831C9.49999 135.831 9.60001 135.931 9.70001 135.931L9.60001 136.131C9.40001 136.031 9.30001 135.931 9.10001 135.931C8.90001 135.931 8.70001 136.031 8.60001 136.131C8.50001 136.331 8.39999 136.531 8.39999 136.831C8.39999 137.131 8.50001 137.331 8.60001 137.431C8.70001 137.631 8.90001 137.631 9.10001 137.631C9.40001 137.631 9.69999 137.431 9.89999 137.131V135.631C9.89999 134.931 9.70001 134.631 9.20001 134.631C8.90001 134.631 8.69999 134.731 8.39999 134.931L8.29999 134.731C8.49999 134.531 8.80001 134.531 9.20001 134.531C10.1 134.731 10.5 135.131 10.5 135.931Z" fill="#C9A063"/>
<path d="M14.3 138.031H13.8V137.431C13.6 137.831 13.2 138.031 12.8 138.031C12 138.031 11.6 137.631 11.6 136.831V134.631H12.1V136.831C12.1 137.531 12.3 137.831 12.8 137.831C13.1 137.831 13.3 137.631 13.5 137.331C13.6 137.131 13.7 136.931 13.7 136.731V134.631H14.2V138.031H14.3Z" fill="#C9A063"/>
<path d="M16.7001 134.931H16.0001V136.931C16.0001 137.231 16.0001 137.531 16.1001 137.631C16.2001 137.731 16.3001 137.831 16.6001 137.831V138.031C15.9001 138.031 15.5001 137.631 15.5001 136.931V134.931H15.2001V134.731H15.5001V134.331H16.0001V134.731H16.6001V134.931H16.7001Z" fill="#C9A063"/>
<path d="M20.4 134.831L18.6 139.331H18.4L18.9 138.031L17.5 134.831H18L19.1 137.431L20.1 134.831H20.4Z" fill="#C9A063"/>
<path d="M23.2001 138.031H22.7001V133.031H23.2001V138.031Z" fill="#C9A063"/>
<path d="M25 133.331C25 133.431 25 133.531 24.9 133.531C24.8 133.531 24.8 133.631 24.7 133.631C24.6 133.631 24.5 133.631 24.5 133.531C24.5 133.431 24.4 133.431 24.4 133.331C24.4 133.231 24.4 133.131 24.5 133.131C24.6 133.031 24.6 133.031 24.7 133.031C24.8 133.031 24.9 133.031 24.9 133.131C24.9 133.231 25 133.331 25 133.331ZM24.9 138.031H24.4V134.831H24.9V138.031Z" fill="#C9A063"/>
<path d="M28.8 136.031H26.8V135.831H28.3C28.3 135.231 28 134.931 27.5 134.931C27.2 134.931 26.9 135.031 26.7 135.331C26.5 135.631 26.4 135.931 26.4 136.431C26.4 136.931 26.5 137.231 26.7 137.531C26.9 137.831 27.2 137.931 27.5 137.931C27.9 137.931 28.2 137.731 28.5 137.431L28.7 137.631C28.4 137.931 28 138.131 27.6 138.131C27.1 138.131 26.8 137.931 26.4 137.631C26.1 137.331 25.9 136.931 25.9 136.431C25.9 135.931 26.1 135.531 26.4 135.231C26.7 134.931 27.1 134.731 27.5 134.731C27.8 134.731 28.1 134.831 28.4 135.131C28.7 135.431 28.8 135.631 28.8 136.031Z" fill="#C9A063"/>
<path d="M31.5 137.231C31.5 137.531 31.4 137.731 31.2 137.831C31 138.031 30.8 138.031 30.5 138.031C30.1 138.031 29.8 137.931 29.6 137.631L29.7 137.431C29.9 137.731 30.2 137.831 30.5 137.831C30.7 137.831 30.8 137.731 30.9 137.631C31 137.531 31.1 137.331 31.1 137.231C31.1 137.031 31 136.831 30.8 136.731C30.7 136.631 30.5 136.531 30.2 136.331C29.8 136.131 29.7 135.831 29.7 135.431C29.7 135.231 29.8 135.031 30 134.831C30.2 134.731 30.4 134.631 30.6 134.631C30.7 134.631 30.9 134.631 31.1 134.731C31.3 134.831 31.4 134.931 31.4 135.031L31.2 135.231C31 134.931 30.8 134.831 30.5 134.831C30.2 134.831 30 134.931 30 135.231C30 135.431 30.1 135.631 30.3 135.831C30.7 136.031 30.9 136.231 31 136.331C31.4 136.631 31.5 136.931 31.5 137.231Z" fill="#C9A063"/>
<path d="M34.5 133.331C34.5 133.431 34.5 133.531 34.4 133.531C34.3 133.531 34.3 133.631 34.2 133.631C34.1 133.631 34 133.631 34 133.531C34 133.431 33.9 133.431 33.9 133.331C33.9 133.231 33.9 133.131 34 133.131C34.1 133.031 34.1 133.031 34.2 133.031C34.3 133.031 34.4 133.031 34.4 133.131C34.5 133.231 34.5 133.331 34.5 133.331ZM34.4 138.031H34V134.831H34.5V138.031H34.4Z" fill="#C9A063"/>
<path d="M38.2 138.031H37.7V135.831C37.7 135.131 37.5 134.831 37 134.831C36.5 134.831 36.2 135.131 36 135.731V138.031H35.5V134.831H36V135.231C36.3 134.831 36.6 134.731 37 134.731C37.4 134.731 37.7 134.831 37.8 134.931C38 135.131 38.1 135.431 38.1 135.831V138.031H38.2Z" fill="#C9A063"/>
<path d="M42.1001 134.931H41.5001V136.931C41.5001 137.231 41.5001 137.531 41.6001 137.631C41.7001 137.731 41.8001 137.831 42.1001 137.831V138.031C41.4001 138.031 41.0001 137.631 41.0001 136.931V134.931H40.7001V134.731H41.0001V134.331H41.5001V134.731H42.1001V134.931Z" fill="#C9A063"/>
<path d="M45.6 138.031H45.1V135.831C45.1 135.131 44.9 134.831 44.4 134.831C43.9 134.831 43.6 135.131 43.4 135.731V138.031H43V133.031H43.5V135.231C43.8 134.831 44.1 134.731 44.5 134.731C44.9 134.731 45.2 134.831 45.3 134.931C45.5 135.131 45.6 135.431 45.6 135.831V138.031Z" fill="#C9A063"/>
<path d="M49.5 136.031H47.5V135.831H49C49 135.231 48.7 134.931 48.2 134.931C47.9 134.931 47.6 135.031 47.4 135.331C47.2 135.631 47.1 135.931 47.1 136.431C47.1 136.931 47.2 137.231 47.4 137.531C47.6 137.831 47.9 137.931 48.2 137.931C48.6 137.931 48.9 137.731 49.2 137.431L49.4 137.631C49.1 137.931 48.7 138.131 48.3 138.131C47.8 138.131 47.5 137.931 47.1 137.631C46.8 137.331 46.6 136.931 46.6 136.431C46.6 135.931 46.8 135.531 47.1 135.231C47.4 134.931 47.8 134.731 48.2 134.731C48.5 134.731 48.8 134.831 49.1 135.131C49.4 135.431 49.5 135.631 49.5 136.031Z" fill="#C9A063"/>
<path d="M54.6001 137.631C54.3001 137.931 53.9001 138.031 53.5001 138.031C53.0001 138.031 52.7 137.831 52.3 137.531C52 137.231 51.8 136.831 51.8 136.331C51.8 135.831 52 135.431 52.3 135.131C52.6 134.831 53.0001 134.631 53.5001 134.631C53.9001 134.631 54.2001 134.731 54.5001 134.931L54.4001 135.131C54.2001 134.931 53.9001 134.731 53.5001 134.731C53.2001 134.731 52.9001 134.931 52.7001 135.231C52.5001 135.531 52.4001 135.831 52.4001 136.231C52.4001 136.631 52.5001 137.031 52.7001 137.231C52.9001 137.531 53.2001 137.731 53.5001 137.731C53.9001 137.731 54.2001 137.531 54.5001 137.231L54.6001 137.631Z" fill="#C9A063"/>
<path d="M58.3 136.431C58.3 136.931 58.1 137.331 57.8 137.631C57.5 137.931 57.1 138.131 56.6 138.131C56.1 138.131 55.8 137.931 55.4 137.631C55.1 137.331 54.9 136.931 54.9 136.431C54.9 135.931 55.1 135.531 55.4 135.231C55.7 134.931 56.1 134.731 56.6 134.731C57.1 134.731 57.4 134.931 57.8 135.231C58.2 135.531 58.3 135.931 58.3 136.431ZM57.8 136.431C57.8 136.031 57.7 135.631 57.5 135.331C57.3 135.031 57 134.931 56.7 134.931C56.4 134.931 56.1 135.031 55.9 135.331C55.7 135.631 55.6 135.931 55.6 136.431C55.6 136.831 55.7 137.231 55.9 137.531C56.1 137.831 56.4 137.931 56.7 137.931C57 137.931 57.3 137.831 57.5 137.531C57.7 137.231 57.8 136.831 57.8 136.431Z" fill="#C9A063"/>
<path d="M63.8 138.031H63.3V135.831C63.3 135.531 63.3001 135.331 63.2001 135.131C63.1001 135.031 63.0001 134.931 62.7001 134.931C62.3001 134.931 62.1 135.231 61.8 135.731V135.831V138.031H61.3V135.831C61.3 135.531 61.3001 135.331 61.2001 135.131C61.1001 134.931 60.9001 134.931 60.7001 134.931C60.5001 134.931 60.4001 135.031 60.2001 135.131C60.0001 135.331 59.9 135.531 59.8 135.731V138.031H59.3V134.831H59.8V135.231C60.1 134.931 60.4001 134.731 60.7001 134.731C61.2001 134.731 61.5001 134.931 61.7001 135.231C62.0001 134.831 62.3001 134.731 62.7001 134.731C63.4001 134.731 63.8 135.131 63.8 135.831V138.031Z" fill="#C9A063"/>
<path d="M67.6001 136.431C67.6001 136.931 67.5001 137.331 67.2001 137.631C66.9001 137.931 66.6001 138.131 66.1001 138.131C65.8001 138.131 65.5 138.031 65.3 137.731V138.031H64.8V133.031H65.3V137.231C65.4 137.431 65.5001 137.631 65.6001 137.731C65.7001 137.831 65.9001 137.931 66.1001 137.931C66.4001 137.931 66.6 137.831 66.8 137.531C67 137.231 67.1001 136.931 67.1001 136.431C67.1001 136.031 67 135.631 66.8 135.331C66.6 135.031 66.4001 134.931 66.1001 134.931C65.9001 134.931 65.8001 135.031 65.7001 135.131L65.6001 134.931C65.8001 134.831 66.0001 134.831 66.2001 134.831C66.6001 134.831 67 135.031 67.3 135.331C67.5 135.531 67.6001 135.931 67.6001 136.431Z" fill="#C9A063"/>
<path d="M69.3 133.331C69.3 133.431 69.3001 133.531 69.2001 133.531C69.1001 133.531 69.1001 133.631 69.0001 133.631C68.9001 133.631 68.8 133.631 68.8 133.531C68.8 133.431 68.7001 133.431 68.7001 133.331C68.7001 133.231 68.7 133.131 68.8 133.131C68.9 133.031 68.9001 133.031 69.0001 133.031C69.1001 133.031 69.2001 133.031 69.2001 133.131C69.2001 133.231 69.3 133.331 69.3 133.331ZM69.2001 138.031H68.7001V134.831H69.2001V138.031Z" fill="#C9A063"/>
<path d="M73.0001 138.031H72.5001V135.831C72.5001 135.131 72.3 134.831 71.8 134.831C71.3 134.831 71 135.131 70.8 135.731V138.031H70.3V134.831H70.8V135.231C71.1 134.831 71.4 134.731 71.8 134.731C72.2 134.731 72.5001 134.831 72.6001 134.931C72.8001 135.131 72.9001 135.431 72.9001 135.831V138.031H73.0001Z" fill="#C9A063"/>
<path d="M76.4 135.931V138.031H75.9V137.731C75.7 137.931 75.4 138.031 75.1 138.031C74.8 138.031 74.5 137.931 74.3 137.731C74.1 137.531 73.9 137.331 73.9 136.931C73.9 136.631 74 136.331 74.3 136.131C74.5 135.931 74.8 135.831 75 135.831C75.1 135.831 75.2 135.831 75.2 135.831C75.4 135.831 75.5 135.931 75.6 135.931L75.5 136.131C75.3 136.031 75.2 135.931 75 135.931C74.8 135.931 74.6 136.031 74.5 136.131C74.4 136.331 74.3 136.531 74.3 136.831C74.3 137.131 74.4 137.331 74.5 137.431C74.6 137.631 74.8 137.631 75 137.631C75.3 137.631 75.6 137.431 75.8 137.131V135.631C75.8 134.931 75.6 134.631 75.1 134.631C74.8 134.631 74.6 134.731 74.3 134.931L74.2 134.731C74.4 134.531 74.7 134.531 75.1 134.531C76 134.731 76.4 135.131 76.4 135.931Z" fill="#C9A063"/>
<path d="M78.8 134.931H78.2V136.931C78.2 137.231 78.2 137.531 78.3 137.631C78.4 137.731 78.5 137.831 78.8 137.831V138.031C78.1 138.031 77.7 137.631 77.7 136.931V134.931H77.4V134.731H77.7V134.331H78.2V134.731H78.8V134.931Z" fill="#C9A063"/>
<path d="M80.3 133.331C80.3 133.431 80.3001 133.531 80.2001 133.531C80.1001 133.531 80.1001 133.631 80.0001 133.631C79.9001 133.631 79.8 133.631 79.8 133.531C79.8 133.431 79.7001 133.431 79.7001 133.331C79.7001 133.231 79.7 133.131 79.8 133.131C79.9 133.031 79.9001 133.031 80.0001 133.031C80.1001 133.031 80.2001 133.031 80.2001 133.131C80.2001 133.231 80.3 133.331 80.3 133.331ZM80.2001 138.031H79.7001V134.831H80.2001V138.031Z" fill="#C9A063"/>
<path d="M84.5 136.431C84.5 136.931 84.3 137.331 84 137.631C83.7 137.931 83.3 138.131 82.8 138.131C82.3 138.131 82 137.931 81.6 137.631C81.3 137.331 81.1 136.931 81.1 136.431C81.1 135.931 81.3 135.531 81.6 135.231C81.9 134.931 82.3 134.731 82.8 134.731C83.3 134.731 83.6 134.931 84 135.231C84.4 135.531 84.5 135.931 84.5 136.431ZM84 136.431C84 136.031 83.9 135.631 83.7 135.331C83.5 135.031 83.2 134.931 82.9 134.931C82.6 134.931 82.3 135.031 82.1 135.331C81.9 135.631 81.8 135.931 81.8 136.431C81.8 136.831 81.9 137.231 82.1 137.531C82.3 137.831 82.6 137.931 82.9 137.931C83.2 137.931 83.5 137.831 83.7 137.531C83.9 137.231 84 136.831 84 136.431Z" fill="#C9A063"/>
<path d="M88.2 138.031H87.7V135.831C87.7 135.131 87.5 134.831 87 134.831C86.5 134.831 86.2 135.131 86 135.731V138.031H85.5V134.831H86V135.231C86.3 134.831 86.6 134.731 87 134.731C87.4 134.731 87.7 134.831 87.8 134.931C88 135.131 88.1 135.431 88.1 135.831V138.031H88.2Z" fill="#C9A063"/>
<path d="M94 136.431C94 136.931 93.8 137.331 93.5 137.631C93.2 137.931 92.8 138.131 92.3 138.131C91.8 138.131 91.5 137.931 91.1 137.631C90.8 137.331 90.6 136.931 90.6 136.431C90.6 135.931 90.8 135.531 91.1 135.231C91.4 134.931 91.8 134.731 92.3 134.731C92.8 134.731 93.1 134.931 93.5 135.231C93.8 135.531 94 135.931 94 136.431ZM93.4 136.431C93.4 136.031 93.3 135.631 93.1 135.331C92.9 135.031 92.6 134.931 92.3 134.931C92 134.931 91.7 135.031 91.5 135.331C91.3 135.631 91.2 135.931 91.2 136.431C91.2 136.831 91.3 137.231 91.5 137.531C91.7 137.831 92 137.931 92.3 137.931C92.6 137.931 92.9 137.831 93.1 137.531C93.3 137.231 93.4 136.831 93.4 136.431Z" fill="#C9A063"/>
<path d="M96.2001 134.931H95.6001V138.031H95.1001V134.931H94.8V134.731H95.1001V134.031C95.1001 133.331 95.5001 133.031 96.2001 133.031V133.231C96.0001 133.231 95.8001 133.331 95.7001 133.431C95.6001 133.531 95.6001 133.831 95.6001 134.131V134.831H96.2001V134.931Z" fill="#C9A063"/>
<path d="M3.10004 147.031H2.60004V144.831C2.60004 144.131 2.40002 143.831 1.90002 143.831C1.40002 143.831 1.10002 144.131 0.900024 144.731V147.031H0.400024V143.831H0.900024V144.231C1.20002 143.831 1.50002 143.731 1.90002 143.731C2.30002 143.731 2.60004 143.831 2.70004 143.931C2.90004 144.131 3.00003 144.431 3.00003 144.831V147.031H3.10004Z" fill="#C9A063"/>
<path d="M6.5 144.931V147.031H6V146.731C5.8 146.931 5.50001 147.031 5.20001 147.031C4.90001 147.031 4.59999 146.931 4.39999 146.731C4.19999 146.531 4 146.331 4 145.931C4 145.631 4.09999 145.331 4.39999 145.131C4.59999 144.931 4.90001 144.831 5.10001 144.831C5.20001 144.831 5.29999 144.831 5.29999 144.831C5.49999 144.831 5.60001 144.931 5.70001 144.931L5.60001 145.131C5.40001 145.031 5.30001 144.931 5.10001 144.931C4.90001 144.931 4.70001 145.031 4.60001 145.131C4.50001 145.331 4.39999 145.531 4.39999 145.831C4.39999 146.131 4.50001 146.331 4.60001 146.431C4.70001 146.631 4.90001 146.631 5.10001 146.631C5.40001 146.631 5.69999 146.431 5.89999 146.131V144.631C5.89999 143.931 5.70001 143.631 5.20001 143.631C4.90001 143.631 4.69999 143.731 4.39999 143.931L4.29999 143.731C4.49999 143.531 4.80001 143.531 5.20001 143.531C6.10001 143.731 6.5 144.131 6.5 144.931Z" fill="#C9A063"/>
<path d="M8.89999 143.931H8.29999V145.931C8.29999 146.231 8.29999 146.531 8.39999 146.631C8.49999 146.731 8.59999 146.831 8.89999 146.831V147.031C8.19999 147.031 7.79999 146.631 7.79999 145.931V143.931H7.5V143.731H7.79999V143.331H8.29999V143.731H8.89999V143.931Z" fill="#C9A063"/>
<path d="M12.4001 147.031H11.9001V146.431C11.7001 146.831 11.3001 147.031 10.9001 147.031C10.1001 147.031 9.70007 146.631 9.70007 145.831V143.631H10.2001V145.831C10.2001 146.531 10.4001 146.831 10.9001 146.831C11.2001 146.831 11.4001 146.631 11.6001 146.331C11.7001 146.131 11.8 145.931 11.8 145.731V143.631H12.3V147.031H12.4001Z" fill="#C9A063"/>
<path d="M15 143.931L14.9 144.131C14.8 144.031 14.6 144.031 14.5 144.031C14.4 144.031 14.4 144.031 14.3 144.131C14.1 144.231 14 144.531 14 145.031V147.131H13.5V143.931H14V144.331C14.1 144.231 14.1 144.131 14.2 144.031C14.3 143.931 14.4 143.931 14.6 143.931C14.8 143.931 14.9 143.831 15 143.931Z" fill="#C9A063"/>
<path d="M18.1 144.931V147.031H17.6V146.731C17.4 146.931 17.1 147.031 16.8 147.031C16.5 147.031 16.2 146.931 16 146.731C15.8 146.531 15.6 146.331 15.6 145.931C15.6 145.631 15.7 145.331 16 145.131C16.2 144.931 16.5 144.831 16.7 144.831C16.8 144.831 16.9 144.831 16.9 144.831C17.1 144.831 17.2 144.931 17.3 144.931L17.2 145.131C17 145.031 16.9 144.931 16.7 144.931C16.5 144.931 16.3 145.031 16.2 145.131C16.1 145.331 16 145.531 16 145.831C16 146.131 16.1 146.331 16.2 146.431C16.3 146.631 16.5 146.631 16.7 146.631C17 146.631 17.3 146.431 17.5 146.131V144.631C17.5 143.931 17.3 143.631 16.8 143.631C16.5 143.631 16.3 143.731 16 143.931L15.9 143.731C16.1 143.531 16.4 143.531 16.8 143.531C17.7 143.731 18.1 144.131 18.1 144.931Z" fill="#C9A063"/>
<path d="M19.7001 147.031H19.2001V142.031H19.7001V147.031Z" fill="#C9A063"/>
<path d="M22.7001 147.031H22.2001V142.031H22.7001V147.031Z" fill="#C9A063"/>
<path d="M26.1 144.931V147.031H25.6V146.731C25.4 146.931 25.1 147.031 24.8 147.031C24.5 147.031 24.2 146.931 24 146.731C23.8 146.531 23.6 146.331 23.6 145.931C23.6 145.631 23.7 145.331 24 145.131C24.2 144.931 24.5 144.831 24.7 144.831C24.8 144.831 24.9 144.831 24.9 144.831C25.1 144.831 25.2 144.931 25.3 144.931L25.2 145.131C25 145.031 24.9 144.931 24.7 144.931C24.5 144.931 24.3 145.031 24.2 145.131C24.1 145.331 24 145.531 24 145.831C24 146.131 24.1 146.331 24.2 146.431C24.3 146.631 24.5 146.631 24.7 146.631C25 146.631 25.3 146.431 25.5 146.131V144.631C25.5 143.931 25.3 143.631 24.8 143.631C24.5 143.631 24.3 143.731 24 143.931L23.9 143.731C24.1 143.531 24.4 143.531 24.8 143.531C25.7 143.731 26.1 144.131 26.1 144.931Z" fill="#C9A063"/>
<path d="M29.9001 147.031H29.4001V144.831C29.4001 144.131 29.2001 143.831 28.7001 143.831C28.2001 143.831 27.9001 144.131 27.7001 144.731V147.031H27.2001V143.831H27.7001V144.231C28.0001 143.831 28.3001 143.731 28.7001 143.731C29.1001 143.731 29.4001 143.831 29.5001 143.931C29.7001 144.131 29.8 144.431 29.8 144.831V147.031H29.9001Z" fill="#C9A063"/>
<path d="M33.7 147.031H33.2V146.731C33 146.931 32.7 147.131 32.4 147.131C32 147.131 31.6 146.931 31.3 146.631C31 146.331 30.9 145.931 30.9 145.431C30.9 144.931 31 144.531 31.3 144.231C31.6 143.931 31.9 143.731 32.4 143.731C32.6 143.731 32.8 143.731 33 143.831L32.9 144.031C32.8 143.931 32.6 143.831 32.4 143.831C32.2 143.831 31.9 143.931 31.8 144.231C31.6 144.531 31.5 144.931 31.5 145.331C31.5 145.731 31.6 146.131 31.8 146.431C32 146.731 32.2 146.831 32.5 146.831C32.7 146.831 32.8 146.731 33 146.631C33.1 146.531 33.2 146.331 33.3 146.131V142.031H33.8V147.031H33.7Z" fill="#C9A063"/>
<path d="M36.6001 146.231C36.6001 146.531 36.5 146.731 36.3 146.831C36.1 147.031 35.9001 147.031 35.6001 147.031C35.2001 147.031 34.9001 146.931 34.7001 146.631L34.8 146.431C35 146.731 35.3001 146.831 35.6001 146.831C35.8001 146.831 35.9001 146.731 36.0001 146.631C36.1001 146.531 36.2001 146.331 36.2001 146.231C36.2001 146.031 36.1001 145.831 35.9001 145.731C35.8001 145.631 35.6 145.531 35.3 145.331C34.9 145.131 34.8 144.831 34.8 144.431C34.8 144.231 34.9001 144.031 35.1001 143.831C35.3001 143.731 35.5001 143.631 35.7001 143.631C35.8001 143.631 36.0001 143.631 36.2001 143.731C36.4001 143.831 36.5001 143.931 36.5001 144.031L36.3 144.231C36.1 143.931 35.9001 143.831 35.6001 143.831C35.3001 143.831 35.1001 143.931 35.1001 144.231C35.1001 144.431 35.2001 144.631 35.4001 144.831C35.8001 145.031 36.0001 145.231 36.1001 145.331C36.5001 145.631 36.6001 145.931 36.6001 146.231Z" fill="#C9A063"/>
<path d="M40.3 146.631C40 146.931 39.6 147.031 39.2 147.031C38.7 147.031 38.4 146.831 38 146.531C37.7 146.231 37.5 145.831 37.5 145.331C37.5 144.831 37.7 144.431 38 144.131C38.3 143.831 38.7 143.631 39.2 143.631C39.6 143.631 39.9 143.731 40.2 143.931L40.1 144.131C39.9 143.931 39.6 143.731 39.2 143.731C38.9 143.731 38.6 143.931 38.4 144.231C38.2 144.531 38.1 144.831 38.1 145.231C38.1 145.631 38.2 146.031 38.4 146.231C38.6 146.531 38.9 146.731 39.2 146.731C39.6 146.731 39.9 146.531 40.2 146.231L40.3 146.631Z" fill="#C9A063"/>
<path d="M43.3 144.931V147.031H42.8V146.731C42.6 146.931 42.3001 147.031 42.0001 147.031C41.7001 147.031 41.4001 146.931 41.2001 146.731C41.0001 146.531 40.8 146.331 40.8 145.931C40.8 145.631 40.9001 145.331 41.2001 145.131C41.4001 144.931 41.7001 144.831 41.9001 144.831C42.0001 144.831 42.1001 144.831 42.1001 144.831C42.3001 144.831 42.4001 144.931 42.5001 144.931L42.4001 145.131C42.2001 145.031 42.1001 144.931 41.9001 144.931C41.7001 144.931 41.5001 145.031 41.4001 145.131C41.3001 145.331 41.2001 145.531 41.2001 145.831C41.2001 146.131 41.3001 146.331 41.4001 146.431C41.5001 146.631 41.7001 146.631 41.9001 146.631C42.2001 146.631 42.5001 146.431 42.7001 146.131V144.631C42.7001 143.931 42.5001 143.631 42.0001 143.631C41.7001 143.631 41.5001 143.731 41.2001 143.931L41.1001 143.731C41.3001 143.531 41.6001 143.531 42.0001 143.531C42.9001 143.731 43.3 144.131 43.3 144.931Z" fill="#C9A063"/>
<path d="M47.2 145.431C47.2 145.931 47.1 146.231 46.8 146.631C46.5 146.931 46.2 147.131 45.8 147.131C45.6 147.131 45.4 147.131 45.2 147.031L45.3 146.831C45.4 146.931 45.6 147.031 45.8 147.031C46 147.031 46.3 146.931 46.4 146.631C46.6 146.331 46.7 146.031 46.7 145.531C46.7 145.131 46.6 144.731 46.4 144.431C46.2 144.131 46 144.031 45.7 144.031C45.5 144.031 45.4 144.131 45.2 144.231C45.1 144.331 45 144.531 44.9 144.731V148.331H44.4V143.931H44.9V144.231C45.1 144.031 45.4 143.831 45.7 143.831C46.1 143.831 46.5 144.031 46.7 144.331C47 144.631 47.2 145.031 47.2 145.431Z" fill="#C9A063"/>
<path d="M51 145.031H49V144.831H50.5C50.5 144.231 50.2 143.931 49.7 143.931C49.4 143.931 49.1 144.031 48.9 144.331C48.7 144.631 48.6 144.931 48.6 145.431C48.6 145.931 48.7 146.231 48.9 146.531C49.1 146.831 49.4 146.931 49.7 146.931C50.1 146.931 50.4 146.731 50.7 146.431L50.9 146.631C50.6 146.931 50.2 147.131 49.8 147.131C49.3 147.131 49 146.931 48.6 146.631C48.3 146.331 48.1 145.931 48.1 145.431C48.1 144.931 48.3 144.531 48.6 144.231C48.9 143.931 49.3 143.731 49.7 143.731C50 143.731 50.3 143.831 50.6 144.131C50.9 144.431 51 144.631 51 145.031Z" fill="#C9A063"/>
<path d="M55.6 144.931V147.031H55.1V146.731C54.9 146.931 54.6 147.031 54.3 147.031C54 147.031 53.7 146.931 53.5 146.731C53.3 146.531 53.1 146.331 53.1 145.931C53.1 145.631 53.2 145.331 53.5 145.131C53.7 144.931 54 144.831 54.2 144.831C54.3 144.831 54.4 144.831 54.4 144.831C54.6 144.831 54.7 144.931 54.8 144.931L54.7 145.131C54.5 145.031 54.4 144.931 54.2 144.931C54 144.931 53.8 145.031 53.7 145.131C53.6 145.331 53.5 145.531 53.5 145.831C53.5 146.131 53.6 146.331 53.7 146.431C53.8 146.631 54 146.631 54.2 146.631C54.5 146.631 54.8 146.431 55 146.131V144.631C55 143.931 54.8 143.631 54.3 143.631C54 143.631 53.8 143.731 53.5 143.931L53.4 143.731C53.6 143.531 53.9 143.531 54.3 143.531C55.2 143.731 55.6 144.131 55.6 144.931Z" fill="#C9A063"/>
<path d="M59.4001 147.031H58.9001V144.831C58.9001 144.131 58.7001 143.831 58.2001 143.831C57.7001 143.831 57.4001 144.131 57.2001 144.731V147.031H56.7001V143.831H57.2001V144.231C57.5001 143.831 57.8001 143.731 58.2001 143.731C58.6001 143.731 58.9001 143.831 59.0001 143.931C59.2001 144.131 59.3 144.431 59.3 144.831V147.031H59.4001Z" fill="#C9A063"/>
<path d="M63.2 147.031H62.7V146.731C62.5 146.931 62.2 147.131 61.9 147.131C61.5 147.131 61.1 146.931 60.8 146.631C60.5 146.331 60.4 145.931 60.4 145.431C60.4 144.931 60.5 144.531 60.8 144.231C61.1 143.931 61.4 143.731 61.9 143.731C62.1 143.731 62.3 143.731 62.5 143.831L62.4 144.031C62.3 143.931 62.1 143.831 61.9 143.831C61.7 143.831 61.4 143.931 61.3 144.231C61.1 144.531 61 144.931 61 145.331C61 145.731 61.1 146.131 61.3 146.431C61.5 146.731 61.7 146.831 62 146.831C62.2 146.831 62.3 146.731 62.5 146.631C62.7 146.531 62.7 146.331 62.8 146.131V142.031H63.3V147.031H63.2Z" fill="#C9A063"/>
<path d="M68.1 144.931V147.031H67.6V146.731C67.4 146.931 67.1 147.031 66.8 147.031C66.5 147.031 66.2 146.931 66 146.731C65.8 146.531 65.6 146.331 65.6 145.931C65.6 145.631 65.7 145.331 66 145.131C66.2 144.931 66.5 144.831 66.7 144.831C66.8 144.831 66.9 144.831 66.9 144.831C67.1 144.831 67.2 144.931 67.3 144.931L67.2 145.131C67 145.031 66.9 144.931 66.7 144.931C66.5 144.931 66.3 145.031 66.2 145.131C66.1 145.331 66 145.531 66 145.831C66 146.131 66.1 146.331 66.2 146.431C66.3 146.631 66.5 146.631 66.7 146.631C67 146.631 67.3 146.431 67.5 146.131V144.631C67.5 143.931 67.3 143.631 66.8 143.631C66.5 143.631 66.3 143.731 66 143.931V144.031C66.2 143.831 66.5 143.831 66.9 143.831C67.7 143.731 68.1 144.131 68.1 144.931Z" fill="#C9A063"/>
<path d="M70.7001 143.931L70.6001 144.131C70.5001 144.031 70.3001 144.031 70.2001 144.031C70.1001 144.031 70.1001 144.031 70.0001 144.131C69.8001 144.231 69.7001 144.531 69.7001 145.031V147.131H69.2001V143.931H69.7001V144.331C69.8001 144.231 69.8001 144.131 69.9001 144.031C70.0001 143.931 70.1 143.931 70.3 143.931C70.5 143.731 70.6001 143.831 70.7001 143.931Z" fill="#C9A063"/>
<path d="M73 143.931H72.4V145.931C72.4 146.231 72.4 146.531 72.5 146.631C72.6 146.731 72.7 146.831 73 146.831V147.031C72.3 147.031 71.9 146.631 71.9 145.931V143.931H71.6V143.731H71.9V143.331H72.4V143.731H73V143.931Z" fill="#C9A063"/>
<path d="M74.5 142.331C74.5 142.431 74.5 142.531 74.4 142.531C74.3 142.531 74.3 142.631 74.2 142.631C74.1 142.631 74 142.631 74 142.531C74 142.431 73.9 142.431 73.9 142.331C73.9 142.231 73.9 142.131 74 142.131C74.1 142.031 74.1 142.031 74.2 142.031C74.3 142.031 74.4 142.031 74.4 142.131C74.5 142.231 74.5 142.331 74.5 142.331ZM74.4 147.031H73.9V143.831H74.4V147.031Z" fill="#C9A063"/>
<path d="M77.3 146.231C77.3 146.531 77.2 146.731 77 146.831C76.8 147.031 76.6 147.031 76.3 147.031C75.9 147.031 75.6 146.931 75.4 146.631L75.6 146.431C75.8 146.731 76.1 146.831 76.4 146.831C76.6 146.831 76.7 146.731 76.8 146.631C76.9 146.531 77 146.331 77 146.231C77 146.031 76.9 145.831 76.7 145.731C76.6 145.631 76.4 145.531 76.1 145.331C75.7 145.131 75.6 144.831 75.6 144.431C75.6 144.231 75.7 144.031 75.9 143.831C76.1 143.731 76.3 143.631 76.5 143.631C76.6 143.631 76.8 143.631 77 143.731C77.2 143.831 77.3 143.931 77.3 144.031L77.1 144.231C76.9 143.931 76.7 143.831 76.4 143.831C76.1 143.831 75.9 143.931 75.9 144.231C75.9 144.431 76 144.631 76.2 144.831C76.6 145.031 76.8 145.231 76.9 145.331C77.2 145.631 77.3 145.931 77.3 146.231Z" fill="#C9A063"/>
<path d="M79.6001 143.931H79.0001V145.931C79.0001 146.231 79.0001 146.531 79.1001 146.631C79.2001 146.731 79.3001 146.831 79.6001 146.831V147.031C78.9001 147.031 78.5001 146.631 78.5001 145.931V143.931H78.2001V143.731H78.5001V143.331H79.0001V143.731H79.6001V143.931Z" fill="#C9A063"/>
<path d="M81.1 142.331C81.1 142.431 81.1 142.531 81 142.531C80.9 142.531 80.9 142.631 80.8 142.631C80.7 142.631 80.6 142.631 80.6 142.531C80.6 142.431 80.5 142.431 80.5 142.331C80.5 142.231 80.5 142.131 80.6 142.131C80.7 142.031 80.7 142.031 80.8 142.031C80.9 142.031 81 142.031 81 142.131C81 142.231 81.1 142.331 81.1 142.331ZM81 147.031H80.5V143.831H81V147.031Z" fill="#C9A063"/>
<path d="M84.8 146.631C84.5 146.931 84.1 147.031 83.7 147.031C83.2 147.031 82.9 146.831 82.5 146.531C82.2 146.231 82 145.831 82 145.331C82 144.831 82.2 144.431 82.5 144.131C82.8 143.831 83.2 143.631 83.7 143.631C84.1 143.631 84.4 143.731 84.7 143.931L84.6 144.131C84.4 143.931 84.1 143.731 83.7 143.731C83.4 143.731 83.1 143.931 82.9 144.231C82.7 144.531 82.6 144.831 82.6 145.231C82.6 145.631 82.7 146.031 82.9 146.231C83.1 146.531 83.4 146.731 83.7 146.731C84.1 146.731 84.4 146.531 84.7 146.231L84.8 146.631Z" fill="#C9A063"/>
<path d="M89.6001 145.031H87.6001V144.831H89.1001C89.1001 144.231 88.8 143.931 88.3 143.931C88 143.931 87.7001 144.031 87.5001 144.331C87.3001 144.631 87.2001 144.931 87.2001 145.431C87.2001 145.931 87.3001 146.231 87.5001 146.531C87.7001 146.831 88 146.931 88.3 146.931C88.7 146.931 89 146.731 89.3 146.431L89.5001 146.631C89.2001 146.931 88.8001 147.131 88.4001 147.131C87.9001 147.131 87.6001 146.931 87.2001 146.631C86.9001 146.331 86.7001 145.931 86.7001 145.431C86.7001 144.931 86.9001 144.531 87.2001 144.231C87.5001 143.931 87.9 143.731 88.3 143.731C88.6 143.731 88.9001 143.831 89.2001 144.131C89.5001 144.431 89.6001 144.631 89.6001 145.031Z" fill="#C9A063"/>
<path d="M93.3 147.031H92.7001L91.7001 145.531L90.5001 147.031H90.3L91.6001 145.431L90.5001 143.831H91.1001L92.0001 145.031L93.0001 143.831H93.2001L92.1001 145.231L93.3 147.031Z" fill="#C9A063"/>
<path d="M96.8 145.431C96.8 145.931 96.7 146.231 96.4 146.631C96.1 146.931 95.8 147.131 95.4 147.131C95.2 147.131 95 147.131 94.8 147.031L94.9 146.831C95 146.931 95.2 147.031 95.4 147.031C95.6 147.031 95.9 146.931 96 146.631C96.2 146.331 96.3 146.031 96.3 145.531C96.3 145.131 96.2 144.731 96 144.431C95.8 144.131 95.6 144.031 95.3 144.031C95.1 144.031 95 144.131 94.8 144.231C94.7 144.331 94.6 144.531 94.5 144.731V148.331H94V143.931H94.5V144.231C94.7 144.031 95 143.831 95.3 143.831C95.7 143.831 96.1 144.031 96.3 144.331C96.7 144.631 96.8 145.031 96.8 145.431Z" fill="#C9A063"/>
<path d="M99.3 143.931L99.2001 144.131C99.1001 144.031 98.9 144.031 98.8 144.031C98.7 144.031 98.7001 144.031 98.6001 144.131C98.4001 144.231 98.3 144.531 98.3 145.031V147.131H97.8V143.931H98.3V144.331C98.4 144.231 98.4001 144.131 98.5001 144.031C98.6001 143.931 98.7001 143.931 98.9001 143.931C99.1001 143.731 99.2 143.831 99.3 143.931Z" fill="#C9A063"/>
<path d="M102.8 145.031H100.8V144.831H102.3C102.3 144.231 102 143.931 101.5 143.931C101.2 143.931 100.9 144.031 100.7 144.331C100.5 144.631 100.4 144.931 100.4 145.431C100.4 145.931 100.5 146.231 100.7 146.531C100.9 146.831 101.2 146.931 101.5 146.931C101.9 146.931 102.2 146.731 102.5 146.431L102.7 146.631C102.4 146.931 102 147.131 101.6 147.131C101.1 147.131 100.8 146.931 100.4 146.631C100.1 146.331 99.9 145.931 99.9 145.431C99.9 144.931 100.1 144.531 100.4 144.231C100.7 143.931 101.1 143.731 101.5 143.731C101.8 143.731 102.1 143.831 102.4 144.131C102.7 144.431 102.8 144.631 102.8 145.031Z" fill="#C9A063"/>
<path d="M105.5 146.231C105.5 146.531 105.4 146.731 105.2 146.831C105 147.031 104.8 147.031 104.5 147.031C104.1 147.031 103.8 146.931 103.6 146.631L103.7 146.431C103.9 146.731 104.2 146.831 104.5 146.831C104.7 146.831 104.8 146.731 104.9 146.631C105 146.531 105.1 146.331 105.1 146.231C105.1 146.031 105 145.831 104.8 145.731C104.7 145.631 104.5 145.531 104.2 145.331C103.8 145.131 103.7 144.831 103.7 144.431C103.7 144.231 103.8 144.031 104 143.831C104.2 143.731 104.4 143.631 104.6 143.631C104.7 143.631 104.9 143.631 105.1 143.731C105.3 143.831 105.4 143.931 105.4 144.031L105.2 144.231C105 143.931 104.8 143.831 104.5 143.831C104.2 143.831 104 143.931 104 144.231C104 144.431 104.1 144.631 104.3 144.831C104.7 145.031 104.9 145.231 105 145.331C105.4 145.631 105.5 145.931 105.5 146.231Z" fill="#C9A063"/>
<path d="M108.3 146.231C108.3 146.531 108.2 146.731 108 146.831C107.8 147.031 107.6 147.031 107.3 147.031C106.9 147.031 106.6 146.931 106.4 146.631L106.5 146.431C106.7 146.731 107 146.831 107.3 146.831C107.5 146.831 107.6 146.731 107.7 146.631C107.8 146.531 107.9 146.331 107.9 146.231C107.9 146.031 107.8 145.831 107.6 145.731C107.5 145.631 107.3 145.531 107 145.331C106.6 145.131 106.5 144.831 106.5 144.431C106.5 144.231 106.6 144.031 106.8 143.831C107 143.731 107.2 143.631 107.4 143.631C107.5 143.631 107.7 143.631 107.9 143.731C108.1 143.831 108.2 143.931 108.2 144.031L108 144.231C107.8 143.931 107.6 143.831 107.3 143.831C107 143.831 106.8 143.931 106.8 144.231C106.8 144.431 106.9 144.631 107.1 144.831C107.5 145.031 107.7 145.231 107.8 145.331C108.2 145.631 108.3 145.931 108.3 146.231Z" fill="#C9A063"/>
<path d="M109.9 142.331C109.9 142.431 109.9 142.531 109.8 142.531C109.7 142.531 109.7 142.631 109.6 142.631C109.5 142.631 109.4 142.631 109.4 142.531C109.4 142.431 109.3 142.431 109.3 142.331C109.3 142.231 109.3 142.131 109.4 142.131C109.5 142.031 109.5 142.031 109.6 142.031C109.7 142.031 109.8 142.031 109.8 142.131C109.8 142.231 109.9 142.331 109.9 142.331ZM109.8 147.031H109.3V143.831H109.8V147.031Z" fill="#C9A063"/>
<path d="M114.1 145.431C114.1 145.931 113.9 146.331 113.6 146.631C113.3 146.931 112.9 147.131 112.4 147.131C111.9 147.131 111.6 146.931 111.2 146.631C110.9 146.331 110.7 145.931 110.7 145.431C110.7 144.931 110.9 144.531 111.2 144.231C111.5 143.931 111.9 143.731 112.4 143.731C112.9 143.731 113.2 143.931 113.6 144.231C114 144.531 114.1 144.931 114.1 145.431ZM113.6 145.431C113.6 145.031 113.5 144.631 113.3 144.331C113.1 144.031 112.8 143.931 112.5 143.931C112.2 143.931 111.9 144.031 111.7 144.331C111.5 144.631 111.4 144.931 111.4 145.431C111.4 145.831 111.5 146.231 111.7 146.531C111.9 146.831 112.2 146.931 112.5 146.931C112.8 146.931 113.1 146.831 113.3 146.531C113.5 146.231 113.6 145.831 113.6 145.431Z" fill="#C9A063"/>
<path d="M117.8 147.031H117.3V144.831C117.3 144.131 117.1 143.831 116.6 143.831C116.1 143.831 115.8 144.131 115.6 144.731V147.031H115.1V143.831H115.6V144.231C115.9 143.831 116.2 143.731 116.6 143.731C117 143.731 117.3 143.831 117.4 143.931C117.6 144.131 117.7 144.431 117.7 144.831V147.031H117.8Z" fill="#C9A063"/>
<path d="M119.5 146.831C119.5 146.931 119.5 147.031 119.4 147.031C119.3 147.031 119.3 147.131 119.2 147.131C119.1 147.131 119 147.131 119 147.031C119 146.931 118.9 146.931 118.9 146.831C118.9 146.731 118.9 146.631 119 146.631C119.1 146.631 119.1 146.531 119.2 146.531C119.3 146.531 119.4 146.531 119.4 146.631C119.4 146.731 119.5 146.731 119.5 146.831Z" fill="#C9A063"/>
</g>
</svg>
