<svg width="303" height="81" viewBox="0 0 303 81" fill="none" xmlns="http://www.w3.org/2000/svg">
<path d="M9.50002 2.5307V15.4307H22.5V17.4307H9.50002V33.3307H4.60002V5.3307C4.60002 3.4307 3.40001 1.8307 0.700012 1.0307V0.8307H25.1V2.5307H9.50002V2.5307Z" fill="#C9A063"/>
<path d="M23.1 33.3307L37.7 0.8307L52.6 33.3307H47.2L44.4 27.2307H28L25.2 33.3307H23.1ZM28.8 25.5307H43.6L36.1 9.2307L28.8 25.5307Z" fill="#C9A063"/>
<path d="M75.5 25.0307C75.5 28.4307 73 34.0307 65.3 34.0307C59.2 34.0307 55.3 31.4307 54.4 24.7307H55.9C56.9 30.8307 61.9 32.1307 64.9 32.1307C70.1 32.1307 71.3 28.5307 71.3 26.9307C71.3 23.5307 68.5 21.6307 63.2 18.9307C59.8 17.2307 54.1 14.3307 54.1 8.8307C54.1 1.7307 61.1 0.3307 63.6 0.3307C69.8 0.3307 72.4 3.6307 73.3 8.2307H71.7C71 5.8307 69.3 2.1307 63.7 2.1307C60.9 2.1307 58 4.3307 58 7.1307C58 10.4307 61.9 12.5307 66 14.6307C73.6 18.4307 75.5 21.1307 75.5 25.0307Z" fill="#C9A063"/>
<path d="M85 0.8307V33.3307H80.6V5.3307C80.6 3.4307 79.4 1.8307 76.7 1.0307V0.8307H85Z" fill="#C9A063"/>
<path d="M120.1 17.0307C120.1 28.8307 113.1 33.9307 104.4 33.9307C95.7 33.9307 88.7 28.8307 88.7 17.0307C88.7 5.6307 95.7 0.130699 104.4 0.130699C113 0.130699 120.1 5.5307 120.1 17.0307ZM114.7 17.0307C114.7 6.6307 110.1 1.6307 104.4 1.6307C98.7 1.6307 94.1 6.7307 94.1 17.0307C94.1 27.7307 98.8 32.4307 104.4 32.4307C110.1 32.4307 114.7 27.7307 114.7 17.0307Z" fill="#C9A063"/>
<path d="M151.3 0.8307V33.3307L127.6 10.1307V33.3307H125.6V8.3307C125.6 5.8307 125.2 2.1307 121.7 1.1307V0.930702C124.9 0.930702 127.1 2.8307 128.2 3.7307L149.2 24.1307V0.8307H151.3Z" fill="#C9A063"/>
<path d="M187.3 25.0307C187.3 28.4307 184.8 34.0307 177.1 34.0307C171 34.0307 167.1 31.4307 166.2 24.7307H167.7C168.7 30.8307 173.7 32.1307 176.7 32.1307C181.9 32.1307 183.1 28.5307 183.1 26.9307C183.1 23.5307 180.3 21.6307 175 18.9307C171.6 17.2307 165.9 14.3307 165.9 8.8307C165.9 1.7307 172.9 0.3307 175.4 0.3307C181.6 0.3307 184.2 3.6307 185.1 8.2307H183.5C182.8 5.8307 181.1 2.1307 175.5 2.1307C172.7 2.1307 169.8 4.3307 169.8 7.1307C169.8 10.4307 173.7 12.5307 177.8 14.6307C185.5 18.4307 187.3 21.1307 187.3 25.0307Z" fill="#C9A063"/>
<path d="M214.5 2.8307H203.8V33.3307H198.9V2.8307H188.1V0.8307H214.5V2.8307Z" fill="#C9A063"/>
<path d="M249.1 0.8307L237.4 19.3307V33.3307H232.5V19.9307L221.5 3.5307C221.1 3.0307 220.7 2.5307 220.1 2.1307C219.6 1.7307 218.9 1.4307 218.3 1.3307L217.5 1.1307V0.930702H222.3C224.2 0.930702 226 1.8307 227.2 3.4307L236.3 17.1307L246.6 0.930702H249.1V0.8307Z" fill="#C9A063"/>
<path d="M277 31.3307V33.3307H256.1V5.3307C256.1 3.4307 254.9 1.8307 252.2 1.0307V0.8307H260.5V31.3307H277Z" fill="#C9A063"/>
<path d="M302.4 31.6307V33.3307H282V5.3307C282 3.4307 280.8 1.8307 278.1 1.0307V0.8307H302.5V2.5307H286.9V15.4307H299.9V17.4307H286.9V31.6307H302.4V31.6307Z" fill="#C9A063"/>
<path d="M32.9 64.3307C32.9 81.3307 15.4 80.5307 15 80.5307H4.70004V52.5307C4.70004 50.5307 3.20005 48.5307 0.800049 48.2307V48.0307H15C15.4 48.1307 32.9 47.0307 32.9 64.3307ZM27.5 64.3307C27.5 49.7307 17.1 49.7307 15 49.7307H9.50005V78.9307H15C16.7 78.9307 27.6 78.8307 27.5 64.3307Z" fill="#C9A063"/>
<path d="M33.4 80.6307L48 48.1307L62.9 80.6307H57.5L54.7 74.5307H38.3L35.5 80.6307H33.4ZM39.1 72.7307H53.9L46.4 56.4307L39.1 72.7307Z" fill="#C9A063"/>
<path d="M72.2 48.1307V80.6307H67.8V52.6307C67.8 50.7307 66.6 49.1307 63.9 48.3307V48.1307H72.2Z" fill="#C9A063"/>
<path d="M100 78.6307V80.6307H79.1V52.6307C79.1 50.7307 77.9 49.1307 75.2 48.3307V48.1307H83.5V78.6307H100Z" fill="#C9A063"/>
<path d="M126.7 48.1307L115 66.5307V80.5307H110.1V67.1307L99.1 50.7307C98.7 50.2307 98.3 49.7307 97.7 49.3307C97.2 48.9307 96.5 48.6307 95.9 48.5307L95.1 48.3307V48.1307H99.9C101.8 48.1307 103.6 49.0307 104.8 50.6307L113.9 64.3307L124.2 48.1307H126.7V48.1307Z" fill="#C9A063"/>
<g opacity="0.6">
<path d="M142.6 56.7307C142.6 57.2307 142.4 57.6307 141.9 57.9307C141.5 58.1307 141.1 58.2307 140.5 58.2307C140.4 58.2307 140.1 58.2307 139.6 58.2307V53.0307H140.5C141 53.0307 141.4 53.1307 141.7 53.2307C142.1 53.4307 142.3 53.7307 142.3 54.1307C142.3 54.4307 142.2 54.6307 142 54.9307C141.8 55.1307 141.6 55.3307 141.3 55.4307C141.7 55.5307 142 55.6307 142.2 55.8307C142.4 56.0307 142.6 56.3307 142.6 56.7307ZM142.1 56.7307C142.1 56.3307 142 56.0307 141.7 55.8307C141.5 55.6307 141.2 55.5307 140.8 55.5307H140.5V55.3307H140.7C141.1 55.3307 141.3 55.2307 141.5 54.9307C141.6 54.7307 141.7 54.4307 141.7 54.2307C141.7 53.5307 141.2 53.1307 140.3 53.1307H140V58.0307H140.3C141.5 58.0307 142.1 57.6307 142.1 56.7307Z" fill="white"/>
<path d="M146.4 56.1307H144.4V56.0307H145.9C145.9 55.4307 145.6 55.1307 145.1 55.1307C144.8 55.1307 144.5 55.2307 144.3 55.5307C144.1 55.8307 144 56.1307 144 56.6307C144 57.1307 144.1 57.4307 144.3 57.7307C144.5 58.0307 144.8 58.1307 145.1 58.1307C145.5 58.1307 145.8 57.9307 146.1 57.6307L146.3 57.8307C146 58.1307 145.6 58.3307 145.2 58.3307C144.7 58.3307 144.4 58.1307 144 57.8307C143.7 57.5307 143.5 57.1307 143.5 56.6307C143.5 56.1307 143.7 55.7307 144 55.4307C144.3 55.1307 144.7 54.9307 145.1 54.9307C145.4 54.9307 145.7 55.0307 146 55.3307C146.3 55.5307 146.4 55.8307 146.4 56.1307Z" fill="white"/>
<path d="M149.6 56.1307V58.2307H149.1V57.9307C148.9 58.1307 148.6 58.2307 148.3 58.2307C148 58.2307 147.7 58.1307 147.5 57.9307C147.3 57.7307 147.1 57.5307 147.1 57.1307C147.1 56.8307 147.2 56.5307 147.5 56.3307C147.7 56.1307 148 56.0307 148.2 56.0307C148.3 56.0307 148.4 56.0307 148.4 56.0307C148.6 56.0307 148.7 56.1307 148.8 56.1307L148.7 56.3307C148.5 56.2307 148.4 56.1307 148.2 56.1307C148 56.1307 147.8 56.2307 147.7 56.3307C147.6 56.5307 147.5 56.7307 147.5 57.0307C147.5 57.3307 147.6 57.5307 147.7 57.6307C147.8 57.8307 148 57.8307 148.2 57.8307C148.5 57.8307 148.8 57.6307 149 57.3307V55.8307C149 55.1307 148.8 54.8307 148.3 54.8307C148 54.8307 147.8 54.9307 147.5 55.1307L147.4 54.9307C147.6 54.7307 147.9 54.7307 148.3 54.7307C149.2 54.9307 149.6 55.3307 149.6 56.1307Z" fill="white"/>
<path d="M153.3 58.1307H152.8V57.5307C152.6 57.9307 152.2 58.1307 151.8 58.1307C151 58.1307 150.6 57.7307 150.6 56.9307V54.7307H151.1V56.9307C151.1 57.6307 151.3 57.9307 151.8 57.9307C152.1 57.9307 152.3 57.7307 152.5 57.4307C152.6 57.2307 152.7 57.0307 152.7 56.8307V54.7307H153.2V58.1307H153.3Z" fill="white"/>
<path d="M155.7 55.1307H155.1V57.1307C155.1 57.4307 155.1 57.7307 155.2 57.8307C155.3 57.9307 155.4 58.0307 155.7 58.0307V58.2307C155 58.2307 154.6 57.8307 154.6 57.1307V55.1307H154.3V54.9307H154.6V54.5307H155.1V54.9307H155.7V55.1307Z" fill="white"/>
<path d="M159.5 54.9307L157.7 59.4307H157.5L158 58.1307L156.6 54.9307H157.1L158.2 57.5307L159.2 54.9307H159.5Z" fill="white"/>
<path d="M162.3 58.1307H161.8V53.1307H162.3V58.1307Z" fill="white"/>
<path d="M164 53.5307C164 53.6307 164 53.7307 163.9 53.7307C163.8 53.7307 163.8 53.8307 163.7 53.8307C163.6 53.8307 163.5 53.8307 163.5 53.7307C163.5 53.6307 163.4 53.6307 163.4 53.5307C163.4 53.4307 163.4 53.3307 163.5 53.3307C163.6 53.2307 163.6 53.2307 163.7 53.2307C163.8 53.2307 163.9 53.2307 163.9 53.3307C164 53.3307 164 53.4307 164 53.5307ZM163.9 58.1307H163.4V54.9307H163.9V58.1307Z" fill="white"/>
<path d="M167.9 56.1307H165.9V56.0307H167.4C167.4 55.4307 167.1 55.1307 166.6 55.1307C166.3 55.1307 166 55.2307 165.8 55.5307C165.6 55.8307 165.5 56.1307 165.5 56.6307C165.5 57.1307 165.6 57.4307 165.8 57.7307C166 58.0307 166.3 58.1307 166.6 58.1307C167 58.1307 167.3 57.9307 167.6 57.6307L167.8 57.8307C167.5 58.1307 167.1 58.3307 166.7 58.3307C166.2 58.3307 165.9 58.1307 165.5 57.8307C165.2 57.5307 165 57.1307 165 56.6307C165 56.1307 165.2 55.7307 165.5 55.4307C165.8 55.1307 166.2 54.9307 166.6 54.9307C166.9 54.9307 167.2 55.0307 167.5 55.3307C167.7 55.5307 167.9 55.8307 167.9 56.1307Z" fill="white"/>
<path d="M170.6 57.4307C170.6 57.7307 170.5 57.9307 170.3 58.0307C170.1 58.2307 169.9 58.2307 169.6 58.2307C169.2 58.2307 168.9 58.1307 168.7 57.8307L168.8 57.6307C169 57.9307 169.3 58.0307 169.6 58.0307C169.8 58.0307 169.9 57.9307 170 57.8307C170.1 57.7307 170.2 57.5307 170.2 57.4307C170.2 57.2307 170.1 57.0307 169.9 56.9307C169.8 56.8307 169.6 56.7307 169.3 56.5307C168.9 56.3307 168.8 56.0307 168.8 55.6307C168.8 55.4307 168.9 55.2307 169.1 55.0307C169.3 54.9307 169.5 54.8307 169.7 54.8307C169.8 54.8307 170 54.8307 170.2 54.9307C170.4 55.0307 170.5 55.1307 170.5 55.2307L170.3 55.4307C170.1 55.1307 169.9 55.0307 169.6 55.0307C169.3 55.0307 169.1 55.1307 169.1 55.4307C169.1 55.6307 169.2 55.8307 169.4 56.0307C169.8 56.2307 170 56.4307 170.1 56.5307C170.4 56.7307 170.6 57.0307 170.6 57.4307Z" fill="white"/>
<path d="M173.6 53.5307C173.6 53.6307 173.6 53.7307 173.5 53.7307C173.4 53.7307 173.4 53.8307 173.3 53.8307C173.2 53.8307 173.1 53.8307 173.1 53.7307C173.1 53.6307 173 53.6307 173 53.5307C173 53.4307 173 53.3307 173.1 53.3307C173.2 53.2307 173.2 53.2307 173.3 53.2307C173.4 53.2307 173.5 53.2307 173.5 53.3307C173.6 53.3307 173.6 53.4307 173.6 53.5307ZM173.5 58.1307H173V54.9307H173.5V58.1307Z" fill="white"/>
<path d="M177.3 58.1307H176.8V56.0307C176.8 55.3307 176.6 55.0307 176.1 55.0307C175.6 55.0307 175.3 55.3307 175.1 55.9307V58.2307H174.6V55.0307H175.1V55.4307C175.4 55.0307 175.7 54.9307 176.1 54.9307C176.5 54.9307 176.8 55.0307 176.9 55.1307C177.1 55.3307 177.2 55.6307 177.2 56.0307V58.1307H177.3Z" fill="white"/>
<path d="M181.1 55.1307H180.5V57.1307C180.5 57.4307 180.5 57.7307 180.6 57.8307C180.7 57.9307 180.8 58.0307 181.1 58.0307V58.2307C180.4 58.2307 180 57.8307 180 57.1307V55.1307H179.7V54.9307H180V54.5307H180.5V54.9307H181.1V55.1307Z" fill="white"/>
<path d="M184.7 58.1307H184.2V56.0307C184.2 55.3307 184 55.0307 183.5 55.0307C183 55.0307 182.7 55.3307 182.5 55.9307V58.2307H182V53.2307H182.5V55.4307C182.8 55.0307 183.1 54.9307 183.5 54.9307C183.9 54.9307 184.2 55.0307 184.3 55.1307C184.5 55.3307 184.6 55.6307 184.6 56.0307V58.1307H184.7Z" fill="white"/>
<path d="M188.6 56.1307H186.6V56.0307H188.1C188.1 55.4307 187.8 55.1307 187.3 55.1307C187 55.1307 186.7 55.2307 186.5 55.5307C186.3 55.8307 186.2 56.1307 186.2 56.6307C186.2 57.1307 186.3 57.4307 186.5 57.7307C186.7 58.0307 187 58.1307 187.3 58.1307C187.7 58.1307 188 57.9307 188.3 57.6307L188.5 57.8307C188.2 58.1307 187.8 58.3307 187.4 58.3307C186.9 58.3307 186.6 58.1307 186.2 57.8307C185.9 57.5307 185.7 57.1307 185.7 56.6307C185.7 56.1307 185.9 55.7307 186.2 55.4307C186.5 55.1307 186.9 54.9307 187.3 54.9307C187.6 54.9307 187.9 55.0307 188.2 55.3307C188.5 55.5307 188.6 55.8307 188.6 56.1307Z" fill="white"/>
<path d="M193.6 57.7307C193.3 58.0307 192.9 58.1307 192.5 58.1307C192 58.1307 191.7 57.9307 191.3 57.6307C191 57.3307 190.8 56.9307 190.8 56.4307C190.8 55.9307 191 55.5307 191.3 55.2307C191.6 54.9307 192 54.7307 192.5 54.7307C192.9 54.7307 193.2 54.8307 193.5 55.0307L193.4 55.2307C193.2 55.0307 192.9 54.8307 192.5 54.8307C192.2 54.8307 191.9 55.0307 191.7 55.3307C191.5 55.6307 191.4 55.9307 191.4 56.3307C191.4 56.7307 191.5 57.1307 191.7 57.3307C191.9 57.6307 192.2 57.8307 192.5 57.8307C192.9 57.8307 193.2 57.6307 193.5 57.3307L193.6 57.7307Z" fill="white"/>
<path d="M197.4 56.5307C197.4 57.0307 197.2 57.4307 196.9 57.7307C196.6 58.0307 196.2 58.2307 195.7 58.2307C195.2 58.2307 194.9 58.0307 194.5 57.7307C194.2 57.4307 194 57.0307 194 56.5307C194 56.0307 194.2 55.6307 194.5 55.3307C194.8 55.0307 195.2 54.8307 195.7 54.8307C196.2 54.8307 196.5 55.0307 196.9 55.3307C197.3 55.7307 197.4 56.1307 197.4 56.5307ZM196.9 56.5307C196.9 56.1307 196.8 55.7307 196.6 55.4307C196.4 55.1307 196.1 55.0307 195.8 55.0307C195.5 55.0307 195.2 55.1307 195 55.4307C194.8 55.7307 194.7 56.0307 194.7 56.5307C194.7 56.9307 194.8 57.3307 195 57.6307C195.2 57.9307 195.5 58.0307 195.8 58.0307C196.1 58.0307 196.4 57.9307 196.6 57.6307C196.8 57.3307 196.9 56.9307 196.9 56.5307Z" fill="white"/>
<path d="M202.8 58.1307H202.3V55.9307C202.3 55.6307 202.3 55.4307 202.2 55.2307C202.1 55.1307 202 55.0307 201.7 55.0307C201.3 55.0307 201.1 55.3307 200.8 55.8307V55.9307V58.1307H200.3V55.9307C200.3 55.6307 200.3 55.4307 200.2 55.2307C200.1 55.0307 199.9 55.0307 199.7 55.0307C199.5 55.0307 199.4 55.1307 199.2 55.2307C199 55.4307 198.9 55.6307 198.8 55.8307V58.1307H198.3V54.9307H198.8V55.3307C199.1 55.0307 199.4 54.8307 199.7 54.8307C200.2 54.8307 200.5 55.0307 200.7 55.3307C201 54.9307 201.3 54.8307 201.7 54.8307C202.4 54.8307 202.8 55.2307 202.8 55.9307V58.1307Z" fill="white"/>
<path d="M206.7 56.5307C206.7 57.0307 206.6 57.4307 206.3 57.7307C206 58.0307 205.7 58.2307 205.2 58.2307C204.9 58.2307 204.6 58.1307 204.4 57.8307V58.1307H204V53.1307H204.5V57.3307C204.6 57.5307 204.7 57.7307 204.8 57.8307C204.9 57.9307 205.1 58.0307 205.3 58.0307C205.6 58.0307 205.8 57.9307 206 57.6307C206.2 57.3307 206.3 57.0307 206.3 56.5307C206.3 56.1307 206.2 55.7307 206 55.4307C205.8 55.1307 205.6 55.0307 205.3 55.0307C205.1 55.0307 205 55.1307 204.9 55.2307L204.8 55.0307C205 54.9307 205.2 54.9307 205.4 54.9307C205.8 54.9307 206.2 55.1307 206.5 55.4307C206.6 55.7307 206.7 56.1307 206.7 56.5307Z" fill="white"/>
<path d="M208.3 53.5307C208.3 53.6307 208.3 53.7307 208.2 53.7307C208.1 53.7307 208.1 53.8307 208 53.8307C207.9 53.8307 207.8 53.8307 207.8 53.7307C207.8 53.6307 207.7 53.6307 207.7 53.5307C207.7 53.4307 207.7 53.3307 207.8 53.3307C207.9 53.2307 207.9 53.2307 208 53.2307C208.1 53.2307 208.2 53.2307 208.2 53.3307C208.3 53.3307 208.3 53.4307 208.3 53.5307ZM208.3 58.1307H207.8V54.9307H208.3V58.1307Z" fill="white"/>
<path d="M212 58.1307H211.5V56.0307C211.5 55.3307 211.3 55.0307 210.8 55.0307C210.3 55.0307 210 55.3307 209.8 55.9307V58.2307H209.3V55.0307H209.8V55.4307C210.1 55.0307 210.4 54.9307 210.8 54.9307C211.2 54.9307 211.5 55.0307 211.6 55.1307C211.8 55.3307 211.9 55.6307 211.9 56.0307V58.1307H212Z" fill="white"/>
<path d="M215.5 56.1307V58.2307H215V57.9307C214.8 58.1307 214.5 58.2307 214.2 58.2307C213.9 58.2307 213.6 58.1307 213.4 57.9307C213.2 57.7307 213 57.5307 213 57.1307C213 56.8307 213.1 56.5307 213.4 56.3307C213.6 56.1307 213.9 56.0307 214.1 56.0307C214.2 56.0307 214.3 56.0307 214.3 56.0307C214.5 56.0307 214.6 56.1307 214.7 56.1307L214.6 56.3307C214.4 56.2307 214.3 56.1307 214.1 56.1307C213.9 56.1307 213.7 56.2307 213.6 56.3307C213.5 56.5307 213.4 56.7307 213.4 57.0307C213.4 57.3307 213.5 57.5307 213.6 57.6307C213.7 57.8307 213.9 57.8307 214.1 57.8307C214.4 57.8307 214.7 57.6307 214.9 57.3307V55.8307C214.9 55.1307 214.7 54.8307 214.2 54.8307C213.9 54.8307 213.7 54.9307 213.4 55.1307L213.3 54.9307C213.5 54.7307 213.8 54.7307 214.2 54.7307C215.1 54.9307 215.5 55.3307 215.5 56.1307Z" fill="white"/>
<path d="M217.8 55.1307H217.2V57.1307C217.2 57.4307 217.2 57.7307 217.3 57.8307C217.4 57.9307 217.5 58.0307 217.8 58.0307V58.2307C217.1 58.2307 216.7 57.8307 216.7 57.1307V55.1307H216.4V54.9307H216.7V54.5307H217.2V54.9307H217.8V55.1307Z" fill="white"/>
<path d="M219.3 53.5307C219.3 53.6307 219.3 53.7307 219.2 53.7307C219.1 53.7307 219.1 53.8307 219 53.8307C218.9 53.8307 218.8 53.8307 218.8 53.7307C218.8 53.6307 218.7 53.6307 218.7 53.5307C218.7 53.4307 218.7 53.3307 218.8 53.3307C218.9 53.2307 218.9 53.2307 219 53.2307C219.1 53.2307 219.2 53.2307 219.2 53.3307C219.3 53.3307 219.3 53.4307 219.3 53.5307ZM219.3 58.1307H218.8V54.9307H219.3V58.1307Z" fill="white"/>
<path d="M223.6 56.5307C223.6 57.0307 223.4 57.4307 223.1 57.7307C222.8 58.0307 222.4 58.2307 221.9 58.2307C221.4 58.2307 221.1 58.0307 220.7 57.7307C220.4 57.4307 220.2 57.0307 220.2 56.5307C220.2 56.0307 220.4 55.6307 220.7 55.3307C221 55.0307 221.4 54.8307 221.9 54.8307C222.4 54.8307 222.7 55.0307 223.1 55.3307C223.5 55.7307 223.6 56.1307 223.6 56.5307ZM223.1 56.5307C223.1 56.1307 223 55.7307 222.8 55.4307C222.6 55.1307 222.3 55.0307 222 55.0307C221.7 55.0307 221.4 55.1307 221.2 55.4307C221 55.7307 220.9 56.0307 220.9 56.5307C220.9 56.9307 221 57.3307 221.2 57.6307C221.4 57.9307 221.7 58.0307 222 58.0307C222.3 58.0307 222.6 57.9307 222.8 57.6307C223 57.3307 223.1 56.9307 223.1 56.5307Z" fill="white"/>
<path d="M227.3 58.1307H226.8V56.0307C226.8 55.3307 226.6 55.0307 226.1 55.0307C225.6 55.0307 225.3 55.3307 225.1 55.9307V58.2307H224.6V55.0307H225.1V55.4307C225.4 55.0307 225.7 54.9307 226.1 54.9307C226.5 54.9307 226.8 55.0307 226.9 55.1307C227.1 55.3307 227.2 55.6307 227.2 56.0307V58.1307H227.3Z" fill="white"/>
<path d="M233 56.5307C233 57.0307 232.8 57.4307 232.5 57.7307C232.2 58.0307 231.8 58.2307 231.3 58.2307C230.8 58.2307 230.5 58.0307 230.1 57.7307C229.8 57.4307 229.6 57.0307 229.6 56.5307C229.6 56.0307 229.8 55.6307 230.1 55.3307C230.4 55.0307 230.8 54.8307 231.3 54.8307C231.8 54.8307 232.1 55.0307 232.5 55.3307C232.9 55.7307 233 56.1307 233 56.5307ZM232.5 56.5307C232.5 56.1307 232.4 55.7307 232.2 55.4307C232 55.1307 231.7 55.0307 231.4 55.0307C231.1 55.0307 230.8 55.1307 230.6 55.4307C230.4 55.7307 230.3 56.0307 230.3 56.5307C230.3 56.9307 230.4 57.3307 230.6 57.6307C230.8 57.9307 231.1 58.0307 231.4 58.0307C231.7 58.0307 232 57.9307 232.2 57.6307C232.4 57.3307 232.5 56.9307 232.5 56.5307Z" fill="white"/>
<path d="M235.3 55.1307H234.7V58.2307H234.2V55.1307H233.9V54.9307H234.2V54.2307C234.2 53.5307 234.6 53.2307 235.3 53.2307V53.4307C235.1 53.4307 234.9 53.5307 234.8 53.6307C234.7 53.7307 234.7 54.0307 234.7 54.3307V55.0307H235.3V55.1307Z" fill="white"/>
<path d="M142.1 67.1307H141.6V65.0307C141.6 64.3307 141.4 64.0307 140.9 64.0307C140.4 64.0307 140.1 64.3307 139.9 64.9307V67.2307H139.4V64.0307H139.9V64.4307C140.2 64.0307 140.5 63.9307 140.9 63.9307C141.3 63.9307 141.6 64.0307 141.7 64.1307C141.9 64.3307 142 64.6307 142 65.0307V67.1307H142.1Z" fill="white"/>
<path d="M145.6 65.1307V67.2307H145.1V66.9307C144.9 67.1307 144.6 67.2307 144.3 67.2307C144 67.2307 143.7 67.1307 143.5 66.9307C143.3 66.7307 143.1 66.5307 143.1 66.1307C143.1 65.8307 143.2 65.5307 143.5 65.3307C143.7 65.1307 144 65.0307 144.2 65.0307C144.3 65.0307 144.4 65.0307 144.4 65.0307C144.6 65.0307 144.7 65.1307 144.8 65.1307L144.7 65.3307C144.5 65.2307 144.4 65.1307 144.2 65.1307C144 65.1307 143.8 65.2307 143.7 65.3307C143.6 65.5307 143.5 65.7307 143.5 66.0307C143.5 66.3307 143.6 66.5307 143.7 66.6307C143.8 66.8307 144 66.8307 144.2 66.8307C144.5 66.8307 144.8 66.6307 145 66.3307V64.8307C145 64.1307 144.8 63.8307 144.3 63.8307C144 63.8307 143.8 63.9307 143.5 64.1307L143.4 63.9307C143.6 63.7307 143.9 63.7307 144.3 63.7307C145.2 63.9307 145.6 64.3307 145.6 65.1307Z" fill="white"/>
<path d="M147.9 64.1307H147.3V66.1307C147.3 66.4307 147.3 66.7307 147.4 66.8307C147.5 66.9307 147.6 67.0307 147.9 67.0307V67.2307C147.2 67.2307 146.8 66.8307 146.8 66.1307V64.1307H146.5V63.9307H146.8V63.5307H147.3V63.9307H147.9V64.1307Z" fill="white"/>
<path d="M151.5 67.1307H151V66.5307C150.8 66.9307 150.4 67.1307 150 67.1307C149.2 67.1307 148.8 66.7307 148.8 65.9307V63.7307H149.3V65.9307C149.3 66.6307 149.5 66.9307 150 66.9307C150.3 66.9307 150.5 66.7307 150.7 66.4307C150.8 66.2307 150.9 66.0307 150.9 65.8307V63.7307H151.4V67.1307H151.5Z" fill="white"/>
<path d="M154.1 64.0307L154 64.2307C153.9 64.1307 153.7 64.1307 153.6 64.1307C153.5 64.1307 153.5 64.1307 153.4 64.2307C153.2 64.3307 153.1 64.6307 153.1 65.1307V67.2307H152.6V64.0307H153.1V64.4307C153.2 64.3307 153.2 64.2307 153.3 64.1307C153.4 64.0307 153.5 64.0307 153.7 64.0307C153.9 64.0307 154 63.9307 154.1 64.0307Z" fill="white"/>
<path d="M157.2 65.1307V67.2307H156.7V66.9307C156.5 67.1307 156.2 67.2307 155.9 67.2307C155.6 67.2307 155.3 67.1307 155.1 66.9307C154.9 66.7307 154.7 66.5307 154.7 66.1307C154.7 65.8307 154.8 65.5307 155.1 65.3307C155.3 65.1307 155.6 65.0307 155.8 65.0307C155.9 65.0307 156 65.0307 156 65.0307C156.2 65.0307 156.3 65.1307 156.4 65.1307L156.3 65.3307C156.1 65.2307 156 65.1307 155.8 65.1307C155.6 65.1307 155.4 65.2307 155.3 65.3307C155.2 65.5307 155.1 65.7307 155.1 66.0307C155.1 66.3307 155.2 66.5307 155.3 66.6307C155.4 66.8307 155.6 66.8307 155.8 66.8307C156.1 66.8307 156.4 66.6307 156.6 66.3307V64.8307C156.6 64.1307 156.4 63.8307 155.9 63.8307C155.6 63.8307 155.4 63.9307 155.1 64.1307L155 63.9307C155.2 63.7307 155.5 63.7307 155.9 63.7307C156.8 63.9307 157.2 64.3307 157.2 65.1307Z" fill="white"/>
<path d="M158.8 67.1307H158.3V62.1307H158.8V67.1307Z" fill="white"/>
<path d="M161.8 67.1307H161.3V62.1307H161.8V67.1307Z" fill="white"/>
<path d="M165.2 65.1307V67.2307H164.7V66.9307C164.5 67.1307 164.2 67.2307 163.9 67.2307C163.6 67.2307 163.3 67.1307 163.1 66.9307C162.9 66.7307 162.7 66.5307 162.7 66.1307C162.7 65.8307 162.8 65.5307 163.1 65.3307C163.3 65.1307 163.6 65.0307 163.8 65.0307C163.9 65.0307 164 65.0307 164 65.0307C164.2 65.0307 164.3 65.1307 164.4 65.1307L164.3 65.3307C164.1 65.2307 164 65.1307 163.8 65.1307C163.6 65.1307 163.4 65.2307 163.3 65.3307C163.2 65.5307 163.1 65.7307 163.1 66.0307C163.1 66.3307 163.2 66.5307 163.3 66.6307C163.4 66.8307 163.6 66.8307 163.8 66.8307C164.1 66.8307 164.4 66.6307 164.6 66.3307V64.8307C164.6 64.1307 164.4 63.8307 163.9 63.8307C163.6 63.8307 163.4 63.9307 163.1 64.1307L163 63.9307C163.2 63.7307 163.5 63.7307 163.9 63.7307C164.8 63.9307 165.2 64.3307 165.2 65.1307Z" fill="white"/>
<path d="M169 67.1307H168.5V65.0307C168.5 64.3307 168.3 64.0307 167.8 64.0307C167.3 64.0307 167 64.3307 166.8 64.9307V67.2307H166.3V64.0307H166.8V64.4307C167.1 64.0307 167.4 63.9307 167.8 63.9307C168.2 63.9307 168.5 64.0307 168.6 64.1307C168.8 64.3307 168.9 64.6307 168.9 65.0307V67.1307H169Z" fill="white"/>
<path d="M172.8 67.1307H172.3V66.8307C172.1 67.0307 171.8 67.2307 171.5 67.2307C171.1 67.2307 170.7 67.0307 170.4 66.7307C170.1 66.4307 170 66.0307 170 65.5307C170 65.0307 170.1 64.6307 170.4 64.3307C170.7 64.0307 171 63.8307 171.5 63.8307C171.7 63.8307 171.9 63.8307 172.1 63.9307L172 64.1307C171.8 64.0307 171.7 63.9307 171.5 63.9307C171.3 63.9307 171 64.0307 170.9 64.3307C170.7 64.6307 170.6 65.0307 170.6 65.4307C170.6 65.8307 170.7 66.2307 170.9 66.5307C171.1 66.8307 171.3 66.9307 171.6 66.9307C171.8 66.9307 171.9 66.8307 172.1 66.7307C172.2 66.6307 172.3 66.4307 172.4 66.2307V62.0307H172.9V67.1307H172.8Z" fill="white"/>
<path d="M175.7 66.4307C175.7 66.7307 175.6 66.9307 175.4 67.0307C175.2 67.2307 175 67.2307 174.7 67.2307C174.3 67.2307 174 67.1307 173.8 66.8307L174 66.6307C174.2 66.9307 174.5 67.0307 174.8 67.0307C175 67.0307 175.1 66.9307 175.2 66.8307C175.3 66.7307 175.4 66.5307 175.4 66.4307C175.4 66.2307 175.3 66.0307 175.1 65.9307C175 65.8307 174.8 65.7307 174.5 65.5307C174.1 65.3307 174 65.0307 174 64.6307C174 64.4307 174.1 64.2307 174.3 64.0307C174.5 63.9307 174.7 63.8307 174.9 63.8307C175 63.8307 175.2 63.8307 175.4 63.9307C175.6 64.0307 175.7 64.1307 175.7 64.2307L175.5 64.4307C175.3 64.1307 175.1 64.0307 174.8 64.0307C174.5 64.0307 174.3 64.1307 174.3 64.4307C174.3 64.6307 174.4 64.8307 174.6 65.0307C175 65.2307 175.2 65.4307 175.3 65.5307C175.5 65.7307 175.7 66.0307 175.7 66.4307Z" fill="white"/>
<path d="M179.3 66.7307C179 67.0307 178.6 67.1307 178.2 67.1307C177.7 67.1307 177.4 66.9307 177 66.6307C176.7 66.3307 176.5 65.9307 176.5 65.4307C176.5 64.9307 176.7 64.5307 177 64.2307C177.3 63.9307 177.7 63.7307 178.2 63.7307C178.6 63.7307 178.9 63.8307 179.2 64.0307L179.1 64.2307C178.9 64.0307 178.6 63.8307 178.2 63.8307C177.9 63.8307 177.6 64.0307 177.4 64.3307C177.2 64.6307 177.1 64.9307 177.1 65.3307C177.1 65.7307 177.2 66.1307 177.4 66.3307C177.6 66.6307 177.9 66.8307 178.2 66.8307C178.6 66.8307 178.9 66.6307 179.2 66.3307L179.3 66.7307Z" fill="white"/>
<path d="M182.4 65.1307V67.2307H181.9V66.9307C181.7 67.1307 181.4 67.2307 181.1 67.2307C180.8 67.2307 180.5 67.1307 180.3 66.9307C180.1 66.7307 179.9 66.5307 179.9 66.1307C179.9 65.8307 180 65.5307 180.3 65.3307C180.5 65.1307 180.8 65.0307 181 65.0307C181.1 65.0307 181.2 65.0307 181.2 65.0307C181.4 65.0307 181.5 65.1307 181.6 65.1307L181.5 65.3307C181.3 65.2307 181.2 65.1307 181 65.1307C180.8 65.1307 180.6 65.2307 180.5 65.3307C180.4 65.5307 180.3 65.7307 180.3 66.0307C180.3 66.3307 180.4 66.5307 180.5 66.6307C180.6 66.8307 180.8 66.8307 181 66.8307C181.3 66.8307 181.6 66.6307 181.8 66.3307V64.8307C181.8 64.1307 181.6 63.8307 181.1 63.8307C180.8 63.8307 180.6 63.9307 180.3 64.1307L180.2 63.9307C180.4 63.7307 180.7 63.7307 181.1 63.7307C182 63.9307 182.4 64.3307 182.4 65.1307Z" fill="white"/>
<path d="M186.2 65.6307C186.2 66.1307 186.1 66.4307 185.8 66.8307C185.5 67.1307 185.2 67.3307 184.8 67.3307C184.6 67.3307 184.4 67.3307 184.2 67.2307L184.3 67.0307C184.4 67.1307 184.6 67.2307 184.8 67.2307C185 67.2307 185.3 67.1307 185.4 66.8307C185.6 66.5307 185.7 66.2307 185.7 65.7307C185.7 65.3307 185.6 64.9307 185.4 64.6307C185.2 64.3307 185 64.2307 184.7 64.2307C184.5 64.2307 184.4 64.3307 184.2 64.4307C184.1 64.5307 184 64.7307 183.9 64.9307V68.5307H183.4V64.1307H183.9V64.4307C184.1 64.2307 184.4 64.0307 184.7 64.0307C185.1 64.0307 185.5 64.2307 185.7 64.5307C186.1 64.7307 186.2 65.1307 186.2 65.6307Z" fill="white"/>
<path d="M190 65.1307H188V65.0307H189.5C189.5 64.4307 189.2 64.1307 188.7 64.1307C188.4 64.1307 188.1 64.2307 187.9 64.5307C187.7 64.8307 187.6 65.1307 187.6 65.6307C187.6 66.1307 187.7 66.4307 187.9 66.7307C188.1 67.0307 188.4 67.1307 188.7 67.1307C189.1 67.1307 189.4 66.9307 189.7 66.6307L189.9 66.8307C189.6 67.1307 189.2 67.3307 188.8 67.3307C188.3 67.3307 188 67.1307 187.6 66.8307C187.3 66.5307 187.1 66.1307 187.1 65.6307C187.1 65.1307 187.3 64.7307 187.6 64.4307C187.9 64.1307 188.3 63.9307 188.7 63.9307C189 63.9307 189.3 64.0307 189.6 64.3307C189.9 64.5307 190 64.8307 190 65.1307Z" fill="white"/>
<path d="M141.9 74.1307V76.2307H141.4V75.9307C141.2 76.1307 140.9 76.2307 140.6 76.2307C140.3 76.2307 140 76.1307 139.8 75.9307C139.6 75.7307 139.4 75.5307 139.4 75.1307C139.4 74.8307 139.5 74.5307 139.8 74.3307C140 74.1307 140.3 74.0307 140.5 74.0307C140.6 74.0307 140.7 74.0307 140.7 74.0307C140.9 74.0307 141 74.1307 141.1 74.1307L141 74.3307C140.8 74.2307 140.7 74.1307 140.5 74.1307C140.3 74.1307 140.1 74.2307 140 74.3307C139.9 74.5307 139.8 74.7307 139.8 75.0307C139.8 75.3307 139.9 75.5307 140 75.6307C140.1 75.8307 140.3 75.8307 140.5 75.8307C140.8 75.8307 141.1 75.6307 141.3 75.3307V73.8307C141.3 73.1307 141.1 72.8307 140.6 72.8307C140.3 72.8307 140.1 72.9307 139.8 73.1307L139.7 72.9307C139.9 72.7307 140.2 72.7307 140.6 72.7307C141.5 72.9307 141.9 73.3307 141.9 74.1307Z" fill="white"/>
<path d="M145.7 76.1307H145.2V74.0307C145.2 73.3307 145 73.0307 144.5 73.0307C144 73.0307 143.7 73.3307 143.5 73.9307V76.2307H143V73.0307H143.5V73.4307C143.8 73.0307 144.1 72.9307 144.5 72.9307C144.9 72.9307 145.2 73.0307 145.3 73.1307C145.5 73.3307 145.6 73.6307 145.6 74.0307V76.1307H145.7Z" fill="white"/>
<path d="M149.5 76.1307H149V75.8307C148.8 76.0307 148.5 76.2307 148.2 76.2307C147.8 76.2307 147.4 76.0307 147.1 75.7307C146.8 75.4307 146.7 75.0307 146.7 74.5307C146.7 74.0307 146.8 73.6307 147.1 73.3307C147.4 73.0307 147.7 72.8307 148.2 72.8307C148.4 72.8307 148.6 72.8307 148.8 72.9307L148.7 73.1307C148.5 73.0307 148.4 72.9307 148.2 72.9307C148 72.9307 147.7 73.0307 147.6 73.3307C147.4 73.6307 147.3 74.0307 147.3 74.4307C147.3 74.8307 147.4 75.2307 147.6 75.5307C147.8 75.8307 148 75.9307 148.3 75.9307C148.5 75.9307 148.6 75.8307 148.8 75.7307C148.9 75.6307 149 75.4307 149.1 75.2307V71.0307H149.6V76.1307H149.5Z" fill="white"/>
<path d="M154.4 74.1307V76.2307H153.9V75.9307C153.7 76.1307 153.4 76.2307 153.1 76.2307C152.8 76.2307 152.5 76.1307 152.3 75.9307C152.1 75.7307 151.9 75.5307 151.9 75.1307C151.9 74.8307 152 74.5307 152.3 74.3307C152.5 74.1307 152.8 74.0307 153 74.0307C153.1 74.0307 153.2 74.0307 153.2 74.0307C153.4 74.0307 153.5 74.1307 153.6 74.1307L153.5 74.3307C153.3 74.2307 153.2 74.1307 153 74.1307C152.8 74.1307 152.6 74.2307 152.5 74.3307C152.4 74.5307 152.3 74.7307 152.3 75.0307C152.3 75.3307 152.4 75.5307 152.5 75.6307C152.6 75.8307 152.8 75.8307 153 75.8307C153.3 75.8307 153.6 75.6307 153.8 75.3307V73.8307C153.8 73.1307 153.6 72.8307 153.1 72.8307C152.8 72.8307 152.6 72.9307 152.3 73.1307L152.2 72.9307C152.4 72.7307 152.7 72.7307 153.1 72.7307C154 72.9307 154.4 73.3307 154.4 74.1307Z" fill="white"/>
<path d="M157 73.0307L156.9 73.2307C156.8 73.1307 156.6 73.1307 156.5 73.1307C156.4 73.1307 156.4 73.1307 156.3 73.2307C156.1 73.3307 156 73.6307 156 74.1307V76.2307H155.5V73.0307H156V73.4307C156.1 73.3307 156.1 73.2307 156.2 73.1307C156.3 73.0307 156.4 73.0307 156.6 73.0307C156.8 72.9307 156.9 72.9307 157 73.0307Z" fill="white"/>
<path d="M159.3 73.1307H158.7V75.1307C158.7 75.4307 158.7 75.7307 158.8 75.8307C158.9 75.9307 159 76.0307 159.3 76.0307V76.2307C158.6 76.2307 158.2 75.8307 158.2 75.1307V73.1307H157.9V72.9307H158.2V72.5307H158.7V72.9307H159.3V73.1307Z" fill="white"/>
<path d="M160.8 71.5307C160.8 71.6307 160.8 71.7307 160.7 71.7307C160.6 71.7307 160.6 71.8307 160.5 71.8307C160.4 71.8307 160.3 71.8307 160.3 71.7307C160.3 71.6307 160.2 71.6307 160.2 71.5307C160.2 71.4307 160.2 71.3307 160.3 71.3307C160.4 71.2307 160.4 71.2307 160.5 71.2307C160.6 71.2307 160.7 71.2307 160.7 71.3307C160.7 71.3307 160.8 71.4307 160.8 71.5307ZM160.7 76.1307H160.2V72.9307H160.7V76.1307Z" fill="white"/>
<path d="M163.6 75.4307C163.6 75.7307 163.5 75.9307 163.3 76.0307C163.1 76.2307 162.9 76.2307 162.6 76.2307C162.2 76.2307 161.9 76.1307 161.7 75.8307L161.9 75.6307C162.1 75.9307 162.4 76.0307 162.7 76.0307C162.9 76.0307 163 75.9307 163.1 75.8307C163.2 75.7307 163.3 75.5307 163.3 75.4307C163.3 75.2307 163.2 75.0307 163 74.9307C162.9 74.8307 162.7 74.7307 162.4 74.5307C162 74.3307 161.9 74.0307 161.9 73.6307C161.9 73.4307 162 73.2307 162.2 73.0307C162.4 72.9307 162.6 72.8307 162.8 72.8307C162.9 72.8307 163.1 72.8307 163.3 72.9307C163.5 73.0307 163.6 73.1307 163.6 73.2307L163.4 73.4307C163.2 73.1307 163 73.0307 162.7 73.0307C162.4 73.0307 162.2 73.1307 162.2 73.4307C162.2 73.6307 162.3 73.8307 162.5 74.0307C162.9 74.2307 163.1 74.4307 163.2 74.5307C163.4 74.7307 163.6 75.0307 163.6 75.4307Z" fill="white"/>
<path d="M165.8 73.1307H165.2V75.1307C165.2 75.4307 165.2 75.7307 165.3 75.8307C165.4 75.9307 165.5 76.0307 165.8 76.0307V76.2307C165.1 76.2307 164.7 75.8307 164.7 75.1307V73.1307H164.4V72.9307H164.7V72.5307H165.2V72.9307H165.8V73.1307Z" fill="white"/>
<path d="M167.3 71.5307C167.3 71.6307 167.3 71.7307 167.2 71.7307C167.1 71.7307 167.1 71.8307 167 71.8307C166.9 71.8307 166.8 71.8307 166.8 71.7307C166.8 71.6307 166.7 71.6307 166.7 71.5307C166.7 71.4307 166.7 71.3307 166.8 71.3307C166.9 71.2307 166.9 71.2307 167 71.2307C167.1 71.2307 167.2 71.2307 167.2 71.3307C167.3 71.3307 167.3 71.4307 167.3 71.5307ZM167.3 76.1307H166.8V72.9307H167.3V76.1307Z" fill="white"/>
<path d="M171.1 75.7307C170.8 76.0307 170.4 76.1307 170 76.1307C169.5 76.1307 169.2 75.9307 168.8 75.6307C168.5 75.3307 168.3 74.9307 168.3 74.4307C168.3 73.9307 168.5 73.5307 168.8 73.2307C169.1 72.9307 169.5 72.7307 170 72.7307C170.4 72.7307 170.7 72.8307 171 73.0307L170.9 73.2307C170.7 73.0307 170.4 72.8307 170 72.8307C169.7 72.8307 169.4 73.0307 169.2 73.3307C169 73.6307 168.9 73.9307 168.9 74.3307C168.9 74.7307 169 75.1307 169.2 75.3307C169.4 75.6307 169.7 75.8307 170 75.8307C170.4 75.8307 170.7 75.6307 171 75.3307L171.1 75.7307Z" fill="white"/>
<path d="M175.9 74.1307H173.9V74.0307H175.4C175.4 73.4307 175.1 73.1307 174.6 73.1307C174.3 73.1307 174 73.2307 173.8 73.5307C173.6 73.8307 173.5 74.1307 173.5 74.6307C173.5 75.1307 173.6 75.4307 173.8 75.7307C174 76.0307 174.3 76.1307 174.6 76.1307C175 76.1307 175.3 75.9307 175.6 75.6307L175.8 75.8307C175.5 76.1307 175.1 76.3307 174.7 76.3307C174.2 76.3307 173.9 76.1307 173.5 75.8307C173.2 75.5307 173 75.1307 173 74.6307C173 74.1307 173.2 73.7307 173.5 73.4307C173.8 73.1307 174.2 72.9307 174.6 72.9307C174.9 72.9307 175.2 73.0307 175.5 73.3307C175.7 73.5307 175.9 73.8307 175.9 74.1307Z" fill="white"/>
<path d="M179.6 76.1307H179L178 74.6307L176.8 76.1307H176.6L177.9 74.5307L176.8 72.9307H177.4L178.3 74.1307L179.3 72.9307H179.5L178.4 74.3307L179.6 76.1307Z" fill="white"/>
<path d="M183.1 74.6307C183.1 75.1307 183 75.4307 182.7 75.8307C182.4 76.1307 182.1 76.3307 181.7 76.3307C181.5 76.3307 181.3 76.3307 181.1 76.2307L181.2 76.0307C181.3 76.1307 181.5 76.2307 181.7 76.2307C181.9 76.2307 182.2 76.1307 182.3 75.8307C182.5 75.5307 182.6 75.2307 182.6 74.7307C182.6 74.3307 182.5 73.9307 182.3 73.6307C182.1 73.3307 181.9 73.2307 181.6 73.2307C181.4 73.2307 181.3 73.3307 181.1 73.4307C180.9 73.5307 180.9 73.7307 180.8 73.9307V77.5307H180.3V73.1307H180.8V73.4307C181 73.2307 181.3 73.0307 181.6 73.0307C182 73.0307 182.4 73.2307 182.6 73.5307C183 73.7307 183.1 74.1307 183.1 74.6307Z" fill="white"/>
<path d="M185.6 73.0307L185.5 73.2307C185.4 73.1307 185.2 73.1307 185.1 73.1307C185 73.1307 185 73.1307 184.9 73.2307C184.7 73.3307 184.6 73.6307 184.6 74.1307V76.2307H184.1V73.0307H184.6V73.4307C184.7 73.3307 184.7 73.2307 184.8 73.1307C184.9 73.0307 185 73.0307 185.2 73.0307C185.4 72.9307 185.5 72.9307 185.6 73.0307Z" fill="white"/>
<path d="M189.1 74.1307H187.1V74.0307H188.6C188.6 73.4307 188.3 73.1307 187.8 73.1307C187.5 73.1307 187.2 73.2307 187 73.5307C186.8 73.8307 186.7 74.1307 186.7 74.6307C186.7 75.1307 186.8 75.4307 187 75.7307C187.2 76.0307 187.5 76.1307 187.8 76.1307C188.2 76.1307 188.5 75.9307 188.8 75.6307L189 75.8307C188.7 76.1307 188.3 76.3307 187.9 76.3307C187.4 76.3307 187.1 76.1307 186.7 75.8307C186.4 75.5307 186.2 75.1307 186.2 74.6307C186.2 74.1307 186.4 73.7307 186.7 73.4307C187 73.1307 187.4 72.9307 187.8 72.9307C188.1 72.9307 188.4 73.0307 188.7 73.3307C188.9 73.5307 189.1 73.8307 189.1 74.1307Z" fill="white"/>
<path d="M191.8 75.4307C191.8 75.7307 191.7 75.9307 191.5 76.0307C191.3 76.2307 191.1 76.2307 190.8 76.2307C190.4 76.2307 190.1 76.1307 189.9 75.8307L190 75.6307C190.2 75.9307 190.5 76.0307 190.8 76.0307C191 76.0307 191.1 75.9307 191.2 75.8307C191.3 75.7307 191.4 75.5307 191.4 75.4307C191.4 75.2307 191.3 75.0307 191.1 74.9307C191 74.8307 190.8 74.7307 190.5 74.5307C190.1 74.3307 190 74.0307 190 73.6307C190 73.4307 190.1 73.2307 190.3 73.0307C190.5 72.9307 190.7 72.8307 190.9 72.8307C191.1 72.8307 191.2 72.8307 191.4 72.9307C191.6 73.0307 191.7 73.1307 191.7 73.2307L191.5 73.4307C191.3 73.1307 191.1 73.0307 190.8 73.0307C190.5 73.0307 190.3 73.1307 190.3 73.4307C190.3 73.6307 190.4 73.8307 190.6 74.0307C191 74.2307 191.2 74.4307 191.3 74.5307C191.7 74.7307 191.8 75.0307 191.8 75.4307Z" fill="white"/>
<path d="M194.5 75.4307C194.5 75.7307 194.4 75.9307 194.2 76.0307C194 76.2307 193.8 76.2307 193.5 76.2307C193.1 76.2307 192.8 76.1307 192.6 75.8307L192.8 75.6307C193 75.9307 193.3 76.0307 193.6 76.0307C193.8 76.0307 193.9 75.9307 194 75.8307C194.1 75.7307 194.2 75.5307 194.2 75.4307C194.2 75.2307 194.1 75.0307 193.9 74.9307C193.8 74.8307 193.6 74.7307 193.3 74.5307C192.9 74.3307 192.8 74.0307 192.8 73.6307C192.8 73.4307 192.9 73.2307 193.1 73.0307C193.3 72.9307 193.5 72.8307 193.7 72.8307C193.8 72.8307 194 72.8307 194.2 72.9307C194.4 73.0307 194.5 73.1307 194.5 73.2307L194.3 73.4307C194.1 73.1307 193.9 73.0307 193.6 73.0307C193.3 73.0307 193.1 73.1307 193.1 73.4307C193.1 73.6307 193.2 73.8307 193.4 74.0307C193.8 74.2307 194 74.4307 194.1 74.5307C194.4 74.7307 194.6 75.0307 194.5 75.4307Z" fill="white"/>
<path d="M196.1 71.5307C196.1 71.6307 196.1 71.7307 196 71.7307C195.9 71.7307 195.9 71.8307 195.8 71.8307C195.7 71.8307 195.6 71.8307 195.6 71.7307C195.6 71.6307 195.5 71.6307 195.5 71.5307C195.5 71.4307 195.5 71.3307 195.6 71.3307C195.7 71.2307 195.7 71.2307 195.8 71.2307C195.9 71.2307 196 71.2307 196 71.3307C196.1 71.3307 196.1 71.4307 196.1 71.5307ZM196 76.1307H195.5V72.9307H196V76.1307Z" fill="white"/>
<path d="M200.4 74.5307C200.4 75.0307 200.2 75.4307 199.9 75.7307C199.6 76.0307 199.2 76.2307 198.7 76.2307C198.2 76.2307 197.9 76.0307 197.5 75.7307C197.2 75.4307 197 75.0307 197 74.5307C197 74.0307 197.2 73.6307 197.5 73.3307C197.8 73.0307 198.2 72.8307 198.7 72.8307C199.2 72.8307 199.5 73.0307 199.9 73.3307C200.2 73.7307 200.4 74.1307 200.4 74.5307ZM199.9 74.5307C199.9 74.1307 199.8 73.7307 199.6 73.4307C199.4 73.1307 199.1 73.0307 198.8 73.0307C198.5 73.0307 198.2 73.1307 198 73.4307C197.8 73.7307 197.7 74.0307 197.7 74.5307C197.7 74.9307 197.8 75.3307 198 75.6307C198.2 75.9307 198.5 76.0307 198.8 76.0307C199.1 76.0307 199.4 75.9307 199.6 75.6307C199.8 75.3307 199.9 74.9307 199.9 74.5307Z" fill="white"/>
<path d="M204 76.1307H203.5V74.0307C203.5 73.3307 203.3 73.0307 202.8 73.0307C202.3 73.0307 202 73.3307 201.8 73.9307V76.2307H201.3V73.0307H201.8V73.4307C202.1 73.0307 202.4 72.9307 202.8 72.9307C203.2 72.9307 203.5 73.0307 203.6 73.1307C203.8 73.3307 203.9 73.6307 203.9 74.0307V76.1307H204Z" fill="white"/>
<path d="M205.8 75.9307C205.8 76.0307 205.8 76.1307 205.7 76.1307C205.6 76.1307 205.6 76.2307 205.5 76.2307C205.4 76.2307 205.3 76.2307 205.3 76.1307C205.3 76.0307 205.2 76.0307 205.2 75.9307C205.2 75.8307 205.2 75.7307 205.3 75.7307C205.4 75.7307 205.4 75.6307 205.5 75.6307C205.6 75.6307 205.7 75.6307 205.7 75.7307C205.7 75.8307 205.8 75.8307 205.8 75.9307Z" fill="white"/>
</g>
</svg>
