<?xml version="1.0" encoding="utf-8"?>
<!-- Generator: Adobe Illustrator 25.2.3, SVG Export Plug-In . SVG Version: 6.00 Build 0)  -->
<svg version="1.1" id="圖層_1" xmlns="http://www.w3.org/2000/svg" xmlns:xlink="http://www.w3.org/1999/xlink" x="0px" y="0px"
	 viewBox="0 0 90 78" style="enable-background:new 0 0 90 78;" xml:space="preserve">
<style type="text/css">
	.st0{fill:#3E3A39;}
	.st1{fill:#C9A063;}
</style>
<path class="st0" d="M2.9,36.7c-0.4,0.8-0.8,1.4-1.3,1.9c0.1,0,0.2,0,0.3,0c1,0,1.9-0.1,2.9-0.2c-0.2-0.3-0.5-0.6-0.8-1L4.5,37
	c0.6,0.7,1.1,1.3,1.5,2l-0.5,0.5c-0.1-0.2-0.2-0.4-0.3-0.5c-1.3,0.2-2.8,0.3-4.7,0.3l-0.1-0.7c0.2,0,0.4,0,0.6,0.1
	c0.4-0.5,0.8-1.2,1.3-2.1L2.9,36.7z M5.5,42.4H4.9V42H1.5v0.4H0.9v-2.7h4.7v2.7H5.5z M4.9,41.5v-1.2H1.5v1.2H4.9z"/>
<path class="st0" d="M9.5,36.6v4.5c0.2-0.1,0.4-0.1,0.6-0.2v0.6c-0.8,0.3-1.8,0.6-2.9,0.9l-0.1-0.7c0.6-0.1,1.3-0.2,1.9-0.4v-2.1
	H7.2v-0.6H9v-2H9.5z M11,36.6v2.2c0.6-0.3,1.1-0.5,1.5-0.9l0.4,0.5c-0.6,0.4-1.2,0.7-1.9,1v1.9c0,0.1,0,0.2,0.1,0.2
	c0.1,0.1,0.1,0.1,0.2,0.1H12c0.1,0,0.1,0,0.2-0.1c0.1-0.1,0.1-0.5,0.2-1.2l0.6,0.2c-0.1,0.8-0.2,1.3-0.3,1.4
	c-0.1,0.2-0.3,0.2-0.6,0.2h-1c-0.2,0-0.4-0.1-0.5-0.2c-0.2-0.2-0.2-0.4-0.2-0.6v-4.9H11V36.6z"/>
<path class="st0" d="M14.3,38.5V38c0.5,0,0.8-0.1,1-0.2c0.2-0.1,0.3-0.4,0.4-0.8h0.5v5.3h-0.7v-3.8H14.3z"/>
<path class="st0" d="M21.2,37.8c0.2,0.4,0.4,1,0.4,1.8c0,0.7-0.1,1.3-0.3,1.8c-0.3,0.7-0.8,1-1.5,1c-0.6,0-1.1-0.3-1.4-0.8
	c-0.3-0.5-0.4-1.1-0.4-1.9c0-0.6,0.1-1.1,0.2-1.5c0.3-0.8,0.8-1.2,1.6-1.2C20.4,37,20.9,37.2,21.2,37.8z M20.5,41.3
	c0.2-0.3,0.3-0.9,0.3-1.7c0-0.6-0.1-1.1-0.2-1.5c-0.1-0.4-0.4-0.6-0.9-0.6c-0.4,0-0.7,0.2-0.9,0.6c-0.2,0.4-0.3,0.9-0.3,1.6
	c0,0.5,0.1,1,0.2,1.3c0.2,0.5,0.5,0.8,0.9,0.8S20.3,41.6,20.5,41.3z"/>
<path class="st0" d="M22.6,38.5V38c0.5,0,0.8-0.1,1-0.2c0.2-0.1,0.3-0.4,0.4-0.8h0.5v5.3h-0.7v-3.8H22.6z"/>
<path class="st0" d="M27.2,40.8c0,0.6-0.1,1.1-0.2,1.6l-0.6-0.2c0.1-0.4,0.3-0.9,0.3-1.4H27.2z M28.1,36.7c-0.2,0.6-0.5,1.1-0.7,1.5
	c0.2,0,0.4,0,0.6-0.1c0.1-0.3,0.3-0.6,0.4-0.9l0.5,0.2c-0.5,1-1,1.9-1.5,2.5c0.3,0,0.6-0.1,0.9-0.1c-0.1-0.2-0.1-0.4-0.2-0.7
	l0.5-0.2c0.1,0.4,0.3,0.9,0.4,1.4l-0.5,0.1c0-0.1,0-0.2-0.1-0.3c-0.5,0.1-1.1,0.2-1.8,0.3l-0.2-0.5c0.1,0,0.3,0,0.4,0
	c0.3-0.4,0.6-0.8,0.9-1.4c-0.4,0.1-0.8,0.1-1.2,0.2l-0.1-0.5c0.1,0,0.2,0,0.4,0c0.3-0.5,0.6-1.1,0.8-1.8L28.1,36.7z M28.1,42.1h-0.5
	c0-0.6-0.1-1-0.1-1.3H28C28,41.1,28,41.5,28.1,42.1z M29,41.8L28.5,42c-0.1-0.4-0.2-0.9-0.3-1.3l0.4-0.1C28.8,41,28.9,41.4,29,41.8z
	 M30.4,37.3v-0.8H31v0.8h1.4v0.6H31v0.9h1.2v0.5h-2.9v-0.5h1.2v-0.9H29v-0.6H30.4z M32.1,42.4h-0.5v-0.3h-1.7v0.3h-0.6v-2.6h2.8
	V42.4z M31.6,41.6v-1.3h-1.7v1.3H31.6z"/>
<path class="st0" d="M34,37.7v-1.2h0.6v1.2h0.6v0.5h-0.6v0.2c0.2,0.3,0.4,0.6,0.7,0.9L35,39.8c-0.1-0.3-0.2-0.5-0.3-0.7v3.2H34v-3
	c-0.2,0.4-0.3,0.8-0.5,1.1l-0.3-0.7c0.3-0.5,0.5-1,0.7-1.6h-0.7v-0.5H34V37.7z M36.1,37v-0.5h0.6V37h1.1v-0.5h0.6V37h0.9v0.5h-0.9
	v0.3h0.7v0.4h-0.7v0.4h1v0.5h-1.8v0.3H39V41h0.4v0.5H39V42c0,0.2-0.1,0.3-0.2,0.4c-0.1,0.1-0.2,0.1-0.4,0.1h-0.8L37.5,42h0.7
	c0.1,0,0.2-0.1,0.2-0.2v-0.4H36v1.1h-0.5v-1.1H35v-0.5h0.5v-1.6h1.4V39h-1.7v-0.5H36v-0.4h-0.6v-0.4H36v-0.3h-0.8V37H36.1z M36.9,40
	v-0.3H36V40H36.9z M36.9,40.8v-0.3H36v0.3H36.9z M37.7,37.4h-1.1v0.3h1.1V37.4z M37.7,38.5v-0.4h-1.1v0.4H37.7z M37.4,40h0.9v-0.3
	h-0.9V40z M38.3,40.8v-0.3h-0.9v0.3H38.3z"/>
<path class="st0" d="M43.2,37c-0.7,0.1-1.4,0.2-2.2,0.2v0.3h2.3v1.3h-1.6l0.3,0.1c-0.1,0.2-0.1,0.3-0.2,0.4h0.6
	c-0.1-0.1-0.1-0.2-0.2-0.3l0.4-0.1c0.1,0.1,0.2,0.3,0.3,0.5h0.6v0.5h-0.6v0.3h0.5v0.4h-0.5v0.3h0.5v0.4h-0.5v0.4h0.6v0.4h-1.7v0.3
	h-0.5V40c-0.1,0.1-0.1,0.2-0.2,0.2L41,39.9c0,0.3-0.1,0.7-0.1,1.1c-0.1,0.5-0.2,0.9-0.3,1.4L40.2,42c0.1-0.4,0.2-0.7,0.2-1.1
	c0-0.4,0.1-0.9,0.1-1.4v-2.6c1,0,1.8-0.1,2.5-0.3L43.2,37z M41.2,39.3c0.1-0.1,0.2-0.3,0.3-0.5H41v0.6c0,0.1,0,0.2,0,0.3
	C41,39.5,41.1,39.4,41.2,39.3z M42.7,38.3v-0.4H41v0.4H42.7z M42.3,39.8h-0.6v0.3h0.6V39.8z M42.3,40.5h-0.6v0.3h0.6V40.5z
	 M42.3,41.5v-0.4h-0.6v0.4H42.3z M46,36.7v0.5h-1.1c0,0.2-0.1,0.3-0.1,0.5h1v3.4h-2.3v-3.4h0.8c0.1-0.2,0.1-0.3,0.1-0.5h-1.1v-0.5
	H46z M44.5,41.4c-0.2,0.4-0.4,0.7-0.6,1l-0.5-0.3c0.2-0.2,0.5-0.5,0.7-0.9L44.5,41.4z M45.3,38.7v-0.5H44v0.5H45.3z M45.3,39.6v-0.5
	H44v0.5H45.3z M45.3,40.1H44v0.6h1.2L45.3,40.1L45.3,40.1z M46.1,42l-0.4,0.4c-0.2-0.3-0.4-0.6-0.8-0.9l0.4-0.4
	C45.6,41.5,45.8,41.7,46.1,42z"/>
<path class="st0" d="M49.7,39.1h-1.9v3.3h-0.6v-5.7h2.5V39.1z M49.1,37.7v-0.5h-1.3v0.5H49.1z M49.1,38.6v-0.5h-1.3v0.5H49.1z
	 M51.2,39.6v1.8h-2.6v-1.8H51.2z M50.7,40.1h-1.5v0.8h1.5V40.1z M50.2,36.7h2.5v5c0,0.2-0.1,0.4-0.2,0.5c-0.1,0.1-0.2,0.2-0.4,0.2
	h-1L51,41.8l0.9,0.1c0.1,0,0.2-0.1,0.2-0.3v-2.4h-1.9v-0.3V36.7z M52.1,37.7v-0.5h-1.4v0.5H52.1z M52.1,38.1h-1.4v0.5h1.4V38.1z"/>
<path class="st0" d="M2.2,45.9C2,45.9,1.6,46,1.1,46v0.3h1v0.4h-1V47h1v0.5h-1v0.4h4.1v-0.4h-1V47h1v-0.3h-1v-0.4h1V46h-1v-0.5h1.6
	v2.4h0.3v1.3H5.5v-0.8H1v0.8H0.4v-1.3h0.3v-2.3c0.5,0,0.9-0.1,1.4-0.2L2.2,45.9z M5,48.8v0.5c-0.4,0.2-0.9,0.4-1.5,0.6h2.4v0.5H3.5
	V51c0,0.1,0,0.2-0.1,0.3c-0.1,0.1-0.2,0.1-0.3,0.1h-1L2,50.9c0.2,0,0.5,0,0.7,0c0.1,0,0.2,0,0.2-0.1v-0.4H0.4v-0.5h2.5v-0.2
	c0.4-0.1,0.7-0.2,1.2-0.3H1.4v-0.5L5,48.8L5,48.8z M4,45.6c-0.1,0.1-0.3,0.3-0.4,0.4c0.1,0.1,0.2,0.2,0.3,0.2l-0.3,0.3
	c-0.1-0.1-0.2-0.2-0.3-0.3c-0.2,0.1-0.5,0.3-0.8,0.4l-0.3-0.4c0.2-0.1,0.4-0.1,0.7-0.3c-0.1-0.1-0.3-0.2-0.5-0.3l0.3-0.3
	c0.2,0.1,0.4,0.2,0.5,0.3c0.1-0.1,0.3-0.2,0.4-0.3L4,45.6z M4.1,46.8c-0.2,0.2-0.3,0.3-0.5,0.4c0.1,0.1,0.3,0.2,0.4,0.3l-0.3,0.3
	c-0.1-0.1-0.3-0.2-0.4-0.4c-0.2,0.1-0.4,0.2-0.7,0.3l-0.3-0.4c0.2-0.1,0.4-0.1,0.6-0.2c-0.1-0.1-0.3-0.2-0.4-0.3l0.3-0.3
	c0.2,0.1,0.3,0.2,0.5,0.3c0.2-0.1,0.3-0.2,0.5-0.4L4.1,46.8z"/>
<path class="st0" d="M12.9,46.1H8v2.2c0,0.5,0,0.9-0.1,1.4s-0.2,1-0.4,1.5L7,50.7c0.2-0.4,0.3-0.8,0.3-1.2c0-0.4,0.1-0.9,0.1-1.2
	v-2.7h5.4L12.9,46.1L12.9,46.1z M10.8,49.2v0.4h1.7v0.5h-1.7v0.5h2.1v0.5H8v-0.5h0.8v-1.1h0.6v1.1h0.8v-1.4H10.8z M10.4,46.7
	c-0.2,0.1-0.5,0.1-0.8,0.1v0.4h0.7v0.5H9.6c0.3,0.2,0.5,0.3,0.8,0.5l-0.3,0.4c-0.2-0.2-0.4-0.3-0.5-0.4v1H9.1v-1
	c-0.2,0.3-0.5,0.5-0.8,0.8L8,48.6c0.4-0.3,0.8-0.6,1-0.9H8.1v-0.5H9v-0.4c-0.2,0-0.5,0-0.8,0l-0.1-0.5c0.8,0,1.4-0.1,1.9-0.2
	L10.4,46.7z M12.7,46.7c-0.3,0.1-0.6,0.1-0.9,0.2v0.4h1.1v0.5h-1.1v0.1c0.4,0.3,0.7,0.5,1.1,0.8l-0.3,0.5c-0.3-0.3-0.6-0.6-0.8-0.8
	v1h-0.5v-1c-0.2,0.3-0.5,0.6-0.7,0.8l-0.3-0.4c0.4-0.3,0.7-0.6,0.9-0.9h-0.7v-0.5h0.7v-0.3c-0.2,0-0.4,0-0.7,0l-0.1-0.5
	c0.8,0,1.4-0.1,2-0.2L12.7,46.7z"/>
<path class="st0" d="M16.4,47.4v-0.8h0.8v0.8H16.4z M16.4,49.8V49h0.8v0.8H16.4z"/>
<path class="st0" d="M5.8,60.1H5.3v-0.2H1v0.2H0.5v-5.7h5.4L5.8,60.1L5.8,60.1z M5.3,59.4v-4.5H1v4.5H5.3z M3.3,58.5
	c-0.6,0.2-1.2,0.3-2,0.5l-0.1-0.6c0.7-0.1,1.4-0.2,2.1-0.4V58.5z M3.3,55.6c0-0.2,0-0.4,0-0.6h0.5c0,0.2,0,0.4,0,0.6h0.6
	c-0.1-0.2-0.1-0.3-0.2-0.5L4.6,55c0.1,0.2,0.2,0.3,0.3,0.6l-0.3,0.1h0.5v0.5H3.8c0,0.4,0.1,0.7,0.1,1c0,0.2,0.1,0.4,0.1,0.6
	c0.2-0.3,0.4-0.8,0.6-1.4L5,56.7c-0.3,0.8-0.6,1.3-0.8,1.7c0,0,0,0.1,0.1,0.1c0.1,0.2,0.2,0.3,0.3,0.3c0,0,0.1-0.3,0.2-0.8l0.5,0.4
	c-0.1,0.5-0.2,0.8-0.3,0.8c-0.1,0.1-0.2,0.1-0.3,0.1c-0.2,0-0.4-0.1-0.5-0.3c-0.1-0.1-0.1-0.2-0.2-0.3c-0.2,0.2-0.4,0.5-0.7,0.7
	L3,59c0.3-0.2,0.6-0.5,0.8-0.7c-0.1-0.2-0.2-0.5-0.2-0.7c-0.1-0.3-0.1-0.8-0.2-1.3H1.3v-0.5h2V55.6z M2.9,56.4v1.5H1.4v-1.5H2.9z
	 M2.5,56.8H1.9v0.6h0.6V56.8z"/>
<path class="st0" d="M12.3,59.3v0.6H6.6v-0.6H12.3z M12.2,55.5v0.6H6.8v-0.6H12.2z M9,58.9l-0.7,0.2c-0.2-0.9-0.4-1.8-0.6-2.6
	l0.6-0.2C8.6,57.1,8.8,57.9,9,58.9z M10,55l-0.4,0.4c-0.2-0.3-0.6-0.5-1-0.8L9,54.2C9.4,54.5,9.7,54.7,10,55z M11.3,56.5
	c-0.2,1-0.4,1.9-0.7,2.7L10,59c0.3-0.7,0.5-1.5,0.7-2.6L11.3,56.5z"/>
<path class="st0" d="M15.5,55.5v-1.2h0.6v1.2h2.2v3h-2.2v1.6h-0.6v-1.6h-2.2v-3H15.5z M15.5,56H14v1.9h1.6V56H15.5z M17.8,56h-1.6
	v1.9h1.6V56z"/>
<path class="st0" d="M20.9,55c-0.2,0.1-0.4,0.1-0.7,0.2v0.6h0.6v0.6h-0.6v0.7h0.6v0.5h-0.6v0.7H21v-3.7h2.5v3.7h0.9v-0.7h-0.6V57
	h0.6v-0.7h-0.7v-0.5h0.7v-0.6h-0.7v-0.6H25l-0.1,3.7h0.3v0.6h-5.9v-0.6h0.3v-3.5c0.4,0,0.7-0.1,1.1-0.3L20.9,55z M21.7,59.2
	c-0.5,0.3-1.1,0.7-1.9,0.9l-0.4-0.5c0.7-0.2,1.3-0.5,1.8-0.8L21.7,59.2z M23,58.2V55h-1.5v3.2H23z M22.8,55.3v0.5h-1.2v-0.5H22.8z
	 M22.8,56.1v1.8h-1.1v-1.8H22.8z M22.4,56.5h-0.3v0.9h0.3V56.5z M25.2,59.6l-0.4,0.5c-0.6-0.4-1.3-0.7-1.9-0.9l0.3-0.5
	C23.9,59,24.6,59.3,25.2,59.6z"/>
<path class="st0" d="M28.1,55.9c0-0.3,0.1-0.7,0.1-1.2v-0.4h0.7v0.4c0,0.4,0,0.8-0.1,1.2h2.6v0.6h-1.9c0.1,0.7,0.3,1.2,0.6,1.6
	c0.4,0.5,0.8,1,1.4,1.3L31.1,60c-0.7-0.5-1.2-1-1.6-1.6c-0.3-0.5-0.6-1.2-0.7-1.9h-0.2c-0.1,0.4-0.2,0.8-0.4,1.2
	c-0.3,0.8-1,1.6-2,2.4l-0.5-0.5c0.9-0.6,1.6-1.3,1.9-2.1c0.1-0.3,0.3-0.6,0.3-1h-2.1v-0.6H28.1z"/>
<path class="st0" d="M34.1,54.7c-0.2,0-0.6,0.1-1.1,0.1v0.3h1v0.4h-1v0.3h1v0.5h-1v0.4h4v-0.4h-0.9V56H37v-0.3h-0.9v-0.4H37v-0.4h-1
	v-0.5h1.6v2.4h0.3v1.3h-0.6v-0.8h-4.5v0.8h-0.6v-1.3h0.2v-2.3c0.4,0,0.9-0.1,1.4-0.2L34.1,54.7z M36.9,57.6v0.5
	c-0.4,0.2-0.9,0.4-1.5,0.6h2.4v0.5h-2.4v0.6c0,0.1,0,0.2-0.1,0.3c-0.1,0.1-0.2,0.1-0.3,0.1h-1l-0.1-0.5c0.2,0,0.5,0,0.7,0
	c0.1,0,0.2,0,0.2-0.1v-0.4h-2.5v-0.5h2.5v-0.2c0.4-0.1,0.7-0.2,1.1-0.3h-2.7v-0.5L36.9,57.6L36.9,57.6z M35.9,54.5
	c-0.1,0.1-0.3,0.3-0.4,0.4c0.1,0.1,0.2,0.2,0.3,0.2l-0.3,0.3c-0.1-0.1-0.2-0.2-0.3-0.3c-0.2,0.1-0.5,0.3-0.8,0.4l-0.2-0.4
	c0.2-0.1,0.4-0.1,0.6-0.3c-0.1-0.1-0.3-0.2-0.4-0.3l0.3-0.3c0.2,0.1,0.4,0.2,0.5,0.3c0.1-0.1,0.3-0.2,0.4-0.3L35.9,54.5z M36,55.7
	c-0.2,0.2-0.3,0.3-0.5,0.4c0.1,0.1,0.2,0.2,0.4,0.3l-0.3,0.3c-0.1-0.1-0.3-0.2-0.4-0.4c-0.2,0.1-0.4,0.2-0.7,0.3l-0.2-0.4
	c0.2-0.1,0.4-0.1,0.6-0.2c-0.1-0.1-0.3-0.2-0.4-0.3l0.3-0.3c0.2,0.1,0.3,0.2,0.5,0.3c0.2-0.1,0.3-0.2,0.5-0.4L36,55.7z"/>
<path class="st0" d="M41,56.1v-1.8h0.7v1.8h2.2v0.6h-2.2V59h2.6v0.7h-5.7V59H41v-2.3h-2v-0.6H41z"/>
<path class="st0" d="M47.4,55.4v-1.2h0.7v1.2h2.5V56h-1.9c0.2,0.5,0.5,0.9,0.8,1.3c0.3,0.4,0.7,0.9,1.3,1.3l-0.4,0.6
	c-0.6-0.5-1.1-1.1-1.4-1.7c-0.3-0.5-0.6-1-0.8-1.6V60h-0.7v-4c-0.2,0.6-0.4,1-0.6,1.3c-0.3,0.6-0.9,1.3-1.7,1.9l-0.3-0.6
	c0.6-0.5,1-1,1.3-1.4c0.2-0.3,0.5-0.8,0.7-1.2H45v-0.6H47.4z"/>
<path class="st0" d="M53.3,58.5c-0.4,0.5-1,1-1.6,1.4l-0.4-0.5c0.6-0.3,1.1-0.8,1.6-1.3L53.3,58.5z M56.8,54.8
	C56,55,55.1,55.1,54,55.1c-0.2,0.3-0.4,0.6-0.7,0.9c0.5,0,1,0,1.4-0.1c0.2-0.2,0.5-0.5,0.7-0.7l0.6,0.3c-0.8,0.8-1.6,1.5-2.4,2
	c0.9,0,1.7-0.1,2.3-0.1c-0.1-0.2-0.3-0.5-0.4-0.7l0.4-0.3c0.5,0.7,0.8,1.2,1.1,1.7l-0.5,0.4c-0.1-0.2-0.2-0.4-0.3-0.6
	c-0.4,0.1-1,0.1-1.6,0.1v1.5c0,0.2-0.1,0.4-0.2,0.5c-0.1,0.1-0.3,0.2-0.6,0.2h-0.6l-0.1-0.7c0.2,0,0.4,0.1,0.5,0.1
	c0.2,0,0.3-0.1,0.3-0.2V58c-0.7,0-1.4,0.1-2.2,0.1l-0.2-0.6c0.4,0,0.8,0,1.1,0c0.5-0.3,1-0.7,1.4-1.1c-0.7,0.1-1.4,0.1-2.2,0.2
	l-0.1-0.5c0.2,0,0.5,0,0.7,0c0.3-0.3,0.6-0.6,0.9-0.9c-0.6,0-1.1,0-1.7,0l-0.2-0.5c2,0,3.7-0.1,5.1-0.4L56.8,54.8z M57,59.4
	l-0.4,0.5c-0.4-0.4-0.9-0.9-1.5-1.4l0.4-0.4C56.1,58.5,56.6,59,57,59.4z"/>
<path class="st0" d="M58.6,57.6v-0.8h0.8v0.8H58.6z"/>
<path class="st0" d="M63.2,54.7c-0.2,0-0.6,0.1-1.1,0.1v0.3h1v0.4h-1v0.3h1v0.5h-1v0.4h4v-0.4h-0.9V56h0.9v-0.3h-0.9v-0.4h0.9v-0.4
	h-1v-0.5h1.6v2.4H67v1.3h-0.6v-0.8h-4.5v0.8h-0.6v-1.3h0.2v-2.3c0.4,0,0.9-0.1,1.4-0.2L63.2,54.7z M66,57.6v0.5
	c-0.4,0.2-0.9,0.4-1.5,0.6h2.4v0.5h-2.4v0.6c0,0.1,0,0.2-0.1,0.3c-0.1,0.1-0.2,0.1-0.3,0.1h-1L63,59.7c0.2,0,0.5,0,0.7,0
	c0.1,0,0.2,0,0.2-0.1v-0.4h-2.5v-0.5h2.5v-0.2c0.4-0.1,0.7-0.2,1.1-0.3h-2.7v-0.5L66,57.6L66,57.6z M65,54.5
	c-0.1,0.1-0.3,0.3-0.4,0.4c0.1,0.1,0.2,0.2,0.3,0.2l-0.3,0.3c-0.1-0.1-0.2-0.2-0.3-0.3c-0.2,0.1-0.5,0.3-0.8,0.4l-0.2-0.4
	c0.2-0.1,0.4-0.1,0.6-0.3c-0.1-0.1-0.3-0.2-0.4-0.3l0.3-0.3c0.2,0.1,0.4,0.2,0.5,0.3c0.1-0.1,0.3-0.2,0.4-0.3L65,54.5z M65.1,55.7
	c-0.2,0.2-0.3,0.3-0.5,0.4c0.1,0.1,0.2,0.2,0.4,0.3l-0.3,0.3c-0.1-0.1-0.3-0.2-0.4-0.4c-0.2,0.1-0.4,0.2-0.7,0.3l-0.2-0.4
	c0.2-0.1,0.4-0.1,0.6-0.2c-0.1-0.1-0.3-0.2-0.4-0.3l0.3-0.3c0.2,0.1,0.3,0.2,0.5,0.3c0.2-0.1,0.3-0.2,0.5-0.4L65.1,55.7z"/>
<path class="st0" d="M70.2,56.2v-1.9h0.7v1.9h2.5v0.6h-2.5v2.5h2.2v0.6h-5.2v-0.6h2.3v-2.5h-2.5v-0.6H70.2z"/>
<path class="st0" d="M5.6,68.9H5.1v-0.2H1v0.2H0.5v-5.7h5.2L5.6,68.9L5.6,68.9z M5.1,68.2v-4.5H1v4.5H5.1z M3.2,67.3
	c-0.6,0.2-1.2,0.3-1.9,0.5l-0.1-0.6c0.7-0.1,1.4-0.2,2-0.4V67.3z M3.1,64.5c0-0.2,0-0.4,0-0.6h0.5c0,0.2,0,0.4,0,0.6h0.6
	C4.1,64.3,4.1,64.2,4,64l0.4-0.1c0.1,0.2,0.2,0.3,0.3,0.6l-0.3,0.1h0.5v0.5H3.7c0,0.4,0,0.7,0.1,1c0,0.2,0.1,0.4,0.1,0.6
	c0.2-0.3,0.4-0.8,0.6-1.4l0.4,0.3c-0.3,0.8-0.5,1.3-0.8,1.7v0.1c0.1,0.2,0.2,0.3,0.3,0.3c0,0,0.1-0.3,0.2-0.8l0.5,0.4
	c-0.1,0.5-0.2,0.8-0.3,0.8c-0.1,0.1-0.2,0.1-0.3,0.1c-0.2,0-0.3-0.1-0.5-0.3c-0.1-0.1-0.1-0.2-0.2-0.3c-0.2,0.2-0.4,0.5-0.7,0.7
	l-0.3-0.4c0.3-0.2,0.6-0.5,0.8-0.7c-0.1-0.2-0.2-0.5-0.2-0.7c-0.1-0.3-0.1-0.8-0.2-1.3h-2v-0.5h1.9V64.5z M2.8,65.3v1.5H1.3v-1.5
	H2.8z M2.4,65.7H1.8v0.6h0.6V65.7z"/>
<path class="st0" d="M11.8,68.2v0.6H6.4v-0.6H11.8z M11.7,64.3v0.6H6.5v-0.6H11.7z M8.6,67.8L8,68c-0.2-0.9-0.3-1.8-0.6-2.6L8,65.2
	C8.2,65.9,8.4,66.8,8.6,67.8z M9.6,63.9l-0.4,0.4c-0.2-0.3-0.6-0.5-1-0.8l0.4-0.4C9,63.3,9.3,63.6,9.6,63.9z M10.9,65.3
	c-0.2,1-0.4,1.9-0.7,2.7l-0.6-0.2c0.3-0.7,0.5-1.5,0.7-2.6L10.9,65.3z"/>
<path class="st0" d="M15,63.3c-0.4,0.8-0.8,1.4-1.2,1.9c0.1,0,0.2,0,0.3,0c0.9,0,1.8-0.1,2.7-0.2c-0.2-0.3-0.5-0.6-0.8-1l0.4-0.4
	c0.6,0.7,1.1,1.3,1.5,2l-0.5,0.5c-0.1-0.2-0.2-0.4-0.3-0.5c-1.2,0.2-2.7,0.3-4.4,0.3l-0.1-0.7c0.2,0,0.4,0,0.6,0.1
	c0.4-0.5,0.8-1.2,1.2-2.1L15,63.3z M17.5,69h-0.6v-0.4h-3.2V69H13v-2.7h4.4L17.5,69L17.5,69z M16.9,68.1v-1.2h-3.2v1.2H16.9z"/>
<path class="st0" d="M19.7,65.3l-0.3,0.5c-0.3-0.3-0.6-0.5-0.8-0.6l0.3-0.5C19.1,64.9,19.4,65.1,19.7,65.3z M19.7,66.4
	c-0.2,1-0.4,1.9-0.7,2.5l-0.4-0.4c0.2-0.6,0.4-1.4,0.6-2.4L19.7,66.4z M19.8,63.8l-0.3,0.5c-0.2-0.3-0.5-0.5-0.7-0.6l0.3-0.5
	C19.3,63.4,19.5,63.5,19.8,63.8z M20.2,65.5c-0.1,0.3-0.1,0.5-0.2,0.7l-0.3-0.1c0.1-0.2,0.2-0.4,0.2-0.7L20.2,65.5z M20.7,63.2
	c-0.1,0.3-0.2,0.6-0.4,0.8c0.1,0,0.2,0,0.3,0c0.1-0.2,0.2-0.3,0.3-0.5l0.3,0.1v-0.2h0.6c-0.1-0.1-0.1-0.2-0.2-0.4H22
	c0.1,0.1,0.1,0.3,0.2,0.4h0.5v0.4h-1.6v-0.1c-0.2,0.5-0.4,0.8-0.6,1.2c0.1,0,0.2,0,0.3-0.1c0-0.1,0-0.1,0-0.2l0.3-0.1
	c0.1,0.2,0.1,0.5,0.2,0.8L21,65.4c0-0.1,0-0.1,0-0.2c-0.3,0.1-0.6,0.1-1.1,0.2V65c0.1,0,0.2,0,0.3,0c0.1-0.2,0.3-0.3,0.4-0.5
	c-0.2,0-0.4,0-0.6,0.1v-0.4h0.2c0.1-0.2,0.3-0.6,0.4-1H20.7z M23.8,66.4v1.1h-3.2l-0.1,0.3H24c0,0.5-0.1,0.9-0.2,1
	C23.7,69,23.4,69,23,69h-1.1l-0.1-0.5c0.5,0,0.9,0,1.2,0c0.1,0,0.3,0,0.3-0.1c0.1-0.1,0.1-0.2,0.1-0.3h-3.5l0.2-1.1h3.2v-0.3h-3.4
	v-0.4L23.8,66.4L23.8,66.4z M20.7,66.2h-0.3c0-0.3,0-0.5-0.1-0.7h0.3C20.6,65.6,20.6,65.9,20.7,66.2z M21.2,66.1l-0.3,0.1
	c0-0.2-0.1-0.5-0.2-0.7l0.3-0.1C21.1,65.6,21.1,65.8,21.2,66.1z M22.5,64.1v0.3h-1.3v-0.3H22.5z M22.5,64.6v0.3h-1.3v-0.3H22.5z
	 M22.5,65.1v1h-1.2v-1H22.5z M22.1,65.5h-0.5v0.3h0.5V65.5z M23.1,65.5c0,0.3-0.1,0.5-0.2,0.8l-0.3-0.1c0.1-0.2,0.1-0.4,0.2-0.7
	H23.1z M23.6,63.2c-0.1,0.3-0.2,0.6-0.4,0.8c0.1,0,0.2,0,0.3,0c0.1-0.1,0.1-0.3,0.2-0.4l0.4,0.2c-0.3,0.5-0.5,0.8-0.8,1.1
	c0.2,0,0.3,0,0.4,0c0-0.1-0.1-0.2-0.1-0.3l0.3-0.1c0.1,0.2,0.2,0.5,0.2,0.8l-0.3,0.1c0-0.1,0-0.1,0-0.2c-0.3,0.1-0.6,0.1-1.2,0.1
	v-0.4c0.1,0,0.2,0,0.3,0c0.1-0.2,0.3-0.3,0.4-0.6c-0.2,0-0.4,0-0.6,0.1V64h0.2c0.1-0.2,0.3-0.6,0.4-1L23.6,63.2z M23.6,66.2h-0.4
	c0-0.3,0-0.5,0-0.7h0.3C23.6,65.6,23.6,65.9,23.6,66.2z M24.2,66.1l-0.4,0.1c0-0.2-0.1-0.5-0.1-0.7l0.3-0.1
	C24.1,65.6,24.1,65.8,24.2,66.1z"/>
<path class="st0" d="M26.9,64.7c0-0.3,0.1-0.7,0.1-1.2v-0.4h0.6v0.4c0,0.4,0,0.8-0.1,1.2H30v0.6h-1.8c0.1,0.7,0.3,1.2,0.6,1.6
	c0.3,0.5,0.8,1,1.4,1.3l-0.4,0.6c-0.7-0.5-1.2-1-1.5-1.6c-0.3-0.5-0.5-1.2-0.7-1.9h-0.2c-0.1,0.4-0.2,0.8-0.4,1.2
	c-0.3,0.8-1,1.6-1.9,2.4l-0.5-0.5c0.9-0.6,1.5-1.3,1.8-2.1c0.1-0.3,0.2-0.6,0.3-1h-2v-0.6H26.9z"/>
<path class="st0" d="M32.7,63.6c-0.2,0-0.6,0.1-1,0.1V64h1v0.4h-1v0.3h1v0.5h-1v0.4h3.8v-0.4h-0.9v-0.5h0.9v-0.3h-0.9V64h0.9v-0.4
	h-1v-0.5H36v2.4h0.3v1.3h-0.6V66h-4.3v0.8h-0.6v-1.3H31v-2.3c0.4,0,0.9-0.1,1.4-0.2L32.7,63.6z M35.4,66.5V67
	c-0.4,0.2-0.9,0.4-1.4,0.6h2.3v0.5H34v0.6c0,0.1,0,0.2-0.1,0.3c-0.1,0.1-0.2,0.1-0.3,0.1h-0.9l-0.1-0.5c0.2,0,0.4,0,0.7,0
	c0.1,0,0.2,0,0.2-0.1V68H31v-0.5h2.4v-0.2c0.3-0.1,0.7-0.2,1.1-0.3h-2.6v-0.5H35.4z M34.4,63.4c-0.1,0.1-0.3,0.3-0.4,0.4
	c0.1,0.1,0.2,0.2,0.3,0.2L34,64.3c-0.1-0.1-0.2-0.2-0.3-0.3c-0.2,0.1-0.5,0.3-0.7,0.4L32.8,64c0.2-0.1,0.4-0.1,0.6-0.3
	c-0.1-0.1-0.3-0.2-0.4-0.3l0.3-0.3c0.2,0.1,0.4,0.2,0.5,0.3c0.1-0.1,0.3-0.2,0.4-0.3L34.4,63.4z M34.5,64.5
	c-0.2,0.2-0.3,0.3-0.4,0.4c0.1,0.1,0.2,0.2,0.3,0.3l-0.3,0.3c-0.1-0.1-0.3-0.2-0.4-0.4c-0.2,0.1-0.4,0.2-0.7,0.3L32.8,65
	c0.2-0.1,0.4-0.1,0.6-0.2c-0.1-0.1-0.3-0.2-0.4-0.3l0.3-0.3c0.2,0.1,0.3,0.2,0.5,0.3c0.2-0.1,0.3-0.2,0.4-0.4L34.5,64.5z"/>
<path class="st0" d="M39.3,65v-1.8H40V65h2.1v0.6H40v2.3h2.5v0.7H37v-0.7h2.3v-2.3h-2V65H39.3z"/>
<path class="st0" d="M45.5,64.3v-1.2h0.6v1.2h2.4v0.6h-1.9c0.2,0.5,0.4,0.9,0.7,1.3s0.7,0.9,1.2,1.3l-0.4,0.6
	c-0.6-0.5-1-1.1-1.4-1.7c-0.3-0.5-0.5-1-0.7-1.6v4.1h-0.6v-4.1c-0.2,0.6-0.4,1-0.6,1.3c-0.3,0.6-0.9,1.3-1.6,1.9l-0.3-0.6
	c0.5-0.5,0.9-1,1.3-1.4c0.2-0.3,0.4-0.8,0.6-1.2H43v-0.6L45.5,64.3L45.5,64.3z"/>
<path class="st0" d="M51.2,67.4c-0.4,0.5-0.9,1-1.6,1.4l-0.4-0.5c0.6-0.3,1.1-0.8,1.5-1.3L51.2,67.4z M54.5,63.7
	c-0.7,0.2-1.6,0.3-2.7,0.3c-0.2,0.3-0.4,0.6-0.7,0.9c0.5,0,0.9,0,1.4-0.1c0.2-0.2,0.5-0.5,0.7-0.7l0.5,0.3c-0.8,0.8-1.6,1.5-2.3,2
	c0.9,0,1.6-0.1,2.2-0.1c-0.1-0.2-0.3-0.5-0.4-0.7l0.4-0.3c0.4,0.7,0.8,1.2,1.1,1.7l-0.5,0.4c-0.1-0.2-0.2-0.4-0.3-0.6
	c-0.4,0.1-0.9,0.1-1.5,0.1v1.5c0,0.2-0.1,0.4-0.2,0.5s-0.3,0.2-0.6,0.2H51l-0.1-0.7c0.2,0,0.4,0.1,0.5,0.1c0.2,0,0.3-0.1,0.3-0.2V67
	c-0.6,0-1.3,0.1-2.1,0.1l-0.1-0.6c0.4,0,0.8,0,1.1,0c0.5-0.3,0.9-0.7,1.4-1.1c-0.6,0.1-1.4,0.1-2.2,0.2l-0.1-0.5c0.2,0,0.5,0,0.7,0
	c0.3-0.3,0.6-0.6,0.8-0.9c-0.5,0-1.1,0-1.7,0l-0.2-0.5c1.9,0,3.6-0.1,4.9-0.4L54.5,63.7z M54.7,68.3l-0.4,0.5
	c-0.3-0.4-0.8-0.9-1.5-1.4l0.4-0.4C53.8,67.4,54.3,67.8,54.7,68.3z"/>
<path class="st0" d="M57.5,63.4v0.5h-0.9c-0.1,0.5-0.2,1-0.3,1.4h1.1v3h-1.1v0.6h-0.5v-2.6c-0.1,0.2-0.2,0.3-0.3,0.5l-0.3-0.6
	c0.3-0.5,0.5-0.9,0.6-1.4c0.1-0.3,0.2-0.6,0.2-1h-0.6v-0.5L57.5,63.4L57.5,63.4z M56.9,67.8v-2h-0.6v2H56.9z M60.8,63.4v0.5h-0.6
	v1.5h0.7V66h-0.7v3h-0.6v-3h-0.8c0,0.5-0.1,1-0.2,1.4c-0.1,0.5-0.4,1-0.8,1.6l-0.5-0.4c0.3-0.4,0.6-0.9,0.7-1.3
	c0.1-0.3,0.1-0.7,0.2-1.2h-0.7v-0.6h0.7V64h-0.6v-0.5h3.2V63.4z M59.7,63.9h-0.8v1.5h0.8V63.9z"/>
<path class="st0" d="M63.9,64.6c-0.2,0.4-0.5,0.7-0.8,0.9c-0.3,0.2-0.8,0.4-1.4,0.5l-0.3-0.6c0.7-0.1,1.1-0.3,1.4-0.4
	c0.2-0.1,0.5-0.4,0.7-0.7L63.9,64.6z M63.7,66.4v-0.9h0.6v0.8v0.1h1.5l-0.1,1.5c0,0.2,0,0.3,0.1,0.3c0,0,0.1,0.1,0.2,0.1h0.4
	c0,0,0.1,0,0.1-0.1c0,0,0.1-0.4,0.1-1l0.6,0.2c-0.1,0.7-0.2,1.2-0.3,1.3s-0.3,0.2-0.5,0.2h-0.7c-0.1,0-0.3-0.1-0.4-0.2
	c-0.1-0.1-0.2-0.3-0.2-0.5l0.1-1.2h-0.9c-0.1,0.5-0.3,0.8-0.6,1.1c-0.4,0.4-1,0.7-1.9,0.9l-0.3-0.5c0.9-0.2,1.5-0.5,1.8-0.8
	c0.2-0.2,0.3-0.5,0.4-0.7H62v-0.5h1.7V66.4z M64.4,63.6h2.3v1.3h-0.6v-0.8h-1v1c0,0.2,0.1,0.2,0.2,0.2h1.5v0.5h-1.7
	c-0.2,0-0.4,0-0.5-0.1s-0.2-0.2-0.2-0.4v-1.2H62v0.8h-0.6v-1.3h2.2c-0.1-0.2-0.2-0.3-0.3-0.5l0.6-0.1C64.3,63.3,64.4,63.4,64.4,63.6
	z"/>
<path class="st0" d="M70.4,63.7c-0.6,0.2-1.2,0.3-1.8,0.3v0.6h1.5v2.1h-1.5c0,0.3-0.1,0.7-0.1,1c-0.1,0.4-0.2,0.9-0.4,1.3l-0.4-0.5
	c0.1-0.3,0.2-0.7,0.3-1c0.1-0.4,0.1-0.8,0.1-1.3v-2.7c0.8,0,1.5-0.1,2.1-0.4L70.4,63.7z M69.5,66.2v-1h-1v1H69.5z M73.2,63.7
	c-0.6,0.2-1.4,0.3-2.1,0.3v1.1h2.2v0.6h-0.6V69H72v-3.3h-1v0.7c0,0.4-0.1,0.9-0.2,1.4c-0.1,0.4-0.3,0.8-0.6,1.2l-0.4-0.5
	c0.2-0.3,0.4-0.6,0.5-0.9c0.1-0.3,0.1-0.7,0.2-1.2v-2.9c1,0,1.8-0.1,2.4-0.4L73.2,63.7z"/>
<path class="st0" d="M1.1,76.3c0,0.6-0.1,1.1-0.2,1.6l-0.6-0.2c0.1-0.4,0.3-0.9,0.3-1.4H1.1z M2.1,72.1c-0.2,0.6-0.5,1.1-0.7,1.5
	c0.2,0,0.4,0,0.6-0.1c0.1-0.3,0.3-0.6,0.4-0.9l0.5,0.2c-0.5,1-1,1.9-1.5,2.5c0.3,0,0.6-0.1,0.9-0.1c-0.1-0.2-0.1-0.4-0.2-0.7
	l0.5-0.2c0.1,0.4,0.3,0.9,0.4,1.4l-0.5,0.1c0-0.1,0-0.2-0.1-0.3c-0.5,0.1-1.1,0.2-1.8,0.3l-0.2-0.5c0.1,0,0.3,0,0.4,0
	c0.3-0.4,0.6-0.8,0.9-1.4C1.3,74,0.9,74,0.5,74.1l-0.1-0.5c0.1,0,0.2,0,0.4,0c0.3-0.5,0.6-1.1,0.8-1.8L2.1,72.1z M2,77.6H1.5
	c0-0.6-0.1-1-0.1-1.3h0.5C1.9,76.6,2,77,2,77.6z M3,77.3l-0.5,0.2c-0.1-0.4-0.2-0.9-0.3-1.3l0.4-0.1C2.8,76.5,2.9,76.9,3,77.3z
	 M4.4,72.7v-0.8H5v0.8h1.4v0.6H5v0.9h1.2v0.5H3.3v-0.5h1.2v-0.9H3v-0.6H4.4z M6.1,77.9H5.6v-0.3H3.9v0.3H3.3v-2.6h2.8V77.9z M5.5,77
	v-1.3H3.8V77H5.5z"/>
<path class="st0" d="M8,73.2V72h0.6v1.2h0.6v0.5H8.6v0.2c0.2,0.3,0.4,0.6,0.7,0.9L9,75.3c-0.1-0.3-0.2-0.5-0.3-0.7v3.2H8v-3
	c-0.2,0.4-0.3,0.8-0.5,1.1l-0.3-0.7c0.3-0.5,0.5-1,0.7-1.6H7.2v-0.5L8,73.2L8,73.2z M10,72.4v-0.5h0.6v0.5h1.1v-0.5h0.6v0.5h0.9v0.5
	h-0.9v0.3H13v0.4h-0.7V74h1v0.5h-1.8v0.3h1.4v1.6h0.4v0.5h-0.4v0.5c0,0.2-0.1,0.3-0.2,0.4s-0.2,0.1-0.4,0.1h-0.8l-0.1-0.5h0.7
	c0.1,0,0.2-0.1,0.2-0.2v-0.4H10v1.1H9.5v-1.1H9v-0.5h0.5v-1.6h1.4v-0.3H9.2V74H10v-0.4H9.4v-0.4H10v-0.3H9.2v-0.5H10z M10.8,75.5
	v-0.3H10v0.3H10.8z M10.8,76.3V76H10v0.3H10.8z M11.6,72.9h-1.1v0.3h1.1V72.9z M11.6,74v-0.4h-1.1V74H11.6z M11.4,75.5h0.9v-0.3
	h-0.9V75.5z M12.3,76.3V76h-0.9v0.3H12.3z"/>
<path class="st0" d="M15.8,72.1c-0.2,0.6-0.5,1.1-0.8,1.6c0.2,0,0.4-0.1,0.6-0.1c0.1-0.3,0.3-0.6,0.4-0.9l0.5,0.2
	c-0.5,1-1,1.8-1.5,2.4c0.4,0,0.7-0.1,0.9-0.1c-0.1-0.2-0.1-0.5-0.2-0.7l0.4-0.1c0.2,0.4,0.3,0.9,0.4,1.4L16,75.9
	c0-0.1,0-0.2-0.1-0.3c-0.5,0.1-1.1,0.2-1.9,0.3l-0.2-0.6c0.1,0,0.3,0,0.4,0c0.3-0.3,0.6-0.7,0.8-1.2c-0.4,0.1-0.7,0.2-1.2,0.2
	l-0.1-0.5c0.1,0,0.3,0,0.4,0c0.3-0.5,0.6-1.2,0.8-1.8L15.8,72.1z M14.9,76.2c0,0.6-0.1,1.2-0.2,1.6l-0.5-0.2c0.1-0.5,0.2-1,0.3-1.5
	L14.9,76.2z M15.8,77.6h-0.5c0-0.6,0-1.1-0.1-1.4l0.4-0.1C15.7,76.5,15.7,77,15.8,77.6z M16.6,77l-0.5,0.1c-0.1-0.4-0.2-0.7-0.3-1
	l0.4-0.1C16.4,76.3,16.5,76.6,16.6,77z M19.6,77.1H20v0.5h-3.5v-0.5h0.4v-4.9h2.6v4.9H19.6z M19,73.9v-1.1h-1.5v1.1H19z M19,75.5
	v-1.1h-1.5v1.1H19z M19,77.1V76h-1.5v1.1H19z"/>
<path class="st0" d="M21.9,75.3v-0.8h0.8v0.8H21.9z"/>
<path class="st0" d="M26.9,72.2v0.5H26c-0.1,0.5-0.2,1-0.3,1.3h1.1v3h-1v0.6h-0.5v-2.7c-0.1,0.2-0.2,0.3-0.3,0.5l-0.3-0.5
	c0.3-0.5,0.5-0.9,0.7-1.3c0.1-0.2,0.2-0.6,0.2-1h-0.7v-0.5L26.9,72.2L26.9,72.2z M26.3,76.6v-2h-0.5v2H26.3z M28.5,77
	c-0.4,0.3-0.8,0.6-1.4,0.9l-0.4-0.5c0.5-0.2,0.9-0.5,1.3-0.8L28.5,77z M30.6,72.1v0.5h-1.5c0,0.2-0.1,0.3-0.2,0.5h1.4v3.4h-3.1v-3.4
	h1.1c0.1-0.2,0.1-0.3,0.2-0.5h-1.3v-0.5H30.6z M29.8,74.1v-0.5h-2v0.5H29.8z M29.8,75.1v-0.5h-2v0.5H29.8z M29.8,75.6h-2v0.5h2V75.6
	z M30.6,77.4l-0.3,0.5c-0.5-0.3-0.9-0.6-1.4-0.8l0.3-0.4C29.7,76.9,30.2,77.1,30.6,77.4z"/>
<path class="st0" d="M34.1,73.9V72h0.7v1.9h2.6v0.6h-2.6V77h2.3v0.6h-5.2V77h2.3v-2.5h-2.5v-0.6H34.1z"/>
<path class="st1" d="M3.9,6.6H1.5v0.7H0.7V0.8h3.2V6.6z M3,3.3V1.6H1.4v1.7H3z M3,5.8V4H1.4v1.8H3z M4.7,0.6h3.9v6.9
	c0,0.3-0.1,0.5-0.2,0.7C8.3,8.3,8.1,8.4,7.8,8.4H6.3L6.1,7.6l1.3,0.1c0.2,0,0.3-0.1,0.3-0.3V5.8H5.4C5.3,6.1,5.2,6.4,5.1,6.7
	C4.8,7.3,4.3,8,3.5,8.7L2.7,8.1c0.7-0.5,1.2-1,1.5-1.6C4.4,6,4.6,5.3,4.6,4.3V3.7L4.7,0.6L4.7,0.6z M7.7,4.9V3.5H5.6v0.6
	c0,0.3,0,0.5,0,0.8H7.7z M7.7,2.7V1.4H5.6v1.3H7.7z"/>
<path class="st1" d="M17.7,8.5h-0.9V7.8h-4.6v0.6h-0.9V0.6h6.5L17.7,8.5L17.7,8.5z M16.8,3.7V1.5h-4.6v2.2H16.8z M16.8,7V4.6h-4.6V7
	H16.8z"/>
<path class="st1" d="M23,7.6h-0.8V7H21v0.9h-0.8V1H23V7.6z M22.2,3.6V1.7H21v1.9H22.2z M22.2,6.2V4.4H21v1.8H22.2z M25.4,1.2V0.4
	h0.8v0.8h2V2h-2v0.9h2.3v0.8h-0.9v0.9h1v0.8h-1v2.1c0,0.3-0.1,0.5-0.2,0.7c-0.1,0.1-0.4,0.2-0.7,0.2h-1.2l-0.2-0.9
	c0.5,0.1,0.8,0.1,1.1,0.1c0.2,0,0.3-0.1,0.3-0.2v-2h-3.6V4.6h3.6V3.7h-3.5V2.9h2.2V2h-2V1.2H25.4z M25.8,6.9L25,7.5
	c-0.3-0.4-0.7-0.9-1.3-1.4l0.7-0.4C25,6.1,25.4,6.5,25.8,6.9z"/>
<path class="st1" d="M34.6,0.3v3.2h3.6v0.7h-2.7v3c0,0.2,0.1,0.3,0.3,0.3H37c0.1,0,0.2,0,0.3-0.2c0.1-0.1,0.1-0.6,0.1-1.4l0.9,0.2
	c-0.1,1-0.2,1.6-0.4,1.8c-0.1,0.2-0.4,0.3-0.8,0.3h-1.6c-0.3,0-0.5-0.1-0.7-0.2c-0.2-0.2-0.2-0.3-0.2-0.6V4.1h-1.3
	c-0.1,1.1-0.3,2-0.7,2.5c-0.4,0.6-1.2,1.2-2.2,1.7l-0.6-0.8c1-0.4,1.6-0.8,2-1.3c0.3-0.4,0.6-1.1,0.6-2.1H30V3.4h3.7V0.2L34.6,0.3
	L34.6,0.3z M32.7,2.8l-0.9,0.4c-0.3-0.7-0.7-1.4-1-2l0.9-0.3C32.1,1.5,32.4,2.1,32.7,2.8z M37.5,1.2c-0.3,0.7-0.6,1.4-1.1,2
	l-0.9-0.4c0.4-0.7,0.8-1.3,1.1-2L37.5,1.2z"/>
<path class="st1" d="M4.4,13.9c-0.4,0.2-1,0.3-1.6,0.4v0.8h1.4v0.7H2.8v0.8h1.5v0.7H2.8v0.1c0.5,0.4,1,0.8,1.5,1.3l-0.5,0.7
	c-0.4-0.5-0.7-0.8-1-1.1v2.8H2v-2.7c0,0.1-0.1,0.2-0.1,0.3c-0.3,0.6-0.7,1.2-1.1,1.6l-0.4-0.9c0.6-0.6,1-1.2,1.4-1.9H0.4v-0.7H2V16
	H0.6v-0.7H2v-0.7c-0.4,0-0.9,0-1.3,0l-0.2-0.7c0.5,0,1.1,0,1.5-0.1v-0.9h0.8v0.8c0.4-0.1,0.8-0.2,1.2-0.3L4.4,13.9z M5.3,14.5v-1.7
	h0.8v1.7h1.3v-1.7h0.8v1.7h0.7v0.8H8.2V17h0.9v0.8H8.2V21H7.4v-3.2H6.1C6,18.3,6,18.7,5.8,19.1c-0.2,0.6-0.6,1.2-1.3,1.7l-0.7-0.6
	c0.5-0.4,0.9-0.9,1.2-1.4c0.1-0.3,0.2-0.6,0.3-1H4.5V17h0.9v-1.7H4.6v-0.8H5.3z M7.4,15.3H6.1V17h1.3V15.3z"/>
<path class="st1" d="M14.4,14c-0.5,0.1-1,0.2-1.6,0.3V15h1.4v0.7h-1.4v0.8h1.6v0.7h-1.6c0.5,0.5,1.1,1,1.6,1.5l-0.5,0.7
	c-0.5-0.6-0.8-1-1.1-1.3v2.8H12v-2.8c-0.1,0.1-0.1,0.2-0.2,0.3C11.4,19,11,19.6,10.5,20l-0.3-0.9c0.7-0.6,1.2-1.3,1.7-2h-1.6v-0.7
	H12v-0.8h-1.5v-0.7H12v-0.7c-0.5,0-1,0-1.5,0l-0.2-0.7c0.6,0,1.2,0,1.7-0.1v-0.9h0.8v0.8c0.4-0.1,0.9-0.1,1.2-0.2L14.4,14z
	 M18.9,15.7v0.8h-2.4c-0.2,1.1-0.5,2.2-0.9,3.3c0.6,0,1.3-0.1,2-0.2c-0.2-0.6-0.5-1.2-0.7-1.7l0.8-0.2c0.4,1,0.8,2,1.2,3.1l-0.8,0.3
	c-0.1-0.2-0.1-0.5-0.2-0.7c-1.1,0.1-2.4,0.2-3.7,0.3l-0.1-0.8c0.2,0,0.4,0,0.7,0c0.4-1,0.8-2.1,1-3.3h-1.3v-0.8h4.4V15.7z
	 M18.5,13.4v0.8h-3.7v-0.8H18.5z"/>
<path class="st1" d="M27.4,14.8v0.7h-2c-0.3,0.2-0.5,0.4-0.8,0.5c0.3,0.4,0.6,0.8,0.7,1.2c0.7-0.3,1.3-0.7,2-1.3l0.7,0.6
	c-0.4,0.3-0.8,0.6-1.3,0.9c0.2,0.5,0.5,0.9,0.8,1.3c0.3,0.4,0.7,0.8,1.2,1.2l-0.6,0.7c-0.6-0.5-1.1-1-1.4-1.6
	c-0.3-0.4-0.5-0.8-0.7-1.3c-0.1,0.1-0.3,0.1-0.4,0.2c0.1,0.4,0.1,0.8,0.1,1.1c0,0.7-0.1,1.1-0.3,1.4c-0.2,0.3-0.9,0.5-2,0.5L23.1,20
	c0,0,0.2,0.1,0.5,0.1c0.5,0,0.8-0.1,0.9-0.2c0.1-0.2,0.2-0.5,0.2-0.9c0-0.1,0-0.3,0-0.4c-0.5,0.4-1,0.7-1.4,0.9
	c-0.7,0.3-1.5,0.7-2.6,1l-0.5-0.8c1-0.3,1.9-0.6,2.7-0.9c0.6-0.3,1.2-0.6,1.6-1c0-0.1,0-0.2-0.1-0.2c0-0.1-0.1-0.2-0.1-0.2
	c-0.5,0.3-1,0.6-1.4,0.8c-0.6,0.3-1.4,0.5-2.3,0.8l-0.4-0.7c0.9-0.2,1.7-0.4,2.4-0.7c0.5-0.2,1-0.4,1.4-0.7
	c-0.1-0.1-0.1-0.2-0.2-0.3C23,16.9,22,17.2,21,17.5l-0.5-0.7c1.2-0.2,2.1-0.4,2.7-0.7c0.3-0.1,0.5-0.2,0.8-0.3h-2.6v-0.7h6V14.8z
	 M24.8,13.5h3.7v1.8h-0.8v-1h-6.4v1h-0.8v-1.8H24c-0.1-0.2-0.2-0.4-0.3-0.5l1-0.1C24.6,13,24.7,13.2,24.8,13.5z"/>
</svg>
