<svg width="274" height="122" viewBox="0 0 274 122" fill="none" xmlns="http://www.w3.org/2000/svg">
<path d="M0.599976 71.6L15.2 39.1L30.1 71.6H24.7L21.9 65.5H5.49998L2.69997 71.6H0.599976ZM6.29998 63.8H21.1L13.6 47.5L6.29998 63.8Z" fill="#C9A063"/>
<path d="M55.5 70V71.7H35V43.7C35 41.8 33.8 40.2 31.1 39.4V39.2H55.5V40.9H39.9V53.8H52.9V55.8H39.9V70H55.5Z" fill="#C9A063"/>
<path d="M79.9 63.4C79.9 66.8 77.4 72.4 69.7 72.4C63.6 72.4 59.7 69.8 58.8 63.1H60.3C61.3 69.2 66.3 70.5 69.3 70.5C74.5 70.5 75.7 66.9 75.7 65.3C75.7 61.9 72.9 60 67.6 57.3C64.2 55.6 58.5 52.7 58.5 47.2C58.5 40.1 65.5 38.7 68 38.7C74.2 38.7 76.8 42 77.7 46.6H76C75.3 44.2 73.6 40.5 68 40.5C65.2 40.5 62.3 42.7 62.3 45.5C62.3 48.8 66.2 50.9 70.3 53C78 56.7 79.9 59.5 79.9 63.4Z" fill="#C9A063"/>
<path d="M107.9 41.2H97.2V71.7H92.3V41.2H81.5V39.2H107.9V41.2Z" fill="#C9A063"/>
<path d="M145.9 71.4V71.6H139.6C138.2 71.5 137 70.4 137 68.9V55.9H120.7V71.6H115.8V43.6C115.8 41.7 114.6 40.1 112.8 39.6H112.7L111.9 39.4V39.2H118.1C118.9 39.2 119.5 39.5 120 40C120.4 40.5 120.8 41.2 120.8 41.9V54.4H137.1V39.3H142V67.3C142 69.2 143.2 70.8 145.1 71.4H145.2H145.9Z" fill="#C9A063"/>
<path d="M172.2 70V71.7H151.7V43.7C151.7 41.8 150.5 40.2 147.8 39.4V39.2H172.2V40.9H156.6V53.8H169.6V55.8H156.6V70H172.2Z" fill="#C9A063"/>
<path d="M202.6 41.2H191.9V71.7H187V41.2H176.2V39.2H202.6V41.2V41.2Z" fill="#C9A063"/>
<path d="M215 39.2V71.7H210.6V43.7C210.6 41.8 209.4 40.2 206.7 39.4V39.2H215V39.2Z" fill="#C9A063"/>
<path d="M248.4 65.7C248 66.5 244.4 72.4 235.2 72.4C225.3 72.4 219.5 64.9 219.5 55.5C219.5 46.2 225.3 38.6 235.2 38.6C244.6 38.6 248.1 44.8 248.5 45.4L247.4 46.5C237.2 34.3 225.1 42.4 225.1 55.5C225.1 67.6 237.2 76.8 247.3 64.6L248.4 65.7Z" fill="#C9A063"/>
<path d="M273.8 63.4C273.8 66.8 271.3 72.4 263.6 72.4C257.5 72.4 253.6 69.8 252.7 63.1H254.2C255.2 69.2 260.2 70.5 263.2 70.5C268.4 70.5 269.6 66.9 269.6 65.3C269.6 61.9 266.8 60 261.5 57.3C258.1 55.6 252.4 52.7 252.4 47.2C252.4 40.1 259.4 38.7 261.9 38.7C268.1 38.7 270.7 42 271.6 46.6H270C269.3 44.2 267.6 40.5 262 40.5C259.2 40.5 256.3 42.7 256.3 45.5C256.3 48.8 260.2 50.9 264.3 53C272 56.7 273.8 59.5 273.8 63.4Z" fill="#C9A063"/>
<path d="M88 104.6C88 116.4 81 121.5 72.3 121.5C63.6 121.5 56.6 116.4 56.6 104.6C56.6 93.2 63.6 87.7 72.3 87.7C81 87.7 88 93.1 88 104.6ZM82.7 104.6C82.7 94.2 78.1 89.2 72.4 89.2C66.7 89.2 62.1 94.3 62.1 104.6C62.1 115.3 66.8 120 72.4 120C78.1 120 82.7 115.3 82.7 104.6Z" fill="#C9A063"/>
<path d="M98.4 90.1V103H111.4V105H98.4V120.9H93.5V92.9C93.5 91 92.3 89.4 89.6 88.6V88.4H114V90.1H98.4Z" fill="#C9A063"/>
<path d="M153.4 118.9V120.9H132.5V92.9C132.5 91 131.3 89.4 128.6 88.6V88.4H136.9V118.9H153.4Z" fill="#C9A063"/>
<path d="M162.8 88.4V120.9H158.4V92.9C158.4 91 157.2 89.4 154.5 88.6V88.4H162.8Z" fill="#C9A063"/>
<path d="M174.6 90.1V103H187.6V105H174.6V120.9H169.7V92.9C169.7 91 168.5 89.4 165.8 88.6V88.4H190.2V90.1H174.6Z" fill="#C9A063"/>
<path d="M217.7 119.2V120.9H197.2V92.9C197.2 91 196 89.4 193.3 88.6V88.4H217.7V90.1H202.1V103H215.1V105H202.1V119.2H217.7Z" fill="#C9A063"/>
<path d="M127.1 5.8C127.1 6 127.1 6.1 127.1 6.3C127.1 6.5 127.1 6.6 127.1 6.8C127.1 7.5 126.9 8.2 126.6 8.8C126.2 9.4 125.7 10 125.1 10.5C124.5 11 123.7 11.4 122.8 11.7C121.9 12 120.9 12.1 119.9 12.1C118.3 12.1 117.2 11.8 116.4 11.1C115.6 10.4 115.2 9.6 115.2 8.5C115.2 7.6 115.5 6.8 116.1 5.9C116.7 5 117.8 4.2 119.2 3.4C120.6 2.7 122.5 2 124.9 1.5C127.3 1 130.2 0.800003 133.7 0.800003C134.8 0.800003 135.8 0.800002 136.6 0.900002C137.5 1 138.2 1 138.9 1C139.5 1 139.9 1 140.3 0.900002C140.7 0.800002 141 0.800003 141.3 0.800003C141.5 0.800003 141.7 0.9 141.9 1C142.1 1.1 142.2 1.3 142.2 1.6C142.2 1.8 142.1 1.9 142 2C141.9 2.1 141.7 2.2 141.4 2.2C141.1 2.2 140.8 2.3 140.3 2.3C139.8 2.3 139.3 2.3 138.6 2.3C137.3 2.3 136.1 2.5 135.2 3C134.3 3.4 133.5 4.1 132.7 5C131.9 5.9 131.1 7 130.3 8.3C129.5 9.6 128.4 11.2 127.2 12.9C126.8 13.5 126.2 14.2 125.6 14.9C125 15.7 124.2 16.4 123.3 17.1C122.4 17.8 121.4 18.3 120.3 18.8C119.2 19.3 117.9 19.5 116.5 19.5C116 19.5 115.4 19.4 114.8 19.3C114.2 19.2 113.7 19 113.2 18.7C112.7 18.4 112.3 18.1 112 17.7C111.7 17.3 111.5 16.8 111.5 16.1C111.5 15.7 111.6 15.4 111.9 15.1C112.1 14.8 112.5 14.7 112.9 14.7C113.2 14.7 113.5 14.8 113.7 15C113.9 15.2 114 15.4 114 15.7C114 16 113.9 16.2 113.7 16.3C113.5 16.5 113.3 16.5 113 16.5C112.9 16.5 112.8 16.5 112.7 16.4C112.8 17.3 113.2 17.9 114 18.3C114.8 18.7 115.7 19 116.8 19C117.9 19 118.9 18.8 119.8 18.3C120.7 17.9 121.5 17.3 122.3 16.5C123.1 15.8 123.8 14.9 124.5 14C125.2 13.1 125.9 12.1 126.6 11.1C127.3 10.1 128 9.1 128.7 8.1C129.4 7.1 130.1 6.2 130.9 5.4C131.7 4.6 132.5 3.9 133.4 3.3C134.3 2.7 135.2 2.3 136.3 2.2V2.1C135.4 2.1 134.5 2.1 133.5 2C132.5 1.9 131.5 1.9 130.7 1.9C128.3 1.9 126.1 2.1 124.3 2.4C122.4 2.7 120.9 3.2 119.6 3.8C118.3 4.4 117.3 5.1 116.7 5.8C116 6.6 115.7 7.4 115.7 8.3C115.7 9.4 116.1 10.2 116.9 10.7C117.7 11.2 118.8 11.5 120.2 11.5C121.2 11.5 122.1 11.4 122.9 11.1C123.7 10.8 124.4 10.5 125 10C125.6 9.5 126.1 9 126.4 8.4C126.7 7.8 126.9 7.2 126.9 6.6C126.9 6.4 126.9 6.3 126.9 6.1C126.9 5.9 126.9 5.7 126.9 5.6H127.1V5.8Z" fill="#C9A063"/>
<path d="M146.9 0.599998L136.7 14.6L136.8 14.7C137.2 14.3 137.6 13.7 138.2 13.2C138.7 12.6 139.3 12.1 139.9 11.6C140.5 11.1 141.1 10.7 141.8 10.3C142.5 9.9 143.1 9.8 143.8 9.8C145 9.8 145.6 10.3 145.6 11.4C145.6 11.7 145.5 12 145.3 12.4C145.1 12.8 144.8 13.2 144.5 13.6C144.2 14 143.8 14.5 143.4 14.9C143 15.3 142.7 15.8 142.3 16.2C142 16.6 141.7 17 141.5 17.4C141.3 17.8 141.2 18.1 141.2 18.3C141.2 18.5 141.3 18.7 141.4 18.8C141.5 18.9 141.7 19 141.9 19C142.3 19 142.8 18.9 143.4 18.6C143.9 18.3 144.5 18 145 17.6C145.6 17.2 146.1 16.7 146.7 16.2C147.3 15.7 147.8 15.2 148.2 14.7C148.7 14.2 149.1 13.7 149.5 13.3C149.9 12.8 150.1 12.5 150.3 12.2L150.5 12.3C150.3 12.6 150 13 149.6 13.5C149.2 14 148.8 14.5 148.3 15C147.8 15.5 147.3 16.1 146.7 16.6C146.1 17.1 145.6 17.6 145 18C144.4 18.4 143.9 18.8 143.3 19C142.7 19.3 142.2 19.4 141.7 19.4C141.2 19.4 140.8 19.3 140.5 19C140.2 18.7 140 18.3 140 17.8C140 17.4 140.1 17.1 140.3 16.6C140.5 16.2 140.8 15.7 141.1 15.3C141.4 14.9 141.8 14.4 142.2 14C142.6 13.6 142.9 13.2 143.3 12.8C143.6 12.4 143.9 12.1 144.1 11.7C144.3 11.4 144.4 11.1 144.4 10.9C144.4 10.6 144.3 10.4 144.1 10.3C143.9 10.2 143.7 10.1 143.5 10.1C143 10.1 142.5 10.3 141.9 10.6C141.3 10.9 140.7 11.4 140.1 11.9C139.5 12.4 138.9 13 138.2 13.7C137.6 14.4 137 15 136.5 15.7C136 16.4 135.5 17 135.1 17.6C134.7 18.2 134.4 18.7 134.1 19.1H132.2C133.3 17.6 134.3 16 135.5 14.4C136.6 12.8 137.7 11.2 138.8 9.7C139.9 8.1 141 6.6 142 5.1C143.1 3.6 144.1 2.1 145 0.699997L146.9 0.599998Z" fill="#C9A063"/>
<path d="M162.5 12.1C162.2 12.5 161.9 13 161.4 13.6C161 14.1 160.5 14.7 159.9 15.2C159.4 15.7 158.8 16.2 158.1 16.7C157.5 17.2 156.8 17.6 156.2 18C155.5 18.4 154.9 18.7 154.2 18.9C153.5 19.1 152.9 19.2 152.2 19.2C151.4 19.2 150.8 19 150.3 18.6C149.9 18.2 149.6 17.7 149.6 17C149.6 16.2 149.9 15.4 150.4 14.5C150.9 13.6 151.6 12.8 152.3 12.1C153.1 11.4 153.9 10.8 154.9 10.3C155.8 9.8 156.7 9.6 157.6 9.6C158.1 9.6 158.5 9.7 158.7 9.9C159 10.1 159.1 10.4 159.1 10.7C159.1 11.1 158.9 11.5 158.4 11.9C157.9 12.3 157.3 12.7 156.6 13C155.9 13.3 155.1 13.6 154.3 13.9C153.5 14.2 152.7 14.3 152.1 14.5C151.9 14.9 151.7 15.3 151.6 15.7C151.5 16.1 151.4 16.6 151.4 17C151.4 17.2 151.4 17.4 151.5 17.6C151.5 17.8 151.6 18 151.7 18.2C151.8 18.4 151.9 18.5 152.1 18.6C152.3 18.7 152.5 18.8 152.8 18.8C153.4 18.8 154.2 18.6 155 18.2C155.9 17.8 156.7 17.3 157.6 16.7C158.5 16.1 159.3 15.3 160.1 14.5C160.9 13.7 161.6 12.8 162.2 12L162.5 12.1ZM157.9 10.7C157.9 10.5 157.8 10.3 157.7 10.1C157.6 10 157.4 9.9 157.2 9.9C156.8 9.9 156.4 10 155.9 10.3C155.4 10.6 155 11 154.5 11.4C154 11.8 153.6 12.3 153.2 12.8C152.8 13.3 152.5 13.7 152.4 14.1C152.8 14 153.3 13.9 154 13.7C154.6 13.5 155.2 13.2 155.8 12.9C156.4 12.6 156.9 12.2 157.3 11.8C157.7 11.6 157.9 11.1 157.9 10.7Z" fill="#C9A063"/>
<path d="M127.1 5.8C127.1 6 127.1 6.1 127.1 6.3C127.1 6.5 127.1 6.6 127.1 6.8C127.1 7.5 126.9 8.2 126.6 8.8C126.2 9.4 125.7 10 125.1 10.5C124.5 11 123.7 11.4 122.8 11.7C121.9 12 120.9 12.1 119.9 12.1C118.3 12.1 117.2 11.8 116.4 11.1C115.6 10.4 115.2 9.6 115.2 8.5C115.2 7.6 115.5 6.8 116.1 5.9C116.7 5 117.8 4.2 119.2 3.4C120.6 2.7 122.5 2 124.9 1.5C127.3 1 130.2 0.800003 133.7 0.800003C134.8 0.800003 135.8 0.800002 136.6 0.900002C137.5 1 138.2 1 138.9 1C139.5 1 139.9 1 140.3 0.900002C140.7 0.800002 141 0.800003 141.3 0.800003C141.5 0.800003 141.7 0.9 141.9 1C142.1 1.1 142.2 1.3 142.2 1.6C142.2 1.8 142.1 1.9 142 2C141.9 2.1 141.7 2.2 141.4 2.2C141.1 2.2 140.8 2.3 140.3 2.3C139.8 2.3 139.3 2.3 138.6 2.3C137.3 2.3 136.1 2.5 135.2 3C134.3 3.4 133.5 4.1 132.7 5C131.9 5.9 131.1 7 130.3 8.3C129.5 9.6 128.4 11.2 127.2 12.9C126.8 13.5 126.2 14.2 125.6 14.9C125 15.7 124.2 16.4 123.3 17.1C122.4 17.8 121.4 18.3 120.3 18.8C119.2 19.3 117.9 19.5 116.5 19.5C116 19.5 115.4 19.4 114.8 19.3C114.2 19.2 113.7 19 113.2 18.7C112.7 18.4 112.3 18.1 112 17.7C111.7 17.3 111.5 16.8 111.5 16.1C111.5 15.7 111.6 15.4 111.9 15.1C112.1 14.8 112.5 14.7 112.9 14.7C113.2 14.7 113.5 14.8 113.7 15C113.9 15.2 114 15.4 114 15.7C114 16 113.9 16.2 113.7 16.3C113.5 16.5 113.3 16.5 113 16.5C112.9 16.5 112.8 16.5 112.7 16.4C112.8 17.3 113.2 17.9 114 18.3C114.8 18.7 115.7 19 116.8 19C117.9 19 118.9 18.8 119.8 18.3C120.7 17.9 121.5 17.3 122.3 16.5C123.1 15.8 123.8 14.9 124.5 14C125.2 13.1 125.9 12.1 126.6 11.1C127.3 10.1 128 9.1 128.7 8.1C129.4 7.1 130.1 6.2 130.9 5.4C131.7 4.6 132.5 3.9 133.4 3.3C134.3 2.7 135.2 2.3 136.3 2.2V2.1C135.4 2.1 134.5 2.1 133.5 2C132.5 1.9 131.5 1.9 130.7 1.9C128.3 1.9 126.1 2.1 124.3 2.4C122.4 2.7 120.9 3.2 119.6 3.8C118.3 4.4 117.3 5.1 116.7 5.8C116 6.6 115.7 7.4 115.7 8.3C115.7 9.4 116.1 10.2 116.9 10.7C117.7 11.2 118.8 11.5 120.2 11.5C121.2 11.5 122.1 11.4 122.9 11.1C123.7 10.8 124.4 10.5 125 10C125.6 9.5 126.1 9 126.4 8.4C126.7 7.8 126.9 7.2 126.9 6.6C126.9 6.4 126.9 6.3 126.9 6.1C126.9 5.9 126.9 5.7 126.9 5.6H127.1V5.8Z" fill="#D8B165"/>
<path d="M146.9 0.599998L136.7 14.6L136.8 14.7C137.2 14.3 137.6 13.7 138.2 13.2C138.7 12.6 139.3 12.1 139.9 11.6C140.5 11.1 141.1 10.7 141.8 10.3C142.5 9.9 143.1 9.8 143.8 9.8C145 9.8 145.6 10.3 145.6 11.4C145.6 11.7 145.5 12 145.3 12.4C145.1 12.8 144.8 13.2 144.5 13.6C144.2 14 143.8 14.5 143.4 14.9C143 15.3 142.7 15.8 142.3 16.2C142 16.6 141.7 17 141.5 17.4C141.3 17.8 141.2 18.1 141.2 18.3C141.2 18.5 141.3 18.7 141.4 18.8C141.5 18.9 141.7 19 141.9 19C142.3 19 142.8 18.9 143.4 18.6C143.9 18.3 144.5 18 145 17.6C145.6 17.2 146.1 16.7 146.7 16.2C147.3 15.7 147.8 15.2 148.2 14.7C148.7 14.2 149.1 13.7 149.5 13.3C149.9 12.8 150.1 12.5 150.3 12.2L150.5 12.3C150.3 12.6 150 13 149.6 13.5C149.2 14 148.8 14.5 148.3 15C147.8 15.5 147.3 16.1 146.7 16.6C146.1 17.1 145.6 17.6 145 18C144.4 18.4 143.9 18.8 143.3 19C142.7 19.3 142.2 19.4 141.7 19.4C141.2 19.4 140.8 19.3 140.5 19C140.2 18.7 140 18.3 140 17.8C140 17.4 140.1 17.1 140.3 16.6C140.5 16.2 140.8 15.7 141.1 15.3C141.4 14.9 141.8 14.4 142.2 14C142.6 13.6 142.9 13.2 143.3 12.8C143.6 12.4 143.9 12.1 144.1 11.7C144.3 11.4 144.4 11.1 144.4 10.9C144.4 10.6 144.3 10.4 144.1 10.3C143.9 10.2 143.7 10.1 143.5 10.1C143 10.1 142.5 10.3 141.9 10.6C141.3 10.9 140.7 11.4 140.1 11.9C139.5 12.4 138.9 13 138.2 13.7C137.6 14.4 137 15 136.5 15.7C136 16.4 135.5 17 135.1 17.6C134.7 18.2 134.4 18.7 134.1 19.1H132.2C133.3 17.6 134.3 16 135.5 14.4C136.6 12.8 137.7 11.2 138.8 9.7C139.9 8.1 141 6.6 142 5.1C143.1 3.6 144.1 2.1 145 0.699997L146.9 0.599998Z" fill="#D8B165"/>
<path d="M162.5 12.1C162.2 12.5 161.9 13 161.4 13.6C161 14.1 160.5 14.7 159.9 15.2C159.4 15.7 158.8 16.2 158.1 16.7C157.5 17.2 156.8 17.6 156.2 18C155.5 18.4 154.9 18.7 154.2 18.9C153.5 19.1 152.9 19.2 152.2 19.2C151.4 19.2 150.8 19 150.3 18.6C149.9 18.2 149.6 17.7 149.6 17C149.6 16.2 149.9 15.4 150.4 14.5C150.9 13.6 151.6 12.8 152.3 12.1C153.1 11.4 153.9 10.8 154.9 10.3C155.8 9.8 156.7 9.6 157.6 9.6C158.1 9.6 158.5 9.7 158.7 9.9C159 10.1 159.1 10.4 159.1 10.7C159.1 11.1 158.9 11.5 158.4 11.9C157.9 12.3 157.3 12.7 156.6 13C155.9 13.3 155.1 13.6 154.3 13.9C153.5 14.2 152.7 14.3 152.1 14.5C151.9 14.9 151.7 15.3 151.6 15.7C151.5 16.1 151.4 16.6 151.4 17C151.4 17.2 151.4 17.4 151.5 17.6C151.5 17.8 151.6 18 151.7 18.2C151.8 18.4 151.9 18.5 152.1 18.6C152.3 18.7 152.5 18.8 152.8 18.8C153.4 18.8 154.2 18.6 155 18.2C155.9 17.8 156.7 17.3 157.6 16.7C158.5 16.1 159.3 15.3 160.1 14.5C160.9 13.7 161.6 12.8 162.2 12L162.5 12.1ZM157.9 10.7C157.9 10.5 157.8 10.3 157.7 10.1C157.6 10 157.4 9.9 157.2 9.9C156.8 9.9 156.4 10 155.9 10.3C155.4 10.6 155 11 154.5 11.4C154 11.8 153.6 12.3 153.2 12.8C152.8 13.3 152.5 13.7 152.4 14.1C152.8 14 153.3 13.9 154 13.7C154.6 13.5 155.2 13.2 155.8 12.9C156.4 12.6 156.9 12.2 157.3 11.8C157.7 11.6 157.9 11.1 157.9 10.7Z" fill="#D8B165"/>
</svg>
