<?xml version="1.0" encoding="utf-8"?>
<!-- Generator: Adobe Illustrator 25.2.3, SVG Export Plug-In . SVG Version: 6.00 Build 0)  -->
<svg version="1.1" id="圖層_1" xmlns="http://www.w3.org/2000/svg" xmlns:xlink="http://www.w3.org/1999/xlink" x="0px" y="0px"
	 viewBox="0 0 90 79" style="enable-background:new 0 0 90 79;" xml:space="preserve">
<style type="text/css">
	.st0{fill:#3E3A39;}
	.st1{fill:#C9A063;}
</style>
<path class="st0" d="M1.1,44.3v-0.5h2.3c0.4,0.7,1.3,1.3,2.6,1.9l-0.4,0.6c-0.2-0.1-0.4-0.2-0.5-0.3v0.4H3.3v1H5v0.5H3.3V49h2.5v0.5
	H0.2V49h2.4v-1.1H1v-0.5h1.7v-1H1V46c-0.2,0.1-0.3,0.2-0.5,0.2l-0.4-0.6c0.7-0.3,1.2-0.5,1.6-0.8c0.3-0.2,0.5-0.4,0.7-0.6H1.1V44.3z
	 M4.8,45.8c-0.3-0.2-0.5-0.3-0.7-0.5C3.6,45,3.3,44.6,3,44.2c-0.2,0.3-0.4,0.6-0.6,0.8c-0.3,0.3-0.7,0.5-1.1,0.8H4.8z"/>
<path class="st0" d="M9.6,43.9c-0.4,0.8-0.8,1.4-1.3,1.9c0.1,0,0.2,0,0.3,0c1,0,1.9-0.1,2.9-0.2c-0.2-0.3-0.5-0.6-0.8-1l0.5-0.4
	c0.6,0.7,1.1,1.3,1.5,2l-0.5,0.5c-0.1-0.2-0.2-0.4-0.3-0.5c-1.3,0.2-2.8,0.3-4.7,0.3l-0.1-0.7c0.2,0,0.4,0,0.6,0.1
	c0.4-0.5,0.8-1.2,1.3-2.1L9.6,43.9z M12.2,49.6h-0.6v-0.4H8.2v0.4H7.6v-2.7h4.7v2.7H12.2z M11.6,48.7v-1.2H8.2v1.2H11.6z"/>
<path class="st0" d="M16.3,45.8v-2.1H17v2.1h2.6v0.6H17v3.2h-0.7v-3.2h-2.6v-0.6H16.3z"/>
<path class="st0" d="M22.9,45.4c0-0.3,0.1-0.7,0.1-1.2v-0.4h0.7v0.4c0,0.4,0,0.8-0.1,1.2h2.7V46h-1.9c0.1,0.7,0.3,1.2,0.6,1.6
	c0.4,0.5,0.8,1,1.4,1.3L26,49.5c-0.7-0.5-1.2-1-1.6-1.6c-0.3-0.5-0.6-1.2-0.7-1.9h-0.2c-0.1,0.4-0.2,0.8-0.4,1.2
	c-0.3,0.8-1,1.6-2,2.4l-0.6-0.5c0.9-0.6,1.6-1.3,1.9-2.1c0.1-0.3,0.3-0.6,0.3-1h-2.2v-0.6H22.9z"/>
<path class="st0" d="M30.7,44.2v-0.5h0.6v0.5h1.5v0.9h0.4v0.5h-0.4v1h-1.5V47h1.6v0.5h-1.6V48h1.9v0.5h-1.9V49c0.1,0,0.2,0,0.3,0
	c0.8,0,1.3,0,1.7,0l-0.1,0.7c-2,0-3.2,0-3.7-0.1c-0.4-0.1-0.7-0.3-0.9-0.5c0,0-0.1,0-0.1-0.1c-0.2,0.3-0.5,0.5-0.8,0.8l-0.3-0.6
	c0.3-0.2,0.6-0.5,0.8-0.7c-0.2-0.3-0.4-0.8-0.6-1.3l0.5-0.2c0.1,0.4,0.3,0.7,0.4,0.9v-0.1c0.1-0.3,0.1-0.7,0.2-1.2h-1.1V46
	c0.4-0.5,0.7-1,1.1-1.5h-1.2V44h1.8v0.6c-0.4,0.6-0.7,1.1-1,1.4h1c0,0.7-0.1,1.3-0.2,1.7c-0.1,0.2-0.1,0.4-0.2,0.6
	c0.2,0.2,0.4,0.3,0.7,0.4c0.2,0.1,0.7,0.1,1.2,0.2v-0.5h-1.5v-0.5h1.5v-0.5h-1.3v-0.5h1.3v-0.4h-1.2V46h1.2v-0.5h-1.5V45h1.5v-0.5
	h-1.2V44h1.1V44.2z M31.3,45.1h1v-0.5h-1V45.1z M31.3,46.1h1v-0.5h-1V46.1z"/>
<path class="st0" d="M35.7,43.8c-0.1,0.1-0.1,0.2-0.2,0.4h1.6v0.5c0.3-0.3,0.5-0.6,0.6-1l0.6,0.1c-0.1,0.1-0.1,0.3-0.2,0.4H40v0.5
	h-1.1c0.1,0.2,0.1,0.3,0.2,0.5l-0.6,0.1c0-0.2-0.1-0.4-0.1-0.5h-0.6c-0.1,0.2-0.3,0.4-0.5,0.6l-0.5-0.3C36.9,45,37,45,37,44.9h-0.9
	c0.1,0.1,0.1,0.3,0.2,0.5l-0.6,0.1c0-0.2-0.1-0.3-0.1-0.5h-0.5c-0.2,0.2-0.3,0.4-0.5,0.6l-0.5-0.3c0.5-0.4,0.8-0.8,1-1.2L35.7,43.8z
	 M36.9,47.5v-0.3L36.6,47c0.3-0.1,0.5-0.2,0.7-0.3c-0.2-0.1-0.3-0.1-0.5-0.2l0.3-0.4c0.2,0.1,0.3,0.1,0.5,0.2c0-0.1,0-0.1,0-0.2
	v-0.2H37v-0.5h2.3v1.3c0,0.1,0.1,0.2,0.2,0.2s0.1,0,0.1-0.1c0,0,0.1-0.2,0.1-0.5l0.5,0.2c0,0.4-0.1,0.7-0.2,0.8
	c-0.1,0.1-0.2,0.1-0.4,0.1h-0.3c-0.2,0-0.3,0-0.4-0.1c-0.1-0.1-0.1-0.2-0.1-0.4v-1h-0.6v0.2c0,0.1,0,0.3-0.1,0.4
	c0.2,0.1,0.4,0.2,0.6,0.3l-0.3,0.5c-0.2-0.1-0.4-0.2-0.6-0.3c-0.1,0.1-0.3,0.2-0.4,0.3h0.1v0.3h2.6v0.5h-2c0.2,0.2,0.4,0.3,0.6,0.4
	c0.3,0.2,0.8,0.3,1.3,0.5l-0.3,0.5c-0.7-0.2-1.2-0.5-1.5-0.7c-0.3-0.2-0.5-0.4-0.8-0.7v1.6h-0.6V48c-0.2,0.2-0.4,0.5-0.7,0.6
	c-0.4,0.3-1,0.6-1.7,0.8l-0.3-0.5c0.8-0.2,1.3-0.4,1.6-0.6c0.2-0.1,0.3-0.2,0.4-0.3H34v-0.5H36.9z M36.7,45.4v0.5h-0.9v0.6
	c0.3-0.1,0.6-0.1,0.9-0.2v0.5c-0.7,0.2-1.5,0.3-2.4,0.5l-0.1-0.6c0.4,0,0.7-0.1,1.1-0.1v-0.7h-0.9v-0.5H36.7z"/>
<path class="st0" d="M42.9,43.8c-0.1,0.2-0.1,0.4-0.2,0.6h0.8v2h-1.6v0.7h1.8v2.5H43v-0.4h-1.2v0.4h-0.6v-5.2H42
	c0.1-0.2,0.2-0.4,0.2-0.6H42.9z M42.9,45.8v-1h-1.1v1H42.9z M43,48.6v-1h-1.2v1H43z M47,44v0.6h-1.3v0.7h1.1v3.3
	c0,0.2,0,0.3-0.1,0.4c-0.1,0.1-0.2,0.2-0.4,0.2h-0.4l-0.1-0.6h0.3c0.1,0,0.1-0.1,0.1-0.2v-2.6h-0.6v3.8H45v-3.8h-0.6v3.3h-0.6v-3.9
	h1.1v-0.7h-1.4V44H47z"/>
<path class="st0" d="M2.1,55c-0.2,0-0.6,0.1-1.1,0.1v0.3h1v0.4H1v0.3h1v0.5H1V57h4.1v-0.4h-1v-0.5h1v-0.3h-1v-0.4h1V55h-1v-0.5h1.6
	v2.4H6v1.3H5.4v-0.8H0.9v0.8H0.3V57h0.3v-2.3c0.5,0,0.9-0.1,1.4-0.2L2.1,55z M4.9,57.9v0.5C4.5,58.6,4,58.8,3.4,59h2.4v0.5H3.4v0.6
	c0,0.1,0,0.2-0.1,0.3c-0.1,0.1-0.2,0.1-0.3,0.1H2L1.9,60c0.2,0,0.5,0,0.7,0c0.1,0,0.2,0,0.2-0.1v-0.4H0.3V59h2.5v-0.2
	c0.4-0.1,0.7-0.2,1.2-0.3H1.3V58h3.6V57.9z M3.9,54.7c-0.1,0.1-0.3,0.3-0.4,0.4c0.1,0.1,0.2,0.2,0.3,0.2l-0.3,0.3
	c-0.1-0.1-0.2-0.2-0.3-0.3c-0.2,0.1-0.5,0.3-0.8,0.4l-0.3-0.4c0.2-0.1,0.4-0.1,0.7-0.3c-0.1-0.1-0.3-0.2-0.5-0.3l0.3-0.3
	c0.2,0.1,0.4,0.2,0.5,0.3c0.1-0.1,0.3-0.2,0.4-0.3L3.9,54.7z M4,55.9c-0.2,0.2-0.3,0.3-0.5,0.4c0.1,0.1,0.3,0.2,0.4,0.3l-0.3,0.3
	c-0.1-0.1-0.3-0.2-0.4-0.4c-0.2,0.1-0.4,0.2-0.7,0.3l-0.3-0.4c0.2-0.1,0.4-0.1,0.6-0.2c-0.1-0.1-0.3-0.2-0.4-0.3l0.3-0.3
	c0.2,0.1,0.3,0.2,0.5,0.3c0.2-0.1,0.3-0.2,0.5-0.4L4,55.9z"/>
<path class="st0" d="M12.7,55.1H7.8v2.2c0,0.5,0,0.9-0.1,1.4s-0.2,1-0.4,1.5l-0.5-0.5c0.2-0.4,0.3-0.8,0.3-1.2
	c0-0.4,0.1-0.9,0.1-1.2v-2.7h5.4L12.7,55.1L12.7,55.1z M10.7,58.3v0.4h1.7v0.5h-1.7v0.5h2.1v0.5H7.9v-0.5h0.8v-1.1h0.6v1.1h0.8v-1.4
	H10.7z M10.3,55.7c-0.2,0.1-0.5,0.1-0.8,0.1v0.4h0.7v0.5H9.5c0.3,0.2,0.5,0.3,0.8,0.5L10,57.6c-0.2-0.2-0.4-0.3-0.5-0.4v1H9v-1
	c-0.2,0.3-0.5,0.5-0.8,0.8l-0.3-0.4c0.4-0.3,0.8-0.6,1-0.9H8v-0.5h0.9v-0.4c-0.2,0-0.5,0-0.8,0L8,55.3c0.8,0,1.4-0.1,1.9-0.2
	L10.3,55.7z M12.6,55.7c-0.3,0.1-0.6,0.1-0.9,0.2v0.4h1.1v0.5h-1.1v0.1c0.4,0.3,0.7,0.5,1.1,0.8l-0.3,0.5c-0.3-0.3-0.6-0.6-0.8-0.8
	v1h-0.5v-1c-0.2,0.3-0.5,0.6-0.7,0.8l-0.3-0.4c0.4-0.3,0.7-0.6,0.9-0.9h-0.7v-0.5h0.7v-0.3c-0.2,0-0.4,0-0.7,0l-0.1-0.5
	c0.8,0,1.4-0.1,2-0.2L12.6,55.7z"/>
<path class="st0" d="M16.3,56.5v-0.8h0.8v0.8H16.3z M16.3,58.9v-0.8h0.8v0.8H16.3z"/>
<path class="st0" d="M2.4,64h1.1c0.2-0.2,0.4-0.5,0.5-0.8l0.6,0.2c-0.1,0.2-0.3,0.4-0.5,0.6h1.4v0.5H3.1v0.4h2.1v0.5H3.1v0.1
	c0,0.1,0,0.2,0,0.3h2.6v0.6H3c0,0.2-0.1,0.4-0.1,0.5h2.8v0.5H3.5c0.1,0.2,0.2,0.3,0.3,0.4c0.2,0.1,0.4,0.3,0.7,0.4
	c0.3,0.1,0.7,0.2,1.2,0.3l-0.4,0.6c-0.5-0.1-1-0.3-1.3-0.4c-0.3-0.2-0.6-0.3-0.8-0.5C3,68,2.9,67.8,2.8,67.5H3
	c-0.1,0.2-0.2,0.4-0.3,0.6c-0.4,0.6-1.2,0.9-2.4,1.1L0,68.6c1.1-0.1,1.8-0.4,2.2-0.9c0.1-0.1,0.1-0.1,0.1-0.2H0.1V67h2.4
	c0-0.2,0.1-0.3,0.1-0.5H0.1v-0.6h2.6c0-0.1,0-0.2,0-0.3v-0.1h-2V65h2v-0.4H0.4V64h1.4c-0.1-0.2-0.3-0.3-0.4-0.5L2,63.3
	C2.1,63.5,2.3,63.7,2.4,64z"/>
<path class="st0" d="M12.6,69.2H12V69H7.7v0.2H7.2v-5.7h5.4V69.2z M12,68.4v-4.5H7.7v4.5H12z M10,67.5c-0.6,0.2-1.2,0.3-2,0.5
	l-0.1-0.6c0.7-0.1,1.4-0.2,2.1-0.4V67.5z M10,64.7c0-0.2,0-0.4,0-0.6h0.5c0,0.2,0,0.4,0,0.6h0.6c-0.1-0.2-0.1-0.3-0.2-0.5l0.5-0.1
	c0.1,0.2,0.2,0.3,0.3,0.6l-0.3,0.1h0.5v0.5h-1.3c0,0.4,0.1,0.7,0.1,1c0,0.2,0.1,0.4,0.1,0.6c0.2-0.3,0.4-0.8,0.6-1.4l0.4,0.3
	c-0.3,0.8-0.6,1.3-0.8,1.7c0,0,0,0.1,0.1,0.1c0.1,0.2,0.2,0.3,0.3,0.3c0,0,0.1-0.3,0.2-0.8l0.5,0.4c-0.1,0.5-0.2,0.8-0.3,0.8
	c-0.1,0.1-0.2,0.1-0.3,0.1c-0.2,0-0.4-0.1-0.5-0.3c-0.1-0.1-0.1-0.2-0.2-0.3c-0.2,0.2-0.5,0.5-0.7,0.7l-0.3-0.4
	c0.3-0.2,0.6-0.5,0.8-0.7c-0.1-0.2-0.2-0.5-0.2-0.7c-0.1-0.3-0.1-0.8-0.2-1.3H8.1v-0.5H10V64.7z M9.7,65.5V67H8.2v-1.5H9.7z
	 M9.2,65.9H8.6v0.6h0.6V65.9z"/>
<path class="st0" d="M15.4,63.5c-0.1,0.5-0.3,0.9-0.4,1.2v4.4h-0.6v-3.3c-0.2,0.3-0.3,0.5-0.5,0.8l-0.2-0.7c0.2-0.4,0.5-0.7,0.7-1.1
	c0.2-0.3,0.4-0.9,0.6-1.5L15.4,63.5z M19.2,63.7V65h0.5v0.6h-0.5V67h-1.8c-0.1,0.3-0.2,0.6-0.3,0.9c-0.3,0.6-0.8,1-1.5,1.3l-0.3-0.5
	c0.6-0.3,1.1-0.7,1.3-1.2c0.1-0.1,0.1-0.3,0.2-0.5h-1.2v-0.6h1.3c0-0.3,0.1-0.5,0.1-0.8h-1.7V65H17v-0.8h-1.4v-0.6L19.2,63.7
	L19.2,63.7z M17.5,66.5h1.1v-0.8h-1.1C17.6,65.9,17.5,66.2,17.5,66.5z M17.6,65.1h1.1v-0.8h-1.1V65.1z"/>
<path class="st0" d="M23.6,63.9c-0.3,0.1-0.7,0.2-1.1,0.3v0.9h1.2v0.6h-1.2v0.1c0.4,0.4,0.8,0.8,1.2,1.3l-0.4,0.5
	c-0.4-0.5-0.7-0.9-0.9-1.2v2.9h-0.6v-2.8c-0.1,0.3-0.2,0.5-0.3,0.7c-0.2,0.4-0.5,0.7-0.8,1l-0.3-0.6c0.3-0.3,0.6-0.6,0.8-1
	c0.2-0.3,0.3-0.6,0.4-0.9h-1.1v-0.6h1.3v-0.8c-0.3,0.1-0.7,0.1-1.1,0.1l-0.1-0.6c1-0.1,1.9-0.3,2.7-0.5L23.6,63.9z M24.7,63.8v4.1
	h-0.6v-4.1H24.7z M26.2,63.3v5.2c0,0.2-0.1,0.4-0.2,0.5c-0.1,0.1-0.3,0.2-0.5,0.2h-1l-0.1-0.7c0.4,0,0.7,0.1,1,0.1
	c0.2,0,0.3,0,0.3-0.1v-5.1L26.2,63.3L26.2,63.3z"/>
<path class="st0" d="M28.8,64h0.8v0.5h-2.1V64h0.8c0-0.2-0.1-0.4-0.1-0.6l0.6-0.1C28.7,63.5,28.7,63.7,28.8,64z M28.2,69.2h-0.6
	v-2.3h1.8v2.2h-0.6v-0.3h-0.6V69.2z M29.3,65v0.5h-1.7V65H29.3z M29.3,65.9v0.5h-1.7v-0.5H29.3z M28.8,67.4h-0.6v0.8h0.6V67.4z
	 M30.9,65.5c0.1-0.2,0.2-0.5,0.3-0.8l0.6,0.1c-0.1,0.3-0.1,0.5-0.2,0.7h1.8v0.6h-2c-0.1,0.1-0.1,0.2-0.2,0.3
	c-0.1,0.1-0.1,0.2-0.2,0.4h2.1v2.4h-0.6v-0.4H31v0.4h-0.6v-1.8c-0.2,0.2-0.3,0.3-0.5,0.5l-0.4-0.5c0.5-0.4,0.9-0.8,1.1-1.2
	c0,0,0-0.1,0.1-0.1h-1.1v-0.6H30.9z M30.2,64v-0.7h0.6V64h0.6v0.5h-0.6v0.6h-0.6v-0.6h-0.6V64H30.2z M32.4,68.3v-1h-1.5v1H32.4z
	 M32.1,64v-0.7h0.6V64h0.6v0.5h-0.6v0.6h-0.6v-0.6h-0.6V64H32.1z"/>
<path class="st0" d="M36.4,63.7v0.6h-0.8v1.3h0.7v0.6h-0.7v1.4c0.3-0.1,0.5-0.2,0.8-0.3v0.6c-0.6,0.3-1.3,0.5-2.1,0.8l-0.2-0.6
	c0.3-0.1,0.6-0.2,0.9-0.3v-1.6h-0.7v-0.6H35v-1.3h-0.8v-0.6H36.4z M39.8,63.5v3.1h-1.4v0.6h1.4v0.5h-1.4v0.7h1.7v0.5H36v-0.5h1.8
	v-0.7h-1.3v-0.5h1.3v-0.6h-1.3v-3.1H39.8z M37.9,64.8V64h-0.7v0.8H37.9z M37.9,65.3h-0.7v0.8h0.7V65.3z M38.5,64.8h0.8V64h-0.8V64.8
	z M39.3,65.3h-0.8v0.8h0.8V65.3z"/>
<path class="st0" d="M46.7,63.9v0.6h-2.3v3.8H47v0.6h-5.8v-0.6h2.5v-3.8h-2.3v-0.6H46.7z"/>
<path class="st0" d="M49.9,63.8c-0.2,0-0.6,0.1-1.1,0.1v0.3h1v0.4h-1v0.3h1v0.5h-1v0.4h4.1v-0.4h-1V65h1v-0.3h-1v-0.4h1v-0.4h-1
	v-0.5h1.6v2.4h0.3v1.3h-0.6v-0.8h-4.5v0.8H48v-1.3h0.3v-2.3c0.5,0,0.9-0.1,1.4-0.2L49.9,63.8z M52.7,66.7v0.5
	c-0.4,0.2-0.9,0.4-1.5,0.6h2.4v0.5h-2.4v0.6c0,0.1,0,0.2-0.1,0.3c-0.1,0.1-0.2,0.1-0.3,0.1h-1l-0.1-0.5c0.2,0,0.5,0,0.7,0
	c0.1,0,0.2,0,0.2-0.1v-0.4h-2.5v-0.5h2.5v-0.2c0.4-0.1,0.7-0.2,1.2-0.3h-2.7v-0.5L52.7,66.7L52.7,66.7z M51.7,63.6
	c-0.1,0.1-0.3,0.3-0.4,0.4c0.1,0.1,0.2,0.2,0.3,0.2l-0.3,0.3c-0.1-0.1-0.2-0.2-0.3-0.3c-0.2,0.1-0.5,0.3-0.8,0.4l-0.3-0.4
	c0.2-0.1,0.4-0.1,0.7-0.3c-0.1-0.1-0.3-0.2-0.5-0.3l0.3-0.3c0.2,0.1,0.4,0.2,0.5,0.3c0.1-0.1,0.3-0.2,0.4-0.3L51.7,63.6z M51.8,64.8
	c-0.2,0.2-0.3,0.3-0.5,0.4c0.1,0.1,0.3,0.2,0.4,0.3l-0.3,0.3c-0.1-0.1-0.3-0.2-0.4-0.4c-0.2,0.1-0.4,0.2-0.7,0.3L50,65.3
	c0.2-0.1,0.4-0.1,0.6-0.2c-0.1-0.1-0.3-0.2-0.4-0.3l0.3-0.3c0.2,0.1,0.3,0.2,0.5,0.3c0.2-0.1,0.3-0.2,0.5-0.4L51.8,64.8z"/>
<path class="st0" d="M56.9,63.5V64c-0.1,0.5-0.3,1-0.5,1.6c0.2,0.3,0.3,0.6,0.3,0.8c0.1,0.2,0.1,0.5,0.1,0.6c0,0.3-0.1,0.6-0.2,0.7
	c-0.1,0.2-0.5,0.3-0.9,0.3l-0.2-0.6c0.1,0,0.2,0,0.3,0c0.1,0,0.2,0,0.3-0.1c0.1,0,0.1-0.1,0.1-0.3c0-0.2,0-0.4-0.1-0.5
	c-0.1-0.2-0.2-0.5-0.4-0.8c0.2-0.6,0.4-1.1,0.5-1.5h-0.8v5.1h-0.6v-5.7L56.9,63.5L56.9,63.5z M60.6,66.2v0.6h-1.2v1.6
	c0,0.1,0.1,0.2,0.2,0.2h0.3c0.1,0,0.1,0,0.2-0.1c0-0.1,0.1-0.4,0.1-0.9l0.5,0.2c0,0.7-0.1,1.1-0.2,1.2c-0.1,0.1-0.3,0.2-0.5,0.2
	h-0.6c-0.2,0-0.3-0.1-0.4-0.1c-0.1-0.1-0.2-0.2-0.2-0.4v-1.8h-0.4c0,0.6-0.1,1.1-0.3,1.4c-0.2,0.4-0.6,0.7-1.2,1l-0.4-0.5
	c0.5-0.2,0.8-0.5,1-0.7c0.2-0.3,0.3-0.7,0.3-1.3H57v-0.6H60.6z M59.1,63.9h1.4v1.4h-0.3v0.3h-2.8v-0.3H57v-1.4h1.4
	c-0.1-0.2-0.2-0.3-0.3-0.5l0.7-0.1C58.9,63.5,59,63.7,59.1,63.9z M59.9,65.1v-0.6h-2.4v0.6H59.9z"/>
<path class="st0" d="M3.4,72.6v-0.5H4v0.5h1.5v0.9h0.4V74H5.5v1H4v0.4h1.6v0.5H4v0.5h1.9v0.5H4v0.5c0.1,0,0.2,0,0.3,0
	c0.8,0,1.3,0,1.7,0l-0.1,0.7c-2,0-3.2,0-3.7-0.1c-0.4-0.1-0.7-0.3-0.9-0.5c0,0-0.1,0-0.1-0.1c-0.2,0.3-0.5,0.5-0.8,0.8l-0.3-0.6
	c0.3-0.2,0.6-0.5,0.8-0.7c-0.2-0.3-0.4-0.8-0.6-1.3l0.5-0.2c0.1,0.4,0.3,0.7,0.4,0.9v-0.1c0.1-0.3,0.1-0.7,0.2-1.2H0.3v-0.4
	c0.4-0.5,0.7-1,1.1-1.5H0.2v-0.5H2v0.6c-0.4,0.6-0.7,1.1-1,1.4h1c0,0.7-0.1,1.3-0.2,1.7c-0.1,0.2-0.1,0.4-0.2,0.6
	c0.2,0.2,0.4,0.3,0.7,0.4c0.2,0.1,0.7,0.1,1.2,0.2V77H2v-0.5h1.5V76H2.2v-0.5h1.3V75H2.3v-0.5h1.2V74H2v-0.5h1.5V73H2.3v-0.5
	L3.4,72.6L3.4,72.6z M4,73.5h1V73H4V73.5z M4,74.5h1V74H4V74.5z"/>
<path class="st0" d="M8.4,72.3c-0.1,0.1-0.1,0.2-0.2,0.4h1.6v0.5c0.3-0.3,0.5-0.6,0.6-1l0.6,0.1c-0.1,0.1-0.1,0.3-0.2,0.4h1.9v0.5
	h-1.1c0.1,0.2,0.1,0.3,0.2,0.5l-0.6,0.1c0-0.2-0.1-0.4-0.1-0.5h-0.6c-0.1,0.2-0.3,0.4-0.5,0.6l-0.5-0.3c0.1-0.1,0.2-0.1,0.2-0.2H9
	c0.1,0.1,0.1,0.3,0.2,0.5L8.6,74c0-0.2-0.1-0.3-0.1-0.5H8c-0.2,0.2-0.3,0.4-0.5,0.6L7,73.8c0.5-0.4,0.8-0.8,1-1.2L8.4,72.3z
	 M9.6,75.9v-0.3l-0.3-0.2c0.3-0.1,0.5-0.2,0.7-0.3C9.8,75,9.7,75,9.5,74.9l0.3-0.4c0.2,0.1,0.3,0.1,0.5,0.2c0-0.1,0-0.1,0-0.2v-0.2
	H9.6v-0.5h2.3v1.3c0,0.1,0.1,0.2,0.2,0.2c0.1,0,0.1,0,0.1-0.1c0,0,0.1-0.2,0.1-0.5l0.5,0.2c0,0.4-0.1,0.7-0.2,0.8
	c-0.1,0.1-0.2,0.1-0.4,0.1H12c-0.2,0-0.3,0-0.4-0.1c-0.1-0.1-0.1-0.2-0.1-0.4v-1h-0.6v0.2c0,0.1,0,0.3-0.1,0.4
	c0.2,0.1,0.4,0.2,0.6,0.3l-0.3,0.5c-0.2-0.1-0.4-0.2-0.6-0.3c-0.1,0.1-0.3,0.2-0.4,0.3h0.1V76h2.6v0.5h-2c0.2,0.2,0.4,0.3,0.6,0.4
	c0.3,0.2,0.8,0.3,1.3,0.5l-0.3,0.5c-0.7-0.2-1.2-0.5-1.5-0.7c-0.3-0.2-0.5-0.4-0.8-0.7v1.6H9.5v-1.6c-0.2,0.2-0.4,0.5-0.7,0.6
	c-0.4,0.3-1,0.6-1.7,0.8l-0.3-0.5c0.8-0.2,1.3-0.4,1.6-0.6c0.2-0.1,0.3-0.2,0.4-0.3H6.7V76L9.6,75.9L9.6,75.9z M9.4,73.9v0.5H8.5V75
	c0.3-0.1,0.6-0.1,0.9-0.2v0.5c-0.7,0.2-1.5,0.3-2.4,0.5l-0.1-0.6c0.4,0,0.7-0.1,1.1-0.1v-0.7H7.1v-0.5H9.4z"/>
<path class="st0" d="M16.1,72.4v0.5h-1c-0.1,0.5-0.2,1-0.3,1.4H16v3h-1.2v0.6h-0.5v-2.6c-0.1,0.2-0.2,0.3-0.3,0.5l-0.3-0.6
	c0.3-0.5,0.5-0.9,0.7-1.4c0.1-0.3,0.2-0.6,0.2-1h-0.7v-0.5L16.1,72.4L16.1,72.4z M15.4,76.9v-2h-0.6v2H15.4z M19.5,72.5V73h-0.6v1.5
	h0.7v0.6h-0.7v3h-0.6v-3h-0.9c0,0.5-0.1,1-0.2,1.4c-0.1,0.5-0.4,1-0.8,1.6l-0.5-0.4c0.3-0.4,0.6-0.9,0.7-1.3
	c0.1-0.3,0.2-0.7,0.2-1.2H16v-0.6h0.8V73h-0.6v-0.5H19.5z M18.4,73h-0.9v1.5h0.9V73z"/>
<path class="st0" d="M23.2,73.7c-0.2,0.4-0.5,0.7-0.8,0.9c-0.3,0.2-0.8,0.4-1.5,0.5l-0.3-0.6c0.7-0.1,1.2-0.3,1.4-0.4
	c0.3-0.1,0.5-0.4,0.7-0.7L23.2,73.7z M22.9,75.5C22.9,75.4,22.9,75.4,22.9,75.5v-0.9h0.6v0.8v0.1h1.6L25,77c0,0.2,0,0.3,0.1,0.3
	s0.1,0.1,0.2,0.1h0.5c0,0,0.1,0,0.1-0.1c0,0,0.1-0.4,0.1-1l0.6,0.2c-0.1,0.7-0.2,1.2-0.3,1.3C26.2,77.9,26,78,25.8,78H25
	c-0.1,0-0.3-0.1-0.4-0.2s-0.2-0.3-0.2-0.5l0.1-1.2h-1c-0.1,0.5-0.3,0.8-0.6,1.1c-0.4,0.4-1.1,0.7-2,0.9l-0.3-0.5
	c0.9-0.2,1.5-0.5,1.9-0.8c0.2-0.2,0.3-0.5,0.4-0.7h-1.8v-0.5L22.9,75.5L22.9,75.5z M23.7,72.7h2.4V74h-0.6v-0.8h-1v1
	c0,0.2,0.1,0.2,0.2,0.2h1.6v0.5h-1.7c-0.2,0-0.4,0-0.5-0.1s-0.2-0.2-0.2-0.4v-1.2h-2.5V74h-0.6v-1.3h2.3c-0.1-0.2-0.2-0.3-0.3-0.5
	l0.7-0.1C23.6,72.3,23.7,72.5,23.7,72.7z"/>
<path class="st0" d="M30.3,72.8c-0.6,0.2-1.2,0.3-1.9,0.3v0.6H30v2.1h-1.6c0,0.3-0.1,0.7-0.1,1c-0.1,0.4-0.2,0.9-0.4,1.3l-0.5-0.5
	c0.1-0.3,0.2-0.7,0.3-1c0.1-0.4,0.1-0.8,0.1-1.3v-2.7c0.9,0,1.6-0.1,2.2-0.4L30.3,72.8z M29.5,75.3v-1h-1v1H29.5z M33.3,72.8
	c-0.7,0.2-1.4,0.3-2.3,0.3v1.1h2.3v0.6h-0.7v3.3H32v-3.3h-1v0.7c0,0.4-0.1,0.9-0.2,1.4c-0.1,0.4-0.3,0.8-0.6,1.2l-0.5-0.5
	c0.2-0.3,0.4-0.6,0.5-0.9c0.1-0.3,0.2-0.7,0.2-1.2v-2.9c1,0,1.9-0.1,2.5-0.4L33.3,72.8z"/>
<path class="st0" d="M34.6,75c0-0.2,0.2-0.4,0.4-0.4s0.4,0.2,0.4,0.4c0,0.2-0.2,0.4-0.4,0.4S34.6,75.2,34.6,75z"/>
<path class="st0" d="M39,72.4v0.5h-0.8c-0.1,0.5-0.2,1-0.3,1.3H39v3h-1v0.6h-0.5v-2.7c-0.1,0.2-0.2,0.3-0.3,0.5l-0.3-0.5
	c0.3-0.5,0.5-0.9,0.7-1.3c0.1-0.2,0.2-0.6,0.2-1h-0.7v-0.5L39,72.4L39,72.4z M38.4,76.9v-2h-0.5v2H38.4z M40.6,77.2
	c-0.4,0.3-0.8,0.6-1.4,0.9l-0.4-0.5c0.5-0.2,0.9-0.5,1.3-0.8L40.6,77.2z M42.7,72.4v0.5h-1.5c0,0.2-0.1,0.3-0.2,0.5h1.4v3.4h-3.1
	v-3.4h1.1c0.1-0.2,0.1-0.3,0.2-0.5h-1.3v-0.5H42.7z M41.8,74.3v-0.5h-2v0.5H41.8z M41.8,75.3v-0.5h-2v0.5H41.8z M41.8,75.8h-2v0.5h2
	V75.8z M42.7,77.6l-0.3,0.5c-0.5-0.3-0.9-0.6-1.4-0.8l0.3-0.4C41.8,77.1,42.2,77.3,42.7,77.6z"/>
<path class="st0" d="M46.2,74.1v-1.9h0.7v1.9h2.6v0.6h-2.6v2.5h2.3v0.6H44v-0.6h2.3v-2.5h-2.5v-0.6H46.2z"/>
<path class="st1" d="M3.7,7.1H1.3v0.7H0.5V1.3h3.2V7.1z M2.9,3.8V2.1H1.3v1.7H2.9z M2.9,6.3V4.5H1.3v1.8H2.9z M4.6,1.1h3.9V8
	c0,0.3-0.1,0.5-0.2,0.7C8.2,8.8,8,8.9,7.7,8.9H6.2L6,8l1.3,0.1c0.2,0,0.3-0.1,0.3-0.3V6.2H5.3C5.2,6.5,5.1,6.8,5,7.1
	c-0.3,0.6-0.8,1.3-1.6,2L2.6,8.5c0.7-0.5,1.2-1,1.5-1.6c0.2-0.5,0.4-1.2,0.4-2.2V4V1.1H4.6z M7.6,5.4V4H5.5v0.6c0,0.3,0,0.5,0,0.8
	H7.6z M7.6,3.2V1.9H5.5v1.3H7.6z"/>
<path class="st1" d="M17.5,9h-0.9V8.3H12v0.6h-1V1.1h6.5V9z M16.6,4.2V2H12v2.2H16.6z M16.6,7.5V5H12v2.4L16.6,7.5L16.6,7.5z"/>
<path class="st1" d="M24.7,1.4V0.8h0.8v0.6h2.2v1.3h0.5v0.7h-0.5v1.3h-2.2v0.6h2.3v0.6h-2.3v0.6h2.7v0.7h-2.7V8c0.1,0,0.3,0,0.4,0
	c1.1,0,1.9,0,2.5-0.1l-0.1,0.9c-2.9,0-4.7-0.1-5.3-0.2c-0.6-0.1-1-0.4-1.4-0.6l-0.1-0.1c-0.3,0.4-0.7,0.7-1.2,1.1l-0.5-0.8
	c0.5-0.3,0.9-0.7,1.1-1c-0.3-0.4-0.6-1.1-0.9-1.8l0.7-0.2c0.2,0.5,0.4,0.9,0.6,1.2V6.3c0.1-0.4,0.2-0.9,0.3-1.6H20V4
	c0.6-0.6,1.1-1.3,1.5-2.1h-1.7V1.2h2.7V2c-0.5,0.8-1,1.5-1.4,1.9h1.4c0,1-0.1,1.8-0.3,2.4c-0.1,0.3-0.2,0.5-0.3,0.8
	c0.2,0.2,0.6,0.4,1,0.6c0.4,0.1,1,0.2,1.8,0.2V7.2h-2.2V6.5h2.2V5.9h-1.8V5.3h1.8V4.7H23V4h1.7V3.3h-2.2V2.6h2.2V2H23V1.4H24.7z
	 M25.5,2.7h1.4V2h-1.4V2.7z M25.5,4h1.4V3.3h-1.4V4z"/>
<path class="st1" d="M31.9,0.9c-0.1,0.2-0.2,0.3-0.3,0.5h2.3v0.7c0.4-0.4,0.7-0.9,0.9-1.3l0.8,0.1c-0.1,0.2-0.2,0.4-0.3,0.5h2.8v0.7
	h-1.5c0.1,0.2,0.2,0.4,0.3,0.7L36,2.9c-0.1-0.3-0.1-0.5-0.2-0.7H35c-0.2,0.3-0.4,0.5-0.7,0.8l-0.8-0.5c0.1-0.1,0.2-0.2,0.3-0.3h-1.2
	c0.1,0.2,0.2,0.4,0.3,0.6L32,2.9c-0.1-0.2-0.1-0.5-0.2-0.7h-0.7c-0.2,0.3-0.5,0.6-0.8,0.8l-0.8-0.5C30.2,2,30.7,1.4,31,0.8L31.9,0.9
	z M33.6,6V5.6l-0.4-0.3c0.4-0.1,0.8-0.3,1-0.4c-0.2-0.1-0.5-0.2-0.7-0.3L33.9,4c0.3,0.1,0.5,0.2,0.7,0.3c0-0.1,0-0.2,0-0.3V3.7h-1V3
	H37v1.7c0,0.2,0.1,0.2,0.3,0.2c0.1,0,0.1,0,0.2-0.1c0,0,0.1-0.3,0.1-0.7l0.7,0.2c-0.1,0.6-0.1,1-0.3,1.1c-0.1,0.1-0.3,0.2-0.6,0.2
	H37c-0.2,0-0.4-0.1-0.5-0.2c-0.1-0.1-0.2-0.3-0.2-0.5V3.6h-0.9v0.3c0,0.2,0,0.4-0.1,0.5c0.3,0.1,0.6,0.3,0.9,0.4l-0.4,0.7
	C35.5,5.3,35.2,5.2,35,5c-0.2,0.1-0.4,0.3-0.6,0.4h0.2v0.5h3.8v0.7h-2.9c0.3,0.3,0.6,0.4,0.9,0.6c0.4,0.2,1.1,0.4,1.9,0.6l-0.4,0.7
	c-1-0.3-1.8-0.6-2.2-1c-0.4-0.2-0.8-0.5-1.2-1v2.3h-0.8V6.5c-0.3,0.3-0.6,0.6-1,0.9c-0.6,0.4-1.4,0.8-2.5,1.1l-0.5-0.7
	c1.1-0.3,1.9-0.6,2.4-0.9c0.2-0.1,0.4-0.3,0.6-0.4h-3V6H33.6z M33.3,3.1v0.7h-1.2v0.8c0.4-0.1,0.8-0.2,1.2-0.2v0.7
	c-1,0.2-2.1,0.4-3.4,0.7L29.7,5c0.5,0,1-0.1,1.5-0.2V3.9H30V3.2L33.3,3.1L33.3,3.1z"/>
<path class="st1" d="M5.1,14.3l-0.6,0.4h3.9v0.8H5.1v1.7H8V18H5.1v2.1h3.7v0.8H0.4v-0.8h3.7V18h-3v-0.8h3v-1.7H0.7v-0.8h3.5
	c-0.2-0.3-0.5-0.7-0.8-1l0.7-0.4C4.5,13.7,4.9,14,5.1,14.3z"/>
<path class="st1" d="M13.3,13.8v0.8h-1.2v1.8h1v0.8h-1v2c0.4-0.1,0.8-0.3,1.2-0.4v0.9c-0.9,0.4-1.9,0.7-3,1.1L10,19.9
	c0.4-0.1,0.9-0.2,1.3-0.4v-2.2h-1v-0.8h1v-1.8h-1.1v-0.8h3.1V13.8z M18.2,13.6v4.3h-2v0.9h2v0.7h-2v1h2.4v0.7h-5.9v-0.7h2.6v-1h-1.8
	v-0.7h1.8v-0.9h-1.9v-4.3H18.2z M15.4,15.3v-1.1h-1.1v1.1H15.4z M15.4,16h-1.1v1.1h1.1V16z M16.2,15.3h1.1v-1.1h-1.1V15.3z M17.4,16
	h-1.1v1.1h1.1V16z"/>
<path class="st1" d="M24.6,13.2v2.1c0.3,1.3,0.8,2.4,1.4,3.2c0.5,0.7,1.3,1.4,2.4,2.1l-0.6,0.8c-0.9-0.6-1.6-1.1-2.1-1.7
	c-0.6-0.7-1.1-1.5-1.5-2.5c-0.3,1-0.7,1.8-1.3,2.4c-0.6,0.6-1.4,1.2-2.5,1.8l-0.6-0.8c1.4-0.8,2.4-1.7,2.9-2.6s0.8-1.8,0.8-2.7v-2.1
	H24.6z"/>
</svg>
