<svg width="225" height="81" viewBox="0 0 225 81" fill="none" xmlns="http://www.w3.org/2000/svg">
<path d="M8.90004 2.5V15.4H21.9V17.4H8.90004V33.3H4.00004V5.29999C4.00004 3.39999 2.80004 1.8 0.100037 1V0.799988H24.5V2.5H8.90004Z" fill="#C9A063"/>
<path d="M56.8 0.799988V22.8C56.8 24.8 56.4 33.9 44.2 33.9C44.2 33.9 31.5 34.5 31.5 22.8V5.29999C31.5 3.39999 30.3 1.8 27.6 1V0.799988H36.4V22.8C36.4 32.6 44.7 32 44.7 32C47.3 32 54.9 31 54.9 22.8V0.799988H56.8Z" fill="#C9A063"/>
<path d="M86.3 2.79999H75.6V33.3H70.7V2.79999H59.9V0.799988H86.3V2.79999Z" fill="#C9A063"/>
<path d="M118.7 0.799988V22.8C118.7 24.8 118.3 33.9 106.1 33.9C106.1 33.9 93.4001 34.5 93.4001 22.8V5.29999C93.4001 3.39999 92.2001 1.8 89.5001 1V0.799988H98.3V22.8C98.3 32.6 106.6 32 106.6 32C109.2 32 116.8 31 116.8 22.8V0.799988H118.7Z" fill="#C9A063"/>
<path d="M150.1 33.3H144.6L134.3 18.7C133 18.7 131.7 18.7 130.7 18.7V33.3H125.8V5.39995C125.8 3.39995 124.3 1.39996 121.9 1.09996V0.799972H130.7C135.8 0.799972 146.1 0.699948 146.1 9.89995C146.1 15.0999 142.9 17.3 139.4 18.2L150.1 33.3ZM139.2 15.1C139.5 14.7 139.8 14.2999 140 13.8999C140.3 13.3999 140.4 12.8 140.6 12.2C140.7 11.5 140.8 10.6999 140.8 9.89995C140.6 2.79995 135.1 2.39995 134.1 2.39995H130.6V17H134.1C134.7 17 135.3 16.9999 135.8 16.8999C136.6 16.7999 137.5 16.5 138.2 16.1C138.6 15.8 138.9 15.5 139.2 15.1Z" fill="#C9A063"/>
<path d="M175.5 31.6V33.3H155V5.29999C155 3.39999 153.8 1.8 151.1 1V0.799988H175.5V2.5H159.9V15.4H172.9V17.4H159.9V31.6H175.5V31.6Z" fill="#C9A063"/>
<path d="M198.6 0.799988V33.3H194.2V5.29999C194.2 3.39999 193 1.8 190.3 1V0.799988H198.6Z" fill="#C9A063"/>
<path d="M224.6 25C224.6 28.4 222.1 34 214.4 34C208.3 34 204.4 31.4 203.5 24.7H205C206 30.8 211 32.1 214 32.1C219.2 32.1 220.4 28.5 220.4 26.9C220.4 23.5 217.6 21.6 212.3 18.9C208.9 17.2 203.2 14.3 203.2 8.79999C203.2 1.69999 210.2 0.299988 212.7 0.299988C218.9 0.299988 221.5 3.60001 222.4 8.20001H220.8C220.1 5.80001 218.4 2.09998 212.8 2.09998C210 2.09998 207.1 4.29998 207.1 7.09998C207.1 10.4 211 12.5 215.1 14.6C222.7 18.4 224.6 21.2 224.6 25Z" fill="#C9A063"/>
<path d="M34 80.4V80.6H27.7C26.3 80.5 25.1 79.4 25.1 77.9V64.9H8.90004V80.6H4.00004V52.6C4.00004 50.7 2.80004 49.1 1.00004 48.6H0.90004L0.100037 48.4V48.2H6.30004C7.10004 48.2 7.70004 48.5 8.20004 49C8.60004 49.5 9.00004 50.2 9.00004 50.9V63.4H25.3V48.3H30.2V76.3C30.2 78.2 31.4 79.8 33.3 80.4H33.4H34Z" fill="#C9A063"/>
<path d="M59.5 78.9V80.6H39V52.6C39 50.7 37.8 49.1 35.1 48.3V48.1H59.5V49.8H43.9V62.7H56.9V64.7H43.9V78.9H59.5V78.9Z" fill="#C9A063"/>
<path d="M90.9 80.6H85.4L75.1 66C73.8 66 72.5 66 71.5 66V80.6H66.6V52.7C66.6 50.7 65.1 48.6999 62.7 48.3999V48.2H71.5C76.6 48.2 86.9 48.1 86.9 57.3C86.9 62.5 83.7 64.7 80.2 65.6L90.9 80.6ZM80 62.3999C80.3 61.9999 80.6 61.6 80.8 61.2C81.1 60.7 81.2 60.1 81.4 59.5C81.5 58.8 81.6 58 81.6 57.2C81.4 50.1 75.9 49.7 74.9 49.7H71.4V64.3H74.9C75.5 64.3 76.1 64.3 76.6 64.2C77.4 64.1 78.3 63.7999 79 63.3999C79.4 62.9999 79.7 62.6999 80 62.3999Z" fill="#C9A063"/>
<path d="M116.3 78.9V80.6H95.8V52.6C95.8 50.7 94.6 49.1 91.9 48.3V48.1H116.3V49.8H100.7V62.7H113.7V64.7H100.7V78.9H116.3V78.9Z" fill="#C9A063"/>
<g opacity="0.6">
<path d="M129.9 56.7C129.9 57.2 129.7 57.6 129.2 57.9C128.8 58.1 128.4 58.2 127.8 58.2C127.7 58.2 127.4 58.2 126.9 58.2V53H127.8C128.3 53 128.7 53.1 129 53.2C129.4 53.4 129.6 53.7 129.6 54.1C129.6 54.4 129.5 54.6 129.3 54.9C129.1 55.1 128.9 55.3 128.6 55.4C129 55.5 129.3 55.6 129.5 55.8C129.8 56.1 129.9 56.4 129.9 56.7ZM129.4 56.7C129.4 56.3 129.3 56 129 55.8C128.8 55.6 128.5 55.5 128.1 55.5H127.9V55.3H128.1C128.5 55.3 128.7 55.2 128.9 54.9C129 54.7 129.1 54.4 129.1 54.2C129.1 53.5 128.6 53.1 127.7 53.1H127.4V58H127.7C128.8 58 129.4 57.6 129.4 56.7Z" fill="white"/>
<path d="M133.8 56.1H131.8V55.9H133.3C133.3 55.3 133 55 132.5 55C132.2 55 131.9 55.1 131.7 55.4C131.5 55.7 131.4 56 131.4 56.5C131.4 57 131.5 57.3 131.7 57.6C131.9 57.9 132.2 58 132.5 58C132.9 58 133.2 57.8 133.5 57.5L133.7 57.7C133.4 58 133 58.2 132.6 58.2C132.1 58.2 131.8 58 131.4 57.7C131.1 57.4 130.9 57 130.9 56.5C130.9 56 131.1 55.6 131.4 55.3C131.7 55 132.1 54.8 132.5 54.8C132.8 54.8 133.1 54.9 133.4 55.2C133.6 55.5 133.8 55.8 133.8 56.1Z" fill="white"/>
<path d="M136.9 56.1V58.2H136.4V57.9C136.2 58.1 135.9 58.2 135.6 58.2C135.3 58.2 135 58.1 134.8 57.9C134.6 57.7 134.4 57.5 134.4 57.1C134.4 56.8 134.5 56.5 134.8 56.3C135 56.1 135.3 56 135.5 56C135.6 56 135.7 56 135.7 56C135.9 56 136 56.1 136.1 56.1L136 56.3C135.8 56.2 135.7 56.1 135.5 56.1C135.3 56.1 135.1 56.2 135 56.3C134.9 56.5 134.8 56.7 134.8 57C134.8 57.3 134.9 57.5 135 57.6C135.1 57.8 135.3 57.8 135.5 57.8C135.8 57.8 136.1 57.6 136.3 57.3V55.8C136.3 55.1 136.1 54.8 135.6 54.8C135.3 54.8 135.1 54.9 134.8 55.1L134.7 54.9C134.9 54.7 135.2 54.7 135.6 54.7C136.5 54.9 136.9 55.3 136.9 56.1Z" fill="white"/>
<path d="M140.7 58.2H140.2V57.6C140 58 139.6 58.2 139.2 58.2C138.4 58.2 138 57.8 138 57V54.8H138.5V57C138.5 57.7 138.7 58 139.2 58C139.5 58 139.7 57.8 139.9 57.5C140 57.3 140.1 57.1 140.1 56.9V54.8H140.6V58.2H140.7Z" fill="white"/>
<path d="M143.1 55.1H142.5V57.1C142.5 57.4 142.5 57.7 142.6 57.8C142.7 57.9 142.8 58 143.1 58V58.2C142.4 58.2 142 57.8 142 57.1V55.1H141.7V54.9H142V54.5H142.5V54.9H143.1V55.1Z" fill="white"/>
<path d="M146.8 54.9L145 59.4H144.8L145.3 58.1L143.9 54.9H144.4L145.5 57.5L146.5 54.9H146.8Z" fill="white"/>
<path d="M149.6 58.2H149.1V53.2H149.6V58.2Z" fill="white"/>
<path d="M151.4 53.5C151.4 53.6 151.4 53.7 151.3 53.7C151.2 53.7 151.2 53.8 151.1 53.8C151 53.8 150.9 53.8 150.9 53.7C150.9 53.6 150.8 53.6 150.8 53.5C150.8 53.4 150.8 53.3 150.9 53.3C151 53.2 151 53.2 151.1 53.2C151.2 53.2 151.3 53.2 151.3 53.3C151.4 53.3 151.4 53.4 151.4 53.5ZM151.3 58.2H150.8V55H151.3V58.2Z" fill="white"/>
<path d="M155.2 56.1H153.2V55.9H154.7C154.7 55.3 154.4 55 153.9 55C153.6 55 153.3 55.1 153.1 55.4C152.9 55.7 152.8 56 152.8 56.5C152.8 57 152.9 57.3 153.1 57.6C153.3 57.9 153.6 58 153.9 58C154.3 58 154.6 57.8 154.9 57.5L155.1 57.7C154.8 58 154.4 58.2 154 58.2C153.5 58.2 153.2 58 152.8 57.7C152.5 57.4 152.3 57 152.3 56.5C152.3 56 152.5 55.6 152.8 55.3C153.1 55 153.5 54.8 153.9 54.8C154.2 54.8 154.5 54.9 154.8 55.2C155.1 55.5 155.2 55.8 155.2 56.1Z" fill="white"/>
<path d="M157.9 57.4C157.9 57.7 157.8 57.9 157.6 58C157.4 58.2 157.2 58.2 156.9 58.2C156.5 58.2 156.2 58.1 156 57.8L156.1 57.6C156.3 57.9 156.6 58 156.9 58C157.1 58 157.2 57.9 157.3 57.8C157.4 57.7 157.5 57.5 157.5 57.4C157.5 57.2 157.4 57 157.2 56.9C157.1 56.8 156.9 56.7 156.6 56.5C156.2 56.3 156.1 56 156.1 55.6C156.1 55.4 156.2 55.2 156.4 55C156.6 54.9 156.8 54.8 157 54.8C157.2 54.8 157.3 54.8 157.5 54.9C157.7 55 157.8 55.1 157.8 55.2L157.6 55.4C157.4 55.1 157.2 55 156.9 55C156.6 55 156.4 55.1 156.4 55.4C156.4 55.6 156.5 55.8 156.7 56C157.1 56.2 157.3 56.4 157.4 56.5C157.8 56.7 157.9 57 157.9 57.4Z" fill="white"/>
<path d="M161 53.5C161 53.6 161 53.7 160.9 53.7C160.8 53.7 160.8 53.8 160.7 53.8C160.6 53.8 160.5 53.8 160.5 53.7C160.5 53.6 160.4 53.6 160.4 53.5C160.4 53.4 160.4 53.3 160.5 53.3C160.6 53.2 160.6 53.2 160.7 53.2C160.8 53.2 160.9 53.2 160.9 53.3C160.9 53.3 161 53.4 161 53.5ZM160.9 58.2H160.4V55H160.9V58.2Z" fill="white"/>
<path d="M164.6 58.2H164.1V56C164.1 55.3 163.9 55 163.4 55C162.9 55 162.6 55.3 162.4 55.9V58.2H161.9V55H162.4V55.4C162.7 55 163 54.9 163.4 54.9C163.8 54.9 164.1 55 164.2 55.1C164.4 55.3 164.5 55.6 164.5 56V58.2H164.6Z" fill="white"/>
<path d="M168.5 55.1H167.9V57.1C167.9 57.4 167.9 57.7 168 57.8C168.1 57.9 168.2 58 168.5 58V58.2C167.8 58.2 167.4 57.8 167.4 57.1V55.1H167.1V54.9H167.4V54.5H167.9V54.9H168.5V55.1Z" fill="white"/>
<path d="M172 58.2H171.5V56C171.5 55.3 171.3 55 170.8 55C170.3 55 170 55.3 169.8 55.9V58.2H169.3V53.2H169.8V55.4C170.1 55 170.4 54.9 170.8 54.9C171.2 54.9 171.5 55 171.6 55.1C171.8 55.3 171.9 55.6 171.9 56V58.2H172Z" fill="white"/>
<path d="M176 56.1H174V55.9H175.5C175.5 55.3 175.2 55 174.7 55C174.4 55 174.1 55.1 173.9 55.4C173.7 55.7 173.6 56 173.6 56.5C173.6 57 173.7 57.3 173.9 57.6C174.1 57.9 174.4 58 174.7 58C175.1 58 175.4 57.8 175.7 57.5L175.9 57.7C175.6 58 175.2 58.2 174.8 58.2C174.3 58.2 174 58 173.6 57.7C173.3 57.4 173.1 57 173.1 56.5C173.1 56 173.3 55.6 173.6 55.3C173.9 55 174.3 54.8 174.7 54.8C175 54.8 175.3 54.9 175.6 55.2C175.8 55.5 176 55.8 176 56.1Z" fill="white"/>
<path d="M181 57.8C180.7 58.1 180.3 58.2 179.9 58.2C179.4 58.2 179.1 58 178.7 57.7C178.4 57.4 178.2 57 178.2 56.5C178.2 56 178.4 55.6 178.7 55.3C179 55 179.4 54.8 179.9 54.8C180.3 54.8 180.6 54.9 180.9 55.1L180.8 55.3C180.6 55.1 180.3 54.9 179.9 54.9C179.6 54.9 179.3 55.1 179.1 55.4C178.9 55.7 178.8 56 178.8 56.4C178.8 56.8 178.9 57.2 179.1 57.4C179.3 57.7 179.6 57.9 179.9 57.9C180.3 57.9 180.6 57.7 180.9 57.4L181 57.8Z" fill="white"/>
<path d="M184.8 56.5C184.8 57 184.6 57.4 184.3 57.7C184 58 183.6 58.2 183.1 58.2C182.6 58.2 182.3 58 181.9 57.7C181.6 57.4 181.4 57 181.4 56.5C181.4 56 181.6 55.6 181.9 55.3C182.2 55 182.6 54.8 183.1 54.8C183.6 54.8 183.9 55 184.3 55.3C184.6 55.7 184.8 56.1 184.8 56.5ZM184.3 56.5C184.3 56.1 184.2 55.7 184 55.4C183.8 55.1 183.5 55 183.2 55C182.9 55 182.6 55.1 182.4 55.4C182.2 55.7 182.1 56 182.1 56.5C182.1 56.9 182.2 57.3 182.4 57.6C182.6 57.9 182.9 58 183.2 58C183.5 58 183.8 57.9 184 57.6C184.2 57.3 184.3 57 184.3 56.5Z" fill="white"/>
<path d="M190.2 58.2H189.7V56C189.7 55.7 189.7 55.5 189.6 55.3C189.5 55.2 189.4 55.1 189.1 55.1C188.7 55.1 188.5 55.4 188.2 55.9V56V58.2H187.7V56C187.7 55.7 187.7 55.5 187.6 55.3C187.5 55.2 187.3 55.1 187.1 55.1C186.9 55.1 186.8 55.2 186.6 55.3C186.4 55.5 186.3 55.7 186.2 55.9V58.2H185.7V55H186.2V55.4C186.5 55.1 186.8 54.9 187.1 54.9C187.6 54.9 187.9 55.1 188.1 55.4C188.4 55 188.7 54.9 189.1 54.9C189.8 54.9 190.2 55.3 190.2 56V58.2Z" fill="white"/>
<path d="M194.1 56.6C194.1 57.1 194 57.5 193.7 57.8C193.4 58.1 193.1 58.3 192.6 58.3C192.3 58.3 192 58.2 191.8 57.9V58.2H191.3V53.2H191.8V57.4C191.9 57.6 192 57.8 192.1 57.9C192.2 58 192.4 58.1 192.6 58.1C192.9 58.1 193.1 58 193.3 57.7C193.5 57.4 193.6 57.1 193.6 56.6C193.6 56.2 193.5 55.8 193.3 55.5C193.1 55.2 192.9 55.1 192.6 55.1C192.4 55.1 192.3 55.2 192.2 55.3L192.1 55.1C192.3 55 192.5 55 192.7 55C193.1 55 193.5 55.2 193.8 55.5C193.9 55.7 194.1 56.1 194.1 56.6Z" fill="white"/>
<path d="M195.7 53.5C195.7 53.6 195.7 53.7 195.6 53.7C195.5 53.7 195.5 53.8 195.4 53.8C195.3 53.8 195.2 53.8 195.2 53.7C195.2 53.6 195.1 53.6 195.1 53.5C195.1 53.4 195.1 53.3 195.2 53.3C195.3 53.2 195.3 53.2 195.4 53.2C195.5 53.2 195.6 53.2 195.6 53.3C195.7 53.3 195.7 53.4 195.7 53.5ZM195.6 58.2H195.1V55H195.6V58.2Z" fill="white"/>
<path d="M199.4 58.2H198.9V56C198.9 55.3 198.7 55 198.2 55C197.7 55 197.4 55.3 197.2 55.9V58.2H196.7V55H197.2V55.4C197.5 55 197.8 54.9 198.2 54.9C198.6 54.9 198.9 55 199 55.1C199.2 55.3 199.3 55.6 199.3 56V58.2H199.4Z" fill="white"/>
<path d="M202.8 56.1V58.2H202.3V57.9C202.1 58.1 201.8 58.2 201.5 58.2C201.2 58.2 200.9 58.1 200.7 57.9C200.5 57.7 200.3 57.5 200.3 57.1C200.3 56.8 200.4 56.5 200.7 56.3C200.9 56.1 201.2 56 201.4 56C201.5 56 201.6 56 201.6 56C201.8 56 201.9 56.1 202 56.1L201.9 56.3C201.7 56.2 201.6 56.1 201.4 56.1C201.2 56.1 201 56.2 200.9 56.3C200.8 56.5 200.7 56.7 200.7 57C200.7 57.3 200.8 57.5 200.9 57.6C201 57.8 201.2 57.8 201.4 57.8C201.7 57.8 202 57.6 202.2 57.3V55.8C202.2 55.1 202 54.8 201.5 54.8C201.2 54.8 201 54.9 200.7 55.1L200.6 54.9C200.8 54.7 201.1 54.7 201.5 54.7C202.4 54.9 202.8 55.3 202.8 56.1Z" fill="white"/>
<path d="M205.2 55.1H204.6V57.1C204.6 57.4 204.6 57.7 204.7 57.8C204.8 57.9 204.9 58 205.2 58V58.2C204.5 58.2 204.1 57.8 204.1 57.1V55.1H203.8V54.9H204.1V54.5H204.6V54.9H205.2V55.1Z" fill="white"/>
<path d="M206.7 53.5C206.7 53.6 206.7 53.7 206.6 53.7C206.5 53.7 206.5 53.8 206.4 53.8C206.3 53.8 206.2 53.8 206.2 53.7C206.2 53.6 206.1 53.6 206.1 53.5C206.1 53.4 206.1 53.3 206.2 53.3C206.3 53.2 206.3 53.2 206.4 53.2C206.5 53.2 206.6 53.2 206.6 53.3C206.7 53.3 206.7 53.4 206.7 53.5ZM206.6 58.2H206.1V55H206.6V58.2Z" fill="white"/>
<path d="M211 56.5C211 57 210.8 57.4 210.5 57.7C210.2 58 209.8 58.2 209.3 58.2C208.8 58.2 208.5 58 208.1 57.7C207.8 57.4 207.6 57 207.6 56.5C207.6 56 207.8 55.6 208.1 55.3C208.4 55 208.8 54.8 209.3 54.8C209.8 54.8 210.1 55 210.5 55.3C210.8 55.7 211 56.1 211 56.5ZM210.5 56.5C210.5 56.1 210.4 55.7 210.2 55.4C210 55.1 209.7 55 209.4 55C209.1 55 208.8 55.1 208.6 55.4C208.4 55.7 208.3 56 208.3 56.5C208.3 56.9 208.4 57.3 208.6 57.6C208.8 57.9 209.1 58 209.4 58C209.7 58 210 57.9 210.2 57.6C210.3 57.3 210.5 57 210.5 56.5Z" fill="white"/>
<path d="M214.6 58.2H214.1V56C214.1 55.3 213.9 55 213.4 55C212.9 55 212.6 55.3 212.4 55.9V58.2H211.9V55H212.4V55.4C212.7 55 213 54.9 213.4 54.9C213.8 54.9 214.1 55 214.2 55.1C214.4 55.3 214.5 55.6 214.5 56V58.2H214.6Z" fill="white"/>
<path d="M220.4 56.5C220.4 57 220.2 57.4 219.9 57.7C219.6 58 219.2 58.2 218.7 58.2C218.2 58.2 217.9 58 217.5 57.7C217.2 57.4 217 57 217 56.5C217 56 217.2 55.6 217.5 55.3C217.8 55 218.2 54.8 218.7 54.8C219.2 54.8 219.5 55 219.9 55.3C220.2 55.7 220.4 56.1 220.4 56.5ZM219.9 56.5C219.9 56.1 219.8 55.7 219.6 55.4C219.4 55.1 219.1 55 218.8 55C218.5 55 218.2 55.1 218 55.4C217.8 55.7 217.7 56 217.7 56.5C217.7 56.9 217.8 57.3 218 57.6C218.2 57.9 218.5 58 218.8 58C219.1 58 219.4 57.9 219.6 57.6C219.8 57.3 219.9 57 219.9 56.5Z" fill="white"/>
<path d="M222.7 55.1H222.1V58.2H221.6V55.1H221.3V54.9H221.6V54.2C221.6 53.5 222 53.2 222.7 53.2V53.4C222.5 53.4 222.3 53.5 222.2 53.6C222.1 53.7 222.1 54 222.1 54.3V55H222.7V55.1Z" fill="white"/>
<path d="M129.5 67.2H129V65C129 64.3 128.8 64 128.3 64C127.8 64 127.5 64.3 127.3 64.9V67.2H126.9V64H127.4V64.4C127.7 64 128 63.9 128.4 63.9C128.8 63.9 129.1 64 129.2 64.1C129.4 64.3 129.5 64.6 129.5 65V67.2V67.2Z" fill="white"/>
<path d="M132.9 65.1V67.2H132.4V66.9C132.2 67.1 131.9 67.2 131.6 67.2C131.3 67.2 131 67.1 130.8 66.9C130.6 66.7 130.4 66.5 130.4 66.1C130.4 65.8 130.5 65.5 130.8 65.3C131 65.1 131.3 65 131.5 65C131.6 65 131.7 65 131.7 65C131.9 65 132 65.1 132.1 65.1L132 65.3C131.8 65.2 131.7 65.1 131.5 65.1C131.3 65.1 131.1 65.2 131 65.3C130.9 65.5 130.8 65.7 130.8 66C130.8 66.3 130.9 66.5 131 66.6C131.1 66.8 131.3 66.8 131.5 66.8C131.8 66.8 132.1 66.6 132.3 66.3V64.8C132.3 64.1 132.1 63.8 131.6 63.8C131.3 63.8 131.1 63.9 130.8 64.1L130.7 63.9C130.9 63.7 131.2 63.7 131.6 63.7C132.5 63.9 132.9 64.3 132.9 65.1Z" fill="white"/>
<path d="M135.3 64.1H134.7V66.1C134.7 66.4 134.7 66.7 134.8 66.8C134.9 66.9 135 67 135.3 67V67.2C134.6 67.2 134.2 66.8 134.2 66.1V64.1H133.9V63.9H134.2V63.5H134.7V63.9H135.3V64.1Z" fill="white"/>
<path d="M138.8 67.2H138.3V66.6C138.1 67 137.7 67.2 137.3 67.2C136.5 67.2 136.1 66.8 136.1 66V63.8H136.6V66C136.6 66.7 136.8 67 137.3 67C137.6 67 137.8 66.8 138 66.5C138.1 66.3 138.2 66.1 138.2 65.9V63.8H138.7V67.2H138.8Z" fill="white"/>
<path d="M141.5 64L141.4 64.2C141.3 64.1 141.1 64.1 141 64.1C140.9 64.1 140.9 64.1 140.8 64.2C140.6 64.3 140.5 64.6 140.5 65.1V67.2H140V64H140.5V64.4C140.6 64.3 140.6 64.2 140.7 64.1C140.8 64 140.9 64 141.1 64C141.2 63.9 141.3 63.9 141.5 64Z" fill="white"/>
<path d="M144.6 65.1V67.2H144.1V66.9C143.9 67.1 143.6 67.2 143.3 67.2C143 67.2 142.7 67.1 142.5 66.9C142.3 66.7 142.1 66.5 142.1 66.1C142.1 65.8 142.2 65.5 142.5 65.3C142.7 65.1 143 65 143.2 65C143.3 65 143.4 65 143.4 65C143.6 65 143.7 65.1 143.8 65.1L143.7 65.3C143.5 65.2 143.4 65.1 143.2 65.1C143 65.1 142.8 65.2 142.7 65.3C142.6 65.5 142.5 65.7 142.5 66C142.5 66.3 142.6 66.5 142.7 66.6C142.8 66.8 143 66.8 143.2 66.8C143.5 66.8 143.8 66.6 144 66.3V64.8C144 64.1 143.8 63.8 143.3 63.8C143 63.8 142.8 63.9 142.5 64.1L142.4 63.9C142.6 63.7 142.9 63.7 143.3 63.7C144.2 63.9 144.6 64.3 144.6 65.1Z" fill="white"/>
<path d="M146.2 67.2H145.7V62.2H146.2V67.2Z" fill="white"/>
<path d="M149.1 67.2H148.6V62.2H149.1V67.2Z" fill="white"/>
<path d="M152.6 65.1V67.2H152.1V66.9C151.9 67.1 151.6 67.2 151.3 67.2C151 67.2 150.7 67.1 150.5 66.9C150.3 66.7 150.1 66.5 150.1 66.1C150.1 65.8 150.2 65.5 150.5 65.3C150.7 65.1 151 65 151.2 65C151.3 65 151.4 65 151.4 65C151.6 65 151.7 65.1 151.8 65.1L151.7 65.3C151.5 65.2 151.4 65.1 151.2 65.1C151 65.1 150.8 65.2 150.7 65.3C150.6 65.5 150.5 65.7 150.5 66C150.5 66.3 150.6 66.5 150.7 66.6C150.8 66.8 151 66.8 151.2 66.8C151.5 66.8 151.8 66.6 152 66.3V64.8C152 64.1 151.8 63.8 151.3 63.8C151 63.8 150.8 63.9 150.5 64.1L150.4 63.9C150.6 63.7 150.9 63.7 151.3 63.7C152.2 63.9 152.6 64.3 152.6 65.1Z" fill="white"/>
<path d="M156.3 67.2H155.9V65C155.9 64.3 155.7 64 155.2 64C154.7 64 154.4 64.3 154.2 64.9V67.2H153.7V64H154.2V64.4C154.5 64 154.8 63.9 155.2 63.9C155.6 63.9 155.9 64 156 64.1C156.2 64.3 156.3 64.6 156.3 65V67.2V67.2Z" fill="white"/>
<path d="M160.1 67.2H159.6V66.9C159.4 67.1 159.1 67.3 158.8 67.3C158.4 67.3 158 67.1 157.7 66.8C157.4 66.5 157.3 66.1 157.3 65.6C157.3 65.1 157.4 64.7 157.7 64.4C158 64.1 158.3 63.9 158.8 63.9C159 63.9 159.2 63.9 159.4 64L159.3 64.2C159.2 64.1 159 64 158.8 64C158.6 64 158.3 64.1 158.2 64.4C158 64.7 157.9 65.1 157.9 65.5C157.9 65.9 158 66.3 158.2 66.6C158.4 66.9 158.6 67 158.9 67C159.1 67 159.2 66.9 159.4 66.8C159.5 66.7 159.6 66.5 159.7 66.3V62.1H160.2V67.2H160.1Z" fill="white"/>
<path d="M163 66.4C163 66.7 162.9 66.9 162.7 67C162.5 67.2 162.3 67.2 162 67.2C161.6 67.2 161.3 67.1 161.1 66.8L161.3 66.6C161.5 66.9 161.8 67 162.1 67C162.3 67 162.4 66.9 162.5 66.8C162.6 66.7 162.7 66.5 162.7 66.4C162.7 66.2 162.6 66 162.4 65.9C162.3 65.8 162.1 65.7 161.8 65.5C161.4 65.3 161.3 65 161.3 64.6C161.3 64.4 161.4 64.2 161.6 64C161.8 63.9 162 63.8 162.2 63.8C162.4 63.8 162.5 63.8 162.7 63.9C162.9 64 163 64.1 163 64.2L162.8 64.4C162.6 64.1 162.4 64 162.1 64C161.8 64 161.6 64.1 161.6 64.4C161.6 64.6 161.7 64.8 161.9 65C162.3 65.2 162.5 65.4 162.6 65.5C162.9 65.7 163 66 163 66.4Z" fill="white"/>
<path d="M166.7 66.8C166.4 67.1 166 67.2 165.6 67.2C165.1 67.2 164.8 67 164.4 66.7C164.1 66.4 163.9 66 163.9 65.5C163.9 65 164.1 64.6 164.4 64.3C164.7 64 165.1 63.8 165.6 63.8C166 63.8 166.3 63.9 166.6 64.1L166.5 64.3C166.3 64.1 166 63.9 165.6 63.9C165.3 63.9 165 64.1 164.8 64.4C164.6 64.7 164.5 65 164.5 65.4C164.5 65.8 164.6 66.2 164.8 66.4C165 66.7 165.3 66.9 165.6 66.9C166 66.9 166.3 66.7 166.6 66.4L166.7 66.8Z" fill="white"/>
<path d="M169.7 65.1V67.2H169.2V66.9C169 67.1 168.7 67.2 168.4 67.2C168.1 67.2 167.8 67.1 167.6 66.9C167.4 66.7 167.2 66.5 167.2 66.1C167.2 65.8 167.3 65.5 167.6 65.3C167.8 65.1 168.1 65 168.3 65C168.4 65 168.5 65 168.5 65C168.7 65 168.8 65.1 168.9 65.1L168.8 65.3C168.6 65.2 168.5 65.1 168.3 65.1C168.1 65.1 167.9 65.2 167.8 65.3C167.7 65.5 167.6 65.7 167.6 66C167.6 66.3 167.7 66.5 167.8 66.6C167.9 66.8 168.1 66.8 168.3 66.8C168.6 66.8 168.9 66.6 169.1 66.3V64.8C169.1 64.1 168.9 63.8 168.4 63.8C168.1 63.8 167.9 63.9 167.6 64.1L167.5 63.9C167.7 63.7 168 63.7 168.4 63.7C169.3 63.9 169.7 64.3 169.7 65.1Z" fill="white"/>
<path d="M173.6 65.6C173.6 66.1 173.5 66.4 173.2 66.8C172.9 67.1 172.6 67.3 172.2 67.3C172 67.3 171.8 67.3 171.6 67.2L171.7 67C171.8 67.1 172 67.2 172.2 67.2C172.4 67.2 172.7 67.1 172.8 66.8C173 66.5 173.1 66.2 173.1 65.7C173.1 65.3 173 64.9 172.8 64.6C172.6 64.3 172.4 64.2 172.1 64.2C171.9 64.2 171.8 64.3 171.6 64.4C171.5 64.5 171.4 64.7 171.3 64.9V68.5H170.9V64.1H171.4V64.4C171.6 64.2 171.9 64 172.2 64C172.6 64 173 64.2 173.2 64.5C173.5 64.7 173.6 65.1 173.6 65.6Z" fill="white"/>
<path d="M177.4 65.1H175.4V64.9H176.9C176.9 64.3 176.6 64 176.1 64C175.8 64 175.5 64.1 175.3 64.4C175.1 64.7 175 65 175 65.5C175 66 175.1 66.3 175.3 66.6C175.5 66.9 175.8 67 176.1 67C176.5 67 176.8 66.8 177.1 66.5L177.3 66.7C177 67 176.6 67.2 176.2 67.2C175.7 67.2 175.4 67 175 66.7C174.7 66.4 174.5 66 174.5 65.5C174.5 65 174.7 64.6 175 64.3C175.3 64 175.7 63.8 176.1 63.8C176.4 63.8 176.7 63.9 177 64.2C177.3 64.5 177.4 64.8 177.4 65.1Z" fill="white"/>
<path d="M129.3 74.1V76.2H128.8V75.9C128.6 76.1 128.3 76.2 128 76.2C127.7 76.2 127.4 76.1 127.2 75.9C127 75.7 126.8 75.5 126.8 75.1C126.8 74.8 126.9 74.5 127.2 74.3C127.4 74.1 127.7 74 127.9 74C128 74 128.1 74 128.1 74C128.3 74 128.4 74.1 128.5 74.1L128.4 74.3C128.2 74.2 128.1 74.1 127.9 74.1C127.7 74.1 127.5 74.2 127.4 74.3C127.3 74.5 127.2 74.7 127.2 75C127.2 75.3 127.3 75.5 127.4 75.6C127.5 75.8 127.7 75.8 127.9 75.8C128.2 75.8 128.5 75.6 128.7 75.3V73.8C128.7 73.1 128.5 72.8 128 72.8C127.7 72.8 127.5 72.9 127.2 73.1L127.1 72.9C127.3 72.7 127.6 72.7 128 72.7C128.9 72.9 129.3 73.3 129.3 74.1Z" fill="white"/>
<path d="M133 76.2H132.5V74C132.5 73.3 132.3 73 131.8 73C131.3 73 131 73.3 130.8 73.9V76.2H130.3V73H130.8V73.4C131.1 73 131.4 72.9 131.8 72.9C132.2 72.9 132.5 73 132.6 73.1C132.8 73.3 132.9 73.6 132.9 74V76.2H133Z" fill="white"/>
<path d="M136.9 76.2H136.4V75.9C136.2 76.1 135.9 76.3 135.6 76.3C135.2 76.3 134.8 76.1 134.5 75.8C134.2 75.5 134.1 75.1 134.1 74.6C134.1 74.1 134.2 73.7 134.5 73.4C134.8 73.1 135.1 72.9 135.6 72.9C135.8 72.9 136 72.9 136.2 73L136.1 73.2C136 73.1 135.8 73 135.6 73C135.4 73 135.1 73.1 135 73.4C134.8 73.7 134.7 74.1 134.7 74.5C134.7 74.9 134.8 75.3 135 75.6C135.2 75.9 135.4 76 135.7 76C135.9 76 136 75.9 136.2 75.8C136.3 75.7 136.4 75.5 136.5 75.3V71.1H137V76.2H136.9Z" fill="white"/>
<path d="M141.7 74.1V76.2H141.2V75.9C141 76.1 140.7 76.2 140.4 76.2C140.1 76.2 139.8 76.1 139.6 75.9C139.4 75.7 139.2 75.5 139.2 75.1C139.2 74.8 139.3 74.5 139.6 74.3C139.8 74.1 140.1 74 140.3 74C140.4 74 140.5 74 140.5 74C140.7 74 140.8 74.1 140.9 74.1L140.8 74.3C140.6 74.2 140.5 74.1 140.3 74.1C140.1 74.1 139.9 74.2 139.8 74.3C139.7 74.5 139.6 74.7 139.6 75C139.6 75.3 139.7 75.5 139.8 75.6C139.9 75.8 140.1 75.8 140.3 75.8C140.6 75.8 140.9 75.6 141.1 75.3V73.8C141.1 73.1 140.9 72.8 140.4 72.8C140.1 72.8 139.9 72.9 139.6 73.1L139.5 72.9C139.7 72.7 140 72.7 140.4 72.7C141.3 72.9 141.7 73.3 141.7 74.1Z" fill="white"/>
<path d="M144.4 73L144.3 73.2C144.2 73.1 144 73.1 143.9 73.1C143.8 73.1 143.8 73.1 143.7 73.2C143.5 73.3 143.4 73.6 143.4 74.1V76.2H142.9V73H143.4V73.4C143.5 73.3 143.5 73.2 143.6 73.1C143.7 73 143.8 73 144 73C144.1 72.9 144.2 72.9 144.4 73Z" fill="white"/>
<path d="M146.6 73.1H146V75.1C146 75.4 146 75.7 146.1 75.8C146.2 75.9 146.3 76 146.6 76V76.2C145.9 76.2 145.5 75.8 145.5 75.1V73.1H145.2V72.9H145.5V72.5H146V72.9H146.6V73.1Z" fill="white"/>
<path d="M148.1 71.5C148.1 71.6 148.1 71.7 148 71.7C147.9 71.7 147.9 71.8 147.8 71.8C147.7 71.8 147.6 71.8 147.6 71.7C147.6 71.6 147.5 71.6 147.5 71.5C147.5 71.4 147.5 71.3 147.6 71.3C147.7 71.2 147.7 71.2 147.8 71.2C147.9 71.2 148 71.2 148 71.3C148.1 71.3 148.1 71.4 148.1 71.5ZM148.1 76.2H147.6V73H148.1V76.2Z" fill="white"/>
<path d="M150.9 75.4C150.9 75.7 150.8 75.9 150.6 76C150.4 76.2 150.2 76.2 149.9 76.2C149.5 76.2 149.2 76.1 149 75.8L149.2 75.6C149.4 75.9 149.7 76 150 76C150.2 76 150.3 75.9 150.4 75.8C150.5 75.7 150.6 75.5 150.6 75.4C150.6 75.2 150.5 75 150.3 74.9C150.2 74.8 150 74.7 149.7 74.5C149.3 74.3 149.2 74 149.2 73.6C149.2 73.4 149.3 73.2 149.5 73C149.7 72.9 149.9 72.8 150.1 72.8C150.2 72.8 150.4 72.8 150.6 72.9C150.8 73 150.9 73.1 150.9 73.2L150.7 73.4C150.5 73.1 150.3 73 150 73C149.7 73 149.5 73.1 149.5 73.4C149.5 73.6 149.6 73.8 149.8 74C150.2 74.2 150.4 74.4 150.5 74.5C150.8 74.7 150.9 75 150.9 75.4Z" fill="white"/>
<path d="M153.2 73.1H152.6V75.1C152.6 75.4 152.6 75.7 152.7 75.8C152.8 75.9 152.9 76 153.2 76V76.2C152.5 76.2 152.1 75.8 152.1 75.1V73.1H151.8V72.9H152.1V72.5H152.6V72.9H153.2V73.1Z" fill="white"/>
<path d="M154.7 71.5C154.7 71.6 154.7 71.7 154.6 71.7C154.5 71.7 154.5 71.8 154.4 71.8C154.3 71.8 154.2 71.8 154.2 71.7C154.2 71.6 154.1 71.6 154.1 71.5C154.1 71.4 154.1 71.3 154.2 71.3C154.3 71.2 154.3 71.2 154.4 71.2C154.5 71.2 154.6 71.2 154.6 71.3C154.7 71.3 154.7 71.4 154.7 71.5ZM154.6 76.2H154.1V73H154.6V76.2Z" fill="white"/>
<path d="M158.4 75.8C158.1 76.1 157.7 76.2 157.3 76.2C156.8 76.2 156.5 76 156.1 75.7C155.8 75.4 155.6 75 155.6 74.5C155.6 74 155.8 73.6 156.1 73.3C156.4 73 156.8 72.8 157.3 72.8C157.7 72.8 158 72.9 158.3 73.1L158.2 73.3C158 73.1 157.7 72.9 157.3 72.9C157 72.9 156.7 73.1 156.5 73.4C156.3 73.7 156.2 74 156.2 74.4C156.2 74.8 156.3 75.2 156.5 75.4C156.7 75.7 157 75.9 157.3 75.9C157.7 75.9 158 75.7 158.3 75.4L158.4 75.8Z" fill="white"/>
<path d="M163.2 74.1H161.2V73.9H162.7C162.7 73.3 162.4 73 161.9 73C161.6 73 161.3 73.1 161.1 73.4C160.9 73.7 160.8 74 160.8 74.5C160.8 75 160.9 75.3 161.1 75.6C161.3 75.9 161.6 76 161.9 76C162.3 76 162.6 75.8 162.9 75.5L163.1 75.7C162.8 76 162.4 76.2 162 76.2C161.5 76.2 161.2 76 160.8 75.7C160.5 75.4 160.3 75 160.3 74.5C160.3 74 160.5 73.6 160.8 73.3C161.1 73 161.5 72.8 161.9 72.8C162.2 72.8 162.5 72.9 162.8 73.2C163.1 73.5 163.2 73.8 163.2 74.1Z" fill="white"/>
<path d="M166.9 76.2H166.3L165.3 74.7L164.1 76.2H163.9L165.2 74.6L164.1 73H164.7L165.6 74.2L166.6 73H166.8L165.7 74.4L166.9 76.2Z" fill="white"/>
<path d="M170.5 74.6C170.5 75.1 170.4 75.4 170.1 75.8C169.8 76.1 169.5 76.3 169.1 76.3C168.9 76.3 168.7 76.3 168.5 76.2L168.6 76C168.7 76.1 168.9 76.2 169.1 76.2C169.3 76.2 169.6 76.1 169.7 75.8C169.9 75.5 170 75.2 170 74.7C170 74.3 169.9 73.9 169.7 73.6C169.5 73.3 169.3 73.2 169 73.2C168.8 73.2 168.7 73.3 168.5 73.4C168.4 73.5 168.3 73.7 168.2 73.9V77.5H167.7V73.1H168.2V73.4C168.4 73.2 168.7 73 169 73C169.4 73 169.8 73.2 170 73.5C170.3 73.7 170.5 74.1 170.5 74.6Z" fill="white"/>
<path d="M173 73L172.9 73.2C172.8 73.1 172.6 73.1 172.5 73.1C172.4 73.1 172.4 73.1 172.3 73.2C172.1 73.3 172 73.6 172 74.1V76.2H171.5V73H172V73.4C172.1 73.3 172.1 73.2 172.2 73.1C172.3 73 172.4 73 172.6 73C172.7 72.9 172.9 72.9 173 73Z" fill="white"/>
<path d="M176.4 74.1H174.4V73.9H175.9C175.9 73.3 175.6 73 175.1 73C174.8 73 174.5 73.1 174.3 73.4C174.1 73.7 174 74 174 74.5C174 75 174.1 75.3 174.3 75.6C174.5 75.9 174.8 76 175.1 76C175.5 76 175.8 75.8 176.1 75.5L176.3 75.7C176 76 175.6 76.2 175.2 76.2C174.7 76.2 174.4 76 174 75.7C173.7 75.4 173.5 75 173.5 74.5C173.5 74 173.7 73.6 174 73.3C174.3 73 174.7 72.8 175.1 72.8C175.4 72.8 175.7 72.9 176 73.2C176.3 73.5 176.4 73.8 176.4 74.1Z" fill="white"/>
<path d="M179.1 75.4C179.1 75.7 179 75.9 178.8 76C178.6 76.2 178.4 76.2 178.1 76.2C177.7 76.2 177.4 76.1 177.2 75.8L177.3 75.6C177.5 75.9 177.8 76 178.1 76C178.3 76 178.4 75.9 178.5 75.8C178.6 75.7 178.7 75.5 178.7 75.4C178.7 75.2 178.6 75 178.4 74.9C178.3 74.8 178.1 74.7 177.8 74.5C177.4 74.3 177.3 74 177.3 73.6C177.3 73.4 177.4 73.2 177.6 73C177.8 72.9 178 72.8 178.2 72.8C178.4 72.8 178.5 72.8 178.7 72.9C178.9 73 179 73.1 179 73.2L178.8 73.4C178.6 73.1 178.4 73 178.1 73C177.8 73 177.6 73.1 177.5 73.4C177.5 73.6 177.6 73.8 177.8 74C178.2 74.2 178.4 74.4 178.5 74.5C179 74.7 179.2 75 179.1 75.4Z" fill="white"/>
<path d="M181.9 75.4C181.9 75.7 181.8 75.9 181.6 76C181.4 76.2 181.2 76.2 180.9 76.2C180.5 76.2 180.2 76.1 180 75.8L180.1 75.6C180.3 75.9 180.6 76 180.9 76C181.1 76 181.2 75.9 181.3 75.8C181.4 75.7 181.5 75.5 181.5 75.4C181.5 75.2 181.4 75 181.2 74.9C181.1 74.8 180.9 74.7 180.6 74.5C180.2 74.3 180.1 74 180.1 73.6C180.1 73.4 180.2 73.2 180.4 73C180.6 72.9 180.8 72.8 181 72.8C181.1 72.8 181.3 72.8 181.5 72.9C181.7 73 181.8 73.1 181.8 73.2L181.6 73.4C181.4 73.1 181.2 73 180.9 73C180.6 73 180.4 73.1 180.4 73.4C180.4 73.6 180.5 73.8 180.7 74C181.1 74.2 181.3 74.4 181.4 74.5C181.8 74.7 181.9 75 181.9 75.4Z" fill="white"/>
<path d="M183.5 71.5C183.5 71.6 183.5 71.7 183.4 71.7C183.3 71.7 183.3 71.8 183.2 71.8C183.1 71.8 183 71.8 183 71.7C183 71.6 182.9 71.6 182.9 71.5C182.9 71.4 182.9 71.3 183 71.3C183.1 71.2 183.1 71.2 183.2 71.2C183.3 71.2 183.4 71.2 183.4 71.3C183.5 71.3 183.5 71.4 183.5 71.5ZM183.4 76.2H182.9V73H183.4V76.2Z" fill="white"/>
<path d="M187.8 74.5C187.8 75 187.6 75.4 187.3 75.7C187 76 186.6 76.2 186.1 76.2C185.6 76.2 185.3 76 184.9 75.7C184.6 75.4 184.4 75 184.4 74.5C184.4 74 184.6 73.6 184.9 73.3C185.2 73 185.6 72.8 186.1 72.8C186.6 72.8 186.9 73 187.3 73.3C187.6 73.7 187.8 74.1 187.8 74.5ZM187.2 74.5C187.2 74.1 187.1 73.7 186.9 73.4C186.7 73.1 186.4 73 186.1 73C185.8 73 185.5 73.1 185.3 73.4C185.1 73.7 185 74 185 74.5C185 74.9 185.1 75.3 185.3 75.6C185.5 75.9 185.8 76 186.1 76C186.4 76 186.7 75.9 186.9 75.6C187.1 75.3 187.2 75 187.2 74.5Z" fill="white"/>
<path d="M191.4 76.2H190.9V74C190.9 73.3 190.7 73 190.2 73C189.7 73 189.4 73.3 189.2 73.9V76.2H188.7V73H189.2V73.4C189.5 73 189.8 72.9 190.2 72.9C190.6 72.9 190.9 73 191 73.1C191.2 73.3 191.3 73.6 191.3 74V76.2H191.4Z" fill="white"/>
<path d="M193.1 75.9C193.1 76 193.1 76.1 193 76.1C192.9 76.1 192.9 76.2 192.8 76.2C192.7 76.2 192.6 76.2 192.6 76.1C192.6 76 192.5 76 192.5 75.9C192.5 75.8 192.5 75.7 192.6 75.7C192.7 75.7 192.7 75.6 192.8 75.6C192.9 75.6 193 75.6 193 75.7C193 75.8 193.1 75.8 193.1 75.9Z" fill="white"/>
</g>
</svg>
