<?xml version="1.0" encoding="utf-8"?>
<!-- Generator: Adobe Illustrator 25.2.3, SVG Export Plug-In . SVG Version: 6.00 Build 0)  -->
<svg version="1.1" id="圖層_1" xmlns="http://www.w3.org/2000/svg" xmlns:xlink="http://www.w3.org/1999/xlink" x="0px" y="0px"
	 viewBox="0 0 200 70" style="enable-background:new 0 0 200 70;" xml:space="preserve">
<style type="text/css">
	.st0{fill:#00404B;}
	.st1{fill:#C79F62;}
</style>
<path class="st0" d="M1.9,2.4h2.7c0.5-0.7,0.9-1.1,1.1-1.1s0.5,0.2,1.1,0.6c0.5,0.4,0.8,0.7,0.8,0.8S7.5,3,7.3,3.1
	C7,3.4,6.8,3.5,6.8,3.6v5.9c0.1,2.3,0.1,3.8,0.1,4.4c0,0.5-0.4,0.7-1.1,0.7c-0.5,0-0.8-0.1-0.9-0.4v-1.3H2.2v1.7
	C2.1,15,1.7,15.2,1,15.2c-0.4,0-0.7-0.1-0.8-0.2c0-2.1,0-4.2,0.1-6.2V4.7c0-1.7-0.1-2.8-0.1-3.1L1.9,2.4z M4.9,7.3V3H2.2v4.4
	L4.9,7.3L4.9,7.3z M4.9,12.5V7.9H2.2v4.6H4.9z M10.1,14c-0.3,0.9-0.8,1.8-1.8,2.7c-1.2,1.3-2.5,2.1-3.7,2.5c-0.1,0-0.2-0.1-0.3-0.2
	c1.4-1,2.6-2.2,3.4-3.8C8.5,14,8.9,12,8.9,9.1c0-3.3,0-5.3,0-6.1c0-0.7,0-1.4-0.1-2.3l2.2,1h3.7c0.4-0.6,0.8-1,1-1.2
	c0.2,0,0.5,0.2,1.1,0.5c0.6,0.4,0.9,0.7,0.9,0.9c0,0.1-0.1,0.3-0.4,0.4c-0.3,0.2-0.4,0.3-0.5,0.4v13.4c0,1.4-0.8,2.2-2.3,2.5
	c-0.2,0-0.4-0.1-0.4-0.4c-0.2-0.5-0.7-1-1.2-1.2c-0.8-0.3-1.4-0.5-1.7-0.6c0,0,0-0.1,0-0.4c0.8,0.1,1.9,0.1,3.3,0.1
	c0.3,0,0.5-0.2,0.5-0.5v-4h-4.3C10.5,12.8,10.4,13.5,10.1,14z M10.8,9.1c0,0.8,0,1.6-0.1,2.2H15V7h-4.2V9.1z M10.8,6.4H15V2.3h-4.2
	V6.4z"/>
<path class="st0" d="M37.6,11.9c0.9,0.8,1.3,1.2,1.3,1.4s-0.1,0.3-0.2,0.3h-7.1c1,0.9,2,1.6,3.2,2c1.2,0.5,2.6,0.7,4.2,0.8
	c0,0.2,0,0.3-0.1,0.4c-0.1,0-0.3,0.2-0.5,0.4c-0.1,0.1-0.3,0.4-0.4,0.8c-0.1,0.3-0.2,0.4-0.4,0.4c-0.7,0-1.8-0.5-3.4-1.4
	c-1.4-0.8-2.4-1.9-3.1-3.3h-0.3l0.1,5.1c0,0.4-0.4,0.6-1.2,0.7c-0.6,0-0.9-0.2-0.9-0.5c0-1.6,0-3.1,0-4.5c-1.5,1.7-4.3,3-8.5,4
	c-0.1,0-0.2-0.1-0.3-0.3c3.4-1.2,5.6-2.6,6.7-4c0.2-0.2,0.3-0.4,0.4-0.5h-1.6c-2.4,0-4,0.1-4.6,0.3c-0.1-0.4-0.3-0.7-0.5-1.1
	c1,0.1,2.8,0.2,5.2,0.2h3.1v-0.2c0-0.7-0.1-1.2-0.1-1.6c-0.6,0.2-1.3,0.4-2,0.5c0,0-0.1-0.1-0.2-0.3c1.7-0.6,2.9-1.5,3.7-2.7
	c-0.6-0.4-1.1-0.7-1.7-0.9c0,0,0.1-0.1,0.1-0.3c0.7,0.1,1.4,0.2,1.9,0.4c0.2-0.5,0.3-1,0.3-1.4c-0.8,0-1.4,0.1-1.7,0.2
	c-0.1-0.3-0.3-0.7-0.4-1c0.3,0.1,1,0.2,2,0.2h3.6c0.2-0.3,0.4-0.5,0.6-0.7c-0.4,0-0.6-0.2-0.7-0.7c0-0.1-0.1-0.3-0.1-0.5
	c0-0.2-0.1-0.3-0.1-0.5c-0.1-0.2-0.2-0.4-0.3-0.5H32c-0.2,0.2-0.4,0.4-0.5,0.5c-0.7,0.6-1.4,1.2-2.2,1.6c0,0-0.1-0.1-0.2-0.2
	c1.3-1.6,2.2-3.1,2.5-4.6c1.8,0.5,2.7,0.9,2.7,1.1s-0.4,0.3-1.2,0.4c-0.1,0.2-0.3,0.4-0.4,0.6h3.7c0.5-0.8,0.9-1.2,1.1-1.3h0.1
	c0.1,0.1,0.4,0.3,0.8,0.6c0.5,0.5,0.8,0.8,0.9,1c0,0.2-0.1,0.3-0.1,0.3h-4.4C35.6,3.4,36,3.8,36,4.4c0,0.3-0.1,0.6-0.3,0.7
	c0.3,0.1,0.6,0.4,1,0.6c0.5,0.4,0.7,0.7,0.7,0.8c0,0.2-0.3,0.5-0.9,0.8v1.9c0,0.5,0.2,0.7,0.6,0.8c0,0,0,0,0.1,0
	c0.5,0,0.7-0.1,0.8-0.3c0.2-0.3,0.4-0.9,0.5-1.7c0,0,0.1,0.1,0.4,0.1c0,0.3,0,0.7,0,1.2c0,0.2,0.1,0.4,0.3,0.5
	c0.3,0.1,0.5,0.4,0.5,0.6c0,0.3-0.1,0.4-0.1,0.5c-0.2,0.4-0.6,0.6-1.2,0.7c-0.3,0.1-0.5,0.1-0.8,0.1s-0.5,0-0.7,0
	c-1.2,0-1.8-0.6-1.9-1.9V6.7h-1.9c-0.1,0.9-0.3,1.5-0.5,1.8v0.1c1.1,0.5,1.7,1,1.7,1.7c0,0.2,0,0.3-0.1,0.5
	c-0.1,0.3-0.3,0.4-0.6,0.4s-0.7-0.3-1.2-0.9c-0.2-0.2-0.4-0.4-0.6-0.5c-0.6,0.7-1.4,1.2-2.4,1.5c2,0.3,3,0.6,3,0.8
	c0,0.1-0.1,0.3-0.4,0.4c-0.4,0.2-0.7,0.3-0.7,0.4v0.3h4.8C36.7,12.4,37.2,11.9,37.6,11.9c-0.1-0.1,0-0.1,0.1-0.1
	C37.2,11.7,37.4,11.8,37.6,11.9z M23.9,3c-1,1.3-2.2,2.2-3.5,2.9c-0.1-0.1-0.2-0.2-0.4-0.2c1.4-1.4,2.5-3.2,3.1-5.5
	c1.8,0.6,2.7,0.9,2.7,1.1c0,0.3-0.4,0.4-1,0.5c-0.1,0.2-0.3,0.4-0.4,0.6h2.7c0.5-0.8,0.9-1.2,1.1-1.3h0.1c0.2,0.1,0.4,0.3,0.8,0.6
	c0.5,0.5,0.8,0.8,0.9,1C30,2.9,29.9,3,29.9,3h-4.6c1,0.3,1.6,0.9,1.6,1.6c0,0.6-0.3,0.9-0.9,0.9c-0.4,0-0.6-0.2-0.7-0.7
	c0-0.1-0.1-0.3-0.1-0.6c0-0.2-0.1-0.4-0.1-0.6c-0.1-0.3-0.3-0.5-0.4-0.7L23.9,3L23.9,3z M23.2,6.8c-0.9,0-1.6,0.1-2,0.2
	c-0.1-0.3-0.2-0.5-0.3-0.8c0.4,0.1,1.2,0.1,2.3,0.1h2.9c0.3-0.4,0.5-0.7,0.8-1c0.1-0.1,0.2-0.1,0.2-0.1c0.1,0,0.2,0.1,0.4,0.2
	c0.7,0.6,1.1,1,1.2,1.2c0,0.2-0.1,0.3-0.1,0.3h-3v2.7c1.1-0.1,2.1-0.2,2.9-0.4l0.1,0.1c-1.6,0.8-3.8,1.6-6.7,2.1
	c0,0.4-0.1,0.5-0.2,0.5s-0.2-0.2-0.4-0.5c-0.2-0.3-0.4-0.9-0.7-1.6c1.2,0,2.3-0.1,3.3-0.2V6.8H23.2z"/>
<path class="st0" d="M48.4,7c0.7,0.6,1.1,1,1.1,1.2s-0.1,0.3-0.2,0.3h-2.1V14c0.7-0.4,1.4-0.9,2.2-1.4c0,0,0,0.2,0.1,0.4
	c-0.9,1.2-2,2.4-3.3,3.7c0,0.1-0.1,0.4-0.1,0.8c0,0.1-0.1,0.2-0.2,0.2c-0.2,0-0.7-0.7-1.5-2.2c0.3,0,0.7-0.2,1.2-0.5V8.5h-1
	c-0.1,1.9-0.1,3.2-0.3,3.9c-0.5,3.5-1.5,5.8-3.1,6.7c0-0.1-0.1-0.1-0.2-0.2c0.9-1.4,1.5-3.8,1.8-7c0.1-1.2,0.1-2.3,0.1-3.4
	c-0.9,0-1.5,0.1-1.7,0.3c-0.1-0.4-0.3-0.7-0.5-1.1c0.4,0.1,1.1,0.2,2,0.2h1.5V2.1c0-0.8,0-1.4-0.1-1.9c1.7,0.3,2.5,0.5,2.5,0.7
	s-0.1,0.3-0.3,0.3c-0.4,0.1-0.5,0.3-0.5,0.4v6.3h0.9c0.5-0.6,0.9-1,1.2-1.2H48C48.1,6.8,48.3,6.9,48.4,7z M43.7,5.4
	c0,0.5-0.1,0.8-0.3,1c-0.2,0.3-0.4,0.4-0.8,0.4c-0.2,0-0.4-0.4-0.4-1.1c-0.2-1.4-0.5-2.5-0.9-3.2l0.3-0.2C43,3.4,43.7,4.4,43.7,5.4z
	 M49.5,2.8c0.8-0.6,1.2-1.4,1.3-2.3h0.4c0,0.3,0.1,0.6,0.1,1h6c0.5-0.6,0.9-0.9,1.2-1c0.2,0.1,0.5,0.3,0.9,0.7
	c0.5,0.5,0.8,0.8,0.8,1S60,2.5,59.7,2.5s-0.4,0.1-0.5,0.1c-0.5,0.4-1.3,0.8-2.1,1.2c-0.1,0-0.2-0.1-0.2-0.2c0.3-0.5,0.5-1.1,0.6-1.6
	h-6.2v0.1c0,1.6-0.4,2.3-1.2,2.3c-0.7,0-1.1-0.2-1.1-0.7c0-0.2,0.1-0.4,0.2-0.6c-0.2,0-0.3,0.1-0.5,0.1c-0.4,1.1-1,2.3-1.9,3.5
	c-0.1,0-0.3-0.1-0.5-0.1c0.4-1.6,0.8-3.2,0.9-4.9C48.6,2.3,49.4,2.6,49.5,2.8z M58.5,4.1c0.7,0.7,1.1,1.1,1.1,1.2
	c0,0.2-0.1,0.3-0.2,0.3h-4.5v1.6h1.4c0.5-0.5,0.8-0.8,1-0.8s0.5,0.2,1,0.6S59,7.6,59,7.8c0,0.1-0.1,0.3-0.3,0.4
	c-0.3,0.2-0.4,0.4-0.5,0.4v2.6c0.1,1,0.1,1.7,0.1,2c0,0.4-0.4,0.7-1,0.7c-0.5,0-0.8-0.1-0.8-0.4v-0.3h-1.7v1.5c0,0.2,0,0.4,0,0.5
	h2.4c0.5-0.6,0.9-1,1.2-1.2h0.1c0.1,0.1,0.3,0.2,0.4,0.3c0.7,0.6,1.1,1,1.1,1.2s-0.1,0.3-0.2,0.3h-5c0,1.4,0,2.5,0.1,3.1
	c0,0.3-0.4,0.5-1.2,0.5c-0.4,0-0.6-0.1-0.6-0.4c0-0.6,0-1.7,0.1-3.2h-1.5c-1.5,0-2.4,0.1-2.8,0.2c-0.1-0.4-0.3-0.7-0.5-1.1
	c0.6,0.1,1.6,0.2,3,0.2h1.8v-2h-1.7v0.4c-0.1,0.4-0.4,0.6-1.1,0.6c-0.4,0-0.6-0.1-0.7-0.2c0-1.1,0-2.2,0.1-3.3V8.4
	c0-0.9-0.1-1.5-0.1-1.7l1.6,0.6h2V5.7h-0.9c-1.3,0-2.1,0.1-2.4,0.3c-0.1-0.4-0.3-0.7-0.5-1.1C50,5,50.8,5.1,52,5.1h1.3V4.4
	c0-0.6-0.1-1.2-0.2-1.7C53.7,2.8,54.3,2.9,55,3c0.5,0.1,0.7,0.2,0.7,0.4c0,0.1-0.1,0.2-0.3,0.3c-0.3,0.1-0.5,0.2-0.5,0.3v1.2h1.8
	c0.5-0.6,0.9-1,1.2-1.2H58C58.2,4,58.3,4,58.5,4.1z M53.3,9.8v-2h-1.7v2H53.3z M53.3,12.5v-2.2h-1.7v2.2H53.3z M54.9,9.8h1.7v-2
	h-1.7V9.8z M54.9,12.5h1.7v-2.2h-1.7V12.5z"/>
<path class="st0" d="M79.2,10.4c0.8,0.7,1.2,1.1,1.2,1.3S80.3,12,80.2,12h-7.6v2.5h3.1c0.3-0.4,0.6-0.8,1-1.2
	c0.1-0.1,0.2-0.2,0.2-0.2c0.1,0,0.2,0.1,0.4,0.2c0.8,0.7,1.2,1.2,1.3,1.4c0,0.2-0.1,0.3-0.2,0.3h-5.9v2.9h4.9
	c0.7-0.9,1.2-1.4,1.5-1.6c0,0,0.1,0,0.2,0c0.2,0.1,0.4,0.2,0.6,0.4c0.9,0.8,1.4,1.3,1.4,1.6c0,0.2-0.1,0.3-0.2,0.3H67.1
	c-2.5,0-4.1,0.1-4.7,0.2c-0.1-0.4-0.3-0.7-0.5-1.1c1,0.1,2.9,0.2,5.4,0.2h3.3V15h-3.5c-0.9,0-1.6,0.1-2,0.1
	c-0.1-0.2-0.2-0.5-0.3-0.8c0.4,0.1,1.2,0.1,2.3,0.1h3.5V12h-2.8c-2.3,0-3.7,0.1-4.2,0.3c-0.1-0.4-0.3-0.7-0.5-1.1
	c1,0.1,2.6,0.2,4.9,0.2h9.4c0.6-0.7,1-1.2,1.3-1.3c0,0,0.1,0,0.2,0C78.9,10.1,79.1,10.2,79.2,10.4z M72.6,1c0,0.1-0.2,0.2-0.5,0.2
	s-0.5,0.1-0.6,0.1c-0.4,0.5-0.9,1-1.6,1.4h6.3c0.5-0.7,0.9-1.1,1.1-1.1s0.5,0.2,1.1,0.6c0.5,0.4,0.8,0.7,0.8,0.8s-0.1,0.3-0.4,0.4
	c-0.4,0.2-0.6,0.4-0.6,0.5v3c0.1,1.2,0.1,1.9,0.1,2.2c0,0.5-0.4,0.7-1.1,0.7c-0.5,0-0.8-0.1-0.9-0.4V9h-9.7v0.5
	c-0.1,0.4-0.5,0.6-1.2,0.6c-0.4,0-0.7-0.1-0.8-0.2c0-1.3,0-2.5,0.1-3.7V4c0-1-0.1-1.6-0.1-1.8l1.8,0.7h2.9c0.3-0.8,0.4-1.7,0.5-2.6
	C71.7,0.6,72.6,0.8,72.6,1z M76.4,3.4h-9.7v2.3h9.7V3.4z M66.7,8.7h9.7V6.3h-9.7V8.7z"/>
<path class="st0" d="M4.4,36.5c0-0.4,0-1.7,0-3.9c0-1-0.1-1.6-0.7-1.6c-0.3,0-0.7,0.1-1.1,0.2l-2,0.6c-0.1,0-0.2,0-0.3-0.1l-0.2-0.5
	c-0.1-0.1,0-0.2,0.2-0.3l5.8-3.3c0.1-0.1,0.3-0.2,0.4-0.2c0.2,0,0.2,0.2,0.2,0.4c0,0.3-0.1,4.6-0.1,8.3v1.2c0,0.3,0,6.3,0,6.6
	c0,1.5,0.1,1.7,2,1.7h1c0.2,0,0.3,0.1,0.3,0.2v0.6c0,0.2-0.1,0.2-0.3,0.2c-0.3,0-4.1-0.1-4.3-0.1c-0.3,0-4.2,0.1-4.3,0.1
	c-0.1,0-0.2-0.1-0.2-0.2v-0.7c0-0.1,0.2-0.2,0.4-0.2h1.3c1.8,0,1.9-0.1,1.9-1.6c0-0.4,0-6,0-6.5V36.5z"/>
<path class="st0" d="M12.9,45.3c0-0.5,0.3-1.6,1.7-1.6c0.8,0,1.6,0.6,1.6,1.7c0,0.9-0.7,1.5-1.6,1.5C14,47,12.9,46.6,12.9,45.3z"/>
<path class="st0" d="M22.6,34.6c0.7-0.1,2.6,0.1,3.2,0.3c2.7,0.7,4.3,2.7,4.3,5.2c0,4-3.2,6.9-7.1,6.9c-2.1,0-3.6-0.8-3.6-1.6
	c0-0.4,0.3-0.7,0.6-0.7c0.5,0,1,0.3,1.4,0.6s1.4,0.5,2.2,0.5c2.2,0,4.4-1.8,4.4-4.3c0-2-0.6-3.5-2.5-4.3c-1.5-0.7-2.9-0.7-3.6-0.6
	c-0.2,0-0.3,0.1-0.5-0.1c-0.1-0.1-0.2-0.1-0.1-0.3l1-7.9c0-0.3,0.1-0.4,0.4-0.4h6c1,0,1.2-0.5,1.7-1.4c0.1-0.2,0.2-0.2,0.3-0.1
	c0.3,0.1,0.4,0.2,0.4,0.3l-1,2.8c-0.2,0.4-0.3,0.6-1.2,0.6h-5.8L22.6,34.6z"/>
<path class="st0" d="M36.3,36.8c0-0.4-0.1-4.9-0.1-5.1c0-0.3-0.1-0.6-0.7-0.6h-0.8c-0.1,0-0.2,0-0.2-0.2v-0.6c0-0.1,0-0.1,0.2-0.1
	c0.3,0,1,0.1,2.7,0.1c1.5,0,2.3-0.1,2.6-0.1c0.1,0,0.2,0,0.2,0.1v0.6c0,0.1,0,0.2-0.2,0.2h-1c-0.5,0-0.6,0.2-0.6,0.7
	c0,0.3-0.1,3.9-0.1,5.1V38h0.4c0.4,0,0.6-0.1,0.9-0.3c0.5-0.4,4.8-5.8,5-6.1c0.2-0.3,0.1-0.6-0.2-0.6h-0.3C44,31,44,31,44,30.8v-0.5
	c0-0.1,0-0.2,0.1-0.2c0.3,0,1.2,0.1,2.3,0.1c0.7,0,1.5-0.1,1.7-0.1c0.1,0,0.2,0,0.2,0.1v0.6c0,0.1-0.1,0.2-0.2,0.2h-0.5
	c-0.3,0-0.9,0.1-1.3,0.4c-0.9,0.6-4.4,4.7-5.4,6c0.2,0.3,6,7.4,6.2,7.6c0.4,0.5,1.1,0.6,1.6,0.6h0.8c0.1,0,0.2,0.1,0.2,0.2v0.6
	c0,0.1,0,0.2-0.2,0.2s-1.1-0.1-2.8-0.1c-1.9,0-2.8,0.1-3.1,0.1c-0.1,0-0.1,0-0.1-0.1V46c0-0.1,0-0.1,0.1-0.1H44
	c0.4,0,0.5-0.4,0.4-0.6c-0.2-0.5-4.3-5.8-4.6-6.1c-0.4-0.3-0.7-0.3-1-0.3h-0.4v1.7c0,1.1,0,4.5,0.1,4.9c0,0.3,0.2,0.5,0.5,0.5h1
	c0.1,0,0.2,0,0.2,0.1v0.6c0,0.1,0,0.2-0.1,0.2c-0.3,0-1-0.1-2.6-0.1c-1.8,0-2.6,0.1-2.8,0.1c-0.1,0-0.2,0-0.2-0.2v-0.6
	c0-0.1,0.1-0.1,0.2-0.1h0.9c0.4,0,0.6-0.2,0.6-0.4s0.1-4.4,0.1-7.2C36.3,38.4,36.3,36.8,36.3,36.8z"/>
<path class="st0" d="M62.2,43c0.3-0.3,2.6-5.8,2.8-6.1s2.7-5.7,2.7-6.2c0-0.3,0.3-0.3,0.5-0.3c3.1,0,3.8-0.1,4.1-0.1
	c0.1,0,0.1,0.1,0.1,0.2V31c0,0.1,0,0.2-0.2,0.2h-1c-0.7,0-0.8,0.4-0.8,0.9c0,0.7-0.1,4-0.1,5.5v1.6c0,1.1,0.1,4.9,0.1,5.3
	c0,0.9,0.2,1.2,0.8,1.2h1.4c0.1,0,0.2,0.1,0.2,0.2v0.5c0,0.1,0,0.2-0.2,0.2c-0.3,0-0.7-0.1-3.2-0.1c-2.1,0-3,0.1-3.3,0.1
	c-0.2,0-0.2-0.1-0.2-0.2V46c0-0.1,0-0.2,0.2-0.2h1.6c0.4,0,0.6-0.1,0.6-0.8c0-0.3,0-4.3,0-6v-1.5c0-1.5,0-5.6-0.1-5.8
	c-0.2,0.3-3.5,7.5-3.6,7.8s-2.7,6.1-2.8,6.3s-0.3,0.6-0.5,0.6c-0.1,0-0.3-0.2-0.3-0.4c-0.1-0.2-3-7.4-3.1-7.7
	c-0.4-1.1-2.5-6.2-2.9-6.5c-0.1,0.3-0.1,6.1-0.1,6.4c0,0.3,0,5.1,0,5.9c0.1,1.3,0.3,1.7,1.1,1.7h1.1c0.1,0,0.2,0.1,0.2,0.2v0.6
	c0,0.1,0,0.2-0.2,0.2c-0.3,0-0.9-0.1-2.8-0.1c-2,0-2.8,0.1-3,0.1s-0.2,0-0.2-0.2V46c0-0.1,0-0.1,0.1-0.1h1.2c0.9,0,1.1-0.6,1.2-1.4
	c0.3-1.6,0.3-7.5,0.3-7.9c0-0.3,0-3.8,0-4.5c0-0.5,0-0.9-0.9-0.9h-1.4c-0.1,0-0.2-0.1-0.2-0.2v-0.6c0-0.1,0-0.1,0.2-0.1
	s0.9,0.1,2.8,0.1c1.1,0,1.7-0.1,2-0.1s0.5,0.1,0.6,0.4L62.2,43z"/>
<path class="st0" d="M84.5,34.6c0.7-0.1,2.6,0.1,3.2,0.3c2.7,0.7,4.3,2.7,4.3,5.2c0,4-3.2,6.9-7.1,6.9c-2.1,0-3.6-0.8-3.6-1.6
	c0-0.4,0.3-0.7,0.6-0.7c0.5,0,1,0.3,1.4,0.6s1.4,0.5,2.2,0.5c2.2,0,4.4-1.8,4.4-4.3c0-2-0.6-3.5-2.5-4.3c-1.5-0.7-2.9-0.7-3.6-0.6
	c-0.2,0-0.3,0.1-0.5-0.1c-0.1-0.1-0.2-0.1-0.1-0.3l1-7.9c0-0.3,0.1-0.4,0.4-0.4h6c1,0,1.2-0.5,1.7-1.4c0.1-0.2,0.2-0.2,0.3-0.1
	c0.3,0.1,0.4,0.2,0.4,0.3l-1,2.8c-0.2,0.4-0.3,0.6-1.2,0.6H85L84.5,34.6z"/>
<path class="st0" d="M104,31.8c0,0.2-0.5,0.3-1.4,0.5c-0.8,1.4-1.7,2.8-2.7,4c-1.2,1.5-2.5,2.7-4.1,3.7c0,0-0.1-0.1-0.2-0.3
	c2.9-3.1,4.7-6.2,5.4-9.2C103,31,104,31.5,104,31.8z M98.8,38.9c-0.1-0.3-0.2-0.7-0.4-1c0.8,0.2,2.1,0.3,3.8,0.3h6.3
	c0.5-0.6,0.9-0.9,1.2-0.9c1.1,0.7,1.7,1.2,1.7,1.6c0,0.1-0.1,0.3-0.4,0.4c-0.3,0.2-0.5,0.3-0.5,0.5c-0.2,3.6-0.6,5.9-1.1,6.9
	c-0.6,1.1-1.5,1.7-2.8,1.7c-0.2,0-0.3-0.2-0.4-0.7c-0.1-0.4-0.4-0.8-0.9-1c-0.4-0.3-0.9-0.5-1.6-0.8c0.1-0.1,0.1-0.3,0.1-0.4
	c0.8,0.2,1.7,0.3,2.6,0.3c0.8,0,1.2-0.3,1.4-0.8c0.4-0.9,0.7-3,0.8-6.2H104c0,0.8-0.1,1.2-0.1,1.2c-0.6,4.5-3.3,7.4-8,8.7
	c-0.1,0-0.1-0.1-0.2-0.1c3.5-1.8,5.6-4.7,6.2-9c0-0.2,0-0.4,0-0.8C100.4,38.7,99.4,38.8,98.8,38.9z M109.3,31c0,0.2-0.2,0.3-0.7,0.4
	c-0.3,0.1-0.5,0.1-0.5,0.3c0,0.7,0.5,1.6,1.6,2.7c1.5,1.5,3.1,2.4,4.9,2.9c0,0.2,0,0.3-0.1,0.4c-0.4,0-0.8,0.1-0.9,0.4
	c-0.2,0.7-0.5,1-0.7,1c-0.7-0.1-1.6-0.7-2.6-2c-1.5-1.6-2.5-3.5-3-5.8H106c-0.8,0-1.3,0-1.6,0.1c-0.1-0.3-0.3-0.6-0.4-0.9
	c0.4,0.1,1,0.2,1.8,0.2h1.1c0.5-0.7,0.8-1,1-1C108.8,30.2,109.3,30.7,109.3,31z"/>
<path class="st0" d="M122,30.3c0,0.2-0.3,0.4-0.9,0.4c0,0.1-0.1,0.1-0.1,0.1c2.2,0.7,3.3,1.5,3.4,2.5c0,0.4-0.1,0.7-0.2,0.8
	s-0.3,0.2-0.5,0.2c-0.3,0-0.7-0.4-1.1-1.1c-0.5-0.7-1.1-1.4-1.8-2c-0.8,1.6-1.7,2.9-2.8,3.9c0.5,0.1,1.1,0.1,2,0.1h0.7
	c0.3-0.4,0.6-0.8,0.9-1.1c0.1-0.1,0.2-0.1,0.2-0.1c0.1,0,0.2,0.1,0.4,0.2c0.7,0.7,1.2,1.1,1.2,1.3s-0.1,0.3-0.2,0.3h-2.3v2.6h0.5
	c0.3-0.4,0.5-0.7,0.8-1c0.1-0.1,0.2-0.1,0.2-0.1c0.1,0,0.2,0.1,0.4,0.2c0.7,0.6,1.1,1,1.2,1.2c0,0.2-0.1,0.3-0.1,0.3H121v6.3
	c1.2-0.2,2.1-0.4,2.8-0.7c0.1,0.1,0.1,0.3,0.2,0.3c-1.2,0.8-3.2,1.6-6.1,2.5c-0.1,0.6-0.2,0.9-0.4,0.9c-0.1,0-0.3-0.3-0.5-0.8
	c-0.2-0.6-0.4-1.2-0.6-2.1c0.4,0.1,1,0.1,1.9,0.1c0.3,0,0.7,0,1-0.1v-6.6H119c-0.9,0-1.5,0.1-2,0.1c-0.1-0.2-0.2-0.5-0.3-0.8
	c0.4,0.1,1.2,0.1,2.3,0.1h0.4v-2.6c-0.5,0-1,0.1-1.3,0.1c-0.1-0.2-0.1-0.4-0.2-0.6c-0.4,0.4-0.8,0.7-1.3,1c-0.1-0.1-0.2-0.1-0.3-0.2
	c1.6-1.8,2.8-4,3.4-6.7C121.2,29.9,122,30.2,122,30.3z M118.8,43.4c0,0.7-0.3,1-1,1c-0.4,0-0.5-0.2-0.6-0.6c0-0.1,0-0.3,0.1-0.6
	c0-0.2,0.1-0.4,0.1-0.8c0-0.9-0.2-1.6-0.5-2.1l0.1-0.1C118.2,41,118.8,42.1,118.8,43.4z M124,40.6c0.4,0.1,0.5,0.3,0.6,0.3
	c0,0.1-0.1,0.2-0.3,0.2c-0.3,0.1-0.5,0.1-0.6,0.2c-0.3,1.2-1,2.1-2,2.8l-0.2-0.1c0.5-1.1,0.8-2.4,0.9-4
	C123.1,40.2,123.6,40.4,124,40.6z M126.4,37.5h5.6c0.5-0.5,0.8-0.8,1-0.8s0.5,0.2,1,0.6c0.5,0.4,0.7,0.6,0.7,0.8
	c0,0.1-0.1,0.2-0.3,0.4c-0.3,0.2-0.5,0.4-0.5,0.4v2.2c0.1,0.9,0.1,1.4,0.1,1.7c0,0.4-0.3,0.7-1,0.7c-0.5,0-0.8-0.1-0.8-0.4V43h-2
	v1.8h1.7c0.5-0.5,0.8-0.9,1-1h0.1c0.1,0.1,0.3,0.2,0.4,0.3c0.7,0.6,1,0.9,1,1.1s-0.1,0.3-0.2,0.3h-4.1v2h2.1c0.6-0.7,1-1.1,1.3-1.3
	h0.1c0.1,0.1,0.3,0.2,0.5,0.3c0.8,0.7,1.2,1.1,1.2,1.3s-0.1,0.3-0.2,0.3h-9c-1.6,0-2.7,0.1-3.1,0.3c-0.1-0.4-0.3-0.7-0.5-1.1
	c0.6,0.1,1.7,0.2,3.3,0.2h2.3v-2h-1.2c-1.3,0-2.1,0.1-2.5,0.3c-0.1-0.4-0.3-0.7-0.5-1.1c0.5,0.1,1.4,0.2,2.7,0.2h1.5v-1.8h-1.8v0.4
	c-0.1,0.4-0.4,0.6-1.1,0.6c-0.4,0-0.6-0.1-0.7-0.2c0-1.1,0-2.1,0.1-3.1v-2.1c0-0.9-0.1-1.4-0.1-1.6L126.4,37.5z M133.7,33.7
	c0,0.1-0.3,0.3-0.9,0.5c-0.4,0.5-0.9,1-1.7,1.3h1.8c0.5-0.6,0.9-1,1.2-1.2h0.2c0.1,0.1,0.3,0.2,0.4,0.3c0.7,0.6,1.1,1,1.1,1.2
	s-0.1,0.3-0.2,0.3h-8.3c-1.5,0-2.5,0.1-2.8,0.2c-0.1-0.4-0.3-0.7-0.5-1.1c0.6,0.1,1.6,0.2,3.1,0.2h0.4c-0.1-0.2-0.3-0.4-0.4-0.8
	c-0.3-0.7-0.5-1.2-0.9-1.7c0.1,0,0.1-0.1,0.1-0.3c1.5,0.2,2.2,0.7,2.3,1.6c0,0.3,0,0.5-0.1,0.7s-0.2,0.3-0.3,0.4h2.1
	c0.6-1,0.9-1.9,1-2.9C132.9,33.2,133.7,33.5,133.7,33.7z M134,31c0.7,0.6,1.1,1,1.1,1.2s-0.1,0.3-0.2,0.3h-7.4
	c-1.3,0-2.2,0.1-2.5,0.3c-0.1-0.4-0.3-0.7-0.5-1.1c0.5,0.1,1.4,0.2,2.7,0.2h2.1c-0.2-0.1-0.4-0.4-0.6-0.7c-0.4-0.6-0.8-1.1-1.4-1.5
	c0.1,0,0.1-0.1,0.1-0.2c2,0.2,3,0.6,3.1,1.4c0,0.3,0,0.5-0.1,0.7s-0.2,0.3-0.3,0.4h2.2c0.5-0.6,0.9-1,1.2-1.2h0.1
	C133.7,30.8,133.8,30.9,134,31z M128.5,39.9V38h-1.8v1.9H128.5z M128.5,42.3v-1.9h-1.8v1.9H128.5z M132.3,39.9V38h-2v1.9H132.3z
	 M132.3,42.3v-1.9h-2v1.9H132.3z"/>
<path class="st0" d="M140,31.1h3.3c0.5-0.6,0.8-0.9,1-0.9s0.5,0.2,1,0.6c0.2,0.1,0.3,0.3,0.4,0.4h7.5c0.5-0.8,0.9-1.2,1.1-1.3h0.1
	c0.2,0,0.4,0.3,0.8,0.6c0.5,0.5,0.8,0.8,0.9,1c0,0.2-0.1,0.3-0.1,0.4h-6.8v4.3h3.1c0.5-0.7,0.9-1,1.1-1c0.2,0,0.5,0.2,1.1,0.6
	c0.5,0.4,0.8,0.7,0.8,0.8s-0.1,0.3-0.3,0.4c-0.3,0.3-0.5,0.4-0.5,0.5v2.8c0.1,1.1,0.1,1.8,0.1,2.1c0,0.5-0.4,0.7-1.1,0.7
	c-0.5,0-0.8-0.1-0.9-0.4v-0.8h-3.4v5h3.7c0.7-0.9,1.2-1.4,1.5-1.6c0,0,0.1,0,0.2,0c0.2,0.1,0.4,0.2,0.6,0.4c0.9,0.8,1.4,1.3,1.4,1.6
	c0,0.2-0.1,0.3-0.2,0.3h-8.9c-1.6,0-2.6,0.1-3,0.2c-0.1-0.4-0.3-0.7-0.5-1.1c0.6,0.1,1.6,0.2,3.1,0.2h0.3V31.8H146
	c-0.1,0.1-0.2,0.1-0.3,0.2c-0.4,0.2-0.6,0.4-0.7,0.4v2.3c0.1,0.9,0.1,1.5,0.1,1.7c0,0.4-0.3,0.7-1,0.7c-0.5,0-0.7-0.1-0.8-0.3h-0.4
	v3.5h0.8c0.5-0.9,0.9-1.4,1-1.5c0.1,0,0.4,0.3,0.9,0.9c0.4,0.5,0.6,0.8,0.6,0.9c0,0.2-0.1,0.3-0.2,0.3h-3.2V45
	c1.2-0.2,2.3-0.5,3.2-0.8c0,0,0.1,0.1,0.1,0.2c-1.7,1.3-4.2,2.4-7.3,3.4c0,0.4-0.1,0.7-0.2,0.7c-0.1,0-0.3-0.2-0.5-0.6
	c-0.2-0.4-0.5-1.1-0.9-2c0.4,0,0.7,0,1-0.1v-4.9c0-0.7,0-1.3-0.1-1.8c1.6,0.2,2.3,0.4,2.3,0.6c0,0.1-0.1,0.2-0.3,0.3
	c-0.3,0.1-0.5,0.3-0.5,0.4v5.3c0.4,0,0.8-0.1,1.3-0.2V37h-0.8v0.1c-0.1,0.4-0.4,0.6-1.1,0.6c-0.4,0-0.6-0.1-0.7-0.2
	c0-1.1,0-2.1,0.1-3.2v-2.1c0-0.9-0.1-1.4-0.1-1.6L140,31.1z M143.3,36.2v-4.6h-3.1v4.6H143.3z M152.7,41.3v-4.7h-3.4v4.7H152.7z"/>
<path class="st0" d="M161,39.4c0.4,0.1,0.7,0.2,0.7,0.4c0,0.1-0.1,0.2-0.3,0.2c-0.3,0.1-0.5,0.2-0.5,0.3v0.3h2v-1.9h-1.6
	c0,0.3-0.4,0.5-1,0.5c-0.4,0-0.6-0.1-0.6-0.3c0-1.4,0.1-3,0.1-4.9c-0.1-0.4-0.1-0.7-0.1-1c1.5,0.2,2.3,0.4,2.4,0.7
	c0,0.1-0.1,0.2-0.1,0.3c0.7,0.3,1.3,0.6,1.7,0.8c0.3-0.6,0.5-1.2,0.6-1.8c1.3,0.5,1.9,0.8,1.9,0.9c0,0.1-0.1,0.2-0.4,0.2
	c-0.4,0-0.6,0-0.6,0c-0.2,0.4-0.4,0.8-0.6,1.2c0.8,0.6,1.2,1.1,1.2,1.6c0,0.4-0.1,0.7-0.3,0.8c-0.1,0.1-0.2,0.1-0.4,0.1
	c-0.4,0-0.8-0.3-1-1c-0.1-0.2-0.2-0.3-0.3-0.4c-0.6,0.7-1.3,1.1-2,1.5c0,0-0.1-0.1-0.2-0.1c0.7-0.7,1.2-1.4,1.7-2.1
	c-0.5-0.6-1-1.1-1.6-1.5c-0.3,0.1-0.4,0.2-0.4,0.3v3.9h5c0-1.2,0-2.6,0-4.1c-0.1-0.4-0.1-0.7-0.1-1c1.5,0.2,2.3,0.4,2.5,0.7
	c0,0.2-0.1,0.3-0.4,0.3c-0.3,0.2-0.5,0.3-0.5,0.3v4.6c0,0.3-0.3,0.5-1,0.5c-0.4,0-0.6-0.1-0.6-0.3s0-0.3,0-0.5h-1.8v1.9h2.1
	c0.5-0.5,0.8-0.8,0.9-0.9c0.2,0.1,0.4,0.2,0.7,0.4c0.4,0.2,0.6,0.4,0.7,0.6c0,0.2-0.1,0.3-0.4,0.4c-0.1,0.1-0.1,0.2-0.1,0.3v5.5
	c0,1-0.6,1.6-1.8,1.6c-0.3,0-0.5-0.1-0.5-0.4s-0.3-0.6-0.9-1c-0.3-0.2-0.6-0.3-0.9-0.3c0-0.1,0-0.2,0-0.3c0.6,0.1,1.3,0.1,2.1,0.1
	c0.3,0,0.4-0.2,0.4-0.6v-5h-2.3v2.6c0.3,0,0.5,0,0.7-0.1c-0.1-0.5-0.2-1-0.5-1.4c0.1,0,0.2-0.1,0.2-0.1c1.1,0.8,1.6,1.5,1.6,2.3
	c0,0.7-0.3,1-0.8,1c-0.4,0-0.6-0.2-0.6-0.6c0-0.1,0-0.2,0-0.3s0-0.2,0-0.4c-0.7,0.4-1.6,0.8-2.8,1.1c-0.1,0.5-0.2,0.7-0.3,0.7
	s-0.2-0.2-0.4-0.7c-0.1-0.4-0.3-1-0.5-1.6c0.3,0.1,0.8,0.1,1.5,0.1h0.3v-2.7h-2v3.3c0,1.9,0,3.2,0.1,3.9c0,0.3-0.4,0.4-1.1,0.4
	c-0.4,0-0.6-0.1-0.6-0.3c0-0.7,0-2,0.1-4.1v-3.2c-0.3,0-0.5,0-0.7,0.1c-0.2-0.3-0.3-0.6-0.5-1c0.3,0.1,0.7,0.1,1.1,0.2
	c0-0.5-0.1-0.9-0.1-1.3C159.8,39.2,160.4,39.3,161,39.4z M168.2,31c0.7,0.6,1.1,1,1.1,1.2s-0.1,0.3-0.2,0.3h-7.6
	c-1.4,0-2.3,0.1-2.6,0.3c-0.1-0.4-0.3-0.7-0.5-1.1c0.5,0.1,1.5,0.2,2.8,0.2h2.4c-0.2-0.1-0.4-0.4-0.6-0.7c-0.4-0.6-0.8-1-1.3-1.4
	c0.1,0,0.1-0.1,0.1-0.3c1.9,0.1,2.9,0.5,3,1.2c0,0.3,0,0.5-0.1,0.7s-0.2,0.4-0.3,0.4h2.1c0.5-0.6,0.9-1,1.2-1.2h0.1
	C167.9,30.8,168.1,30.9,168.2,31z M176.9,33.2c0.5,0.5,0.8,0.8,0.8,0.9c0,0.2,0,0.3-0.1,0.4h-3v3.3h0.4c0.5-0.8,0.8-1.2,1-1.2
	c0.1,0,0.3,0.3,0.8,0.8c0.4,0.4,0.5,0.7,0.5,0.8c0,0.2-0.1,0.3-0.2,0.3h-2.5v3.6h0.5c0.5-0.8,0.8-1.3,0.9-1.3s0.4,0.3,0.8,0.8
	c0.4,0.4,0.5,0.7,0.5,0.8c0,0.2-0.1,0.3-0.2,0.3h-2.6V47h0.5c0.5-0.8,0.9-1.3,1-1.3s0.4,0.3,0.9,0.8c0.4,0.4,0.6,0.7,0.6,0.8
	c0,0.2-0.1,0.3-0.2,0.3h-6v0.1c0,0.3,0,0.5,0,0.8s-0.3,0.5-1,0.5c-0.5,0-0.7-0.1-0.8-0.3V36.3c-0.4,0.7-0.8,1.4-1.2,2
	c-0.1,0-0.3-0.1-0.4-0.1c1.2-2.7,2.1-5.6,2.6-8.6c1.6,0.6,2.4,1,2.4,1.2s-0.3,0.3-0.9,0.3c-0.3,1-0.7,1.9-1.1,2.9h4.1
	c0.5-0.7,0.8-1.1,1-1.2h0.1C176.2,32.7,176.5,32.9,176.9,33.2z M171.4,37.8h1.6v-3.3h-1.6V37.8z M171.4,41.9h1.6v-3.6h-1.6V41.9z
	 M171.4,46.8h1.6v-4.3h-1.6V46.8z M175.1,32.6c0,0.7-0.3,1-0.8,1s-0.7-0.3-0.7-0.8c0-0.2,0-0.5-0.1-0.9s-0.2-0.8-0.3-1.2
	c-0.1-0.4-0.2-0.7-0.3-0.8c0.1-0.1,0.2-0.2,0.3-0.2C174.4,30.7,175.1,31.7,175.1,32.6z"/>
<g>
	<rect y="69.2" class="st1" width="13" height="0.8"/>
</g>
</svg>
